<svg xmlns="http://www.w3.org/2000/svg" viewBox="0 0 20.092 20.092">
  <defs>
    <style>
      .cls-1 {
        fill: #fff;
      }

      .cls-2 {
        fill: #3b62b8;
      }
    </style>
  </defs>
  <path class="cls-1" d="M18.707,20.092H1.386A1.39,1.39,0,0,1,0,18.707V1.386A1.39,1.39,0,0,1,1.386,0H18.707a1.39,1.39,0,0,1,1.386,1.386V18.707a1.39,1.39,0,0,1-1.386,1.386"/>
  <path class="cls-2" d="M186.6,88.275v3.464H183.48a.7.7,0,0,0-.693.693v2.079h3.464v3.464h-3.464V104.9h-3.464V97.975h-2.771V94.511h2.771V92.432a4.156,4.156,0,0,1,3.811-4.157H186.6Z" transform="translate(-169.624 -84.811)"/>
</svg>
