<svg xmlns="http://www.w3.org/2000/svg" viewBox="0 0 282.01 122.72"><defs><style>.cls-1,.cls-5{fill:none;stroke:#bdc9fb;stroke-miterlimit:10;}.cls-2{opacity:0.8;}.cls-3{fill:#c4cffb;}.cls-4{fill:#bdc9fb;}.cls-5{stroke-width:0.75px;}</style></defs><title>fight_菸商與公賣局</title><g id="圖層_2" data-name="圖層 2"><path class="cls-1" d="M91.63,20.39s7.92,5.85,12.78,9.81c-.27,1-1.26,1.44-2.61,1.44H22.42l-.72-2.52H59a5.46,5.46,0,0,1-.9-.63,22.61,22.61,0,0,0-3.69-10.62l.63-.36c16.74.18,17,8.37,12.33,11.61H84.61ZM67.33,46a120.58,120.58,0,0,0,2.25-14.31l16.65,3.6c-.36,1.08-1.26,1.89-3.33,1.89A140,140,0,0,1,71.83,46H82.27l5.67-6.3,11.61,8.91a5.82,5.82,0,0,1-3.6,2V89.78c0,8-1.8,12.42-15.12,13.59-.27-4-.63-6.66-1.89-8.55-1.26-1.62-2.7-3-6.3-3.69a18.8,18.8,0,0,1-3.78.45h-2V87.17H58.33v2.7c0,1-5,3.42-9.63,3.42H47.08V65a43.78,43.78,0,0,1-6.39,2.25V98.87c0,1.44-5.31,4.32-10.62,4.32h-2V40.73L41.59,46h5.13a7.72,7.72,0,0,1-1.8-1.17,28.1,28.1,0,0,0-4-12.24l.72-.45c17.19,1.71,16.83,11,11.7,13.86ZM40.69,64.22c7.11-4.86,7.92-10.17,8.19-15.75H40.69Zm18,4.59h7.38l4.41-4.68c-3.69-.54-4.14-2.52-4.14-6.75V48.47H60.49c-.81,6.3-3.42,11.88-12.6,16.2Zm8.19,15.84V71.33H58.33V84.65ZM78.31,89c0,.27-.9.63-2.07,1.08,2.07.18,4.23.27,5.22.27,1.35,0,1.71-.63,1.71-1.71v-25a23.21,23.21,0,0,1-6.93.72H71.92l9.27,6.84a5,5,0,0,1-2.88,1.53Zm-3.24-40.5v7.11c0,.9.18,1.17.9,1.17h3a8.73,8.73,0,0,0,1.53-.09,13.65,13.65,0,0,0,1.89-.27h.81V48.47Z"/><g class="cls-2"><path class="cls-3" d="M122,61.36a64.12,64.12,0,0,0-1.22-12,64,64,0,0,0-2.25-8,61,61,0,0,0-3.69-8.29,63.48,63.48,0,0,0-5-7.81,61.1,61.1,0,0,0-6-6.72,59.09,59.09,0,0,0-11.9-9,59.63,59.63,0,0,0-13-5.6c-1.41-.39-.46-.21,2,.63a58.11,58.11,0,0,1,11,5,59.73,59.73,0,0,1,13,10.06,61.66,61.66,0,0,0-8.75-7.48,67.69,67.69,0,0,0-8.29-5,60.83,60.83,0,0,0-73.1,16.06A66.6,66.6,0,0,0,7.21,34.67,60.69,60.69,0,0,1,35.53,6.82,60.92,60.92,0,0,1,74.79,2.45c-.7-.19-1.42-.3-2.11-.45a61.05,61.05,0,0,0-41,6.57,70.94,70.94,0,0,0-6.21,3.95,62,62,0,0,1,6.21-3.95,60.43,60.43,0,0,1,18-6.73,62.48,62.48,0,0,1,13.23-1A56.5,56.5,0,0,1,72.68,2l1.54.3,1.53.37c1,.23,2,.52,3,.82.59.17,1.23.34,1.86.57l-.08,0a54.9,54.9,0,0,0-11.1-2.79,62,62,0,0,0-20.85.4A60.63,60.63,0,0,0,28.34,9.48,56.58,56.58,0,0,0,17.49,18,48.78,48.78,0,0,0,11,26.37a76.59,76.59,0,0,0-5.2,9.87,42,42,0,0,0-2.51,6.48,18.67,18.67,0,0,1-.41,2.22C1.41,50,.44,55.32.61,59.41c0,1.42-.37,4.13-.5,6.6,0,.61-.07,1.22-.11,1.77v1.53A5.72,5.72,0,0,0,.15,71C.87,72,1,72.14,1,72.87A24,24,0,0,0,2,78.22c.17.82,1.41,3.24,2,4.79A33.5,33.5,0,0,0,6.49,89c.94,1.66,2,3.39,3.77,6A91.17,91.17,0,0,0,16.67,103a39.14,39.14,0,0,0,7.18,6.22,67.74,67.74,0,0,0,6.18,4c2.93,1.66,5.89,3,5.89,3a57.46,57.46,0,0,0,12.21,4.11A86.64,86.64,0,0,0,59.24,122a77.16,77.16,0,0,0,15.05-1.43,58.16,58.16,0,0,0,14.63-5.17,65.1,65.1,0,0,0,9.67-6.12,56.2,56.2,0,0,0,7.78-7.12c.8-.89,1.46-1.7,2.07-2.4l1.48-1.92c.45-.54,1.1-1.55,1.86-2.63s1.5-2.33,2.08-3.38l-.28.53c.39-.71,1.2-2.07,1.55-2.8s.27-.53.19-.35c-.17.36-.34.72.29-.53a61.28,61.28,0,0,0,3.79-9.5,62.74,62.74,0,0,0,2.09-10l.11-.88c.15-1,.18-2,.26-3l.06-.79c0-.87.06-2.23.09-3.17,0,.19,0,1.74-.12,3.55-.07.91-.13,1.89-.22,2.79s-.22,1.73-.31,2.39.1-.79.18-1.38c-.2,1.68-.37,2.56-.43,2.86l.12-.69L121,72.45c0-.2.14-.78.14-.78a58.91,58.91,0,0,1-3.8,12.72,59.51,59.51,0,0,1-6.51,11.37,62.67,62.67,0,0,1-4.24,5.22c-.65.74-2.21,2.27-2.79,2.8a17.66,17.66,0,0,0-1.22,1.3,60.66,60.66,0,0,1-9.66,7c-3.48,2-6.44,3.23-6.19,3.3l-1.54.67-1.3.5c-.81.31-1.5.61-2.21.84a45.66,45.66,0,0,1-5.35,1.6,59.44,59.44,0,0,1-23.65.73,57.76,57.76,0,0,1-13-3.8c-.78-.29-1.51-.68-2.25-1s-1.44-.69-2.12-1.06A58.12,58.12,0,0,1,17.12,99,58.85,58.85,0,0,1,6.76,80,61.15,61.15,0,0,1,3.85,58.69,62.07,62.07,0,0,1,9,36.38,57.2,57.2,0,0,1,23.52,16.46,57.81,57.81,0,0,1,45.09,4.4,59.62,59.62,0,0,1,90.38,8.84a61.37,61.37,0,0,1,16,12.36,64.07,64.07,0,0,1,5.58,7.09A65.16,65.16,0,0,1,116,35.35a60.43,60.43,0,0,1,4.45,12.56,56.76,56.76,0,0,1,1.34,8.63C122,58.14,122,59.75,122,61.36Z"/></g><g class="cls-2"><path class="cls-3" d="M160,61.36a59.12,59.12,0,0,0,3.46,20,61,61,0,0,0,3.69,8.29,65.9,65.9,0,0,0,5.05,7.81,61.81,61.81,0,0,0,12.21,12,61.21,61.21,0,0,0,18.66,9.3c1.42.39.47.21-2-.63a58.4,58.4,0,0,1-11-5,60,60,0,0,1-13-10.06,62.22,62.22,0,0,0,8.75,7.48,66.45,66.45,0,0,0,8.29,5,60.76,60.76,0,0,0,38.59,4.71,61.09,61.09,0,0,0,24.54-11.19,60.2,60.2,0,0,0,10-9.58A66.22,66.22,0,0,0,274.81,88a60.73,60.73,0,0,1-28.33,27.86,60.85,60.85,0,0,1-39.26,4.36c.71.19,1.42.3,2.12.45a60.92,60.92,0,0,0,41-6.57,71,71,0,0,0,6.22-3.94,62.05,62.05,0,0,1-6.22,3.94,60.34,60.34,0,0,1-18,6.74,61.82,61.82,0,0,1-13.23,1,54.62,54.62,0,0,1-9.79-1.16l-1.55-.3-1.53-.37c-1-.22-2-.52-3-.82-.59-.16-1.23-.34-1.86-.57l.08,0a54.64,54.64,0,0,0,11.1,2.8,62,62,0,0,0,20.86-.4,60.42,60.42,0,0,0,20.28-7.84,56.25,56.25,0,0,0,10.85-8.55,48.67,48.67,0,0,0,6.53-8.34,76,76,0,0,0,5.19-9.87A42.24,42.24,0,0,0,278.77,80a20.57,20.57,0,0,1,.4-2.22c1.43-5.09,2.41-10.37,2.24-14.47,0-1.42.37-4.12.49-6.59,0-.62.07-1.23.11-1.78V53.4a5.63,5.63,0,0,0-.15-1.66c-.72-1-.82-1.17-.88-1.9a24,24,0,0,0-.93-5.35c-.18-.82-1.41-3.24-1.95-4.79a33.78,33.78,0,0,0-2.59-5.94c-.94-1.65-2-3.38-3.76-6a93.07,93.07,0,0,0-6.41-8.06,39.48,39.48,0,0,0-7.18-6.22,68.5,68.5,0,0,0-6.19-4c-2.92-1.66-5.88-3-5.88-3a57.94,57.94,0,0,0-12.21-4.1A83.26,83.26,0,0,0,222.77.75a76.3,76.3,0,0,0-15,1.43A58,58,0,0,0,193.1,7.34a65.8,65.8,0,0,0-9.68,6.12,56.81,56.81,0,0,0-7.77,7.12c-.81.89-1.47,1.71-2.07,2.41s-1.05,1.35-1.49,1.91-1.1,1.55-1.86,2.63-1.5,2.33-2.07,3.38l.27-.53c-.38.71-1.2,2.08-1.55,2.8s-.27.53-.18.35c.17-.36.33-.72-.3.53a61.25,61.25,0,0,0-3.78,9.5,62.78,62.78,0,0,0-2.1,10c0,.25-.06.49-.11.88-.15,1-.17,2-.26,3l-.06.79c0,.87-.06,2.23-.08,3.18,0-.2,0-1.75.11-3.56.07-.91.13-1.89.23-2.79s.22-1.73.3-2.39-.1.79-.17,1.38c.19-1.68.36-2.56.42-2.86s0,0-.12.69c.14-.79.29-1.57.29-1.57,0,.2-.14.79-.14.79a58.24,58.24,0,0,1,3.79-12.73A59.51,59.51,0,0,1,171.23,27a60.71,60.71,0,0,1,4.24-5.22c.65-.74,2.2-2.27,2.79-2.81a16.37,16.37,0,0,0,1.22-1.29,61.3,61.3,0,0,1,9.66-7c3.47-2,6.43-3.23,6.19-3.3l1.54-.66,1.3-.51c.81-.31,1.49-.6,2.21-.83a45.34,45.34,0,0,1,5.35-1.61A59.5,59.5,0,0,1,229.39,3a57.38,57.38,0,0,1,13,3.79c.78.29,1.51.68,2.25,1s1.44.69,2.12,1.05a58.41,58.41,0,0,1,28.54,33.87A60.69,60.69,0,0,1,278.16,64,62.07,62.07,0,0,1,273,86.33a57.92,57.92,0,0,1-36.12,32,59.76,59.76,0,0,1-45.29-4.44,61.14,61.14,0,0,1-15.94-12.36,62.91,62.91,0,0,1-5.58-7.09A62,62,0,0,1,166,87.36a60,60,0,0,1-4.46-12.56,56.76,56.76,0,0,1-1.34-8.63C160.06,64.57,160.05,63,160,61.36Z"/></g><path class="cls-4" d="M122.51,61.19a26.16,26.16,0,0,1,3-.52.63.63,0,0,1,.7.54.64.64,0,0,1-.54.71h-.16a24.19,24.19,0,0,1-3-.53.1.1,0,0,1-.08-.12A.11.11,0,0,1,122.51,61.19Z"/><path class="cls-4" d="M132.4,60.53c.86.09,1.72.23,2.58.33a20.27,20.27,0,0,0,2.58.13.31.31,0,0,1,0,.61h0a20.27,20.27,0,0,0-2.58.13c-.86.09-1.72.24-2.58.33a.77.77,0,1,1-.17-1.53Z"/><path class="cls-4" d="M144.45,60.41c1.72-.08,3.45-.2,5.17-.18a1.07,1.07,0,0,1,0,2.13c-1.72,0-3.45-.1-5.17-.18a.89.89,0,0,1-.84-.93A.88.88,0,0,1,144.45,60.41Z"/><path class="cls-4" d="M156.51,60.69c1,.13,2,.29,3,.5a.12.12,0,0,1,.08.13.09.09,0,0,1-.08.07c-1,.22-2,.38-3,.51a.61.61,0,1,1-.17-1.21Z"/><path class="cls-5" d="M182.35,49c-.18.43-.68.72-1.54.65a30.24,30.24,0,0,1-14.15,14.58l-.32-.29a44.59,44.59,0,0,0,9.07-17.57Zm4.94,15.26c15.62,5.51,10.83,18.14,5,13.18a23.44,23.44,0,0,0-.94-4.36,162.3,162.3,0,0,1-18.46,4.72,3,3,0,0,1-1.41,1.08l-2.12-6.66a5.57,5.57,0,0,0,1.76-.69c2.67-2,6.88-9.9,8-14.43l7.34,2.63a1.47,1.47,0,0,1-1.4.75,49.55,49.55,0,0,1-11.81,11.95c4.43,0,11-.25,17.64-.75a30,30,0,0,0-3.89-7.2Zm4.06-17.53c-.5.61-1.9.94-3.6,1.05,1.73,5.07,6.23,9.21,12.24,11l-.07.43a8.24,8.24,0,0,0-4.61,5.29c-4.78-3.7-7.41-9.46-8.42-17h-4.43l-.32-1h3.71l1.47-2.45Z"/><path class="cls-5" d="M231.42,44.78s2.66,1.91,4.32,3.24c-.11.4-.47.58-1,.58h-5c.86.61,2.55,1.83,3.71,2.81-.08.39-.47.57-1,.57h-2.34l4,2.92a2.12,2.12,0,0,1-1.12.61V59.4c0,.28-1.91,1-3.42,1.18l2.59,2a2.23,2.23,0,0,1-1.26.68V72c0,.25-2.62,1.12-4.31,1.12h-.9v-.83h-11l5,3.35c-.32.39-1.08.61-2.27.36-3.49,1.58-9.64,2.48-14.94,2.62l-.1-.43a36.89,36.89,0,0,0,11.88-5.9h-.58a7,7,0,0,1-4.32,1.44h-.72V61a8,8,0,0,1-1.84.25h-.64V52l5,1.91h16.67l1.84-2H206.19l-.29-1h10.8V48.6H204l-.29-1h13v-3.1l6.51.47c-.07.51-.28.87-1.29,1v1.58h7.16ZM210.8,59.86c0,.08-.11.18-.26.29L214,61.48h11.27l1.83-2H210.8Zm0-4.93V58.5h2.77V54.93Zm14.83,9.76v-2.2H213.71v2.2ZM213.71,68h11.92V65.7H213.71Zm11.92,3.35V69H213.71v2.34Zm-7.74-16.38V58.5h3V54.93Zm2.8,18.43c21.93-.5,13.25,7.6,8.93,4.57a25.15,25.15,0,0,0-9-4.13Zm8.17-24.76h-6.94V51h4.93Zm-3.63,6.33V58.5h2.91V54.93Z"/><path class="cls-5" d="M272.68,60.08a2.29,2.29,0,0,1-1.48.69c-.18,11-.58,14.64-2.45,16.3a7.18,7.18,0,0,1-5,1.51c0-1.58-.11-2.73-.65-3.42a5.51,5.51,0,0,0-3-1.65l0-.4c1.19.11,3.06.18,3.75.18a1.53,1.53,0,0,0,1.08-.32c.82-.79,1.08-4.68,1.22-13.07H248.49c-.18,6.41-1.48,13.79-9.36,18.57l-.29-.21c4.1-6,4.46-13.61,4.46-20.63V45.5l6,2h13.35L264.86,45l4.76,3.53a2.21,2.21,0,0,1-1.41.79v6.23c0,.25-2.66,1.05-4.32,1.05H263v-2H248.52v4.21h17.24l2.6-2.52ZM248.52,48.53v5.14H263V48.53Zm14.19,22.82c0,.32-2.38,1.29-4,1.29h-.87v-2h-3.63v2.3c0,.4-2.09,1.41-4,1.41h-.65V61.52l4.86,1.87h3.13l2.05-2.16,4.21,3.13a2.12,2.12,0,0,1-1.11.62Zm-4.83-1.73V64.4h-3.63v5.22Z"/></g></svg>