<svg id="圖層_1" data-name="圖層 1" xmlns="http://www.w3.org/2000/svg" viewBox="0 0 122.72 121"><defs><style>.cls-1{opacity:0.8;}.cls-2{fill:#c4cffb;}.cls-3{fill:none;stroke:#bdc9fb;stroke-miterlimit:10;}</style></defs><title>敬菸</title><g class="cls-1"><path class="cls-2" d="M61,120.67a60.31,60.31,0,0,0,12-1.22,61.86,61.86,0,0,0,7.94-2.3,60.43,60.43,0,0,0,8.2-3.75,65.09,65.09,0,0,0,7.71-5.1,62.9,62.9,0,0,0,6.63-6,63.64,63.64,0,0,0,5.23-6.17,66.59,66.59,0,0,0,3.72-5.6,64.07,64.07,0,0,0,5.73-12.84c.41-1.4.23-.45-.64,2a58.05,58.05,0,0,1-5.09,10.83,61.62,61.62,0,0,1-10,12.9A66.62,66.62,0,0,0,110,94.93a71,71,0,0,0,5.26-8.12,61.37,61.37,0,0,0,4.23-11.59,60.33,60.33,0,0,0-10.74-51.66,59.53,59.53,0,0,0-9.66-9.92A65,65,0,0,0,87.62,6.18a60.86,60.86,0,0,1,28.14,28.11,60.57,60.57,0,0,1,4.57,39.47c.2-.71.32-1.42.49-2.13A60.21,60.21,0,0,0,114,30.36a71.9,71.9,0,0,0-4-6.2,61.47,61.47,0,0,1,4,6.2,60.78,60.78,0,0,1,4.17,8.54,59.86,59.86,0,0,1,2.89,9.5,61.16,61.16,0,0,1,1,13.36,50.08,50.08,0,0,1-1.31,9.87l-.31,1.56-.37,1.55c-.24,1-.54,2-.85,3.06-.15.59-.31,1.24-.54,1.88l0-.08a45.16,45.16,0,0,0,3.15-11.16,58.94,58.94,0,0,0-8.64-41.52,56.91,56.91,0,0,0-8.86-10.69,51.81,51.81,0,0,0-8.5-6.35,78,78,0,0,0-9.93-5A44.52,44.52,0,0,0,79.5,2.47c-.2,0-1.21-.2-2.2-.41A52.66,52.66,0,0,0,62.91.1c-1.41,0-4.09-.17-6.5-.07L54.68.09,53.2.22a10.12,10.12,0,0,0-1.62.22,6,6,0,0,1-1.89.62,32.89,32.89,0,0,0-5.18,1.17c-.79.2-3.23,1.19-4.74,1.75A49,49,0,0,0,34,6.56a64.05,64.05,0,0,0-6,3.54,71.88,71.88,0,0,0-8,6.19,51.31,51.31,0,0,0-6.37,6.86,60.65,60.65,0,0,0-4.19,6C7.71,32,6.34,34.89,6.34,34.89A56.66,56.66,0,0,0,2,47,110.34,110.34,0,0,0,0,58.1,85.49,85.49,0,0,0,1.26,73.27a53.75,53.75,0,0,0,5,14.86A80.24,80.24,0,0,0,12.4,98a52.23,52.23,0,0,0,7.11,8c.91.81,1.76,1.46,2.48,2.06s1.41,1,2,1.49,1.61,1.07,2.74,1.79,2.43,1.41,3.5,2l-.59-.18c.73.37,2.13,1.17,2.87,1.5s.53.29.33.24c-.39-.12-.8-.22.48.4A61.54,61.54,0,0,0,43,118.85a72.11,72.11,0,0,0,10.1,1.86l.9.06c1,.14,2,.15,3,.23.6,0,.4,0,.8,0,0-.07,4.18,0,3.18-.15-.2,0-1.74,0-3.55-.14-.91-.08-1.88-.15-2.78-.25l-2.38-.34c-.59-.09.79.06,1.38.11a22.51,22.51,0,0,1-2.84-.47c-.29-.07,0,0,.69.09L50,119.51l.78.1a50.94,50.94,0,0,1-12.48-4.18,61.47,61.47,0,0,1-10.87-6.91c-1.4-1-3.6-2.93-5-4.23a34.36,34.36,0,0,1-2.59-2.86c-1-.91-1-.61-1.55-.91a73,73,0,0,1-6.47-9.67C9.84,87.46,8.56,84.63,8.21,85l-.66-1.5L7,82.24c-.34-.78-.66-1.44-.93-2.12a33.22,33.22,0,0,1-1.8-5.19A60.61,60.61,0,0,1,2.9,51.54,57.61,57.61,0,0,1,6.24,38.46c.27-.79.64-1.53.94-2.29s.65-1.46,1-2.16A56.91,56.91,0,0,1,42,4.61,58.52,58.52,0,0,1,63.68,2,63.17,63.17,0,0,1,86,7.68a58.43,58.43,0,0,1,19.73,14.8,57.57,57.57,0,0,1,11.81,21.59,59,59,0,0,1-4.83,44.78,63.46,63.46,0,0,1-12.16,15.75,64.46,64.46,0,0,1-6.92,5.61,63.88,63.88,0,0,1-6.92,4.17A58.52,58.52,0,0,1,74.35,119a53.87,53.87,0,0,1-8.58,1.41C64.18,120.58,62.58,120.61,61,120.67Z"/></g><path class="cls-3" d="M97.15,42c-1.26,13.86-4.23,26.73-10.8,37.53a55.29,55.29,0,0,0,17.19,12.33l-.27.9c-6.12,1.35-9.45,4.86-11,10.8a45,45,0,0,1-12.6-15.21c-5.94,6.3-13.77,11.61-24,15.57l-.63-.81a62.06,62.06,0,0,0,20.7-23.76,120,120,0,0,1-5.31-23.31,65.8,65.8,0,0,1-6.48,8.28l-1.17-.63c1-3.15,2-6.75,2.79-10.53a6.84,6.84,0,0,1-3.33,1.35C62,83.87,61.42,93.23,57,97.28c-2.79,2.7-6.39,3.87-11.7,3.87,0-3.6-.27-6.3-1.62-7.83-1.35-1.71-3.78-3-7.2-3.78V88.46c2.88.18,7.47.45,9.18.45a3.06,3.06,0,0,0,2.61-.9c2.07-2,2.34-12.51,2.52-35.46H35.68a61.53,61.53,0,0,1-5.22,6.75l4.95,1.89h2.25l4.14-4.32,8.55,6.39a4.72,4.72,0,0,1-2.7,1.44V81.17c-.09.72-4.77,2.43-7.65,2.43H38.38v-4H34.24v4.32c0,.63-2.88,2.43-7.56,2.43H25.06V64.43a43.48,43.48,0,0,1-7.56,5.22L16.69,69c5.13-6.39,9.09-17.37,10.62-26.73l15.57,1.89c-.18,1-.9,1.53-3.24,1.62-.72,1.44-1.53,2.79-2.34,4.23H49.81l5.94-5.94,9.9,8.55a192.32,192.32,0,0,0,4.23-33.57l16.2,3.51c-.36,1.17-1.44,2-3.51,2.07A111,111,0,0,1,78.34,39.5h8.28l6.3-8.37s7.11,5.67,11.25,9.45c-.27,1-1.26,1.44-2.52,1.44ZM18.22,30.68H28.84V19.52L42.61,20.7c-.18,1.25-.9,2.15-3.33,2.51v17.1c0,.72-4.59,2.16-8.64,2.16h-1.8V33.2H19Zm16,33V77h4.14V63.71ZM54.4,41.57c0,.72-4.68,2.25-9,2.25H43.6V19.62l14.13,1.17c-.18,1.25-.9,2.15-3.33,2.51v7.38h1.89l4.32-6.12s5,4.23,7.92,7.2c-.27,1-1.17,1.44-2.43,1.44H54.4Zm23,.45a80.76,80.76,0,0,1-5.13,10.89,67.6,67.6,0,0,0,7.11,17.46c3-8.91,4.23-18.45,4.59-28.35Z"/></svg>