<svg xmlns="http://www.w3.org/2000/svg" viewBox="0 0 819.69 433.57"><defs><style>.cls-1{fill:#f6a3a8;}.cls-2,.cls-6{fill:none;stroke:#f687a8;stroke-width:0.5px;}.cls-2{stroke-linecap:round;stroke-linejoin:round;stroke-dasharray:2 8;}.cls-3{fill:#f687a8;}.cls-4{opacity:0.8;}.cls-5{fill:#6673ae;}.cls-6{stroke-miterlimit:10;}.cls-7{fill:#d1dafa;}.cls-8{fill:#d8dafa;}</style></defs><title>二手菸報導數</title><g id="圖層_3" data-name="圖層 3"><path class="cls-1" d="M274.34,433.57a9.72,9.72,0,0,1-1.14-1,5.91,5.91,0,0,1-.92-1.19,5.76,5.76,0,0,1-.61-1.46,6.81,6.81,0,0,1-.23-1.82,6.43,6.43,0,0,1,.23-1.77,5.74,5.74,0,0,1,.63-1.45,6.15,6.15,0,0,1,.93-1.22,13,13,0,0,1,1.14-1.07l.25.22a11.9,11.9,0,0,0-.87,1.06,6.16,6.16,0,0,0-.68,1.17,7.29,7.29,0,0,0-.44,1.39,8.57,8.57,0,0,0-.15,1.67,7.79,7.79,0,0,0,.16,1.66,7.29,7.29,0,0,0,.47,1.41,6.08,6.08,0,0,0,.68,1.17,8.68,8.68,0,0,0,.83,1Z"/><path class="cls-1" d="M283.54,431.05H280v-.35a4.92,4.92,0,0,1,.6-.23c.21-.07.41-.13.62-.18V424.4l.05-.71a3.46,3.46,0,0,1-.7.19,3.64,3.64,0,0,1-.74,0l-.06-.29a10.33,10.33,0,0,0,1.14-.45,5.32,5.32,0,0,0,1.09-.67h.3v7.78q.3.07.6.18a4.92,4.92,0,0,1,.6.23Z"/><path class="cls-1" d="M285.74,425.2a3.14,3.14,0,0,1,.17-1.08,2.47,2.47,0,0,1,.52-.85,2.29,2.29,0,0,1,.84-.56,2.9,2.9,0,0,1,1.14-.2,2.81,2.81,0,0,1,1.21.23,2.26,2.26,0,0,1,.84.65,2.75,2.75,0,0,1,.5,1,5.55,5.55,0,0,1,.15,1.34,6.49,6.49,0,0,1-.32,2.06,5.71,5.71,0,0,1-.88,1.66,4.68,4.68,0,0,1-1.32,1.16,4.2,4.2,0,0,1-1.64.55l-.22-.34a4.26,4.26,0,0,0,1.26-.57,4.1,4.1,0,0,0,.93-.88,4.62,4.62,0,0,0,.63-1.13,6.05,6.05,0,0,0,.34-1.3,2.49,2.49,0,0,1-.66.48,2.1,2.1,0,0,1-1,.2,3,3,0,0,1-1-.16,2.2,2.2,0,0,1-.78-.47,2.46,2.46,0,0,1-.51-.77A2.82,2.82,0,0,1,285.74,425.2Zm1.15,0a1.94,1.94,0,0,0,.11.68,1.75,1.75,0,0,0,.31.59,1.49,1.49,0,0,0,.49.41,1.28,1.28,0,0,0,.65.16,2.06,2.06,0,0,0,.95-.2,1.38,1.38,0,0,0,.56-.5,2.18,2.18,0,0,0,0-.39v-.36a4.38,4.38,0,0,0-.09-.88,2.94,2.94,0,0,0-.28-.82,1.75,1.75,0,0,0-.5-.58,1.26,1.26,0,0,0-.75-.23,1.22,1.22,0,0,0-1.09.57A2.72,2.72,0,0,0,286.89,425.19Z"/><path class="cls-1" d="M292.47,425.2a3.4,3.4,0,0,1,.17-1.08,2.33,2.33,0,0,1,1.36-1.41,2.9,2.9,0,0,1,1.14-.2,2.81,2.81,0,0,1,1.21.23,2.38,2.38,0,0,1,.85.65,2.9,2.9,0,0,1,.49,1,5.55,5.55,0,0,1,.15,1.34,6.22,6.22,0,0,1-.32,2.06,5.71,5.71,0,0,1-.88,1.66,4.42,4.42,0,0,1-1.32,1.16,4.2,4.2,0,0,1-1.64.55l-.22-.34a4.15,4.15,0,0,0,1.26-.57,4.1,4.1,0,0,0,.93-.88,4.62,4.62,0,0,0,.63-1.13,5.52,5.52,0,0,0,.34-1.3,2.44,2.44,0,0,1-.65.48,2.17,2.17,0,0,1-1,.2,3,3,0,0,1-1-.16,2.2,2.2,0,0,1-.78-.47,2.46,2.46,0,0,1-.51-.77A2.82,2.82,0,0,1,292.47,425.2Zm1.15,0a2.2,2.2,0,0,0,.11.68,1.75,1.75,0,0,0,.31.59,1.6,1.6,0,0,0,.49.41,1.28,1.28,0,0,0,.65.16,2.06,2.06,0,0,0,.95-.2,1.31,1.31,0,0,0,.56-.5,2.06,2.06,0,0,0,0-.39v-.36a4.38,4.38,0,0,0-.09-.88,3,3,0,0,0-.29-.82,1.65,1.65,0,0,0-.5-.58,1.25,1.25,0,0,0-.74-.23,1.24,1.24,0,0,0-1.1.57A2.8,2.8,0,0,0,293.62,425.19Z"/><path class="cls-1" d="M303.74,431.05h-3.51v-.35a4.49,4.49,0,0,1,.61-.23,6.32,6.32,0,0,1,.62-.18V424.4l0-.71a3.2,3.2,0,0,1-.69.19,3.7,3.7,0,0,1-.75,0l-.06-.29a10.33,10.33,0,0,0,1.14-.45,5.14,5.14,0,0,0,1.1-.67h.3v7.78q.3.07.6.18a4.92,4.92,0,0,1,.6.23Z"/><path class="cls-1" d="M306.22,427.3h3.38v.75h-3.38Z"/><path class="cls-1" d="M311.37,425.2a3.4,3.4,0,0,1,.17-1.08,2.33,2.33,0,0,1,1.36-1.41,2.9,2.9,0,0,1,1.14-.2,2.81,2.81,0,0,1,1.21.23,2.38,2.38,0,0,1,.85.65,2.9,2.9,0,0,1,.49,1,5.55,5.55,0,0,1,.15,1.34,6.22,6.22,0,0,1-.32,2.06,5.71,5.71,0,0,1-.88,1.66,4.42,4.42,0,0,1-1.32,1.16,4.2,4.2,0,0,1-1.64.55l-.22-.34a4.15,4.15,0,0,0,1.26-.57,4.1,4.1,0,0,0,.93-.88,4.62,4.62,0,0,0,.63-1.13,5.52,5.52,0,0,0,.34-1.3,2.44,2.44,0,0,1-.65.48,2.17,2.17,0,0,1-1,.2,3,3,0,0,1-1-.16,2.2,2.2,0,0,1-.78-.47,2.46,2.46,0,0,1-.51-.77A2.82,2.82,0,0,1,311.37,425.2Zm1.15,0a2.2,2.2,0,0,0,.11.68,1.75,1.75,0,0,0,.31.59,1.6,1.6,0,0,0,.49.41,1.28,1.28,0,0,0,.65.16,2.06,2.06,0,0,0,.95-.2,1.31,1.31,0,0,0,.56-.5,2.06,2.06,0,0,0,0-.39v-.36a4.38,4.38,0,0,0-.09-.88,3,3,0,0,0-.29-.82,1.65,1.65,0,0,0-.5-.58,1.25,1.25,0,0,0-.74-.23,1.24,1.24,0,0,0-1.1.57A2.8,2.8,0,0,0,312.52,425.19Z"/><path class="cls-1" d="M322.71,422h.3c0,.12,0,.25,0,.4s0,.3-.05.45-.05.28-.08.42a1.9,1.9,0,0,1-.08.34h-2.95l-.29,2.31h.78a3.84,3.84,0,0,1,1.1.16,2.44,2.44,0,0,1,.85.48,2.4,2.4,0,0,1,.55.78,2.61,2.61,0,0,1,.2,1,2.93,2.93,0,0,1-.24,1.23,2.6,2.6,0,0,1-.64.88,2.71,2.71,0,0,1-.9.53,3,3,0,0,1-1,.18,3.28,3.28,0,0,1-.52,0,5.23,5.23,0,0,1-.54-.12c-.18-.06-.35-.13-.51-.2a2.22,2.22,0,0,1-.41-.25l.35-1.08h.24l.18.22.22.27a3.25,3.25,0,0,0,.23.29,1.84,1.84,0,0,0,.21.25l.22.06a.85.85,0,0,0,.32,0,1.58,1.58,0,0,0,.72-.16,1.69,1.69,0,0,0,.57-.42,2,2,0,0,0,.38-.63,2.45,2.45,0,0,0,.13-.78,1.86,1.86,0,0,0-.18-.84,1.6,1.6,0,0,0-.49-.57,2.21,2.21,0,0,0-.73-.33,2.8,2.8,0,0,0-.87-.1h-.85l.48-4.16h2.85Z"/><path class="cls-1" d="M327.75,433.33a8.08,8.08,0,0,0,.83-1,6.42,6.42,0,0,0,.68-1.21,8.5,8.5,0,0,0,.46-1.45,8.12,8.12,0,0,0,.16-1.68,8.28,8.28,0,0,0-.15-1.65,7.37,7.37,0,0,0-.43-1.35,6.6,6.6,0,0,0-.68-1.14,11.59,11.59,0,0,0-.87-1l.25-.22a14,14,0,0,1,1.15,1,6.72,6.72,0,0,1,.93,1.18,5.85,5.85,0,0,1,.62,1.44,6.49,6.49,0,0,1,.23,1.77,6.88,6.88,0,0,1-.22,1.82,6.14,6.14,0,0,1-1.52,2.74,8.41,8.41,0,0,1-1.15,1Z"/><path class="cls-1" d="M294.45,413.79h-5.54v-.68c.27-.12.54-.22.81-.32s.55-.16.83-.23v-7.34l.06-.94a4.79,4.79,0,0,1-.93.19,8.06,8.06,0,0,1-1,0l-.08-.59c.57-.15,1.18-.36,1.85-.61a12.21,12.21,0,0,0,1.85-.9h.54v10.16c.27.07.53.14.8.23s.53.2.8.32Z"/><path class="cls-1" d="M300.48,413a1.65,1.65,0,0,0,.72-.17,1.93,1.93,0,0,0,.63-.47,2.39,2.39,0,0,0,.62-1.62,2.28,2.28,0,0,0-.18-.94,2.11,2.11,0,0,0-.48-.64,2,2,0,0,0-.68-.38,2.63,2.63,0,0,0-.77-.12h-.93V408l2.4-3.14.54-.55v-.07l-.86.1h-2.42l-.62,1.63h-.54c-.06-.23-.11-.49-.17-.8s-.11-.62-.16-.93-.09-.61-.11-.9a6.75,6.75,0,0,1,0-.72h7v.79l-2.77,3.37-.68.71v0l.54-.11a3.82,3.82,0,0,1,1.35.28,2.84,2.84,0,0,1,1.63,1.65,3.33,3.33,0,0,1,.22,1.24,3,3,0,0,1-.34,1.44,3.42,3.42,0,0,1-.92,1.08,4.09,4.09,0,0,1-1.35.68,5.36,5.36,0,0,1-1.61.24,6.22,6.22,0,0,1-1-.08,5.24,5.24,0,0,1-.91-.2,4.11,4.11,0,0,1-.77-.3,2.91,2.91,0,0,1-.58-.38l.59-1.67h.47c.06.08.15.18.26.3l.35.39.36.42.31.35.36.08A2.44,2.44,0,0,0,300.48,413Z"/><path class="cls-1" d="M308,406.15h-.54c-.07-.16-.14-.35-.22-.56l-.25-.68-.24-.69c-.07-.23-.13-.44-.17-.63a5.24,5.24,0,0,1,1.43-.84,5.77,5.77,0,0,1,2.12-.35,4.59,4.59,0,0,1,1.52.23,2.83,2.83,0,0,1,1.06.62,2.52,2.52,0,0,1,.63.93,3.24,3.24,0,0,1,.2,1.13,4,4,0,0,1-.45,1.85,8.48,8.48,0,0,1-1.1,1.63,13.41,13.41,0,0,1-1.41,1.41l-1.36,1.18-.83.56V412l1-.09h2.75l.79-1.79h.54c0,.25.07.55.11.89s.07.69.1,1,.06.68.08,1,0,.57,0,.76h-7.33v-1c.28-.24.6-.53.95-.86s.71-.68,1.07-1.07.72-.8,1.07-1.24a13,13,0,0,0,1-1.33,8.36,8.36,0,0,0,.66-1.39,4,4,0,0,0,.25-1.37,2.17,2.17,0,0,0-.47-1.44,1.7,1.7,0,0,0-1.34-.55,3.68,3.68,0,0,0-.49,0,4.89,4.89,0,0,0-.49.12Z"/><path class="cls-1" d="M369.6,433.57a11.68,11.68,0,0,1-1.14-1,6.25,6.25,0,0,1-.91-1.19,6.17,6.17,0,0,1-.62-1.46,7.26,7.26,0,0,1-.22-1.82,6.43,6.43,0,0,1,.23-1.77,6.1,6.1,0,0,1,.62-1.45,7,7,0,0,1,.93-1.22,14.69,14.69,0,0,1,1.15-1.07l.25.22a11.9,11.9,0,0,0-.87,1.06,6.16,6.16,0,0,0-.68,1.17,6.64,6.64,0,0,0-.44,1.39,8.53,8.53,0,0,0-.16,1.67,7.77,7.77,0,0,0,.17,1.66,7.28,7.28,0,0,0,.46,1.41,6.68,6.68,0,0,0,.69,1.17,8.68,8.68,0,0,0,.83,1Z"/><path class="cls-1" d="M378.81,431.05H375.3v-.35a5.05,5.05,0,0,1,.61-.23,6.32,6.32,0,0,1,.62-.18V424.4l.05-.71a3.46,3.46,0,0,1-.7.19,3.64,3.64,0,0,1-.74,0l-.06-.29a12.17,12.17,0,0,0,1.14-.45,5.32,5.32,0,0,0,1.09-.67h.3v7.78q.3.07.6.18a4.92,4.92,0,0,1,.6.23Z"/><path class="cls-1" d="M381,425.2a3.14,3.14,0,0,1,.18-1.08,2.44,2.44,0,0,1,.51-.85,2.47,2.47,0,0,1,.84-.56,3,3,0,0,1,1.15-.2,2.84,2.84,0,0,1,1.21.23,2.26,2.26,0,0,1,.84.65,2.6,2.6,0,0,1,.49,1,5.08,5.08,0,0,1,.16,1.34,6.49,6.49,0,0,1-.32,2.06,5.5,5.5,0,0,1-.89,1.66,4.42,4.42,0,0,1-1.32,1.16,4.1,4.1,0,0,1-1.63.55l-.22-.34a4.09,4.09,0,0,0,1.25-.57,4,4,0,0,0,.94-.88,4.62,4.62,0,0,0,.63-1.13,6.05,6.05,0,0,0,.34-1.3,2.66,2.66,0,0,1-.66.48,2.1,2.1,0,0,1-1,.2,2.91,2.91,0,0,1-1-.16,2.2,2.2,0,0,1-.78-.47,2.16,2.16,0,0,1-.51-.77A2.81,2.81,0,0,1,381,425.2Zm1.16,0a2.2,2.2,0,0,0,.1.68,2,2,0,0,0,.32.59,1.49,1.49,0,0,0,.49.41,1.28,1.28,0,0,0,.65.16,2.06,2.06,0,0,0,.95-.2,1.38,1.38,0,0,0,.56-.5,3.84,3.84,0,0,0,0-.39v-.36a4.38,4.38,0,0,0-.09-.88,2.94,2.94,0,0,0-.28-.82,1.88,1.88,0,0,0-.5-.58,1.34,1.34,0,0,0-1.85.34A2.8,2.8,0,0,0,382.16,425.19Z"/><path class="cls-1" d="M387.74,425.2a3.14,3.14,0,0,1,.17-1.08,2.47,2.47,0,0,1,.52-.85,2.29,2.29,0,0,1,.84-.56,2.9,2.9,0,0,1,1.14-.2,2.81,2.81,0,0,1,1.21.23,2.26,2.26,0,0,1,.84.65,2.75,2.75,0,0,1,.5,1,5.55,5.55,0,0,1,.15,1.34,6.49,6.49,0,0,1-.32,2.06,5.71,5.71,0,0,1-.88,1.66,4.68,4.68,0,0,1-1.32,1.16,4.2,4.2,0,0,1-1.64.55l-.22-.34a4.26,4.26,0,0,0,1.26-.57,4.1,4.1,0,0,0,.93-.88,4.62,4.62,0,0,0,.63-1.13,6.05,6.05,0,0,0,.34-1.3,2.49,2.49,0,0,1-.66.48,2.1,2.1,0,0,1-1,.2,3,3,0,0,1-1-.16,2.2,2.2,0,0,1-.78-.47,2.46,2.46,0,0,1-.51-.77A2.82,2.82,0,0,1,387.74,425.2Zm1.15,0a1.94,1.94,0,0,0,.11.68,1.75,1.75,0,0,0,.31.59,1.49,1.49,0,0,0,.49.41,1.28,1.28,0,0,0,.65.16,2.06,2.06,0,0,0,.95-.2,1.38,1.38,0,0,0,.56-.5,2.18,2.18,0,0,0,0-.39v-.36a4.38,4.38,0,0,0-.09-.88,2.94,2.94,0,0,0-.28-.82,1.75,1.75,0,0,0-.5-.58,1.26,1.26,0,0,0-.75-.23,1.22,1.22,0,0,0-1.09.57A2.72,2.72,0,0,0,388.89,425.19Z"/><path class="cls-1" d="M399.93,428.52a2.94,2.94,0,0,1-.19,1,2.47,2.47,0,0,1-1.38,1.43,2.8,2.8,0,0,1-1.1.21,2.76,2.76,0,0,1-1.18-.23,2.29,2.29,0,0,1-.87-.66,2.71,2.71,0,0,1-.54-1,4.17,4.17,0,0,1-.18-1.26,5.77,5.77,0,0,1,.37-2.07,5.91,5.91,0,0,1,1-1.67,6,6,0,0,1,1.42-1.2,5.39,5.39,0,0,1,1.66-.68l.13.36a5.69,5.69,0,0,0-1.2.62,5.25,5.25,0,0,0-1,.92,4.94,4.94,0,0,0-.75,1.18,4.2,4.2,0,0,0-.37,1.41,1.62,1.62,0,0,1,.68-.59,2.34,2.34,0,0,1,1.14-.27,2.76,2.76,0,0,1,1,.16,2.35,2.35,0,0,1,.76.48,2.42,2.42,0,0,1,.49.77A2.85,2.85,0,0,1,399.93,428.52Zm-1.15.1a2.24,2.24,0,0,0-.42-1.4,1.37,1.37,0,0,0-1.16-.54,1.68,1.68,0,0,0-1.53.92,2.25,2.25,0,0,0,0,.4v.36a3.13,3.13,0,0,0,.11.79,2.32,2.32,0,0,0,.31.74,1.77,1.77,0,0,0,.53.56,1.28,1.28,0,0,0,.73.22,1.16,1.16,0,0,0,.66-.18,1.32,1.32,0,0,0,.45-.46,2.12,2.12,0,0,0,.26-.66A3.2,3.2,0,0,0,398.78,428.62Z"/><path class="cls-1" d="M401.49,427.3h3.38v.75h-3.38Z"/><path class="cls-1" d="M407.67,425h-.3c-.09-.23-.18-.5-.27-.82s-.17-.6-.24-.89a3.41,3.41,0,0,1,1-.57,4,4,0,0,1,1.27-.2,3,3,0,0,1,1,.16,2.08,2.08,0,0,1,.71.46,1.63,1.63,0,0,1,.41.66,2.39,2.39,0,0,1,.14.79,3.38,3.38,0,0,1-.32,1.38,7.89,7.89,0,0,1-.77,1.38,12.17,12.17,0,0,1-1,1.25c-.36.39-.69.74-1,1l-.5.47v.05l.67-.07h2.06l.59-1.35h.3c0,.18,0,.37,0,.58s0,.41,0,.63l0,.61c0,.2,0,.37,0,.51h-5v-.38l.64-.68c.25-.26.51-.55.79-.87s.54-.66.81-1a12.05,12.05,0,0,0,.71-1.1,6.85,6.85,0,0,0,.51-1.11,3.19,3.19,0,0,0,.2-1.06,2.39,2.39,0,0,0-.09-.66,1.52,1.52,0,0,0-.27-.54,1.3,1.3,0,0,0-.44-.37,1.25,1.25,0,0,0-.59-.13,2,2,0,0,0-.45,0,2.53,2.53,0,0,0-.42.1Z"/><path class="cls-1" d="M413.22,426.85a5.93,5.93,0,0,1,.72-3.25,2.57,2.57,0,0,1,4.19,0,6.24,6.24,0,0,1,.67,3.27,6,6,0,0,1-.72,3.25,2.41,2.41,0,0,1-2.14,1.09,2.43,2.43,0,0,1-1.25-.29,2.21,2.21,0,0,1-.84-.85,4.18,4.18,0,0,1-.48-1.36A10.14,10.14,0,0,1,413.22,426.85Zm1.16,0a12.55,12.55,0,0,0,.08,1.57,5.89,5.89,0,0,0,.27,1.21,2,2,0,0,0,.48.79,1,1,0,0,0,.71.27,1.36,1.36,0,0,0,1.34-.93,8,8,0,0,0,.39-2.91,15.11,15.11,0,0,0-.07-1.57,5.11,5.11,0,0,0-.26-1.2,1.89,1.89,0,0,0-.51-.78,1.17,1.17,0,0,0-.8-.28,1.3,1.3,0,0,0-1.27.93A8.58,8.58,0,0,0,414.38,426.86Z"/><path class="cls-1" d="M420,426.85a5.93,5.93,0,0,1,.72-3.25,2.56,2.56,0,0,1,4.18,0,6.23,6.23,0,0,1,.68,3.27,6,6,0,0,1-.73,3.25,2.4,2.4,0,0,1-2.14,1.09,2.43,2.43,0,0,1-1.25-.29,2.36,2.36,0,0,1-.84-.85,4.18,4.18,0,0,1-.47-1.36A10.14,10.14,0,0,1,420,426.85Zm1.15,0a14.81,14.81,0,0,0,.08,1.57,5.89,5.89,0,0,0,.27,1.21,2.22,2.22,0,0,0,.48.79,1,1,0,0,0,.72.27,1.35,1.35,0,0,0,1.33-.93,8,8,0,0,0,.39-2.91,15.11,15.11,0,0,0-.07-1.57,4.66,4.66,0,0,0-.26-1.2,1.89,1.89,0,0,0-.51-.78,1.15,1.15,0,0,0-.8-.28,1.3,1.3,0,0,0-1.27.93A8.58,8.58,0,0,0,421.11,426.86Z"/><path class="cls-1" d="M426.69,426.85a5.93,5.93,0,0,1,.72-3.25,2.57,2.57,0,0,1,4.19,0,6.34,6.34,0,0,1,.67,3.27,5.86,5.86,0,0,1-.73,3.25,2.4,2.4,0,0,1-2.14,1.09,2.46,2.46,0,0,1-1.25-.29,2.36,2.36,0,0,1-.84-.85,4.43,4.43,0,0,1-.47-1.36A10.14,10.14,0,0,1,426.69,426.85Zm1.15,0a14.81,14.81,0,0,0,.08,1.57,5.89,5.89,0,0,0,.27,1.21,2.22,2.22,0,0,0,.48.79,1,1,0,0,0,.72.27,1.37,1.37,0,0,0,1.34-.93,8,8,0,0,0,.39-2.91,15,15,0,0,0-.08-1.57,4.27,4.27,0,0,0-.26-1.2,1.89,1.89,0,0,0-.51-.78,1.15,1.15,0,0,0-.8-.28,1.28,1.28,0,0,0-1.26.93A8.29,8.29,0,0,0,427.84,426.86Z"/><path class="cls-1" d="M436.48,433.33a7.27,7.27,0,0,0,.83-1,6.42,6.42,0,0,0,.68-1.21,7.69,7.69,0,0,0,.46-1.45,8.1,8.1,0,0,0,.17-1.68,8.24,8.24,0,0,0-.16-1.65A6.67,6.67,0,0,0,438,425a7.24,7.24,0,0,0-.67-1.14c-.27-.35-.56-.69-.88-1l.25-.22a14,14,0,0,1,1.15,1,6.72,6.72,0,0,1,.93,1.18,5.85,5.85,0,0,1,.62,1.44,6.49,6.49,0,0,1,.23,1.77,6.88,6.88,0,0,1-.22,1.82,5.88,5.88,0,0,1-.6,1.5,6.19,6.19,0,0,1-.91,1.24,9.14,9.14,0,0,1-1.16,1Z"/><path class="cls-1" d="M396.17,413.79h-5.54v-.68c.27-.12.54-.22.81-.32s.55-.16.83-.23v-7.34l.06-.94a4.79,4.79,0,0,1-.93.19,8.06,8.06,0,0,1-1,0l-.08-.59c.57-.15,1.18-.36,1.85-.61a12.21,12.21,0,0,0,1.85-.9h.54v10.16c.27.07.53.14.8.23s.53.2.8.32Z"/><path class="cls-1" d="M400.35,406.15h-.55l-.21-.56c-.08-.22-.17-.44-.25-.68s-.17-.46-.24-.69a5.2,5.2,0,0,1-.18-.63,5.4,5.4,0,0,1,1.43-.84,5.81,5.81,0,0,1,2.12-.35,4.54,4.54,0,0,1,1.52.23,2.88,2.88,0,0,1,1.07.62,2.49,2.49,0,0,1,.62.93,3,3,0,0,1,.2,1.13,4,4,0,0,1-.45,1.85,7.65,7.65,0,0,1-1.1,1.63,13.41,13.41,0,0,1-1.41,1.41l-1.36,1.18-.83.56V412l1-.09h2.75l.78-1.79h.55c0,.25.06.55.1.89s.07.69.1,1,.06.68.08,1,0,.57,0,.76h-7.33v-1c.28-.24.59-.53.94-.86s.71-.68,1.07-1.07.72-.8,1.08-1.24a12.88,12.88,0,0,0,.94-1.33,7,7,0,0,0,.66-1.39,4,4,0,0,0,.25-1.37,2.12,2.12,0,0,0-.47-1.44,1.68,1.68,0,0,0-1.34-.55,3.43,3.43,0,0,0-.48,0,3.85,3.85,0,0,0-.49.12Z"/><path class="cls-1" d="M416,410.36a3.5,3.5,0,0,1-.31,1.5,3.45,3.45,0,0,1-.84,1.14,3.57,3.57,0,0,1-1.24.73,4.44,4.44,0,0,1-1.51.26,4.52,4.52,0,0,1-1.75-.32,3.39,3.39,0,0,1-1.28-.87,3.58,3.58,0,0,1-.77-1.33,5,5,0,0,1-.27-1.68,7,7,0,0,1,.53-2.75,7.43,7.43,0,0,1,1.43-2.21,8.24,8.24,0,0,1,2.08-1.6,9.77,9.77,0,0,1,2.54-.92l.24.68a7.09,7.09,0,0,0-1.6.74,5.63,5.63,0,0,0-1.3,1.13,5.73,5.73,0,0,0-.93,1.5,6.36,6.36,0,0,0-.46,1.85,3,3,0,0,1,.33-.41,2.39,2.39,0,0,1,.49-.36,2.48,2.48,0,0,1,.66-.28,3.22,3.22,0,0,1,.86-.1,3.47,3.47,0,0,1,1.22.21,2.68,2.68,0,0,1,1,.62,3.07,3.07,0,0,1,.65,1A4,4,0,0,1,416,410.36Zm-2.4.19c0-1.58-.53-2.37-1.58-2.37a1.53,1.53,0,0,0-.93.28,1.71,1.71,0,0,0-.56.65,3.45,3.45,0,0,0-.07.52,5.44,5.44,0,0,0,0,.57,5.82,5.82,0,0,0,.1,1,3.28,3.28,0,0,0,.3.9,1.85,1.85,0,0,0,.54.63,1.3,1.3,0,0,0,.79.24,1.11,1.11,0,0,0,.67-.2,1.35,1.35,0,0,0,.44-.53,2.62,2.62,0,0,0,.25-.79A4.77,4.77,0,0,0,413.64,410.55Z"/><path class="cls-1" d="M578.34,433.57a9.72,9.72,0,0,1-1.14-1,6.3,6.3,0,0,1-.92-1.19,5.76,5.76,0,0,1-.61-1.46,6.81,6.81,0,0,1-.23-1.82,6.43,6.43,0,0,1,.23-1.77,5.74,5.74,0,0,1,.63-1.45,6.15,6.15,0,0,1,.93-1.22,14.54,14.54,0,0,1,1.14-1.07l.26.22a12,12,0,0,0-.88,1.06,6.16,6.16,0,0,0-.68,1.17,7.29,7.29,0,0,0-.44,1.39,8.57,8.57,0,0,0-.15,1.67,7.79,7.79,0,0,0,.16,1.66,7.29,7.29,0,0,0,.47,1.41,6.08,6.08,0,0,0,.68,1.17,7.8,7.8,0,0,0,.84,1Z"/><path class="cls-1" d="M584,425h-.3c-.09-.23-.18-.5-.27-.82s-.17-.6-.24-.89a3.41,3.41,0,0,1,1-.57,4,4,0,0,1,1.27-.2,2.86,2.86,0,0,1,1,.16,2,2,0,0,1,.72.46,1.75,1.75,0,0,1,.41.66,2.38,2.38,0,0,1,.13.79,3.36,3.36,0,0,1-.31,1.38,8.59,8.59,0,0,1-.77,1.38,12.17,12.17,0,0,1-1,1.25c-.36.39-.7.74-1,1l-.5.47v.05l.67-.07H587l.59-1.35h.3c0,.18,0,.37,0,.58s0,.41,0,.63l0,.61c0,.2,0,.37,0,.51h-5v-.38l.64-.68q.38-.39.78-.87t.81-1A10.36,10.36,0,0,0,586,427a6.85,6.85,0,0,0,.51-1.11,3.19,3.19,0,0,0,.2-1.06,2.39,2.39,0,0,0-.09-.66,1.52,1.52,0,0,0-.27-.54,1.3,1.3,0,0,0-.44-.37,1.26,1.26,0,0,0-.6-.13,2,2,0,0,0-.44,0,2.53,2.53,0,0,0-.42.1Z"/><path class="cls-1" d="M589.59,426.85a5.93,5.93,0,0,1,.72-3.25,2.57,2.57,0,0,1,4.19,0,6.24,6.24,0,0,1,.67,3.27,6,6,0,0,1-.72,3.25,2.71,2.71,0,0,1-3.39.8,2.21,2.21,0,0,1-.84-.85,4.18,4.18,0,0,1-.48-1.36A10.14,10.14,0,0,1,589.59,426.85Zm1.15,0a12.43,12.43,0,0,0,.09,1.57,4.81,4.81,0,0,0,.27,1.21,2,2,0,0,0,.48.79,1,1,0,0,0,.71.27,1.37,1.37,0,0,0,1.34-.93,8,8,0,0,0,.39-2.91,15.11,15.11,0,0,0-.07-1.57,4.63,4.63,0,0,0-.27-1.2,1.72,1.72,0,0,0-.51-.78,1.12,1.12,0,0,0-.79-.28,1.29,1.29,0,0,0-1.27.93A8.53,8.53,0,0,0,590.74,426.86Z"/><path class="cls-1" d="M596.32,426.85a5.84,5.84,0,0,1,.73-3.25,2.56,2.56,0,0,1,4.18,0,6.24,6.24,0,0,1,.67,3.27,6,6,0,0,1-.72,3.25,2.41,2.41,0,0,1-2.14,1.09,2.43,2.43,0,0,1-1.25-.29,2.21,2.21,0,0,1-.84-.85,4.18,4.18,0,0,1-.48-1.36A10.14,10.14,0,0,1,596.32,426.85Zm1.16,0a14.81,14.81,0,0,0,.08,1.57,5.89,5.89,0,0,0,.27,1.21,2,2,0,0,0,.48.79,1,1,0,0,0,.71.27,1.36,1.36,0,0,0,1.34-.93,8,8,0,0,0,.39-2.91,15.11,15.11,0,0,0-.07-1.57,5.11,5.11,0,0,0-.26-1.2,1.89,1.89,0,0,0-.51-.78,1.17,1.17,0,0,0-.8-.28,1.3,1.3,0,0,0-1.27.93A8.58,8.58,0,0,0,597.48,426.86Z"/><path class="cls-1" d="M608.66,428.52a2.74,2.74,0,0,1-.73,1.89,2.5,2.5,0,0,1-.84.57,3.06,3.06,0,0,1-2.28,0,2.45,2.45,0,0,1-.87-.66,2.71,2.71,0,0,1-.54-1,4.17,4.17,0,0,1-.18-1.26,5.56,5.56,0,0,1,.38-2.07,5.91,5.91,0,0,1,1-1.67,5.76,5.76,0,0,1,1.41-1.2,5.39,5.39,0,0,1,1.66-.68l.14.36a5.53,5.53,0,0,0-1.21.62,5.25,5.25,0,0,0-1,.92,4.94,4.94,0,0,0-.75,1.18,4.45,4.45,0,0,0-.37,1.41,1.76,1.76,0,0,1,.68-.59,2.34,2.34,0,0,1,1.14-.27,2.69,2.69,0,0,1,1,.16,2.35,2.35,0,0,1,.76.48,2.26,2.26,0,0,1,.49.77A2.85,2.85,0,0,1,608.66,428.52Zm-1.15.1a2.3,2.3,0,0,0-.41-1.4,1.39,1.39,0,0,0-1.16-.54,1.68,1.68,0,0,0-1.54.92c0,.11,0,.24,0,.4v.36a3.11,3.11,0,0,0,.1.79,2.57,2.57,0,0,0,.31.74,1.89,1.89,0,0,0,.53.56,1.32,1.32,0,0,0,.74.22,1.21,1.21,0,0,0,.66-.18,1.52,1.52,0,0,0,.45-.46,2.75,2.75,0,0,0,.26-.66A3.82,3.82,0,0,0,607.51,428.62Z"/><path class="cls-1" d="M610.22,427.3h3.38v.75h-3.38Z"/><path class="cls-1" d="M619.9,431.05h-3.5v-.35a4.49,4.49,0,0,1,.61-.23c.2-.07.41-.13.61-.18V424.4l0-.71a3.2,3.2,0,0,1-.69.19,3.7,3.7,0,0,1-.75,0l-.06-.29a10.33,10.33,0,0,0,1.14-.45,5.07,5.07,0,0,0,1.09-.67h.3v7.78l.61.18a5.5,5.5,0,0,1,.59.23Z"/><path class="cls-1" d="M622,426.85a5.93,5.93,0,0,1,.72-3.25,2.32,2.32,0,0,1,2.06-1.09,2.29,2.29,0,0,1,2.12,1.07,6.23,6.23,0,0,1,.68,3.27,6,6,0,0,1-.73,3.25,2.4,2.4,0,0,1-2.14,1.09,2.43,2.43,0,0,1-1.25-.29,2.36,2.36,0,0,1-.84-.85,4.18,4.18,0,0,1-.47-1.36A10.14,10.14,0,0,1,622,426.85Zm1.15,0a14.81,14.81,0,0,0,.08,1.57,5.89,5.89,0,0,0,.27,1.21,2.22,2.22,0,0,0,.48.79,1,1,0,0,0,.72.27,1.35,1.35,0,0,0,1.33-.93,8,8,0,0,0,.4-2.91,15,15,0,0,0-.08-1.57,4.66,4.66,0,0,0-.26-1.2,1.89,1.89,0,0,0-.51-.78,1.15,1.15,0,0,0-.8-.28,1.3,1.3,0,0,0-1.27.93A8.58,8.58,0,0,0,623.11,426.86Z"/><path class="cls-1" d="M631.75,433.33a8.08,8.08,0,0,0,.83-1,6.42,6.42,0,0,0,.68-1.21,8.5,8.5,0,0,0,.46-1.45,8.12,8.12,0,0,0,.16-1.68,8.28,8.28,0,0,0-.15-1.65,7.37,7.37,0,0,0-.43-1.35,6.6,6.6,0,0,0-.68-1.14,11.59,11.59,0,0,0-.87-1l.25-.22a14,14,0,0,1,1.15,1,6.72,6.72,0,0,1,.93,1.18,5.85,5.85,0,0,1,.62,1.44,6.49,6.49,0,0,1,.23,1.77,6.88,6.88,0,0,1-.22,1.82,6.14,6.14,0,0,1-1.52,2.74,8.41,8.41,0,0,1-1.15,1Z"/><path class="cls-1" d="M598.29,413.79h-5.54v-.68c.27-.12.54-.22.81-.32s.55-.16.83-.23v-7.34l.06-.94a4.79,4.79,0,0,1-.93.19,8.06,8.06,0,0,1-1,0l-.08-.59c.57-.15,1.18-.36,1.85-.61a12.21,12.21,0,0,0,1.85-.9h.54v10.16c.27.07.53.14.8.23s.53.2.8.32Z"/><path class="cls-1" d="M602.47,406.15h-.55l-.21-.56c-.08-.22-.17-.44-.25-.68s-.17-.46-.24-.69a5.2,5.2,0,0,1-.18-.63,5.24,5.24,0,0,1,1.43-.84,5.81,5.81,0,0,1,2.12-.35,4.54,4.54,0,0,1,1.52.23,2.88,2.88,0,0,1,1.07.62,2.49,2.49,0,0,1,.62.93,3,3,0,0,1,.2,1.13,4,4,0,0,1-.45,1.85,7.65,7.65,0,0,1-1.1,1.63A13.41,13.41,0,0,1,605,410.2l-1.36,1.18-.83.56V412l1-.09h2.75l.78-1.79h.55c0,.25.06.55.1.89s.07.69.1,1,.06.68.08,1,0,.57,0,.76H600.9v-1c.28-.24.59-.53.94-.86s.71-.68,1.07-1.07.72-.8,1.08-1.24a12.88,12.88,0,0,0,.94-1.33,7,7,0,0,0,.66-1.39,4,4,0,0,0,.25-1.37,2.17,2.17,0,0,0-.47-1.44,1.68,1.68,0,0,0-1.34-.55,3.43,3.43,0,0,0-.48,0,3.85,3.85,0,0,0-.49.12Z"/><path class="cls-1" d="M611.46,406.1h-.55c0-.23-.1-.5-.16-.82l-.15-1c-.05-.33-.09-.65-.12-1s-.05-.55-.05-.75h7.49v.74a26.68,26.68,0,0,0-1.45,2.54,17.67,17.67,0,0,0-1,2.4,23.73,23.73,0,0,0-.66,2.55c-.18.88-.33,1.88-.46,3h-2.27a28.81,28.81,0,0,1,1.49-4.43,41.4,41.4,0,0,1,2.16-4.24l.59-.76-.8.08h-3.44Z"/><path class="cls-1" d="M680.34,433.57a9.72,9.72,0,0,1-1.14-1,6.3,6.3,0,0,1-.92-1.19,5.76,5.76,0,0,1-.61-1.46,6.81,6.81,0,0,1-.23-1.82,6.43,6.43,0,0,1,.23-1.77,5.74,5.74,0,0,1,.63-1.45,6.15,6.15,0,0,1,.93-1.22,14.54,14.54,0,0,1,1.14-1.07l.26.22a12,12,0,0,0-.88,1.06,6.16,6.16,0,0,0-.68,1.17,7.29,7.29,0,0,0-.44,1.39,8.57,8.57,0,0,0-.15,1.67,7.79,7.79,0,0,0,.16,1.66,7.29,7.29,0,0,0,.47,1.41,6.08,6.08,0,0,0,.68,1.17,7.8,7.8,0,0,0,.84,1Z"/><path class="cls-1" d="M686,425h-.3c-.09-.23-.18-.5-.27-.82s-.17-.6-.24-.89a3.41,3.41,0,0,1,1-.57,4,4,0,0,1,1.27-.2,2.86,2.86,0,0,1,1,.16,2,2,0,0,1,.72.46,1.75,1.75,0,0,1,.41.66,2.38,2.38,0,0,1,.13.79,3.36,3.36,0,0,1-.31,1.38,8.59,8.59,0,0,1-.77,1.38,12.17,12.17,0,0,1-1,1.25c-.36.39-.7.74-1,1l-.5.47v.05l.67-.07H689l.59-1.35h.3c0,.18,0,.37,0,.58s0,.41,0,.63l0,.61c0,.2,0,.37,0,.51h-5v-.38l.64-.68q.38-.39.78-.87t.81-1A10.36,10.36,0,0,0,688,427a6.85,6.85,0,0,0,.51-1.11,3.19,3.19,0,0,0,.2-1.06,2.39,2.39,0,0,0-.09-.66,1.52,1.52,0,0,0-.27-.54,1.3,1.3,0,0,0-.44-.37,1.26,1.26,0,0,0-.6-.13,2,2,0,0,0-.44,0,2.53,2.53,0,0,0-.42.1Z"/><path class="cls-1" d="M691.59,426.85a5.93,5.93,0,0,1,.72-3.25,2.57,2.57,0,0,1,4.19,0,6.24,6.24,0,0,1,.67,3.27,6,6,0,0,1-.72,3.25,2.71,2.71,0,0,1-3.39.8,2.21,2.21,0,0,1-.84-.85,4.18,4.18,0,0,1-.48-1.36A10.14,10.14,0,0,1,691.59,426.85Zm1.15,0a12.43,12.43,0,0,0,.09,1.57,4.81,4.81,0,0,0,.27,1.21,2,2,0,0,0,.48.79,1,1,0,0,0,.71.27,1.37,1.37,0,0,0,1.34-.93,8,8,0,0,0,.39-2.91,15.11,15.11,0,0,0-.07-1.57,4.63,4.63,0,0,0-.27-1.2,1.72,1.72,0,0,0-.51-.78,1.12,1.12,0,0,0-.79-.28,1.29,1.29,0,0,0-1.27.93A8.53,8.53,0,0,0,692.74,426.86Z"/><path class="cls-1" d="M703,431.05H699.5v-.35a4.49,4.49,0,0,1,.61-.23c.2-.07.41-.13.61-.18V424.4l0-.71a3.2,3.2,0,0,1-.69.19,3.7,3.7,0,0,1-.75,0l-.06-.29a10.33,10.33,0,0,0,1.14-.45,5.14,5.14,0,0,0,1.1-.67h.3v7.78c.2,0,.39.11.59.18a5.05,5.05,0,0,1,.61.23Z"/><path class="cls-1" d="M709.74,431.05h-3.51v-.35a5.05,5.05,0,0,1,.61-.23,6.32,6.32,0,0,1,.62-.18V424.4l0-.71a3.46,3.46,0,0,1-.7.19,3.7,3.7,0,0,1-.75,0l0-.29a11,11,0,0,0,1.13-.45,5.14,5.14,0,0,0,1.1-.67h.3v7.78q.3.07.6.18a4.92,4.92,0,0,1,.6.23Z"/><path class="cls-1" d="M712.22,427.3h3.38v.75h-3.38Z"/><path class="cls-1" d="M721.9,431.05h-3.5v-.35a4.49,4.49,0,0,1,.61-.23c.2-.07.41-.13.61-.18V424.4l0-.71a3.2,3.2,0,0,1-.69.19,3.7,3.7,0,0,1-.75,0l-.06-.29a10.33,10.33,0,0,0,1.14-.45,5.07,5.07,0,0,0,1.09-.67h.3v7.78l.61.18a5.5,5.5,0,0,1,.59.23Z"/><path class="cls-1" d="M728.71,422h.3c0,.12,0,.25,0,.4s0,.3-.05.45,0,.28-.08.42a1.9,1.9,0,0,1-.08.34h-2.95l-.29,2.31h.78a3.84,3.84,0,0,1,1.1.16,2.44,2.44,0,0,1,.85.48,2.4,2.4,0,0,1,.55.78,2.61,2.61,0,0,1,.2,1,2.93,2.93,0,0,1-.24,1.23,2.6,2.6,0,0,1-.64.88,2.71,2.71,0,0,1-.9.53,3,3,0,0,1-1,.18,3.28,3.28,0,0,1-.52,0,5.23,5.23,0,0,1-.54-.12c-.18-.06-.35-.13-.51-.2a2.22,2.22,0,0,1-.41-.25l.35-1.08h.24l.18.22.22.27a3.25,3.25,0,0,0,.23.29,1.84,1.84,0,0,0,.21.25l.22.06a.85.85,0,0,0,.32,0,1.58,1.58,0,0,0,.72-.16,1.69,1.69,0,0,0,.57-.42,2,2,0,0,0,.38-.63,2.45,2.45,0,0,0,.13-.78,1.86,1.86,0,0,0-.18-.84,1.6,1.6,0,0,0-.49-.57,2.21,2.21,0,0,0-.73-.33,2.8,2.8,0,0,0-.87-.1h-.85l.48-4.16h2.85Z"/><path class="cls-1" d="M733.75,433.33a8.08,8.08,0,0,0,.83-1,6.42,6.42,0,0,0,.68-1.21,8.5,8.5,0,0,0,.46-1.45,8.12,8.12,0,0,0,.16-1.68,8.28,8.28,0,0,0-.15-1.65,7.37,7.37,0,0,0-.43-1.35,6.6,6.6,0,0,0-.68-1.14,11.59,11.59,0,0,0-.87-1l.25-.22a14,14,0,0,1,1.15,1,6.72,6.72,0,0,1,.93,1.18,5.85,5.85,0,0,1,.62,1.44,6.49,6.49,0,0,1,.23,1.77,6.88,6.88,0,0,1-.22,1.82,6.14,6.14,0,0,1-1.52,2.74,8.41,8.41,0,0,1-1.15,1Z"/><path class="cls-1" d="M700.21,413.79h-5.54v-.68c.27-.12.54-.22.81-.32s.55-.16.83-.23v-7.34l.06-.94a4.79,4.79,0,0,1-.93.19,8.06,8.06,0,0,1-1,0l-.08-.59c.57-.15,1.18-.36,1.85-.61a12.21,12.21,0,0,0,1.85-.9h.54v10.16c.27.07.53.14.8.23s.53.2.8.32Z"/><path class="cls-1" d="M702.5,408.2a9.07,9.07,0,0,1,.31-2.53,5.58,5.58,0,0,1,.86-1.8,3.64,3.64,0,0,1,1.32-1.1,3.77,3.77,0,0,1,1.65-.37,3.65,3.65,0,0,1,3,1.45,7,7,0,0,1,1.12,4.35,9,9,0,0,1-.31,2.51,5.18,5.18,0,0,1-.88,1.81,3.73,3.73,0,0,1-1.35,1.1,4.07,4.07,0,0,1-1.71.37,3.59,3.59,0,0,1-1.73-.4,3.51,3.51,0,0,1-1.27-1.13,5.42,5.42,0,0,1-.79-1.82A10.55,10.55,0,0,1,702.5,408.2Zm2.4,0c0,.76,0,1.44.07,2.05a8.06,8.06,0,0,0,.26,1.53,2.4,2.4,0,0,0,.51,1,1,1,0,0,0,.79.33,1.5,1.5,0,0,0,.92-.27A1.85,1.85,0,0,0,708,412a6.13,6.13,0,0,0,.29-1.51c.06-.62.08-1.37.08-2.24s0-1.45-.06-2.06a7.39,7.39,0,0,0-.25-1.53,2.1,2.1,0,0,0-.53-1,1.27,1.27,0,0,0-.92-.34,1.39,1.39,0,0,0-.85.27,1.89,1.89,0,0,0-.53.86A6.17,6.17,0,0,0,705,406C704.92,406.58,704.9,407.33,704.9,408.2Z"/><path class="cls-1" d="M712.11,406.08a3.81,3.81,0,0,1,.29-1.49,3.34,3.34,0,0,1,.81-1.15,3.82,3.82,0,0,1,1.24-.77,4.51,4.51,0,0,1,1.6-.27,4.35,4.35,0,0,1,1.66.31,3.5,3.5,0,0,1,1.25.88,3.79,3.79,0,0,1,.78,1.36,6,6,0,0,1,.26,1.79,8,8,0,0,1-.45,2.74,7,7,0,0,1-1.26,2.21,6.47,6.47,0,0,1-2,1.55,7,7,0,0,1-2.52.75l-.37-.69a5.13,5.13,0,0,0,2.83-1.73,6.15,6.15,0,0,0,1.25-3.07,2.25,2.25,0,0,1-.8.65,2.68,2.68,0,0,1-1.28.26,3.88,3.88,0,0,1-1.29-.21,3,3,0,0,1-1-.63,2.81,2.81,0,0,1-.72-1.05A3.56,3.56,0,0,1,712.11,406.08Zm2.4-.09a3.6,3.6,0,0,0,.11.88,2.4,2.4,0,0,0,.31.73,1.65,1.65,0,0,0,.51.51,1.4,1.4,0,0,0,.72.18,1.93,1.93,0,0,0,.85-.18,1.39,1.39,0,0,0,.56-.51c0-.14,0-.31,0-.51s0-.4,0-.59a9,9,0,0,0-.08-1.19,4.39,4.39,0,0,0-.28-1,2.07,2.07,0,0,0-.5-.68,1.11,1.11,0,0,0-.75-.25,1.2,1.2,0,0,0-1.15.65A4.14,4.14,0,0,0,714.51,406Z"/><line class="cls-2" x1="98.19" y1="382.06" x2="707.19" y2="382.06"/><circle class="cls-3" cx="98.19" cy="382.06" r="2.26"/><line class="cls-2" x1="707.19" y1="182.06" x2="707.19" y2="382.06"/><circle class="cls-3" cx="707.19" cy="182.06" r="2.26"/><g class="cls-4"><path class="cls-5" d="M704.37,190.29c-9.92-5.55-32.74-14.86-56.94-24.31l-35.87-13.86-4.2-1.61-2.07-.8-1.26-.48a9,9,0,0,1-1.14-.71l-7-4.85c-4.34-3-8.28-5.81-11.65-8.22-10.5-7.26-18.48-12.84-24.4-17.13-5-3.6,6.74,4.47,24.4,17.13l13.11,9L601,147l2,1.4.59.39.3.19.33.13,1.3.49,9.11,3.45L609,150.44l-2.83-1.27-1.57-.7a2.71,2.71,0,0,1-.76-.46l-.72-.54c-3.23-2.52-6.38-5-9.41-7.33l-16-12.55L556.2,113.27l-47.62-31.6-3.3-2.17-.83-.54-.21-.14c-.07,0-.14.07-.2.09l-.42.27L502,80.25l-6.38,4.22-11.78,7.79-23.68,15.6c-11.54,7.52-36.43,24.35-47.71,31.49L481.81,92.6l17.85-12c.88-.6,1.76-1.16,2.65-1.73l1.32-.85.33-.22.16-.1c.06,0,.11-.08.17,0l.66.43,5.32,3.45,8.9,5.83,35,22.93-3.66-2.62L513.9,83.28l-5.15-3.42-2.92-1.92-1.46-1c-.06,0-.12-.13-.18-.07L504,77l-.36.23-.73.46c-2,1.21-3.91,2.5-5.87,3.82l-4.69,3.1L474,96.8c-4.12,2.79-8.3,5.59-12.65,8.41L474,96.8c5.4-3.65,10.67-7.32,16.06-11.07L499,79.54c.93-.66,1.88-1.28,2.83-1.89l1.44-.93.72-.47.18-.12.09-.06s.06,0,.09.05l.37.23c1.94,1.21,3.91,2.45,5.92,3.75l3.11,2.06,2.85,1.91L522.36,88c3.87,2.65,7.75,5.3,11.42,7.71,6,4,11.2,8,16.71,12L561.4,115c1.1.66,2.28,1.36,3.46,2.11a1.36,1.36,0,0,1-.12-.12c-1.94-2-9.09-7.42-19-14.55-5-3.56-10.58-7.55-16.59-11.76l-9.27-6.44L515.13,81l-2.48-1.71-3.71-2.5-3.74-2.46c-.32-.2-.63-.42-.94-.6l-.94.56-1.89,1.14-1.9,1.14-1.9,1.25L494.24,80l-9.68,6.29L466.71,98c-10.93,7.25-19.5,13.06-23.22,15.74-11.88,8.53-22,17.33-35.36,26.66-1.12.78-2.2,1.51-3.25,2.2l-1.49,1c-.28.17-.56.32-.82.5l-.39.25a2.38,2.38,0,0,1-.46,0l-.89-.1-.48-.05-.8-.07L398,144a26.34,26.34,0,0,1-4.62,0c-10.78-1.1-21.49-3-29.84-3.34-5.83-.45-21.67-5.21-23-4.75-4.78,1.52-1.3.4-15-1.21-1.65-.21-7.14,0-10.45-.45-2.78-.42-5.08-.71-7.17-.94l-3-.29-3.53-.3-.56,0c-.19,0-.35.12-.53.17-.35.15-.7.29-1.05.46l-1.05.49-.7.35-2.92,1.43c-2.08,1-4.45,2.16-7.38,3.53-17.32,8.3-21.55,9.08-36.77,16.95-.92.47-7.42,3.56-13.7,6.51l-12.33,5.78c-4.78,2.08-9.09,4-13.11,5.81l-11.6,5.21-.21.1c0,.05-.07.13-.11.19l-.21.41-.41.81-.69,1.38-1.29,2.58c-.88,1.71-1.74,3.41-2.62,5.11-1.76,3.4-3.58,6.8-5.57,10.36-3.87,8.56-8.81,18.33-13.83,28.24s-10.15,19.94-14.56,28.93c-8.85,18-12.88,25.3-20.79,40.93-2.24,4.48-3.88,7.86-5.22,10.45s-4.31,9-6.55,13.52l.46-1.17c-.74,1.51-2.22,4.49-3,6s-.58,1.11-.43.72c.32-.78.62-1.55-.69,1.06q-4.6,9.41-9.4,19.24l-9.24,19.26c-.19.41-.39.85-.79,1.69l-2.73,5.63-.71,1.51-.57,1.2L99.33,380c-.86,1.72-1.62,3.21-1.14,2.27s5.88-11.47,8.38-16.33c.58-1.12-.73,1.49-1.28,2.61,3.25-6.3,3.48-6.65,2.16-4l1.55-3c-.19.37-.74,1.5-.74,1.5,8.34-15.9,17.92-33.51,26-49.05,1.74-3.33,4.57-8.9,6.45-12.62.94-1.86,3.15-5.89,3.94-7.36a19.08,19.08,0,0,0,1.34-3.52c6.09-11.43,19.42-36,18.35-35.61,4.84-9.24,5.47-11.26,10.4-20.92l23-45,3.29-6.48.23-.47c.09-.15.13-.35.32-.38l1.22-.53,3.3-1.42,13.16-5.61,9.47-4.05c16.4-7,31.74-13.54,46.55-19.76l21.85-9.16,2.69-1.13,1.1-.46.36-.15c.13,0,.24-.14.38-.09l5.14.68,11.46,1.51c15.26,2,30.47,4,46.19,5.92,7.86,1,15.85,1.9,24,2.82l13,1.42c.75.08,1.49.13,2.23.19l.28,0c.1,0,.16-.08.25-.12l.46-.31.94-.63,3.17-2.19,5.31-3.7c14.37-10.07,29-20.18,43.6-30.19l21.94-14.9,21.35-14.34,2-1.37,1-.68c.34.18.68.44,1,.66l4.34,2.86,10.68,7.12,20.87,14.07c13.66,9.28,26.81,18.32,39.22,27l18.05,12.66,2.17,1.53,1.35.94.77.51.38.25.43.17,5.2,2.05L618,157c12.27,4.91,23.52,9.48,33.49,13.58,20,8.19,34.86,14.46,42.9,17.66Z"/></g><line class="cls-2" x1="403.19" y1="148.06" x2="403.19" y2="382.06"/><circle class="cls-3" cx="403.19" cy="148.06" r="2.26"/><line class="cls-2" x1="504.19" y1="80.06" x2="504.19" y2="382.06"/><circle class="cls-3" cx="504.19" cy="80.06" r="2.26"/><line class="cls-2" x1="301.19" y1="136.06" x2="301.19" y2="382.06"/><circle class="cls-3" cx="301.19" cy="136.06" r="2.26"/><path class="cls-3" d="M38.7,300.66a5.61,5.61,0,0,1,.43-2.23,5.19,5.19,0,0,1,1.21-1.74,5.82,5.82,0,0,1,1.86-1.14,6.79,6.79,0,0,1,2.4-.4,6.4,6.4,0,0,1,2.5.46A5.22,5.22,0,0,1,49,296.92,5.64,5.64,0,0,1,50.14,299a8.72,8.72,0,0,1,.39,2.68,12.15,12.15,0,0,1-.67,4.12,10.41,10.41,0,0,1-1.9,3.31A9.75,9.75,0,0,1,45,311.41a10.45,10.45,0,0,1-3.78,1.11l-.55-1a7.7,7.7,0,0,0,4.25-2.59,9.32,9.32,0,0,0,1.87-4.61,3.34,3.34,0,0,1-1.2,1,4.12,4.12,0,0,1-1.92.39,5.79,5.79,0,0,1-1.93-.32,4.29,4.29,0,0,1-1.58-.94,4.49,4.49,0,0,1-1.08-1.57A5.46,5.46,0,0,1,38.7,300.66Zm3.6-.14a5.13,5.13,0,0,0,.16,1.32,3.7,3.7,0,0,0,.46,1.11,2.39,2.39,0,0,0,.77.75,2,2,0,0,0,1.08.28A2.7,2.7,0,0,0,46,303.7a1.93,1.93,0,0,0,.84-.75,6.8,6.8,0,0,0,.08-.77c0-.31,0-.6,0-.89a11.42,11.42,0,0,0-.13-1.79,6,6,0,0,0-.42-1.49,2.82,2.82,0,0,0-.75-1,1.71,1.71,0,0,0-1.12-.38,1.81,1.81,0,0,0-1.73,1A6.4,6.4,0,0,0,42.3,300.52Z"/><path class="cls-3" d="M4.34,343.31a14,14,0,0,1-1.71-1.46,8.64,8.64,0,0,1-1.38-1.78,8.93,8.93,0,0,1-.91-2.19,10.81,10.81,0,0,1,0-5.38,8.92,8.92,0,0,1,.94-2.18,10.32,10.32,0,0,1,1.4-1.83A17.41,17.41,0,0,1,4.4,326.9l.37.32a17.52,17.52,0,0,0-1.31,1.59,8.7,8.7,0,0,0-1,1.76,10.11,10.11,0,0,0-.65,2.08,12.09,12.09,0,0,0-.24,2.51,11.42,11.42,0,0,0,.25,2.49,10.25,10.25,0,0,0,.7,2.11,9.34,9.34,0,0,0,1,1.75A11.75,11.75,0,0,0,4.77,343Z"/><path class="cls-3" d="M18.15,339.53H12.89V339c.3-.13.6-.25.91-.35s.61-.19.93-.26v-8.84l.07-1.06a5.42,5.42,0,0,1-1.05.28,6.76,6.76,0,0,1-1.11.06l-.09-.43a16.4,16.4,0,0,0,1.71-.68,7.7,7.7,0,0,0,1.64-1h.45V338.4c.3.07.6.16.9.26s.6.22.9.35Z"/><path class="cls-3" d="M21.44,330.77a4.91,4.91,0,0,1,.26-1.62,3.56,3.56,0,0,1,.78-1.28,3.64,3.64,0,0,1,1.26-.85,4.54,4.54,0,0,1,1.71-.3,4.21,4.21,0,0,1,1.81.35,3.34,3.34,0,0,1,1.27,1,4,4,0,0,1,.74,1.54,7.78,7.78,0,0,1,.24,2,9.64,9.64,0,0,1-.49,3.1,8.44,8.44,0,0,1-1.32,2.49,6.83,6.83,0,0,1-2,1.74,6.41,6.41,0,0,1-2.46.83l-.33-.52a6.27,6.27,0,0,0,1.89-.85,6.07,6.07,0,0,0,1.4-1.32,7,7,0,0,0,.94-1.69,9,9,0,0,0,.51-2,3.8,3.8,0,0,1-1,.73,3.32,3.32,0,0,1-1.54.3,4.54,4.54,0,0,1-1.5-.24,3.33,3.33,0,0,1-1.16-.71,3.36,3.36,0,0,1-.77-1.16A4,4,0,0,1,21.44,330.77Zm1.73,0a3.2,3.2,0,0,0,.16,1,2.76,2.76,0,0,0,.47.88,2.34,2.34,0,0,0,.74.62,2,2,0,0,0,1,.23,3.16,3.16,0,0,0,1.43-.29,2.07,2.07,0,0,0,.84-.75,4.8,4.8,0,0,0,0-.59v-.54a6.73,6.73,0,0,0-.13-1.33,4.43,4.43,0,0,0-.42-1.21,2.61,2.61,0,0,0-.76-.88,2,2,0,0,0-2.76.51A4.16,4.16,0,0,0,23.17,330.75Z"/><path class="cls-3" d="M31.57,336.71a3.19,3.19,0,0,1,.22-1.16,3.35,3.35,0,0,1,.61-1,4.17,4.17,0,0,1,.92-.79,5.47,5.47,0,0,1,1.17-.55,7,7,0,0,1-1-.6A3.71,3.71,0,0,1,32.25,331a3,3,0,0,1-.19-1.1,3.11,3.11,0,0,1,.25-1.28,2.84,2.84,0,0,1,.72-1,3.34,3.34,0,0,1,1.12-.65,4.55,4.55,0,0,1,1.48-.23,3.51,3.51,0,0,1,2.47.8,2.62,2.62,0,0,1,.89,2.06,2.69,2.69,0,0,1-.69,1.83,5.14,5.14,0,0,1-1.79,1.28,9.75,9.75,0,0,1,1.18.72,5.56,5.56,0,0,1,.93.87,3.89,3.89,0,0,1,.61,1,3.16,3.16,0,0,1,0,2.44,3.07,3.07,0,0,1-.78,1,3.89,3.89,0,0,1-1.27.71,5.32,5.32,0,0,1-1.72.26,5.43,5.43,0,0,1-1.72-.25,3.66,3.66,0,0,1-1.2-.68,2.57,2.57,0,0,1-.71-1A3,3,0,0,1,31.57,336.71Zm6.27.09a2.51,2.51,0,0,0-.24-1.11,3,3,0,0,0-.65-.89,5.73,5.73,0,0,0-.93-.72c-.35-.21-.71-.41-1.08-.59a3.6,3.6,0,0,0-.87.68,4,4,0,0,0-.56.79,3.45,3.45,0,0,0-.39,1.55,3,3,0,0,0,.14.88,2.22,2.22,0,0,0,.42.79,2.17,2.17,0,0,0,.75.56,2.66,2.66,0,0,0,1.12.22,2.5,2.5,0,0,0,1-.19,2.25,2.25,0,0,0,.72-.5,2,2,0,0,0,.43-.7A2.15,2.15,0,0,0,37.84,336.8Zm-4.23-7.17a2.1,2.1,0,0,0,.21,1,2.69,2.69,0,0,0,.55.75,4,4,0,0,0,.79.6,10.27,10.27,0,0,0,.92.51,4,4,0,0,0,1.07-1.22,2.91,2.91,0,0,0,.31-1.35,2.63,2.63,0,0,0-.5-1.72,1.66,1.66,0,0,0-1.37-.61,1.87,1.87,0,0,0-.85.18,2,2,0,0,0-.62.47,1.81,1.81,0,0,0-.38.66A2.17,2.17,0,0,0,33.61,329.63Z"/><path class="cls-3" d="M48.44,339.53H43.18V339c.3-.13.61-.25.91-.35s.62-.19.93-.26v-8.84l.07-1.06a5.14,5.14,0,0,1-1,.28,6.83,6.83,0,0,1-1.12.06l-.09-.43a16.4,16.4,0,0,0,1.71-.68,7.46,7.46,0,0,0,1.64-1h.45V338.4c.3.07.6.16.9.26s.6.22.9.35Z"/><path class="cls-3" d="M52.17,333.92h5.07V335H52.17Z"/><path class="cls-3" d="M59.92,336.71a3.19,3.19,0,0,1,.22-1.16,3.35,3.35,0,0,1,.61-1,4.17,4.17,0,0,1,.92-.79,5.25,5.25,0,0,1,1.17-.55,7.76,7.76,0,0,1-1-.6,3.56,3.56,0,0,1-.76-.74,3.41,3.41,0,0,1-.52-.91,3,3,0,0,1-.19-1.1,3.11,3.11,0,0,1,.25-1.28,2.84,2.84,0,0,1,.72-1A3.34,3.34,0,0,1,62.5,327a4.53,4.53,0,0,1,1.47-.23,3.52,3.52,0,0,1,2.48.8,2.65,2.65,0,0,1,.89,2.06,2.69,2.69,0,0,1-.69,1.83,5.14,5.14,0,0,1-1.79,1.28,10.59,10.59,0,0,1,1.18.72,5.56,5.56,0,0,1,.93.87,3.89,3.89,0,0,1,.61,1,3.16,3.16,0,0,1,0,2.44,3.07,3.07,0,0,1-.78,1,4,4,0,0,1-1.27.71,5.32,5.32,0,0,1-1.72.26,5.43,5.43,0,0,1-1.72-.25,3.82,3.82,0,0,1-1.21-.68,2.65,2.65,0,0,1-.7-1A3,3,0,0,1,59.92,336.71Zm6.27.09a2.51,2.51,0,0,0-.24-1.11,3,3,0,0,0-.65-.89,5.73,5.73,0,0,0-.93-.72c-.35-.21-.71-.41-1.08-.59a3.6,3.6,0,0,0-.87.68,4,4,0,0,0-.56.79,3.45,3.45,0,0,0-.39,1.55,3,3,0,0,0,.14.88,2.22,2.22,0,0,0,.42.79,2.17,2.17,0,0,0,.75.56,2.66,2.66,0,0,0,1.12.22,2.57,2.57,0,0,0,1-.19,2.25,2.25,0,0,0,.72-.5,2,2,0,0,0,.43-.7A2.15,2.15,0,0,0,66.19,336.8ZM62,329.63a2.1,2.1,0,0,0,.21,1,2.69,2.69,0,0,0,.55.75,4,4,0,0,0,.79.6,10.27,10.27,0,0,0,.92.51,4,4,0,0,0,1.07-1.22,2.91,2.91,0,0,0,.31-1.35,2.63,2.63,0,0,0-.5-1.72,1.66,1.66,0,0,0-1.37-.61,1.94,1.94,0,0,0-.86.18,2,2,0,0,0-.61.47,1.81,1.81,0,0,0-.38.66A2.17,2.17,0,0,0,62,329.63Z"/><path class="cls-3" d="M76.9,325.94h.45c0,.18,0,.38,0,.61a5,5,0,0,1-.08.66c0,.22-.07.44-.11.64a2.29,2.29,0,0,1-.12.5H72.56l-.43,3.48H73.3a5.39,5.39,0,0,1,1.65.24,3.45,3.45,0,0,1,1.27.72,3.33,3.33,0,0,1,.83,1.16,3.89,3.89,0,0,1,.3,1.57,4.33,4.33,0,0,1-.36,1.83,4,4,0,0,1-1,1.33,4,4,0,0,1-1.35.8,4.57,4.57,0,0,1-1.56.27,5.54,5.54,0,0,1-.78-.06c-.27-.05-.54-.11-.82-.19s-.52-.19-.76-.3a3.18,3.18,0,0,1-.61-.37l.52-1.62H71l.27.33.33.41c.12.14.23.29.34.43l.32.38a1.59,1.59,0,0,1,.33.09,1.45,1.45,0,0,0,.48,0,2.45,2.45,0,0,0,1.09-.23A2.68,2.68,0,0,0,75,338a2.81,2.81,0,0,0,.56-.95,3.38,3.38,0,0,0,.2-1.17,2.77,2.77,0,0,0-.27-1.25,2.37,2.37,0,0,0-.74-.86,3.11,3.11,0,0,0-1.09-.49,4.63,4.63,0,0,0-1.3-.15l-1.28,0,.72-6.25h4.28Z"/><path class="cls-3" d="M84.46,343a11.26,11.26,0,0,0,1.25-1.46,10.31,10.31,0,0,0,1-1.82,12.52,12.52,0,0,0,.68-2.17,11.83,11.83,0,0,0,.25-2.52,12.39,12.39,0,0,0-.23-2.48,9.76,9.76,0,0,0-.65-2,9.16,9.16,0,0,0-1-1.71,16.83,16.83,0,0,0-1.31-1.55l.38-.32a17.55,17.55,0,0,1,1.71,1.49,9.25,9.25,0,0,1,1.4,1.77,8.45,8.45,0,0,1,.94,2.16,9.92,9.92,0,0,1,.34,2.66,10.58,10.58,0,0,1-.33,2.73A9,9,0,0,1,88,340a9.53,9.53,0,0,1-1.37,1.85,12.32,12.32,0,0,1-1.74,1.5Z"/><path class="cls-3" d="M189.59,105.23h-8.3v-1c.4-.18.8-.33,1.21-.47s.82-.25,1.24-.35v-11l.09-1.42a6.48,6.48,0,0,1-1.39.29,10.45,10.45,0,0,1-1.49.05l-.12-.89a26.89,26.89,0,0,0,2.77-.91,18.35,18.35,0,0,0,2.78-1.34h.81v15.23c.4.1.8.22,1.2.35s.8.29,1.2.47Z"/><path class="cls-3" d="M203.65,105.23h-8.3v-1c.4-.18.8-.33,1.21-.47s.82-.25,1.24-.35v-11l.09-1.42a6.36,6.36,0,0,1-1.39.29,10.4,10.4,0,0,1-1.49.05l-.12-.89a27,27,0,0,0,2.78-.91,18.23,18.23,0,0,0,2.77-1.34h.82v15.23c.39.1.8.22,1.19.35s.8.29,1.2.47Z"/><path class="cls-3" d="M207.09,96.83a13.77,13.77,0,0,1,.46-3.78,8.44,8.44,0,0,1,1.3-2.71,5.4,5.4,0,0,1,2-1.64,5.6,5.6,0,0,1,2.48-.55,5.45,5.45,0,0,1,4.56,2.17c1.12,1.44,1.68,3.62,1.68,6.51a13.38,13.38,0,0,1-.47,3.78,7.93,7.93,0,0,1-1.32,2.72,5.57,5.57,0,0,1-2,1.64,6,6,0,0,1-2.57.55,5.41,5.41,0,0,1-2.59-.59,5.25,5.25,0,0,1-1.91-1.7,8.14,8.14,0,0,1-1.18-2.73A15.59,15.59,0,0,1,207.09,96.83Zm3.6,0c0,1.15,0,2.17.1,3.08a11.7,11.7,0,0,0,.4,2.3,3.48,3.48,0,0,0,.76,1.44,1.51,1.51,0,0,0,1.18.5,2.24,2.24,0,0,0,1.38-.4,2.77,2.77,0,0,0,.87-1.29,9.21,9.21,0,0,0,.44-2.27q.12-1.38.12-3.36c0-1.14,0-2.17-.09-3.07a10.89,10.89,0,0,0-.38-2.3,3.19,3.19,0,0,0-.79-1.45,1.9,1.9,0,0,0-1.38-.5,2,2,0,0,0-1.27.41,2.7,2.7,0,0,0-.8,1.29,9.71,9.71,0,0,0-.42,2.27C210.73,94.41,210.69,95.53,210.69,96.83Z"/><path class="cls-3" d="M159.91,136.31a14,14,0,0,1-1.71-1.46,8.6,8.6,0,0,1-1.37-1.78,9,9,0,0,1-.92-2.19,10.34,10.34,0,0,1-.33-2.72,9.48,9.48,0,0,1,.34-2.66,8.9,8.9,0,0,1,.93-2.18,10.32,10.32,0,0,1,1.4-1.83A17.41,17.41,0,0,1,160,119.9l.37.32a19.37,19.37,0,0,0-1.31,1.59,9.2,9.2,0,0,0-1,1.76,10.11,10.11,0,0,0-.65,2.08,12.88,12.88,0,0,0,0,5,10.25,10.25,0,0,0,.7,2.11,9.34,9.34,0,0,0,1,1.75,11.75,11.75,0,0,0,1.25,1.44Z"/><path class="cls-3" d="M173.72,132.53h-5.26V132c.3-.13.61-.25.91-.35s.62-.19.93-.26v-8.84l.07-1.06a5.33,5.33,0,0,1-1,.28,6.89,6.89,0,0,1-1.12.06l-.09-.43a16.4,16.4,0,0,0,1.71-.68,7.7,7.7,0,0,0,1.64-1h.45V131.4c.3.07.6.16.9.26s.6.22.9.35Z"/><path class="cls-3" d="M177,123.77a4.91,4.91,0,0,1,.26-1.62,3.7,3.7,0,0,1,.78-1.28,3.64,3.64,0,0,1,1.26-.85,4.59,4.59,0,0,1,1.72-.3,4.24,4.24,0,0,1,1.81.35,3.31,3.31,0,0,1,1.26,1,3.88,3.88,0,0,1,.74,1.54,7.78,7.78,0,0,1,.24,2,9.64,9.64,0,0,1-.49,3.1,8.21,8.21,0,0,1-1.32,2.49,6.83,6.83,0,0,1-2,1.74,6.3,6.3,0,0,1-2.46.83l-.32-.52a6.32,6.32,0,0,0,1.88-.85,6.07,6.07,0,0,0,1.4-1.32,7,7,0,0,0,1-1.69,8.94,8.94,0,0,0,.5-2,3.8,3.8,0,0,1-1,.73,3.32,3.32,0,0,1-1.54.3,4.44,4.44,0,0,1-1.49-.24,3.28,3.28,0,0,1-1.17-.71,3.36,3.36,0,0,1-.77-1.16A4.17,4.17,0,0,1,177,123.77Zm1.73,0a3.2,3.2,0,0,0,.16,1,3,3,0,0,0,.47.88,2.34,2.34,0,0,0,.74.62,2.07,2.07,0,0,0,1,.23,3.16,3.16,0,0,0,1.43-.29,2.07,2.07,0,0,0,.84-.75,4.8,4.8,0,0,0,0-.59v-.54a6.73,6.73,0,0,0-.13-1.33,4.43,4.43,0,0,0-.42-1.21,2.61,2.61,0,0,0-.76-.88,1.82,1.82,0,0,0-1.12-.35,1.85,1.85,0,0,0-1.64.86A4.16,4.16,0,0,0,178.74,123.75Z"/><path class="cls-3" d="M187.15,129.71a3.19,3.19,0,0,1,.21-1.16,3.35,3.35,0,0,1,.61-1,4.41,4.41,0,0,1,.92-.79,5.71,5.71,0,0,1,1.17-.55,7,7,0,0,1-.95-.6,3.61,3.61,0,0,1-.77-.74,3.41,3.41,0,0,1-.52-.91,3.17,3.17,0,0,1-.19-1.1,3.11,3.11,0,0,1,.26-1.28,2.69,2.69,0,0,1,.71-1,3.34,3.34,0,0,1,1.12-.65,4.55,4.55,0,0,1,1.48-.23,3.56,3.56,0,0,1,2.48.8,2.64,2.64,0,0,1,.88,2.06,2.69,2.69,0,0,1-.69,1.83,5,5,0,0,1-1.79,1.28,9.75,9.75,0,0,1,1.18.72,5.56,5.56,0,0,1,.93.87,3.89,3.89,0,0,1,.61,1,3.16,3.16,0,0,1,0,2.44,3.07,3.07,0,0,1-.78,1.05,3.89,3.89,0,0,1-1.27.71,5.32,5.32,0,0,1-1.72.26,5.43,5.43,0,0,1-1.72-.25,3.66,3.66,0,0,1-1.2-.68,2.57,2.57,0,0,1-.71-1A3,3,0,0,1,187.15,129.71Zm6.26.09a2.51,2.51,0,0,0-.24-1.11,3,3,0,0,0-.65-.89,5.33,5.33,0,0,0-.93-.72c-.35-.21-.71-.41-1.08-.59a3.6,3.6,0,0,0-.87.68,4,4,0,0,0-.56.79,3.75,3.75,0,0,0-.29.81,2.85,2.85,0,0,0-.1.74,3,3,0,0,0,.14.88,2.22,2.22,0,0,0,.42.79,2.17,2.17,0,0,0,.75.56,2.69,2.69,0,0,0,1.12.22,2.5,2.5,0,0,0,1-.19,2.25,2.25,0,0,0,.72-.5,2.07,2.07,0,0,0,.44-.7A2.37,2.37,0,0,0,193.41,129.8Zm-4.23-7.17a2.1,2.1,0,0,0,.21,1,2.69,2.69,0,0,0,.55.75,4.32,4.32,0,0,0,.79.6,10.27,10.27,0,0,0,.92.51,3.88,3.88,0,0,0,1.07-1.22,2.91,2.91,0,0,0,.31-1.35,2.58,2.58,0,0,0-.5-1.72,1.66,1.66,0,0,0-1.37-.61,1.87,1.87,0,0,0-.85.18,2,2,0,0,0-.62.47,1.81,1.81,0,0,0-.38.66A2.17,2.17,0,0,0,189.18,122.63Z"/><path class="cls-3" d="M205.4,128.74a4.19,4.19,0,0,1-.29,1.55,3.87,3.87,0,0,1-.81,1.28,3.71,3.71,0,0,1-1.26.86,4.14,4.14,0,0,1-1.64.32,4.35,4.35,0,0,1-1.78-.35,3.64,3.64,0,0,1-1.3-1,4.17,4.17,0,0,1-.81-1.5,6.25,6.25,0,0,1-.27-1.89,8.42,8.42,0,0,1,.56-3.1,8.68,8.68,0,0,1,1.49-2.5,8.49,8.49,0,0,1,2.12-1.81,8.32,8.32,0,0,1,2.49-1l.2.54a8.16,8.16,0,0,0-1.81.93,7.66,7.66,0,0,0-1.53,1.37,7.55,7.55,0,0,0-1.12,1.78,6.39,6.39,0,0,0-.56,2.11,2.58,2.58,0,0,1,1-.89,3.48,3.48,0,0,1,1.71-.4,4,4,0,0,1,1.44.25,3.08,3.08,0,0,1,1.13.72,3.31,3.31,0,0,1,.74,1.15A4.27,4.27,0,0,1,205.4,128.74Zm-1.73.16a3.38,3.38,0,0,0-.62-2.1,2.05,2.05,0,0,0-1.74-.82,2.41,2.41,0,0,0-1.45.43,2.52,2.52,0,0,0-.85,1,3.49,3.49,0,0,0,0,.59v.55a4.89,4.89,0,0,0,.15,1.18,4.14,4.14,0,0,0,.47,1.12,2.85,2.85,0,0,0,.79.83,1.91,1.91,0,0,0,1.11.33,1.74,1.74,0,0,0,1-.27,2,2,0,0,0,.68-.69,3.34,3.34,0,0,0,.38-1A4.67,4.67,0,0,0,203.67,128.9Z"/><path class="cls-3" d="M207.74,126.92h5.07V128h-5.07Z"/><path class="cls-3" d="M215.46,123.77a4.91,4.91,0,0,1,.26-1.62,3.54,3.54,0,0,1,.77-1.28,3.84,3.84,0,0,1,1.26-.85,4.63,4.63,0,0,1,1.72-.3,4.21,4.21,0,0,1,1.81.35,3.34,3.34,0,0,1,1.27,1,4,4,0,0,1,.74,1.54,7.79,7.79,0,0,1,.23,2,9.64,9.64,0,0,1-.48,3.1,8.46,8.46,0,0,1-1.33,2.49,6.58,6.58,0,0,1-2,1.74,6.31,6.31,0,0,1-2.45.83l-.33-.52a6.1,6.1,0,0,0,1.88-.85,5.92,5.92,0,0,0,1.41-1.32,7,7,0,0,0,.94-1.69,9,9,0,0,0,.51-2,4,4,0,0,1-1,.73,3.32,3.32,0,0,1-1.54.3,4.54,4.54,0,0,1-1.5-.24,3.46,3.46,0,0,1-1.17-.71,3.34,3.34,0,0,1-.76-1.16A4,4,0,0,1,215.46,123.77Zm1.73,0a3.2,3.2,0,0,0,.16,1,2.76,2.76,0,0,0,.47.88,2.34,2.34,0,0,0,.74.62,2,2,0,0,0,1,.23,3.19,3.19,0,0,0,1.43-.29,2.07,2.07,0,0,0,.84-.75,4.8,4.8,0,0,0,0-.59v-.54a6.73,6.73,0,0,0-.13-1.33,4.13,4.13,0,0,0-.43-1.21,2.48,2.48,0,0,0-.75-.88,2,2,0,0,0-2.77.51A4.25,4.25,0,0,0,217.19,123.75Z"/><path class="cls-3" d="M225.34,126.23a9,9,0,0,1,1.08-4.88,3.85,3.85,0,0,1,6.28,0,9.33,9.33,0,0,1,1,4.9,8.84,8.84,0,0,1-1.09,4.88,3.6,3.6,0,0,1-3.21,1.64,3.75,3.75,0,0,1-1.87-.44,3.37,3.37,0,0,1-1.26-1.28,6.27,6.27,0,0,1-.71-2A15.15,15.15,0,0,1,225.34,126.23Zm1.73,0a18.68,18.68,0,0,0,.13,2.35,7.69,7.69,0,0,0,.4,1.82,3.12,3.12,0,0,0,.72,1.18,1.52,1.52,0,0,0,1.07.41,2,2,0,0,0,2-1.4,12,12,0,0,0,.58-4.36c0-.86,0-1.64-.1-2.35a7.49,7.49,0,0,0-.4-1.81,2.88,2.88,0,0,0-.77-1.17,1.76,1.76,0,0,0-1.19-.41,1.93,1.93,0,0,0-1.9,1.39A12.61,12.61,0,0,0,227.07,126.25Z"/><path class="cls-3" d="M240,136a11.26,11.26,0,0,0,1.25-1.46,10.31,10.31,0,0,0,1-1.82,12.52,12.52,0,0,0,.68-2.17,11.83,11.83,0,0,0,.25-2.52,11.69,11.69,0,0,0-.23-2.48,9.76,9.76,0,0,0-.65-2,8.64,8.64,0,0,0-1-1.71,16.83,16.83,0,0,0-1.31-1.55l.38-.32a19,19,0,0,1,1.72,1.49,9.61,9.61,0,0,1,1.39,1.77,8.45,8.45,0,0,1,.94,2.16,9.53,9.53,0,0,1,.34,2.66,11.05,11.05,0,0,1-.32,2.73,9.79,9.79,0,0,1-.9,2.25,10,10,0,0,1-1.38,1.85,12.32,12.32,0,0,1-1.74,1.5Z"/><line class="cls-6" x1="200.19" y1="180.06" x2="264.19" y2="180.06"/><line class="cls-6" x1="626.19" y1="159.06" x2="656.19" y2="136.06"/><path class="cls-3" d="M627.56,160.85a2.26,2.26,0,1,1,.42-3.17A2.26,2.26,0,0,1,627.56,160.85Z"/><line class="cls-2" x1="200.19" y1="180.06" x2="200.19" y2="382.06"/><circle class="cls-3" cx="200.19" cy="180.06" r="2.26"/><path class="cls-3" d="M493.59,17.23h-8.3v-1c.4-.18.8-.33,1.21-.47s.82-.25,1.24-.35v-11L487.83,3a6.48,6.48,0,0,1-1.39.29,10.45,10.45,0,0,1-1.49,0l-.12-.89a26.89,26.89,0,0,0,2.77-.91A18.35,18.35,0,0,0,490.38.15h.81V15.38c.4.1.8.22,1.2.35s.8.29,1.2.47Z"/><path class="cls-3" d="M509.33,12.07a5.31,5.31,0,0,1-.46,2.26A5.14,5.14,0,0,1,507.61,16a5.59,5.59,0,0,1-1.86,1.1,6.84,6.84,0,0,1-2.27.38,6.93,6.93,0,0,1-2.63-.47,5.19,5.19,0,0,1-1.91-1.3,5.69,5.69,0,0,1-1.16-2,7.48,7.48,0,0,1-.4-2.52,10.49,10.49,0,0,1,.8-4.13,11.05,11.05,0,0,1,2.13-3.31,12.13,12.13,0,0,1,3.13-2.4A14.36,14.36,0,0,1,507.25,0l.36,1a10.12,10.12,0,0,0-2.4,1.11,8.32,8.32,0,0,0-2,1.69,8.75,8.75,0,0,0-1.39,2.25,9.07,9.07,0,0,0-.68,2.78,3,3,0,0,1,.49-.61,3.27,3.27,0,0,1,.73-.56,4.46,4.46,0,0,1,1-.41,5.08,5.08,0,0,1,1.29-.15,5.21,5.21,0,0,1,1.83.31,4,4,0,0,1,1.48.94,4.33,4.33,0,0,1,1,1.54A5.74,5.74,0,0,1,509.33,12.07Zm-3.6.29c0-2.37-.79-3.55-2.37-3.55a2.27,2.27,0,0,0-1.39.42,2.47,2.47,0,0,0-.84,1A5,5,0,0,0,501,11a8.45,8.45,0,0,0,0,.85,8.14,8.14,0,0,0,.15,1.58,4.5,4.5,0,0,0,.45,1.34,2.79,2.79,0,0,0,.81.95,1.92,1.92,0,0,0,1.18.36,1.66,1.66,0,0,0,1-.3,2.22,2.22,0,0,0,.66-.81,4.13,4.13,0,0,0,.37-1.17A8.08,8.08,0,0,0,505.73,12.36Z"/><path class="cls-3" d="M511.09,8.83a13.77,13.77,0,0,1,.46-3.78,8.44,8.44,0,0,1,1.3-2.71,5.4,5.4,0,0,1,2-1.64A5.6,5.6,0,0,1,517.3.15a5.45,5.45,0,0,1,4.56,2.17c1.12,1.44,1.68,3.62,1.68,6.51a13.38,13.38,0,0,1-.47,3.78,7.93,7.93,0,0,1-1.32,2.72,5.57,5.57,0,0,1-2,1.64,6,6,0,0,1-2.57.55,5.41,5.41,0,0,1-2.59-.59,5.25,5.25,0,0,1-1.91-1.7,8.14,8.14,0,0,1-1.18-2.73A15.59,15.59,0,0,1,511.09,8.83Zm3.6,0c0,1.15,0,2.17.1,3.08a11.7,11.7,0,0,0,.4,2.3,3.48,3.48,0,0,0,.76,1.44,1.51,1.51,0,0,0,1.18.5,2.24,2.24,0,0,0,1.38-.4,2.77,2.77,0,0,0,.87-1.29,9.21,9.21,0,0,0,.44-2.27q.12-1.38.12-3.36c0-1.14,0-2.17-.09-3.07a10.89,10.89,0,0,0-.38-2.3A3.19,3.19,0,0,0,518.68,2a1.9,1.9,0,0,0-1.38-.5,2,2,0,0,0-1.27.41,2.7,2.7,0,0,0-.8,1.29,9.71,9.71,0,0,0-.42,2.27C514.73,6.41,514.69,7.53,514.69,8.83Z"/><path class="cls-3" d="M463.91,48.31a14,14,0,0,1-1.71-1.46,8.6,8.6,0,0,1-1.37-1.78,9,9,0,0,1-.92-2.19,10.34,10.34,0,0,1-.33-2.72,9.48,9.48,0,0,1,.34-2.66,8.9,8.9,0,0,1,.93-2.18,10.32,10.32,0,0,1,1.4-1.83A17.41,17.41,0,0,1,464,31.9l.37.32A19.37,19.37,0,0,0,463,33.81a9.2,9.2,0,0,0-1,1.76,10.11,10.11,0,0,0-.65,2.08,12.88,12.88,0,0,0,0,5,10.25,10.25,0,0,0,.7,2.11,9.34,9.34,0,0,0,1,1.75A11.75,11.75,0,0,0,464.34,48Z"/><path class="cls-3" d="M472.46,35.44H472c-.13-.35-.27-.75-.4-1.22s-.26-.91-.35-1.33a4.73,4.73,0,0,1,1.51-.86,5.63,5.63,0,0,1,1.91-.31,4.18,4.18,0,0,1,1.54.25,3.17,3.17,0,0,1,1.08.68,2.8,2.8,0,0,1,.62,1,3.6,3.6,0,0,1,.19,1.18,5.15,5.15,0,0,1-.46,2.07A12.74,12.74,0,0,1,476.49,39,18.54,18.54,0,0,1,475,40.84c-.54.59-1,1.11-1.49,1.55l-.76.7v.07l1-.1h3.1l.88-2h.45c0,.27.05.55.07.87s.05.62.06.94,0,.62.05.92,0,.55,0,.76h-7.44V44l1-1c.37-.4.77-.83,1.17-1.31s.82-1,1.22-1.54a13.94,13.94,0,0,0,1.07-1.64,11.79,11.79,0,0,0,.77-1.67,4.86,4.86,0,0,0,.29-1.58,3.54,3.54,0,0,0-.13-1,2.43,2.43,0,0,0-.41-.82,2,2,0,0,0-.65-.55,2,2,0,0,0-.9-.2,3.23,3.23,0,0,0-.66.06,4.86,4.86,0,0,0-.63.16Z"/><path class="cls-3" d="M480.8,38.23a9,9,0,0,1,1.08-4.88,3.85,3.85,0,0,1,6.28,0,9.43,9.43,0,0,1,1,4.9,8.93,8.93,0,0,1-1.09,4.88,3.62,3.62,0,0,1-3.21,1.64,3.79,3.79,0,0,1-1.88-.44A3.52,3.52,0,0,1,481.73,43a6.52,6.52,0,0,1-.71-2A15.21,15.21,0,0,1,480.8,38.23Zm1.72,0a20.78,20.78,0,0,0,.13,2.35,7.66,7.66,0,0,0,.41,1.82,2.89,2.89,0,0,0,.72,1.18,1.52,1.52,0,0,0,1.07.41,2,2,0,0,0,2-1.4,12,12,0,0,0,.59-4.36c0-.86,0-1.64-.11-2.35a6.65,6.65,0,0,0-.4-1.81,2.87,2.87,0,0,0-.76-1.17,1.8,1.8,0,0,0-1.2-.41,1.93,1.93,0,0,0-1.9,1.39A12.86,12.86,0,0,0,482.52,38.25Z"/><path class="cls-3" d="M490.89,38.23A9,9,0,0,1,492,33.35a3.86,3.86,0,0,1,6.29,0,9.44,9.44,0,0,1,1,4.9,8.94,8.94,0,0,1-1.08,4.88A3.63,3.63,0,0,1,495,44.75a3.77,3.77,0,0,1-1.87-.44A3.37,3.37,0,0,1,491.83,43a6.52,6.52,0,0,1-.71-2A15.15,15.15,0,0,1,490.89,38.23Zm1.73,0a18.68,18.68,0,0,0,.13,2.35,8.22,8.22,0,0,0,.4,1.82,3.12,3.12,0,0,0,.72,1.18,1.54,1.54,0,0,0,1.07.41,2,2,0,0,0,2-1.4,12,12,0,0,0,.59-4.36c0-.86,0-1.64-.11-2.35a7,7,0,0,0-.4-1.81,3,3,0,0,0-.76-1.17,1.8,1.8,0,0,0-1.2-.41,1.93,1.93,0,0,0-1.9,1.39A12.86,12.86,0,0,0,492.62,38.25Z"/><path class="cls-3" d="M508,44.53h-5.25V44c.3-.13.6-.25.9-.35s.62-.19.93-.26V34.56l.07-1.06a5.14,5.14,0,0,1-1,.28,6.83,6.83,0,0,1-1.12.06l-.09-.43a14.81,14.81,0,0,0,1.71-.68,7.46,7.46,0,0,0,1.64-1h.45V43.4c.3.07.6.16.9.26s.6.22.9.35Z"/><path class="cls-3" d="M511.74,38.92h5.07V40h-5.07Z"/><path class="cls-3" d="M519.24,38.23a9,9,0,0,1,1.08-4.88,3.86,3.86,0,0,1,6.29,0,9.44,9.44,0,0,1,1,4.9,8.84,8.84,0,0,1-1.09,4.88,3.6,3.6,0,0,1-3.21,1.64,3.75,3.75,0,0,1-1.87-.44A3.37,3.37,0,0,1,520.18,43a6.52,6.52,0,0,1-.71-2A15.15,15.15,0,0,1,519.24,38.23Zm1.73,0a18.68,18.68,0,0,0,.13,2.35,8.22,8.22,0,0,0,.4,1.82,3.12,3.12,0,0,0,.72,1.18,1.54,1.54,0,0,0,1.07.41,2,2,0,0,0,2-1.4,12,12,0,0,0,.59-4.36c0-.86,0-1.64-.11-2.35a7.49,7.49,0,0,0-.4-1.81,3,3,0,0,0-.76-1.17,1.8,1.8,0,0,0-1.2-.41,1.93,1.93,0,0,0-1.9,1.39A12.61,12.61,0,0,0,521,38.25Z"/><path class="cls-3" d="M536.47,30.94h.45c0,.18,0,.38,0,.61a5,5,0,0,1-.08.66c0,.22-.07.44-.1.64a3,3,0,0,1-.13.5h-4.43l-.43,3.48h1.17a5.39,5.39,0,0,1,1.65.24,3.45,3.45,0,0,1,1.27.72,3.33,3.33,0,0,1,.83,1.16,3.89,3.89,0,0,1,.3,1.57,4.33,4.33,0,0,1-.36,1.83,4.07,4.07,0,0,1-.95,1.33,4.2,4.2,0,0,1-1.35.8,4.67,4.67,0,0,1-1.57.27,5.3,5.3,0,0,1-.77-.06,7.51,7.51,0,0,1-.82-.19,7.71,7.71,0,0,1-.77-.3,3.18,3.18,0,0,1-.61-.37l.52-1.62h.36l.27.33.33.41.35.43c.11.15.22.27.31.38a1.59,1.59,0,0,1,.33.09,1.52,1.52,0,0,0,.48,0,2.45,2.45,0,0,0,1.09-.23,2.84,2.84,0,0,0,.86-.64,2.79,2.79,0,0,0,.55-1,3.16,3.16,0,0,0,.2-1.17,2.77,2.77,0,0,0-.27-1.25,2.28,2.28,0,0,0-.74-.86,3.11,3.11,0,0,0-1.09-.49,4.59,4.59,0,0,0-1.3-.15l-1.28,0,.72-6.25h4.29Z"/><path class="cls-3" d="M544,48a11.26,11.26,0,0,0,1.25-1.46,10.31,10.31,0,0,0,1-1.82A12.52,12.52,0,0,0,547,42.5a11.83,11.83,0,0,0,.25-2.52A11.69,11.69,0,0,0,547,37.5a9.76,9.76,0,0,0-.65-2,8.64,8.64,0,0,0-1-1.71A16.83,16.83,0,0,0,544,32.22l.38-.32a19,19,0,0,1,1.72,1.49,9.61,9.61,0,0,1,1.39,1.77,8.45,8.45,0,0,1,.94,2.16A9.53,9.53,0,0,1,548.8,40a11.05,11.05,0,0,1-.32,2.73,9.79,9.79,0,0,1-.9,2.25,10,10,0,0,1-1.38,1.85,12.32,12.32,0,0,1-1.74,1.5Z"/><line class="cls-2" x1="605.19" y1="148.2" x2="605.19" y2="382.06"/><circle class="cls-3" cx="605.19" cy="148.31" r="2.26"/><path class="cls-7" d="M277.41,177a.34.34,0,0,1-.15-.16.38.38,0,0,1-.07-.18.31.31,0,0,1,0-.13l1.33-.87c.44-.27.78-.49,1-.63a3.45,3.45,0,0,1,.38-.22h0c.07,0,.12.08.16.25a5.15,5.15,0,0,0-.12,1.28v5.44a4.14,4.14,0,0,0,.11,1.1c0,.07.14.14.37.2a2.32,2.32,0,0,0,.47.1s0,.09,0,.27a.87.87,0,0,1,0,.19,6.34,6.34,0,0,0-.71,0c-.46,0-.79,0-1,0s-.55,0-1,0-.67,0-.71,0a.44.44,0,0,1-.05-.26c0-.14,0-.2.05-.2a2.23,2.23,0,0,0,.51-.11c.24-.06.36-.13.38-.19a3.13,3.13,0,0,0,.08-.8v-4.76a3.49,3.49,0,0,0,0-.51.48.48,0,0,0-.08-.23.14.14,0,0,0-.12,0,.3.3,0,0,0-.13,0l-.2.09-.19.11-.22.12Z"/><path class="cls-7" d="M286.44,174.71a2.57,2.57,0,0,1,1.93.84,2.85,2.85,0,0,1,.8,2,5,5,0,0,1-.44,2.08,5.89,5.89,0,0,1-1.15,1.76,9.84,9.84,0,0,1-1.53,1.31,8.32,8.32,0,0,1-1.66.88c-.08,0-.14-.07-.2-.18a.73.73,0,0,1-.08-.26,6.1,6.1,0,0,0,2-1.35,4.72,4.72,0,0,0,1.24-2.07c0-.11,0-.17,0-.2h0a1.21,1.21,0,0,1-.48.21,2.32,2.32,0,0,1-.64.11,2.51,2.51,0,0,1-2.49-2.49,2.6,2.6,0,0,1,.82-1.89A2.66,2.66,0,0,1,286.44,174.71Zm1.23,2.82a3.07,3.07,0,0,0-.36-1.57,1.09,1.09,0,0,0-1-.62,1,1,0,0,0-.84.49,2.57,2.57,0,0,0-.31,1.4,2.55,2.55,0,0,0,.36,1.43,1.23,1.23,0,0,0,1.1.54,1.18,1.18,0,0,0,.55-.14.73.73,0,0,0,.33-.35A4.18,4.18,0,0,0,287.67,177.53Z"/><path class="cls-7" d="M294.18,174.82a2.82,2.82,0,0,1,1.74.55,1.77,1.77,0,0,1,.72,1.48c0,.72-.5,1.39-1.5,2,0,0,0,0,0,0s0,0,0,0c.17.11.35.24.52.37s.36.31.56.51a2.69,2.69,0,0,1,.49.67,1.75,1.75,0,0,1,.18.75,2.17,2.17,0,0,1-.83,1.72,3,3,0,0,1-1.93.69,3,3,0,0,1-1.9-.59,2,2,0,0,1-.75-1.66,1.7,1.7,0,0,1,.14-.69,2,2,0,0,1,.75-1c.21-.16.34-.26.41-.3l.38-.22a.07.07,0,0,0,0-.06s0,0,0,0l-.43-.34a4.56,4.56,0,0,1-.43-.44,2.15,2.15,0,0,1-.49-1.4,1.88,1.88,0,0,1,.73-1.49A2.48,2.48,0,0,1,294.18,174.82Zm0,8.23a1.12,1.12,0,0,0,.9-.38,1.43,1.43,0,0,0,.33-1c0-.64-.5-1.3-1.5-2l-.06,0a.31.31,0,0,0-.13-.05h-.06a1.88,1.88,0,0,0-.73,1.75,1.92,1.92,0,0,0,.36,1.18A1.08,1.08,0,0,0,294.18,183.05Zm0-7.62a.86.86,0,0,0-.72.36,1.71,1.71,0,0,0-.27,1,1.31,1.31,0,0,0,.23.72,2,2,0,0,0,.42.49l.54.39a.43.43,0,0,0,.14,0,.11.11,0,0,0,.08,0,1.75,1.75,0,0,0,.69-1.49,1.8,1.8,0,0,0-.3-1.07A.91.91,0,0,0,294.17,175.43Z"/><path class="cls-7" d="M301.94,183.63a2.61,2.61,0,0,1-1.94-.84,2.8,2.8,0,0,1-.81-2,5.05,5.05,0,0,1,.44-2.06,5.79,5.79,0,0,1,1.17-1.74,9.59,9.59,0,0,1,1.57-1.3,10,10,0,0,1,1.77-.93.25.25,0,0,1,.19.16.69.69,0,0,1,.09.25,7.57,7.57,0,0,0-2.16,1.42,4.65,4.65,0,0,0-1.25,2c0,.11,0,.18,0,.21a0,0,0,0,0,0,0,4.4,4.4,0,0,1,.54-.21,2,2,0,0,1,.65-.12,2.29,2.29,0,0,1,1.73.77,2.52,2.52,0,0,1-.11,3.63A2.69,2.69,0,0,1,301.94,183.63Zm-1.23-2.82a3.07,3.07,0,0,0,.36,1.57,1.07,1.07,0,0,0,.95.62,1,1,0,0,0,.87-.48,2.52,2.52,0,0,0,.31-1.38,2.69,2.69,0,0,0-.35-1.46,1.24,1.24,0,0,0-1.11-.54,1.08,1.08,0,0,0-.55.15.65.65,0,0,0-.33.35A4.15,4.15,0,0,0,300.71,180.81Z"/><path class="cls-7" d="M322.08,179.64s.91.67,1.44,1.16c0,.15-.18.23-.37.23h-4.81v3.29c0,.08-.38.35-1,.35h-.21V181h-6.41l-.11-.41h2.43v-4.25l1.34.55h2.75v-2.65h-3a12.45,12.45,0,0,1-3.38,3.28l-.18-.15a16.6,16.6,0,0,0,3.54-5.84l1.7.65a.51.51,0,0,1-.58.24c-.25.49-.53,1-.82,1.42h6.44l.78-1s.87.63,1.45,1.15c-.05.15-.18.22-.4.22h-4.32v2.65h2.18l.73-.92s.83.64,1.35,1.1c0,.14-.19.21-.38.21h-3.88v3.31h3Zm-4.93,1v-3.31h-2.92v3.31Z"/><path class="cls-7" d="M332.18,174.64a1.28,1.28,0,0,1-.6.29v8.5a1.38,1.38,0,0,1-.91.37h-.16v-1.08H327.8v1.12c0,.13-.41.39-.86.39h-.19V173.8l1.12.52h.36c.14-.72.34-1.78.46-2.53l1.7.4c-.06.19-.24.3-.53.3-.31.54-.75,1.25-1.12,1.83h1.63l.58-.66Zm-4.38.08v3.49h2.71v-3.49Zm2.71,7.59v-3.69H327.8v3.69Zm8.49-7.67a1,1,0,0,1-.6.24c-.1,5.31-.34,8.26-1,9.07a2.14,2.14,0,0,1-1.75.7,1,1,0,0,0-.28-.84,3.62,3.62,0,0,0-1.41-.47v-.24c.66.07,1.64.15,2,.15a.56.56,0,0,0,.52-.19c.53-.49.73-3.58.81-8.35H334.1a11.13,11.13,0,0,1-2.13,2.94l-.19-.13a19.32,19.32,0,0,0,2.14-5.73l1.65.47a.5.5,0,0,1-.52.29,17.34,17.34,0,0,1-.74,1.75h2.83l.66-.71Zm-5.87,2.53c3.56,1.43,2.57,3.93,1.42,3a6.39,6.39,0,0,0-1.56-2.9Z"/><path class="cls-7" d="M346.91,180.07s.74.59,1.2,1c0,.15-.16.22-.36.22h-2.56v2.93c0,.07-.35.29-.89.29h-.18v-3.22h-2.56l-.11-.41h2.67v-1.86H342l-.11-.42H345a19.75,19.75,0,0,0,.71-2.59l1.56.43c-.06.17-.23.28-.52.27a12.46,12.46,0,0,1-1.35,1.89h.55l.59-.77a14.22,14.22,0,0,1,1.11,1,.32.32,0,0,1-.35.22h-2.06v1.86h1.06Zm-2.8-4.62v-1.82h-1.87l-.11-.41h2v-1.5l1.47.16c0,.18-.14.31-.46.36v1h.64l.55-.73s.66.52,1.06.92c0,.15-.17.22-.36.22h-1.89v1.82h1.16l.6-.74s.67.52,1.08.92c0,.16-.17.23-.35.23h-5.9l-.11-.41Zm-1.53.67c2.51,1.14,1.44,3,.56,2.16a5.73,5.73,0,0,0-.7-2.1Zm11.68,1.6c-.09.13-.21.17-.52.2a11.51,11.51,0,0,1-1.45,4,7.65,7.65,0,0,0,2.35,1.69l0,.14a1.16,1.16,0,0,0-.95.82,8.23,8.23,0,0,1-1.93-1.84,7.94,7.94,0,0,1-2.37,2l-.14-.18a8,8,0,0,0,2.09-2.45,11.4,11.4,0,0,1-1.5-4.26h-.58v6.53c0,.08-.33.33-.86.33h-.17V172l1.22.56h2.9l.54-.56,1.1.88a.91.91,0,0,1-.54.21c0,1.95-.15,2.81-.56,3.13a1.88,1.88,0,0,1-1.22.33c0-.26,0-.47-.19-.6a2.17,2.17,0,0,0-.9-.31v-.21c.41,0,1.05.07,1.28.07a.46.46,0,0,0,.35-.09,6.41,6.41,0,0,0,.26-2.44h-3.21v4.38h3.35l.59-.61Zm-4.17.07a8.8,8.8,0,0,0,1.62,3.43,13.51,13.51,0,0,0,1-3.43Z"/><path class="cls-7" d="M368.82,180.53s.73.57,1.19,1c0,.15-.16.22-.36.22h-3v1.48c0,.85-.2,1.34-1.78,1.48a1,1,0,0,0-.35-.75,4,4,0,0,0-1.45-.39v-.21s1.8.11,2.13.11.35-.07.35-.26v-1.46h-8.32l-.12-.41h8.44v-1l1.57.15c0,.2-.17.3-.47.35v.49h1.51Zm-11.6-1.26c.59-.26,1.45-.77,1.87-.93a5.85,5.85,0,0,0,1.22-1.92h-1.1l-.43.35-.88-.77a2,2,0,0,1,.57-.24c.31-.42.72-1,1-1.47h-2l-.13-.42h2.23l.53-.55,1.11,1a1.22,1.22,0,0,1-.76.23c-.28.42-.69,1-1,1.48h.87l.62-.55,1,.84c-.09.12-.24.16-.54.16a5.19,5.19,0,0,1-1.67,1.88.43.43,0,0,1,.13,0c1,.72,2.64.86,5.37.86,1.62,0,3.09,0,4.74-.07v.18a.92.92,0,0,0-.77.83h-4.3c-2.83,0-4.06-.37-5.18-1.36-.21-.19-.37-.16-.51,0a14.5,14.5,0,0,0-1.05,1.26.23.23,0,0,1-.11.28Zm.59-7.24c2.86-.32,2.73,1.67,1.67,1.39a4.65,4.65,0,0,0-1.78-1.23Zm2.1,10c3.46.21,2.89,2.47,1.69,1.92a6.36,6.36,0,0,0-1.8-1.78Zm1.1-8.66h2.57l0,0a2.36,2.36,0,0,0-.88-1.39l.14-.1c1.83.17,1.93,1.18,1.48,1.51H366a14.28,14.28,0,0,0,.6-1.58l1.57.44c-.05.15-.24.26-.53.23a6.86,6.86,0,0,1-1.2.91H368l.65-.79s.75.56,1.22,1c0,.15-.17.22-.37.22h-3.58c-.24.31-.51.63-.75.9h2.12l.57-.59,1.2.91a1.16,1.16,0,0,1-.57.27v3.4c0,.1-.53.32-.88.32h-.18v-.43h-4.24v.11c0,.11-.47.34-.9.34h-.15v-4.81l1.12.48h1.21a6.55,6.55,0,0,0,.21-.9h-3.51Zm2.13,1.73v.73h4.24v-.73Zm0,1.88h4.24v-.73h-4.24Zm4.24,1.17v-.75h-4.24v.75Z"/><path class="cls-7" d="M373.55,174.9h-.88l-.12-.4h1v-1.87l1.13.48h1.12v-1.34l1.52.15c-.05.2-.17.34-.52.39v.8H378l.51-.53,1.08.83a1.07,1.07,0,0,1-.49.23v.86h.18l.52-.69a12.77,12.77,0,0,1,1,.87c0,.15-.16.22-.34.22h-1.32v1.39a1.29,1.29,0,0,1-.81.31h-.16v-.31h-1.3v.91h1.39l.49-.49,1,.77a.86.86,0,0,1-.45.23v1.59c0,.1-.49.31-.79.31h-.17v-.39h-4v.18a1,1,0,0,1-.8.31h-.15v-3l1.11.46h1.35v-.91h-1.3v.07a.91.91,0,0,1-.78.31h-.17Zm6.57,5.76-1.71.21a3.91,3.91,0,0,1-.9,1.64c2.15.7,1.61,1.85.77,1.61a7.93,7.93,0,0,0-1.66-.85,10.33,10.33,0,0,1-3.8,1.34l-.1-.21A9,9,0,0,0,376,183a21,21,0,0,0-2.37-.72,9.17,9.17,0,0,0,.51-1l-.66.07a.61.61,0,0,1-.38.28l-.38-1.16c.43,0,1.07,0,1.79,0a8.37,8.37,0,0,0,.49-1.24l1.47.28c0,.19-.15.31-.57.33-.08.18-.18.39-.29.6l2,0a5,5,0,0,0,.11-.88l1.45.35c-.06.2-.24.29-.54.29l0,.21,1.58,0Zm-5.83-1.86h1.51v-1.19h-1.51Zm.21-4.3h1.3v-1h-1.3Zm1.3,1.37v-1h-1.3v1Zm-.58,5.34c-.14.29-.3.59-.44.87a14.45,14.45,0,0,1,1.91.22,3.77,3.77,0,0,0,.71-1.32C376.74,181.05,376,181.14,375.22,181.21Zm1.58-7.69v1h1.3v-1Zm1.3,1.38h-1.3v1h1.3Zm-1.3,2.71v1.19h1.5v-1.19Zm7.87-2.36A14.42,14.42,0,0,1,383,181a8.28,8.28,0,0,0,2.74,2.75l0,.13a1.12,1.12,0,0,0-1,.81,8.24,8.24,0,0,1-2.26-2.87,10.14,10.14,0,0,1-3.58,2.9l-.13-.19a10.35,10.35,0,0,0,3.31-3.67,18,18,0,0,1-1-4.28,9.64,9.64,0,0,1-1.2,1.79l-.2-.13a21.22,21.22,0,0,0,1.7-6.43l1.65.37c0,.19-.2.32-.49.33a22.49,22.49,0,0,1-.7,2.36h1.9l.69-.91s.81.63,1.29,1.09a.33.33,0,0,1-.36.22Zm-3.11,0c-.11.28-.22.56-.35.82A15.79,15.79,0,0,0,382.4,180a15.31,15.31,0,0,0,1.05-4.71Z"/><path class="cls-7" d="M394.4,181.82c-.94.52-2.58,1.45-4.41,2.38a.69.69,0,0,1-.27.34l-.86-1.15c.49-.33.58-.45.58-.74V171.93l1.68.19c0,.22-.2.36-.57.43v4.24h1.72l.75-1s.86.73,1.35,1.23c0,.16-.17.23-.36.23h-3.46v5.67c1-.32,2.39-.79,3.78-1.28Zm6.15,1.18c.36.15.47.28.47.5,0,.52-.59.73-2.9.73h-1.51c-1.25,0-1.62-.31-1.62-1.27V172l1.61.18c0,.19-.14.34-.51.4v4.24h2.1l.75-1.05s.85.73,1.36,1.23a.35.35,0,0,1-.38.23h-3.83v5.46c0,.36.13.5.72.5h1.37a12.07,12.07,0,0,0,1.27,0,.37.37,0,0,0,.33-.19,18.68,18.68,0,0,0,.53-2.23h.18Z"/><path class="cls-7" d="M407.59,177a.41.41,0,0,1-.16-.16.46.46,0,0,1-.06-.18.31.31,0,0,1,0-.13l1.33-.87c.44-.27.78-.49,1-.63a3.45,3.45,0,0,1,.38-.22h0c.07,0,.12.08.16.25a5.15,5.15,0,0,0-.12,1.28v5.44a4.14,4.14,0,0,0,.11,1.1c0,.07.14.14.37.2a2.32,2.32,0,0,0,.47.1s0,.09,0,.27a.87.87,0,0,1,0,.19,6.34,6.34,0,0,0-.71,0c-.46,0-.79,0-1,0s-.55,0-1,0-.67,0-.71,0a.44.44,0,0,1-.05-.26c0-.14,0-.2.05-.2a2.23,2.23,0,0,0,.51-.11c.24-.06.36-.13.38-.19a3.13,3.13,0,0,0,.08-.8v-4.76a3.49,3.49,0,0,0,0-.51.48.48,0,0,0-.08-.23.14.14,0,0,0-.12,0,.3.3,0,0,0-.13,0l-.2.09-.2.11-.21.12Z"/><path class="cls-7" d="M416.62,174.71a2.57,2.57,0,0,1,1.93.84,2.85,2.85,0,0,1,.8,2,5,5,0,0,1-.44,2.08,5.89,5.89,0,0,1-1.15,1.76,9.84,9.84,0,0,1-1.53,1.31,8.6,8.6,0,0,1-1.66.88c-.08,0-.14-.07-.2-.18a.73.73,0,0,1-.08-.26,6.1,6.1,0,0,0,2-1.35,4.72,4.72,0,0,0,1.24-2.07c0-.11,0-.17,0-.2h0a1.21,1.21,0,0,1-.48.21,2.32,2.32,0,0,1-.64.11,2.51,2.51,0,0,1-2.49-2.49,2.6,2.6,0,0,1,.82-1.89A2.66,2.66,0,0,1,416.62,174.71Zm1.23,2.82a3.07,3.07,0,0,0-.36-1.57,1.09,1.09,0,0,0-1-.62,1,1,0,0,0-.84.49,2.57,2.57,0,0,0-.31,1.4,2.55,2.55,0,0,0,.36,1.43,1.23,1.23,0,0,0,1.1.54,1.18,1.18,0,0,0,.55-.14.73.73,0,0,0,.33-.35A4.18,4.18,0,0,0,417.85,177.53Z"/><path class="cls-7" d="M424.36,174.82a2.82,2.82,0,0,1,1.74.55,1.77,1.77,0,0,1,.72,1.48c0,.72-.5,1.39-1.5,2,0,0,0,0,0,0s0,0,0,0c.17.11.35.24.52.37s.36.31.56.51a2.69,2.69,0,0,1,.49.67,1.75,1.75,0,0,1,.18.75,2.17,2.17,0,0,1-.83,1.72,3,3,0,0,1-1.93.69,3,3,0,0,1-1.9-.59,2,2,0,0,1-.75-1.66,1.7,1.7,0,0,1,.14-.69,2.33,2.33,0,0,1,.29-.53,2.82,2.82,0,0,1,.46-.44c.21-.16.34-.26.41-.3l.38-.22a.07.07,0,0,0,0-.06s0,0,0,0l-.43-.34a4.56,4.56,0,0,1-.43-.44,2.15,2.15,0,0,1-.49-1.4,1.88,1.88,0,0,1,.73-1.49A2.48,2.48,0,0,1,424.36,174.82Zm0,8.23a1.12,1.12,0,0,0,.9-.38,1.43,1.43,0,0,0,.33-1c0-.64-.5-1.3-1.5-2l-.06,0a.31.31,0,0,0-.13-.05h-.06a1.89,1.89,0,0,0-.74,1.75,1.93,1.93,0,0,0,.37,1.18A1.08,1.08,0,0,0,424.36,183.05Zm0-7.62a.86.86,0,0,0-.72.36,1.71,1.71,0,0,0-.27,1,1.31,1.31,0,0,0,.23.72,2,2,0,0,0,.42.49l.54.39a.37.37,0,0,0,.14,0,.11.11,0,0,0,.08,0,1.75,1.75,0,0,0,.69-1.49,1.8,1.8,0,0,0-.3-1.07A.91.91,0,0,0,424.35,175.43Z"/><path class="cls-7" d="M430.6,174.93c2,0,3.08-.08,3.34-.13a.64.64,0,0,1,.1.38,2.31,2.31,0,0,1-.13.87c-.47,0-1,.08-1.71.1l-1.05,0a.16.16,0,0,0-.14.12c-.06.36-.17,1-.32,1.85a4.23,4.23,0,0,1,1.2-.15,2.87,2.87,0,0,1,1.94.75,2.28,2.28,0,0,1,.86,1.79,2.79,2.79,0,0,1-1,2.19,3.58,3.58,0,0,1-2.45.87,3,3,0,0,1-1.71-.44.67.67,0,0,1-.11-.39,1,1,0,0,1,.13-.52.44.44,0,0,1,.4-.21.49.49,0,0,1,.23.06.48.48,0,0,1,.19.11l.2.2a1.43,1.43,0,0,1,.16.18,1.46,1.46,0,0,0,1,.38,1.21,1.21,0,0,0,1-.53,2.3,2.3,0,0,0,.39-1.38,2.16,2.16,0,0,0-.46-1.4,1.57,1.57,0,0,0-1.29-.57,4.37,4.37,0,0,0-1.29.18.79.79,0,0,1-.25-.19c.06-.33.18-1.06.38-2.18S430.58,175.12,430.6,174.93Z"/><path class="cls-7" d="M452.17,179.64s.91.67,1.45,1.16a.34.34,0,0,1-.37.23h-4.82v3.29c0,.08-.37.35-1,.35h-.21V181h-6.4l-.11-.41h2.42v-4.25l1.35.55h2.74v-2.65h-3a12.28,12.28,0,0,1-3.37,3.28l-.18-.15a16.74,16.74,0,0,0,3.54-5.84l1.7.65a.52.52,0,0,1-.58.24,14.25,14.25,0,0,1-.83,1.42h6.45l.78-1s.87.63,1.44,1.15c0,.15-.18.22-.39.22h-4.33v2.65h2.19l.73-.92s.82.64,1.34,1.1c0,.14-.18.21-.38.21h-3.88v3.31h3Zm-4.93,1v-3.31h-2.91v3.31Z"/><path class="cls-7" d="M469,179.12c-.12.13-.34.17-.69.18-2.44,3.25-6,4.78-11.78,5.38l-.08-.25c4.88-.93,8.29-2.34,10.46-5.35h-4a12.5,12.5,0,0,1-1.43.91c2.68.63,2.12,2.63,1,2.06a4.06,4.06,0,0,0-1.48-1.8,17.29,17.29,0,0,1-3.65,1.52l-.11-.2a16,16,0,0,0,5.86-4.27,21.8,21.8,0,0,1-6.47,2l-.12-.23c4.08-1.11,7.13-2.66,9.15-5.17h-4.33a10.68,10.68,0,0,1-1.08.74c2.67.52,2.15,2.39,1.13,1.86a4.71,4.71,0,0,0-1.49-1.65,15.44,15.44,0,0,1-2.83,1.29L457,176a14.54,14.54,0,0,0,5-4.19l1.76.46c-.05.15-.24.24-.66.24-.32.32-.7.66-1.12,1h4l.67-.62L467.8,174c-.11.12-.34.15-.7.18a13,13,0,0,1-3.71,3l1.72.42c-.06.17-.25.26-.69.26-.28.26-.61.54-1,.82h3.64l.7-.66Z"/><path class="cls-7" d="M484.07,178.94c0,.18-.16.31-.49.36v4.9c0,.13-.49.34-.9.34h-.2v-1.12h-8.55l-.41.65-1.21-.82a2,2,0,0,1,.42-.33V178.7l1.66.15c0,.17-.16.3-.56.35V183h3.71v-5.44H474.6l-.39.6-1.2-.77a1.83,1.83,0,0,1,.42-.34v-4l1.64.17c0,.15-.15.28-.57.33v3.59h3v-5.32l1.64.18c0,.19-.16.33-.51.39v4.75h3.11v-4.08l1.59.17c0,.18-.14.31-.49.37V178c0,.1-.49.31-.9.31h-.2v-.74h-3.11V183h3.81v-4.24Z"/><path class="cls-7" d="M491.19,177a.34.34,0,0,1-.15-.16.38.38,0,0,1-.07-.18.19.19,0,0,1,0-.13c.44-.3.89-.59,1.32-.87s.78-.49,1-.63l.38-.22h0c.07,0,.13.08.16.25a5.15,5.15,0,0,0-.12,1.28v5.44a4.61,4.61,0,0,0,.11,1.1c0,.07.14.14.37.2a2.52,2.52,0,0,0,.48.1s0,.09,0,.27a.71.71,0,0,1,0,.19,6.06,6.06,0,0,0-.71,0c-.45,0-.79,0-1,0s-.55,0-1,0-.68,0-.71,0-.06-.12-.06-.26,0-.2.06-.2a2.08,2.08,0,0,0,.5-.11c.24-.06.37-.13.39-.19a3.66,3.66,0,0,0,.08-.8v-4.76a2.39,2.39,0,0,0,0-.51.51.51,0,0,0-.07-.23.17.17,0,0,0-.13,0,.34.34,0,0,0-.13,0l-.19.09-.2.11-.22.12Z"/><path class="cls-7" d="M498.16,177a.34.34,0,0,1-.15-.16.38.38,0,0,1-.07-.18.31.31,0,0,1,0-.13l1.33-.87c.44-.27.78-.49,1-.63a3.45,3.45,0,0,1,.38-.22h0c.07,0,.12.08.16.25a5.15,5.15,0,0,0-.12,1.28v5.44a4.14,4.14,0,0,0,.11,1.1c0,.07.14.14.37.2a2.32,2.32,0,0,0,.47.1s0,.09,0,.27a.87.87,0,0,1,0,.19,6.34,6.34,0,0,0-.71,0c-.46,0-.79,0-1,0s-.55,0-1,0-.67,0-.71,0a.44.44,0,0,1-.05-.26c0-.14,0-.2.05-.2a2.23,2.23,0,0,0,.51-.11c.24-.06.36-.13.38-.19a3.13,3.13,0,0,0,.08-.8v-4.76a3.49,3.49,0,0,0,0-.51.48.48,0,0,0-.08-.23.14.14,0,0,0-.12,0,.3.3,0,0,0-.13,0l-.2.09-.19.11-.22.12Z"/><path class="cls-7" d="M512.72,172.3c-.05.17-.21.28-.53.28a21.18,21.18,0,0,1-1.36,3l.56.21c0,.1-.17.19-.42.24v8.32a1.25,1.25,0,0,1-.91.36h-.19v-7.59a12,12,0,0,1-1.71,2l-.2-.14a23,23,0,0,0,3.07-7.17Zm7.09,4.54s.84.64,1.37,1.12a.34.34,0,0,1-.37.22h-9.08l-.11-.4H517a28.9,28.9,0,0,0,.78-3l1.68.56a.46.46,0,0,1-.51.28,18,18,0,0,1-1.62,2.18h1.72Zm-7.7-2.79h6.44l.73-.91s.85.63,1.36,1.09c0,.16-.17.23-.38.23h-8Zm6.72,5L520,180a.79.79,0,0,1-.52.26v4.05a1.34,1.34,0,0,1-.93.29h-.19v-.88H514v.67c0,.08-.33.31-.89.31h-.17v-5.44l1.23.51h4.12Zm-5.32-4.31c2.81,1.4,1.71,3.54.7,2.62a6.76,6.76,0,0,0-.86-2.55Zm4.82,8.49v-3.13H514v3.13ZM515,171.7c3,.74,2,2.92.93,2.11a3.78,3.78,0,0,0-1.08-2Z"/><path class="cls-7" d="M618.55,80.77a2,2,0,0,1,1.57.66,2.32,2.32,0,0,1,.61,1.64,3,3,0,0,1-.14.84,6.71,6.71,0,0,1-.3.8,5.17,5.17,0,0,1-.51.82c-.22.31-.42.56-.57.74s-.38.43-.69.74l-.63.64-.64.6a.06.06,0,0,0,0,.07s0,0,.06,0h2.49a.84.84,0,0,0,.53-.17,1,1,0,0,0,.29-.37,3.93,3.93,0,0,0,.19-.6c0-.08.1-.12.22-.12a.47.47,0,0,1,.28.07c-.26,1.21-.41,1.93-.45,2.17a.21.21,0,0,1-.22.21h-4.75c-.1-.06-.15-.2-.16-.44a20.62,20.62,0,0,0,2.44-3.1,5.41,5.41,0,0,0,1-2.68,1.69,1.69,0,0,0-.35-1.1,1.12,1.12,0,0,0-.91-.42,1.45,1.45,0,0,0-.35,0,2,2,0,0,0-.32.1,1.35,1.35,0,0,0-.26.15l-.22.17-.19.18a1.1,1.1,0,0,0-.13.17l-.11.15-.06.1a.37.37,0,0,1-.21-.09.26.26,0,0,1-.12-.19,3.28,3.28,0,0,1,.26-.47,3.9,3.9,0,0,1,.49-.59,2.25,2.25,0,0,1,.8-.54A2.5,2.5,0,0,1,618.55,80.77Z"/><path class="cls-7" d="M624.47,88.3a5.55,5.55,0,0,1,0-6.12,2.66,2.66,0,0,1,2.17-1.29,2.61,2.61,0,0,1,2.14,1.29,5.6,5.6,0,0,1,0,6.12,2.61,2.61,0,0,1-2.14,1.29A2.66,2.66,0,0,1,624.47,88.3Zm.67-3.07a7.24,7.24,0,0,0,.43,2.68c.3.72.65,1.08,1.08,1.08s.82-.36,1.08-1.08a8.22,8.22,0,0,0,.39-2.75,7.34,7.34,0,0,0-.41-2.65c-.27-.69-.62-1-1.06-1s-.81.35-1.09,1.06A7.37,7.37,0,0,0,625.14,85.23Z"/><path class="cls-7" d="M632.85,88.3a5.55,5.55,0,0,1,0-6.12A2.64,2.64,0,0,1,635,80.89a2.58,2.58,0,0,1,2.14,1.29,5.6,5.6,0,0,1,0,6.12A2.58,2.58,0,0,1,635,89.59,2.64,2.64,0,0,1,632.85,88.3Zm.66-3.07a7.22,7.22,0,0,0,.44,2.68Q634.39,89,635,89c.45,0,.81-.36,1.07-1.08a8.22,8.22,0,0,0,.39-2.75,7.36,7.36,0,0,0-.4-2.65c-.27-.69-.62-1-1.06-1s-.81.35-1.1,1.06A7.37,7.37,0,0,0,633.51,85.23Z"/><path class="cls-7" d="M641.74,82.11a.65.65,0,0,0-.31.08,1.14,1.14,0,0,0-.22.16.87.87,0,0,0-.17.29,1.47,1.47,0,0,0-.12.28,2.8,2.8,0,0,0-.11.31s-.09.07-.24.08a.5.5,0,0,1-.3,0q.47-2,.51-2.25a.22.22,0,0,1,.24-.17h4.55l.36,0c.07,0,.1,0,.1.11a3.71,3.71,0,0,1-.38.93L642,89.63a.21.21,0,0,1-.12,0,.53.53,0,0,1-.33-.14.38.38,0,0,1-.15-.27l3.55-7.14Z"/><path class="cls-7" d="M663.26,85.64s.91.67,1.45,1.16a.34.34,0,0,1-.37.23h-4.82v3.29c0,.08-.37.35-1,.35h-.21V87h-6.4l-.11-.41h2.42V82.37l1.35.55h2.74V80.27h-3a12.28,12.28,0,0,1-3.37,3.28l-.18-.15a16.74,16.74,0,0,0,3.54-5.84l1.69.65c-.07.16-.25.28-.57.24a14.25,14.25,0,0,1-.83,1.42H662l.78-1s.87.63,1.44,1.15c0,.15-.18.22-.39.22h-4.33v2.65h2.19l.73-.92s.82.64,1.34,1.1c0,.14-.18.21-.38.21h-3.88v3.31h3Zm-4.93,1V83.31h-2.91v3.31Z"/><path class="cls-7" d="M678.79,79.71s.85.72,1.36,1.24c0,.15-.18.22-.38.22h-3.91V89.1c0,.91-.19,1.46-1.82,1.61a1.16,1.16,0,0,0-.35-.85,2.54,2.54,0,0,0-1.36-.47v-.21s1.66.13,2,.13.36-.1.36-.31V82.46a17.27,17.27,0,0,1-7.35,6.67l-.14-.2a19,19,0,0,0,6.74-7.76h-6.43l-.13-.42h7.31v-3l1.71.17c0,.21-.18.35-.52.39v2.41H678Z"/><path class="cls-7" d="M694.16,79.08s.86.65,1.39,1.14c0,.15-.18.22-.38.22h-6.86a14.18,14.18,0,0,1-1.15,1.86l.29.12h4.72l.59-.69,1.36,1a1.08,1.08,0,0,1-.66.32v6.1c0,.84-.18,1.36-1.68,1.5a1.41,1.41,0,0,0-.32-.83,2.42,2.42,0,0,0-1.23-.42v-.21s1.47.1,1.78.1.32-.09.32-.3V87.15H687.1a5.6,5.6,0,0,1-2,3.56l-.17-.15A10,10,0,0,0,686.12,85V83.61A12.9,12.9,0,0,1,683,86.12l-.14-.17a14.86,14.86,0,0,0,4.22-5.51h-3.9L683,80h4.19a16.93,16.93,0,0,0,.81-2.32l1.71.51c-.06.15-.18.25-.56.24-.2.52-.42,1-.67,1.57h4.86Zm-1.83,7.66V85h-5.07a13.4,13.4,0,0,1-.1,1.75Zm-5.07-3.92v1.75h5.07V82.82Z"/><path class="cls-7" d="M706.91,77.71h4.35v.5h-3.81v8.56h-.54Z"/><path class="cls-7" d="M724.43,89l.84-1.06s1,.73,1.55,1.26c0,.15-.18.22-.39.22H713.9l-.13-.42Zm-.67-9.61.84-1s.92.7,1.5,1.21c0,.15-.19.22-.38.22H714.67l-.13-.41ZM722.52,84l.8-1s.93.69,1.47,1.18c0,.15-.16.22-.36.22h-8.77l-.11-.41Z"/><path class="cls-7" d="M740.91,84.36s.9.68,1.45,1.17c0,.15-.19.22-.39.22h-5.56V89c0,.87-.25,1.52-2,1.66a1.06,1.06,0,0,0-.44-.84,3.56,3.56,0,0,0-1.62-.46v-.22s2,.14,2.43.14.38-.09.38-.33V85.75h-5.91l-.12-.41h6v-2.7h-5l-.11-.42h5.15V79.71a46.05,46.05,0,0,1-5.14.31l0-.25a42.68,42.68,0,0,0,9.58-2L740.85,79c-.12.11-.4.12-.8,0-1,.22-2.28.45-3.64.61v2.65h3l.77-1s.86.66,1.41,1.15c0,.15-.18.22-.38.22h-4.79v2.7h3.7Z"/><path class="cls-7" d="M750.73,85.18a.78.78,0,0,1-.54.21c-.12,3-.35,4.3-.87,4.76a2,2,0,0,1-1.29.43,1,1,0,0,0-.18-.71,1.87,1.87,0,0,0-.81-.32v-.24c.34,0,.92.07,1.15.07a.59.59,0,0,0,.42-.11c.28-.28.47-1.49.56-4h-1.53A7.74,7.74,0,0,1,745,90.7l-.2-.17c1.68-2.3,1.85-5,1.91-7.53H745l-.11-.4h4.57l.68-.91s.78.63,1.25,1.09c0,.16-.17.22-.36.22h-3.21c0,.62-.06,1.25-.11,1.85h1.34l.56-.57Zm-5.78-6h2.67l-.18-1.39,1.53.13a.51.51,0,0,1-.41.39l.13.87h.81l.62-.84s.74.59,1.17,1a.33.33,0,0,1-.36.23h-2.19l.14,1a1.3,1.3,0,0,1-1,.32l-.17-1.33h-2.63Zm1.88,1.56c2.66.47,1.76,2.39.79,1.71a3.07,3.07,0,0,0-.92-1.62Zm8,.53c0,.15-.15.24-.49.26a8.15,8.15,0,0,0,3.46,3.35l0,.18a1.3,1.3,0,0,0-.7,1,9.88,9.88,0,0,1-2.92-4.39,9.58,9.58,0,0,1-3.55,4.5l-.11-.21a11.27,11.27,0,0,0,2.69-5.07Zm-3.22-2.09h1.67l.24-1.41,1.51.3c0,.19-.18.33-.55.34l-.12.77h1.45l.63-.84s.75.59,1.2,1a.35.35,0,0,1-.38.23h-3l-.18,1a1.41,1.41,0,0,1-1.08.11l.19-1.16h-1.5Zm.14,8.39c4.93.87,4.65,3.53,3.32,2.94a10.25,10.25,0,0,0-3.43-2.78Zm.86-2.76c3.19.48,2.45,2.79,1.31,2.09a3.79,3.79,0,0,0-1.44-2Z"/><path class="cls-7" d="M764.56,90.74h-4.34v-.51H764V81.67h.53Z"/><path class="cls-7" d="M781.86,80.64a1.33,1.33,0,0,1-.61.29v8.5a1.36,1.36,0,0,1-.91.37h-.15V88.72h-2.72v1.12c0,.13-.41.39-.85.39h-.2V79.8l1.12.52h.37c.14-.72.33-1.78.46-2.53l1.69.4c0,.19-.24.3-.53.3-.31.54-.74,1.25-1.12,1.83h1.64l.57-.66Zm-4.39.08v3.49h2.72V80.72Zm2.72,7.59V84.62h-2.72v3.69Zm8.49-7.67a1,1,0,0,1-.61.24c-.09,5.31-.33,8.26-1,9.07a2.15,2.15,0,0,1-1.75.7,1,1,0,0,0-.28-.84,3.68,3.68,0,0,0-1.42-.47V89.1c.66.07,1.64.15,2,.15s.4,0,.52-.19c.53-.49.73-3.58.81-8.35h-3.18a11.13,11.13,0,0,1-2.13,2.94l-.19-.13a19.05,19.05,0,0,0,2.14-5.73l1.66.47a.51.51,0,0,1-.52.29c-.23.62-.48,1.19-.75,1.75h2.83l.66-.71Zm-5.87,2.53c3.56,1.43,2.56,3.93,1.41,3a6.47,6.47,0,0,0-1.55-2.9Z"/><path class="cls-7" d="M796.58,86.07s.75.59,1.21,1c0,.15-.17.22-.37.22h-2.56v2.93c0,.07-.35.29-.88.29h-.18V87.32h-2.57l-.11-.41h2.68V85.05h-2.15l-.11-.42h3.08a19.84,19.84,0,0,0,.72-2.59l1.55.43c0,.17-.22.28-.52.27A13.08,13.08,0,0,1,795,84.63h.54l.59-.77a14.22,14.22,0,0,1,1.11,1c0,.15-.15.22-.35.22h-2.06v1.86h1.07Zm-2.8-4.62V79.63h-1.86l-.11-.41h2v-1.5l1.47.16c0,.18-.14.31-.46.36v1h.64l.55-.73s.66.52,1.07.92c0,.15-.17.22-.37.22h-1.89v1.82H796l.61-.74s.67.52,1.07.92c0,.16-.16.23-.35.23h-5.89l-.12-.41Zm-1.53.67c2.51,1.14,1.45,3,.56,2.16a5.38,5.38,0,0,0-.7-2.1Zm11.69,1.6c-.1.13-.21.17-.52.2a11.53,11.53,0,0,1-1.46,4,7.77,7.77,0,0,0,2.35,1.69l0,.14a1.18,1.18,0,0,0-1,.82,8.43,8.43,0,0,1-1.93-1.84,7.94,7.94,0,0,1-2.37,2l-.14-.18A7.87,7.87,0,0,0,801,88.05a11.4,11.4,0,0,1-1.5-4.26h-.57v6.53c0,.08-.34.33-.87.33h-.17V78l1.22.56H802l.55-.56,1.09.88a.88.88,0,0,1-.53.21c0,1.95-.16,2.81-.56,3.13a1.92,1.92,0,0,1-1.22.33.69.69,0,0,0-.2-.6,2.12,2.12,0,0,0-.9-.31v-.21c.41,0,1.06.07,1.28.07a.46.46,0,0,0,.35-.09,6.29,6.29,0,0,0,.27-2.44h-3.21v4.38h3.35l.58-.61Zm-4.18.07a8.82,8.82,0,0,0,1.63,3.43,13.5,13.5,0,0,0,1-3.43Z"/><path class="cls-7" d="M818.5,86.53s.72.57,1.19,1c0,.15-.17.22-.37.22h-3v1.48c0,.85-.2,1.34-1.78,1.48a1,1,0,0,0-.35-.75,4,4,0,0,0-1.44-.39v-.21s1.79.11,2.13.11.35-.07.35-.26V87.74h-8.32l-.13-.41h8.45v-1l1.57.15c0,.2-.17.3-.48.35v.49h1.51Zm-11.6-1.26c.59-.26,1.44-.77,1.86-.93A5.69,5.69,0,0,0,810,82.42h-1.09l-.44.35-.88-.77a2,2,0,0,1,.57-.24c.31-.42.72-1,1-1.47h-2l-.13-.42h2.23l.53-.55,1.11,1a1.22,1.22,0,0,1-.76.23c-.28.42-.68,1-1,1.48H810l.61-.55,1,.84c-.1.12-.24.16-.55.16a5.09,5.09,0,0,1-1.67,1.88.29.29,0,0,1,.13,0c1,.72,2.65.86,5.38.86,1.61,0,3.08,0,4.73-.07v.18a.92.92,0,0,0-.77.83h-4.3c-2.83,0-4.06-.37-5.18-1.36-.21-.19-.36-.16-.5,0a14.41,14.41,0,0,0-1.06,1.26.23.23,0,0,1-.11.28Zm.59-7.24c2.85-.32,2.73,1.67,1.66,1.39a4.57,4.57,0,0,0-1.78-1.23Zm2.1,10c3.46.21,2.88,2.47,1.68,1.92a6.2,6.2,0,0,0-1.79-1.78Zm1.09-8.66h2.58l0,0a2.38,2.38,0,0,0-.89-1.39l.14-.1c1.84.17,1.94,1.18,1.49,1.51h1.73a14.33,14.33,0,0,0,.61-1.58l1.57.44c-.06.15-.24.26-.54.23a6.18,6.18,0,0,1-1.2.91h1.5l.64-.79s.76.56,1.22,1c0,.15-.17.22-.36.22h-3.59c-.24.31-.5.63-.74.9h2.11l.58-.59,1.19.91a1.12,1.12,0,0,1-.56.27v3.4a1.39,1.39,0,0,1-.88.32h-.19v-.43h-4.24v.11c0,.11-.46.34-.9.34h-.15V80.16l1.12.48h1.22c.08-.28.15-.6.21-.9h-3.52Zm2.13,1.73v.73h4.24v-.73Zm0,1.88h4.24v-.73h-4.24Zm4.24,1.17v-.75h-4.24v.75Z"/><path class="cls-7" d="M628.24,110.94c0,.18-.15.31-.49.36v4.9c0,.13-.49.34-.9.34h-.19v-1.12H618.1l-.41.65-1.2-.82a1.81,1.81,0,0,1,.42-.33V110.7l1.65.15c0,.17-.15.3-.56.35V115h3.71v-5.44h-2.94l-.39.6-1.19-.77a1.64,1.64,0,0,1,.42-.34v-4l1.64.17c0,.15-.16.28-.58.33v3.59h3v-5.32l1.64.18c0,.19-.15.33-.5.39v4.75H626v-4.08l1.58.17c0,.18-.14.31-.49.37V110c0,.1-.49.31-.9.31H626v-.74h-3.11V115h3.81v-4.24Z"/><path class="cls-7" d="M636.54,112.38c-1,.57-2.49,1.4-4.48,2.37a.48.48,0,0,1-.31.35l-.53-1.35c.42-.09,1.16-.29,2-.57v-3.77h-1.62l-.1-.41h1.72v-3.51h-1.72l-.11-.41h3.31l.71-.92s.78.66,1.27,1.11c0,.15-.16.22-.37.22h-2V109h.42l.61-.88s.68.63,1.08,1.08a.34.34,0,0,1-.36.21h-1.75v3.45l2.1-.67Zm7.59,2.9c.31.13.35.27.35.48,0,.43-.41.67-2,.67h-.95c-1,0-1.12-.24-1.12-1v-3.64h-.9c-.39,2.82-1.85,4.19-5.31,4.89l-.07-.21c2.87-1,3.9-2.3,4.16-4.68H638v.41c0,.11-.44.39-.92.39h-.17v-8.4l1.16.53H642l.6-.69,1.28,1a1.19,1.19,0,0,1-.62.29v6.73a1.47,1.47,0,0,1-.94.35h-.18v-.62h-.59v3.38c0,.18,0,.22.34.22h1.36c.12,0,.17,0,.22-.17a17.8,17.8,0,0,0,.45-1.83h.17ZM638,105.11v1.78h4.12v-1.78Zm4.12,2.19H638v1.82h4.12ZM638,111.39h4.12v-1.88H638Z"/><path class="cls-7" d="M653,109.76a1.28,1.28,0,0,1-.62-1,.93.93,0,0,1,.95-1,1.15,1.15,0,0,1,.85.35,1.89,1.89,0,0,1,.16.9,3.63,3.63,0,0,1-1.77,3l-.28-.45a4.08,4.08,0,0,0,1.11-1.58Z"/><path class="cls-7" d="M665.46,113.6c1.19,1.23,2.75,1.48,5.45,1.48,1.56,0,2.8,0,4.39-.08v.18a1.12,1.12,0,0,0-.87,1H670.5c-2.74,0-4-.52-5.25-2.2-.19-.25-.33-.21-.49,0-.29.45-1,1.43-1.46,2.15a.27.27,0,0,1-.09.32l-1-1.33a18.69,18.69,0,0,1,2.68-1.78h.1a22,22,0,0,0,7-5.83h-8.91l-.13-.42h9.16l.79-.68,1.16,1.09c-.11.14-.27.18-.65.19a19.88,19.88,0,0,1-8.08,5.8Zm1.37-9.82c3.62,1.11,2.69,3.68,1.49,2.82a5.7,5.7,0,0,0-1.63-2.71Z"/><path class="cls-7" d="M682.39,107.3c-.09.14-.21.21-.55.16a16.14,16.14,0,0,1-1.26,1.63l.6.22c0,.13-.19.21-.43.26v6.73a1.15,1.15,0,0,1-.88.38h-.21v-6.6a14.43,14.43,0,0,1-1.8,1.53l-.16-.15a19.68,19.68,0,0,0,3.15-5Zm-.28-2.71c-.09.14-.21.21-.55.14a14.54,14.54,0,0,1-3.57,2.85l-.15-.17a14.76,14.76,0,0,0,2.83-3.63Zm7.86,7.2c-.1.13-.27.16-.61.18a7.93,7.93,0,0,1-2.25,2.51,15.83,15.83,0,0,0,3.65,1v.15a1.31,1.31,0,0,0-1,1,12.89,12.89,0,0,1-3.67-1.53,14.24,14.24,0,0,1-4.59,1.51l-.07-.21a13.62,13.62,0,0,0,4-1.78,8.64,8.64,0,0,1-1.55-1.59,9.45,9.45,0,0,1-2.12,1.5l-.18-.19a10,10,0,0,0,1.84-2,6.1,6.1,0,0,1-.55-1.15l.19-.14a6,6,0,0,0,.59.94,12.12,12.12,0,0,0,.9-1.66l-1.7.23a.84.84,0,0,1-.35.26l-.51-1.45a2.28,2.28,0,0,0,.53-.12,19,19,0,0,0,3.26-2c-.77.14-1.69.31-2.69.45a.72.72,0,0,1-.33.34l-.56-1.4a2.76,2.76,0,0,0,.4-.1,11.31,11.31,0,0,0,3.27-2.89l1.4.84a.46.46,0,0,1-.55.16,17.41,17.41,0,0,1-3.46,2.11c.84,0,2,0,3.17,0a17.92,17.92,0,0,0,2.1-1.88L689.8,106a.52.52,0,0,1-.59,0,30.11,30.11,0,0,1-6.14,3.48c1.38,0,3.58-.11,5.93-.23a10,10,0,0,0-1.16-1.43l.15-.11c3.6,1.39,2.79,3.71,1.7,2.93a4.27,4.27,0,0,0-.49-1.08c-1.07.18-2.46.41-4,.63l1,.39a.48.48,0,0,1-.54.23l-.34.52h2.76l.76-.66Zm-5,0c-.24.33-.5.62-.74.89a7.66,7.66,0,0,0,1.93,1.38,7.3,7.3,0,0,0,1.82-2.27Z"/><path class="cls-7" d="M699.44,106.64a1.28,1.28,0,0,1-.6.29v8.5a1.38,1.38,0,0,1-.91.37h-.16v-1.08h-2.71v1.12c0,.13-.41.39-.86.39H694V105.8l1.12.52h.36c.14-.72.34-1.78.46-2.53l1.7.4c-.06.19-.24.3-.53.3-.31.54-.75,1.25-1.12,1.83h1.63l.58-.66Zm-4.38.08v3.49h2.71v-3.49Zm2.71,7.59v-3.69h-2.71v3.69Zm8.49-7.67a1,1,0,0,1-.6.24c-.1,5.31-.34,8.26-1,9.07a2.14,2.14,0,0,1-1.75.7,1,1,0,0,0-.28-.84,3.62,3.62,0,0,0-1.41-.47v-.24c.66.07,1.64.15,2,.15a.56.56,0,0,0,.52-.19c.53-.49.73-3.58.81-8.35h-3.18a11.13,11.13,0,0,1-2.13,2.94l-.19-.13a19.32,19.32,0,0,0,2.14-5.73l1.65.47a.5.5,0,0,1-.52.29,17.34,17.34,0,0,1-.74,1.75h2.83l.66-.71Zm-5.87,2.53c3.56,1.43,2.57,3.93,1.42,3a6.39,6.39,0,0,0-1.56-2.9Z"/><path class="cls-7" d="M714.17,112.07s.74.59,1.2,1c0,.15-.16.22-.36.22h-2.56v2.93c0,.07-.35.29-.89.29h-.18v-3.22h-2.56l-.11-.41h2.67v-1.86h-2.14l-.11-.42h3.08a19.75,19.75,0,0,0,.71-2.59l1.56.43c-.06.17-.23.28-.52.27a12.46,12.46,0,0,1-1.35,1.89h.55l.59-.77a14.22,14.22,0,0,1,1.11,1,.32.32,0,0,1-.35.22h-2.06v1.86h1.06Zm-2.8-4.62v-1.82H709.5l-.11-.41h2v-1.5l1.47.16c0,.18-.14.31-.46.36v1H713l.55-.73s.65.52,1.06.92c0,.15-.17.22-.36.22h-1.89v1.82h1.16l.6-.74s.67.52,1.08.92c0,.16-.17.23-.35.23H709l-.11-.41Zm-1.53.67c2.51,1.14,1.44,3,.56,2.16a5.73,5.73,0,0,0-.7-2.1Zm11.68,1.6c-.09.13-.21.17-.52.2a11.72,11.72,0,0,1-1.45,4,7.65,7.65,0,0,0,2.35,1.69l0,.14a1.16,1.16,0,0,0-1,.82,8.23,8.23,0,0,1-1.93-1.84,7.94,7.94,0,0,1-2.37,2l-.14-.18a8,8,0,0,0,2.09-2.45,11.4,11.4,0,0,1-1.5-4.26h-.58v6.53c0,.08-.33.33-.86.33h-.17V104l1.22.56h2.9l.54-.56,1.1.88a.91.91,0,0,1-.54.21c0,1.95-.15,2.81-.56,3.13a1.88,1.88,0,0,1-1.22.33c0-.26,0-.47-.19-.6a2.17,2.17,0,0,0-.9-.31v-.21c.41,0,1.05.07,1.28.07a.46.46,0,0,0,.35-.09,6.41,6.41,0,0,0,.26-2.44h-3.21v4.38h3.35l.59-.61Zm-4.17.07a8.8,8.8,0,0,0,1.62,3.43,13.51,13.51,0,0,0,1-3.43Z"/><path class="cls-7" d="M736.08,112.53s.73.57,1.19,1c0,.15-.17.22-.36.22h-3v1.48c0,.85-.2,1.34-1.78,1.48a1,1,0,0,0-.35-.75,4,4,0,0,0-1.45-.39v-.21s1.8.11,2.13.11.35-.07.35-.26v-1.46h-8.32l-.12-.41h8.44v-1l1.57.15c0,.2-.17.3-.47.35v.49h1.51Zm-11.6-1.26c.59-.26,1.45-.77,1.87-.93a5.85,5.85,0,0,0,1.22-1.92h-1.1l-.43.35-.88-.77a2,2,0,0,1,.57-.24c.31-.42.72-1,1-1.47h-2l-.13-.42h2.23l.53-.55,1.11,1a1.22,1.22,0,0,1-.76.23c-.28.42-.69,1-1,1.48h.87l.62-.55,1,.84c-.1.12-.24.16-.54.16a5.19,5.19,0,0,1-1.67,1.88.43.43,0,0,1,.13,0c1,.72,2.64.86,5.37.86,1.62,0,3.09,0,4.74-.07v.18a.92.92,0,0,0-.77.83h-4.3c-2.83,0-4.06-.37-5.18-1.36-.21-.19-.37-.16-.51,0a14.5,14.5,0,0,0-1,1.26.23.23,0,0,1-.11.28Zm.59-7.24c2.86-.32,2.73,1.67,1.67,1.39a4.65,4.65,0,0,0-1.78-1.23Zm2.1,10c3.46.21,2.89,2.47,1.68,1.92a6.2,6.2,0,0,0-1.79-1.78Zm1.1-8.66h2.57l0,0a2.36,2.36,0,0,0-.88-1.39l.14-.1c1.83.17,1.93,1.18,1.48,1.51h1.74a14.28,14.28,0,0,0,.6-1.58l1.57.44c-.05.15-.24.26-.53.23a6.86,6.86,0,0,1-1.2.91h1.49l.65-.79s.75.56,1.22,1c0,.15-.17.22-.37.22h-3.58c-.24.31-.51.63-.75.9h2.12l.57-.59,1.19.91a1.07,1.07,0,0,1-.56.27v3.4c0,.1-.53.32-.88.32h-.18v-.43H730.4v.11c0,.11-.47.34-.9.34h-.15v-4.81l1.12.48h1.21a6.55,6.55,0,0,0,.21-.9h-3.51Zm2.13,1.73v.73h4.24v-.73Zm0,1.88h4.24v-.73H730.4Zm4.24,1.17v-.75H730.4v.75Z"/><path class="cls-7" d="M740.81,106.9h-.88l-.12-.4h1v-1.87l1.13.48h1.12v-1.34l1.52.15c-.05.2-.17.34-.52.39v.8h1.17l.51-.53,1.08.83a1.07,1.07,0,0,1-.49.23v.86h.18l.52-.69a12.77,12.77,0,0,1,1,.87c0,.15-.16.22-.35.22h-1.31v1.39a1.29,1.29,0,0,1-.82.31h-.15v-.31h-1.3v.91h1.39l.49-.49,1,.77a.86.86,0,0,1-.45.23v1.59c0,.1-.49.31-.8.31h-.16v-.39h-4v.18a1,1,0,0,1-.8.31h-.15v-3l1.11.46h1.35v-.91h-1.3v.07a.91.91,0,0,1-.78.31h-.17Zm6.57,5.76-1.71.21a3.91,3.91,0,0,1-.9,1.64c2.15.7,1.61,1.85.77,1.61a7.93,7.93,0,0,0-1.66-.85,10.33,10.33,0,0,1-3.8,1.34l-.1-.21a9,9,0,0,0,3.24-1.39,21,21,0,0,0-2.37-.72,7.73,7.73,0,0,0,.5-1l-.65.07a.61.61,0,0,1-.38.28l-.38-1.16h1.79a8.37,8.37,0,0,0,.49-1.24l1.47.28c0,.19-.15.31-.57.33-.08.18-.18.39-.29.6l2,0a5,5,0,0,0,.11-.88l1.45.35c-.06.2-.24.29-.54.29l0,.21,1.58,0Zm-5.83-1.86h1.51v-1.19h-1.51Zm.21-4.3h1.3v-1h-1.3Zm1.3,1.37v-1h-1.3v1Zm-.58,5.34c-.14.29-.3.59-.44.87a14.45,14.45,0,0,1,1.91.22,3.77,3.77,0,0,0,.71-1.32C744,113.05,743.27,113.14,742.48,113.21Zm1.58-7.69v1h1.3v-1Zm1.3,1.38h-1.3v1h1.3Zm-1.3,2.71v1.19h1.5v-1.19Zm7.87-2.36a14.42,14.42,0,0,1-1.72,5.73,8.28,8.28,0,0,0,2.74,2.75l0,.13a1.12,1.12,0,0,0-1,.81,8.24,8.24,0,0,1-2.26-2.87,10.23,10.23,0,0,1-3.58,2.9l-.13-.19a10.35,10.35,0,0,0,3.31-3.67,18,18,0,0,1-1-4.28,9.64,9.64,0,0,1-1.2,1.79l-.2-.13a21.22,21.22,0,0,0,1.7-6.43l1.65.37c0,.19-.2.32-.49.33a22.49,22.49,0,0,1-.7,2.36h1.9l.69-.91s.81.63,1.29,1.09a.33.33,0,0,1-.36.22Zm-3.11,0c-.11.28-.22.56-.35.82a15.79,15.79,0,0,0,1.19,3.89,15.31,15.31,0,0,0,1.05-4.71Z"/><path class="cls-7" d="M767.61,114.94c.51.16.66.28.66.54,0,.67-.81.81-5,.81h-3c-1.93,0-2.65-.25-2.65-1.58v-5.58l-2.1.55-.24-.37,2.34-.6v-3.6l1.64.2c0,.18-.17.33-.52.38v2.73l2.8-.72v-3.93l1.64.18c0,.19-.15.33-.52.39v3.07l2.64-.69h-.07L766,106l1.17,1.25a.85.85,0,0,1-.56.18,21.82,21.82,0,0,1-1.9,5.64l-.17-.11a41.75,41.75,0,0,0,.77-5.8l-2.61.69v5.46c0,.13-.49.38-.91.38h-.21v-5.55l-2.8.72v5.64c0,.55.28.74,1.47.74h3.08c1.35,0,2.33,0,2.76-.07a.63.63,0,0,0,.58-.28,11.13,11.13,0,0,0,.75-2.28h.17Z"/><path class="cls-7" d="M775.73,105.11s.45.37.84.73a17.43,17.43,0,0,0,.75-1.6l1.42.69c-.09.15-.24.21-.59.15a17.54,17.54,0,0,1-2.18,3.27h.77l.67-.84s.74.58,1.2,1c0,.16-.18.23-.38.23H775.6a19.85,19.85,0,0,1-1.6,1.57h2l.56-.62,1.22.92a1,1,0,0,1-.59.28v5.13a1.51,1.51,0,0,1-.88.32h-.17v-1h-2.77v.88c0,.09-.35.35-.88.35h-.16v-5a15.51,15.51,0,0,1-1.6.92l-.15-.18a17.15,17.15,0,0,0,1.75-1.29v-1.18l.88.37a18.65,18.65,0,0,0,1.35-1.47h-3.7l-.11-.42h2.65v-2h-2.13l-.12-.4h2.25v-2.12L775,104c0,.2-.16.34-.52.4V106h.63Zm-2.2,5.62-.14.11v1.78h2.77v-1.89Zm2.63,4.21V113h-2.77v1.91Zm-1.25-6.59a18.28,18.28,0,0,0,1.35-2h-1.78v2Zm9.05-2.93c-.11.13-.3.15-.63.17a37.21,37.21,0,0,1-2.1,3.53,4.42,4.42,0,0,1,2.3,3.57c0,1.37-.55,2.1-2.1,2.16a1.79,1.79,0,0,0-.18-.89,2,2,0,0,0-.8-.25v-.22h1.22a.86.86,0,0,0,.36-.07c.25-.14.41-.44.41-1a4.46,4.46,0,0,0-1.57-3.26c.36-1,.92-2.69,1.24-3.87h-2.17v11a1,1,0,0,1-.89.37h-.19V104.26l1.27.63h2l.64-.65Z"/><path class="cls-7" d="M794.17,105.45a14.51,14.51,0,0,1-1.12,2.13l.74.28c0,.12-.19.22-.44.26v8.27a1.42,1.42,0,0,1-.92.31h-.21v-7.86a20,20,0,0,1-5.84,5.33l-.16-.16a20.33,20.33,0,0,0,6.45-8.56h-6.11l-.13-.42h10.42l.82-1s.92.7,1.5,1.2c0,.16-.19.23-.4.23Zm-.06,3.49c6,2,5.6,5,4.15,4.27a15.84,15.84,0,0,0-4.28-4.14Z"/><path class="cls-7" d="M814.66,111.12c-.11.13-.33.17-.68.18-2.44,3.25-6,4.78-11.78,5.38l-.09-.25c4.89-.93,8.3-2.34,10.47-5.35h-4a12.5,12.5,0,0,1-1.43.91c2.67.63,2.11,2.63,1,2.06a4.16,4.16,0,0,0-1.49-1.8,17.2,17.2,0,0,1-3.64,1.52l-.11-.2a16,16,0,0,0,5.86-4.27,21.78,21.78,0,0,1-6.48,2l-.11-.23c4.08-1.11,7.13-2.66,9.15-5.17H807a12,12,0,0,1-1.08.74c2.66.52,2.15,2.39,1.12,1.86a4.58,4.58,0,0,0-1.48-1.65,15.44,15.44,0,0,1-2.83,1.29l-.13-.18a14.4,14.4,0,0,0,5-4.19l1.77.46c-.06.15-.24.24-.66.24-.32.32-.7.66-1.12,1h4l.67-.62,1.21,1.07c-.12.12-.34.15-.7.18a12.91,12.91,0,0,1-3.72,3l1.73.42c-.06.17-.26.26-.69.26-.28.26-.62.54-1,.82h3.64l.7-.66Z"/><path class="cls-8" d="M241.42,257.33v14.41c0,.11-.41.41-1,.41h-.22v-4.41c-.94.51-2.12,1.15-3.58,1.84a.66.66,0,0,1-.43.43l-.62-1.67,1.14-.24V257.33h-1l-.15-.52h5l.88-1.1s1,.76,1.62,1.34c0,.19-.22.28-.47.28Zm-1.26,0h-2.27v3h2.27Zm0,3.5h-2.27V264h2.27Zm-2.27,7,2.27-.55V264.5h-2.27Zm7.38-4.07,1.79.2c0,.24-.17.4-.6.45v2.29c0,2.07-.68,4.21-4.17,5.47l-.2-.23a5.21,5.21,0,0,0,3.08-3.89h-1.43l-.46.68-1.32-.9a2.72,2.72,0,0,1,.5-.39v-3.31l1.9.16c0,.21-.18.38-.74.45v2.79h1.62c0-.29,0-.58,0-.85ZM242,259.26a1.63,1.63,0,0,0,.36-.14,12.32,12.32,0,0,0,2-3.77l1.64.8a.57.57,0,0,1-.61.29,21.93,21.93,0,0,1-2.4,2.88h1.79a15.36,15.36,0,0,0,1.06-2l1.47,1.07a.61.61,0,0,1-.68.16,22.55,22.55,0,0,1-3.53,3.89c.74,0,1.69-.09,2.67-.17a7.31,7.31,0,0,0-.6-1.51l.24-.09c2.57,1.69,1.45,3.66.55,2.79a3.68,3.68,0,0,0-.09-.79c-.81.24-2,.61-3.2.88a.56.56,0,0,1-.22.13l-.45-1.3a1.24,1.24,0,0,0,.42-.14,12.79,12.79,0,0,0,1.92-2.32l-1.56.43a.78.78,0,0,1-.24.16Zm8.29,1.41c2.77,1.65,1.71,3.67.77,2.81a3.6,3.6,0,0,0-.16-.82c-.81.24-2.11.62-3.3.91a.35.35,0,0,1-.2.1l-.45-1.28a1.92,1.92,0,0,0,.4-.14,13.44,13.44,0,0,0,1.87-2.39l-1.73.45a.75.75,0,0,1-.27.19l-.52-1.27a2.24,2.24,0,0,0,.33-.15,11.5,11.5,0,0,0,1.9-3.76l1.68.79a.62.62,0,0,1-.65.27,19.68,19.68,0,0,1-2.25,2.86c.52,0,1.19,0,1.87,0a13.42,13.42,0,0,0,1-1.87l1.47,1a.59.59,0,0,1-.64.18,22.86,22.86,0,0,1-3.33,3.85c.72,0,1.71-.09,2.75-.16a8.06,8.06,0,0,0-.74-1.5Zm1.85,3.8c0,.23-.2.39-.63.45v3.65c0,.14-.5.36-.92.36h-.21V268h-1.66v3.69c0,.15-.52.4-1,.4h-.24v-8.39l1.88.2c0,.25-.2.43-.67.5v3.08h1.66v-3.23Z"/><path class="cls-8" d="M265.22,256c-.06.22-.29.31-.76.34,1.6,2.27,4.65,4,7.71,5.14l0,.25a1.71,1.71,0,0,0-1.24,1.24,14.53,14.53,0,0,1-6.77-6.39,21.2,21.2,0,0,1-8.72,7.06l-.12-.26c3.06-1.74,6.6-5.38,7.52-7.95Zm2.86,8.56,1.67,1.29a1.38,1.38,0,0,1-.77.36v5.31a2.32,2.32,0,0,1-1.26.42h-.23v-1.23H260v.9c0,.13-.65.47-1.26.47h-.24v-7.36l1.61.7h7.2Zm-1.73-3.64s1.06.83,1.73,1.44c-.05.2-.23.27-.49.27h-8l-.15-.51h5.93Zm1.14,9.27v-4.25H260v4.25Z"/><path class="cls-8" d="M282,266.19s1,.76,1.55,1.32a.43.43,0,0,1-.47.29h-3.3v3.76a1.41,1.41,0,0,1-1.13.38h-.23V267.8h-3.3l-.14-.53h3.44v-2.39h-2.76l-.14-.54h4a25.27,25.27,0,0,0,.92-3.33l2,.56a.6.6,0,0,1-.67.34,17.31,17.31,0,0,1-1.73,2.43h.7l.76-1a16.7,16.7,0,0,1,1.42,1.24c-.05.2-.2.29-.45.29h-2.65v2.39h1.37Zm-3.6-5.94v-2.34H276l-.14-.52h2.54v-1.93l1.89.2c0,.23-.18.4-.6.47v1.26h.83l.7-.94s.85.67,1.37,1.17c0,.2-.21.29-.46.29h-2.44v2.34h1.5l.77-.95a15.74,15.74,0,0,1,1.39,1.19c0,.19-.22.28-.45.28h-7.58l-.14-.52Zm-2,.87c3.22,1.45,1.85,3.83.72,2.77a7.49,7.49,0,0,0-.9-2.7Zm15,2.05c-.12.16-.27.21-.66.25a14.86,14.86,0,0,1-1.88,5.1,10.3,10.3,0,0,0,3,2.18l0,.17a1.48,1.48,0,0,0-1.22,1.05,10.73,10.73,0,0,1-2.49-2.36,10.17,10.17,0,0,1-3,2.56l-.18-.24a10.08,10.08,0,0,0,2.68-3.15,14.71,14.71,0,0,1-1.92-5.47H285v8.39c0,.11-.43.43-1.12.43h-.21V255.86l1.56.72H289l.7-.72,1.41,1.13a1.15,1.15,0,0,1-.69.27c0,2.51-.2,3.6-.72,4a2.49,2.49,0,0,1-1.56.43.87.87,0,0,0-.26-.77,2.66,2.66,0,0,0-1.15-.4v-.27c.52,0,1.35.09,1.64.09a.59.59,0,0,0,.45-.13c.22-.21.29-1.17.34-3.13H285v5.64h4.3l.76-.8Zm-5.36.09a11.15,11.15,0,0,0,2.09,4.41,17.14,17.14,0,0,0,1.22-4.41Z"/><path class="cls-8" d="M301.92,268.05c-.11.18-.27.25-.69.16a17.22,17.22,0,0,1-5.61,3.22l-.18-.23a17.41,17.41,0,0,0,4.77-4.2Zm5-11.43c-.16.19-.47.21-1,.07a49.44,49.44,0,0,1-9.6,2.91l-.09-.3a40.64,40.64,0,0,0,9-3.91Zm.29,6.08c4.39,2.09,3.19,5.19,1.8,4a5.39,5.39,0,0,0-.43-1.45c-1.12.18-2.49.37-4,.61v4.37c0,1.05-.27,1.71-2.09,1.88a1.61,1.61,0,0,0-.32-1,3.05,3.05,0,0,0-1.5-.46v-.27s1.68.1,2.06.1.38-.07.38-.3v-4.14l-4.78.63a.9.9,0,0,1-.43.45l-.84-1.71a3.93,3.93,0,0,0,.68-.15,30.64,30.64,0,0,0,5.4-3.06c-1.26.27-2.81.58-4.5.87a.85.85,0,0,1-.34.36l-.81-1.63a2,2,0,0,0,.54-.12,18.51,18.51,0,0,0,5.4-4l1.67,1.05a.61.61,0,0,1-.73.18,29.83,29.83,0,0,1-5.24,2.9c1.29-.07,3.06-.18,4.91-.31a23.13,23.13,0,0,0,2.63-2.18l1.67,1.26a.64.64,0,0,1-.77.11,47.43,47.43,0,0,1-8.71,4.72c2.19-.11,5.74-.36,9.54-.63a10.35,10.35,0,0,0-1.39-2.05Zm-1.37,4.38c6.34,1.53,5.87,5,4.12,4.21a14.31,14.31,0,0,0-4.28-4Z"/><path class="cls-8" d="M321.63,266.19s.95.76,1.55,1.32a.43.43,0,0,1-.47.29h-3.3v3.76a1.41,1.41,0,0,1-1.13.38h-.23V267.8h-3.3l-.14-.53h3.44v-2.39h-2.76l-.14-.54h4A25.27,25.27,0,0,0,320,261l2,.56a.6.6,0,0,1-.67.34,15.81,15.81,0,0,1-1.73,2.43h.7l.76-1a16.7,16.7,0,0,1,1.42,1.24c-.05.2-.2.29-.45.29h-2.65v2.39h1.37Zm-3.6-5.94v-2.34h-2.4l-.14-.52H318v-1.93l1.89.2c0,.23-.18.4-.6.47v1.26h.83l.71-.94s.84.67,1.36,1.17c0,.2-.21.29-.46.29h-2.44v2.34h1.5l.77-.95a15.74,15.74,0,0,1,1.39,1.19c0,.19-.22.28-.45.28H315l-.14-.52Zm-2,.87c3.22,1.45,1.85,3.83.72,2.77a7.49,7.49,0,0,0-.9-2.7Zm15,2.05c-.12.16-.27.21-.66.25a14.86,14.86,0,0,1-1.88,5.1,10.3,10.3,0,0,0,3,2.18l0,.17a1.48,1.48,0,0,0-1.22,1.05,10.73,10.73,0,0,1-2.49-2.36,10.17,10.17,0,0,1-3,2.56l-.18-.24a10.08,10.08,0,0,0,2.68-3.15,14.71,14.71,0,0,1-1.92-5.47h-.74v8.39c0,.11-.43.43-1.12.43h-.21V255.86l1.56.72h3.73l.7-.72,1.41,1.13a1.15,1.15,0,0,1-.69.27c0,2.51-.2,3.6-.72,4a2.5,2.5,0,0,1-1.57.43c0-.34,0-.61-.25-.77a2.66,2.66,0,0,0-1.15-.4v-.27c.52,0,1.35.09,1.64.09a.59.59,0,0,0,.45-.13c.22-.21.29-1.17.34-3.13h-4.12v5.64h4.3l.76-.8Zm-5.36.09a11.15,11.15,0,0,0,2.09,4.41,17.14,17.14,0,0,0,1.22-4.41Z"/><path class="cls-8" d="M336.21,267.18A4.49,4.49,0,0,1,336,271a.87.87,0,0,1-1.32.13A1,1,0,0,1,335,270a4,4,0,0,0,.88-2.81Zm-1.44-2.25a2.07,2.07,0,0,0,.5-.19,18.19,18.19,0,0,0,2.83-3.32c-.65.2-1.44.45-2.25.65a.75.75,0,0,1-.4.34l-.7-1.73a1.66,1.66,0,0,0,.49-.18,15.55,15.55,0,0,0,2.61-4.95l1.89.94a.61.61,0,0,1-.63.27,22.8,22.8,0,0,1-3.24,4c.73,0,1.69,0,2.64,0a15.08,15.08,0,0,0,1.06-1.92L341.3,260a.63.63,0,0,1-.66.18,27.8,27.8,0,0,1-4.59,4.75c1-.05,2.46-.16,4-.29a12.12,12.12,0,0,0-.81-1.8l.21-.11c3.15,2,2,4.4.9,3.35a4.45,4.45,0,0,0-.2-1.06c-1,.33-2.59.83-4.28,1.26a.88.88,0,0,1-.45.38Zm2.93,1.93c2.27,2.41.72,4.63-.18,3.42a9.35,9.35,0,0,0-.07-3.35Zm1.75-.38c2.88,1.77,1.53,4,.54,2.95a5.82,5.82,0,0,0-.76-2.84Zm11.43,4.07c.42.74.51,1.12.24,1.39-.58.5-1.59-.06-2.22-.79-1.67-1.86-2.5-4.61-2.92-7.73h-2.89v6.5c.93-.36,2.08-.83,3.27-1.33l.07.21c-.81.58-2.32,1.7-4,2.8a1,1,0,0,1-.38.54l-.94-1.41c.54-.4.63-.52.63-.9V257l1.48.79a40.36,40.36,0,0,0,6-2.13l1.5,1.39c-.18.16-.53.16-1,0-.77.2-1.73.4-2.79.6a35.11,35.11,0,0,0,.22,5.29h1.47l.85-1.12s.94.78,1.49,1.35c-.05.2-.21.29-.46.29H347.3c.38,2.65,1.13,5.06,2.48,6.36.2.23.33.23.47-.09a12.51,12.51,0,0,0,.7-1.86l.24,0Zm-4.95-7.65a46.43,46.43,0,0,1-.29-5.08q-1.29.23-2.55.36v4.72Z"/><path class="cls-8" d="M361,262.81c-.7.41-1.59.9-2.63,1.47v5.91c0,1.12-.2,1.73-1.93,1.91a1.56,1.56,0,0,0-.34-1,2.45,2.45,0,0,0-1.35-.5v-.27s1.55.11,1.87.11.38-.1.38-.35V265l-1.73.88a.62.62,0,0,1-.41.45l-.61-1.8c.54-.13,1.55-.4,2.75-.76V260.2h-2.41l-.15-.52H357V255.5l2,.21c0,.28-.22.45-.67.51v3.46h.47l.79-1.12s.9.77,1.44,1.35c0,.2-.21.29-.47.29h-2.23v3.17l2.56-.81Zm5.24,7.54c.41,0,.84.06,1.33.06.87,0,2.79,0,3.71,0v.23c-.45.09-.65.56-.67,1.14h-3.11c-2.54,0-4-.67-5-3.41a7.15,7.15,0,0,1-3.33,3.77l-.24-.22a9.69,9.69,0,0,0,2.87-6.77l2,.4c0,.23-.23.39-.63.43a13.63,13.63,0,0,1-.52,1.89,3.74,3.74,0,0,0,2.12,2.2v-5.89h-4.23l-.14-.52h8l.89-1.1s1,.75,1.63,1.33c-.05.2-.21.29-.46.29H366.2v2.59h1.69l.9-1.17s1,.79,1.64,1.41c-.05.19-.23.28-.49.28H366.2Zm-3.12-7.94c0,.15-.61.45-1.2.45h-.18V256l1.47.65h4.72l.76-.83,1.58,1.25a1.41,1.41,0,0,1-.75.34v4.82a2,2,0,0,1-1.17.43h-.24v-.88h-5Zm0-5.24V259h5v-1.8Zm5,4.09V259.5h-5v1.76Z"/><path class="cls-8" d="M389.15,262.45c-.14.18-.34.21-.76.25a14.06,14.06,0,0,1-3.36,5.42,16.37,16.37,0,0,0,5.67,2.65l-.06.2a1.63,1.63,0,0,0-1.36,1.15,14.69,14.69,0,0,1-5.19-3.19,16.81,16.81,0,0,1-7.13,3.15l-.14-.27a16.23,16.23,0,0,0,6.53-3.67,13.89,13.89,0,0,1-2.86-5.69h-1.05c-.54,3.74-1.81,6.95-5,9.43l-.22-.19c3.4-3.89,4-8.74,4.05-14.34h-3.26l-.16-.52h9.34l.67-.76,1.51,1.21c-.12.15-.27.2-.61.24l-.59,4.41h1.53l.9-.89Zm-9.33-5.1a43.67,43.67,0,0,1-.3,4.58h4.21l.59-4.58Zm1.05,5.1a11.61,11.61,0,0,0,3.22,4.9,13.35,13.35,0,0,0,2.7-4.9Z"/><path class="cls-8" d="M396.1,255.45h5.58v.64h-4.9v11h-.68Z"/><path class="cls-8" d="M418.15,269l1.13-1.48s1.28,1,2.05,1.71c-.05.2-.21.29-.48.29H405.11L405,269Zm-1.7-10.05,1.1-1.42s1.26,1,2,1.64c-.05.2-.23.29-.48.29H406.82l-.14-.51Z"/><path class="cls-8" d="M439.55,264s1.15.86,1.87,1.49c-.05.2-.25.29-.5.29h-7.15V270c0,1.11-.32,1.94-2.54,2.12a1.33,1.33,0,0,0-.56-1.08,4.49,4.49,0,0,0-2.09-.59v-.27s2.61.17,3.14.17c.36,0,.48-.12.48-.43v-4.12h-7.59l-.17-.52h7.76v-3.48h-6.48l-.14-.54h6.62V258a63,63,0,0,1-6.6.4l-.06-.33a54.24,54.24,0,0,0,12.32-2.56l1.62,1.55c-.16.15-.52.16-1,0-1.33.28-2.93.57-4.68.79v3.4h3.84l1-1.22s1.11.84,1.81,1.47c0,.2-.23.29-.48.29h-6.16v3.48h4.75Z"/><path class="cls-8" d="M452.06,265a1,1,0,0,1-.7.27c-.15,3.89-.46,5.53-1.12,6.12a2.45,2.45,0,0,1-1.66.56,1.25,1.25,0,0,0-.23-.92,2.41,2.41,0,0,0-1.05-.41l0-.31c.43,0,1.19.09,1.48.09a.72.72,0,0,0,.54-.14c.36-.36.61-1.91.72-5.15h-2a10,10,0,0,1-3.42,7l-.26-.22c2.16-2.95,2.38-6.45,2.45-9.67h-2.18l-.14-.52h5.87l.88-1.17s1,.81,1.6,1.4c0,.2-.21.29-.46.29h-4.13c0,.79-.07,1.6-.14,2.38h1.73l.72-.74Zm-7.44-7.71h3.44l-.23-1.78,2,.16a.65.65,0,0,1-.52.51l.16,1.11h1l.8-1.08s1,.76,1.51,1.32a.44.44,0,0,1-.47.29H449.5l.18,1.29a1.66,1.66,0,0,1-1.33.42l-.22-1.71h-3.38Zm2.41,2c3.42.62,2.27,3.08,1,2.2a3.91,3.91,0,0,0-1.19-2.07Zm10.29.69c-.06.2-.2.3-.63.34a10.4,10.4,0,0,0,4.44,4.3l0,.24a1.61,1.61,0,0,0-.9,1.28,12.84,12.84,0,0,1-3.77-5.64,12.37,12.37,0,0,1-4.55,5.78l-.15-.27a14.45,14.45,0,0,0,3.46-6.52Zm-4.15-2.69h2.15l.3-1.81,1.95.39c-.06.24-.24.42-.71.43l-.16,1h1.88l.81-1.08s.95.76,1.53,1.32a.45.45,0,0,1-.49.29h-3.82l-.23,1.35a1.74,1.74,0,0,1-1.39.14l.25-1.49h-1.92Zm.18,10.79c6.34,1.12,6,4.54,4.27,3.78a13.16,13.16,0,0,0-4.41-3.58Zm1.1-3.55c4.11.62,3.15,3.59,1.7,2.69a4.86,4.86,0,0,0-1.86-2.54Z"/><path class="cls-8" d="M471.1,255.37l.31.34a10.39,10.39,0,0,0,0,16.21l-.31.34a9.72,9.72,0,0,1,0-16.89Z"/><path class="cls-8" d="M481,259.77a.83.83,0,0,1-.43.05,23.49,23.49,0,0,1-2.18,3,31.23,31.23,0,0,1-.29,3.29c3.55,2.2,2.38,4.74,1.17,3.64a8.82,8.82,0,0,0-1.26-3,8.55,8.55,0,0,1-3,5.41l-.26-.31c2.78-3.19,2.38-8.09,2.38-16.22l1.93.19c-.06.27-.24.45-.65.51,0,2.09,0,4,0,5.67a33,33,0,0,0,1.21-3.13l1.39.63v-.6l1.4.62h1.8v-2.17h-3.72l-.15-.54h8.88l.88-1.15s1,.81,1.64,1.41a.42.42,0,0,1-.45.28h-3.66v2.17h1.44l.72-.78,1.53,1.19a1.23,1.23,0,0,1-.73.36v4.84a1.73,1.73,0,0,1-1.14.42h-.2v-.63h-6.95v.36c0,.12-.55.41-1.1.41H481Zm-6-.89c2.77,3,1.62,5.66.59,4.5a14.09,14.09,0,0,0-.85-4.41Zm15.1,10.93s1,.83,1.7,1.43a.48.48,0,0,1-.51.28H479.81l-.14-.52h5.27v-3.06h-3.6l-.14-.52h3.74v-2.31l2,.2c0,.24-.18.4-.59.47v1.64H488l.9-1.15s1,.79,1.64,1.38c-.05.2-.22.29-.49.29h-3.74V271h2.88ZM482.33,260v4.34h6.95v-1.44c-.25,0-.57,0-1,0h-.72c-.93,0-1.08-.31-1.08-1V260h-1.13a4.41,4.41,0,0,1-2.41,3.67l-.18-.23a5,5,0,0,0,1.44-3.44Zm3.06-1v.49h1.1v-2.17h-1.1Zm2.27,1v1.63c0,.2,0,.27.26.27h1.2a.41.41,0,0,0,.16,0V260Z"/><path class="cls-8" d="M495.51,255.37a9.72,9.72,0,0,1,0,16.89l-.31-.34a10.39,10.39,0,0,0,0-16.21Z"/><path class="cls-8" d="M511.11,272.19h-5.58v-.65h4.9v-11h.68Z"/><path class="cls-8" d="M520.38,268.16c1.53,1.58,3.53,1.91,7,1.91,2,0,3.6,0,5.63-.11v.23a1.45,1.45,0,0,0-1.11,1.35h-5c-3.53,0-5.15-.67-6.76-2.83-.25-.32-.43-.27-.63,0-.37.58-1.29,1.84-1.87,2.76a.34.34,0,0,1-.12.41l-1.23-1.71c1.14-.74,3-2.28,3.44-2.28h.13a28.49,28.49,0,0,0,9-7.49H517.4l-.17-.54H529l1-.89,1.49,1.41c-.14.18-.34.23-.83.25a25.56,25.56,0,0,1-10.39,7.45Zm1.77-12.63c4.64,1.43,3.46,4.74,1.91,3.62a7.46,7.46,0,0,0-2.09-3.47Z"/><path class="cls-8" d="M551.1,269.09s1.15,1,1.81,1.61a.45.45,0,0,1-.48.28H536.31l-.16-.52h4.11c.48-1.85,1.08-4.41,1.62-6.91h-3.64l-.16-.54H542c.38-1.75.73-3.44,1-4.83h-5.53l-.14-.52H549l1-1.32s1.15.9,1.83,1.55c-.05.2-.23.29-.5.29h-6.86c-.27,1.39-.61,3.08-1,4.83h3.87l.79-.83,1.61,1.24a1.53,1.53,0,0,1-.76.38v6.66h1.12Zm-7.73-5.54c-.56,2.52-1.13,5.07-1.6,6.91h5.76v-6.91Z"/><path class="cls-8" d="M570.75,265.64s1.17.86,1.86,1.49c0,.2-.24.29-.47.29h-6.2v4.23c0,.11-.48.45-1.26.45h-.27v-4.68h-8.22l-.15-.52h3.12v-5.46l1.72.7h3.53v-3.4h-3.9a16.11,16.11,0,0,1-4.34,4.21l-.24-.2a21,21,0,0,0,4.56-7.5l2.18.84a.66.66,0,0,1-.74.31c-.32.63-.69,1.24-1.06,1.82h8.28l1-1.24s1.11.8,1.85,1.47c0,.2-.23.29-.5.29h-5.57v3.4h2.81l.94-1.19s1.06.83,1.73,1.43c0,.18-.24.27-.49.27h-5v4.25h3.8Zm-6.34,1.26v-4.25h-3.74v4.25Z"/><path class="cls-8" d="M590.55,263.58s1.17.87,1.86,1.52c0,.19-.24.28-.47.28h-7.1v6.27c0,.13-.48.47-1.24.47h-.25v-6.74H576l-.16-.54h7.53v-7.4h-6.48l-.15-.5h12l1-1.26s1.15.86,1.87,1.49c0,.18-.23.27-.49.27h-6.32v7.4h4.69Zm-12-5c4.35,2.81,2.93,6.21,1.44,4.83a11.94,11.94,0,0,0-1.68-4.72Zm7.79,5.17a34,34,0,0,0,2.18-5.2l2.09.79c-.07.2-.29.34-.68.3a20,20,0,0,1-3.34,4.27Z"/><path class="cls-8" d="M599.31,266.9c.92-.24,1.91-.47,2.9-.72l.06.25c-1.23.66-3,1.56-5.48,2.7a.61.61,0,0,1-.41.45l-.86-1.84c.52-.09,1.36-.27,2.39-.52v-6.1h-2.2l-.14-.53h2.34v-4.7l2.07.22c0,.25-.2.43-.67.51v4h.58l.79-1.2s.94.84,1.46,1.44c0,.2-.21.29-.47.29h-2.36Zm13-7.64a1,1,0,0,1-.77.31c-.24,6.32-.81,10.51-1.86,11.63a3,3,0,0,1-2.39.9,1.21,1.21,0,0,0-.38-1,5.32,5.32,0,0,0-2-.63l0-.31c.92.09,2.37.21,2.82.21a1,1,0,0,0,.82-.26c.81-.73,1.29-5,1.56-10.72h-5.81a13.75,13.75,0,0,1-2.81,3.77l-.27-.17a21,21,0,0,0,2.77-7.29l2.12.54a.62.62,0,0,1-.64.42,23.65,23.65,0,0,1-.92,2.21H610l.85-.88ZM608,265.78s.91.74,1.45,1.28a.42.42,0,0,1-.45.29h-6.39l-.12-.53h4.71Zm-.53-4s.9.74,1.46,1.28c0,.2-.22.29-.47.29H603.2l-.14-.54h3.6Z"/><path class="cls-8" d="M622.23,266.19s.95.76,1.55,1.32a.43.43,0,0,1-.47.29H620v3.76a1.41,1.41,0,0,1-1.13.38h-.23V267.8h-3.3l-.14-.53h3.44v-2.39h-2.76l-.14-.54h4a25.27,25.27,0,0,0,.92-3.33l2,.56a.6.6,0,0,1-.67.34,17.31,17.31,0,0,1-1.73,2.43h.7l.76-1a16.7,16.7,0,0,1,1.42,1.24c-.05.2-.2.29-.45.29H620v2.39h1.37Zm-3.6-5.94v-2.34h-2.4l-.14-.52h2.54v-1.93l1.89.2c0,.23-.18.4-.6.47v1.26h.83l.7-.94s.85.67,1.37,1.17c0,.2-.21.29-.46.29h-2.44v2.34h1.5l.77-.95a15.74,15.74,0,0,1,1.39,1.19c0,.19-.22.28-.45.28h-7.58l-.15-.52Zm-2,.87c3.22,1.45,1.85,3.83.72,2.77a7.32,7.32,0,0,0-.91-2.7Zm15,2.05c-.12.16-.27.21-.66.25a14.86,14.86,0,0,1-1.88,5.1,10.3,10.3,0,0,0,3,2.18l0,.17a1.48,1.48,0,0,0-1.22,1.05,10.54,10.54,0,0,1-2.49-2.36,10.17,10.17,0,0,1-3,2.56l-.18-.24a10.08,10.08,0,0,0,2.68-3.15,14.71,14.71,0,0,1-1.92-5.47h-.74v8.39c0,.11-.43.43-1.12.43h-.21V255.86l1.56.72h3.73l.7-.72,1.41,1.13a1.15,1.15,0,0,1-.69.27c0,2.51-.2,3.6-.72,4a2.49,2.49,0,0,1-1.56.43.87.87,0,0,0-.26-.77,2.71,2.71,0,0,0-1.15-.4v-.27c.52,0,1.35.09,1.64.09a.59.59,0,0,0,.45-.13c.22-.21.29-1.17.34-3.13h-4.12v5.64h4.3l.76-.8Zm-5.36.09a11.28,11.28,0,0,0,2.08,4.41,16.77,16.77,0,0,0,1.23-4.41Z"/><path class="cls-8" d="M650.28,266.79s.93.72,1.53,1.26c0,.2-.22.29-.47.29H647.5v1.9c0,1.08-.25,1.72-2.28,1.9a1.26,1.26,0,0,0-.45-1,4.86,4.86,0,0,0-1.86-.5v-.27s2.31.14,2.74.14.45-.09.45-.34v-1.87H635.4l-.16-.53H646.1v-1.27l2,.19c0,.26-.21.38-.61.45v.63h2Zm-14.91-1.62c.75-.35,1.85-1,2.39-1.21a7.11,7.11,0,0,0,1.57-2.47h-1.41l-.55.45-1.14-1a3.45,3.45,0,0,1,.74-.3c.4-.54.92-1.3,1.3-1.89h-2.58l-.16-.54h2.86l.69-.7,1.42,1.26a1.48,1.48,0,0,1-1,.28c-.36.54-.89,1.32-1.34,1.91h1.12l.79-.7,1.28,1.08c-.13.14-.31.2-.7.2a6.64,6.64,0,0,1-2.14,2.41l.16.07c1.33.92,3.4,1.1,6.91,1.1,2.07,0,4,0,6.09-.09v.24a1.18,1.18,0,0,0-1,1.06h-5.53c-3.64,0-5.22-.47-6.66-1.75-.27-.23-.47-.2-.65,0a17.43,17.43,0,0,0-1.35,1.62.29.29,0,0,1-.14.36Zm.75-9.31c3.68-.41,3.51,2.14,2.15,1.78a6.12,6.12,0,0,0-2.29-1.58Zm2.7,12.8c4.45.27,3.71,3.17,2.16,2.47a7.84,7.84,0,0,0-2.3-2.29Zm1.41-11.13h3.31l0,0a3.11,3.11,0,0,0-1.14-1.79l.18-.12c2.36.21,2.49,1.51,1.91,1.94h2.23a19.8,19.8,0,0,0,.78-2l2,.56a.62.62,0,0,1-.69.3,9,9,0,0,1-1.55,1.17h1.93l.83-1s1,.72,1.56,1.26c0,.2-.21.29-.46.29h-4.61c-.31.39-.65.81-1,1.15h2.72l.74-.76,1.53,1.17a1.38,1.38,0,0,1-.72.34v4.38a1.77,1.77,0,0,1-1.14.41h-.23v-.55H643v.14c0,.14-.6.43-1.16.43h-.2V258.6l1.45.61h1.56a11.29,11.29,0,0,0,.27-1.15h-4.52Zm2.74,2.22v.93h5.45v-.93Zm0,2.41h5.45v-.94H643Zm5.45,1.51v-1H643v1Z"/><path class="cls-8" d="M656.23,259.55H655.1L655,259h1.28v-2.4l1.46.61h1.44v-1.72l1.94.19c-.05.26-.21.44-.66.51v1h1.51l.65-.68,1.38,1.06a1.19,1.19,0,0,1-.63.31V259h.24l.66-.88s.78.63,1.25,1.11c0,.2-.22.29-.45.29h-1.7v1.78c0,.13-.64.4-1,.4h-.2v-.4h-1.67v1.17h1.78l.63-.63,1.33,1a1,1,0,0,1-.57.29v2.05c0,.13-.63.4-1,.4h-.22v-.5h-5.15v.23a1.2,1.2,0,0,1-1,.4H656v-3.82l1.42.59h1.75v-1.17h-1.68v.09a1.15,1.15,0,0,1-1,.4h-.22Zm8.44,7.4c-.64.09-1.36.18-2.19.27a5,5,0,0,1-1.15,2.11c2.75.9,2.07,2.37,1,2.07a10.63,10.63,0,0,0-2.15-1.1,13.33,13.33,0,0,1-4.88,1.73l-.12-.27a11.91,11.91,0,0,0,4.16-1.78,25.62,25.62,0,0,0-3.05-.94,10.51,10.51,0,0,0,.65-1.24l-.84.09a.82.82,0,0,1-.49.36l-.49-1.5c.56,0,1.37,0,2.31,0a12.72,12.72,0,0,0,.63-1.58l1.89.36c-.05.23-.2.39-.74.41-.11.24-.23.51-.38.78l2.54,0a8.52,8.52,0,0,0,.15-1.13l1.85.45c-.07.25-.31.37-.68.37l-.06.27,2,0Zm-7.49-2.39h2V263h-2Zm.27-5.53h1.68v-1.26h-1.68Zm1.68,1.76v-1.24h-1.68v1.24Zm-.76,6.86c-.18.38-.38.76-.56,1.12a17.57,17.57,0,0,1,2.45.29,4.79,4.79,0,0,0,.92-1.7C660.34,267.45,659.4,267.56,658.37,267.65Zm2-9.88V259h1.67v-1.26Zm1.67,1.78h-1.67v1.24h1.67ZM660.41,263v1.53h1.92V263Zm10.12-3a18.58,18.58,0,0,1-2.22,7.36,10.64,10.64,0,0,0,3.53,3.53l-.05.17a1.46,1.46,0,0,0-1.28,1,10.58,10.58,0,0,1-2.9-3.69,12.93,12.93,0,0,1-4.61,3.73l-.16-.24a13.36,13.36,0,0,0,4.25-4.72,23.4,23.4,0,0,1-1.32-5.51,12.42,12.42,0,0,1-1.55,2.31l-.25-.16a27.1,27.1,0,0,0,2.18-8.27l2.13.47a.58.58,0,0,1-.63.43,29.78,29.78,0,0,1-.91,3h2.45l.89-1.17s1,.81,1.65,1.4c-.05.2-.23.29-.47.29Zm-4,0c-.14.36-.29.72-.45,1a20,20,0,0,0,1.53,5A19.69,19.69,0,0,0,669,260Z"/></g></svg>