<svg xmlns="http://www.w3.org/2000/svg" viewBox="0 0 360 361"><defs><style>.cls-1,.cls-3{fill:none;stroke-linecap:round;stroke-miterlimit:10;stroke-width:3px;}.cls-1{stroke:#b9d2ef;stroke-dasharray:9 3;}.cls-2{fill:#b9d2ef;}.cls-3{stroke:#f6a3a8;stroke-dasharray:4 8;}.cls-4{fill:#f6a3a8;}</style></defs><title>健保煉金陣_前</title><g id="圖層_3" data-name="圖層 3"><line class="cls-1" x1="260.66" y1="40.8" x2="99.34" y2="40.8"/><path class="cls-2" d="M260.66,27.27A13.54,13.54,0,1,1,247.12,40.8,13.53,13.53,0,0,1,260.66,27.27Z"/><line class="cls-1" x1="341.31" y1="180.5" x2="260.66" y2="40.8"/><path class="cls-2" d="M353,173.73a13.53,13.53,0,1,1-18.49-4.95A13.53,13.53,0,0,1,353,173.73Z"/><line class="cls-1" x1="18.69" y1="180.5" x2="99.34" y2="320.2"/><path class="cls-2" d="M7,187.27a13.53,13.53,0,1,1,18.49,4.95A13.53,13.53,0,0,1,7,187.27Z"/><path class="cls-2" d="M87.62,327a13.54,13.54,0,1,0,5-18.49A13.54,13.54,0,0,0,87.62,327Z"/><line class="cls-1" x1="99.34" y1="40.8" x2="18.69" y2="180.5"/><path class="cls-2" d="M87.62,34a13.54,13.54,0,1,1,5,18.49A13.54,13.54,0,0,1,87.62,34Z"/><line class="cls-1" x1="260.42" y1="40.34" x2="99.58" y2="320.42"/><line class="cls-1" x1="18.24" y1="180.84" x2="341.76" y2="180.84"/><line class="cls-1" x1="99.58" y1="40.34" x2="341.76" y2="180.84"/><line class="cls-1" x1="260.42" y1="40.34" x2="18.24" y2="180.84"/><line class="cls-1" x1="341.76" y1="180.84" x2="99.58" y2="320.42"/><line class="cls-1" x1="99.58" y1="40.34" x2="99.58" y2="320.42"/><line class="cls-3" x1="18.24" y1="180.84" x2="260.42" y2="320.42"/><line class="cls-3" x1="260.66" y1="320.2" x2="341.31" y2="180.5"/><path class="cls-4" d="M272.38,327a13.54,13.54,0,1,1-5-18.49A13.54,13.54,0,0,1,272.38,327Z"/><line class="cls-3" x1="99.34" y1="320.2" x2="260.66" y2="320.2"/><line class="cls-3" x1="99.58" y1="40.34" x2="260.42" y2="320.42"/><line class="cls-3" x1="260.42" y1="40.34" x2="260.42" y2="320.61"/></g></svg>