<svg xmlns="http://www.w3.org/2000/svg" viewBox="0 0 657.61 468.32"><defs><style>.cls-1{fill:#d8dafa;}.cls-2{fill:#f6a3a8;}.cls-3{fill:#f687a8;}.cls-4{opacity:0.8;}.cls-5{fill:#6673ae;}.cls-6{fill:none;stroke:#f687a8;stroke-linecap:round;stroke-linejoin:round;stroke-dasharray:2 8;}</style></defs><title>健康捐調漲圖</title><g id="圖層_3" data-name="圖層 3"><path class="cls-1" d="M107.74,12.64a1.07,1.07,0,0,1-.7.27c-.15,3.89-.45,5.52-1.12,6.12a2.45,2.45,0,0,1-1.66.56,1.24,1.24,0,0,0-.23-.92,2.41,2.41,0,0,0-1-.42l0-.3c.43,0,1.19.09,1.48.09a.71.71,0,0,0,.54-.15c.36-.36.61-1.9.72-5.15h-2a10,10,0,0,1-3.42,7l-.26-.22c2.16-3,2.38-6.44,2.45-9.66h-2.18l-.14-.53h5.87L107,8.15s1,.81,1.6,1.41c0,.2-.21.29-.46.29H104c0,.79-.07,1.6-.14,2.37h1.73l.72-.74ZM100.3,4.93h3.44l-.23-1.78,2,.16a.63.63,0,0,1-.52.5l.16,1.12h1l.8-1.08s1,.76,1.51,1.31a.44.44,0,0,1-.47.29h-2.81l.18,1.3a1.66,1.66,0,0,1-1.33.41l-.22-1.71h-3.38Zm2.41,2c3.43.61,2.27,3.08,1,2.19a4,4,0,0,0-1.19-2.07ZM113,7.61c0,.2-.19.31-.62.34a10.42,10.42,0,0,0,4.44,4.31l0,.23a1.61,1.61,0,0,0-.9,1.28,12.78,12.78,0,0,1-3.77-5.64,12.32,12.32,0,0,1-4.55,5.78l-.15-.27a14.42,14.42,0,0,0,3.46-6.51Zm-4.14-2.68H111l.3-1.82,2,.4c-.06.23-.24.41-.7.43l-.17,1h1.88l.81-1.08s1,.76,1.53,1.31a.45.45,0,0,1-.49.29h-3.82l-.23,1.35a1.78,1.78,0,0,1-1.39.15l.25-1.5H109ZM109,15.72c6.34,1.11,6,4.53,4.27,3.78a13.06,13.06,0,0,0-4.41-3.59Zm1.1-3.55c4.11.61,3.15,3.58,1.69,2.68A4.82,4.82,0,0,0,110,12.31Z"/><path class="cls-1" d="M126.26,11.32l1.6,1.23a1.45,1.45,0,0,1-.74.36v5.9a1.87,1.87,0,0,1-1.2.45h-.22V17.93h-3.47v1.19c0,.14-.58.47-1.17.47h-.22V11.5l1.48.63h3.2Zm-.56,6.09V12.65h-3.47v4.76Zm-.56-7c0,.13-.61.47-1.22.47h-.22V3.58l1.55.67h5.85l.76-.85,1.62,1.26a1.38,1.38,0,0,1-.76.36v5.33a1.89,1.89,0,0,1-1.2.45h-.24V9.47h-6.14Zm0-5.67V8.93h6.14V4.77Zm11.24,7.78a1.52,1.52,0,0,1-.76.37v6a2.12,2.12,0,0,1-1.19.4h-.23V17.93h-3.6v1.22c0,.15-.6.47-1.19.47h-.22V11.5l1.5.63H134l.74-.81Zm-2.18,4.86V12.65h-3.6v4.76Z"/><path class="cls-1" d="M143.27,8.28a.67.67,0,0,1-.56.31V19.28a1.61,1.61,0,0,1-1.1.42h-.25V10a15.93,15.93,0,0,1-1.71,2.46l-.27-.16a35.48,35.48,0,0,0,3-9.2l2.1.61a.67.67,0,0,1-.7.38A29.76,29.76,0,0,1,142.4,8Zm4.68,2.5a.92.92,0,0,1-.65.27,15.91,15.91,0,0,1-1.2,5.13c1.56,1.43,3.72,1.79,6.8,1.79.79,0,2.56,0,3.49,0v.23a1.12,1.12,0,0,0-.82,1.15h-2.81c-3.28,0-5.53-.52-7.08-2.35a8.29,8.29,0,0,1-2.77,2.72l-.16-.28a8.23,8.23,0,0,0,2.34-3.31,13,13,0,0,1-1.5-3.87l.25-.11a10.68,10.68,0,0,0,1.5,3.21,20.25,20.25,0,0,0,.67-4.47h-1.14l-.52.51-1.21-.92a2.47,2.47,0,0,1,.63-.31,46.44,46.44,0,0,0,1.82-4.72h-1.78l-.16-.52h1.89l.68-.7,1.42,1.24a1.35,1.35,0,0,1-.82.29C146.37,7,145.54,9,145,10.35h.88l.72-.74Zm7.47-4.39a12.12,12.12,0,0,1,1.06,1.21c0,.19-.19.28-.43.28h-1.53v2.56a1.67,1.67,0,0,1-1,.4h-.2v-.49h-1.82v1.93h1.71l.74-1s.83.72,1.31,1.24c0,.2-.19.29-.45.29h-3.31v1.8h2.41l.76-1.07s.86.76,1.39,1.3c0,.2-.22.29-.47.29h-4.09v1.93c0,.16-.56.45-1,.45h-.25V15.14h-3l-.15-.52h3.15v-1.8h-2.39l-.15-.54h2.54V10.35h-2.09l-.16-.54h2.25V7.88h-3.27l-.15-.52h3.42V5.47h-2.27l-.16-.54h2.43V3.13l1.89.2c0,.25-.18.43-.61.48V4.93h1.68l.63-.65,1.35,1a1.19,1.19,0,0,1-.6.29V7.36h.34Zm-4,1h1.82V5.47h-1.82Zm1.82.52h-1.82V9.81h1.82Z"/><path class="cls-1" d="M162.42,10.1c0,3-.18,6.93-2.9,9.58l-.25-.15c1.67-2.75,1.82-6.17,1.82-9.43V4.57l1.58.65h10.61L174.2,4s1.06.83,1.69,1.44a.43.43,0,0,1-.47.29h-13Zm4.68,5.8c-.9.64-2.21,1.62-3.94,2.77a.7.7,0,0,1-.36.48l-.88-1.56c.88-.27,3-1.08,5.09-1.93Zm7.78-7a15.64,15.64,0,0,1,1.22,1.13c0,.2-.21.29-.45.29h-1.87v2.25a1.68,1.68,0,0,1-.79.45l1.22.86c-.1.17-.27.22-.66.11a34.83,34.83,0,0,1-3.44,1.35l-.15-.18c.71-.54,1.71-1.49,2.4-2.14v-.42h-3.17V18c0,1.08-.22,1.71-2,1.89a1.58,1.58,0,0,0-.35-1,2.7,2.7,0,0,0-1.42-.5v-.29s1.64.15,2,.15.4-.09.4-.35V12.65h-4l-.16-.53h4.2V10.37h-4.83l-.14-.52h5V8.13h-3.91l-.16-.53h4.07V6l2.07.23c0,.25-.22.42-.65.49V7.6h3l.68-.73L174.34,8a.87.87,0,0,1-.56.27V9.85h.47Zm-11.51,4.17c4.27.15,3.73,2.85,2.27,2.25a8.85,8.85,0,0,0-2.39-2.07ZM167.14,3c3.54.44,2.21,2.88.92,2A4.55,4.55,0,0,0,167,3.13Zm2.05,6.85h3.17V8.13h-3.17Zm3.17.52h-3.17v1.75h3.17ZM169.91,16c5.85.54,5.76,3.51,4.11,3.08a16.33,16.33,0,0,0-4.25-2.88Z"/><path class="cls-1" d="M183.28,11c3.5,1.41,2.51,3.64,1.35,2.8a6.35,6.35,0,0,0-1.35-2.35v7.71c0,.13-.48.49-1.15.49h-.23v-7.3a16,16,0,0,1-2.67,2.13l-.2-.16a19.67,19.67,0,0,0,4.76-6.92h-4.25l-.16-.52h4.37l.88-.85,1.48,1.45a1.53,1.53,0,0,1-.81.21,16.18,16.18,0,0,1-2,3.13Zm-1.89-7.88c3.91,1.13,2.6,3.78,1.26,2.73a5.86,5.86,0,0,0-1.44-2.61Zm12.8.21s1,.8,1.68,1.39a.45.45,0,0,1-.49.29h-9.52l-.15-.52h7.58Zm0,7.85,1.59,1.25a1.45,1.45,0,0,1-.78.36v6.35a1.87,1.87,0,0,1-1.13.42h-.24v-1h-6.3v.64c0,.15-.57.46-1.13.46H186V11.39l1.44.63h6Zm-1.4-.46v-.63h-4.52v.41a1.65,1.65,0,0,1-1.14.41H187V6.08l1.42.63h4.25l.74-.79L195,7.13a1.62,1.62,0,0,1-.78.36v2.86a1.93,1.93,0,0,1-1.15.4Zm-5.46,1.81v2.38h2.56V12.56Zm0,5.51h2.56V15.48h-2.56Zm5.46-8.48V7.23h-4.52V9.59Zm-1.66,3v2.38h2.5V12.56Zm2.5,5.51V15.48h-2.5v2.59Z"/><path class="cls-1" d="M207.48,7.54s1,.83,1.63,1.44c-.05.2-.23.29-.48.29H205v1.31c4.61,1.8,3.51,4.78,2.11,3.7A9,9,0,0,0,205,10.94v8.3c0,.13-.47.46-1.17.46h-.24V11.75a16.41,16.41,0,0,1-4.53,5l-.24-.23a18.86,18.86,0,0,0,4.32-7.26H199.5l-.13-.52h4.23V5.58c-1.35.23-2.8.41-4.19.52l0-.29a31.54,31.54,0,0,0,7.56-2.7l1.73,1.55c-.2.16-.54.16-1,0-.74.22-1.64.45-2.61.65V8.75h1.55Zm3.44,8c0,.16-.6.47-1.1.47h-.26V4.62l2,.2c-.05.25-.2.45-.66.51Zm4.57-11.87c-.06.27-.22.45-.65.51V17.68c0,1.11-.23,1.78-2.14,2a1.61,1.61,0,0,0-.44-1,3.1,3.1,0,0,0-1.63-.55V17.8s2,.15,2.37.15.43-.11.43-.38V3.42Z"/><path class="cls-1" d="M226.32,10.28c-.83.45-1.84,1-3.08,1.69v5.67c0,1.14-.21,1.84-2.1,2a1.75,1.75,0,0,0-.4-1.12,3,3,0,0,0-1.57-.56v-.29s1.86.15,2.25.15.44-.11.44-.38V12.73c-.63.3-1.3.64-2,1a.64.64,0,0,1-.4.47l-.7-1.74c.61-.17,1.75-.51,3.12-1V7.78h-2.72L219,7.23h2.87V3.09l2,.22c0,.25-.22.43-.67.5V7.23H224l.78-1.09a17.59,17.59,0,0,1,1.44,1.35.44.44,0,0,1-.47.29h-2.54V11c.94-.3,2-.66,3-1Zm9-.11a1.56,1.56,0,0,1-.81.4v7.27c0,1-.22,1.64-2,1.8a1.56,1.56,0,0,0-.36-1,3.14,3.14,0,0,0-1.47-.49v-.27s1.69.13,2.08.13.38-.11.38-.36v-3a42.14,42.14,0,0,1-4.55,1.85.65.65,0,0,1-.42.43l-.63-1.4a6.78,6.78,0,0,1-2.59,4.12l-.18-.2c1.49-2.07,1.64-4.64,1.64-6.93V9.07l1.66.69h4.89l.71-.87Zm-7.22-1.69c0,.11-.45.36-1.14.36h-.21V3.62l1.55.63h4.37l.69-.78,1.42,1.08a.88.88,0,0,1-.65.29V8.3a1.66,1.66,0,0,1-1.15.36h-.26V7.87h-4.62Zm-.33,4.08a15.47,15.47,0,0,1-.21,2.78c1.26-.16,3.45-.56,5.54-1.05v-4h-5.33v1.47c5.82-.46,5.84,2.36,4.42,2.09a11.16,11.16,0,0,0-4.42-1.71Zm.33-7.79V7.34h4.62V4.77Z"/><path class="cls-1" d="M105.31,33.58s.88.68,1.44,1.2a.45.45,0,0,1-.49.29h-6.12l-.14-.54h4.53ZM104,36.82l.72-.9s.79.65,1.3,1.13c0,.2-.22.29-.45.29h-4.79l-.15-.52Zm-3.22,2.84-.15-.54H104l.72-.88s.79.63,1.3,1.14c0,.19-.22.28-.45.28Zm5.49,2.15a1.18,1.18,0,0,1-.72.34v4.3a1.64,1.64,0,0,1-1.08.42h-.22v-.8h-2.2v1c0,.12-.55.41-1.09.41h-.2V40.82l1.37.59h2l.68-.74Zm-4.67-10.43c3.8.74,2.65,3.39,1.26,2.47a6.22,6.22,0,0,0-1.44-2.36Zm2.65,14.15V42h-2.2v3.58Zm12.33-12.69a1.2,1.2,0,0,1-.77.36V45.82c0,1.06-.2,1.69-1.94,1.88a1.59,1.59,0,0,0-.36-1,2.9,2.9,0,0,0-1.43-.5v-.29s1.64.14,2,.14.4-.12.4-.39v-7h-6.12l-.11-.4v.34c0,3-.07,6.65-2.38,9.13l-.27-.16C107,45,107,41.75,107,38.6V31.8l1.49.63h5.82l.66-.83Zm-8.33.11v2.5h2.5V33.24l1.77.21c0,.22-.2.4-.62.45v1.55H113l.63-.88s.43.36.85.76V33Zm2.5,5.17V36h-2.41l-.09-.32v2.47Zm-.5,5.78v.64c0,.11-.49.36-.94.36h-.18V39.41l1.21.54h1.8l.59-.63,1.37,1a1.24,1.24,0,0,1-.7.32v3.68c0,.12-.56.36-.94.36h-.16V43.9Zm0-3.43v2.89h2V40.47Zm3.31-3.31s.49.43.92.85V36h-2.58v2.15h1Z"/><path class="cls-1" d="M119.9,35.47c3.71.66,2.51,3.33,1.16,2.34a4.41,4.41,0,0,0-1.34-2.2Zm4.18-1c-.5,2.2-1.42,6.25-1.6,7.13a9,9,0,0,0-.18,1.63c0,.82.59,1.65.52,3.16,0,.81-.43,1.3-1.08,1.3-.36,0-.63-.31-.68-.9.27-1.8.18-3.35-.2-3.62a1.52,1.52,0,0,0-.83-.27v-.38h.72c.22,0,.27,0,.43-.37.27-.65.27-.65,2.56-7.75Zm-3.28-3.24c3.91.81,2.65,3.55,1.28,2.51a5.08,5.08,0,0,0-1.44-2.38Zm8.11,9.38a1.1,1.1,0,0,1-.71.29c-.1,3.84-.43,5.62-1.11,6.23a2.44,2.44,0,0,1-1.7.58c0-.38,0-.72-.25-.88a3.09,3.09,0,0,0-1.28-.45V46c.58,0,1.5.13,1.8.13a.65.65,0,0,0,.54-.17c.4-.36.65-2.07.76-5.29h-1.82l-.56.61-1.35-.95a2.14,2.14,0,0,1,.67-.36c.2-1.21.43-3.17.5-4.27l1.52.61h1.19V32.71h-3l-.16-.52h2.94l.7-.75,1.51,1.17a1.49,1.49,0,0,1-.79.37v4.34a1.69,1.69,0,0,1-1,.38h-.19v-.83h-1.59c-.11,1-.29,2.29-.45,3.28h1.71l.72-.74Zm7.83,1c-.09.17-.29.2-.58.09a26.36,26.36,0,0,1-2.82,1.54,7,7,0,0,0,3.4,3l0,.19a1.63,1.63,0,0,0-1.12,1.28c-2.28-1.44-3.33-3.87-3.89-7.42h-.91v5.32l2-.72.09.23c-.54.45-1.64,1.33-2.85,2.2a1.33,1.33,0,0,1-.46.52l-.94-1.69c.65-.35.76-.47.76-.78V40.2h-.85l-.14-.52h1.13v-8.1l1.62.67h2.34l.87-1.08s1,.75,1.63,1.33c-.05.2-.21.29-.48.29h-4.63v1.94h2.25l.81-1A19.37,19.37,0,0,1,135.5,35c0,.2-.2.29-.45.29h-4.11v2h2.34l.79-1a18.84,18.84,0,0,1,1.48,1.26c0,.2-.2.29-.43.29h-4.18v1.92h3.24l.87-1.08s1,.76,1.6,1.32a.43.43,0,0,1-.47.28h-4.12a12.61,12.61,0,0,0,1.06,2.62,25.31,25.31,0,0,0,1.93-2.29Z"/><path class="cls-1" d="M156.09,32.64a1.32,1.32,0,0,1-.78.36V47.06a1.84,1.84,0,0,1-1.17.47h-.21V46.6H142v.57c0,.2-.51.54-1.12.54h-.25V31.54l1.49.69h11.62l.74-.87Zm-2.16,13.43V32.77H142v13.3Zm-1.82-9.43s.85.65,1.39,1.15c0,.2-.22.29-.47.29H142.78l-.14-.52h4.64V36.37h-1.74v.22a1.54,1.54,0,0,1-1.08.39h-.18V33.4l1.35.57h4.57l.63-.66,1.41,1a1,1,0,0,1-.62.27v1.86c0,.12-.66.38-1.06.38h-.22v-.49h-1.76v1.19h2.77Zm-.6,1.73,1.34,1a.94.94,0,0,1-.58.29v5.24c0,.13-.63.38-1,.38H151v-.78h-6.12v.6c0,.12-.54.39-1,.39h-.2V38.46l1.34.59h5.88ZM151,44V39.57h-6.12V44Zm-.69-8.17V34.52h-4.8v1.33Zm.11,5a1.15,1.15,0,0,1-.5.26v2c0,.11-.54.34-.87.34h-.14v-.57H147v.32c0,.09-.45.3-.86.3H146V40l1.09.49h1.73l.51-.52Zm-1.51,1.55V41H147v1.35Z"/><path class="cls-2" d="M268.4,134.43a9.72,9.72,0,0,1-1.14-1,5.65,5.65,0,0,1-.92-1.19,5.76,5.76,0,0,1-.61-1.46,6.76,6.76,0,0,1-.23-1.82,6.49,6.49,0,0,1,.23-1.77,5.74,5.74,0,0,1,.63-1.45,6.45,6.45,0,0,1,.93-1.22,11.53,11.53,0,0,1,1.14-1.06l.25.21a11.9,11.9,0,0,0-.87,1.06,6.16,6.16,0,0,0-.68,1.17,7.29,7.29,0,0,0-.44,1.39,8.57,8.57,0,0,0-.15,1.67,8,8,0,0,0,.16,1.67,7.42,7.42,0,0,0,.47,1.4,6.08,6.08,0,0,0,.68,1.17,8.68,8.68,0,0,0,.83,1Z"/><path class="cls-2" d="M274.1,125.85h-.3c-.09-.23-.18-.5-.28-.82s-.17-.6-.23-.88a3.2,3.2,0,0,1,1-.57,3.76,3.76,0,0,1,1.27-.21,2.9,2.9,0,0,1,1,.16,2.17,2.17,0,0,1,.72.46,1.71,1.71,0,0,1,.41.67,2.28,2.28,0,0,1,.13.78,3.36,3.36,0,0,1-.31,1.38,8.59,8.59,0,0,1-.77,1.38,11,11,0,0,1-1,1.25c-.35.39-.69.74-1,1l-.51.47V131l.68-.07H277l.59-1.35h.3c0,.18,0,.37.05.58s0,.42,0,.63l0,.61c0,.2,0,.37,0,.51h-4.95v-.38l.64-.68q.38-.39.78-.87c.27-.32.55-.66.81-1a10.36,10.36,0,0,0,.72-1.1,9.13,9.13,0,0,0,.51-1.11,3.16,3.16,0,0,0,.19-1,2.09,2.09,0,0,0-.09-.67,1.43,1.43,0,0,0-.26-.54,1.3,1.3,0,0,0-.44-.37,1.26,1.26,0,0,0-.6-.13,2,2,0,0,0-.44,0,4.19,4.19,0,0,0-.42.1Z"/><path class="cls-2" d="M279.65,127.71a6,6,0,0,1,.72-3.25,2.57,2.57,0,0,1,4.19,0,6.29,6.29,0,0,1,.67,3.27,6,6,0,0,1-.72,3.25,2.41,2.41,0,0,1-2.15,1.09,2.48,2.48,0,0,1-1.25-.29,2.36,2.36,0,0,1-.84-.85,4.43,4.43,0,0,1-.47-1.36A10.14,10.14,0,0,1,279.65,127.71Zm1.15,0a12.43,12.43,0,0,0,.09,1.57,4.81,4.81,0,0,0,.27,1.21,2,2,0,0,0,.48.79,1,1,0,0,0,.71.27,1.37,1.37,0,0,0,1.34-.93,8,8,0,0,0,.39-2.91,14.91,14.91,0,0,0-.07-1.56,4.71,4.71,0,0,0-.27-1.21,1.89,1.89,0,0,0-.51-.78,1.17,1.17,0,0,0-.79-.28,1.29,1.29,0,0,0-1.27.93A8.57,8.57,0,0,0,280.8,127.72Z"/><path class="cls-2" d="M286.38,127.71a6,6,0,0,1,.72-3.25,2.57,2.57,0,0,1,4.19,0,6.29,6.29,0,0,1,.67,3.27,6,6,0,0,1-.72,3.25,2.41,2.41,0,0,1-2.14,1.09,2.43,2.43,0,0,1-1.25-.29,2.21,2.21,0,0,1-.84-.85,4.18,4.18,0,0,1-.48-1.36A10.14,10.14,0,0,1,286.38,127.71Zm1.16,0a12.55,12.55,0,0,0,.08,1.57,5.89,5.89,0,0,0,.27,1.21,2,2,0,0,0,.48.79,1,1,0,0,0,.71.27,1.36,1.36,0,0,0,1.34-.93,8,8,0,0,0,.39-2.91,14.91,14.91,0,0,0-.07-1.56,5.21,5.21,0,0,0-.26-1.21,1.89,1.89,0,0,0-.51-.78,1.22,1.22,0,0,0-.8-.28,1.3,1.3,0,0,0-1.27.93A8.62,8.62,0,0,0,287.54,127.72Z"/><path class="cls-2" d="M294.29,125.85H294c-.09-.23-.18-.5-.27-.82s-.17-.6-.23-.88a3.09,3.09,0,0,1,1-.57,3.72,3.72,0,0,1,1.27-.21,2.9,2.9,0,0,1,1,.16,2,2,0,0,1,.71.46,1.73,1.73,0,0,1,.42.67,2.28,2.28,0,0,1,.13.78,3.36,3.36,0,0,1-.31,1.38,8.66,8.66,0,0,1-.78,1.38,11,11,0,0,1-1,1.25c-.36.39-.69.74-1,1l-.51.47V131l.67-.07h2.07l.59-1.35h.3c0,.18,0,.37,0,.58s0,.42.05.63l0,.61c0,.2,0,.37,0,.51h-5v-.38l.64-.68c.26-.26.52-.55.79-.87s.54-.66.81-1a8.9,8.9,0,0,0,.71-1.1,6.85,6.85,0,0,0,.51-1.11,3,3,0,0,0,.2-1,2.41,2.41,0,0,0-.09-.67,1.61,1.61,0,0,0-.27-.54,1.21,1.21,0,0,0-.44-.37,1.25,1.25,0,0,0-.59-.13,1.89,1.89,0,0,0-.44,0,4.19,4.19,0,0,0-.42.1Z"/><path class="cls-2" d="M302.91,134.19a7.38,7.38,0,0,0,.83-1,6.13,6.13,0,0,0,.68-1.21,8.5,8.5,0,0,0,.46-1.45,8.12,8.12,0,0,0,.16-1.68,8.28,8.28,0,0,0-.15-1.65,7.37,7.37,0,0,0-.43-1.35,6.6,6.6,0,0,0-.68-1.14,11.59,11.59,0,0,0-.87-1l.25-.21a12.21,12.21,0,0,1,1.15,1,6.72,6.72,0,0,1,.93,1.18,5.85,5.85,0,0,1,.62,1.44,6.49,6.49,0,0,1,.23,1.77,6.88,6.88,0,0,1-.22,1.82,6.14,6.14,0,0,1-1.52,2.74,8.41,8.41,0,0,1-1.15,1Z"/><path class="cls-2" d="M273.63,103.46h3.45v.46a4.8,4.8,0,0,1-1.31.64v10.29h-.91L269.05,106l-.62-1.25h-.05l.14,1.25v7.6a4.46,4.46,0,0,1,1.24.56v.47H266.3v-.47a5.12,5.12,0,0,1,.62-.31c.21-.09.45-.17.69-.25v-9.17q-.32-.12-.63-.27a6.27,6.27,0,0,1-.58-.29v-.44h2.7l5,7.6.74,1.37h.06l-.08-1.37v-6.5l-.65-.3a6.33,6.33,0,0,1-.58-.34Z"/><path class="cls-2" d="M285.2,114.66h-4.5v-.47c.23-.08.47-.16.71-.22a5.65,5.65,0,0,1,.78-.16v-9.52h-2.45l-.85,2.29h-.4c0-.22-.06-.46-.08-.73s0-.55-.05-.83,0-.56,0-.84,0-.51,0-.72h9.3c0,.21,0,.45,0,.72s0,.54,0,.82,0,.56-.05.83,0,.52-.07.75H287l-.84-2.29h-2.44v9.52c.28,0,.54.1.78.16a4.37,4.37,0,0,1,.7.22Z"/><path class="cls-2" d="M292.17,114.85a7,7,0,0,1-.93-.07,6.15,6.15,0,0,1-.82-.2,4.69,4.69,0,0,1-.67-.26,2,2,0,0,1-.46-.29c0-.1,0-.25,0-.42s0-.36.05-.54.05-.36.07-.53a1.5,1.5,0,0,1,.11-.4h.4l1,1.56a2.34,2.34,0,0,0,.54.21,3.38,3.38,0,0,0,.72.11v-4.56a.1.1,0,0,1-.09,0l-.52-.24a7.49,7.49,0,0,1-.89-.46,3.27,3.27,0,0,1-.76-.62,2.79,2.79,0,0,1-.53-.84,3,3,0,0,1-.2-1.13,2.53,2.53,0,0,1,.22-1.07,2.87,2.87,0,0,1,.62-.88,2.9,2.9,0,0,1,.94-.62,3.9,3.9,0,0,1,1.21-.28v-.78H293v.78a6.08,6.08,0,0,1,1.34.21,6.44,6.44,0,0,1,1,.35,2.87,2.87,0,0,1-.13.85,4.76,4.76,0,0,1-.25.59h-.42l-.8-1.09-.33,0-.39,0v4.27l.47.21c.33.16.65.33,1,.51a4,4,0,0,1,.84.62,2.84,2.84,0,0,1,.59.87,3.18,3.18,0,0,1,.22,1.27,2.65,2.65,0,0,1-.81,2,3.81,3.81,0,0,1-2.28,1v1h-.83Zm-1.55-9a2.2,2.2,0,0,0,.12.76,1.94,1.94,0,0,0,.33.58,2.14,2.14,0,0,0,.49.46,5.81,5.81,0,0,0,.61.38v-3.91a1.69,1.69,0,0,0-1.13.57A1.73,1.73,0,0,0,290.62,105.84Zm4,6.13a1.78,1.78,0,0,0-.48-1.32,3.82,3.82,0,0,0-1.17-.81v4.1a2.43,2.43,0,0,0,1.19-.7A1.8,1.8,0,0,0,294.65,112Z"/><path class="cls-2" d="M304.6,102.58h.55c0,.16,0,.36,0,.62s0,.52-.06.78-.07.52-.11.76-.09.43-.13.56h-4.39l-.28,2.28h1.32a4.84,4.84,0,0,1,1.57.24,3.34,3.34,0,0,1,1.2.67,3,3,0,0,1,.77,1.07,4,4,0,0,1-.07,3.07,3.37,3.37,0,0,1-.94,1.2,4,4,0,0,1-1.39.75,5.36,5.36,0,0,1-1.73.27,5,5,0,0,1-2.93-1l.68-1.59h.46l.26.29.3.37.3.38.26.34.3.1a1.69,1.69,0,0,0,.35,0,2.4,2.4,0,0,0,.9-.17,2,2,0,0,0,.71-.47,2.32,2.32,0,0,0,.48-.73,2.54,2.54,0,0,0,.17-.94,2.17,2.17,0,0,0-.21-1,2.1,2.1,0,0,0-.59-.7,2.53,2.53,0,0,0-.86-.4,4,4,0,0,0-1-.14l-1.39,0,.64-5.84h4.17Z"/><path class="cls-2" d="M424.08,239.93a9.72,9.72,0,0,1-1.14-1,6,6,0,0,1-.92-1.19,6.15,6.15,0,0,1-.61-1.46,6.77,6.77,0,0,1-.22-1.82,6.49,6.49,0,0,1,.23-1.77,6.1,6.1,0,0,1,.62-1.45,7.42,7.42,0,0,1,.93-1.22,12.89,12.89,0,0,1,1.15-1.06l.25.21c-.32.35-.61.7-.88,1.06a6.12,6.12,0,0,0-.67,1.17,6.64,6.64,0,0,0-.44,1.39,7.83,7.83,0,0,0-.16,1.67,7.94,7.94,0,0,0,.17,1.67,7.41,7.41,0,0,0,.46,1.4,6.68,6.68,0,0,0,.69,1.17,7.74,7.74,0,0,0,.83,1Z"/><path class="cls-2" d="M429.78,231.35h-.3c-.09-.23-.18-.5-.27-.82s-.17-.6-.23-.88a3.09,3.09,0,0,1,1-.57,3.72,3.72,0,0,1,1.27-.21,2.9,2.9,0,0,1,1,.16,2,2,0,0,1,.71.46,1.73,1.73,0,0,1,.42.67,2.28,2.28,0,0,1,.13.78,3.36,3.36,0,0,1-.31,1.38,8.66,8.66,0,0,1-.78,1.38,11,11,0,0,1-1,1.25c-.36.39-.69.74-1,1l-.5.47v.05l.67-.07h2.07l.59-1.35h.3c0,.18,0,.37,0,.58s0,.42.05.63l0,.61c0,.2,0,.37,0,.51h-5V237l.64-.68c.26-.26.52-.55.79-.87s.54-.66.81-1a8.9,8.9,0,0,0,.71-1.1,6.85,6.85,0,0,0,.51-1.11,3,3,0,0,0,.2-1.05,2.41,2.41,0,0,0-.09-.67,1.61,1.61,0,0,0-.27-.54,1.21,1.21,0,0,0-.44-.37,1.25,1.25,0,0,0-.59-.13,1.89,1.89,0,0,0-.44,0,4.19,4.19,0,0,0-.42.1Z"/><path class="cls-2" d="M435.34,233.21a6,6,0,0,1,.72-3.25,2.57,2.57,0,0,1,4.19,0,6.39,6.39,0,0,1,.67,3.27,6,6,0,0,1-.73,3.25,2.4,2.4,0,0,1-2.14,1.09,2.46,2.46,0,0,1-1.25-.29,2.36,2.36,0,0,1-.84-.85,4.43,4.43,0,0,1-.47-1.36A10.14,10.14,0,0,1,435.34,233.21Zm1.15,0a14.81,14.81,0,0,0,.08,1.57,5.89,5.89,0,0,0,.27,1.21,2.22,2.22,0,0,0,.48.79,1,1,0,0,0,.72.27,1.37,1.37,0,0,0,1.34-.93,8.26,8.26,0,0,0,.39-2.91,14.75,14.75,0,0,0-.08-1.56,4.35,4.35,0,0,0-.26-1.21,1.89,1.89,0,0,0-.51-.78,1.2,1.2,0,0,0-.8-.28,1.28,1.28,0,0,0-1.26.93A8.32,8.32,0,0,0,436.49,233.22Z"/><path class="cls-2" d="M442.07,233.21a6,6,0,0,1,.72-3.25,2.57,2.57,0,0,1,4.19,0,6.29,6.29,0,0,1,.67,3.27,5.86,5.86,0,0,1-.73,3.25,2.39,2.39,0,0,1-2.14,1.09,2.46,2.46,0,0,1-1.25-.29,2.36,2.36,0,0,1-.84-.85,4.43,4.43,0,0,1-.47-1.36A10.14,10.14,0,0,1,442.07,233.21Zm1.15,0a12.43,12.43,0,0,0,.09,1.57,4.81,4.81,0,0,0,.27,1.21,2,2,0,0,0,.48.79,1,1,0,0,0,.71.27,1.37,1.37,0,0,0,1.34-.93,8,8,0,0,0,.39-2.91c0-.57,0-1.09-.07-1.56a4.71,4.71,0,0,0-.27-1.21,1.89,1.89,0,0,0-.51-.78,1.2,1.2,0,0,0-.8-.28,1.28,1.28,0,0,0-1.26.93A8.32,8.32,0,0,0,443.22,233.22Z"/><path class="cls-2" d="M450,231.35h-.3c-.09-.23-.18-.5-.27-.82s-.17-.6-.24-.88a3.2,3.2,0,0,1,1-.57,3.76,3.76,0,0,1,1.27-.21,3,3,0,0,1,1,.16,2.23,2.23,0,0,1,.71.46,1.6,1.6,0,0,1,.41.67,2.29,2.29,0,0,1,.14.78,3.38,3.38,0,0,1-.32,1.38,7.89,7.89,0,0,1-.77,1.38,12.17,12.17,0,0,1-1,1.25c-.36.39-.69.74-1,1l-.5.47v.05l.67-.07h2.06l.59-1.35h.3c0,.18,0,.37.05.58s0,.42,0,.63l0,.61c0,.2,0,.37,0,.51h-5V237l.64-.68c.25-.26.51-.55.79-.87s.54-.66.81-1a12.05,12.05,0,0,0,.71-1.1,6.85,6.85,0,0,0,.51-1.11,3.18,3.18,0,0,0,.2-1.05,2.41,2.41,0,0,0-.09-.67,1.61,1.61,0,0,0-.27-.54,1.3,1.3,0,0,0-.44-.37,1.25,1.25,0,0,0-.59-.13,2,2,0,0,0-.45,0,4.19,4.19,0,0,0-.42.1Z"/><path class="cls-2" d="M458.59,239.69a6.75,6.75,0,0,0,.84-1,6.67,6.67,0,0,0,.68-1.21,7.69,7.69,0,0,0,.45-1.45,8.1,8.1,0,0,0,.17-1.68,7.57,7.57,0,0,0-.16-1.65,6.1,6.1,0,0,0-.43-1.35,6.55,6.55,0,0,0-.67-1.14,11.75,11.75,0,0,0-.88-1l.26-.21a12.08,12.08,0,0,1,1.14,1,6,6,0,0,1,1.56,2.62,6.5,6.5,0,0,1,.22,1.77,7.34,7.34,0,0,1-.21,1.82,6.71,6.71,0,0,1-.6,1.5,6.23,6.23,0,0,1-.92,1.24,8.5,8.5,0,0,1-1.16,1Z"/><path class="cls-2" d="M424.22,209h3.45v.46a4.8,4.8,0,0,1-1.31.64v10.29h-.91l-5.81-8.82-.62-1.25h0l.14,1.25v7.6a4.46,4.46,0,0,1,1.24.56v.47h-3.46v-.47a5.12,5.12,0,0,1,.62-.31c.21-.09.45-.17.69-.25V210l-.63-.27a6.27,6.27,0,0,1-.58-.29V209h2.7l5,7.6.74,1.37h.06l-.08-1.37v-6.5l-.65-.3a6.33,6.33,0,0,1-.58-.34Z"/><path class="cls-2" d="M435.79,220.16h-4.5v-.47c.23-.08.47-.16.71-.22a5.65,5.65,0,0,1,.78-.16v-9.52h-2.45l-.85,2.29h-.4c0-.22-.06-.46-.08-.73l-.06-.83c0-.29,0-.56,0-.84s0-.51,0-.72h9.3c0,.21,0,.45,0,.72s0,.54,0,.82,0,.56-.05.83,0,.52-.07.75h-.42l-.84-2.29h-2.44v9.52c.28.05.54.1.78.16a4.37,4.37,0,0,1,.7.22Z"/><path class="cls-2" d="M442.76,220.35a7,7,0,0,1-.93-.07,5.79,5.79,0,0,1-.82-.2,4.26,4.26,0,0,1-.67-.26,2,2,0,0,1-.46-.29c0-.1,0-.25,0-.42s0-.36,0-.54.05-.36.07-.53a1.5,1.5,0,0,1,.11-.4h.4l1,1.56a2.34,2.34,0,0,0,.54.21,3.38,3.38,0,0,0,.72.11V215a.1.1,0,0,1-.09,0l-.52-.24a6.79,6.79,0,0,1-.89-.46,3.27,3.27,0,0,1-.76-.62,2.79,2.79,0,0,1-.53-.84,3,3,0,0,1-.2-1.13,2.53,2.53,0,0,1,.22-1.07,2.87,2.87,0,0,1,.62-.88,2.9,2.9,0,0,1,.94-.62,3.9,3.9,0,0,1,1.21-.28V208h.83v.78a6.08,6.08,0,0,1,1.34.21,6.44,6.44,0,0,1,1,.35,2.87,2.87,0,0,1-.13.85c-.08.22-.17.42-.25.59h-.42l-.8-1.09-.33-.05-.39,0v4.27l.47.21c.33.16.65.33,1,.51a3.67,3.67,0,0,1,.83.62,2.7,2.7,0,0,1,.6.87,3.18,3.18,0,0,1,.22,1.27,2.62,2.62,0,0,1-.82,2,3.75,3.75,0,0,1-2.27,1v1h-.83Zm-1.55-9a2.2,2.2,0,0,0,.12.76,1.94,1.94,0,0,0,.33.58,2.14,2.14,0,0,0,.49.46,5.81,5.81,0,0,0,.61.38v-3.91a1.74,1.74,0,0,0-1.14.57A1.77,1.77,0,0,0,441.21,211.34Zm4,6.13a1.78,1.78,0,0,0-.48-1.32,3.82,3.82,0,0,0-1.17-.81v4.1a2.43,2.43,0,0,0,1.19-.7A1.8,1.8,0,0,0,445.24,217.47Z"/><path class="cls-2" d="M455.37,220.16h-5.54v-.69c.27-.12.54-.22.81-.31s.55-.17.82-.24v-7.34l.07-.94a4.79,4.79,0,0,1-.93.19,8.06,8.06,0,0,1-1,0l-.08-.59a18,18,0,0,0,1.85-.61,11.75,11.75,0,0,0,1.85-.9h.54v10.16c.27.07.53.15.8.24s.53.19.8.31Z"/><path class="cls-2" d="M457.77,214.56a9,9,0,0,1,.31-2.52,5.64,5.64,0,0,1,.86-1.81,3.64,3.64,0,0,1,1.32-1.1,3.8,3.8,0,0,1,1.65-.37,3.65,3.65,0,0,1,3,1.45,7,7,0,0,1,1.12,4.35,9,9,0,0,1-.31,2.52,5.22,5.22,0,0,1-.88,1.8,3.73,3.73,0,0,1-1.35,1.1,3.89,3.89,0,0,1-1.71.37,3.71,3.71,0,0,1-1.73-.39,3.45,3.45,0,0,1-1.27-1.14A5.42,5.42,0,0,1,458,217,10.55,10.55,0,0,1,457.77,214.56Zm2.4,0c0,.76,0,1.44.07,2.05a7.29,7.29,0,0,0,.27,1.53,2.28,2.28,0,0,0,.5,1,1,1,0,0,0,.79.34,1.48,1.48,0,0,0,.92-.27,1.89,1.89,0,0,0,.58-.86,6,6,0,0,0,.29-1.51c.06-.62.08-1.36.08-2.24s0-1.45-.06-2.05a7.38,7.38,0,0,0-.25-1.54,2.1,2.1,0,0,0-.53-1,1.26,1.26,0,0,0-.92-.33,1.28,1.28,0,0,0-.84.27,1.74,1.74,0,0,0-.54.85,6.68,6.68,0,0,0-.28,1.52C460.2,212.94,460.17,213.69,460.17,214.56Z"/><path class="cls-3" d="M595.5,420.44h5.18v.69a7.28,7.28,0,0,1-2,1v15.43h-1.37l-8.71-13.22-.93-1.87h-.08l.22,1.87v11.4a6.44,6.44,0,0,1,1.85.84v.7H584.5v-.7a6.74,6.74,0,0,1,.93-.47c.33-.13.67-.26,1-.37V422l-1-.41c-.31-.14-.6-.29-.87-.43v-.67h4.05l7.56,11.4,1.11,2.06h.09l-.12-2.06v-9.75c-.33-.14-.66-.29-1-.45a9,9,0,0,1-.87-.51Z"/><path class="cls-3" d="M612.68,437.24h-6.74v-.7c.35-.13.7-.24,1.06-.34s.75-.17,1.17-.24V421.68H604.5l-1.28,3.44h-.6c0-.32-.08-.69-.12-1.1s-.06-.82-.08-1.24,0-.84-.06-1.25,0-.77,0-1.09h13.94c0,.32,0,.68,0,1.08s0,.81-.07,1.23,0,.84-.07,1.25-.06.78-.11,1.12h-.63l-1.26-3.44h-3.65V436l1.17.24a6.32,6.32,0,0,1,1,.34Z"/><path class="cls-3" d="M623,437.52a9.1,9.1,0,0,1-1.39-.1,9.68,9.68,0,0,1-1.23-.29,6.86,6.86,0,0,1-1-.4,2.67,2.67,0,0,1-.68-.43c0-.16,0-.37,0-.64s0-.53.08-.8.06-.54.1-.79a2.12,2.12,0,0,1,.16-.6h.6l1.44,2.33a3.5,3.5,0,0,0,.81.32,5.3,5.3,0,0,0,1.08.16v-6.84a.2.2,0,0,1-.14-.05l-.77-.36a13.1,13.1,0,0,1-1.34-.7,4.85,4.85,0,0,1-1.14-.92,4.27,4.27,0,0,1-.79-1.26,4.43,4.43,0,0,1-.3-1.71,3.88,3.88,0,0,1,.33-1.6,4.22,4.22,0,0,1,.93-1.32,4.33,4.33,0,0,1,1.41-.93,5.92,5.92,0,0,1,1.81-.42V419h1.25v1.17a9.33,9.33,0,0,1,3.48.84,4,4,0,0,1-.2,1.27,7.05,7.05,0,0,1-.37.89h-.63l-1.2-1.63a4.61,4.61,0,0,0-.5-.07l-.58-.05v6.41l.7.31c.5.24,1,.49,1.45.76a5.87,5.87,0,0,1,1.26.93,4.05,4.05,0,0,1,.89,1.31,4.77,4.77,0,0,1,.34,1.89,4,4,0,0,1-1.23,3,5.62,5.62,0,0,1-3.41,1.46v1.47H623ZM620.65,424a3.33,3.33,0,0,0,.18,1.14,3,3,0,0,0,.49.88,4,4,0,0,0,.73.68,9,9,0,0,0,.92.57v-5.86a2.52,2.52,0,0,0-1.7.85A2.58,2.58,0,0,0,620.65,424Zm6.05,9.19a2.67,2.67,0,0,0-.73-2,5.92,5.92,0,0,0-1.75-1.21v6.15a3.64,3.64,0,0,0,1.78-1.05A2.72,2.72,0,0,0,626.7,433.2Z"/><path class="cls-3" d="M633.92,425.76h-.82l-.32-.84-.37-1c-.13-.36-.25-.7-.36-1.05s-.2-.66-.27-.95a7.7,7.7,0,0,1,2.15-1.24,8.33,8.33,0,0,1,3.18-.53,7,7,0,0,1,2.28.33,4.58,4.58,0,0,1,1.6.94,3.7,3.7,0,0,1,.93,1.39,4.8,4.8,0,0,1,.3,1.71,6,6,0,0,1-.67,2.77,12.84,12.84,0,0,1-1.65,2.45,20.11,20.11,0,0,1-2.12,2.11l-2,1.76-1.24.84v.1l1.46-.15h4.13l1.17-2.68h.82c0,.38.1.83.16,1.34l.15,1.55c.05.52.09,1,.12,1.49s0,.85,0,1.14h-11V435.7l1.41-1.28c.53-.49,1.07-1,1.61-1.61s1.08-1.21,1.61-1.86a19.93,19.93,0,0,0,1.42-2,11.5,11.5,0,0,0,1-2.07,6.16,6.16,0,0,0,.37-2.07,3.17,3.17,0,0,0-.7-2.14,2.48,2.48,0,0,0-2-.83,4.12,4.12,0,0,0-.73.05,4.87,4.87,0,0,0-.73.16Z"/><path class="cls-3" d="M645.15,428.84a13.75,13.75,0,0,1,.47-3.78,8.1,8.1,0,0,1,1.3-2.72,5.47,5.47,0,0,1,2-1.64,5.61,5.61,0,0,1,2.49-.55,5.45,5.45,0,0,1,4.56,2.17q1.68,2.18,1.68,6.52a13.8,13.8,0,0,1-.47,3.78,7.88,7.88,0,0,1-1.32,2.71,5.59,5.59,0,0,1-2,1.64,5.93,5.93,0,0,1-2.57.55,5.55,5.55,0,0,1-2.59-.58,5.37,5.37,0,0,1-1.91-1.71,8,8,0,0,1-1.17-2.72A15.11,15.11,0,0,1,645.15,428.84Zm3.6,0c0,1.14,0,2.17.11,3.07a10.28,10.28,0,0,0,.4,2.3,3.72,3.72,0,0,0,.75,1.45,1.57,1.57,0,0,0,1.19.5,2.24,2.24,0,0,0,1.38-.41,2.69,2.69,0,0,0,.86-1.29,8.73,8.73,0,0,0,.45-2.26q.12-1.38.12-3.36c0-1.15,0-2.17-.1-3.08a11.06,11.06,0,0,0-.37-2.3,3.29,3.29,0,0,0-.79-1.44,1.89,1.89,0,0,0-1.38-.5,1.93,1.93,0,0,0-1.27.4,2.71,2.71,0,0,0-.81,1.29,9.91,9.91,0,0,0-.42,2.28C648.79,426.42,648.75,427.53,648.75,428.84Z"/><path class="cls-3" d="M595,468.32a13.42,13.42,0,0,1-1.71-1.46,8.92,8.92,0,0,1-1.38-1.78,9,9,0,0,1-.92-2.2,10.29,10.29,0,0,1-.33-2.72,9.53,9.53,0,0,1,.34-2.66,9.09,9.09,0,0,1,.94-2.18,10.27,10.27,0,0,1,1.39-1.83A20.11,20.11,0,0,1,595,451.9l.38.32a19.16,19.16,0,0,0-1.32,1.59,9.82,9.82,0,0,0-1,1.76,10.12,10.12,0,0,0-.66,2.08,12.12,12.12,0,0,0-.23,2.51,11.58,11.58,0,0,0,.25,2.5,10.77,10.77,0,0,0,.69,2.1,9.79,9.79,0,0,0,1,1.76,12.42,12.42,0,0,0,1.25,1.44Z"/><path class="cls-3" d="M603.51,455.45h-.45c-.14-.35-.27-.76-.41-1.23s-.26-.91-.35-1.33a4.73,4.73,0,0,1,1.51-.86,5.93,5.93,0,0,1,1.91-.31,4.23,4.23,0,0,1,1.55.25,3,3,0,0,1,1.07.69,2.59,2.59,0,0,1,.62,1,3.55,3.55,0,0,1,.2,1.17,5.09,5.09,0,0,1-.47,2.07,12,12,0,0,1-1.16,2.06,17.29,17.29,0,0,1-1.5,1.89c-.54.58-1,1.1-1.5,1.54l-.75.71v.07l1-.11h3.1l.88-2h.45c0,.27,0,.56.07.87s.05.62.07.94,0,.63,0,.92,0,.55,0,.77H602V464l1-1c.38-.39.77-.83,1.18-1.31s.81-1,1.21-1.53a14.94,14.94,0,0,0,1.07-1.65,10.68,10.68,0,0,0,.77-1.66,4.69,4.69,0,0,0,.3-1.59,3.53,3.53,0,0,0-.14-1,2.51,2.51,0,0,0-.4-.82,2.07,2.07,0,0,0-.66-.55,2,2,0,0,0-.89-.19,3.39,3.39,0,0,0-.67,0c-.19,0-.4.09-.63.16Z"/><path class="cls-3" d="M611.84,458.24a8.94,8.94,0,0,1,1.08-4.88,3.85,3.85,0,0,1,6.28,0,9.47,9.47,0,0,1,1,4.91,8.8,8.8,0,0,1-1.09,4.87,3.6,3.6,0,0,1-3.21,1.64,3.65,3.65,0,0,1-1.87-.44,3.3,3.3,0,0,1-1.26-1.28,6.28,6.28,0,0,1-.72-2A15.09,15.09,0,0,1,611.84,458.24Zm1.73,0a21.11,21.11,0,0,0,.12,2.36,8.32,8.32,0,0,0,.41,1.82,2.85,2.85,0,0,0,.72,1.17,1.48,1.48,0,0,0,1.07.41,2,2,0,0,0,2-1.39,12.14,12.14,0,0,0,.58-4.37,21.19,21.19,0,0,0-.11-2.35,7.16,7.16,0,0,0-.39-1.81,2.88,2.88,0,0,0-.77-1.17,1.77,1.77,0,0,0-1.19-.41,1.94,1.94,0,0,0-1.9,1.39A12.61,12.61,0,0,0,613.57,458.25Z"/><path class="cls-3" d="M621.94,458.24a8.94,8.94,0,0,1,1.08-4.88,3.85,3.85,0,0,1,6.28,0,9.47,9.47,0,0,1,1,4.91,8.89,8.89,0,0,1-1.09,4.87,3.6,3.6,0,0,1-3.21,1.64,3.68,3.68,0,0,1-1.88-.44,3.44,3.44,0,0,1-1.26-1.28,6.52,6.52,0,0,1-.71-2A15.09,15.09,0,0,1,621.94,458.24Zm1.73,0a21.11,21.11,0,0,0,.12,2.36,8.32,8.32,0,0,0,.41,1.82,2.85,2.85,0,0,0,.72,1.17A1.48,1.48,0,0,0,626,464a2,2,0,0,0,2-1.39,12.09,12.09,0,0,0,.59-4.37c0-.86,0-1.64-.11-2.35a7.16,7.16,0,0,0-.39-1.81,3,3,0,0,0-.77-1.17,1.8,1.8,0,0,0-1.2-.41,2,2,0,0,0-1.9,1.39A12.91,12.91,0,0,0,623.67,458.25Z"/><path class="cls-3" d="M632.25,455.77a4.91,4.91,0,0,1,.26-1.62,3.56,3.56,0,0,1,.78-1.28,3.49,3.49,0,0,1,1.26-.84,4.86,4.86,0,0,1,3.52,0,3.34,3.34,0,0,1,1.27,1,4,4,0,0,1,.74,1.54,7.93,7.93,0,0,1,.23,2,9.58,9.58,0,0,1-.48,3.09,8.63,8.63,0,0,1-1.32,2.5,6.94,6.94,0,0,1-2,1.73,6.41,6.41,0,0,1-2.46.83l-.33-.52a6,6,0,0,0,3.29-2.17,6.79,6.79,0,0,0,.94-1.69,8.48,8.48,0,0,0,.51-1.95,3.77,3.77,0,0,1-1,.72,3.32,3.32,0,0,1-1.54.3,4.44,4.44,0,0,1-1.49-.24,3.14,3.14,0,0,1-1.17-.71,3.32,3.32,0,0,1-.77-1.15A4.07,4.07,0,0,1,632.25,455.77Zm1.73,0a3.2,3.2,0,0,0,.16,1,2.76,2.76,0,0,0,.47.88,2.21,2.21,0,0,0,.74.62,2,2,0,0,0,1,.24,3.06,3.06,0,0,0,1.43-.3,2.07,2.07,0,0,0,.84-.75,4.62,4.62,0,0,0,0-.58v-.55a6.64,6.64,0,0,0-.13-1.32,4.09,4.09,0,0,0-.43-1.22,2.57,2.57,0,0,0-.75-.88,2,2,0,0,0-2.76.51A4.16,4.16,0,0,0,634,455.75Z"/><path class="cls-3" d="M646.72,468a11.25,11.25,0,0,0,1.25-1.47,10,10,0,0,0,1-1.82,10.8,10.8,0,0,0,.68-2.17,11.82,11.82,0,0,0,.26-2.52,11.66,11.66,0,0,0-.24-2.48,9.37,9.37,0,0,0-.65-2,9.11,9.11,0,0,0-1-1.71,18.71,18.71,0,0,0-1.32-1.55l.38-.32a19.16,19.16,0,0,1,1.72,1.49,9.2,9.2,0,0,1,1.39,1.77,8.77,8.77,0,0,1,.94,2.16,9.53,9.53,0,0,1,.34,2.66,11,11,0,0,1-.32,2.73,9.79,9.79,0,0,1-.9,2.25,9,9,0,0,1-1.38,1.85,11.93,11.93,0,0,1-1.74,1.51Z"/><g class="cls-4"><path class="cls-5" d="M0,0C12.37,11.52,53.45,51.57,70.83,69.51c6.77,6.84,11.88,12.11,15.63,16.13,3.15,3.4-4.26-4.36-15.63-16.13C65.68,64.31,59.58,58.19,52.36,51,61.09,60.21,69.27,69.23,75,75.83l13.54,14c20.08,20.85,39.67,40.85,59.05,61.95,7,7.68,22.71,24,29.11,31.83q-43.3-45.88-87.06-91.34l2.26,2.55q22.75,24.12,45.19,48.58c2.59,2.73,5.16,5.52,7.74,8.46l-7.74-8.46c-6.76-7.12-13.56-13.82-21-21.53-4.5-4.84-9.45-10.56-14-15.37-3.68-4-6.83-7.82-10.22-11.68l-6.8-7.2c-.7-.67-1.44-1.39-2.18-2.14a.67.67,0,0,1,.07.11c2.34,3.46,17.45,20.71,32.81,38.71s31.14,36.57,36,41.47c7.68,7.91,16.32,13.49,25,22.17,2.89,2.91,4.72,6,7.33,7.8.52-.08,1.83.83,3.16,1.74,5.8,5.74,10.17,12.94,15.5,16.5,1.73,1.39,3.33,5.69,4.63,9.66s2.34,7.61,3.2,7.43c6.28-1.4,1.73-.41,8.38,7.63.75,1,5.21,2.35,6.75,4.37,4.72,7.28,7.86,7.7,15.05,14.31a67.28,67.28,0,0,1,11,11.39,33.58,33.58,0,0,0,11.38,9.36c.71.41,5,3.77,9.18,7l8.18,6.34c5.22,5.9,10.18,10,14.44,14.09s7.84,8.34,10.11,14.74c6.6,3.41,12.21,9.48,17.47,16.06s10.19,13.66,15.75,18.77c11.14,10.22,12.34,17.91,18.45,30.47,2.11,3.22,4.35,5,4.92,7.53s6.82,3.86,8.93,7.08l-2.52,1.19c.7,1.08,2.08,3.24,2.78,4.33s-.16,1.49-1,1.89c-1.69.79-3.37,1.58-2.84,4.17a140.17,140.17,0,0,0,8.18,14.62q6.87,4.68,14.07,8.71a9.88,9.88,0,0,1,3.54-1.53l4.69,2c2.67-1.33,4.67-3.76,6.46-4.65,5.73-5.71,16-6.61,20.19-13,1.1-2-4.91-8.87-5.18-14.38.14-1.48,3.57-1.78,6.27-3.15-3.89-3.67-2-6,1.48-6.35l-1.52-2,3.59-1.8c-3.76-5.8-7.29-12.38-11.46-18.28s-9-11.12-15.06-14.35c-2.43-1.58-7.34-3.35-10.59-4.55-1.61-.61-3.13-4-3.93-5-3.28.16-5,2.3-7.45,3.44C375,343,362.26,325.9,356.72,332.3c-5.48-5.62-9.39-4-15.59-9.32-8.33-7-18.61-16.15-28.63-25.3-5.72-4.76-10.78-9.77-16-14.74-2-1.83-3.86-3.62-5.68-5.31-19.67-18.36-35.78-35.3-52.3-51.6S205.18,194,185,177.06c-20.32-17.1-40-35.75-58.79-54S89.62,86.75,73.44,70.68,42.75,40.39,31,29.15,10.38,9.61,5.6,5.17Z"/></g><line class="cls-6" x1="396.39" y1="211" x2="210" y2="211"/><path class="cls-3" d="M210,208a3,3,0,1,0,3,3A3,3,0,0,0,210,208Z"/><line class="cls-6" x1="245" y1="105.5" x2="105" y2="105.5"/><path class="cls-3" d="M105,102.5a3,3,0,1,0,3,3A3,3,0,0,0,105,102.5Z"/><line class="cls-6" x1="560" y1="422" x2="420" y2="422"/><path class="cls-3" d="M420,419a3,3,0,1,0,3,3A3,3,0,0,0,420,419Z"/></g></svg>