<svg id="圖層_1" data-name="圖層 1" xmlns="http://www.w3.org/2000/svg" viewBox="0 0 300.26 340.57"><defs><style>.cls-1{opacity:0.8;}.cls-2{fill:#c4cffb;}.cls-3{fill:none;stroke:#bdc9fb;stroke-miterlimit:10;stroke-width:2px;}.cls-4{fill:#f687a8;}</style></defs><title>利斧_美</title><g class="cls-1"><path class="cls-2" d="M150.16,0a163.34,163.34,0,0,1,30.08,3.07l4.81,1.11,2.47.57,2.49.7c1.67.48,3.37,1,5.08,1.46l5.14,1.75A152,152,0,0,1,221,17.84a157.68,157.68,0,0,1,19.6,12.58,154.5,154.5,0,0,1,16.89,14.93l3.7,3.89c1.16,1.33,2.29,2.65,3.41,3.94s2.18,2.6,3.19,3.9,2,2.55,3,3.83l2.68,3.77c.43.62.87,1.21,1.27,1.83l1.17,1.82,2.23,3.48c.71,1.12,1.32,2.26,1.94,3.33,2,3.26,3.53,6.49,5.07,9.48.74,1.51,1.38,3,2,4.45s1.3,2.82,1.81,4.2C290,96,291.1,98.55,291.85,101s1.62,4.64,2.16,6.75c.5,1.77.58,2.07.32,1.14s-.81-3.11-1.91-6.2A145.67,145.67,0,0,0,280,75.14a149,149,0,0,0-25.32-32.53,149.74,149.74,0,0,1,18.61,22,142.53,142.53,0,0,1,12,21,146.25,146.25,0,0,1,10.2,28.93,150.71,150.71,0,0,1,4.11,33.71,147.24,147.24,0,0,1-32.18,93.5,152.17,152.17,0,0,1-24,24l-3.82,2.95c-1.26,1-2.6,1.84-3.87,2.75-2.54,1.85-5.17,3.41-7.62,5-1.21.8-2.48,1.44-3.66,2.11l-3.43,1.91c-2.24,1.14-4.29,2.12-6.06,3a148.77,148.77,0,0,0,81.12-165c.42,1.75.64,3.53.94,5.27a149.08,149.08,0,0,1,2.15,26,152.28,152.28,0,0,1-2.46,25.92,142.68,142.68,0,0,1-6.89,25,146.83,146.83,0,0,1-11.22,23.38,138.58,138.58,0,0,1-10,14.84,149.32,149.32,0,0,0,10-14.84,135.12,135.12,0,0,0,10-20.7,152.8,152.8,0,0,0,6.89-23A147.65,147.65,0,0,0,299,148a145,145,0,0,0-1.91-24.27l-.66-3.84-.85-3.81c-.3-1.27-.54-2.55-.88-3.81l-1-3.76c-.42-1.46-.84-3-1.41-4.6l.06.2c.12.38.26.88.44,1.48s.34,1.33.55,2.14c.4,1.63,1,3.63,1.51,6a149.33,149.33,0,0,1,3,18.09,147.53,147.53,0,0,1-12.45,76.37,141.94,141.94,0,0,1-12.26,21.72A143.49,143.49,0,0,1,260.8,245.7c-.94,1-1.8,2-2.64,2.93l-2.41,2.47-2,2.07c-.61.62-1.18,1.13-1.66,1.6A171.74,171.74,0,0,1,233,271a128.74,128.74,0,0,1-22.87,13.41c-2.86,1.38-5.66,2.3-8.22,3.28-1.27.51-2.55.88-3.76,1.3s-2.39.85-3.53,1.3a33.86,33.86,0,0,1-5,1.9l-2.29.65c-.77.21-1.54.36-2.32.54l-4.61,1c-1.54.3-3.08.52-4.59.77s-3,.53-4.51.66c-3,.3-5.84.74-8.6.89-1.38.11-2.71.23-4,.36s-2.57.17-3.79.29a43.14,43.14,0,0,1-7-.25l-4.3-.5c-1.47-.16-2.93-.5-4.36-.74l-4.09-.76-3.46-.79a18.33,18.33,0,0,0-3.83-.62c-2.75.48-3.15.54-4.8.12-.82-.23-2-.5-3.86-1.09-1-.28-2.08-.61-3.47-1-.69-.19-1.45-.36-2.27-.6l-2.65-.79c-.46-.14-1.2-.31-2.11-.5s-2-.37-3.09-.67a59.49,59.49,0,0,1-6.53-1.91c-6-2.54-9.93-4.23-14-6.1L82,279.68l-1.66-.78-1.78-.9-3.85-2.06c-1.38-.76-2.82-1.69-4.44-2.66-2.44-1.39-4.48-2.89-6.41-4.19s-3.56-2.64-5.12-3.82c-.78-.61-1.53-1.18-2.24-1.77l-2-1.75c-1.3-1.16-2.58-2.2-3.76-3.34-2.35-2.27-4.71-4.42-7.22-7l-2-2c-.68-.69-1.35-1.44-2.07-2.2-1.43-1.53-3.06-3.13-4.68-5A137.37,137.37,0,0,1,24,227.88c-1.15-1.69-2.14-3.46-3.15-5.06-.48-.82-1-1.58-1.39-2.34s-.8-1.47-1.16-2.13c-.72-1.31-1.31-2.4-1.72-3.17S16,214,16,214A157.81,157.81,0,0,1,5.26,184.24a122.25,122.25,0,0,1-3.55-27.33,136.07,136.07,0,0,1,2.47-37.07A155.88,155.88,0,0,1,16.62,83.61,142.12,142.12,0,0,1,31.54,59.53,151.12,151.12,0,0,1,49.17,40.26c2.18-2,4.18-3.69,5.89-5.21l4.7-3.73c.68-.55,1.62-1.26,2.74-2.05l3.7-2.7c1.34-.94,2.8-1.86,4.2-2.79l2.07-1.35c.69-.43,1.37-.81,2-1.19l-1.24.8,3.43-2c1.29-.75,2.57-1.5,3.47-1.94,1.76-.91,1.33-.66.9-.42-.87.49-1.72,1,1.37-.6a150.36,150.36,0,0,1,23.5-9.7,147.86,147.86,0,0,1,24.76-5.52l2.19-.32,1.85-.25c.62-.06,1.24-.1,1.86-.15l3.71-.3c1.48-.14,1-.14,2-.23a14.18,14.18,0,0,1,1.58-.12l3.3-.14c2.3-.11,4.28-.17,3-.19-.49,0-4.36,0-8.89.25-2.27.18-4.71.32-7,.54l-6,.74c-1.49.17,2-.29,3.44-.51-2.1.28-3.72.45-4.88.64l-2.27.39c-.74.12,0,0,1.7-.35l-3.92.7,2-.39a151.69,151.69,0,0,0-32,9.2,147.78,147.78,0,0,0-28.81,16L60.4,29.6l-3.5,2.75c-2.44,1.84-4.74,4-6.63,5.58-1,.79-2.39,2.18-3.79,3.51S43.71,44,43,44.74c-2.39,2.55-2,2.21-3,3.31-2.63,2.83-5.92,6.58-9.15,10.78-.4.52-.83,1-1.23,1.58l-1.17,1.64L26.1,65.34c-1.54,2.22-2.93,4.5-4.32,6.63l-3.57,6.17c-1,1.93-1.89,3.68-2.64,5.11S14.3,85.86,14,86.64a5.91,5.91,0,0,0-.43,1L11.8,91.55l-1.3,3.31c-.8,2-1.51,3.78-2.08,5.6s-1.25,3.6-1.89,5.76l-1,3.53c-.34,1.25-.8,2.67-1.13,4.25A147.32,147.32,0,0,0,.21,142.25,150.64,150.64,0,0,0,1.9,174a152.61,152.61,0,0,0,9.28,33.08c.2.49.39,1,.58,1.48s.44,1,.65,1.44l1.28,2.83c.43.94.83,1.88,1.27,2.78s.92,1.78,1.36,2.65a150.16,150.16,0,0,0,277.77-25.35,151.73,151.73,0,0,0,5.16-60.23,149.44,149.44,0,0,0-17-53.87A153.31,153.31,0,0,0,250.94,38.9,159.11,159.11,0,0,0,233.08,25l-4.49-2.88c-1.48-.93-3-1.75-4.48-2.62l-2.2-1.27c-.74-.4-1.49-.77-2.22-1.15l-4.36-2.24a151.93,151.93,0,0,0-31.51-11A142,142,0,0,0,162.21.49C158.2.11,154.18.1,150.16,0Z"/></g><path class="cls-3" d="M229.5,149.73s20,15,32,25.15c-.71,2.58-3.29,3.76-6.82,3.76H166.05c-7.76,33.84-29.61,57.57-118.91,70.73L46,246.08c57.81-18.56,75.91-39.71,82-67.44H56.07l-1.88-6.58h75a211.4,211.4,0,0,0,2.12-28.44L178,146.68c-.47,3.29-2.82,5.87-8.22,6.58-.71,6.58-1.41,12.92-2.59,18.8h44.65Zm-95.88-14.8V106.49H72.52l-1.88-6.58h63V73.36H60.3l-1.88-6.58h52.87a28.53,28.53,0,0,1-4.93-3.06C105.42,50.56,99.07,36.93,92,28.24l1.65-1.18c52.4,1.88,51.46,31.49,35.72,39.72h37.36c4.23-12.22,8-28.91,10.11-40.42l43.94,8.69c-.94,3.06-3.29,5.17-8.93,5.17-8.93,8-23.5,18.33-37.13,26.56h33.61l16.92-21.39S244.52,59.73,256,69.6c-.7,2.58-3.29,3.76-6.81,3.76H171V99.91h24.44l16-19.74s18.1,13.16,29.14,22.56c-.7,2.59-3.29,3.76-6.58,3.76H171v28.44h40.89l17.39-22.8s19.74,15.28,31.26,25.62c-.47,2.58-3.29,3.76-6.58,3.76H49.49l-1.88-6.58Zm36.66,51c110.21,1.88,101.75,71.91,64.39,60.16-15.28-20.68-43.48-44.65-66-58.28Z"/><path class="cls-4" d="M150.6,296.5l.4,8,.3,8c.09,2.67.35,5.34.2,8a51.16,51.16,0,0,1-.9,8,.1.1,0,0,1-.11.08h0a.13.13,0,0,1-.08-.08,53.67,53.67,0,0,1-.9-8c-.15-2.66.11-5.33.2-8l.3-8,.4-8c0-.05.06-.1.11-.09h0A.09.09,0,0,1,150.6,296.5Z"/><path class="cls-4" d="M146.74,296.5a3.76,3.76,0,1,1,3.76,3.76,3.76,3.76,0,0,1-3.76-3.76Z"/><path class="cls-4" d="M150.5,340.57c-2.11-5.68-5.7-12.72-9.51-17.09l9.51,3.44,9.51-3.44C156.2,327.85,152.61,334.89,150.5,340.57Z"/></svg>