<svg xmlns="http://www.w3.org/2000/svg" viewBox="0 0 437.74 426.05"><defs><style>.cls-1{fill:#f6a3a8;}.cls-2{fill:#f687a8;}.cls-3{opacity:0.8;}.cls-4{fill:#6673ae;}.cls-5,.cls-6,.cls-7,.cls-8{fill:none;stroke-linecap:round;stroke-linejoin:round;}.cls-10,.cls-5,.cls-6,.cls-7,.cls-8{stroke:#f687a8;stroke-width:0.5px;}.cls-6{stroke-dasharray:1.99 7.96;}.cls-7{stroke-dasharray:2 8;}.cls-8{stroke-dasharray:1.98 7.91;}.cls-9{fill:#d8dafa;}.cls-10{fill:#f4f2f2;stroke-miterlimit:10;}</style></defs><title>國產菸市占率</title><g id="圖層_2" data-name="圖層 2"><path class="cls-1" d="M183.73,426.05a9.72,9.72,0,0,1-1.14-1,6.3,6.3,0,0,1-.92-1.19,6.06,6.06,0,0,1-.61-1.47,6.7,6.7,0,0,1-.22-1.81,6.45,6.45,0,0,1,.22-1.77,6.19,6.19,0,0,1,.63-1.46,6.39,6.39,0,0,1,.93-1.21,12.87,12.87,0,0,1,1.14-1.07l.26.22a10.74,10.74,0,0,0-.88,1.06,6.75,6.75,0,0,0-.68,1.17,7.29,7.29,0,0,0-.44,1.39,8.57,8.57,0,0,0-.15,1.67,7.18,7.18,0,0,0,.17,1.66,6.66,6.66,0,0,0,.46,1.41,6.08,6.08,0,0,0,.68,1.17,7.8,7.8,0,0,0,.84,1Z"/><path class="cls-1" d="M192.93,423.53h-3.5v-.35a4.92,4.92,0,0,1,.6-.23c.21-.07.41-.13.62-.18v-5.89l0-.71a3.29,3.29,0,0,1-.7.19,4.47,4.47,0,0,1-.74,0l-.06-.29a10.33,10.33,0,0,0,1.14-.45,4.74,4.74,0,0,0,1.09-.68h.3v7.79l.6.18a4.92,4.92,0,0,1,.6.23Z"/><path class="cls-1" d="M195.13,417.68a3.4,3.4,0,0,1,.17-1.08,2.47,2.47,0,0,1,.52-.85,2.34,2.34,0,0,1,.84-.56,2.9,2.9,0,0,1,1.14-.21,2.81,2.81,0,0,1,1.21.24,2.28,2.28,0,0,1,.85.65,2.82,2.82,0,0,1,.49,1,5.55,5.55,0,0,1,.15,1.34,6.22,6.22,0,0,1-.32,2.06,5.71,5.71,0,0,1-.88,1.66,4.56,4.56,0,0,1-1.32,1.16,4.2,4.2,0,0,1-1.64.55l-.22-.35a3.9,3.9,0,0,0,1.26-.56,4.1,4.1,0,0,0,.93-.88,4.62,4.62,0,0,0,.63-1.13,5.65,5.65,0,0,0,.34-1.3,2.44,2.44,0,0,1-.65.48,2.17,2.17,0,0,1-1,.2,3,3,0,0,1-1-.16,2.36,2.36,0,0,1-.78-.47,2.46,2.46,0,0,1-.51-.77A2.85,2.85,0,0,1,195.13,417.68Zm1.15,0a2.25,2.25,0,0,0,.11.68,1.75,1.75,0,0,0,.31.59,1.6,1.6,0,0,0,.49.41,1.28,1.28,0,0,0,.65.16,2.06,2.06,0,0,0,.95-.2,1.31,1.31,0,0,0,.56-.5,2.06,2.06,0,0,0,0-.39v-.36a4.56,4.56,0,0,0-.09-.89,2.88,2.88,0,0,0-.29-.81,1.56,1.56,0,0,0-.5-.58,1.19,1.19,0,0,0-.74-.23,1.24,1.24,0,0,0-1.1.57A2.8,2.8,0,0,0,196.28,417.67Z"/><path class="cls-1" d="M201.88,421.64a2,2,0,0,1,.15-.77,2.48,2.48,0,0,1,.4-.66,2.85,2.85,0,0,1,.62-.52,3.12,3.12,0,0,1,.78-.37,5.78,5.78,0,0,1-.64-.4,2.38,2.38,0,0,1-.51-.49,2.16,2.16,0,0,1-.34-.61,1.92,1.92,0,0,1-.13-.74,2,2,0,0,1,.17-.85,2,2,0,0,1,.47-.66,2.3,2.3,0,0,1,.75-.43,3,3,0,0,1,1-.16,2.38,2.38,0,0,1,1.65.54,1.87,1.87,0,0,1,.13,2.59,3.58,3.58,0,0,1-1.19.86,5.09,5.09,0,0,1,.78.48,3.41,3.41,0,0,1,.62.57,2.8,2.8,0,0,1,.41.68,2.09,2.09,0,0,1,.15.79,2.21,2.21,0,0,1-.17.84,2,2,0,0,1-.52.69,2.59,2.59,0,0,1-.85.48,3.62,3.62,0,0,1-1.15.17,3.26,3.26,0,0,1-1.14-.17,2.29,2.29,0,0,1-.8-.45,1.61,1.61,0,0,1-.47-.64A1.87,1.87,0,0,1,201.88,421.64Zm4.18.07a1.68,1.68,0,0,0-.16-.75,2.23,2.23,0,0,0-.43-.59,4.42,4.42,0,0,0-.62-.48l-.72-.39a2.29,2.29,0,0,0-.58.45,2.22,2.22,0,0,0-.37.53,2,2,0,0,0-.2.54,2.25,2.25,0,0,0-.06.49,2,2,0,0,0,.09.59,1.44,1.44,0,0,0,.78.9,1.68,1.68,0,0,0,.75.14,1.76,1.76,0,0,0,.66-.12,1.7,1.7,0,0,0,.48-.33,1.5,1.5,0,0,0,.28-.47A1.32,1.32,0,0,0,206.06,421.71Zm-2.82-4.78a1.48,1.48,0,0,0,.14.65,1.59,1.59,0,0,0,.37.49,3,3,0,0,0,.52.41c.2.12.41.23.62.33a2.58,2.58,0,0,0,.71-.81,2,2,0,0,0,.21-.9,1.72,1.72,0,0,0-.34-1.15,1.1,1.1,0,0,0-.91-.4,1.26,1.26,0,0,0-1,.43,1.2,1.2,0,0,0-.25.44A1.44,1.44,0,0,0,203.24,416.93Z"/><path class="cls-1" d="M214.05,421a2.74,2.74,0,0,1-.73,1.89,2.5,2.5,0,0,1-.84.57,2.75,2.75,0,0,1-1.09.21,2.94,2.94,0,0,1-1.19-.23,2.58,2.58,0,0,1-.87-.66,2.77,2.77,0,0,1-.53-1,4.26,4.26,0,0,1-.18-1.26,5.56,5.56,0,0,1,.37-2.07,5.91,5.91,0,0,1,1-1.67,5.8,5.8,0,0,1,1.41-1.21,5.68,5.68,0,0,1,1.67-.67l.13.36a5.13,5.13,0,0,0-1.21.62,5.25,5.25,0,0,0-1,.92,4.94,4.94,0,0,0-.75,1.18,4.45,4.45,0,0,0-.37,1.41,1.76,1.76,0,0,1,.68-.59,2.34,2.34,0,0,1,1.14-.27,2.69,2.69,0,0,1,1,.16,2.35,2.35,0,0,1,.76.48,2.26,2.26,0,0,1,.49.77A2.85,2.85,0,0,1,214.05,421Zm-1.15.1a2.3,2.3,0,0,0-.41-1.4,1.39,1.39,0,0,0-1.16-.54,1.68,1.68,0,0,0-1.54.92c0,.11,0,.24,0,.4v.36a3.11,3.11,0,0,0,.1.79,2.57,2.57,0,0,0,.31.74,1.89,1.89,0,0,0,.53.56,1.31,1.31,0,0,0,.74.21,1.2,1.2,0,0,0,.66-.17,1.45,1.45,0,0,0,.45-.47,2.52,2.52,0,0,0,.26-.65A3.82,3.82,0,0,0,212.9,421.1Z"/><path class="cls-1" d="M218.24,425.81a7.27,7.27,0,0,0,.83-1,6.42,6.42,0,0,0,.68-1.21,7.93,7.93,0,0,0,.46-1.45,8.48,8.48,0,0,0,0-3.33,6.67,6.67,0,0,0-.43-1.35,6.44,6.44,0,0,0-.67-1.14c-.27-.35-.56-.69-.88-1l.25-.22a14,14,0,0,1,1.15,1,6.37,6.37,0,0,1,.93,1.18,5.85,5.85,0,0,1,.62,1.44,6.43,6.43,0,0,1,.23,1.77,6.88,6.88,0,0,1-.22,1.82,5.88,5.88,0,0,1-.6,1.5,6.48,6.48,0,0,1-.91,1.24,9.14,9.14,0,0,1-1.16,1Z"/><path class="cls-1" d="M185.61,398.56a3.64,3.64,0,0,1,.29-1.49,3.59,3.59,0,0,1,.8-1.16,4,4,0,0,1,1.24-.76,4.55,4.55,0,0,1,1.6-.27,4.4,4.4,0,0,1,1.67.31,3.5,3.5,0,0,1,1.25.88,3.63,3.63,0,0,1,.77,1.36,5.65,5.65,0,0,1,.27,1.79,8.08,8.08,0,0,1-.45,2.74,6.8,6.8,0,0,1-1.27,2.21,6.5,6.5,0,0,1-2,1.55,7,7,0,0,1-2.51.75l-.37-.69a5.17,5.17,0,0,0,2.83-1.73A6.24,6.24,0,0,0,191,401a2.46,2.46,0,0,1-.8.65,2.8,2.8,0,0,1-1.28.26,3.88,3.88,0,0,1-1.29-.21,2.91,2.91,0,0,1-1.78-1.68A3.74,3.74,0,0,1,185.61,398.56Zm2.4-.09a3.6,3.6,0,0,0,.1.88,2.68,2.68,0,0,0,.31.73,1.58,1.58,0,0,0,.52.51,1.37,1.37,0,0,0,.72.18,1.86,1.86,0,0,0,.84-.18,1.35,1.35,0,0,0,.57-.51c0-.14,0-.31,0-.51s0-.4,0-.59a7.47,7.47,0,0,0-.09-1.19,3.93,3.93,0,0,0-.28-1,1.85,1.85,0,0,0-.5-.68,1.11,1.11,0,0,0-.75-.25,1.2,1.2,0,0,0-1.15.65A4.29,4.29,0,0,0,188,398.47Z"/><path class="cls-1" d="M194.94,403.76a2.65,2.65,0,0,1,.72-1.88,4.47,4.47,0,0,1,1.88-1.13,5.36,5.36,0,0,1-1.55-1.28,2.72,2.72,0,0,1-.59-1.72,2.58,2.58,0,0,1,.25-1.15,2.56,2.56,0,0,1,.71-.9,3.3,3.3,0,0,1,1.13-.6,4.62,4.62,0,0,1,1.49-.22,5,5,0,0,1,1.4.19,3.51,3.51,0,0,1,1.08.53,2.35,2.35,0,0,1,.69.82,2.31,2.31,0,0,1,.24,1.05,2.39,2.39,0,0,1-.64,1.67,3.63,3.63,0,0,1-1.61,1,11.28,11.28,0,0,1,1.19.73,5.27,5.27,0,0,1,.84.77,3,3,0,0,1,.5.85,2.78,2.78,0,0,1,.17,1,2.71,2.71,0,0,1-.26,1.17,2.91,2.91,0,0,1-.77.95,3.51,3.51,0,0,1-1.25.64,5.63,5.63,0,0,1-1.72.24,5.78,5.78,0,0,1-1.62-.21,4.06,4.06,0,0,1-1.24-.57,2.62,2.62,0,0,1-.77-.86A2.18,2.18,0,0,1,194.94,403.76Zm5.6.18a2.06,2.06,0,0,0-.2-.93,2.71,2.71,0,0,0-.52-.7,4.57,4.57,0,0,0-.76-.57l-.91-.55a2.22,2.22,0,0,0-.77,1,3.38,3.38,0,0,0-.11,1.92,1.92,1.92,0,0,0,.31.68,1.73,1.73,0,0,0,.55.49,1.58,1.58,0,0,0,.82.19,1.6,1.6,0,0,0,.69-.13,1.34,1.34,0,0,0,.49-.34,1.59,1.59,0,0,0,.3-.5A1.62,1.62,0,0,0,200.54,403.94Zm-3-6.53a1.92,1.92,0,0,0,.53,1.35,4.86,4.86,0,0,0,1.39,1,2.49,2.49,0,0,0,.63-.92,3.45,3.45,0,0,0,.18-1.16,2.18,2.18,0,0,0-.37-1.39,1.38,1.38,0,0,0-2,0A1.84,1.84,0,0,0,197.58,397.41Z"/><path class="cls-1" d="M204.42,397.6a2.7,2.7,0,0,1,.23-1.12,2.52,2.52,0,0,1,.63-.85,2.81,2.81,0,0,1,1-.56,4,4,0,0,1,1.25-.19,4.5,4.5,0,0,1,1.25.17,2.7,2.7,0,0,1,1,.5,2.31,2.31,0,0,1,.62.85,3,3,0,0,1,.23,1.2,2.75,2.75,0,0,1-.23,1.13,2.43,2.43,0,0,1-.62.86,2.94,2.94,0,0,1-1,.54,3.86,3.86,0,0,1-1.25.19,4.07,4.07,0,0,1-1.25-.17,2.7,2.7,0,0,1-1-.5,2.25,2.25,0,0,1-.63-.85A3,3,0,0,1,204.42,397.6Zm10.39-2.77.77.68-9.36,11-.76-.69Zm-8.47,2.77c0,1.27.39,1.91,1.16,1.91a1,1,0,0,0,.85-.43,3.8,3.8,0,0,0,0-3,1,1,0,0,0-.85-.42,1,1,0,0,0-.88.42A2.91,2.91,0,0,0,206.34,397.6Zm4.16,6.13a2.67,2.67,0,0,1,.23-1.12,2.55,2.55,0,0,1,.63-.86,2.79,2.79,0,0,1,1-.55,3.77,3.77,0,0,1,1.25-.19,4.5,4.5,0,0,1,1.25.17,2.7,2.7,0,0,1,1,.5,2.31,2.31,0,0,1,.62.85,3,3,0,0,1,.23,1.2,2.75,2.75,0,0,1-.23,1.13,2.4,2.4,0,0,1-.62.85,2.79,2.79,0,0,1-1,.55,3.86,3.86,0,0,1-1.25.19,4.39,4.39,0,0,1-1.25-.17,2.7,2.7,0,0,1-1-.5,2.33,2.33,0,0,1-.63-.85A3,3,0,0,1,210.5,403.73Zm1.92,0c0,1.27.39,1.9,1.16,1.9a1,1,0,0,0,.85-.42,3.8,3.8,0,0,0,0-3,1,1,0,0,0-.85-.42,1,1,0,0,0-.88.42A2.91,2.91,0,0,0,212.42,403.73Z"/><path class="cls-1" d="M276.73,426.05a9.72,9.72,0,0,1-1.14-1,6.3,6.3,0,0,1-.92-1.19,6.06,6.06,0,0,1-.61-1.47,6.7,6.7,0,0,1-.22-1.81,6.45,6.45,0,0,1,.22-1.77,6.19,6.19,0,0,1,.63-1.46,6.39,6.39,0,0,1,.93-1.21,12.87,12.87,0,0,1,1.14-1.07l.26.22a10.74,10.74,0,0,0-.88,1.06,6.75,6.75,0,0,0-.68,1.17,7.29,7.29,0,0,0-.44,1.39,8.57,8.57,0,0,0-.15,1.67,7.18,7.18,0,0,0,.17,1.66,6.66,6.66,0,0,0,.46,1.41,6.08,6.08,0,0,0,.68,1.17,7.8,7.8,0,0,0,.84,1Z"/><path class="cls-1" d="M285.93,423.53h-3.5v-.35a4.92,4.92,0,0,1,.6-.23c.21-.07.41-.13.62-.18v-5.89l.05-.71a3.29,3.29,0,0,1-.7.19,4.47,4.47,0,0,1-.74,0l-.06-.29a10.33,10.33,0,0,0,1.14-.45,4.74,4.74,0,0,0,1.09-.68h.3v7.79l.6.18a4.92,4.92,0,0,1,.6.23Z"/><path class="cls-1" d="M288.13,417.68a3.4,3.4,0,0,1,.17-1.08,2.47,2.47,0,0,1,.52-.85,2.34,2.34,0,0,1,.84-.56,2.9,2.9,0,0,1,1.14-.21,2.81,2.81,0,0,1,1.21.24,2.28,2.28,0,0,1,.85.65,2.82,2.82,0,0,1,.49,1,5.55,5.55,0,0,1,.15,1.34,6.22,6.22,0,0,1-.32,2.06,5.71,5.71,0,0,1-.88,1.66,4.56,4.56,0,0,1-1.32,1.16,4.2,4.2,0,0,1-1.64.55l-.22-.35a3.9,3.9,0,0,0,1.26-.56,4.1,4.1,0,0,0,.93-.88,4.62,4.62,0,0,0,.63-1.13,5.65,5.65,0,0,0,.34-1.3,2.44,2.44,0,0,1-.65.48,2.17,2.17,0,0,1-1,.2,3,3,0,0,1-1-.16,2.36,2.36,0,0,1-.78-.47,2.46,2.46,0,0,1-.51-.77A2.85,2.85,0,0,1,288.13,417.68Zm1.15,0a2.25,2.25,0,0,0,.11.68,1.75,1.75,0,0,0,.31.59,1.6,1.6,0,0,0,.49.41,1.28,1.28,0,0,0,.65.16,2.06,2.06,0,0,0,1-.2,1.31,1.31,0,0,0,.56-.5,2.06,2.06,0,0,0,0-.39v-.36a4.56,4.56,0,0,0-.09-.89,2.88,2.88,0,0,0-.29-.81,1.56,1.56,0,0,0-.5-.58,1.19,1.19,0,0,0-.74-.23,1.24,1.24,0,0,0-1.1.57A2.8,2.8,0,0,0,289.28,417.67Z"/><path class="cls-1" d="M294.86,417.68a3.4,3.4,0,0,1,.17-1.08,2.47,2.47,0,0,1,.52-.85,2.34,2.34,0,0,1,.84-.56,2.91,2.91,0,0,1,1.15-.21,2.79,2.79,0,0,1,1.2.24,2.28,2.28,0,0,1,.85.65,2.67,2.67,0,0,1,.49,1,5.53,5.53,0,0,1,.16,1.34,6.22,6.22,0,0,1-.33,2.06A5.48,5.48,0,0,1,299,422a4.56,4.56,0,0,1-1.32,1.16,4.14,4.14,0,0,1-1.64.55l-.21-.35a3.85,3.85,0,0,0,1.25-.56,4.15,4.15,0,0,0,.94-.88,4.62,4.62,0,0,0,.63-1.13,5.64,5.64,0,0,0,.33-1.3,2.44,2.44,0,0,1-.65.48,2.15,2.15,0,0,1-1,.2,2.86,2.86,0,0,1-1-.16,2.08,2.08,0,0,1-1.29-1.24A2.66,2.66,0,0,1,294.86,417.68Zm1.15,0a2.25,2.25,0,0,0,.11.68,2,2,0,0,0,.31.59,1.6,1.6,0,0,0,.49.41,1.31,1.31,0,0,0,.65.16,2.1,2.1,0,0,0,1-.2,1.35,1.35,0,0,0,.55-.5,2.06,2.06,0,0,0,0-.39v-.36a4.56,4.56,0,0,0-.09-.89,3.22,3.22,0,0,0-.28-.81,1.69,1.69,0,0,0-.51-.58,1.17,1.17,0,0,0-.74-.23,1.24,1.24,0,0,0-1.1.57A2.8,2.8,0,0,0,296,417.67Z"/><path class="cls-1" d="M302.36,417.28h-.3c0-.17-.06-.35-.1-.54s-.06-.39-.08-.58,0-.38-.05-.55a4.19,4.19,0,0,1,0-.48h5v.35a21.55,21.55,0,0,0-1,2,18.23,18.23,0,0,0-.68,1.82,17.38,17.38,0,0,0-.48,1.95c-.14.68-.28,1.45-.41,2.32H303a29.82,29.82,0,0,1,1.1-3.48q.66-1.73,1.53-3.48L306,416l-.63.06h-2.54Z"/><path class="cls-1" d="M311.24,425.81a7.27,7.27,0,0,0,.83-1,6.42,6.42,0,0,0,.68-1.21,7.93,7.93,0,0,0,.46-1.45,8.48,8.48,0,0,0,0-3.33,6.67,6.67,0,0,0-.43-1.35,6.44,6.44,0,0,0-.67-1.14c-.27-.35-.56-.69-.88-1l.25-.22a14,14,0,0,1,1.15,1,6.37,6.37,0,0,1,.93,1.18,5.85,5.85,0,0,1,.62,1.44,6.43,6.43,0,0,1,.23,1.77,6.88,6.88,0,0,1-.22,1.82,5.88,5.88,0,0,1-.6,1.5,6.48,6.48,0,0,1-.91,1.24,9.14,9.14,0,0,1-1.16,1Z"/><path class="cls-1" d="M286.58,402.83a3.52,3.52,0,0,1-.32,1.51,3.19,3.19,0,0,1-.84,1.14,3.57,3.57,0,0,1-1.24.73,4.39,4.39,0,0,1-1.51.26,4.55,4.55,0,0,1-1.75-.32,3.27,3.27,0,0,1-1.27-.87,3.74,3.74,0,0,1-.78-1.33,5.28,5.28,0,0,1-.26-1.68,6.85,6.85,0,0,1,.53-2.75,7.41,7.41,0,0,1,1.42-2.21,8.06,8.06,0,0,1,2.09-1.6,9.7,9.7,0,0,1,2.53-.92l.24.68a7.52,7.52,0,0,0-1.6.74,5.84,5.84,0,0,0-1.3,1.13,5.73,5.73,0,0,0-.93,1.5,6,6,0,0,0-.45,1.85,2.29,2.29,0,0,1,.32-.41,3.3,3.3,0,0,1,.49-.37,3,3,0,0,1,1.52-.37,3.53,3.53,0,0,1,1.23.21,2.6,2.6,0,0,1,1,.62,2.94,2.94,0,0,1,.66,1A3.93,3.93,0,0,1,286.58,402.83Zm-2.4.2q0-2.37-1.59-2.37a1.53,1.53,0,0,0-.93.28,1.73,1.73,0,0,0-.56.65c0,.15-.05.32-.07.52s0,.38,0,.56a5.87,5.87,0,0,0,.09,1.05,3.29,3.29,0,0,0,.31.9,1.94,1.94,0,0,0,.53.63,1.33,1.33,0,0,0,.8.24,1.13,1.13,0,0,0,.67-.2,1.4,1.4,0,0,0,.44-.54,3.11,3.11,0,0,0,.25-.78A5.67,5.67,0,0,0,284.18,403Z"/><path class="cls-1" d="M289.25,398.58h-.55c-.05-.23-.1-.5-.16-.83l-.15-1c-.05-.33-.09-.65-.12-.95s0-.55,0-.75h7.49v.74a27.89,27.89,0,0,0-1.45,2.53,17.79,17.79,0,0,0-1,2.41,24.17,24.17,0,0,0-.66,2.54c-.18.89-.33,1.88-.46,3h-2.27a28.45,28.45,0,0,1,1.49-4.43,41.4,41.4,0,0,1,2.16-4.24l.59-.77-.8.08h-3.44Z"/><path class="cls-1" d="M297.42,397.6a2.7,2.7,0,0,1,.23-1.12,2.52,2.52,0,0,1,.63-.85,2.81,2.81,0,0,1,1-.56,4,4,0,0,1,1.25-.19,4.5,4.5,0,0,1,1.25.17,2.7,2.7,0,0,1,1,.5,2.31,2.31,0,0,1,.62.85,3,3,0,0,1,.23,1.2,2.75,2.75,0,0,1-.23,1.13,2.43,2.43,0,0,1-.62.86,2.94,2.94,0,0,1-1,.54,3.86,3.86,0,0,1-1.25.19,4.07,4.07,0,0,1-1.25-.17,2.7,2.7,0,0,1-1-.5,2.25,2.25,0,0,1-.63-.85A3,3,0,0,1,297.42,397.6Zm10.39-2.77.77.68-9.36,11-.76-.69Zm-8.47,2.77c0,1.27.39,1.91,1.16,1.91a1,1,0,0,0,.85-.43,3.8,3.8,0,0,0,0-3,1,1,0,0,0-.85-.42,1,1,0,0,0-.88.42A2.91,2.91,0,0,0,299.34,397.6Zm4.16,6.13a2.67,2.67,0,0,1,.23-1.12,2.55,2.55,0,0,1,.63-.86,2.79,2.79,0,0,1,1-.55,3.77,3.77,0,0,1,1.25-.19,4.5,4.5,0,0,1,1.25.17,2.7,2.7,0,0,1,1,.5,2.31,2.31,0,0,1,.62.85,3,3,0,0,1,.23,1.2,2.75,2.75,0,0,1-.23,1.13,2.4,2.4,0,0,1-.62.85,2.79,2.79,0,0,1-1,.55,3.86,3.86,0,0,1-1.25.19,4.39,4.39,0,0,1-1.25-.17,2.7,2.7,0,0,1-1-.5,2.33,2.33,0,0,1-.63-.85A3,3,0,0,1,303.5,403.73Zm1.92,0c0,1.27.39,1.9,1.16,1.9a1,1,0,0,0,.85-.42,3.8,3.8,0,0,0,0-3,1,1,0,0,0-.85-.42,1,1,0,0,0-.88.42A2.91,2.91,0,0,0,305.42,403.73Z"/><path class="cls-2" d="M4.34,48.5A15,15,0,0,1,2.63,47a8.52,8.52,0,0,1-1.37-1.78,8.65,8.65,0,0,1-.92-2.2A9.87,9.87,0,0,1,0,40.34a9.52,9.52,0,0,1,.35-2.66,9.07,9.07,0,0,1,.93-2.18,10.32,10.32,0,0,1,1.4-1.83A18.71,18.71,0,0,1,4.4,32.08l.37.32A19,19,0,0,0,3.46,34a9.29,9.29,0,0,0-1,1.76,10.11,10.11,0,0,0-.65,2.08,12.88,12.88,0,0,0,0,5,10,10,0,0,0,.7,2.11,9.76,9.76,0,0,0,1,1.76,13.45,13.45,0,0,0,1.25,1.44Z"/><path class="cls-2" d="M18.15,44.72H12.89v-.53c.3-.13.6-.24.91-.35s.62-.19.93-.26V34.74l.07-1.06a4.71,4.71,0,0,1-1,.28,5.92,5.92,0,0,1-1.12.06l-.09-.43a16.25,16.25,0,0,0,1.71-.67,7.75,7.75,0,0,0,1.64-1h.45V43.58c.3.07.6.16.9.26s.6.22.9.35Z"/><path class="cls-2" d="M21.44,36a4.91,4.91,0,0,1,.26-1.62,3.7,3.7,0,0,1,.78-1.28,3.49,3.49,0,0,1,1.26-.84,4.86,4.86,0,0,1,3.52,0,3.34,3.34,0,0,1,1.27,1,3.88,3.88,0,0,1,.74,1.54,7.91,7.91,0,0,1,.24,2A9.58,9.58,0,0,1,29,39.87a8.39,8.39,0,0,1-1.32,2.5,6.94,6.94,0,0,1-2,1.73,6.35,6.35,0,0,1-2.46.83l-.32-.52a6,6,0,0,0,3.28-2.17,6.82,6.82,0,0,0,1-1.69,9,9,0,0,0,.5-1.95,3.77,3.77,0,0,1-1,.72,3.32,3.32,0,0,1-1.54.3,4.44,4.44,0,0,1-1.49-.24,3.14,3.14,0,0,1-1.17-.71,3.32,3.32,0,0,1-.77-1.15A4.07,4.07,0,0,1,21.44,36Zm1.73,0a3.2,3.2,0,0,0,.16,1,3,3,0,0,0,.47.88,2.21,2.21,0,0,0,.74.62,2,2,0,0,0,1,.24,3,3,0,0,0,1.43-.3,2.07,2.07,0,0,0,.84-.75,4.62,4.62,0,0,0,0-.58v-.55a6.64,6.64,0,0,0-.13-1.32A4.38,4.38,0,0,0,27.26,34a2.71,2.71,0,0,0-.76-.88,2,2,0,0,0-2.76.51A4.16,4.16,0,0,0,23.17,35.93Z"/><path class="cls-2" d="M32.69,35.34h-.45c-.05-.25-.1-.52-.14-.81S32,34,32,33.66s-.06-.56-.08-.82,0-.51,0-.72h7.46v.52c-.6,1.07-1.1,2-1.5,3a28.14,28.14,0,0,0-1,2.73,28.79,28.79,0,0,0-.72,2.91c-.21,1-.41,2.19-.62,3.49h-1.8a47.16,47.16,0,0,1,1.66-5.22q1-2.59,2.29-5.22l.54-.87-.94.09H33.39Z"/><path class="cls-2" d="M48.44,44.72H43.18v-.53c.3-.13.61-.24.91-.35s.62-.19.93-.26V34.74l.07-1.06a4.56,4.56,0,0,1-1,.28,5.88,5.88,0,0,1-1.12.06l-.09-.43a15.44,15.44,0,0,0,1.71-.67,7.5,7.5,0,0,0,1.64-1h.45V43.58c.3.07.6.16.9.26s.6.22.9.35Z"/><path class="cls-2" d="M56.11,48.14a12.08,12.08,0,0,0,1.25-1.47,10,10,0,0,0,1-1.82,12.26,12.26,0,0,0,.68-2.17,11.83,11.83,0,0,0,.25-2.52,12.39,12.39,0,0,0-.23-2.48,10,10,0,0,0-.65-2,9.16,9.16,0,0,0-1-1.71,16.83,16.83,0,0,0-1.31-1.55l.38-.32a20.66,20.66,0,0,1,1.72,1.49,9.61,9.61,0,0,1,1.39,1.77,8.77,8.77,0,0,1,.94,2.16,9.92,9.92,0,0,1,.34,2.66,10.53,10.53,0,0,1-.33,2.73A9.22,9.22,0,0,1,58.28,47a13.08,13.08,0,0,1-1.74,1.51Z"/><path class="cls-2" d="M7.16,5.59a5.76,5.76,0,0,1,.43-2.23A5.08,5.08,0,0,1,8.81,1.62,5.39,5.39,0,0,1,10.67.48a6.79,6.79,0,0,1,2.4-.41,6.39,6.39,0,0,1,2.49.47,5.22,5.22,0,0,1,1.87,1.31A5.5,5.5,0,0,1,18.6,3.9,8.72,8.72,0,0,1,19,6.58a12.05,12.05,0,0,1-.67,4.11A10.63,10.63,0,0,1,16.43,14a10,10,0,0,1-2.94,2.32,10.38,10.38,0,0,1-3.78,1.12l-.56-1a7.75,7.75,0,0,0,4.25-2.59,9.32,9.32,0,0,0,1.87-4.61,3.34,3.34,0,0,1-1.2,1,4.09,4.09,0,0,1-1.92.39,5.83,5.83,0,0,1-1.93-.32,4.29,4.29,0,0,1-1.58-.94A4.44,4.44,0,0,1,7.56,7.75,5.37,5.37,0,0,1,7.16,5.59Zm3.6-.14a5.19,5.19,0,0,0,.16,1.32,3.42,3.42,0,0,0,.47,1.1,2.3,2.3,0,0,0,.76.76,2.12,2.12,0,0,0,1.08.28,2.9,2.9,0,0,0,1.28-.28,2.06,2.06,0,0,0,.84-.76c0-.2.05-.46.07-.76s0-.6,0-.89a11.42,11.42,0,0,0-.13-1.79,6,6,0,0,0-.42-1.49,2.92,2.92,0,0,0-.74-1A1.73,1.73,0,0,0,13,1.54a1.81,1.81,0,0,0-1.73,1A6.4,6.4,0,0,0,10.76,5.45Z"/><path class="cls-2" d="M21.23,5.59a5.58,5.58,0,0,1,.43-2.23,5.19,5.19,0,0,1,1.21-1.74A5.48,5.48,0,0,1,24.73.48a6.79,6.79,0,0,1,2.4-.41,6.32,6.32,0,0,1,2.49.47A5.26,5.26,0,0,1,31.5,1.85,5.49,5.49,0,0,1,32.66,3.9a8.71,8.71,0,0,1,.4,2.68,12.05,12.05,0,0,1-.68,4.11A10.25,10.25,0,0,1,30.49,14a10,10,0,0,1-2.94,2.32,10.27,10.27,0,0,1-3.78,1.12l-.55-1a7.72,7.72,0,0,0,4.24-2.59,9.33,9.33,0,0,0,1.88-4.61,3.52,3.52,0,0,1-1.2,1,4.15,4.15,0,0,1-1.92.39,5.85,5.85,0,0,1-1.94-.32,4.35,4.35,0,0,1-2.66-2.52A5.55,5.55,0,0,1,21.23,5.59Zm3.59-.14A5.68,5.68,0,0,0,25,6.77a3.42,3.42,0,0,0,.47,1.1,2.33,2.33,0,0,0,.77.76,2.06,2.06,0,0,0,1.08.28,2.86,2.86,0,0,0,1.27-.28,2,2,0,0,0,.84-.76c0-.2.05-.46.07-.76s0-.6,0-.89a11.42,11.42,0,0,0-.13-1.79A5.57,5.57,0,0,0,29,2.94a2.92,2.92,0,0,0-.74-1,1.71,1.71,0,0,0-1.13-.38,1.81,1.81,0,0,0-1.73,1A6.4,6.4,0,0,0,24.82,5.45Z"/><path class="cls-2" d="M35.38,4.15a4.13,4.13,0,0,1,.34-1.68,3.72,3.72,0,0,1,1-1.28A4.23,4.23,0,0,1,38.12.36,5.78,5.78,0,0,1,40,.07a6.59,6.59,0,0,1,1.89.26,4,4,0,0,1,1.45.75,3.41,3.41,0,0,1,.93,1.27,4.41,4.41,0,0,1,.34,1.8,4.07,4.07,0,0,1-.34,1.7,3.61,3.61,0,0,1-.93,1.28A4.45,4.45,0,0,1,41.88,8,6,6,0,0,1,40,8.23,6.41,6.41,0,0,1,38.12,8a4.25,4.25,0,0,1-1.45-.75,3.31,3.31,0,0,1-1-1.28A4.51,4.51,0,0,1,35.38,4.15ZM51,0l1.15,1-14,16.46-1.13-1ZM38.26,4.15C38.26,6.06,38.84,7,40,7a1.47,1.47,0,0,0,1.29-.64,4.11,4.11,0,0,0,.44-2.22,4.16,4.16,0,0,0-.44-2.22A1.49,1.49,0,0,0,40,1.3a1.47,1.47,0,0,0-1.31.63A4.29,4.29,0,0,0,38.26,4.15Zm6.24,9.2a4.06,4.06,0,0,1,.34-1.68,3.67,3.67,0,0,1,.95-1.29,4.4,4.4,0,0,1,1.45-.83,5.78,5.78,0,0,1,1.87-.28A6.6,6.6,0,0,1,51,9.52a4.16,4.16,0,0,1,1.45.75,3.41,3.41,0,0,1,.93,1.27,4.43,4.43,0,0,1,.34,1.81A4.05,4.05,0,0,1,53.38,15a3.61,3.61,0,0,1-.93,1.28,4.28,4.28,0,0,1-1.45.82,6,6,0,0,1-1.89.29,6.4,6.4,0,0,1-1.87-.26,4.08,4.08,0,0,1-1.45-.75,3.35,3.35,0,0,1-.95-1.27A4.59,4.59,0,0,1,44.5,13.35Zm2.88,0c0,1.9.58,2.85,1.73,2.85a1.49,1.49,0,0,0,1.29-.63,4.16,4.16,0,0,0,.44-2.22,4.17,4.17,0,0,0-.44-2.23,1.49,1.49,0,0,0-1.29-.63,1.47,1.47,0,0,0-1.31.63A4.31,4.31,0,0,0,47.38,13.35Z"/><path class="cls-2" d="M268,153.1a14,14,0,0,1-1.71-1.46,8.92,8.92,0,0,1-1.38-1.78,9.26,9.26,0,0,1-.92-2.2,10.26,10.26,0,0,1-.33-2.71,9.56,9.56,0,0,1,.34-2.67,9.09,9.09,0,0,1,.94-2.18,9.85,9.85,0,0,1,1.39-1.82,21.84,21.84,0,0,1,1.72-1.6l.38.33a15.89,15.89,0,0,0-1.31,1.58,9.07,9.07,0,0,0-1,1.77,10.46,10.46,0,0,0-.66,2.07,12.88,12.88,0,0,0-.23,2.52,11.42,11.42,0,0,0,.25,2.49,10.77,10.77,0,0,0,.69,2.1,10,10,0,0,0,1,1.76,11.75,11.75,0,0,0,1.25,1.44Z"/><path class="cls-2" d="M281.83,149.32h-5.25v-.52c.3-.13.6-.25.91-.35a7.4,7.4,0,0,1,.92-.26v-8.84l.08-1.06a4.77,4.77,0,0,1-1.05.27,5.81,5.81,0,0,1-1.11.07l-.09-.43a16.4,16.4,0,0,0,1.71-.68,7.68,7.68,0,0,0,1.63-1H280v11.69a7.62,7.62,0,0,1,.9.26c.3.1.6.22.9.35Z"/><path class="cls-2" d="M285.13,140.55a5,5,0,0,1,.26-1.62,3.5,3.5,0,0,1,.77-1.27,3.55,3.55,0,0,1,1.26-.85,4.59,4.59,0,0,1,1.72-.31,4.36,4.36,0,0,1,1.81.35,3.55,3.55,0,0,1,1.27,1,4,4,0,0,1,.74,1.53,8.41,8.41,0,0,1,.23,2,9.64,9.64,0,0,1-.48,3.1,8.46,8.46,0,0,1-1.33,2.49,6.87,6.87,0,0,1-2,1.74,6.48,6.48,0,0,1-2.45.83l-.33-.53a6.09,6.09,0,0,0,1.88-.84,6.17,6.17,0,0,0,1.41-1.33,6.79,6.79,0,0,0,.94-1.69,8.87,8.87,0,0,0,.51-2,4,4,0,0,1-1,.73,3.33,3.33,0,0,1-1.54.29,4.54,4.54,0,0,1-1.5-.24,3.31,3.31,0,0,1-1.17-.71,3.21,3.21,0,0,1-.76-1.15A4.07,4.07,0,0,1,285.13,140.55Zm1.73,0a3.18,3.18,0,0,0,.16,1,2.66,2.66,0,0,0,.47.88,2.28,2.28,0,0,0,.73.62,2,2,0,0,0,1,.24,3.06,3.06,0,0,0,1.43-.3,2.09,2.09,0,0,0,.83-.74,3.34,3.34,0,0,0,0-.59v-.55a6.71,6.71,0,0,0-.13-1.32,4.51,4.51,0,0,0-.43-1.22,2.57,2.57,0,0,0-.75-.88,2,2,0,0,0-2.77.51A4.26,4.26,0,0,0,286.86,140.54Z"/><path class="cls-2" d="M295.26,146.49a3.07,3.07,0,0,1,.22-1.16,3.59,3.59,0,0,1,.6-1,4.47,4.47,0,0,1,.93-.78,5.41,5.41,0,0,1,1.16-.56,10.1,10.1,0,0,1-.95-.59,4.16,4.16,0,0,1-.77-.74,3.87,3.87,0,0,1-.51-.91,3,3,0,0,1-.19-1.11,3.18,3.18,0,0,1,.25-1.28,2.94,2.94,0,0,1,.72-1,3.22,3.22,0,0,1,1.12-.64,4.28,4.28,0,0,1,1.47-.24,3.59,3.59,0,0,1,2.48.8,2.8,2.8,0,0,1,.2,3.89,5.39,5.39,0,0,1-1.79,1.29,9.61,9.61,0,0,1,1.17.72,4.89,4.89,0,0,1,.94.86,3.78,3.78,0,0,1,.61,1,3.1,3.1,0,0,1,.23,1.18,3,3,0,0,1-.27,1.26,2.88,2.88,0,0,1-.77,1,3.81,3.81,0,0,1-1.27.71,5.07,5.07,0,0,1-1.73.27,5.13,5.13,0,0,1-1.71-.26,3.43,3.43,0,0,1-1.21-.67,2.62,2.62,0,0,1-.7-1A3,3,0,0,1,295.26,146.49Zm6.27.1a2.43,2.43,0,0,0-.25-1.12,3.1,3.1,0,0,0-.64-.89,6.31,6.31,0,0,0-.93-.71,11.4,11.4,0,0,0-1.08-.6,3.74,3.74,0,0,0-.88.69,3.63,3.63,0,0,0-.55.79,3.42,3.42,0,0,0-.3.8,3.47,3.47,0,0,0-.09.75,3,3,0,0,0,.14.88,2.11,2.11,0,0,0,.42.78,2.25,2.25,0,0,0,.74.57,2.75,2.75,0,0,0,1.13.21,2.4,2.4,0,0,0,1-.19,2,2,0,0,0,.72-.5,1.91,1.91,0,0,0,.43-.69A2.15,2.15,0,0,0,301.53,146.59Zm-4.23-7.17a2.24,2.24,0,0,0,.2,1,2.72,2.72,0,0,0,.56.75,4.43,4.43,0,0,0,.79.6c.29.18.6.35.92.51a4.06,4.06,0,0,0,1.07-1.23,3,3,0,0,0,.31-1.35,2.65,2.65,0,0,0-.5-1.72,1.68,1.68,0,0,0-1.37-.6,1.91,1.91,0,0,0-.86.18,2.08,2.08,0,0,0-.62.47,2.22,2.22,0,0,0-.38.65A2.53,2.53,0,0,0,297.3,139.42Z"/><path class="cls-2" d="M306.48,139.94H306q-.07-.37-.15-.81c-.05-.29-.09-.58-.12-.86s-.07-.57-.09-.83,0-.5,0-.72h7.45v.52a32.78,32.78,0,0,0-1.49,2.95,23.73,23.73,0,0,0-1,2.73,29,29,0,0,0-.73,2.92c-.2,1-.41,2.18-.61,3.48h-1.8a46.33,46.33,0,0,1,1.65-5.22c.66-1.73,1.43-3.47,2.29-5.22l.54-.86-.94.09h-3.81Z"/><path class="cls-2" d="M319.8,152.74a10.73,10.73,0,0,0,1.25-1.47,9.09,9.09,0,0,0,1-1.82,11.38,11.38,0,0,0,.69-2.16,11.83,11.83,0,0,0,.25-2.52,12.42,12.42,0,0,0-.23-2.49,10.52,10.52,0,0,0-.65-2,8.92,8.92,0,0,0-1-1.72A18.45,18.45,0,0,0,319.8,137l.37-.33a16.65,16.65,0,0,1,1.72,1.5,9.18,9.18,0,0,1,1.4,1.76,8.75,8.75,0,0,1,.93,2.16,9.54,9.54,0,0,1,.35,2.67,10.51,10.51,0,0,1-.33,2.72A9.22,9.22,0,0,1,322,151.6a12.33,12.33,0,0,1-1.73,1.5Z"/><path class="cls-2" d="M270.81,118a3.94,3.94,0,0,1,1.08-2.82,6.46,6.46,0,0,1,2.83-1.69,7.86,7.86,0,0,1-2.32-1.94,4,4,0,0,1-.89-2.58,3.89,3.89,0,0,1,.37-1.71A4,4,0,0,1,273,105.9a5.23,5.23,0,0,1,1.69-.9,7.41,7.41,0,0,1,2.25-.32A7.24,7.24,0,0,1,279,105a5.11,5.11,0,0,1,1.62.8,3.38,3.38,0,0,1,1,1.22,3.49,3.49,0,0,1,.36,1.58,3.57,3.57,0,0,1-1,2.5,5.27,5.27,0,0,1-2.43,1.51,14.74,14.74,0,0,1,1.79,1.11,7.07,7.07,0,0,1,1.26,1.15,4.29,4.29,0,0,1,.76,1.27,4.34,4.34,0,0,1,.25,1.46,3.92,3.92,0,0,1-.4,1.76,4.23,4.23,0,0,1-1.15,1.43,5.88,5.88,0,0,1-1.87,1,9.86,9.86,0,0,1-5,0,5.91,5.91,0,0,1-1.84-.85,3.83,3.83,0,0,1-1.17-1.28A3.35,3.35,0,0,1,270.81,118Zm8.4.26a3.1,3.1,0,0,0-.29-1.39,4.11,4.11,0,0,0-.78-1A6.34,6.34,0,0,0,277,115l-1.36-.83a3.36,3.36,0,0,0-1.16,1.54,5.41,5.41,0,0,0-.31,1.73,5.09,5.09,0,0,0,.14,1.15,3,3,0,0,0,.47,1,2.51,2.51,0,0,0,.82.73,2.45,2.45,0,0,0,1.24.29,2.53,2.53,0,0,0,1-.19,2.2,2.2,0,0,0,.74-.52,2.33,2.33,0,0,0,.45-.74A2.58,2.58,0,0,0,279.21,118.26Zm-4.44-9.79a2.91,2.91,0,0,0,.81,2,7.13,7.13,0,0,0,2.07,1.52,3.47,3.47,0,0,0,1-1.38,5.12,5.12,0,0,0,.28-1.74,3.16,3.16,0,0,0-.57-2.07,1.81,1.81,0,0,0-1.47-.69,1.86,1.86,0,0,0-1.58.67A2.79,2.79,0,0,0,274.77,108.47Z"/><path class="cls-2" d="M287.42,110.29h-.82l-.32-.84-.37-1c-.13-.36-.25-.7-.36-1s-.2-.66-.27-1a7.7,7.7,0,0,1,2.15-1.24,8.33,8.33,0,0,1,3.18-.53,7,7,0,0,1,2.28.33,4.58,4.58,0,0,1,1.6.94,3.7,3.7,0,0,1,.93,1.39,4.79,4.79,0,0,1,.3,1.7,6,6,0,0,1-.67,2.78,12.84,12.84,0,0,1-1.65,2.45,20.11,20.11,0,0,1-2.12,2.11l-2,1.76L288,119v.1l1.46-.15h4.13l1.17-2.68h.82c.05.38.1.83.16,1.34l.15,1.55c.05.52.09,1,.12,1.48s.05.86.05,1.15h-11v-1.54l1.41-1.28c.53-.49,1.07-1,1.61-1.61s1.08-1.21,1.61-1.86a19.93,19.93,0,0,0,1.42-2,11.5,11.5,0,0,0,1-2.07,6.16,6.16,0,0,0,.37-2.07,3.17,3.17,0,0,0-.7-2.14,2.48,2.48,0,0,0-2-.83,4.12,4.12,0,0,0-.73,0,4.87,4.87,0,0,0-.73.16Z"/><path class="cls-2" d="M299.11,108.76a4.06,4.06,0,0,1,.33-1.68,3.8,3.8,0,0,1,.95-1.29,4.4,4.4,0,0,1,1.45-.83,5.85,5.85,0,0,1,1.88-.28,6.58,6.58,0,0,1,1.88.25,3.93,3.93,0,0,1,1.45.76A3.46,3.46,0,0,1,308,107a4.52,4.52,0,0,1,.33,1.8,4.18,4.18,0,0,1-.33,1.69,3.76,3.76,0,0,1-.94,1.28,4,4,0,0,1-1.45.82,5.93,5.93,0,0,1-1.88.29,6.47,6.47,0,0,1-1.88-.26,4.08,4.08,0,0,1-1.45-.75,3.45,3.45,0,0,1-.95-1.27A4.55,4.55,0,0,1,299.11,108.76Zm15.57-4.15,1.16,1-14,16.47-1.13-1ZM302,108.76c0,1.9.57,2.85,1.73,2.85A1.47,1.47,0,0,0,305,111a4.06,4.06,0,0,0,.44-2.22,4,4,0,0,0-.44-2.22,1.46,1.46,0,0,0-1.28-.64,1.44,1.44,0,0,0-1.31.64A4.24,4.24,0,0,0,302,108.76Zm6.24,9.19a4.13,4.13,0,0,1,.33-1.68,3.76,3.76,0,0,1,.95-1.28,4.07,4.07,0,0,1,1.45-.83,5.58,5.58,0,0,1,1.88-.29,6.58,6.58,0,0,1,1.88.25,3.93,3.93,0,0,1,1.45.76,3.46,3.46,0,0,1,.94,1.27,4.52,4.52,0,0,1,.33,1.8,4.18,4.18,0,0,1-.33,1.69,3.9,3.9,0,0,1-.94,1.29,4.17,4.17,0,0,1-1.45.81,5.93,5.93,0,0,1-1.88.29,6.48,6.48,0,0,1-1.88-.25,4.1,4.1,0,0,1-1.45-.76,3.37,3.37,0,0,1-.95-1.27A4.52,4.52,0,0,1,308.23,118Zm2.88,0c0,1.9.57,2.85,1.73,2.85a1.47,1.47,0,0,0,1.28-.63,5.82,5.82,0,0,0,0-4.44,1.46,1.46,0,0,0-1.28-.64,1.44,1.44,0,0,0-1.31.64A4.24,4.24,0,0,0,311.11,118Z"/><path class="cls-2" d="M381.2,404.88a14,14,0,0,1-1.71-1.46,8.64,8.64,0,0,1-1.38-1.78,9.36,9.36,0,0,1-.92-2.19,10.34,10.34,0,0,1-.33-2.72,10,10,0,0,1,.34-2.67,9,9,0,0,1,.94-2.17,10.76,10.76,0,0,1,1.39-1.83,20,20,0,0,1,1.72-1.59l.38.32a17.13,17.13,0,0,0-1.31,1.58,9.07,9.07,0,0,0-1,1.77,10.56,10.56,0,0,0-.66,2.08,12.77,12.77,0,0,0-.23,2.51,11.42,11.42,0,0,0,.25,2.49,11.1,11.1,0,0,0,.69,2.11,10.33,10.33,0,0,0,1,1.75,11.75,11.75,0,0,0,1.25,1.44Z"/><path class="cls-2" d="M389.75,392h-.45c-.13-.35-.27-.76-.41-1.22s-.25-.91-.35-1.33a4.78,4.78,0,0,1,1.52-.86,5.57,5.57,0,0,1,1.9-.31,4.23,4.23,0,0,1,1.55.25,3,3,0,0,1,1.07.68,2.67,2.67,0,0,1,.62,1,3.36,3.36,0,0,1,.2,1.18,5,5,0,0,1-.47,2.07,12.42,12.42,0,0,1-1.16,2.06,17.17,17.17,0,0,1-1.5,1.88c-.54.59-1,1.11-1.5,1.55l-.75.7v.07l1-.1h3.09l.89-2h.45c0,.26,0,.55.07.86l.06.95c0,.32,0,.62.05.92s0,.55,0,.76h-7.43v-.57l1-1c.38-.4.77-.84,1.18-1.32s.81-1,1.22-1.53a15.82,15.82,0,0,0,1.07-1.64,11.7,11.7,0,0,0,.76-1.67,4.63,4.63,0,0,0,.3-1.58,3.53,3.53,0,0,0-.14-1,2.41,2.41,0,0,0-.4-.82,1.84,1.84,0,0,0-.66-.55,2,2,0,0,0-.89-.2,3.23,3.23,0,0,0-.66.06,4.16,4.16,0,0,0-.63.16Z"/><path class="cls-2" d="M398.08,394.8a9,9,0,0,1,1.08-4.88,3.86,3.86,0,0,1,6.29,0,9.44,9.44,0,0,1,1,4.9,8.84,8.84,0,0,1-1.09,4.88,3.6,3.6,0,0,1-3.21,1.64,3.77,3.77,0,0,1-1.87-.44A3.37,3.37,0,0,1,399,399.6a6.52,6.52,0,0,1-.71-2A15.23,15.23,0,0,1,398.08,394.8Zm1.73,0a18.79,18.79,0,0,0,.13,2.35,8.22,8.22,0,0,0,.4,1.82,3.12,3.12,0,0,0,.72,1.18,1.54,1.54,0,0,0,1.07.41,2,2,0,0,0,2-1.4,12,12,0,0,0,.59-4.36c0-.86,0-1.65-.11-2.35a7,7,0,0,0-.4-1.81,2.9,2.9,0,0,0-.76-1.17,1.8,1.8,0,0,0-1.2-.41,1.93,1.93,0,0,0-1.9,1.39A12.61,12.61,0,0,0,399.81,394.82Z"/><path class="cls-2" d="M408.18,394.8a9,9,0,0,1,1.08-4.88,3.85,3.85,0,0,1,6.28,0,9.33,9.33,0,0,1,1,4.9,8.84,8.84,0,0,1-1.09,4.88,3.61,3.61,0,0,1-3.21,1.64,3.75,3.75,0,0,1-1.87-.44,3.37,3.37,0,0,1-1.26-1.28,6.27,6.27,0,0,1-.71-2A15.23,15.23,0,0,1,408.18,394.8Zm1.73,0a21.05,21.05,0,0,0,.12,2.35,8.19,8.19,0,0,0,.41,1.82,3.12,3.12,0,0,0,.72,1.18,1.52,1.52,0,0,0,1.07.41,2,2,0,0,0,2-1.4,12.07,12.07,0,0,0,.58-4.36c0-.86,0-1.65-.1-2.35a7.49,7.49,0,0,0-.4-1.81,2.82,2.82,0,0,0-.77-1.17,1.76,1.76,0,0,0-1.19-.41,1.93,1.93,0,0,0-1.9,1.39A12.61,12.61,0,0,0,409.91,394.82Z"/><path class="cls-2" d="M426.2,401.1h-4.65v-.52a9.94,9.94,0,0,1,1.66-.43v-2.52h-5.49v-.42l6.63-8.92h.48v8.4h2.29v.94h-2.29v2.52a6.8,6.8,0,0,1,1.37.43Zm-3-9,.2-1.3h-.06l-.7,1.3-3,4.15-.72.6,1.28-.13h3Z"/><path class="cls-2" d="M433,404.52a10.73,10.73,0,0,0,1.25-1.47,9.29,9.29,0,0,0,1-1.81,11.53,11.53,0,0,0,.94-4.69,12.49,12.49,0,0,0-.23-2.49,10.52,10.52,0,0,0-.65-2,9.16,9.16,0,0,0-1-1.71,17.07,17.07,0,0,0-1.31-1.55l.37-.32a15.45,15.45,0,0,1,1.72,1.49,9.18,9.18,0,0,1,1.4,1.76,8.75,8.75,0,0,1,.93,2.16,9.59,9.59,0,0,1,.35,2.67,10.51,10.51,0,0,1-.33,2.72,8.68,8.68,0,0,1-.9,2.25,9.3,9.3,0,0,1-1.37,1.86,12.32,12.32,0,0,1-1.74,1.5Z"/><path class="cls-2" d="M395.88,373.55h-7.42v-1a13.11,13.11,0,0,1,2.21-.57v-2.71h-7.11v-1.08l9.19-11.69h1.3v11.21H397v1.56h-2.95v2.71a10.18,10.18,0,0,1,1.83.57Zm-5.21-11,.24-1.68h-.08l-.91,1.68L386.44,367l-1,.79,1.71-.16h3.48Z"/><path class="cls-2" d="M403.79,372.28a2.53,2.53,0,0,0,1.09-.26,3,3,0,0,0,.94-.7,3.52,3.52,0,0,0,.93-2.43,3.18,3.18,0,0,0-.28-1.4,2.87,2.87,0,0,0-.72-1,3,3,0,0,0-1-.56,3.83,3.83,0,0,0-1.15-.18h-1.39v-1l3.6-4.7.81-.84v-.1l-1.29.15h-3.63l-.93,2.44h-.82c-.08-.33-.16-.73-.25-1.2s-.17-.92-.24-1.39-.13-.91-.17-1.34-.06-.8-.06-1.08h10.46v1.17L405.52,363l-1,1.05v0l.82-.17a6.24,6.24,0,0,1,2,.42,4.54,4.54,0,0,1,1.52,1,4.47,4.47,0,0,1,.93,1.48,5,5,0,0,1,.33,1.84,4.48,4.48,0,0,1-.52,2.16,5,5,0,0,1-1.38,1.64,6.51,6.51,0,0,1-2,1,8.33,8.33,0,0,1-2.42.34,10,10,0,0,1-1.44-.1,8.91,8.91,0,0,1-1.35-.3,6.84,6.84,0,0,1-1.16-.46,4.52,4.52,0,0,1-.87-.57l.88-2.5h.7l.4.44c.16.19.34.38.53.59l.54.63c.17.2.32.38.45.52l.54.12A3.4,3.4,0,0,0,403.79,372.28Z"/><path class="cls-2" d="M412.7,360.54a4.1,4.1,0,0,1,.33-1.68,3.89,3.89,0,0,1,1-1.29,4.38,4.38,0,0,1,1.45-.82,5.84,5.84,0,0,1,1.88-.29,6.58,6.58,0,0,1,1.88.25,3.93,3.93,0,0,1,1.45.76,3.46,3.46,0,0,1,.94,1.27,4.51,4.51,0,0,1,.34,1.8,4.18,4.18,0,0,1-.34,1.69,3.67,3.67,0,0,1-.94,1.28,4,4,0,0,1-1.45.82,5.93,5.93,0,0,1-1.88.29,6.84,6.84,0,0,1-1.88-.25,4.1,4.1,0,0,1-1.45-.76,3.37,3.37,0,0,1-1-1.27A4.52,4.52,0,0,1,412.7,360.54Zm15.57-4.15,1.16,1-14,16.46-1.13-1Zm-12.69,4.15c0,1.9.57,2.86,1.73,2.86a1.48,1.48,0,0,0,1.28-.64,4.06,4.06,0,0,0,.44-2.22,4,4,0,0,0-.44-2.22,1.48,1.48,0,0,0-1.28-.64,1.46,1.46,0,0,0-1.31.64A4.24,4.24,0,0,0,415.58,360.54Zm6.24,9.19a4.13,4.13,0,0,1,.33-1.68,3.86,3.86,0,0,1,1-1.28,4.23,4.23,0,0,1,1.45-.83,5.84,5.84,0,0,1,1.88-.29,7,7,0,0,1,1.88.25,3.93,3.93,0,0,1,1.45.76,3.46,3.46,0,0,1,.94,1.27,4.52,4.52,0,0,1,.33,1.8,4.14,4.14,0,0,1-.33,1.69,3.71,3.71,0,0,1-.94,1.29,4.17,4.17,0,0,1-1.45.81,5.66,5.66,0,0,1-1.88.29,6.48,6.48,0,0,1-1.88-.25,4.1,4.1,0,0,1-1.45-.76,3.37,3.37,0,0,1-1-1.27A4.52,4.52,0,0,1,421.82,369.73Zm2.88,0c0,1.91.57,2.86,1.73,2.86a1.46,1.46,0,0,0,1.28-.64,5.82,5.82,0,0,0,0-4.44,1.47,1.47,0,0,0-1.28-.63,1.46,1.46,0,0,0-1.31.63A4.26,4.26,0,0,0,424.7,369.73Z"/><g class="cls-3"><path class="cls-4" d="M353.13,374.41c-5.82-12-25.09-53.08-33.23-71.08-3.16-6.91-5.56-12.2-7.31-16.18-1.47-3.36,2,4.39,7.31,16.18l8.66,18.75c-4.08-9.13-7.9-18-10.56-24.33-2.09-4.61-4.19-9.27-6.34-14l-13.93-30.92L296,249l-.87-1.92a7.45,7.45,0,0,0-.52-1.06l-.81-.79-6-5.86L275.7,227.51c-5.83-5.78-18.73-18.21-24.23-24l35.78,34.76,4.48,4.34,2.24,2.16.59.57a2.19,2.19,0,0,1,.59.73l.71,1.57L301,259l10.22,22.75-1.06-2.48-10.59-24-2.64-6-1.38-3.13-.22-.47a2.17,2.17,0,0,0-.35-.39l-.66-.65-1.17-1.15-9.33-9.21c-2.13-2.07-4.27-4.17-6.44-6.37l6.44,6.37,8.38,8.05,2.14,2,.58.55.35.34a1,1,0,0,1,.3.4c.16.29.29.6.43.9l.32.71q1.26,2.76,2.56,5.64c2.07,4.79,4.45,10.27,6.53,15.07,1.71,3.91,3.18,7.56,4.75,11.29l3.18,7.16c.33.69.67,1.43,1,2.19l0-.1c-1.07-3.07-8.1-19.76-15.24-37l-1.35-3.24L297,246.7l-.43-1a2.92,2.92,0,0,0-.72-1.13l-5-5.08L282,230.35c-5.47-5.59-9.82-10-11.8-11.86-6.29-6-12.66-10.86-19.7-17.53-2.35-2.23-4.1-4.36-6.06-5.91a12.74,12.74,0,0,1-2.26-1.59c-4.7-4.43-8.86-9.45-12.81-12.5-2.69-2.23-7.4-11.37-8.32-11.48-1.74-.15-2-.17-2.5-.89-.26-.36-.58-.9-1.2-1.71-.31-.41-.69-.89-1.18-1.45l-.8-.91c-.11-.13-.22-.24-.35-.37a1.24,1.24,0,0,0-.37-.21l-.32-.15-.18-.27c-.11-.2-.27-.43-.38-.68a10.48,10.48,0,0,1-.22-1.62c.05-6.75-.91-8.65-1.85-16.31-1.78-11.32-.3-14-2.87-24-.15-.61-.84-4.85-1.52-8.93s-1.33-8-1.33-8c-.22-3.11-.51-5.91-.82-8.51-.15-1.3-.31-2.56-.45-3.78s-.31-2.68-.46-4c-.14-1.46-.28-2.88-.42-4.3s-.29-2.79-.39-4.25l-.08-1.1,0-.28c0-.08,0-.25-.08-.22l-.5-.07c-.66-.1-1.33-.21-2-.34-1.37-.25-2.75-.56-4.3-.9l-2.93.18-2.59.11c-1.5.05-3,.05-4.63,0-3.16-.09-6.44-.34-9.74-.65-6.6-.62-13.29-1.48-19.26-1.58-11.94-.18-16.84-2.2-27.21-4.42-3-.42-5.22-.37-6.93-1s-6,.61-9,.18l.78-1-4-.58c-1-.16-.72-.5-.46-.84.52-.68,1-1.36-.68-2q-6.18-1.32-12.68-2.3-6.48.39-12.78,1a3.26,3.26,0,0,1-1.17,1.39l-3.75.63c-.79,1.1-.59,2.36-1.12,3.1-.12,3.24-5.45,6.19-4.32,9.24.46.89,7.66,1.41,10.83,3,.74.49-1.05,1.48-1.83,2.6,4.23.09,4.43,1.31,2.65,2.31l2,.23-1,1.48c10.64,1.58,22.49,4.22,33,3,2.25-.16,6-.91,8.52-1.39,1.25-.24,4,.38,5,.48,1.77-.91,1.57-2,2.35-3,7.67,1.16,24.28,3,23.91-.38,6.21.27,7.51-1.26,14-1.25,4.29,0,9.15,0,14.28,0l3.89,0,2.28.08c.74,0,1.53,0,2.3,0h.74s0,.08,0,.12l0,.28.16,1.11.21,1.19.13,1.25.13,1.25,0,.33.06.54.13,1.06q.47,4.24.95,8.47c.24,2.11.48,4.16.71,6.11,1.26,10.56,2.28,20.44,3.23,30s1.89,18.94,2.81,28.19c.08.84.19,1.67.29,2.5l0,.31c0,.1.13.16.19.24l.43.45.86.9c.59.59,1.23,1.17,1.84,1.75l1.28,1.2,5.06,4.7q5.07,4.69,10.31,9.44c7,6.34,14.29,12.8,22.14,19.6s15.81,13.91,23.63,21l11.65,10.69,5.77,5.34c.95.89,1.9,1.78,2.86,2.66l1.36,1.28a1.3,1.3,0,0,1,.4.6l.36.8c8.8,18.76,17.16,36.93,24.74,53.29C333.78,334.32,346,359.74,350.5,369Z"/></g><line class="cls-5" x1="74.13" y1="75.85" x2="74.13" y2="76.85"/><line class="cls-6" x1="74.13" y1="84.81" x2="74.13" y2="369.25"/><line class="cls-5" x1="74.13" y1="373.22" x2="74.13" y2="374.22"/><path class="cls-2" d="M71.87,75.85a2.26,2.26,0,1,1,2.26,2.26A2.26,2.26,0,0,1,71.87,75.85Z"/><line class="cls-7" x1="201.13" y1="374.54" x2="201.13" y2="80.54"/><circle class="cls-2" cx="201.13" cy="80.54" r="2.26"/><line class="cls-7" x1="294.13" y1="246.54" x2="294.13" y2="374.54"/><circle class="cls-2" cx="294.13" cy="246.54" r="2.26"/><line class="cls-5" x1="350.99" y1="374.54" x2="349.99" y2="374.54"/><line class="cls-8" x1="342.08" y1="374.54" x2="79.08" y2="374.54"/><line class="cls-5" x1="75.13" y1="374.54" x2="74.13" y2="374.54"/><circle class="cls-2" cx="350.87" cy="374.54" r="2.26"/><line class="cls-7" x1="209.13" y1="374.54" x2="209.13" y2="165.54"/><circle class="cls-2" cx="209.13" cy="165.54" r="2.26"/><path class="cls-9" d="M99.75,203.36a1.49,1.49,0,0,1-.75.36v14.1a2,2,0,0,1-1.17.48h-.22v-1.11H85.67v.72c0,.18-.5.55-1.11.55H84.3v-16.2l1.5.68H97.43l.74-.84Zm-2.14,13.3V203.47H85.67v13.19Zm-5.76-4c-1,.45-2.45,1.08-4.47,1.84a.54.54,0,0,1-.37.41l-.87-1.55c1-.13,3.33-.52,5.66-.95Zm1.08-5.93a16.2,16.2,0,0,0,.76,4.24,16.19,16.19,0,0,0,1.38-3.42l1.78.73a.61.61,0,0,1-.72.29,14.25,14.25,0,0,1-1.94,3.64A6.3,6.3,0,0,0,95.54,214c.22.23.31.21.45-.06s.41-1.11.61-1.73l.24,0-.27,2.34c.45.67.52,1,.34,1.17-.45.52-1.42,0-2-.56a8.94,8.94,0,0,1-1.54-2,11.92,11.92,0,0,1-4,2.79l-.2-.25a12.56,12.56,0,0,0,3.73-3.5,17.43,17.43,0,0,1-1.19-5.53H86.38l-.15-.52h5.42c-.05-.79-.09-1.62-.09-2.46l1.91.37c0,.22-.22.4-.61.42,0,.56,0,1.11,0,1.67h2.16l.45-.56a.72.72,0,0,1-.52-.1,4.17,4.17,0,0,0-1.4-1.59l.18-.16c1.92.16,2.36,1.06,2.12,1.55a13.13,13.13,0,0,1,1.28,1.1c0,.2-.23.28-.49.28Zm-3,5.14v-.58H88.23v.58a1.35,1.35,0,0,1-1,.36h-.15v-4.65l1.17.52h1.48l.57-.59,1.25.95a.93.93,0,0,1-.58.27v2.74c0,.13-.56.4-.94.4Zm0-1.1v-2.13H88.23v2.13Z"/><path class="cls-9" d="M106.34,210.38c0,2.21-.24,5.73-3,8.05l-.22-.18c1.66-2.47,1.84-5.42,1.84-7.87v-2.65l1.66.67h10.28l1-1.19s1.08.83,1.77,1.42a.45.45,0,0,1-.49.29H106.34ZM118,202.82s1.08.79,1.73,1.38c0,.2-.21.29-.47.29h-4l1.12.74c-.13.16-.29.22-.67.09a11.93,11.93,0,0,1-1.83.94c2.55,1.11,2.08,2.34,1.09,2.07a13.29,13.29,0,0,0-2.66-1.46,32.18,32.18,0,0,1-5.76,1.33l-.11-.27a31.33,31.33,0,0,0,4.68-1.56,27.31,27.31,0,0,0-3.64-1.18l.09-.3a28.3,28.3,0,0,1,4.88.86,16.54,16.54,0,0,0,2.15-1.26H104l-.17-.54h7.57a4.23,4.23,0,0,0-1.52-2.14l.17-.14c2.7.25,3,1.74,2.37,2.28h4.67Zm-.1,13.27s1.08.79,1.76,1.4c0,.2-.23.29-.48.29h-13l-.16-.54h6v-2.43h-3.55l-.14-.52H112v-2.16h-3a8.74,8.74,0,0,1-2,2.21l-.25-.16a13.7,13.7,0,0,0,2-4.72l1.93.6a.66.66,0,0,1-.68.34,11.29,11.29,0,0,1-.62,1.2H112v-2.34l2,.2c0,.25-.18.42-.6.47v1.67h2.22l.9-1.09s1,.73,1.65,1.33c0,.2-.23.29-.47.29h-4.3v2.16h1.91l.86-1.08s1,.75,1.61,1.31a.43.43,0,0,1-.47.29h-3.91v2.43H117Z"/><path class="cls-9" d="M130.6,211.37a1,1,0,0,1-.7.27c-.14,3.89-.45,5.53-1.12,6.12a2.43,2.43,0,0,1-1.65.56,1.24,1.24,0,0,0-.24-.92,2.32,2.32,0,0,0-1-.41l0-.31c.43,0,1.19.09,1.47.09a.7.7,0,0,0,.54-.14c.36-.36.62-1.91.72-5.15h-2a9.9,9.9,0,0,1-3.42,7l-.25-.21c2.16-2.95,2.38-6.45,2.45-9.67h-2.18l-.15-.52H129l.89-1.17s1,.81,1.6,1.4a.43.43,0,0,1-.47.29h-4.12c0,.79-.07,1.6-.15,2.38h1.73l.72-.74Zm-7.43-7.71h3.44l-.24-1.78,2,.16c0,.2-.16.4-.52.51l.16,1.11H129l.79-1.08s.95.76,1.51,1.32c0,.2-.23.29-.47.29h-2.8l.18,1.29a1.67,1.67,0,0,1-1.34.42l-.21-1.71h-3.39Zm2.41,2c3.42.61,2.27,3.08,1,2.2a3.88,3.88,0,0,0-1.19-2.07Zm10.28.69c-.05.19-.2.3-.63.34a10.37,10.37,0,0,0,4.45,4.3l0,.24a1.63,1.63,0,0,0-.9,1.27,12.65,12.65,0,0,1-3.76-5.63,12.39,12.39,0,0,1-4.56,5.78l-.14-.27a14.6,14.6,0,0,0,3.46-6.52Zm-4.14-2.69h2.14l.31-1.81,1.94.39c-.05.24-.23.42-.7.43l-.16,1h1.87l.81-1.08s1,.76,1.53,1.32c-.05.2-.23.29-.49.29h-3.81l-.24,1.35a1.76,1.76,0,0,1-1.38.14l.25-1.49h-1.93Zm.18,10.79c6.34,1.12,6,4.54,4.27,3.78a13.36,13.36,0,0,0-4.41-3.58Zm1.1-3.55c4.1.61,3.15,3.59,1.69,2.69a4.84,4.84,0,0,0-1.85-2.54Z"/><path class="cls-9" d="M157.55,203.54s1.14.86,1.85,1.51c-.05.2-.23.29-.5.29h-7.11v2.45h3.56l.71-.83,1.69,1.26a1.45,1.45,0,0,1-.76.36v5.64c0,1.06-.23,1.69-2.1,1.87a1.67,1.67,0,0,0-.38-1,2.8,2.8,0,0,0-1.5-.49v-.27s1.7.11,2.13.11.39-.11.39-.34v-5.78h-3.74V218a1.51,1.51,0,0,1-1.24.45h-.25V208.31h-3.75v7.2c0,.15-.61.49-1.21.49h-.23v-8.88l1.57.67h3.62v-2.45h-7.39l-.16-.52h13.76Zm-8.28-1.71c4.28.59,3.17,3.67,1.6,2.7a5.79,5.79,0,0,0-1.76-2.56Z"/><path class="cls-9" d="M176.87,204.37s1.2.95,1.92,1.6c0,.2-.23.29-.5.29h-7v4.26h3.77l.75-.88,1.69,1.3a1.51,1.51,0,0,1-.77.39v6.58a2.34,2.34,0,0,1-1.28.43h-.21v-1.46h-8.84v1c0,.15-.65.49-1.28.49h-.24v-8.59l1.61.7h3.29v-8.66l2.16.2c0,.27-.18.45-.65.52v3.14h4.52ZM166.39,211v5.33h8.84V211Z"/><path class="cls-9" d="M197.12,212.52s1.13.85,1.83,1.48c0,.2-.23.29-.48.29h-7.1V218c0,.13-.66.42-1.21.42h-.27v-4.14h-7.38l-.14-.54h7.52v-1.88l2.08.2c0,.24-.18.4-.6.45v1.23h4.74Zm-9.21-3.69c-.88.76-2.21,1.86-4,3.19a.74.74,0,0,1-.28.52l-1.07-1.49c.9-.35,3.06-1.35,5.23-2.43Zm-5.07-4.73h7.56l-.11-.08a3.84,3.84,0,0,0-1.22-2.21l.18-.13c2.59.49,2.7,1.93,2.09,2.42h4.32l1-1.23s1.14.85,1.84,1.46c-.05.2-.23.29-.51.29h-7.72l1.28.65a.62.62,0,0,1-.7.23,14.09,14.09,0,0,1-2.42,1.73c.81,0,1.86,0,2.94,0a12,12,0,0,0,1.17-1.39l1.6,1c-.09.16-.32.28-.7.21a27.89,27.89,0,0,1-5.13,3.67c1.13,0,2.7-.18,4.34-.3a7,7,0,0,0-.9-1.35l.2-.13c3.9,1.39,2.55,4.2,1.22,3a4.12,4.12,0,0,0-.34-1.17c-1.24.35-3.06.78-5,1.16a.54.54,0,0,1-.25.21l-.7-1.49a1.56,1.56,0,0,0,.48-.13,16,16,0,0,0,3.46-2.75c-.77.16-1.75.32-2.7.48a1,1,0,0,1-.32.33l-.69-1.41a2.35,2.35,0,0,0,.36-.1,8.34,8.34,0,0,0,2.31-2.47H183Zm.86,1.31c4.09,1.23,2.92,4,1.57,3a6.52,6.52,0,0,0-1.75-2.9Zm10.17,3.21c5.39.88,5,4,3.46,3.36a11.5,11.5,0,0,0-3.6-3.18Zm4.13-2.4a.64.64,0,0,1-.74.16,18.25,18.25,0,0,1-3,1.88l-.22-.24a21.31,21.31,0,0,0,2.13-2.93Z"/><line class="cls-10" x1="209.5" y1="166.5" x2="252.5" y2="145.5"/></g></svg>