<svg xmlns="http://www.w3.org/2000/svg" viewBox="0 0 300.43 300.62"><defs><style>.cls-1{opacity:0.8;}.cls-2{fill:#c4cffb;}.cls-3{fill:none;stroke:#bdc9fb;stroke-miterlimit:10;stroke-width:2px;}</style></defs><title>董</title><g id="圖層_2" data-name="圖層 2"><g class="cls-1"><path class="cls-2" d="M149.7,299.88a158.76,158.76,0,0,1-30-2.95l-4.8-1.1-2.47-.56-2.47-.69c-1.67-.48-3.37-.94-5.07-1.45l-5.13-1.73a152.8,152.8,0,0,1-20.71-9.12,159.19,159.19,0,0,1-19.56-12.53,152.71,152.71,0,0,1-16.86-14.87c-1.25-1.3-2.48-2.6-3.69-3.87l-3.41-3.93c-1.14-1.27-2.17-2.59-3.18-3.89s-2-2.54-3-3.82l-2.67-3.76c-.43-.61-.88-1.21-1.28-1.82L24.31,232l-2.23-3.48c-.71-1.12-1.31-2.25-1.94-3.31-2-3.26-3.52-6.48-5.06-9.46-.73-1.51-1.37-3-2-4.44s-1.29-2.81-1.8-4.19c-1.06-2.74-2.13-5.26-2.89-7.69s-1.61-4.63-2.15-6.73c-.49-1.76-.58-2.06-.31-1.14s.81,3.1,1.9,6.19a145.7,145.7,0,0,0,12.34,27.46,148.59,148.59,0,0,0,25.27,32.42,148.69,148.69,0,0,1-18.55-22,154,154,0,0,1-12.07-20.86A148.09,148.09,0,0,1,4.55,185.93,151.3,151.3,0,0,1,.34,152.29,148.18,148.18,0,0,1,32.07,58.57,151.2,151.2,0,0,1,56,34.34l3.82-3c1.26-1,2.6-1.86,3.87-2.79,2.54-1.87,5.17-3.46,7.62-5,1.21-.81,2.47-1.47,3.65-2.16l3.43-1.95,6-3.08a149.53,149.53,0,0,0-69,68.87A149.92,149.92,0,0,0,3.75,182.06c-.44-1.75-.68-3.52-1-5.26a150.93,150.93,0,0,1-2.32-26,155,155,0,0,1,2.26-26A146.21,146.21,0,0,1,9.4,99.64,152.15,152.15,0,0,1,30.39,61a151.66,151.66,0,0,0-9.92,15,139.05,139.05,0,0,0-10,20.85,152.19,152.19,0,0,0-6.85,23.16A150.6,150.6,0,0,0,.52,152.53,144.36,144.36,0,0,0,2.75,176.8l.68,3.84.87,3.8c.31,1.27.56,2.55.9,3.8L6.26,192c.42,1.46.85,3,1.41,4.6l-.06-.2c-.13-.38-.29-.88-.48-1.47s-.37-1.32-.6-2.12c-.42-1.63-1-3.62-1.61-6a149.57,149.57,0,0,1,8-95.18A149.17,149.17,0,0,1,37.3,53.24c.94-1.07,1.8-2.1,2.65-3l2.42-2.52,2-2.13c.62-.63,1.2-1.15,1.69-1.63A150.86,150.86,0,0,1,65.65,27.76,144.64,144.64,0,0,1,89,14.54c2.91-1.38,5.72-2.36,8.3-3.39,1.28-.53,2.57-.91,3.8-1.34l3.6-1.24c.43-.24,2.81-.9,5.18-1.61C122.26,3.4,135.14,2.13,145,1.72l3.12-.06c1.19,0,2.51,0,3.91.1l4.37.23c1.49.06,3,.29,4.44.42l4.18.46,3.55.57c2.09.33,3.55.53,3.92.56a27.66,27.66,0,0,1,4.76.58c.84.18,2,.37,4,.89l3.55.89c.71.18,1.48.34,2.32.58l2.7.79,2.12.57c.91.24,2,.5,3.09.87,2.22.73,4.71,1.45,6.54,2.18,6.17,2.46,10.1,4.24,14.19,6.23l3.13,1.58,1.66.83,1.72,1,3.84,2.18c1.38.8,2.82,1.76,4.44,2.78,2.42,1.46,4.46,3,6.39,4.35s3.56,2.7,5.13,3.91c.78.62,1.54,1.2,2.25,1.79l2,1.78c1.31,1.17,2.6,2.23,3.78,3.37,2.37,2.29,4.74,4.48,7.22,7.16l2,2c.67.71,1.32,1.49,2,2.27,1.39,1.59,3,3.25,4.53,5.23a143.67,143.67,0,0,1,10.46,14.56c1.12,1.71,2.09,3.5,3.06,5.13.48.82,1,1.59,1.36,2.36L281.84,82l1.67,3.2c.42.77.61,1.22.61,1.22a154.17,154.17,0,0,1,10.47,29.84,127.25,127.25,0,0,1,3.47,27.33,139.1,139.1,0,0,1-2.8,37,154.19,154.19,0,0,1-12.7,36,132.4,132.4,0,0,1-15.1,23.76A143.69,143.69,0,0,1,249.57,259c-2.2,2-4.19,3.59-5.9,5.07s-3.34,2.58-4.73,3.59c-.68.51-1.62,1.2-2.73,2l-3.64,2.68c-1.32.94-2.75,1.85-4.13,2.77l-2.05,1.34c-.68.42-1.35.78-2,1.15l1.13-1-3.42,1.91c-1.28.71-2.56,1.43-3.45,1.84-1.76.87-1.36.57-1,.27.78-.6,1.56-1.2-1.54.23a155.66,155.66,0,0,1-23.2,9,153.44,153.44,0,0,1-24.17,5.62,12,12,0,0,1-2.11.63l-1.81.28-1.82.19-3.63.37c-1.44.4-.94.67-1.91.94.08.82-10.29,1.86-7.81,2.56.5.07,4.36.12,8.92,0,2.27-.14,4.72-.24,7-.41s4.39-.42,6-.54-1.93.63-3.38,1.11l4.93-.61a23.19,23.19,0,0,1,2.31-.28c.76,0,0,.24-1.67.68l4-.67-1.91.73a152.42,152.42,0,0,0,32.61-9,134.35,134.35,0,0,0,29.25-16.28l3.14-2.32c1.13-.9,2.3-1.89,3.5-2.87,2.43-1.93,4.7-4.14,6.57-5.84,1-.82,2.41-2.22,3.85-3.55s2.85-2.61,3.53-3.36a17.6,17.6,0,0,0,2.57-3.81c2.69-2.83,6-6.6,9.33-10.82.42-.53.85-1,1.26-1.58l1.19-1.66c.8-1.1,1.6-2.21,2.39-3.32,1.56-2.23,3-4.54,4.37-6.69s2.5-4.34,3.58-6.26,1.87-3.74,2.59-5.2a31.4,31.4,0,0,0,1.49-3.49c.28-.81.37-1.22.23-1.15l1.74-3.9c.47-1.21.89-2.31,1.28-3.34.77-2.07,1.45-3.84,2-5.68s1.17-3.66,1.77-5.84c.3-1.1.61-2.27.95-3.57s.78-2.69,1.11-4.29a149.9,149.9,0,0,0,4.08-28.38,151.78,151.78,0,0,0-1.81-31.83A155,155,0,0,0,289,93.32l-.59-1.48c-.21-.48-.43-1-.65-1.44l-1.29-2.84c-.43-.93-.83-1.87-1.28-2.78l-1.37-2.66a151.88,151.88,0,0,0-37.48-47A150.09,150.09,0,0,0,6.13,107.73,151.38,151.38,0,0,0,1,167.83a149,149,0,0,0,17,53.75,152.64,152.64,0,0,0,31.23,39.73A159.59,159.59,0,0,0,67,275.14L71.51,278c1.48.93,3,1.75,4.47,2.61l2.2,1.26c.73.4,1.48.76,2.22,1.14l4.35,2.22a151.53,151.53,0,0,0,31.41,10.92,141.87,141.87,0,0,0,21.54,3.24C141.69,299.77,145.7,299.78,149.7,299.88Z"/></g><path class="cls-3" d="M76,64H41.2l-1.88-6.58h36L72.46,33l40.89,2.82c0,2.59-1.88,5.17-6.58,6.58l1.88,15h5.87l13.87-19.74s15.74,13.4,24.91,22.56C152.59,62.8,150.24,64,147,64H109.59l1.64,12.69C106.3,83,93.84,85.59,78.57,85.12ZM205.7,70.08a33.85,33.85,0,0,1-5.17,2.82l25.38,23.5-.47.24c4,2.82,17.63,12.92,26.56,20.21-.71,2.58-3.29,3.76-6.58,3.76H205.7l28.91,21.62c-1.41,1.88-4,3.76-8.46,4.7V194.4c0,.94-4,2.82-9.17,4.7,5.88,4.23,15.51,11.51,22.56,17.39-.47,2.58-3,3.76-6.34,3.76H165.52v20.21H214.4L230.14,221s18.1,13.16,28.91,22.33c-.71,2.58-3.29,3.76-6.58,3.76h-207l-1.88-6.58h88.6V220.25H64.94l-1.88-6.58h69.09V194.4H106.53v3.76c0,2.82-14.8,9.87-28.2,9.87h-4.7V122.49l34.78,13.16h23.74v-15H50.37L48.49,114h83.66V100.87c-24,.23-48.41-.47-70.74-1.88l-.47-3.76C102.07,92.17,152.83,84,185.73,75.49a55.61,55.61,0,0,1-13.63-1.18L173.74,64H158.23l-1.88-6.58h18.33L178.44,33l40.42,6.35c-.47,2.82-2.35,5.64-8.93,6.11l-2.11,12h13.86l13.87-19.74s15.74,13.4,24.91,22.56c-.71,2.59-3.06,3.76-6.35,3.76H206.88Zm-99.17,72.15V161.5h25.62V142.23Zm25.62,45.59V168.08H106.53v19.74Zm90.71-89.77c-3.06.7-7.05.23-12.22-1.65-12.93,1.65-28.44,2.82-45.12,3.53V114h43.94Zm-18.33,22.56h-39v15h24.91Zm-11.75,21.62H165.52V161.5h27.26Zm0,25.85H165.52v19.74h27.26Zm14.8,33.84a60.67,60.67,0,0,1-8.93.94h-5.87V194.4H165.52v19.27h32.19Z"/></g></svg>