<svg xmlns="http://www.w3.org/2000/svg" viewBox="0 0 145.5 184.8"><defs><style>.cls-1{fill:#edebde;}.cls-2{fill:#8dc235;}.cls-3{fill:#133b88;}</style></defs><title>green Guai-Guai</title><g id="圖層_2" data-name="圖層 2"><rect class="cls-1" width="145.5" height="184.8"/><path class="cls-2" d="M144.5,176.31l0,1.19a28.61,28.61,0,0,0-8.36.43,37.21,37.21,0,0,0,8.36.33c0,.41,0,.82,0,1.23-2.74-.11-5.49-.4-8.19.51a38.6,38.6,0,0,0,8.18.25c0,.41,0,.82,0,1.23a43.73,43.73,0,0,0-8,.16,20.86,20.86,0,0,0,8,.57,14.81,14.81,0,0,1,0,1.49c0,.65-1,1.12-1,1.1-.94-1.22-2.37.27-3.32-.64a.68.68,0,0,0-1,0c-.47.45-.88.33-1.26-.12s-.75-.31-1.13,0a.7.7,0,0,1-.75.21c-1.44-.58-3.11-.06-4.33-.42s-2.35,0-3.49-.18c-.92-.19-2.31-.57-3.4.06-.36.21-.63.24-.87-.06-.51-.63-1-.58-1.46,0a.52.52,0,0,1-.86,0,.9.9,0,0,0-1.43,0,.66.66,0,0,1-1-.07c-.4-.41-.79-.57-1.24-.07s-.78.34-1.15,0a.79.79,0,0,0-1.28,0,.67.67,0,0,1-.75.15c-1.41-.55-3,0-4.21-.23s-2.37.64-3.39-.29c-.38-.35-.72-.08-1,.2a.69.69,0,0,1-1.13,0c-.4-.43-.8-.54-1.26-.07a.68.68,0,0,1-1.13,0c-.37-.42-.77-.59-1.26-.14a.76.76,0,0,1-1.17,0c-.42-.4-.84-.52-1.27,0-.81.93-1.37-1-2.16-.19a.87.87,0,0,1-1.41,0,.64.64,0,0,0-1,0,2.71,2.71,0,0,1-.52.36c-.92-1.19-2.21.38-3.17-.43a.61.61,0,0,0-.89,0c-.56.56-1,0-1.53,0-1,0-2.06-.09-3-.05-.74,0-1.32.35-1.9-.32-1,1-2.25-.58-3.35.2-.77.54-1.45-1.31-2.31-.15-1-.84-2.21,0-3.36-.22a7.19,7.19,0,0,0-3.49-.05,5.61,5.61,0,0,1-3.19.1c-1.17-.39-2.29.86-3.33-.14-.55.62-1.42.16-1.76.3-1.2.52-2.45-.45-3.54.33-.13.09-.37.23-.43.19-.79-.66-2.11.06-2.2,0-1.15-1.08-2.52,1-3.53-.3-1.89,1.19-3.9-.29-5.93.2a6.89,6.89,0,0,1-3.44-.23,14,14,0,0,0-3.35-.2c-.26,0-3.63-.29-3.77-.17-1.09.86-2.22-.3-3.37.17-.92.39-2-.53-3.09.11a20,20,0,0,1-4.23,0c-1.11-1-2.34.57-3.4-.24a.62.62,0,0,0-.88,0c-.47.42-.93.6-1.43.05s-.77-.28-1.11.09-.69.54-1.12.14a.86.86,0,0,0-1.32,0c-.74.72-1.45-.53-1.68-.28-1,1.14-2.54-.53-3.47.69-1.05-1.13-2.24.19-3.49-.15a4.93,4.93,0,0,0-3.4.16c-.84.43-1.87-.76-2.78.22-.12.14-.27-.49-.28-.79a24.59,24.59,0,0,1,0-4.29,45.49,45.49,0,0,0,9.47-.31,40,40,0,0,0-9.47-.4c-.75-3.84,1.5-6.55,3.94-8.78C7,167,7.29,165.3,7.23,163.1c-.3-10-.85-20-.36-30.08.17-3.69,0-7.4.4-11.07.28-2.8,0-5.6.35-8.39,1,.18,1.2,1.32,2.05,1.72.82-2.25.08-4.34-.13-6.46a2.59,2.59,0,0,0-1.77-2.56c.09-5.39.13-10.78.48-16.16.27.22-.17,1.12.57.79a2,2,0,0,0,1-2.35c-.22-1.05-1-.49-1.58-.49-.6-5-.53-10.11-.68-15.18-.3-10.41-.8-20.82-.74-31.24,0-6.83,0-13.67.52-20.49a1.88,1.88,0,0,0-.69-1.85C2,15.41-.45,10.46.08,4.25a74.44,74.44,0,0,0,10.56-.17C7.13,3,3.6,3.66.07,3.83V.31c.6,0,1.22.63,1.79-.1.28-.36.72-.21,1,.12a.85.85,0,0,0,1.4.06A.68.68,0,0,1,5.3.5a.85.85,0,0,0,1.4,0c.29-.3.6-.19.86.07.44.45.89.65,1.44.18a.78.78,0,0,1,1.17.11c.22.23.49.62.82.4,1.38-.92,2.53.47,3.85.33,1.16-.12,2.37.12,3.52,0,.5-.06.9-.28,1.34.09.2.17.42.4.73.26,1.46-.71,3,0,4.4-.26,1.14-.19,2.35.45,3.4-.31.16-.12.42-.26.58-.21,1.56.49,3.12.13,4.68.15s3.47-.37,4.66.12S40.86.62,41.84,2c1-1.29,2.51.86,3.54-.46,1,.92,2.28-.44,3.31.33.36.27.69.35,1,0a.89.89,0,0,1,1.43-.05.63.63,0,0,0,1,0,.82.82,0,0,1,1.39,0,.68.68,0,0,0,1,0c.26-.19.49-.45.88-.24,2.14,1.17,4.44.25,6.64.51,1.93.23,3.84,0,5.76.16s3.86-.1,5.77.08c1.26.12,2.58-.63,3.78.23.36.26.64.07.86-.18a.74.74,0,0,1,1.25,0,.72.72,0,0,0,1.15,0c.37-.37.75-.47,1.11,0s.83.32,1.41.12c.92-.32,2,.54,2.93-.17.83,1.38,2.41-.73,3.25.68a1.1,1.1,0,0,0,.56-.24c.53-.52,1-.36,1.4.1.27.28.6.6,1,.14.53-.69,1-.78,1.53,0,0,.09.17.13.26.2.86-1.43,2.26.4,3.2-.53.36-.36.68-.23,1,0s.54.56.85.29c.7-.61,1.34-1,2.07-.08,1-1.24,2.24.33,3.45-.34.67-.37,1.89,0,2.88,0,1.43,0,3.08-.45,4.21,0,1.3.45,2.57-1,3.61.3a.49.49,0,0,0,.46,0c1.4-.72,3.13.08,4.22-.4,1.29-.55,2.55.87,3.56-.39.25-.31.59-.1.88.11s.59.4.68.33c1.26-1,2.67.23,4-.29s2.63-.2,3.85-.78c.72-.34,1.52,1.15,2.23-.06,1.21.84,2.38-.32,3.69-.13.9.12,2.35.46,3.39-.29a.67.67,0,0,1,1,.05,1,1,0,0,0,.55.33c1.69.12,1.69.11,1.52,2.1-3.16.06-6.36-.45-9.46.51a32.68,32.68,0,0,0,9.51.52c0,.32,0,.64,0,1-2.76-.13-5.51-.4-8.22.53a40.24,40.24,0,0,0,8.21.18c0,.43,0,.86,0,1.29a39.92,39.92,0,0,0-7.88.14,22.33,22.33,0,0,0,7.89.55,4.6,4.6,0,0,1-.85,3.89c-1.27,1.85-2.55,3.7-3.81,5.56a11,11,0,0,0-2,7.33c.28,3.17.36,6.35.49,9.53a12,12,0,0,1-.2,1.79,15.55,15.55,0,0,0-4.4-7.24c-1.45,16-.93,32.06-1.4,48.08a21.29,21.29,0,0,0,1.53-9.58,27.38,27.38,0,0,0-.63-6.37c-.11-.41.1-.62.27-.88A47.49,47.49,0,0,0,138.92,51c-.06,4.65.52,9.33-.63,13.93a3.84,3.84,0,0,0,0,1.31c.85,8.63.43,17.28.51,25.92a7.34,7.34,0,0,1-.09.82c-.41-.26-.83-.54-1.25-.79-.62-.38-1-.19-.89.53.3,3.63-.61,7.3.56,10.92a11.64,11.64,0,0,1,.28,5.55c-.26,1.47-1.07,2.87-1,4.28.18,2.91.09,5.79,0,8.72,1,.14,1.31-.94,2.14-1,.4,4.52-.13,9-.08,13.56,0,3.15,0,6.3-.18,9.44-.34,5-.84,10-1.36,15.06-.22,2.1-.09,3.8,1.7,5.44a31.88,31.88,0,0,1,5.13,6.43,6.4,6.4,0,0,1,.75,4.44c-2.93-.17-5.87-.44-8.74.51A53.34,53.34,0,0,0,144.5,176.31ZM42.73,113.09a.31.31,0,0,0,.32.34c1.18,1.75,3,1.94,4.9,2.14.47.05.7-.15.73-.64.06-.85-.52-.51-.88-.46a7.14,7.14,0,0,1-4.73-1.06l-.33-.33-.33-.34c-1.93-4.29.05-7.29,5.94-8.63a6.87,6.87,0,0,1-2.57-2.18,1.76,1.76,0,0,0-1.42-.71,35.67,35.67,0,0,1-6.12-1.39C29,97,21.76,91.91,18.82,82.16a51.13,51.13,0,0,1-1.05-5.24,30.81,30.81,0,0,1-1.44,6.42,2.77,2.77,0,0,0,.36,2.38,28.05,28.05,0,0,0,3.14,4.44c5.75,6.48,13.26,9.7,21.49,11.56,1.08.24,2.17.43,3.25.64a.91.91,0,0,1,.8.73c.07.42-.35.51-.61.68a8.42,8.42,0,0,0-2.33,2.08c-1.75,2.38-1.76,5.09,0,6.9C42.42,113,42.51,113.08,42.73,113.09Zm3.86-97.64c-.19-.37-.38-.74-.84-.84-2.86-4.84-12-5.68-16.46-1.5a8.7,8.7,0,0,0-3.95,5.38,10.33,10.33,0,0,0-.83,5.14c-2.36.45-4.1,2-5.94,3.38-.58.43,0,.77.19,1.11a27.12,27.12,0,0,1,2.67,5.51,50.81,50.81,0,0,1,4.8-4.47.37.37,0,0,0,.25.09c-.07.4.65.76.12,1.18a31.44,31.44,0,0,0-5.84,5.8.57.57,0,0,1-.28.18,2.71,2.71,0,0,0-2.08,1.74c-3.68,7.61-3.31,15.19.16,22.75a2,2,0,0,0,.52.82c2.26,1.53,2.68,2.68,1.81,5a25.15,25.15,0,0,0-1.23,14.48,20.77,20.77,0,0,0,7,11.22c5.25,4.5,11.5,6.6,18.18,7.71.58.1,1.23,0,1.61.64,1.37,2.4,3.8,3.1,6.22,3.64,6.35,1.4,12.61.66,18.82-.93a2.07,2.07,0,0,1-1.69,1.6,46.7,46.7,0,0,1-7.35,1.08,43,43,0,0,1-9.91-.55,4.21,4.21,0,0,1,.9,4.58c-.43,1-.22,1.25.79,1.49,2.3.57,3.08,2.5,1.91,4.42a4.61,4.61,0,0,1-3.21,2.13,19.61,19.61,0,0,1-2.49.19,5.62,5.62,0,0,0,4,.88c.55,0,1.08-.18,1.35.55,1.33,3.66,3.59,6.81,5.63,10.06-3.4-1.56-5.31-.51-5.35,3-1.08-2.08-2.11-4.21-4.25-5.67.41-.25.62-.41.86-.52,1.14-.51,2.33-1.07,2.12-2.58s-1.59-1.78-2.85-2a18.17,18.17,0,0,0-6.41.15c-3.31.51-6.23,2.12-9.36,3.15a20,20,0,0,0-9.45,6.08c-3.65,4.35-4.22,10.39-.94,14.5a15.81,15.81,0,0,0,13.38,6.22,18.12,18.12,0,0,0,15.39-8.51c1.68-2.5,1.81-5.37,2-8.24,1.83,1.56,4.2,2.3,6,3.89a3,3,0,0,0,1.42.36,3,3,0,0,1,1.68.61c.72.65,1.24.36,1.5-.37.48-1.32,1.59-2.35,1.71-3.83a8.81,8.81,0,0,0,2.79.92,1.27,1.27,0,0,0,1.25-.57c.44-.56-.13-.77-.35-1.09-.48-.71-1.21-1.28-1.3-2.22,2.17,1.32,3.76,3.35,6.68,3.73a14.68,14.68,0,0,0,10.43-2.53c1.28-.84,1.83-2.53,3.35-3a15.24,15.24,0,0,0,3.81-1.66c.43-.29,1.35-.4,1.08-1s-1.13-.44-1.72-.1c-.22.13-.34.45-.71.14a1.93,1.93,0,0,1,1.5-1.87.88.88,0,0,1,1.26.46c.38,1.17,1.07.56,1.7.4.91-.22.83-.95.74-1.6a2.37,2.37,0,0,0-3.21-1.9c-.63.17-1,.84-1.79.71a3,3,0,0,1,5.3.19,4.27,4.27,0,0,1-2.88,6.35c-3.26.52-5.28,2.23-7.26,4.54-1.5,1.76-1.64,1.75.65,2.54a30.84,30.84,0,0,0,3.18.81c.44.1.88.1,1.16.52-2.43,2.38-1.68,5.46,1,7.33.58.4,1.46.56,1.81,1.09a4.59,4.59,0,0,0,5,2.18c1.74-.24,2.08-1.61,2.93-2.54.66-.72,0-1.55-.47-2.22a7.28,7.28,0,0,0-2.77-2c-1.63-.83-1.89-1.89-.8-2.85a35.69,35.69,0,0,0,9.1-2.26,38.72,38.72,0,0,0,14.26-8.93c.49-.49,1.19-1,.9-1.81-.85-2.46-1.75-4.9-2.67-7.46a16.91,16.91,0,0,1-1.36,1.08c-4.72,3-7.8,2.59-10.48-2.33a16.68,16.68,0,0,1-1.69-4.47c-1.67-7.59-6.22-13-12.85-16.74,4.66-.25,9-2,13.49-3a22.43,22.43,0,0,0,6.32-2.85c4.8-2.79,8.76-6.42,11.11-11.56a22.64,22.64,0,0,0,.92-16.31,4.41,4.41,0,0,1,.37-3.72,31.28,31.28,0,0,0,3.5-9.6c1.39-7.35.19-14.08-5.07-19.68a30.43,30.43,0,0,0-14.63-8.31,61.88,61.88,0,0,0-25.27-1.15c-2.66.38-5.37.55-7.88,1.66l-.1-1.5c.44-.06.88-.1,1.31-.19A73.89,73.89,0,0,1,107,20.58c6.46,1,12.55,3,17.79,7.07.79.61,1.35.9,1.88-.27a4.2,4.2,0,0,1,2-1.92c1.34-.72,1.34-1,0-1.86-.6-.38-1.24-.72-1.87-1.05-7-3.69-14.51-4.82-22.23-5.11A93.33,93.33,0,0,0,83,19.36c-1.37.27-1.7,0-1.63-1.38.11-2.19-.16-2.39-2.41-2.54-1.4-.09-2.82.11-4-1.14a1.22,1.22,0,0,0-2.14.51c-.71,1.77-1.77,2.28-3.6,1.61-1.19-.43-2.52-.25-3.53-1.42a1.44,1.44,0,0,0-2.48.39c-.39.65-.85,1.26-1.32,1.95a5.91,5.91,0,0,0-6.36-2.15c-1.2.31-2.25,1.62-3.65,2-.16.05-.26.48-.3.74-.14.91-.66,1.15-1.51,1.05a13,13,0,0,0-1.65,0,6.49,6.49,0,0,0-1.24-2.56A1.83,1.83,0,0,0,46.59,15.45ZM118.64,92.2a53.33,53.33,0,0,1-10.21,4.5c1,.42,1.31,1.74,2.66,1.26a44,44,0,0,0,7.12-3.09c.43-.24.91-.35.46-1.09-.24-.39,0-1,0-1.59l.1-.11ZM75.29,157.92c.34.33.9.47.92,1.06,0,.34,0,.7.47.63s.44-.39.48-.73a7.63,7.63,0,0,1,.2-.95c2.11-.4,3.47-1.35,2.33-4.24,3.28,1.94,4.93,5.73,9,4.75,1.78,1,2,.86,2.3-1.08A1.75,1.75,0,0,0,91,155a13.22,13.22,0,0,1-1.56-2.89,1.34,1.34,0,0,0-1.84-1,17.19,17.19,0,0,1-6.88.26c-2.32-.35-4.5-.65-6.69.37-.81.38-2.19-.47-2.48.5-.24.77.48,1.85.81,2.77.17.47.46.89.62,1.35A2,2,0,0,0,75.29,157.92ZM14.56,64.37c0-8.47,0-17.08,0-25.69a21.16,21.16,0,0,0-1.12-6.63C6,40,6.92,55.11,14.56,64.37Zm34,41.05a6.1,6.1,0,0,0-5.35,3A3.11,3.11,0,0,0,45,113.06a5.92,5.92,0,0,0,6-1.21,3.71,3.71,0,0,0,1.47-4.21C51.89,106.23,50.47,105.42,48.55,105.42Zm31.15,66c.66,0,1.32,0,2,0,1.1,0,1.57-.28,1.74-1.57.28-2.11.09-3.58-2.3-4.18-1.07-.27-4.41.31-5,1.25a1.55,1.55,0,0,0-.19.62c-.37,3.3.15,3.88,3.45,3.88ZM52,117.25c1.7,0,3.53-1.38,3.48-2.69s-1-1.83-2.25-1.84c-1.71,0-3.46,1.32-3.49,2.64A2,2,0,0,0,52,117.25Zm6,54.06c2.36.17,2.35.17,2.19-2.12a1.83,1.83,0,0,1,0-.33c.07-1-.15-2.38-1.15-2.37-1.51,0-3.34-1-4.58.57-.88,1.11-.38,2.54-.06,3.73s1.34.52,2.12.45A9,9,0,0,1,58.08,171.31ZM14.88,67.07a20.61,20.61,0,0,0,0,13.84ZM91.2,166.45c-.5,0-1,0-1.49,0-.69,0-1.49,0-1.46.88,0,1.29-.53,2.61.17,3.85.06.1.29.13.45.17,1.37.37,2.85-.77,4.23.3.15.11,1.07-.32.85-1.19a4.38,4.38,0,0,1-.11-2.12c.49-1.78-.44-2-1.82-1.88C91.75,166.47,91.47,166.45,91.2,166.45Zm-22.45,5c1-.17,2.69.49,2.75-1.49s-1.11-3.47-2.71-3.48c-1.37,0-2.92.22-3.12,1.71C65.31,170.76,66.06,171.4,68.75,171.41ZM6.26,180.33v-.06h4c.27,0,.57-.08.52-.46s-.27-.33-.49-.34l-7.77,0c-.33,0-.72.13-.67.55s.5.34.8.34C3.83,180.34,5,180.33,6.26,180.33Zm4.38-4.46H1.16A24.36,24.36,0,0,0,10.64,175.87Zm94-76.73a2.05,2.05,0,0,0,2.16-.62.32.32,0,0,0-.2-.51,1.9,1.9,0,0,0-2,.87S104.63,99,104.64,99.14ZM3.36,6c-.95-.16-1.91-.47-2.82.13A4,4,0,0,0,3.36,6Z"/><path class="cls-3" d="M138.92,51a47.49,47.49,0,0,1-4.61,9.28c-.17.26-.38.47-.27.88a27.38,27.38,0,0,1,.63,6.37,21.29,21.29,0,0,1-1.53,9.58c.47-16,0-32.06,1.4-48.08a15.55,15.55,0,0,1,4.4,7.24A29.74,29.74,0,0,1,138.92,51Z"/><path class="cls-3" d="M138.62,121.19c-.83.09-1.19,1.17-2.14,1,0-2.93.13-5.81,0-8.72-.09-1.41.72-2.81,1-4.28a11.64,11.64,0,0,0-.28-5.55c-1.17-3.62-.26-7.29-.56-10.92-.06-.72.27-.91.89-.53.42.25.84.53,1.25.79Z"/><path class="cls-3" d="M7.77,106.26a2.59,2.59,0,0,1,1.77,2.56c.21,2.12,1,4.21.13,6.46-.85-.4-1.08-1.54-2-1.72,0-1.34,0-2.69,0-4,.2-.14.34-.3.07-.51Z"/><path class="cls-3" d="M145.36,4.55A32.68,32.68,0,0,1,135.85,4c3.1-1,6.3-.45,9.46-.51C145.33,3.87,145.35,4.21,145.36,4.55Z"/><path class="cls-3" d="M1.22,177.52a40,40,0,0,1,9.47.4,45.49,45.49,0,0,1-9.47.31Z"/><path class="cls-3" d="M.07,3.83C3.6,3.66,7.13,3,10.64,4.08A74.44,74.44,0,0,1,.08,4.25Z"/><path class="cls-3" d="M144.5,176.31a53.34,53.34,0,0,1-8.66-.24c2.87-.95,5.81-.68,8.74-.51C144.56,175.81,144.53,176.06,144.5,176.31Z"/><path class="cls-3" d="M144.47,178.26a37.21,37.21,0,0,1-8.36-.33,28.61,28.61,0,0,1,8.36-.43Z"/><path class="cls-3" d="M145.36,6.22A40.24,40.24,0,0,1,137.15,6c2.71-.93,5.46-.66,8.22-.53C145.36,5.75,145.36,6,145.36,6.22Z"/><path class="cls-3" d="M144.45,180.25a38.6,38.6,0,0,1-8.18-.25c2.7-.91,5.45-.62,8.19-.51C144.46,179.74,144.45,180,144.45,180.25Z"/><path class="cls-3" d="M145.36,8.2a22.33,22.33,0,0,1-7.89-.55,39.92,39.92,0,0,1,7.88-.14Z"/><path class="cls-3" d="M144.43,182.21a20.86,20.86,0,0,1-8-.57,43.73,43.73,0,0,1,8-.16Z"/><path class="cls-3" d="M8.29,88.05c.58,0,1.36-.56,1.58.49a2,2,0,0,1-1,2.35c-.74.33-.3-.57-.57-.79C8.26,89.41,8.28,88.73,8.29,88.05Z"/><path class="cls-2" d="M7.71,109c.27.21.13.37-.07.51C7.66,109.35,7.69,109.18,7.71,109Z"/><path class="cls-3" d="M71.5,103.51a18.69,18.69,0,0,1,13.27-7.84,20,20,0,0,1,11.67,2.27c6.63,3.78,11.18,9.15,12.85,16.74a16.68,16.68,0,0,0,1.69,4.47c2.68,4.92,5.76,5.3,10.48,2.33a16.91,16.91,0,0,0,1.36-1.08c.92,2.56,1.82,5,2.67,7.46.29.84-.41,1.32-.9,1.81a38.72,38.72,0,0,1-14.26,8.93,35.69,35.69,0,0,1-9.1,2.26l.39-.72c.43-.76.69-1.54-.1-2.23a1.74,1.74,0,0,0-2.42-.13c-1.32,1.23-3,1.48-4.58,2.09-.28-.42-.72-.42-1.16-.52a30.84,30.84,0,0,1-3.18-.81c-2.29-.79-2.15-.78-.65-2.54,2-2.31,4-4,7.26-4.54a4.27,4.27,0,0,0,2.88-6.35,3,3,0,0,0-5.3-.19v0c-.25-.06-.34,0-.29.29l0,0c-.26,0-.32.11-.28.34h0c-.59,0-.68.61-1,1-1.29-.27-1.89-.78-1.14-2.23,1.9-3.7,1.54-4.76-2.09-6.87a18,18,0,0,0-9.8-2.44A2.76,2.76,0,0,0,77,116.82c-.51,1.21-1.07,2.41-1.52,3.65-.28.76-.71,1-1.48.85-.06-1.2.68-2.29.46-3.53s-.67-2.29-2-2.58a3,3,0,0,0-3.23,1,6.78,6.78,0,0,0,.3,7.79h0a7.92,7.92,0,0,1-.1,2.28c-.07,2.44.17,4.81,1.72,6.85l0,0c.09.94.82,1.51,1.3,2.22.22.32.79.53.35,1.09a1.27,1.27,0,0,1-1.25.57,9,9,0,0,1-2.79-.91c-.61-1.21-.19-2.31.29-3.44a1.87,1.87,0,0,0-.81-2.67c-1.19-.61-2,.1-2.6,1-.86,1.27-1.86,1.43-3,.38-.48-.44-.88-1-1.32-1.45-2-3.26-4.3-6.41-5.63-10.07-.27-.73-.8-.59-1.35-.55a5.62,5.62,0,0,1-4-.88,19.61,19.61,0,0,0,2.49-.19,4.61,4.61,0,0,0,3.21-2.13c1.17-1.92.39-3.85-1.91-4.42-1-.24-1.22-.49-.79-1.49a4.21,4.21,0,0,0-.9-4.58,43,43,0,0,0,9.91.55,46.7,46.7,0,0,0,7.35-1.08A2.07,2.07,0,0,0,71.5,103.51Zm-1.77,3.15a62.12,62.12,0,0,1-7.52.8.46.46,0,0,0-.47.37c-.2.69,1.1,3.2,2,3.66a2.72,2.72,0,0,0,3.58-.64A16.49,16.49,0,0,0,69.73,106.66Z"/><path class="cls-3" d="M78.87,24.73a.86.86,0,0,1-1.12.7c-1.74-.31-3.79.38-5-1.63-.2-.31-1.35-1.13-1.68.42-.38,1.71-1.9,1.45-3,1.06a6.7,6.7,0,0,0-3.19-.21,2.26,2.26,0,0,1-2.69-1.2c0,2.29-1.21,2.5-2.65,2.41-1.86-.12-3.73-.22-5.59-.33-.46,0-1.09-.14-1.1-.54-.05-1.36-1.46-2-1.61-3.21-.24-1.46-1.42-.82-2.23-1-.18-.73-.35-1.45-.52-2.18a13,13,0,0,1,1.65,0c.85.1,1.37-.14,1.51-1.05,0-.26.14-.69.3-.74,1.4-.4,2.45-1.71,3.65-2A5.91,5.91,0,0,1,62,17.34c.47-.69.93-1.3,1.32-1.95A1.44,1.44,0,0,1,65.75,15c1,1.17,2.34,1,3.53,1.42,1.83.67,2.89.16,3.6-1.61A1.22,1.22,0,0,1,75,14.3c1.14,1.25,2.56,1,4,1.14,2.25.15,2.52.35,2.41,2.54-.07,1.37.26,1.65,1.63,1.38a93.33,93.33,0,0,1,21.54-1.92c7.72.29,15.27,1.42,22.23,5.11.63.33,1.27.67,1.87,1.05,1.31.83,1.31,1.14,0,1.86a4.2,4.2,0,0,0-2,1.92c-.53,1.17-1.09.88-1.88.27-5.24-4.07-11.33-6.07-17.79-7.07a73.89,73.89,0,0,0-26.47,1.17c-.43.09-.87.13-1.31.19h0c.29-3,.25-3-2.63-3q-.5,0-1,0c-.33,0-.7,0-.74.46s.34.61.75.63,1.1.06,1.65.11c.38,0,.87.06.82.59s-.55.44-.92.47a1,1,0,0,1-1-.33c-.57-.65-.87-.29-1.08.41-.8,2.65-.39,3.27,2.34,3.41ZM58,25.6c1.27-.08,2.79.42,3.28-1.46.24-.88.45-2-.18-2.45-.94-.63-2.27-.28-3.35,0-.9.21-.3,1.1-.25,1.7,0,.37.23.83-.39.85-.42,0-1.23.08-1.16-.27.26-1.12-1.15-1.5-1-2.58.12-.67-.64-.61-1.09-.71s-.82-.2-1.06.19.32.72.32.95c0,1.08,1.39,1.41,1.35,2.24-.06,1.25.8,1.32,1.51,1.51A7.61,7.61,0,0,0,58,25.6ZM71,21.22c.15-3.28.14-3.24-3-3.81-.79-.15-1.92.19-2.12-1.28-.06-.5-.81-.27-1.13.24-.48.8-1,1.58-1.47,2.39-.22.37-.47.79.11,1.1s.69-.11.93-.4c.41-.47.57-1.24,1.46-1.1,1.09.16,2.18.28,3.26.43.34.05.7.17.7.57a11.64,11.64,0,0,1-.33,4.24c-.13.34-.89.62-.18,1,.49.24,1.17.35,1.48-.5A13.59,13.59,0,0,0,71,21.22ZM59.11,21a1.27,1.27,0,0,0,1.33,0c.41-.25,1.24-.17,1.17-.92s-.73-.46-1.18-.49-.69,0-.67-.49.39-.46.7-.54c.51-.12,1.43-.35.67-.9s-1.5-.59-2-1.35c-.85,1.08-1.63.88-2.68.15-.23-.16-.67,1.32-.87,2.1-.09.34-.26.84.15,1.05.73.38.88-.36,1.24-.72s.83-.24,1.25-.15.34.42.3.69c-.1.65-.67.42-1.05.51s-.55.07-.82.14-.8.14-.75.69.49.44.86.55C57.64,21.54,58.38,21,59.11,21ZM81,18.34c.22-1-.21-1.64-1.64-1.59a21.81,21.81,0,0,1-2.78-.21c-.3,0-.71.13-.87-.25-.8-2-1.25-.56-1.74.18a11.15,11.15,0,0,0-.84,1.41c-.22.45-.8,1-.08,1.41s.85-.31,1.07-.69a1.78,1.78,0,0,1,2.09-.86A7.84,7.84,0,0,0,78,18c1.2-.06,2.07.12,1.81,1.64,0,.31,0,.68.45.72s.68-.22.68-.68S81,19,81,18.34ZM65.86,24.29c.76-.22,2.41.39,2.06-1.59-.15-.85.38-2.44-1.4-2.08-.92.18-2.64-.65-2.56,1.27C64,22.87,63.58,24.59,65.86,24.29ZM55,18.7c-.08-.54-.58-.54-1-.61s-.72.26-.64.68.59.57,1,.57S55,19.12,55,18.7Z"/><path class="cls-3" d="M56.53,135.44c-.17,2.87-.3,5.74-2,8.24a18.12,18.12,0,0,1-15.39,8.51A15.81,15.81,0,0,1,25.78,146c-3.28-4.11-2.71-10.15.94-14.5a20,20,0,0,1,9.45-6.08c3.13-1,6-2.64,9.36-3.15a18.17,18.17,0,0,1,6.41-.15c1.26.26,2.64.47,2.85,2s-1,2.07-2.12,2.58c-.24.11-.45.27-.86.52,2.14,1.46,3.17,3.59,4.25,5.67C56.51,133.69,56.3,134.61,56.53,135.44Zm-6,6.6c1.24-.69,2.82,1.09,3.38-1.23,1-4.25-.17-10.77-5.45-13.38-1.19-.58-.71-1,0-1.43s1.61-.72,2.4-1.1c.34-.16.77-.35.7-.82s-.49-.57-.86-.67a10.77,10.77,0,0,0-4.59-.24c-4.11.56-7.71,2.52-11.34,4.31a15.09,15.09,0,0,0-7,7.12,11.33,11.33,0,0,0,5.06,15.19c6.77,3.6,15.71.92,19.74-5.88.2-.35.62-.68.38-1.18-1.17-.25-2-.25-1.83,1.41.1,1-.73,1.55-1.8,1.41-.44-.06-1-.19-1-.69,0-.84.63-.28,1-.23.79.12,1.1-.22,1.13-1s-.38-1-1.11-1a3.77,3.77,0,0,1-2.36-.33c.9-.68,2-.05,2.43-.52a10.07,10.07,0,0,1,1.79-1.91H48.38c-.28,0-.61,0-.65-.37s.27-.44.55-.45c1.21,0,2.43-.08,3.64,0,.89.08.75.61.24,1.11S50.89,140.85,50.51,142Z"/><path class="cls-3" d="M14.56,64.37C6.92,55.11,6,40,13.43,32.05a21.16,21.16,0,0,1,1.12,6.63C14.57,47.29,14.56,55.9,14.56,64.37Z"/><path class="cls-3" d="M88.69,158.44c-4.07,1-5.72-2.81-9-4.75,1.14,2.89-.22,3.84-2.33,4.24H75.29a2,2,0,0,1-2.36-1.53c-.16-.46-.45-.88-.62-1.35-.33-.92-1-2-.81-2.77.29-1,1.67-.12,2.48-.5,2.19-1,4.37-.72,6.69-.37a17.19,17.19,0,0,0,6.88-.26,1.34,1.34,0,0,1,1.84,1A13.22,13.22,0,0,0,91,155a1.75,1.75,0,0,1,0,2.36Z"/><path class="cls-3" d="M42.4,112.75c-1.73-1.81-1.72-4.52,0-6.9a8.42,8.42,0,0,1,2.33-2.08c.26-.17.68-.26.61-.68a.91.91,0,0,0-.8-.73c-1.08-.21-2.17-.4-3.25-.64-8.23-1.86-15.74-5.08-21.49-11.56a28.05,28.05,0,0,1-3.14-4.44,2.77,2.77,0,0,1-.36-2.38,30.81,30.81,0,0,0,1.44-6.42,51.13,51.13,0,0,0,1.05,5.24C21.76,91.91,29,97,38.24,99.83a35.67,35.67,0,0,0,6.12,1.39,1.76,1.76,0,0,1,1.42.71,6.87,6.87,0,0,0,2.57,2.18c-5.89,1.34-7.87,4.34-5.94,8.63Z"/><path class="cls-3" d="M26.23,29.16a50.81,50.81,0,0,0-4.8,4.47,27.12,27.12,0,0,0-2.67-5.51c-.18-.34-.77-.68-.19-1.11,1.84-1.36,3.58-2.93,5.94-3.38A14,14,0,0,0,26.23,29.16Z"/><path class="cls-3" d="M118.62,92.19c0,.54-.19,1.2,0,1.59.45.74,0,.85-.46,1.09A44,44,0,0,1,111.09,98c-1.35.48-1.62-.84-2.66-1.26a53.33,53.33,0,0,0,10.21-4.5Z"/><path class="cls-3" d="M14.88,67.07V80.91A20.61,20.61,0,0,1,14.88,67.07Z"/><path class="cls-3" d="M6.26,180.33c-1.22,0-2.43,0-3.64,0-.3,0-.75.11-.8-.34s.34-.55.67-.55l7.77,0c.22,0,.46.07.49.34s-.25.46-.52.46h-4Z"/><path class="cls-3" d="M10.64,175.87a24.36,24.36,0,0,1-9.48,0Z"/><path class="cls-3" d="M43.07,113.41a7.14,7.14,0,0,0,4.73,1.06c.36,0,.94-.39.88.46,0,.49-.26.69-.73.64-1.86-.2-3.72-.39-4.9-2.14Z"/><path class="cls-3" d="M79.3,23.44l-.11.68c-.33-.57-.39-1.63-1.49-.66a1.15,1.15,0,0,1-1.38-.18.68.68,0,0,1,0-.61c.25-.52.77-.28,1.17-.34.6-.08,1.23,0,1.74-.4h0C79.24,22.44,79.27,22.94,79.3,23.44Z"/><path class="cls-3" d="M3.36,6a4,4,0,0,1-2.82.13C1.45,5.49,2.41,5.8,3.36,6Z"/><path class="cls-3" d="M42.73,113.09c-.22,0-.31-.14-.33-.34h0l.33.34Z"/><path class="cls-3" d="M118.64,92.2l.08-.12-.1.11Z"/><path class="cls-3" d="M42.74,113.08l.33.33,0,0a.31.31,0,0,1-.32-.34Z"/><path class="cls-2" d="M107.16,41c1.22,0,1.17.92,1.22,1.76a1.29,1.29,0,0,1-1.09,1.57c-.6.12-1.18.29-1.77.4a1.43,1.43,0,0,1-1.94-1.4c-.19-1.45-.5-2.89-.78-4.51-.69.59-.39,1.19-.3,1.71.24,1.52.54,3,.81,4.56.12.64.14,1.29-.7,1.4s-.84-.52-1-1.08c-.36-2-.74-3.93-1.11-5.9l-.46.07c.26,1.55.49,3.11.77,4.66.09.55.35,1.13-.27,1.49s-1,.05-1.24-.59c-.18-.45-.54-.16-.83,0-.51.21-1,.43-1.54.61a.69.69,0,0,1-.94-.43c-.16-.43.07-.74.47-.93l1.81-.81c.44-.19.77-.45.55-1s-.59-.34-1-.37c-.74-.06-1.89.85-2.12-.34s1.15-.8,1.83-1.09c.32-.14.89-.08.76-.64s-.64-.26-1-.24a7.47,7.47,0,0,0-1.14.17c-.54.12-1,.09-1.16-.55s.34-.76.79-.87.93.13.28-.59-.28-1.32.69-1.5a62.32,62.32,0,0,0,7.88-1.89c.47-.16.91-.08,1.08.45s-.24.81-.67,1c-1,.35-2,.66-3.26,1,.68.68,1.25.2,1.77.16.71-.06,1.41-.27,2.12-.33s1.46-.56,1.61.49c.12.88-.74.78-1.29.91s-1.08.23-1.62.33a2.19,2.19,0,0,0,.33,1.4c1,.08,1.56-1.81,2.72-.78.64.57-.32,1-.59,1.48-.52.3-1.06.57-1.56.9s-.29.88-.18,1.35c.07.28.21.59.54.47s1-.37,1-.94S106.68,41.37,107.16,41Z"/><path class="cls-2" d="M86.85,41.63c.28,1.62.57,3.22.84,4.81.1.59.37,1.26-.37,1.61-.57.27-.83-.16-1.16-.59-.56-.71-1,.13-1.53.24s-1.38.71-1.74-.15.62-1,1.16-1.25c.24-.13.52-.19.75-.33.45-.26,1.16-.38.93-1.14s-.91-.33-1.4-.34c-.33,0-.65.11-1,.13s-.79-.1-.85-.59.3-.66.66-.82c.68-.3,2,.12,1.9-.9-.08-.63-1.36,0-2.09,0-.47,0-1,0-1.07-.51s.34-.85.87-.95a16.33,16.33,0,0,0,4.24-1,8.5,8.5,0,0,0-3,.31c-.54,0-1.21.23-1.31-.56-.08-.63.49-.75,1-.85a66,66,0,0,0,7.71-1.86c.44-.15.92-.19,1.15.32s-.23.92-.7,1.08a29.3,29.3,0,0,0-3,1.12c1.12.36,2.17-.15,3.24-.19.72,0,1.87-.84,2.08.41s-1.08.91-1.74,1c-1.26.15-1.41.69-.84,1.7.57,0,.92-.49,1.37-.78s1-.71,1.43,0-.18,1-.59,1.33a6.86,6.86,0,0,1-1.25.81c-.57.28-.86.64-.64,1.3a.69.69,0,0,0,.91.48.77.77,0,0,0,.71-1,.76.76,0,0,1,.78-1c.61,0,.75.49.86,1,.33,1.44-.22,2.17-1.66,2.44-2.39.45-2.79.32-3.12-1.35-.27-1.39-.51-2.79-.78-4.24-.78.25-.43.82-.36,1.22.26,1.64.59,3.26.86,4.89.1.59.24,1.32-.64,1.43s-.92-.56-1-1.19c-.3-1.73-.62-3.47-.94-5.21C87.46,42.05,87.53,41.64,86.85,41.63Z"/><path class="cls-3" d="M46.43,16.26l.54.44c2.47,5,2.27,9.81-1.55,14.09a11.66,11.66,0,0,1-18.37-1.45L27.4,29c.26.28.53.56.77.86A11.13,11.13,0,0,0,46,29c2.74-4.11,2.43-8.31.22-12.52Z"/><path class="cls-2" d="M104.84,88.57c-.68.23-1.57.5-2.43.84a1.73,1.73,0,0,1-2.61-1.17c-.21-.6-.11-1.24.49-1.32.77-.11,1.65-1.2,2.28-.26s.68.48,1-.1c.53-1,1.61-.85,2.46-1.12.53-.17.87.43,1,1C107.11,87.27,105.92,88.59,104.84,88.57Z"/><path class="cls-2" d="M83.43,92.14c.38-1.85,2.06-1.28,3.15-1.81.38-.19.72.31.75.59.06.62.63,1.22.12,1.87a2.35,2.35,0,0,1-2.8.23c-.53-.5-.53-.5-.75.06-.37.92-3.49,1.55-3.37,1.16.32-1-1.3-1.83-.16-2.53.74-.46,1.77-1.1,2.62,0A5.44,5.44,0,0,0,83.43,92.14Zm0,1a1.09,1.09,0,0,0-.24-.07s-.09.09-.08.11.1.12.15.18Z"/><path class="cls-2" d="M79.19,21.93c-.51.43-1.14.32-1.74.4-.4.06-.92-.18-1.17.34a.68.68,0,0,0,0,.61,1.15,1.15,0,0,0,1.38.18c1.1-1,1.16.09,1.49.66a.64.64,0,0,1-.31.61l-1.49-.09c-2.73-.14-3.14-.76-2.34-3.41.21-.7.51-1.06,1.08-.41a1,1,0,0,0,1,.33c.37,0,.88,0,.92-.47s-.44-.56-.82-.59c-.55-.05-1.1-.07-1.65-.11s-.8-.09-.75-.63.41-.46.74-.46.66,0,1,0C79.44,18.92,79.48,19,79.19,21.93Z"/><path class="cls-3" d="M25.58,18.69a16.66,16.66,0,0,1,4-5.3l.57-.09.13.13c-1,1.35-2.48,2.34-3.26,3.91A11.78,11.78,0,0,0,27.4,29l-.35.34L26.7,29A12.79,12.79,0,0,1,25.58,18.69Z"/><path class="cls-3" d="M91.55,91.07c-1.31-2,.45-2.13,1.71-2.27.88-.09.79,1,.75,1.48a2.08,2.08,0,0,1-2.14,1.85C91.14,92.2,91.07,91.73,91.55,91.07Z"/><path class="cls-3" d="M79.52,95c-.76-.58-1.24-1.45-1.74-.15-.17.46-.69.33-1.12.26-.6-.09-.47-.58-.46-.88,0-1.09.47-1.75,1.75-1.76C79.8,92.49,79.21,93.83,79.52,95Z"/><path class="cls-3" d="M68.71,97.37c-.72,0-1-1.1-1-1.69,0-1,1.11-1.07,1.87-1.28.61-.16,1.23,0,1.19.88C70.72,96.33,70.3,97.14,68.71,97.37Z"/><path class="cls-3" d="M97.5,89.94c-.08,1.2-1.63-.24-1.73,1.09,0-1-1.19-1.82-.13-2.55.78-.53,1.81-1.24,2.71,0-1,.34.06.83-.1,1.24l-.78.15h0l-.16-.13.13.16Z"/><path class="cls-3" d="M108.09,87.14c.57.29.61,1.12,1.14.7.19-.15.08-.91-.13-1.25-.36-.62-.87-1.18.19-1.5.49-.15,1.19-.28,1.2.6,0,.72,1,1.59-.12,2.14C109.65,88.19,108.7,88.63,108.09,87.14Z"/><path class="cls-3" d="M74,93.54c.39-.19.8-.32,1,.14s-1.13.51-.27,1.13c-.19.07-.38.24-.54,0s.12-.66-.35-.81c-.3-.1-.95.73-.86-.23C73,93,73.67,93.8,74,93.54Z"/><path class="cls-3" d="M112.53,84.71c1.16-.32,2.63.64,2.57,1.69,0,.11-.19.28-.32.31s-.37-.09-.38-.17C114.23,85.47,113.05,85.43,112.53,84.71Z"/><path class="cls-2" d="M49,21.21c.81.17,2-.47,2.23,1C50.41,22,49,23.22,49,21.21Z"/><path class="cls-2" d="M98.25,89.71c.16-.41-.87-.9.1-1.24a4,4,0,0,1,.3,2C98.19,90.37,98.39,90,98.25,89.71Z"/><polygon class="cls-2" points="97.5 89.94 97.41 89.88 97.44 89.85 97.47 89.86 97.56 89.94 97.5 89.94"/><path class="cls-2" d="M69.73,106.66a16.49,16.49,0,0,1-2.43,4.19,2.72,2.72,0,0,1-3.58.64c-.88-.46-2.18-3-2-3.66a.46.46,0,0,1,.47-.37A62.12,62.12,0,0,0,69.73,106.66Z"/><path class="cls-2" d="M74,121.32c-4.48,1.89-4.64,6.25-3.24,10.09.21.56.61,1.06.44,1.71-1.55-2-1.79-4.41-1.72-6.85a7.92,7.92,0,0,0,.1-2.28c.88-.7,1.24-2,2.4-2.36,1.82-.52,1.88-1.93,1.86-3.37a2.29,2.29,0,0,0-4.36-1.05,5.66,5.66,0,0,0-.35,5.23c.2.5.6.94.44,1.55a6.78,6.78,0,0,1-.3-7.79,3,3,0,0,1,3.23-1c1.29.29,1.73,1.38,2,2.58S74,120.12,74,121.32Z"/><path class="cls-2" d="M93.74,125.65a.87.87,0,0,1-1,1C93.06,126.26,93.15,125.7,93.74,125.65Z"/><path class="cls-2" d="M94.36,125c.06.25,0,.35-.29.3C94,125,94.11,124.91,94.36,125Z"/><path class="cls-2" d="M94,125.3c.06.24,0,.34-.28.34C93.71,125.41,93.77,125.28,94,125.3Z"/><path class="cls-2" d="M58,25.6a7.61,7.61,0,0,1-2,0c-.71-.19-1.57-.26-1.51-1.51,0-.83-1.33-1.16-1.35-2.24,0-.23-.58-.54-.32-.95s.7-.26,1.06-.19,1.21,0,1.09.71c-.2,1.08,1.21,1.46,1,2.58-.07.35.74.28,1.16.27.62,0,.41-.48.39-.85,0-.6-.65-1.49.25-1.7,1.08-.27,2.41-.62,3.35,0,.63.42.42,1.57.18,2.45C60.76,26,59.24,25.52,58,25.6Z"/><path class="cls-2" d="M71,21.22a13.59,13.59,0,0,1-.28,2.84c-.31.85-1,.74-1.48.5-.71-.34,0-.62.18-1a11.64,11.64,0,0,0,.33-4.24c0-.4-.36-.52-.7-.57-1.08-.15-2.17-.27-3.26-.43-.89-.14-1,.63-1.46,1.1-.24.29-.45.66-.93.4s-.33-.73-.11-1.1c.48-.81,1-1.59,1.47-2.39.32-.51,1.07-.74,1.13-.24.2,1.47,1.33,1.13,2.12,1.28C71.17,18,71.18,17.94,71,21.22Z"/><path class="cls-2" d="M59.11,21c-.73-.06-1.47.51-2.31.28-.37-.11-.81,0-.86-.55s.39-.59.75-.69.55-.08.82-.14,1,.14,1.05-.51c0-.27,0-.61-.3-.69s-.91-.2-1.25.15-.51,1.1-1.24.72c-.41-.21-.24-.71-.15-1.05.2-.78.64-2.26.87-2.1,1,.73,1.83.93,2.68-.15.46.76,1.35.9,2,1.35s-.16.78-.67.9c-.31.08-.68.09-.7.54s.33.47.67.49,1.11-.27,1.18.49-.76.67-1.17.92A1.27,1.27,0,0,1,59.11,21Z"/><path class="cls-2" d="M81,18.34c0,.65-.06,1-.06,1.31s-.17.72-.68.68-.5-.41-.45-.72c.26-1.52-.61-1.7-1.81-1.64a7.84,7.84,0,0,1-1.79-.23,1.78,1.78,0,0,0-2.09.86c-.22.38-.45,1.07-1.07.69s-.14-1,.08-1.41A11.15,11.15,0,0,1,74,16.47c.49-.74.94-2.2,1.74-.18.16.38.57.23.87.25a21.81,21.81,0,0,0,2.78.21C80.79,16.7,81.22,17.37,81,18.34Z"/><path class="cls-2" d="M65.86,24.29c-2.28.3-1.86-1.42-1.9-2.4-.08-1.92,1.64-1.09,2.56-1.27,1.78-.36,1.25,1.23,1.4,2.08C68.27,24.68,66.62,24.07,65.86,24.29Zm.73-1.9c0-.47-.19-.72-.69-.66s-.78.13-.71.67.15.86.79.76C66.46,23.08,66.66,22.86,66.59,22.39Z"/><path class="cls-2" d="M55,18.7c0,.42-.23.64-.6.64s-.92-.05-1-.57.15-.76.64-.68S54.93,18.16,55,18.7Z"/><path class="cls-2" d="M85.11,132.55a5.69,5.69,0,0,1-8.42,2.53c-1.55-1.05-1.82-3-2.07-4.84-.3-2.06.35-4.16-.26-6.22-.21-.69.4-1.16.91-1.42s1.1-.47,1.26.42c-1.59,1.92-1.66,4.19-1.53,6.51,0,.36.17.73.57.63,2.08-.52,3.74,1,5.72,1.11A7.36,7.36,0,0,1,85.11,132.55Z"/><path class="cls-3" d="M85.11,132.55a7.36,7.36,0,0,0-3.82-1.28c-2-.11-3.64-1.63-5.72-1.11-.4.1-.55-.27-.57-.63-.13-2.32-.06-4.59,1.53-6.51h0a2.76,2.76,0,0,0,1.34,2.13c.11,0,.17.06.18.16l.08.51-2.11,2c2.37,2.55,2.76,2.49,4-.65l.09-.14.49.4c-.06.65-.13,1.3-.18,2,0,.44,0,1,.49,1.09a3.51,3.51,0,0,0,2.7-.12c.73-.42.21-1.18.19-1.8,0-.27-.07-.54-.1-.81l.91-.7c.41-.14.82-.29,1.24-.4s1.13-1,1.59-.59,0,1.18-.17,1.79A13,13,0,0,1,85.11,132.55Z"/><path class="cls-3" d="M79.79,120.24c-.17,1.08-.44,2-1.61,2.12s-.25-1.12-.85-1.38c.37-.75.14-2,1.41-2C79.7,118.9,79.6,119.75,79.79,120.24Z"/><path class="cls-3" d="M90,120.24a.9.9,0,0,1-.93.77c-.69,0-2.62-1.62-2.56-2.16s.32-.73.91-.65C88.45,118.35,90,119.56,90,120.24Z"/><path class="cls-3" d="M78.94,118.26c-.78.12-1.24-.13-1.2-.72.08-1.27,1.18-1.05,2-1.14.59-.06,1.47,0,1.33.79C80.84,118.38,79.54,118,78.94,118.26Z"/><path class="cls-3" d="M85.09,123.07c.2-.83.52-1.69,1.55-1.77.81-.07.94.65.82,1.27-.18.93-.54,1.86-1.7,1.82C85,124.37,85.08,123.68,85.09,123.07Z"/><path class="cls-2" d="M78.14,125.83l-.08-.51c2.11.9,4.15,2.09,6.59,1.75l-.91.7a5.23,5.23,0,0,0-3.1-.31l-.49-.4A3.59,3.59,0,0,0,78.14,125.83Z"/><path class="cls-2" d="M77.88,125.16A2.76,2.76,0,0,1,76.54,123,2.38,2.38,0,0,1,77.88,125.16Z"/><path class="cls-2" d="M80.93,166.7a2.78,2.78,0,0,1,1.89.85l-2.95.44c1,.62,1.83.27,2.61.49,0,.64-1.68,1.27.46,2.07H76.88c1.5-.75.55-1.37.12-2,.38-.22.83,0,1.11-.36,0-.89-1-.2-1.19-.83L79.48,166c.36-.19.62-.06.78.31a.88.88,0,0,1-.12.21c-.62,0-1.11.17-1.54,1.16.86-.65,1.77.29,2.17-.8Z"/><path class="cls-2" d="M80.26,166.3a.68.68,0,0,1,.67.4,1.22,1.22,0,0,0-.15.17c-.27,0-.52-.08-.64-.36A.88.88,0,0,0,80.26,166.3Z"/><path class="cls-2" d="M56.3,168.06c.86.51.33-1,1.25-.79,1.18.21,2,.42,1.79,1.8-.08.51.22.88.4,1.34-1-.65-1.88,1-2.79,0C56.66,169.64,55.87,169,56.3,168.06Z"/><path class="cls-3" d="M56.3,168.06c-.43,1,.36,1.58.65,2.34-.51-.15-1.21.6-1.54-.19a4.51,4.51,0,0,1-.18-2.77.4.4,0,0,1,.63-.27C56.23,167.37,56.49,167.59,56.3,168.06Z"/><path class="cls-2" d="M90.82,170.42c-1-.1-2.12.09-2.06-1.61,0-1.17.2-1.87,1.56-1.75a11.88,11.88,0,0,0,2.15,0c1-.09.68.54.64,1a1.88,1.88,0,0,1-1.69.26c-1-.41-1,.18-.92.82A7.68,7.68,0,0,0,90.82,170.42Z"/><path class="cls-3" d="M90.82,170.42a7.68,7.68,0,0,1-.32-1.23c-.07-.64-.07-1.23.92-.82a1.88,1.88,0,0,0,1.69-.26v3C92.39,169.58,91.54,170.68,90.82,170.42Z"/><path class="cls-3" d="M70.24,169.75c.26,0,.6-.07.61.33a.6.6,0,0,1-.62.63,26.39,26.39,0,0,1-3,0c-.58-.05-1.14-2.47-.67-2.91a2.63,2.63,0,0,1,3-.51c.33.19,1.69,1.34.63,2.48-.85-.74-1.89.06-2.8-.33-.07,0-.32.25-.42.42s.15.33.23.33C68.28,170.2,69.42,171,70.24,169.75Z"/><path class="cls-3" d="M30.12,13.3c3.45-3,9.89-3,13.29,0l-.13.15a14.15,14.15,0,0,0-6.92-1.9,16.86,16.86,0,0,0-6.11,1.88Z"/><path class="cls-3" d="M45.51,14.85l.79.86.13.55-.26.24a6,6,0,0,1-1.47-1.84,1.51,1.51,0,0,0,.21-.23Z"/><path class="cls-3" d="M43.41,13.3a1.72,1.72,0,0,1,1.18.83l-.21.2a1.6,1.6,0,0,1-1.1-.88Z"/><path class="cls-3" d="M44.59,14.13l.32.3a1.51,1.51,0,0,1-.21.23l-.32-.33Z"/><path class="cls-2" d="M44.38,14.33l.32.33a6,6,0,0,0,1.47,1.84C48.38,20.71,48.69,24.91,46,29a11.13,11.13,0,0,1-17.78.84c-.24-.3-.51-.58-.77-.86A11.78,11.78,0,0,1,27,17.34c.78-1.57,2.23-2.56,3.26-3.91a16.86,16.86,0,0,1,6.11-1.88,14.15,14.15,0,0,1,6.92,1.9A1.6,1.6,0,0,0,44.38,14.33ZM33.46,25.26l0,0c.2,1.44,1.27,1,2.05.85.6-.11,1.27-.5.62-1.34h0c-.3-.85.64-2.2-1-2.5v0c.32-.53,1.4,0,1.37-1a.87.87,0,0,0-.86-.95c-.5.06-1,.24-1.35-.36.17-.36,1-.54.29-1.13-.2-.4-.36-.8-1-.73-1.52.17-3.05.36-4.59.45-.77,0-.49.53-.52.91l-.17.84c-.81.09-1.23.24-1,1.33s1.37,2.42-.2,3.49c-.05,0,0,.2,0,.31.23,1.71,1.28.54,1.81.41,1.87-.46,1.87-.53,1.87,1.33,0,.74-.09,1.45,1,1.46s.9-.82.94-1.5c.12-1.67-.2-3.36.3-5l0,2.67Zm11.93-3c.31-.53,1.4,0,1.36-1a.87.87,0,0,0-.85-.95c-.5.08-1,.27-1.36-.34.23-.35.84-.6.29-1.14-.16-.34-.3-.77-.76-.73-1.62.15-3.23.34-4.85.51-.61.06-.38.52-.45.85l-.16.84c-.82.08-1.22.25-1,1.33S39,24,37.45,25.1c-.05,0,0,.21,0,.31.23,1.72,1.28.53,1.82.41,1.88-.45,1.88-.52,1.86,1.35,0,.74-.17,1.46,1,1.44s.94-.79,1-1.48c.11-1.68-.2-3.38.28-5l0,2.67c0,1.55,1.12,1.56,2.17,1.38.65-.11,1.51-.38.8-1.39v0c-.29-.85.66-2.19-1-2.48Z"/><path class="cls-2" d="M97.41,89.88l-.13-.16.16.13Z"/><path class="cls-3" d="M66.59,22.39c.07.47-.13.69-.61.77-.64.1-.73-.29-.79-.76s.29-.62.71-.67S66.6,21.92,66.59,22.39Z"/><path class="cls-2" d="M48,134c-.31,1.92-1.74,2.77-3.32,3.47-.06-1.1-.29-2.12-1.54-2.44-.73-.2-.76.67-1.21.76.31,1.15,1.93.37,2.08,1.63a2.28,2.28,0,0,0-1.53.32,6,6,0,0,1-6.84-1.25,6.72,6.72,0,0,1-.56-7.39,5.64,5.64,0,0,1,6.32-1.54c.78.4,2.26.35,2.22,1.33s-1.46.51-2.24.8a6.48,6.48,0,0,0-2.89,1.71,1.34,1.34,0,0,0,.55,2.34,7,7,0,0,0,5.3.1c.81-.31,1.67-1,2.36.32.33.61.86-.18,1.32-.14Z"/><path class="cls-3" d="M44.42,145.5c-.89-.76-1.76-.9-2.76.32-.15-2.26-1.25-4.23-.19-6.34.12-.23.14-.69.43-.53,1.28.7,2.54,0,3.8,0,.7,0,1.07.3.84,1-.1.33.07.91-.5.9-.82,0,.27-.79-.46-1a18.13,18.13,0,0,0,0,4c1-.73.15-1.46.41-2,1.21,1,1.25,2.1-.06,2.73-.49.24-.18,1.08-.9.9v-5.47l-.58,0Z"/><path class="cls-3" d="M36,143.72c-.57.5-.45,1.52-1.44,1.76-.4-1.95,3-3.2.95-5.34.79-.61,2,0,2.56-1.16.12-.24,2.31,1.31,2.33,1.73,0,.66,0,1.32,0,2,0,2.67-1,3.42-3.58,2.71C36.2,145.23,36.2,145.23,36,143.72Zm3-.86c-.6.06-.44.57-.46,1s0,.8.59.76.51-.56.54-1S39.62,142.85,39,142.86Zm.07-2.34c-.56,0-.52.41-.54.8s.1.75.61.73.53-.4.54-.8S39.57,140.51,39.06,140.52Zm-1.61,2.36c-.5,0-.67.2-.62.59s-.28,1.07.53,1.12c.46,0,.48-.36.45-.68S38,143,37.45,142.88Zm.37-1.65c0-.31.06-.68-.43-.7s-.59.3-.58.72,0,.8.52.79S37.8,141.58,37.82,141.23Z"/><path class="cls-3" d="M29.21,138.91c.38.1.08,1.84,1.15.42.31-.41,1.56-.12,2.39-.13.12,0,.37.2.35.25-.49,1.74,1.67,3,.79,4.87-.38.81-.74,1.32-1.66,1.23-.42,0-1-.06-1-.62s.56-.35.9-.24.82,0,.9-.44c.12-.63.53-1.52,0-1.87-.8-.53-.72-1.12-.63-1.83,0-.27,0-.55-.37-.58s-.43.29-.43.63a9,9,0,0,1-.73,3.85c-.23.52-.29,1.12-1.23.28a3.22,3.22,0,0,1-1.29-3.08A3.55,3.55,0,0,1,29.21,138.91ZM30.67,140c.06,1.32-.61,2.59-.51,3.91A5.32,5.32,0,0,0,30.67,140Zm-1.11.9c-.34.62-.9,1.22-.26,2.24C29.57,142.29,29.89,141.67,29.56,140.92Z"/><path class="cls-3" d="M44.05,137.39c-.15-1.26-1.77-.48-2.08-1.63.45-.09.48-1,1.21-.76,1.25.32,1.48,1.34,1.54,2.44C44.47,137.68,44.25,137.67,44.05,137.39Z"/><path class="cls-2" d="M44.42,145.5v-5.42l.58,0v5.47Z"/><path class="cls-2" d="M48.06,134l0-.32c.22.16,0,.2-.07.3Z"/><path class="cls-3" d="M45.91,141.53l-.19-.12s.08-.1.1-.1a1.06,1.06,0,0,1,.21.11Z"/><path class="cls-3" d="M37.45,25.41a4.15,4.15,0,0,0,2.37-.49c.52-.18,2.2-.12.41-1.27-.5-.33-.16-1.36-.1-2.06,0-.34.38-.33.65-.31.55,0,.55.44.55.84,0,1.48-.07,3,0,4.45,0,.47-.33,1.3.55,1.27s.47-.85.49-1.33c0-1.48,0-3,0-4.45,0-.39,0-.81.56-.78s.53.43.47.82c-.48,1.65-.17,3.35-.28,5-.05.69.16,1.47-1,1.48s-1-.7-1-1.44c0-1.87,0-1.8-1.86-1.35C38.73,25.94,37.68,27.13,37.45,25.41Z"/><path class="cls-3" d="M27.17,25.41A8.47,8.47,0,0,0,31,24.32c-1.36-.39-1.2-1.34-1.18-2.23,0-.38,0-.8.55-.82s.7.37.69.86c0,1.43-.07,2.86,0,4.29,0,.5-.4,1.45.55,1.4s.47-.95.49-1.48c.06-1.42,0-2.85,0-4.28,0-.4,0-.81.57-.78s.53.43.48.82c-.5,1.65-.18,3.34-.3,5,0,.68.23,1.5-.94,1.5s-1-.72-1-1.46c0-1.86,0-1.79-1.87-1.33C28.45,26,27.4,27.12,27.17,25.41Z"/><path class="cls-3" d="M36.11,24.76c-.13-1.3-1.56.16-1.85-.9-.23-.84,1.69-.48.84-1.6C36.75,22.56,35.81,23.91,36.11,24.76Z"/><path class="cls-3" d="M46.38,24.74c-.1-1.32-1.6.24-1.85-.91-.18-.84,1.78-.41.84-1.57C47,22.55,46.09,23.89,46.38,24.74Z"/><path class="cls-3" d="M43.41,24.77a1.8,1.8,0,0,0,3,0c.71,1-.15,1.28-.8,1.39C44.53,26.33,43.44,26.32,43.41,24.77Z"/><path class="cls-3" d="M44.54,20c-.73-.2-1.86,1-2.07,0-.26-1.23,1.31-.52,1.94-.95.13-.09.28-.15.42-.23C45.38,19.35,44.77,19.6,44.54,20Z"/><path class="cls-3" d="M34.27,19.94c-.73-.18-1.86,1-2.07,0-.26-1.23,1.31-.51,1.93-1a3.48,3.48,0,0,1,.43-.22C35.29,19.4,34.44,19.58,34.27,19.94Z"/><path class="cls-3" d="M33.44,25.24c1,.31,1.93.5,2.67-.49.65.84,0,1.23-.62,1.34C34.71,26.23,33.64,26.68,33.44,25.24Z"/><path class="cls-3" d="M45.39,22.28c-.4,0-.79,0-.79-.52s.33-.51.67-.49c.81,0,.95-.31.63-1a.87.87,0,0,1,.85.95C46.79,22.26,45.7,21.75,45.39,22.28Z"/><path class="cls-3" d="M35.11,22.28c-.39,0-.79.06-.79-.51s.32-.52.67-.5c.79.05,1-.29.63-1a.87.87,0,0,1,.86.95C36.51,22.26,35.43,21.75,35.11,22.28Z"/><path class="cls-3" d="M28.5,19.44a3.39,3.39,0,0,0,1.76,0c.35,0,.69,0,.71.41s-.39.45-.7.44c-.65,0-1.29,0-1.94,0Z"/><path class="cls-3" d="M38.77,19.44a4.06,4.06,0,0,0,1.93,0c.3,0,.55.09.56.43s-.24.45-.54.44l-2.11,0Z"/><path class="cls-3" d="M33.13,24.77l.33.49Z"/><path class="cls-2" d="M72,120.28c-.4-.54-.68-.94-1-1.33s-.49-.75-.17-1.19a.63.63,0,0,1,.71-.3,1.22,1.22,0,0,1,.89.89A2.43,2.43,0,0,1,72,120.28Z"/></g></svg>