<svg xmlns="http://www.w3.org/2000/svg" viewBox="0 0 997.91 84.51"><defs><style>.cls-1{fill:#17816f;}.cls-2{fill:#e5830e;}</style></defs><title>Guai-Guai group-1</title><g id="圖層_2" data-name="圖層 2"><path class="cls-1" d="M-5.62,62.63c-3.91,1.6-5,1.19-6.82-2.56-.23-.48-.45-.7-1-.5a5.64,5.64,0,0,1-4.12-.14A8.49,8.49,0,0,0-21.9,59a3.09,3.09,0,0,1-3.22-1.11c-.81-1.27-1.68-2.48-2.51-3.72a2.84,2.84,0,0,0-1.45-1.25,77.82,77.82,0,0,1-12.31-5.83A1.59,1.59,0,0,1-42.25,45c.87-3.12,1.65-6.28,2.47-9.42.37-1.43.8-1.57,1.85-.56a10.75,10.75,0,0,0,3.82,2.4A4.38,4.38,0,0,0-29,36.08a7.16,7.16,0,0,0,1.43-2.4,17.27,17.27,0,0,0,1-4.86A38.33,38.33,0,0,1-25,19a2.61,2.61,0,0,0,.13-.63.63.63,0,0,0-.33-.64c-.31-.15-.42.16-.59.33-.42.45-.82.92-1.26,1.34a3,3,0,0,1-3.14,1c-1.23-.39-1.38-1.55-1.6-2.62-1-4.74.67-8.71,3.52-12.36a4.13,4.13,0,0,1,4.11-1.6,50.28,50.28,0,0,1,7.31,1.45A1.56,1.56,0,0,0-15.22,5a20.72,20.72,0,0,1,6-3.22C-1.92-.83,5.21-.81,12,3.52a29.6,29.6,0,0,1,9.78,10.24,15.21,15.21,0,0,0,1.38,2.07c1.56,1.89,2.84,1.83,4.19-.21a18.77,18.77,0,0,0,2-4.42c.39-1.13.69-1.26,1.74-.68,2.86,1.61,5.71,3.25,8.58,4.86A1.45,1.45,0,0,1,40.47,17,29.44,29.44,0,0,1,40,20a91,91,0,0,1-3.23,9.65c-.1.26-.8,1,.29.87s2.08-.11,2.7,1c.1.2.48.27.74.38A2.51,2.51,0,0,1,42,35.13a1.57,1.57,0,0,0-.08,1c.81,2.21.51,3.53-1.35,4.77a10.64,10.64,0,0,0-3.39,3.58,4.81,4.81,0,0,1-3,2.34c-.91.24-1,.6-.6,1.45,1.23,2.62.65,4-2.05,5.08-.3.13-.61.23-.92.33a27.33,27.33,0,0,1-7.79,1.07c-1.37,0-1.78.55-1.53,1.92.45,2.52.91,5,1.33,7.57.26,1.6.08,1.85-1.52,2.22a1.15,1.15,0,0,0-1,.89,31.86,31.86,0,0,1-2.33,5.82c-.36.7.11,1.08.38,1.56s.73.28,1.13.12c1.51-.61,3-1.24,4.52-1.83a9,9,0,0,1,7.74.4,24,24,0,0,1,7.25,6.09c.89,1.09.81,1.44-.41,2.21a18.37,18.37,0,0,1-8.81,2.7,34.19,34.19,0,0,1-11-1.41c-.37-.1-.82-.36-1.14-.06-1.27,1.18-2.73.8-4.2.65A3.08,3.08,0,0,1,10.45,81c-.48-1.83.41-3.67-.15-5.5-.09-.32.21-.68.45-1,.49-.58.21-.77-.37-1C8.51,73,8.52,73,8.54,71.09c0-.29,0-.58,0-.86s.11-.56-.17-.69-.47.14-.66.28a30.71,30.71,0,0,0-3.89,3.76A4.18,4.18,0,0,1,.54,75.15a.81.81,0,0,0-.92.57,18,18,0,0,0-1.4,5.2,2,2,0,0,1-.5,1.4c-.86.89-4.16,1.21-5.12.38a1.55,1.55,0,0,0-1.75-.29,32.68,32.68,0,0,1-19.18.76c-2-.53-2.45-1.59-1.39-3.36a17.56,17.56,0,0,1,4.91-5.42,9.79,9.79,0,0,1,7.47-1.81,68.82,68.82,0,0,1,7.11,1.88c.61.15,1.22.38,1.66-.3a1.68,1.68,0,0,1,2.39-.67c-.74-1.29-.75-1.48-.07-2.69A50.88,50.88,0,0,0-3.76,66c.14-.33.4-.66.12-1-.71-.87-.33-1.6.24-2.33.33-.43.62-.88,1.07-1.54C-3.59,61.7-4.59,62.21-5.62,62.63ZM39.22,36.07a5.91,5.91,0,0,0,1.16-.56,1.53,1.53,0,0,0,.35-2.12,1.36,1.36,0,0,0-1.94-.29,10.68,10.68,0,0,0-3.54,3.44c-.15.24-.29.48-.57,1a4,4,0,0,1,1.18-2.77A11.83,11.83,0,0,1,38,32.79c.31-.23.73-.46.5-.95a.9.9,0,0,0-1.21-.41,4.54,4.54,0,0,0-2.91,2.44,5.39,5.39,0,0,1-3.07,3.33A3.37,3.37,0,0,0,30,38.54c-.39.53-.59.39-.77-.14a4.45,4.45,0,0,0-2-2.6,1.62,1.62,0,0,0-2.09.14,1.48,1.48,0,0,0-.4,2,15.65,15.65,0,0,1,2.7,6.62c.21,1.18,1.35,1.61,2.33,2.09.25.12.54.19.68.5-.52.27-.95-.17-1.51,0a3.85,3.85,0,0,0,1.22,1.4c.44.38.78,0,1-.31a5.51,5.51,0,0,1,3.35-2.54,3.92,3.92,0,0,0,1.94-1.81,9.46,9.46,0,0,1,3.23-3.42A3.91,3.91,0,0,0,41.3,38.7,1.43,1.43,0,0,0,41.17,37a1.33,1.33,0,0,0-1.6-.2,7,7,0,0,0-2.26,1.45c-.25.24-.51.46-.76.69A4.36,4.36,0,0,1,39.22,36.07ZM-18.94,50.69c-.44.19-.76-.11-1.1-.31a6.34,6.34,0,0,0-3.89-1.07,6.81,6.81,0,0,0-1.27.26c-.5.16-1,.44-.93,1s.7.63,1.2.64a14,14,0,0,1,3.23.18,4.49,4.49,0,0,1,1.82.89,15.34,15.34,0,0,0-4.51-.61c-.25,0-.51,0-.76,0-1.17.12-1.75.79-1.53,1.75a1.72,1.72,0,0,0,2.19,1.22,7.39,7.39,0,0,1,2.76-.43,3.46,3.46,0,0,1,1.74.55,8.18,8.18,0,0,0-3.45.23c-.67.2-1.38.39-1.39,1.28s.62,1.24,1.34,1.49a6.07,6.07,0,0,0,2.36.14,10.76,10.76,0,0,1,4.36.65,4.53,4.53,0,0,0,3.08,0,4.5,4.5,0,0,1,3.17-.14c.31.11.76.29,1-.14a.64.64,0,0,0-.38-.89c-.62-.19-.23-.52-.11-.73a4.23,4.23,0,0,0-.14-4.7,6.83,6.83,0,0,1-1.18-4.31,2.32,2.32,0,0,0-.38-1.45,1.64,1.64,0,0,0-1.62-.86,1.56,1.56,0,0,0-1.41,1,4.2,4.2,0,0,0-.12,3.06,1.87,1.87,0,0,1,.23,1.13A5.45,5.45,0,0,0-18.94,50.69ZM7.56,39.3a4.28,4.28,0,0,0-.22-2.94.14.14,0,0,0-.07-.08c-.63-.54-3.2.37-3.34,1.18a4.6,4.6,0,0,0-.05.64c-.06,1.71.07,1.84,1.89,1.83C6.36,39.88,7.26,40.09,7.56,39.3Zm2.52-.7a3.69,3.69,0,0,0,2.51-1.84.78.78,0,0,0-.17-.8,4.87,4.87,0,0,0-.67-.69c-.42-.32-.73-1.05-1.27-.87a12.44,12.44,0,0,0-2.22,1.29c-.06,0-.07.19-.08.23A4.9,4.9,0,0,0,10.08,38.6Z"/><path class="cls-1" d="M493.33,62.63c-3.9,1.6-5,1.19-6.82-2.56-.23-.48-.45-.7-1-.5a5.64,5.64,0,0,1-4.12-.14,8.48,8.48,0,0,0-4.36-.44,3.09,3.09,0,0,1-3.22-1.11c-.81-1.27-1.68-2.48-2.51-3.72a2.84,2.84,0,0,0-1.45-1.25,77.82,77.82,0,0,1-12.31-5.83A1.59,1.59,0,0,1,456.7,45c.87-3.12,1.65-6.28,2.47-9.42.37-1.43.8-1.57,1.85-.56a10.75,10.75,0,0,0,3.82,2.4,4.38,4.38,0,0,0,5.09-1.3,7.16,7.16,0,0,0,1.43-2.4,17.27,17.27,0,0,0,1-4.86A38.33,38.33,0,0,1,474,19a2.61,2.61,0,0,0,.13-.63.63.63,0,0,0-.33-.64c-.31-.15-.42.16-.59.33-.42.45-.82.92-1.26,1.34a3,3,0,0,1-3.14,1c-1.23-.39-1.38-1.55-1.6-2.62-1-4.74.67-8.71,3.52-12.36a4.13,4.13,0,0,1,4.11-1.6,50.28,50.28,0,0,1,7.31,1.45A1.56,1.56,0,0,0,483.73,5a20.65,20.65,0,0,1,6-3.22C497-.83,504.16-.81,510.9,3.52a29.6,29.6,0,0,1,9.78,10.24,15.21,15.21,0,0,0,1.38,2.07c1.56,1.89,2.84,1.83,4.19-.21a18.77,18.77,0,0,0,2-4.42c.39-1.13.69-1.26,1.74-.68,2.87,1.61,5.71,3.25,8.58,4.86a1.45,1.45,0,0,1,.84,1.59,29.44,29.44,0,0,1-.52,3,91,91,0,0,1-3.23,9.65c-.1.26-.8,1,.29.87s2.08-.11,2.7,1c.1.2.48.27.74.38A2.5,2.5,0,0,1,541,35.13a1.57,1.57,0,0,0-.08,1c.82,2.21.51,3.53-1.35,4.77a10.64,10.64,0,0,0-3.39,3.58,4.81,4.81,0,0,1-3,2.34c-.91.24-1,.6-.6,1.45,1.23,2.62.65,4-2.05,5.08-.3.13-.61.23-.92.33a27.33,27.33,0,0,1-7.79,1.07c-1.37,0-1.78.55-1.53,1.92.45,2.52.91,5,1.33,7.57.26,1.6.08,1.85-1.52,2.22a1.15,1.15,0,0,0-1,.89,31.86,31.86,0,0,1-2.33,5.82c-.36.7.11,1.08.38,1.56s.73.28,1.13.12c1.51-.61,3-1.24,4.52-1.83a9,9,0,0,1,7.74.4,24,24,0,0,1,7.25,6.09c.89,1.09.81,1.44-.41,2.21a18.33,18.33,0,0,1-8.81,2.7,34.19,34.19,0,0,1-11-1.41c-.37-.1-.82-.36-1.14-.06-1.27,1.18-2.73.8-4.2.65A3.08,3.08,0,0,1,509.4,81c-.48-1.83.41-3.67-.15-5.5-.09-.32.21-.68.45-1,.49-.58.21-.77-.37-1-1.86-.57-1.86-.58-1.84-2.52,0-.29,0-.58,0-.86s.11-.56-.17-.69-.46.14-.66.28a30.71,30.71,0,0,0-3.89,3.76,4.18,4.18,0,0,1-3.29,1.57.81.81,0,0,0-.92.57,18,18,0,0,0-1.4,5.2,2,2,0,0,1-.5,1.4c-.86.89-4.16,1.21-5.12.38a1.55,1.55,0,0,0-1.75-.29,32.68,32.68,0,0,1-19.18.76c-2-.53-2.45-1.59-1.39-3.36a17.56,17.56,0,0,1,4.91-5.42,9.79,9.79,0,0,1,7.47-1.81,68.82,68.82,0,0,1,7.11,1.88c.61.15,1.22.38,1.66-.3a1.68,1.68,0,0,1,2.39-.67C492,72.2,492,72,492.7,70.8A50.88,50.88,0,0,0,495.19,66c.14-.33.4-.66.12-1-.71-.87-.33-1.6.24-2.33.33-.43.62-.88,1.07-1.54C495.36,61.7,494.36,62.21,493.33,62.63Zm44.84-26.56a5.91,5.91,0,0,0,1.16-.56,1.53,1.53,0,0,0,.35-2.12,1.36,1.36,0,0,0-1.94-.29,10.68,10.68,0,0,0-3.54,3.44c-.15.24-.29.48-.57,1a4,4,0,0,1,1.18-2.77A11.83,11.83,0,0,1,537,32.79c.31-.23.73-.46.5-.95a.9.9,0,0,0-1.21-.41,4.54,4.54,0,0,0-2.91,2.44,5.39,5.39,0,0,1-3.07,3.33,3.44,3.44,0,0,0-1.39,1.34c-.38.53-.59.39-.77-.14a4.45,4.45,0,0,0-2-2.6,1.62,1.62,0,0,0-2.09.14,1.48,1.48,0,0,0-.4,2,15.65,15.65,0,0,1,2.7,6.62c.21,1.18,1.35,1.61,2.33,2.09.25.12.54.19.68.5-.51.27-1-.17-1.51,0a3.85,3.85,0,0,0,1.22,1.4c.44.38.78,0,1-.31a5.51,5.51,0,0,1,3.35-2.54,3.92,3.92,0,0,0,1.94-1.81,9.46,9.46,0,0,1,3.23-3.42,3.91,3.91,0,0,0,1.67-1.81,1.43,1.43,0,0,0-.13-1.71,1.33,1.33,0,0,0-1.6-.2,7,7,0,0,0-2.26,1.45c-.25.24-.51.46-.76.69A4.36,4.36,0,0,1,538.17,36.07ZM480,50.69c-.44.19-.76-.11-1.1-.31A6.33,6.33,0,0,0,475,49.31a6.81,6.81,0,0,0-1.27.26c-.5.16-1,.44-.93,1s.7.63,1.2.64a14,14,0,0,1,3.23.18,4.49,4.49,0,0,1,1.82.89,15.34,15.34,0,0,0-4.51-.61c-.25,0-.51,0-.76,0-1.17.12-1.75.79-1.53,1.75a1.72,1.72,0,0,0,2.19,1.22,7.39,7.39,0,0,1,2.76-.43,3.46,3.46,0,0,1,1.74.55,8.19,8.19,0,0,0-3.45.23c-.67.2-1.38.39-1.39,1.28s.62,1.24,1.34,1.49a6.07,6.07,0,0,0,2.36.14,10.76,10.76,0,0,1,4.36.65,4.53,4.53,0,0,0,3.08,0,4.5,4.5,0,0,1,3.17-.14c.31.11.76.29,1-.14a.64.64,0,0,0-.38-.89c-.62-.19-.23-.52-.11-.73a4.23,4.23,0,0,0-.14-4.7,6.83,6.83,0,0,1-1.18-4.31,2.32,2.32,0,0,0-.38-1.45,1.64,1.64,0,0,0-1.62-.86,1.56,1.56,0,0,0-1.41,1,4.2,4.2,0,0,0-.12,3.06,1.87,1.87,0,0,1,.23,1.13A5.45,5.45,0,0,0,480,50.69Zm26.5-11.39a4.28,4.28,0,0,0-.22-2.94.14.14,0,0,0-.07-.08c-.63-.54-3.2.37-3.34,1.18a4.6,4.6,0,0,0-.05.64c-.06,1.71.07,1.84,1.89,1.83C505.31,39.88,506.21,40.09,506.51,39.3Zm2.52-.7a3.69,3.69,0,0,0,2.51-1.84.78.78,0,0,0-.17-.8,4.87,4.87,0,0,0-.67-.69c-.42-.32-.73-1.05-1.27-.87a12.44,12.44,0,0,0-2.22,1.29c-.06,0-.07.19-.08.23A4.9,4.9,0,0,0,509,38.6Z"/><path class="cls-2" d="M368.59,62.63c-3.9,1.6-5,1.19-6.81-2.56-.23-.48-.46-.7-1-.5a5.67,5.67,0,0,1-4.13-.14,8.48,8.48,0,0,0-4.36-.44,3.1,3.1,0,0,1-3.22-1.11c-.81-1.27-1.68-2.48-2.5-3.72a2.88,2.88,0,0,0-1.45-1.25,78.34,78.34,0,0,1-12.32-5.83A1.6,1.6,0,0,1,332,45c.88-3.12,1.65-6.28,2.47-9.42.38-1.43.8-1.57,1.85-.56a10.75,10.75,0,0,0,3.82,2.4,4.38,4.38,0,0,0,5.09-1.3,7.18,7.18,0,0,0,1.44-2.4,17.61,17.61,0,0,0,1-4.86,39.22,39.22,0,0,1,1.61-9.8,2.61,2.61,0,0,0,.13-.63.61.61,0,0,0-.32-.64c-.32-.15-.43.16-.59.33-.42.45-.82.92-1.26,1.34a3.06,3.06,0,0,1-3.15,1c-1.23-.39-1.37-1.55-1.6-2.62-1-4.74.67-8.71,3.52-12.36a4.14,4.14,0,0,1,4.11-1.6,50.28,50.28,0,0,1,7.31,1.45A1.58,1.58,0,0,0,359,5a20.59,20.59,0,0,1,6-3.22c7.32-2.6,14.44-2.58,21.18,1.75A29.72,29.72,0,0,1,396,13.76a15.14,15.14,0,0,0,1.37,2.07c1.56,1.89,2.84,1.83,4.19-.21a19.22,19.22,0,0,0,2-4.42c.38-1.13.68-1.26,1.73-.68,2.87,1.61,5.71,3.25,8.58,4.86a1.45,1.45,0,0,1,.84,1.59,29.44,29.44,0,0,1-.52,3,88.82,88.82,0,0,1-3.23,9.65c-.1.26-.8,1,.3.87s2.08-.11,2.69,1c.11.2.48.27.75.38a2.5,2.5,0,0,1,1.57,3.24,1.57,1.57,0,0,0-.08,1c.82,2.21.51,3.53-1.35,4.77a10.61,10.61,0,0,0-3.38,3.58,4.86,4.86,0,0,1-3,2.34c-.91.24-1,.6-.6,1.45,1.24,2.62.65,4-2,5.08-.3.13-.6.23-.91.33a27.45,27.45,0,0,1-7.8,1.07c-1.37,0-1.78.55-1.53,1.92.46,2.52.91,5,1.33,7.57.26,1.6.08,1.85-1.52,2.22a1.16,1.16,0,0,0-1,.89,31.16,31.16,0,0,1-2.33,5.82c-.36.7.11,1.08.38,1.56s.74.28,1.13.12c1.51-.61,3-1.24,4.52-1.83a9,9,0,0,1,7.74.4,24,24,0,0,1,7.25,6.09c.9,1.09.82,1.44-.41,2.21a18.33,18.33,0,0,1-8.81,2.7,34.22,34.22,0,0,1-11-1.41c-.37-.1-.82-.36-1.14-.06-1.27,1.18-2.73.8-4.2.65A3.08,3.08,0,0,1,384.66,81c-.48-1.83.41-3.67-.14-5.5-.1-.32.2-.68.44-1,.49-.58.21-.77-.37-1-1.86-.57-1.86-.58-1.84-2.52,0-.29,0-.58,0-.86s.11-.56-.17-.69-.46.14-.66.28a30,30,0,0,0-3.88,3.76,4.2,4.2,0,0,1-3.3,1.57.81.81,0,0,0-.92.57,18.29,18.29,0,0,0-1.4,5.2,2,2,0,0,1-.49,1.4c-.87.89-4.17,1.21-5.12.38a1.55,1.55,0,0,0-1.75-.29,32.68,32.68,0,0,1-19.18.76c-2-.53-2.45-1.59-1.4-3.36a17.56,17.56,0,0,1,4.91-5.42,9.8,9.8,0,0,1,7.48-1.81A69.5,69.5,0,0,1,364,74.46c.6.15,1.21.38,1.65-.3a1.68,1.68,0,0,1,2.39-.67c-.73-1.29-.75-1.48-.06-2.69A53.25,53.25,0,0,0,370.45,66c.14-.33.4-.66.12-1-.71-.87-.32-1.6.24-2.33.33-.43.62-.88,1.07-1.54C370.62,61.7,369.62,62.21,368.59,62.63Zm44.84-26.56a5.65,5.65,0,0,0,1.16-.56,1.51,1.51,0,0,0,.35-2.12A1.36,1.36,0,0,0,413,33.1a10.68,10.68,0,0,0-3.54,3.44c-.15.24-.29.48-.57,1a4,4,0,0,1,1.18-2.77,11.83,11.83,0,0,1,2.18-1.94c.31-.23.73-.46.5-.95a.9.9,0,0,0-1.21-.41,4.54,4.54,0,0,0-2.91,2.44,5.4,5.4,0,0,1-3.06,3.33,3.4,3.4,0,0,0-1.4,1.34c-.38.53-.59.39-.77-.14a4.45,4.45,0,0,0-2-2.6,1.62,1.62,0,0,0-2.09.14,1.48,1.48,0,0,0-.4,2,15.54,15.54,0,0,1,2.71,6.62c.2,1.18,1.34,1.61,2.33,2.09.24.12.53.19.68.5-.52.27-1-.17-1.52,0a3.79,3.79,0,0,0,1.23,1.4c.43.38.77,0,1-.31a5.51,5.51,0,0,1,3.35-2.54,4,4,0,0,0,1.95-1.81,9.35,9.35,0,0,1,3.22-3.42,3.91,3.91,0,0,0,1.67-1.81,1.4,1.4,0,0,0-.13-1.71,1.32,1.32,0,0,0-1.6-.2,7,7,0,0,0-2.26,1.45c-.24.24-.51.46-.76.69A4.36,4.36,0,0,1,413.43,36.07ZM355.27,50.69c-.43.19-.75-.11-1.09-.31a6.36,6.36,0,0,0-3.9-1.07,6.81,6.81,0,0,0-1.27.26c-.49.16-1,.44-.93,1s.7.63,1.2.64a14,14,0,0,1,3.23.18,4.59,4.59,0,0,1,1.83.89,15.45,15.45,0,0,0-4.52-.61c-.25,0-.51,0-.76,0-1.16.12-1.74.79-1.53,1.75a1.72,1.72,0,0,0,2.19,1.22,7.39,7.39,0,0,1,2.76-.43,3.46,3.46,0,0,1,1.74.55,8.2,8.2,0,0,0-3.45.23c-.67.2-1.37.39-1.39,1.28s.63,1.24,1.34,1.49a6.07,6.07,0,0,0,2.36.14,10.76,10.76,0,0,1,4.36.65,4.53,4.53,0,0,0,3.08,0,4.5,4.5,0,0,1,3.17-.14c.32.11.76.29,1-.14a.64.64,0,0,0-.38-.89c-.62-.19-.23-.52-.11-.73A4.23,4.23,0,0,0,364,52a6.77,6.77,0,0,1-1.19-4.31,2.38,2.38,0,0,0-.37-1.45,1.66,1.66,0,0,0-1.63-.86,1.57,1.57,0,0,0-1.41,1,4.25,4.25,0,0,0-.12,3.06,1.8,1.8,0,0,1,.23,1.13A5.45,5.45,0,0,0,355.27,50.69ZM381.78,39.3a4.34,4.34,0,0,0-.23-2.94.14.14,0,0,0-.07-.08c-.62-.54-3.2.37-3.34,1.18a4.58,4.58,0,0,0,0,.64c-.07,1.71.06,1.84,1.88,1.83C380.57,39.88,381.47,40.09,381.78,39.3Zm2.51-.7a3.66,3.66,0,0,0,2.51-1.84.78.78,0,0,0-.16-.8,5.55,5.55,0,0,0-.68-.69c-.42-.32-.73-1.05-1.26-.87a11.77,11.77,0,0,0-2.22,1.29c-.07,0-.08.19-.09.23A4.9,4.9,0,0,0,384.29,38.6Z"/><path class="cls-1" d="M243.86,62.63c-3.91,1.6-5,1.19-6.82-2.56-.23-.48-.46-.7-1-.5a5.67,5.67,0,0,1-4.13-.14,8.45,8.45,0,0,0-4.35-.44,3.11,3.11,0,0,1-3.23-1.11c-.8-1.27-1.68-2.48-2.5-3.72a2.88,2.88,0,0,0-1.45-1.25,78.34,78.34,0,0,1-12.32-5.83,1.6,1.6,0,0,1-.86-2.12c.88-3.12,1.66-6.28,2.47-9.42.38-1.43.81-1.57,1.85-.56a10.75,10.75,0,0,0,3.82,2.4,4.37,4.37,0,0,0,5.09-1.3,7.18,7.18,0,0,0,1.44-2.4,17.25,17.25,0,0,0,1-4.86,38.78,38.78,0,0,1,1.62-9.8,2.6,2.6,0,0,0,.12-.63.61.61,0,0,0-.32-.64c-.32-.15-.43.16-.59.33-.42.45-.82.92-1.26,1.34a3.05,3.05,0,0,1-3.15,1c-1.23-.39-1.37-1.55-1.6-2.62-1-4.74.67-8.71,3.52-12.36a4.14,4.14,0,0,1,4.11-1.6,50.68,50.68,0,0,1,7.32,1.45A1.56,1.56,0,0,0,234.26,5a20.72,20.72,0,0,1,6-3.22c7.32-2.6,14.44-2.58,21.18,1.75a29.72,29.72,0,0,1,9.79,10.24,15.14,15.14,0,0,0,1.37,2.07c1.57,1.89,2.84,1.83,4.19-.21a18.8,18.8,0,0,0,2-4.42c.38-1.13.69-1.26,1.74-.68,2.86,1.61,5.71,3.25,8.57,4.86a1.43,1.43,0,0,1,.84,1.59,29.44,29.44,0,0,1-.52,3,91,91,0,0,1-3.22,9.65c-.1.26-.81,1,.29.87s2.08-.11,2.69,1c.11.2.49.27.75.38a2.49,2.49,0,0,1,1.57,3.24,1.63,1.63,0,0,0-.08,1c.82,2.21.51,3.53-1.35,4.77a10.71,10.71,0,0,0-3.38,3.58,4.81,4.81,0,0,1-3,2.34c-.91.24-1,.6-.59,1.45,1.23,2.62.64,4-2.05,5.08-.3.13-.61.23-.92.33a27.45,27.45,0,0,1-7.8,1.07c-1.37,0-1.77.55-1.53,1.92.46,2.52.91,5,1.33,7.57.27,1.6.09,1.85-1.52,2.22a1.16,1.16,0,0,0-1,.89,31.82,31.82,0,0,1-2.32,5.82c-.37.7.1,1.08.37,1.56s.74.28,1.14.12c1.5-.61,3-1.24,4.51-1.83a9,9,0,0,1,7.74.4,24,24,0,0,1,7.25,6.09c.9,1.09.82,1.44-.41,2.21a18.3,18.3,0,0,1-8.81,2.7,34.22,34.22,0,0,1-11-1.41c-.37-.1-.81-.36-1.13-.06-1.28,1.18-2.73.8-4.21.65A3.07,3.07,0,0,1,259.93,81c-.49-1.83.41-3.67-.15-5.5-.1-.32.21-.68.44-1,.5-.58.21-.77-.37-1C258,73,258,73,258,71.09c0-.29,0-.58,0-.86s.11-.56-.17-.69-.46.14-.65.28a29.43,29.43,0,0,0-3.89,3.76,4.2,4.2,0,0,1-3.3,1.57.81.81,0,0,0-.92.57,18.62,18.62,0,0,0-1.4,5.2,2,2,0,0,1-.49,1.4c-.86.89-4.17,1.21-5.12.38a1.55,1.55,0,0,0-1.75-.29,32.68,32.68,0,0,1-19.18.76c-2-.53-2.45-1.59-1.4-3.36a17.69,17.69,0,0,1,4.91-5.42,9.8,9.8,0,0,1,7.48-1.81,69.5,69.5,0,0,1,7.11,1.88c.6.15,1.22.38,1.65-.3a1.69,1.69,0,0,1,2.4-.67c-.74-1.29-.75-1.48-.07-2.69A53.25,53.25,0,0,0,245.71,66c.14-.33.4-.66.12-1-.71-.87-.32-1.6.25-2.33.33-.43.61-.88,1.07-1.54C245.88,61.7,244.89,62.21,243.86,62.63Zm44.83-26.56a6,6,0,0,0,1.17-.56,1.52,1.52,0,0,0,.34-2.12,1.36,1.36,0,0,0-1.94-.29,10.87,10.87,0,0,0-3.54,3.44l-.56,1a3.91,3.91,0,0,1,1.17-2.77,12.17,12.17,0,0,1,2.18-1.94c.32-.23.73-.46.5-.95a.9.9,0,0,0-1.21-.41,4.52,4.52,0,0,0-2.9,2.44,5.44,5.44,0,0,1-3.07,3.33,3.4,3.4,0,0,0-1.4,1.34c-.38.53-.59.39-.77-.14a4.45,4.45,0,0,0-2-2.6,1.62,1.62,0,0,0-2.09.14,1.47,1.47,0,0,0-.39,2,15.65,15.65,0,0,1,2.7,6.62c.21,1.18,1.35,1.61,2.33,2.09.24.12.54.19.68.5-.52.27-1-.17-1.51,0a3.85,3.85,0,0,0,1.22,1.4c.44.38.78,0,1-.31a5.53,5.53,0,0,1,3.35-2.54,3.94,3.94,0,0,0,1.95-1.81,9.29,9.29,0,0,1,3.23-3.42,3.94,3.94,0,0,0,1.66-1.81,1.41,1.41,0,0,0-.12-1.71,1.33,1.33,0,0,0-1.6-.2,6.94,6.94,0,0,0-2.27,1.45c-.24.24-.5.46-.76.69A4.36,4.36,0,0,1,288.69,36.07ZM230.54,50.69c-.44.19-.76-.11-1.1-.31a6.36,6.36,0,0,0-3.9-1.07,6.55,6.55,0,0,0-1.26.26c-.5.16-1,.44-.93,1s.69.63,1.19.64a14,14,0,0,1,3.23.18,4.59,4.59,0,0,1,1.83.89,15.45,15.45,0,0,0-4.52-.61c-.25,0-.5,0-.75,0-1.17.12-1.75.79-1.54,1.75A1.72,1.72,0,0,0,225,54.71a7.45,7.45,0,0,1,2.76-.43,3.53,3.53,0,0,1,1.75.55,8.23,8.23,0,0,0-3.46.23c-.67.2-1.37.39-1.39,1.28s.63,1.24,1.34,1.49a6.11,6.11,0,0,0,2.37.14,10.79,10.79,0,0,1,4.36.65,4.53,4.53,0,0,0,3.08,0,4.47,4.47,0,0,1,3.16-.14c.32.11.77.29,1-.14a.63.63,0,0,0-.38-.89c-.62-.19-.23-.52-.11-.73a4.23,4.23,0,0,0-.13-4.7,6.71,6.71,0,0,1-1.18-4.31,2.45,2.45,0,0,0-.38-1.45,1.65,1.65,0,0,0-1.63-.86,1.55,1.55,0,0,0-1.4,1,4.25,4.25,0,0,0-.13,3.06,1.87,1.87,0,0,1,.24,1.13A5.45,5.45,0,0,0,230.54,50.69ZM257,39.3a4.4,4.4,0,0,0-.22-2.94s-.05-.06-.07-.08c-.63-.54-3.21.37-3.35,1.18a4.58,4.58,0,0,0,0,.64c-.07,1.71.06,1.84,1.88,1.83C255.83,39.88,256.74,40.09,257,39.3Zm2.51-.7a3.64,3.64,0,0,0,2.51-1.84.76.76,0,0,0-.16-.8,4.93,4.93,0,0,0-.68-.69c-.41-.32-.73-1.05-1.26-.87a12.1,12.1,0,0,0-2.22,1.29c-.07,0-.07.19-.09.23A5,5,0,0,0,259.55,38.6Z"/><path class="cls-2" d="M119.12,62.63c-3.91,1.6-5,1.19-6.82-2.56-.23-.48-.46-.7-1-.5a5.64,5.64,0,0,1-4.12-.14,8.5,8.5,0,0,0-4.36-.44,3.12,3.12,0,0,1-3.23-1.11c-.8-1.27-1.67-2.48-2.5-3.72a2.84,2.84,0,0,0-1.45-1.25,77.82,77.82,0,0,1-12.31-5.83A1.59,1.59,0,0,1,82.49,45c.87-3.12,1.65-6.28,2.47-9.42.37-1.43.8-1.57,1.85-.56a10.71,10.71,0,0,0,3.81,2.4,4.37,4.37,0,0,0,5.09-1.3,7.18,7.18,0,0,0,1.44-2.4,16.91,16.91,0,0,0,1-4.86A38.78,38.78,0,0,1,99.78,19a3.2,3.2,0,0,0,.13-.63.63.63,0,0,0-.33-.64c-.32-.15-.43.16-.59.33-.42.45-.82.92-1.26,1.34a3,3,0,0,1-3.14,1C93.35,20,93.21,18.84,93,17.77c-1-4.74.68-8.71,3.53-12.36a4.12,4.12,0,0,1,4.1-1.6,50.41,50.41,0,0,1,7.32,1.45A1.56,1.56,0,0,0,109.52,5a20.72,20.72,0,0,1,6-3.22c7.32-2.6,14.44-2.58,21.19,1.75a29.6,29.6,0,0,1,9.78,10.24,14.33,14.33,0,0,0,1.38,2.07c1.56,1.89,2.83,1.83,4.18-.21a18.41,18.41,0,0,0,2-4.42c.38-1.13.69-1.26,1.74-.68,2.86,1.61,5.71,3.25,8.57,4.86A1.43,1.43,0,0,1,165.2,17a29.42,29.42,0,0,1-.51,3,91,91,0,0,1-3.23,9.65c-.1.26-.8,1,.29.87s2.08-.11,2.69,1c.11.2.49.27.75.38a2.51,2.51,0,0,1,1.58,3.24,1.64,1.64,0,0,0-.09,1c.82,2.21.51,3.53-1.34,4.77A10.64,10.64,0,0,0,162,44.53a4.81,4.81,0,0,1-3,2.34c-.91.24-1,.6-.59,1.45,1.23,2.62.65,4-2.05,5.08-.3.13-.61.23-.92.33a27.4,27.4,0,0,1-7.8,1.07c-1.36,0-1.77.55-1.52,1.92.45,2.52.91,5,1.32,7.57.27,1.6.09,1.85-1.51,2.22a1.14,1.14,0,0,0-1,.89,31.86,31.86,0,0,1-2.33,5.82c-.36.7.11,1.08.38,1.56s.73.28,1.13.12c1.5-.61,3-1.24,4.51-1.83a9,9,0,0,1,7.75.4,24,24,0,0,1,7.25,6.09c.89,1.09.81,1.44-.42,2.21a18.3,18.3,0,0,1-8.8,2.7,34.15,34.15,0,0,1-11-1.41c-.38-.1-.82-.36-1.14-.06-1.27,1.18-2.73.8-4.2.65A3.08,3.08,0,0,1,135.19,81c-.49-1.83.41-3.67-.15-5.5-.1-.32.21-.68.45-1,.49-.58.21-.77-.38-1-1.86-.57-1.85-.58-1.84-2.52,0-.29,0-.58,0-.86s.11-.56-.18-.69-.46.14-.65.28a30.71,30.71,0,0,0-3.89,3.76,4.18,4.18,0,0,1-3.29,1.57.8.8,0,0,0-.92.57,18,18,0,0,0-1.4,5.2,2,2,0,0,1-.5,1.4c-.86.89-4.16,1.21-5.12.38a1.55,1.55,0,0,0-1.75-.29,32.68,32.68,0,0,1-19.18.76c-2-.53-2.45-1.59-1.4-3.36a17.72,17.72,0,0,1,4.92-5.42,9.79,9.79,0,0,1,7.47-1.81,68.82,68.82,0,0,1,7.11,1.88c.61.15,1.22.38,1.65-.3a1.69,1.69,0,0,1,2.4-.67c-.74-1.29-.75-1.48-.07-2.69A50.79,50.79,0,0,0,121,66c.14-.33.41-.66.12-1-.71-.87-.32-1.6.25-2.33.33-.43.61-.88,1.07-1.54C121.14,61.7,120.15,62.21,119.12,62.63ZM164,36.07a5.91,5.91,0,0,0,1.16-.56,1.52,1.52,0,0,0,.34-2.12,1.35,1.35,0,0,0-1.93-.29A10.81,10.81,0,0,0,160,36.54l-.56,1a3.92,3.92,0,0,1,1.18-2.77,11.77,11.77,0,0,1,2.17-1.94c.32-.23.74-.46.5-.95a.9.9,0,0,0-1.21-.41,4.52,4.52,0,0,0-2.9,2.44,5.39,5.39,0,0,1-3.07,3.33,3.4,3.4,0,0,0-1.4,1.34c-.38.53-.59.39-.76-.14a4.42,4.42,0,0,0-2-2.6,1.62,1.62,0,0,0-2.09.14,1.48,1.48,0,0,0-.39,2,15.65,15.65,0,0,1,2.7,6.62c.21,1.18,1.35,1.61,2.33,2.09.25.12.54.19.68.5-.52.27-.95-.17-1.51,0a3.85,3.85,0,0,0,1.22,1.4c.44.38.78,0,1-.31a5.53,5.53,0,0,1,3.36-2.54,4,4,0,0,0,1.94-1.81,9.46,9.46,0,0,1,3.23-3.42A4,4,0,0,0,166,38.7a1.43,1.43,0,0,0-.13-1.71,1.33,1.33,0,0,0-1.6-.2,7,7,0,0,0-2.26,1.45c-.25.24-.51.46-.77.69A4.37,4.37,0,0,1,164,36.07ZM105.8,50.69c-.44.19-.76-.11-1.1-.31a6.36,6.36,0,0,0-3.9-1.07,6.88,6.88,0,0,0-1.26.26c-.5.16-1,.44-.93,1s.69.63,1.19.64a14.08,14.08,0,0,1,3.24.18,4.62,4.62,0,0,1,1.82.89,15.36,15.36,0,0,0-4.52-.61c-.25,0-.5,0-.75,0-1.17.12-1.75.79-1.54,1.75a1.72,1.72,0,0,0,2.19,1.22,7.45,7.45,0,0,1,2.76-.43,3.5,3.5,0,0,1,1.75.55,8.18,8.18,0,0,0-3.45.23c-.67.2-1.38.39-1.39,1.28s.62,1.24,1.34,1.49a6.06,6.06,0,0,0,2.36.14,10.79,10.79,0,0,1,4.36.65,4.53,4.53,0,0,0,3.08,0,4.47,4.47,0,0,1,3.16-.14c.32.11.77.29,1-.14a.64.64,0,0,0-.38-.89c-.62-.19-.24-.52-.11-.73a4.23,4.23,0,0,0-.14-4.7,6.83,6.83,0,0,1-1.18-4.31,2.45,2.45,0,0,0-.38-1.45,1.65,1.65,0,0,0-1.62-.86,1.56,1.56,0,0,0-1.41,1,4.25,4.25,0,0,0-.13,3.06,1.87,1.87,0,0,1,.24,1.13A5.45,5.45,0,0,0,105.8,50.69ZM132.3,39.3a4.34,4.34,0,0,0-.22-2.94s-.05-.06-.07-.08c-.63-.54-3.21.37-3.35,1.18,0,.21,0,.43,0,.64-.06,1.71.07,1.84,1.88,1.83C131.09,39.88,132,40.09,132.3,39.3Zm2.52-.7a3.69,3.69,0,0,0,2.51-1.84.78.78,0,0,0-.17-.8,4.87,4.87,0,0,0-.67-.69c-.42-.32-.74-1.05-1.27-.87A12.44,12.44,0,0,0,133,35.69c-.07,0-.07.19-.08.23A4.9,4.9,0,0,0,134.82,38.6Z"/><path class="cls-1" d="M742.81,62.63c-3.91,1.6-5,1.19-6.82-2.56-.23-.48-.46-.7-1-.5a5.67,5.67,0,0,1-4.13-.14,8.45,8.45,0,0,0-4.35-.44,3.12,3.12,0,0,1-3.23-1.11c-.8-1.27-1.68-2.48-2.5-3.72a2.88,2.88,0,0,0-1.45-1.25A78.34,78.34,0,0,1,707,47.08a1.59,1.59,0,0,1-.85-2.12c.87-3.12,1.65-6.28,2.46-9.42.38-1.43.81-1.57,1.86-.56a10.62,10.62,0,0,0,3.81,2.4,4.37,4.37,0,0,0,5.09-1.3,7.18,7.18,0,0,0,1.44-2.4,17.25,17.25,0,0,0,1-4.86,38.78,38.78,0,0,1,1.62-9.8,2.6,2.6,0,0,0,.12-.63.61.61,0,0,0-.32-.64c-.32-.15-.43.16-.59.33-.42.45-.82.92-1.26,1.34a3.05,3.05,0,0,1-3.15,1c-1.23-.39-1.37-1.55-1.6-2.62-1-4.74.67-8.71,3.52-12.36a4.14,4.14,0,0,1,4.11-1.6,50.68,50.68,0,0,1,7.32,1.45A1.56,1.56,0,0,0,733.21,5a20.72,20.72,0,0,1,6-3.22c7.32-2.6,14.44-2.58,21.19,1.75a29.69,29.69,0,0,1,9.78,10.24,15.14,15.14,0,0,0,1.37,2.07c1.57,1.89,2.84,1.83,4.19-.21a18.8,18.8,0,0,0,2-4.42c.38-1.13.69-1.26,1.74-.68,2.86,1.61,5.71,3.25,8.57,4.86a1.43,1.43,0,0,1,.84,1.59,29.44,29.44,0,0,1-.52,3,91,91,0,0,1-3.22,9.65c-.1.26-.81,1,.29.87s2.08-.11,2.69,1c.11.2.49.27.75.38a2.49,2.49,0,0,1,1.57,3.24,1.63,1.63,0,0,0-.08,1c.82,2.21.51,3.53-1.35,4.77a10.71,10.71,0,0,0-3.38,3.58,4.81,4.81,0,0,1-3,2.34c-.91.24-1,.6-.59,1.45,1.23,2.62.64,4-2,5.08-.3.13-.61.23-.92.33a27.45,27.45,0,0,1-7.8,1.07c-1.37,0-1.77.55-1.53,1.92.46,2.52.92,5,1.33,7.57.27,1.6.09,1.85-1.52,2.22a1.16,1.16,0,0,0-1,.89,31.82,31.82,0,0,1-2.32,5.82c-.37.7.1,1.08.37,1.56s.74.28,1.14.12c1.5-.61,3-1.24,4.51-1.83a9,9,0,0,1,7.74.4,24,24,0,0,1,7.25,6.09c.9,1.09.82,1.44-.41,2.21a18.3,18.3,0,0,1-8.8,2.7,34.25,34.25,0,0,1-11-1.41c-.37-.1-.81-.36-1.13-.06-1.28,1.18-2.73.8-4.21.65A3.07,3.07,0,0,1,758.88,81c-.49-1.83.41-3.67-.15-5.5-.1-.32.21-.68.44-1,.5-.58.21-.77-.37-1C756.94,73,757,73,757,71.09c0-.29,0-.58,0-.86s.11-.56-.17-.69-.46.14-.65.28a29.43,29.43,0,0,0-3.89,3.76A4.2,4.2,0,0,1,749,75.15a.82.82,0,0,0-.93.57,18.62,18.62,0,0,0-1.4,5.2,2,2,0,0,1-.49,1.4c-.86.89-4.17,1.21-5.12.38a1.55,1.55,0,0,0-1.75-.29,32.68,32.68,0,0,1-19.18.76c-2-.53-2.45-1.59-1.4-3.36a17.59,17.59,0,0,1,4.92-5.42,9.79,9.79,0,0,1,7.47-1.81,69.5,69.5,0,0,1,7.11,1.88c.6.15,1.22.38,1.65-.3a1.69,1.69,0,0,1,2.4-.67c-.74-1.29-.75-1.48-.07-2.69A53.25,53.25,0,0,0,744.66,66c.14-.33.41-.66.12-1-.71-.87-.32-1.6.25-2.33.33-.43.61-.88,1.07-1.54C744.83,61.7,743.84,62.21,742.81,62.63Zm44.83-26.56a6,6,0,0,0,1.17-.56,1.52,1.52,0,0,0,.34-2.12,1.36,1.36,0,0,0-1.94-.29,10.87,10.87,0,0,0-3.54,3.44l-.56,1a3.91,3.91,0,0,1,1.17-2.77,12.17,12.17,0,0,1,2.18-1.94c.32-.23.73-.46.5-.95a.9.9,0,0,0-1.21-.41,4.52,4.52,0,0,0-2.9,2.44,5.44,5.44,0,0,1-3.07,3.33,3.4,3.4,0,0,0-1.4,1.34c-.38.53-.59.39-.77-.14a4.45,4.45,0,0,0-2-2.6,1.62,1.62,0,0,0-2.09.14,1.47,1.47,0,0,0-.39,2,15.65,15.65,0,0,1,2.7,6.62c.21,1.18,1.35,1.61,2.33,2.09.24.12.54.19.68.5-.52.27-1-.17-1.51,0a3.85,3.85,0,0,0,1.22,1.4c.44.38.78,0,1-.31a5.53,5.53,0,0,1,3.36-2.54,4,4,0,0,0,1.94-1.81,9.29,9.29,0,0,1,3.23-3.42,3.94,3.94,0,0,0,1.66-1.81A1.41,1.41,0,0,0,789.6,37a1.33,1.33,0,0,0-1.6-.2,6.94,6.94,0,0,0-2.27,1.45c-.24.24-.5.46-.76.69A4.38,4.38,0,0,1,787.64,36.07ZM729.49,50.69c-.44.19-.76-.11-1.1-.31a6.36,6.36,0,0,0-3.9-1.07,6.55,6.55,0,0,0-1.26.26c-.5.16-1,.44-.93,1s.69.63,1.19.64a14.08,14.08,0,0,1,3.24.18,4.62,4.62,0,0,1,1.82.89,15.36,15.36,0,0,0-4.52-.61c-.25,0-.5,0-.75,0-1.17.12-1.75.79-1.54,1.75a1.72,1.72,0,0,0,2.19,1.22,7.45,7.45,0,0,1,2.76-.43,3.53,3.53,0,0,1,1.75.55,8.23,8.23,0,0,0-3.46.23c-.67.2-1.37.39-1.39,1.28s.63,1.24,1.34,1.49a6.11,6.11,0,0,0,2.37.14,10.79,10.79,0,0,1,4.36.65,4.53,4.53,0,0,0,3.08,0,4.47,4.47,0,0,1,3.16-.14c.32.11.77.29,1-.14a.63.63,0,0,0-.38-.89c-.62-.19-.23-.52-.11-.73a4.23,4.23,0,0,0-.13-4.7,6.71,6.71,0,0,1-1.18-4.31,2.45,2.45,0,0,0-.38-1.45,1.65,1.65,0,0,0-1.63-.86,1.55,1.55,0,0,0-1.4,1,4.25,4.25,0,0,0-.13,3.06,1.87,1.87,0,0,1,.24,1.13A5.45,5.45,0,0,0,729.49,50.69ZM756,39.3a4.4,4.4,0,0,0-.22-2.94s0-.06-.07-.08c-.63-.54-3.21.37-3.35,1.18a4.58,4.58,0,0,0,0,.64c-.07,1.71.06,1.84,1.88,1.83C754.78,39.88,755.69,40.09,756,39.3Zm2.51-.7A3.64,3.64,0,0,0,761,36.76a.76.76,0,0,0-.16-.8,4.93,4.93,0,0,0-.68-.69c-.41-.32-.73-1.05-1.26-.87a12.1,12.1,0,0,0-2.22,1.29c-.07,0-.07.19-.09.23A5,5,0,0,0,758.5,38.6Z"/><path class="cls-1" d="M992.28,62.63c-3.9,1.6-5,1.19-6.82-2.56-.23-.48-.45-.7-1-.5a5.64,5.64,0,0,1-4.12-.14A8.48,8.48,0,0,0,976,59a3.09,3.09,0,0,1-3.22-1.11c-.81-1.27-1.68-2.48-2.51-3.72a2.84,2.84,0,0,0-1.45-1.25,78.24,78.24,0,0,1-12.31-5.83,1.59,1.59,0,0,1-.86-2.12c.87-3.12,1.65-6.28,2.47-9.42.37-1.43.8-1.57,1.85-.56a10.75,10.75,0,0,0,3.82,2.4,4.38,4.38,0,0,0,5.09-1.3,7.16,7.16,0,0,0,1.43-2.4,17.27,17.27,0,0,0,1-4.86,38.33,38.33,0,0,1,1.61-9.8,2.61,2.61,0,0,0,.13-.63.62.62,0,0,0-.33-.64c-.31-.15-.42.16-.59.33-.42.45-.82.92-1.26,1.34a3,3,0,0,1-3.14,1c-1.23-.39-1.38-1.55-1.6-2.62-1-4.74.67-8.71,3.52-12.36a4.13,4.13,0,0,1,4.11-1.6,50.28,50.28,0,0,1,7.31,1.45A1.56,1.56,0,0,0,982.68,5a20.65,20.65,0,0,1,6-3.22c7.31-2.6,14.44-2.58,21.18,1.75a29.6,29.6,0,0,1,9.78,10.24,15.21,15.21,0,0,0,1.38,2.07c1.56,1.89,2.84,1.83,4.19-.21a18.77,18.77,0,0,0,2-4.42c.39-1.13.69-1.26,1.74-.68,2.87,1.61,5.71,3.25,8.58,4.86a1.45,1.45,0,0,1,.84,1.59,29.44,29.44,0,0,1-.52,3,91,91,0,0,1-3.23,9.65c-.1.26-.8,1,.29.87s2.09-.11,2.7,1c.1.2.48.27.74.38a2.5,2.5,0,0,1,1.58,3.24,1.57,1.57,0,0,0-.08,1c.82,2.21.51,3.53-1.35,4.77a10.64,10.64,0,0,0-3.39,3.58,4.81,4.81,0,0,1-3,2.34c-.91.24-1,.6-.6,1.45,1.23,2.62.65,4-2,5.08-.3.13-.61.23-.92.33a27.33,27.33,0,0,1-7.79,1.07c-1.37,0-1.78.55-1.53,1.92.46,2.52.91,5,1.33,7.57.26,1.6.08,1.85-1.52,2.22a1.15,1.15,0,0,0-1,.89,31.86,31.86,0,0,1-2.33,5.82c-.36.7.11,1.08.38,1.56s.73.28,1.13.12c1.51-.61,3-1.24,4.52-1.83a9,9,0,0,1,7.74.4,24,24,0,0,1,7.25,6.09c.9,1.09.81,1.44-.41,2.21a18.33,18.33,0,0,1-8.81,2.7,34.19,34.19,0,0,1-11-1.41c-.37-.1-.82-.36-1.14-.06-1.27,1.18-2.73.8-4.2.65a3.08,3.08,0,0,1-2.86-2.64c-.48-1.83.41-3.67-.14-5.5-.1-.32.2-.68.44-1,.49-.58.21-.77-.37-1-1.86-.57-1.86-.58-1.84-2.52,0-.29,0-.58,0-.86s.11-.56-.17-.69-.46.14-.66.28a30.71,30.71,0,0,0-3.89,3.76,4.18,4.18,0,0,1-3.29,1.57.81.81,0,0,0-.92.57,18,18,0,0,0-1.4,5.2,2,2,0,0,1-.5,1.4c-.86.89-4.16,1.21-5.11.38a1.56,1.56,0,0,0-1.76-.29,32.68,32.68,0,0,1-19.18.76c-2-.53-2.45-1.59-1.39-3.36a17.56,17.56,0,0,1,4.91-5.42,9.79,9.79,0,0,1,7.47-1.81,68.82,68.82,0,0,1,7.11,1.88c.61.15,1.22.38,1.66-.3a1.68,1.68,0,0,1,2.39-.67C991,72.2,991,72,991.65,70.8A50.88,50.88,0,0,0,994.14,66c.14-.33.4-.66.12-1-.71-.87-.33-1.6.24-2.33.33-.43.62-.88,1.07-1.54C994.31,61.7,993.31,62.21,992.28,62.63Zm44.84-26.56a5.91,5.91,0,0,0,1.16-.56,1.53,1.53,0,0,0,.35-2.12,1.36,1.36,0,0,0-1.94-.29,10.68,10.68,0,0,0-3.54,3.44c-.15.24-.29.48-.57,1a4,4,0,0,1,1.18-2.77,11.83,11.83,0,0,1,2.18-1.94c.31-.23.73-.46.5-.95a.9.9,0,0,0-1.21-.41,4.54,4.54,0,0,0-2.91,2.44,5.39,5.39,0,0,1-3.07,3.33,3.44,3.44,0,0,0-1.39,1.34c-.38.53-.59.39-.77-.14a4.45,4.45,0,0,0-2-2.6,1.62,1.62,0,0,0-2.09.14,1.48,1.48,0,0,0-.4,2,15.65,15.65,0,0,1,2.7,6.62c.21,1.18,1.35,1.61,2.34,2.09.24.12.53.19.67.5-.51.27-.95-.17-1.51,0a3.85,3.85,0,0,0,1.22,1.4c.44.38.78,0,1-.31a5.51,5.51,0,0,1,3.35-2.54,3.92,3.92,0,0,0,1.94-1.81,9.46,9.46,0,0,1,3.23-3.42,3.91,3.91,0,0,0,1.67-1.81,1.43,1.43,0,0,0-.13-1.71,1.33,1.33,0,0,0-1.6-.2,7,7,0,0,0-2.26,1.45c-.25.24-.51.46-.76.69A4.36,4.36,0,0,1,1037.12,36.07ZM979,50.69c-.44.19-.76-.11-1.09-.31a6.37,6.37,0,0,0-3.9-1.07,6.81,6.81,0,0,0-1.27.26c-.5.16-1,.44-.93,1s.7.63,1.2.64a14,14,0,0,1,3.23.18,4.49,4.49,0,0,1,1.82.89,15.34,15.34,0,0,0-4.51-.61c-.25,0-.51,0-.76,0-1.17.12-1.75.79-1.53,1.75a1.72,1.72,0,0,0,2.19,1.22,7.39,7.39,0,0,1,2.76-.43,3.46,3.46,0,0,1,1.74.55,8.19,8.19,0,0,0-3.45.23c-.67.2-1.38.39-1.39,1.28s.62,1.24,1.34,1.49a6.07,6.07,0,0,0,2.36.14,10.76,10.76,0,0,1,4.36.65,4.53,4.53,0,0,0,3.08,0,4.5,4.5,0,0,1,3.17-.14c.32.11.76.29,1-.14a.64.64,0,0,0-.38-.89c-.62-.19-.23-.52-.11-.73a4.25,4.25,0,0,0-.13-4.7,6.77,6.77,0,0,1-1.19-4.31,2.38,2.38,0,0,0-.37-1.45,1.66,1.66,0,0,0-1.63-.86,1.56,1.56,0,0,0-1.41,1,4.2,4.2,0,0,0-.12,3.06,1.8,1.8,0,0,1,.23,1.13A5.45,5.45,0,0,0,979,50.69Zm26.51-11.39a4.34,4.34,0,0,0-.23-2.94.14.14,0,0,0-.07-.08c-.63-.54-3.2.37-3.34,1.18a4.6,4.6,0,0,0-.05.64c-.06,1.71.07,1.84,1.89,1.83C1004.26,39.88,1005.16,40.09,1005.47,39.3Zm2.51-.7a3.69,3.69,0,0,0,2.51-1.84.78.78,0,0,0-.17-.8,4.87,4.87,0,0,0-.67-.69c-.42-.32-.73-1.05-1.27-.87a12.44,12.44,0,0,0-2.22,1.29c-.06,0-.07.19-.08.23A4.9,4.9,0,0,0,1008,38.6Z"/><path class="cls-2" d="M618.07,62.63c-3.91,1.6-5,1.19-6.82-2.56-.23-.48-.46-.7-1-.5a5.64,5.64,0,0,1-4.12-.14,8.5,8.5,0,0,0-4.36-.44,3.09,3.09,0,0,1-3.22-1.11c-.81-1.27-1.68-2.48-2.51-3.72a2.84,2.84,0,0,0-1.45-1.25,77.82,77.82,0,0,1-12.31-5.83,1.59,1.59,0,0,1-.86-2.12c.87-3.12,1.65-6.28,2.47-9.42.37-1.43.8-1.57,1.85-.56a10.71,10.71,0,0,0,3.81,2.4,4.37,4.37,0,0,0,5.09-1.3,7.18,7.18,0,0,0,1.44-2.4,16.91,16.91,0,0,0,1-4.86,38.78,38.78,0,0,1,1.62-9.8,3.2,3.2,0,0,0,.13-.63.63.63,0,0,0-.33-.64c-.32-.15-.43.16-.59.33-.42.45-.82.92-1.26,1.34a3,3,0,0,1-3.14,1c-1.24-.39-1.38-1.55-1.61-2.62-1-4.74.68-8.71,3.53-12.36a4.12,4.12,0,0,1,4.1-1.6,50.41,50.41,0,0,1,7.32,1.45A1.56,1.56,0,0,0,608.47,5a20.72,20.72,0,0,1,6-3.22c7.32-2.6,14.44-2.58,21.19,1.75a29.6,29.6,0,0,1,9.78,10.24,15.21,15.21,0,0,0,1.38,2.07c1.56,1.89,2.84,1.83,4.18-.21a18.41,18.41,0,0,0,2-4.42c.38-1.13.69-1.26,1.74-.68,2.86,1.61,5.71,3.25,8.57,4.86a1.43,1.43,0,0,1,.84,1.59,29.42,29.42,0,0,1-.51,3,91,91,0,0,1-3.23,9.65c-.1.26-.8,1,.29.87s2.08-.11,2.69,1c.11.2.49.27.75.38a2.51,2.51,0,0,1,1.58,3.24,1.64,1.64,0,0,0-.09,1c.82,2.21.51,3.53-1.34,4.77a10.64,10.64,0,0,0-3.39,3.58,4.81,4.81,0,0,1-3,2.34c-.91.24-1,.6-.59,1.45,1.23,2.62.65,4-2.05,5.08-.3.13-.61.23-.92.33a27.4,27.4,0,0,1-7.8,1.07c-1.36,0-1.77.55-1.52,1.92.45,2.52.91,5,1.32,7.57.27,1.6.09,1.85-1.51,2.22a1.14,1.14,0,0,0-1,.89,31.86,31.86,0,0,1-2.33,5.82c-.36.7.11,1.08.38,1.56s.73.28,1.13.12c1.5-.61,3-1.24,4.52-1.83a9,9,0,0,1,7.74.4,24,24,0,0,1,7.25,6.09c.89,1.09.81,1.44-.41,2.21a18.37,18.37,0,0,1-8.81,2.7,34.15,34.15,0,0,1-11-1.41c-.38-.1-.82-.36-1.14-.06-1.27,1.18-2.73.8-4.2.65A3.08,3.08,0,0,1,634.14,81c-.48-1.83.41-3.67-.15-5.5-.1-.32.21-.68.45-1,.49-.58.21-.77-.38-1-1.86-.57-1.85-.58-1.84-2.52,0-.29,0-.58,0-.86s.11-.56-.18-.69-.46.14-.65.28a30.71,30.71,0,0,0-3.89,3.76,4.18,4.18,0,0,1-3.29,1.57.8.8,0,0,0-.92.57,18,18,0,0,0-1.4,5.2,2,2,0,0,1-.5,1.4c-.86.89-4.16,1.21-5.12.38a1.55,1.55,0,0,0-1.75-.29,32.68,32.68,0,0,1-19.18.76c-2-.53-2.45-1.59-1.4-3.36a17.72,17.72,0,0,1,4.92-5.42,9.79,9.79,0,0,1,7.47-1.81,68.82,68.82,0,0,1,7.11,1.88c.61.15,1.22.38,1.65-.3a1.69,1.69,0,0,1,2.4-.67c-.74-1.29-.75-1.48-.07-2.69A50.79,50.79,0,0,0,619.92,66c.14-.33.41-.66.12-1-.71-.87-.32-1.6.25-2.33.33-.43.61-.88,1.07-1.54C620.09,61.7,619.1,62.21,618.07,62.63Zm44.84-26.56a5.91,5.91,0,0,0,1.16-.56,1.52,1.52,0,0,0,.34-2.12,1.35,1.35,0,0,0-1.93-.29,10.81,10.81,0,0,0-3.55,3.44l-.56,1a3.92,3.92,0,0,1,1.18-2.77,11.77,11.77,0,0,1,2.17-1.94c.32-.23.74-.46.51-.95a.91.91,0,0,0-1.22-.41,4.52,4.52,0,0,0-2.9,2.44A5.39,5.39,0,0,1,655,37.2a3.4,3.4,0,0,0-1.4,1.34c-.38.53-.58.39-.76-.14a4.45,4.45,0,0,0-2-2.6,1.63,1.63,0,0,0-2.1.14,1.48,1.48,0,0,0-.39,2,15.65,15.65,0,0,1,2.7,6.62c.21,1.18,1.35,1.61,2.33,2.09.25.12.54.19.68.5-.52.27-1-.17-1.51,0a3.85,3.85,0,0,0,1.22,1.4c.44.38.78,0,1-.31a5.55,5.55,0,0,1,3.36-2.54,4,4,0,0,0,1.94-1.81,9.46,9.46,0,0,1,3.23-3.42A4,4,0,0,0,665,38.7a1.43,1.43,0,0,0-.13-1.71,1.33,1.33,0,0,0-1.6-.2A7,7,0,0,0,661,38.24c-.25.24-.51.46-.77.69A4.37,4.37,0,0,1,662.91,36.07ZM604.75,50.69c-.44.19-.76-.11-1.1-.31a6.36,6.36,0,0,0-3.9-1.07,6.88,6.88,0,0,0-1.26.26c-.5.16-1,.44-.93,1s.7.63,1.19.64a14.08,14.08,0,0,1,3.24.18,4.55,4.55,0,0,1,1.82.89,15.34,15.34,0,0,0-4.51-.61c-.26,0-.51,0-.76,0-1.17.12-1.75.79-1.54,1.75a1.72,1.72,0,0,0,2.19,1.22,7.45,7.45,0,0,1,2.76-.43,3.47,3.47,0,0,1,1.75.55,8.18,8.18,0,0,0-3.45.23c-.67.2-1.38.39-1.39,1.28s.62,1.24,1.34,1.49a6.06,6.06,0,0,0,2.36.14,10.79,10.79,0,0,1,4.36.65,4.53,4.53,0,0,0,3.08,0,4.47,4.47,0,0,1,3.16-.14c.32.11.77.29,1-.14a.64.64,0,0,0-.38-.89c-.62-.19-.24-.52-.11-.73a4.23,4.23,0,0,0-.14-4.7,6.83,6.83,0,0,1-1.18-4.31,2.45,2.45,0,0,0-.38-1.45,1.65,1.65,0,0,0-1.62-.86,1.56,1.56,0,0,0-1.41,1,4.25,4.25,0,0,0-.13,3.06,1.8,1.8,0,0,1,.24,1.13A5.45,5.45,0,0,0,604.75,50.69Zm26.5-11.39a4.28,4.28,0,0,0-.22-2.94.14.14,0,0,0-.07-.08c-.63-.54-3.2.37-3.35,1.18,0,.21,0,.43,0,.64-.06,1.71.07,1.84,1.88,1.83C630,39.88,631,40.09,631.25,39.3Zm2.52-.7a3.69,3.69,0,0,0,2.51-1.84.78.78,0,0,0-.17-.8,4.87,4.87,0,0,0-.67-.69c-.42-.32-.74-1.05-1.27-.87A12.44,12.44,0,0,0,632,35.69c-.07,0-.07.19-.08.23A4.9,4.9,0,0,0,633.77,38.6Z"/><path class="cls-2" d="M867.54,62.63c-3.9,1.6-5,1.19-6.81-2.56-.23-.48-.46-.7-1-.5a5.67,5.67,0,0,1-4.13-.14,8.48,8.48,0,0,0-4.36-.44A3.1,3.1,0,0,1,848,57.88c-.81-1.27-1.68-2.48-2.5-3.72a2.88,2.88,0,0,0-1.45-1.25,78.34,78.34,0,0,1-12.32-5.83,1.6,1.6,0,0,1-.86-2.12c.88-3.12,1.65-6.28,2.47-9.42.38-1.43.81-1.57,1.85-.56a10.75,10.75,0,0,0,3.82,2.4,4.38,4.38,0,0,0,5.09-1.3,7.18,7.18,0,0,0,1.44-2.4,17.61,17.61,0,0,0,1-4.86A39.22,39.22,0,0,1,848.2,19a2.61,2.61,0,0,0,.13-.63.61.61,0,0,0-.32-.64c-.32-.15-.43.16-.59.33-.42.45-.82.92-1.26,1.34a3.06,3.06,0,0,1-3.15,1c-1.23-.39-1.37-1.55-1.6-2.62-1-4.74.67-8.71,3.52-12.36A4.14,4.14,0,0,1,849,3.81a50.68,50.68,0,0,1,7.32,1.45A1.57,1.57,0,0,0,858,5a20.59,20.59,0,0,1,6-3.22c7.32-2.6,14.44-2.58,21.18,1.75a29.72,29.72,0,0,1,9.79,10.24,15.14,15.14,0,0,0,1.37,2.07c1.56,1.89,2.84,1.83,4.19-.21a19.22,19.22,0,0,0,2-4.42c.38-1.13.68-1.26,1.73-.68,2.87,1.61,5.71,3.25,8.58,4.86a1.45,1.45,0,0,1,.84,1.59,29.44,29.44,0,0,1-.52,3,91,91,0,0,1-3.22,9.65c-.11.26-.81,1,.29.87s2.08-.11,2.69,1c.11.2.49.27.75.38a2.5,2.5,0,0,1,1.57,3.24,1.57,1.57,0,0,0-.08,1c.82,2.21.51,3.53-1.35,4.77a10.61,10.61,0,0,0-3.38,3.58,4.86,4.86,0,0,1-3,2.34c-.91.24-1,.6-.6,1.45,1.24,2.62.65,4-2,5.08-.3.13-.6.23-.91.33A27.45,27.45,0,0,1,896,54.8c-1.37,0-1.77.55-1.53,1.92.46,2.52.91,5,1.33,7.57.27,1.6.08,1.85-1.52,2.22a1.16,1.16,0,0,0-1,.89A31.16,31.16,0,0,1,891,73.22c-.36.7.11,1.08.38,1.56s.74.28,1.13.12c1.51-.61,3-1.24,4.52-1.83a9,9,0,0,1,7.74.4A24,24,0,0,1,912,79.56c.9,1.09.82,1.44-.41,2.21a18.33,18.33,0,0,1-8.81,2.7,34.22,34.22,0,0,1-11-1.41c-.37-.1-.81-.36-1.14-.06-1.27,1.18-2.73.8-4.2.65A3.09,3.09,0,0,1,883.61,81c-.48-1.83.41-3.67-.14-5.5-.1-.32.2-.68.44-1,.49-.58.21-.77-.37-1-1.86-.57-1.86-.58-1.84-2.52,0-.29,0-.58,0-.86s.11-.56-.17-.69-.46.14-.66.28A30,30,0,0,0,877,73.58a4.2,4.2,0,0,1-3.3,1.57.81.81,0,0,0-.92.57,18.29,18.29,0,0,0-1.4,5.2,2,2,0,0,1-.49,1.4c-.87.89-4.17,1.21-5.12.38a1.55,1.55,0,0,0-1.75-.29,32.68,32.68,0,0,1-19.18.76c-2-.53-2.45-1.59-1.4-3.36a17.56,17.56,0,0,1,4.91-5.42,9.8,9.8,0,0,1,7.48-1.81,69.5,69.5,0,0,1,7.11,1.88c.6.15,1.21.38,1.65-.3a1.68,1.68,0,0,1,2.39-.67c-.73-1.29-.75-1.48-.06-2.69A53.25,53.25,0,0,0,869.4,66c.14-.33.4-.66.12-1-.71-.87-.32-1.6.24-2.33.33-.43.62-.88,1.07-1.54C869.57,61.7,868.57,62.21,867.54,62.63Zm44.84-26.56a5.65,5.65,0,0,0,1.16-.56,1.51,1.51,0,0,0,.35-2.12A1.36,1.36,0,0,0,912,33.1a10.68,10.68,0,0,0-3.54,3.44c-.15.24-.29.48-.57,1A4,4,0,0,1,909,34.73a11.83,11.83,0,0,1,2.18-1.94c.31-.23.73-.46.5-.95a.9.9,0,0,0-1.21-.41,4.52,4.52,0,0,0-2.9,2.44,5.44,5.44,0,0,1-3.07,3.33,3.4,3.4,0,0,0-1.4,1.34c-.38.53-.59.39-.77-.14a4.45,4.45,0,0,0-2-2.6,1.62,1.62,0,0,0-2.09.14,1.48,1.48,0,0,0-.4,2,15.54,15.54,0,0,1,2.71,6.62c.21,1.18,1.35,1.61,2.33,2.09.24.12.53.19.68.5-.52.27-1-.17-1.52,0a3.79,3.79,0,0,0,1.23,1.4c.43.38.77,0,1-.31a5.51,5.51,0,0,1,3.35-2.54,4,4,0,0,0,2-1.81,9.35,9.35,0,0,1,3.22-3.42,3.91,3.91,0,0,0,1.67-1.81,1.4,1.4,0,0,0-.13-1.71,1.32,1.32,0,0,0-1.6-.2,7,7,0,0,0-2.26,1.45c-.24.24-.51.46-.76.69A4.36,4.36,0,0,1,912.38,36.07ZM854.22,50.69c-.43.19-.75-.11-1.09-.31a6.36,6.36,0,0,0-3.9-1.07,6.81,6.81,0,0,0-1.27.26c-.49.16-1,.44-.93,1s.7.63,1.2.64a14,14,0,0,1,3.23.18,4.59,4.59,0,0,1,1.83.89,15.45,15.45,0,0,0-4.52-.61c-.25,0-.51,0-.76,0-1.16.12-1.74.79-1.53,1.75a1.72,1.72,0,0,0,2.19,1.22,7.39,7.39,0,0,1,2.76-.43,3.46,3.46,0,0,1,1.74.55,8.2,8.2,0,0,0-3.45.23c-.67.2-1.37.39-1.39,1.28s.63,1.24,1.34,1.49A6.11,6.11,0,0,0,852,58a10.74,10.74,0,0,1,4.35.65,4.53,4.53,0,0,0,3.08,0,4.5,4.5,0,0,1,3.17-.14c.32.11.76.29,1-.14a.64.64,0,0,0-.38-.89c-.62-.19-.23-.52-.11-.73A4.23,4.23,0,0,0,863,52a6.77,6.77,0,0,1-1.19-4.31,2.38,2.38,0,0,0-.37-1.45,1.66,1.66,0,0,0-1.63-.86,1.57,1.57,0,0,0-1.41,1,4.25,4.25,0,0,0-.12,3.06,1.8,1.8,0,0,1,.23,1.13A5.45,5.45,0,0,0,854.22,50.69ZM880.73,39.3a4.4,4.4,0,0,0-.22-2.94.2.2,0,0,0-.08-.08c-.62-.54-3.2.37-3.34,1.18a4.58,4.58,0,0,0,0,.64c-.07,1.71.06,1.84,1.88,1.83C879.52,39.88,880.42,40.09,880.73,39.3Zm2.51-.7a3.66,3.66,0,0,0,2.51-1.84.76.76,0,0,0-.16-.8,5.55,5.55,0,0,0-.68-.69c-.42-.32-.73-1.05-1.26-.87a12.1,12.1,0,0,0-2.22,1.29c-.07,0-.08.19-.09.23A4.9,4.9,0,0,0,883.24,38.6Z"/></g></svg>