<svg xmlns="http://www.w3.org/2000/svg" viewBox="0 0 99.16 63.69"><defs><style>.cls-1{fill:#17816f;}.cls-2{fill:#db2b18;}.cls-3{fill:#e5830e;}.cls-4{fill:#17856f;}</style></defs><title>Guai-Guai&amp;apos;s head</title><g id="圖層_2" data-name="圖層 2"><path class="cls-1" d="M81.46,49.13c-.57-1.21-1.63-2.12-2-3.44-.33-1.16-.52-2.32.45-3.26a3.25,3.25,0,0,1,3.51-.56A5,5,0,0,1,86,44.09c.38.58.61.49,1.2.2a7.75,7.75,0,0,0,4-4.28,3.67,3.67,0,0,1,1.22-1.65c1.73-1.19,2.36-3,3-4.83,1.43-4.2,3.17-8.31,3.73-12.77a2.19,2.19,0,0,0-1.33-2.56c-3.3-1.77-6.53-3.68-9.8-5.51-1.34-.75-1.52-.66-2,.78A19.93,19.93,0,0,1,83.43,19c-1.6,2.25-3.07,2.31-4.91.24a28.11,28.11,0,0,1-2.4-3.69C72,9,66.64,4,59.33,1.5c-9.27-3.13-18-1.13-26.06,4-.55.35-1.06.74-1.59,1.11-.23.25-.45.52-.7.75a33,33,0,0,0-8,10.55c-.59,1.22-.88,2.61-1.87,3.62a6.27,6.27,0,0,1-.62,2.58A57.89,57.89,0,0,0,19,35a17,17,0,0,1-1.74,6.59c-1.87,3.49-4.58,4.45-8.22,3a13.55,13.55,0,0,1-4.12-2.86c-.91-.85-1.24-.78-1.55.41C2.24,46.2,1.17,50.34.07,54.47A1.18,1.18,0,0,0,.7,56,91.34,91.34,0,0,0,16.81,63.6c.52.19.64.07.77-.41.28-1,1-1.76.76-2.95-.16-.77.66-1.34,1.39-1.69a6.57,6.57,0,0,1,6.53.42c1.79,1.14,3.41.23,5.1.31.55,0,.37-.59.37-.94a6,6,0,0,1,.66-3.49,2.78,2.78,0,0,1,3.09-1.4,2.85,2.85,0,0,1,2.42,2.39,9.58,9.58,0,0,1,.22,1.92,5.83,5.83,0,0,0,1.33,4c3.45-.37,6.92-.7,10.29-2.23A20.17,20.17,0,0,1,42.13,52c-.62-1-1.17-1.55-2.45-1.14a7.4,7.4,0,0,1-2.45.09,8.29,8.29,0,0,1-8-7.13,4.55,4.55,0,0,1,3.69-5.49,6.32,6.32,0,0,1,4.39.65,15.41,15.41,0,0,1,4.06,3.74c1.89-1.12,2.08-1.79,1-3.55a35,35,0,0,1-1.76-3.45,3.57,3.57,0,0,1,.83-4.57,26.75,26.75,0,0,1,19.55-7.7,3,3,0,0,1,2.72,1.46c.43.69.87,1.38,1.29,2.08,1.08,1.79,1.67,3.85,2.9,5.56,1.67-.15,1.66-.14,1.15-1.72a10.55,10.55,0,0,1-.61-3.69c.08-1.79.7-3.37,2.42-4.13a4.72,4.72,0,0,1,4.89.69,5.28,5.28,0,0,1,1.93,2.56,11.49,11.49,0,0,1-.79,10.1,1.39,1.39,0,0,0-.2,1.3A17.26,17.26,0,0,1,75,52.26c-.17.3-.57.57-.25,1.13A21.29,21.29,0,0,0,81.46,49.13Z"/><path class="cls-2" d="M19.76,21.58A11.82,11.82,0,0,1,18.46,23a3.7,3.7,0,0,1-3.85,1.25c-1.48-.46-1.54-1.92-1.85-3.16,0,0,0-.09,0-.13-1.12-5.59.93-10.22,4.28-14.5a4.72,4.72,0,0,1,4.64-1.87,72.38,72.38,0,0,1,10,2c-.23.25-.45.52-.7.75a33,33,0,0,0-8,10.55c-.59,1.22-.88,2.61-1.87,3.62C20.65,20.76,20.24,20.88,19.76,21.58ZM26,8.72c.11-.43-.32-.59-.62-.69-.93-.32-1.88-.62-2.84-.85-.43-.1-1-.16-1.16.46s.25,1,.85,1l2.66.38C25.39,9.1,25.85,9.23,26,8.72Z"/><path class="cls-3" d="M68.22,36.81a21.06,21.06,0,0,1,1.93,11.47c-.48,4.3-2.8,7.48-6.33,8.3s-6.65-.46-9.22-2.92a23.15,23.15,0,0,1-5.8-10.13c-.15-.48-.24-1.16-1-.29.23-2.19.83-2.57,2.5-1.71A11.76,11.76,0,0,0,66,36.46c.83-1.6,1.12-1.67,2.83-.63C67.88,36.05,67.87,36.06,68.22,36.81Zm-8.47,6.43c-1.42-.27-2.76.34-4.16.38A15.53,15.53,0,0,1,49,41.48a19.66,19.66,0,0,0,2.3,6.3c.22.39.59.39,1,.23,1-.36,2-.67,2.93-1a1,1,0,0,0,1.2.88c.64,0,1.29,0,1.93,0,1.43-.08,1.75-.42,1.8-1.9a2.3,2.3,0,0,0,1.7-.26,2.45,2.45,0,0,0,3.56-.81c.22-.36.47-.71.7-1.06,1,.41,1.85-.14,2.73-.44.72-.25.5-.95.4-1.46A17.18,17.18,0,0,0,67,36.09c-.78,2-2.17,3.32-3.34,4.85-1.31.31-2.26,1.26-3.41,1.85C59.92,42.75,59.82,43,59.75,43.24Zm-.11,6.51a10.93,10.93,0,0,0-5,1.93c-.32.22-.55.41-.15.89a9.35,9.35,0,0,0,10.11,2.71,8,8,0,0,0,.94-.44c1.18-.68,2.62-1.56,2.58-2.84s-1.34-2.45-2.52-3.28c-.81-.57-1.44.11-2,.55-.76.56.07.84.27,1.22.09.19.23.36-.08.78A4.45,4.45,0,0,0,59.64,49.75Z"/><path class="cls-1" d="M52.84,37.27A4.33,4.33,0,0,0,51,33.88a1.69,1.69,0,0,0-1.71-.24,1.46,1.46,0,0,0-.8,1.5,4.23,4.23,0,0,0,1.64,3.49,1.8,1.8,0,0,0,1.92.4C52.8,38.69,52.85,38,52.84,37.27Z"/><path class="cls-1" d="M48.71,29c-1.28,0-3.88,1.78-4.26,3a1.22,1.22,0,0,0,.24,1.32,1.26,1.26,0,0,0,1.53.34,9.65,9.65,0,0,0,3.45-2.82C50.33,29.79,49.87,29,48.71,29Z"/><path class="cls-1" d="M60.49,31.91a4.09,4.09,0,0,0,1,2.88A1.36,1.36,0,0,0,64,34.22a3.89,3.89,0,0,0-.3-2.88c-.38-.79-.93-1.58-1.93-1.39S60.57,31.16,60.49,31.91Z"/><path class="cls-1" d="M61.58,28.7c1.14,0,1.9-.21,2-1.18S63,26.2,62.17,26A6,6,0,0,0,59,26c-.48.14-.87.38-.83,1A1.11,1.11,0,0,0,59,28.16C59.92,28.39,60.9,28.56,61.58,28.7Z"/><path class="cls-3" d="M38.11,46.07c-.15-2-1.33-3.12-3-3.12-.75,0-1.48.14-1.49,1s.61,1.31,1.45,1.32A4.28,4.28,0,0,1,38.11,46.07Z"/><path class="cls-1" d="M56.13,34.9a2,2,0,0,0-.35,2.9,2.16,2.16,0,0,0,2.79.42,2,2,0,0,0,.53-2.88l-.13.09c0,.26.06.51.07.77a1.57,1.57,0,0,1-1,1.63,1.5,1.5,0,0,1-1.67-.29,1.63,1.63,0,0,1-.44-1.88c.07-.26.46-.44.2-.79Z"/><path class="cls-3" d="M73.26,32.48a2.75,2.75,0,0,1,.89-2.59A1.56,1.56,0,0,0,74.41,28a1,1,0,0,0-1-.59,1.74,1.74,0,0,0-1.46,1.3A3.28,3.28,0,0,0,73.26,32.48Z"/><path class="cls-1" d="M55.59,43.62A15.53,15.53,0,0,1,49,41.48a19.66,19.66,0,0,0,2.3,6.3c.22.39.59.39,1,.23,1-.36,2-.67,2.93-1,0-.3,0-.59,0-.89-.16-.14-.13-.27,0-.38Z"/><path class="cls-1" d="M66.15,43.85c1,.41,1.85-.14,2.73-.44.72-.25.5-.95.4-1.46A17.18,17.18,0,0,0,67,36.09c-.78,2-2.17,3.32-3.34,4.85a14,14,0,0,1,1.2,1.1C65.36,42.6,66.32,42.84,66.15,43.85Z"/><path class="cls-1" d="M61.89,45.72a17.11,17.11,0,0,1-1.63-2.93c-.34,0-.44.18-.51.45.15.91.3,1.83.44,2.74A2.3,2.3,0,0,0,61.89,45.72Z"/><path class="cls-4" d="M55.25,46.13l0-.38C55.12,45.86,55.09,46,55.25,46.13Z"/></g></svg>