<svg xmlns="http://www.w3.org/2000/svg" viewBox="0 0 84.74 84.51"><defs><style>.cls-1{fill:#e5830e;}</style></defs><title>Guai-Guai y title</title><g id="圖層_2" data-name="圖層 2"><path class="cls-1" d="M36.75,62.63c-3.91,1.6-5,1.19-6.82-2.56-.23-.48-.46-.7-1-.5a5.67,5.67,0,0,1-4.13-.14A8.45,8.45,0,0,0,20.47,59a3.11,3.11,0,0,1-3.23-1.11c-.8-1.27-1.68-2.48-2.5-3.72a2.88,2.88,0,0,0-1.45-1.25A78.34,78.34,0,0,1,1,47.08,1.6,1.6,0,0,1,.11,45c.88-3.12,1.66-6.28,2.47-9.42C3,34.11,3.39,34,4.43,35a10.75,10.75,0,0,0,3.82,2.4,4.37,4.37,0,0,0,5.09-1.3,7.18,7.18,0,0,0,1.44-2.4,17.25,17.25,0,0,0,1-4.86A38.78,38.78,0,0,1,17.41,19a2.6,2.6,0,0,0,.12-.63.61.61,0,0,0-.32-.64c-.32-.15-.43.16-.59.33-.42.45-.82.92-1.26,1.34a3.05,3.05,0,0,1-3.15,1c-1.23-.39-1.37-1.55-1.6-2.62-1-4.74.67-8.71,3.52-12.36a4.14,4.14,0,0,1,4.11-1.6,50.68,50.68,0,0,1,7.32,1.45A1.56,1.56,0,0,0,27.15,5a20.72,20.72,0,0,1,6-3.22C40.45-.83,47.57-.81,54.32,3.52A29.69,29.69,0,0,1,64.1,13.76a15.14,15.14,0,0,0,1.37,2.07c1.57,1.89,2.84,1.83,4.19-.21a18.8,18.8,0,0,0,2-4.42c.38-1.13.69-1.26,1.74-.68,2.86,1.61,5.71,3.25,8.57,4.86A1.43,1.43,0,0,1,82.83,17a29.44,29.44,0,0,1-.52,3,91,91,0,0,1-3.22,9.65c-.1.26-.81,1,.29.87s2.08-.11,2.69,1c.11.2.49.27.75.38a2.49,2.49,0,0,1,1.57,3.24,1.63,1.63,0,0,0-.08,1c.82,2.21.51,3.53-1.35,4.77a10.71,10.71,0,0,0-3.38,3.58,4.81,4.81,0,0,1-3,2.34c-.91.24-1,.6-.59,1.45,1.23,2.62.64,4-2,5.08-.3.13-.61.23-.92.33a27.45,27.45,0,0,1-7.8,1.07c-1.37,0-1.77.55-1.53,1.92.46,2.52.91,5,1.33,7.57.27,1.6.09,1.85-1.52,2.22a1.16,1.16,0,0,0-1,.89,31.82,31.82,0,0,1-2.32,5.82c-.37.7.1,1.08.37,1.56s.74.28,1.14.12c1.5-.61,3-1.24,4.51-1.83a9,9,0,0,1,7.74.4,24,24,0,0,1,7.25,6.09c.9,1.09.82,1.44-.41,2.21a18.3,18.3,0,0,1-8.8,2.7,34.25,34.25,0,0,1-11-1.41c-.37-.1-.81-.36-1.13-.06-1.28,1.18-2.73.8-4.21.65A3.07,3.07,0,0,1,52.82,81c-.49-1.83.41-3.67-.15-5.5-.1-.32.21-.68.44-1,.5-.58.21-.77-.37-1C50.88,73,50.88,73,50.9,71.09c0-.29,0-.58,0-.86s.11-.56-.17-.69-.46.14-.65.28a29.43,29.43,0,0,0-3.89,3.76,4.2,4.2,0,0,1-3.29,1.57.82.82,0,0,0-.93.57,18.62,18.62,0,0,0-1.4,5.2,2,2,0,0,1-.49,1.4c-.86.89-4.17,1.21-5.12.38a1.55,1.55,0,0,0-1.75-.29A32.68,32.68,0,0,1,14,83.17c-2-.53-2.45-1.59-1.4-3.36a17.69,17.69,0,0,1,4.91-5.42A9.8,9.8,0,0,1,25,72.58a69.5,69.5,0,0,1,7.11,1.88c.6.15,1.22.38,1.65-.3a1.69,1.69,0,0,1,2.4-.67c-.74-1.29-.75-1.48-.07-2.69A53.25,53.25,0,0,0,38.6,66c.14-.33.4-.66.12-1-.71-.87-.32-1.6.25-2.33.33-.43.61-.88,1.07-1.54C38.77,61.7,37.78,62.21,36.75,62.63ZM81.58,36.07a6,6,0,0,0,1.17-.56,1.52,1.52,0,0,0,.34-2.12,1.36,1.36,0,0,0-1.94-.29,10.87,10.87,0,0,0-3.54,3.44l-.56,1a3.91,3.91,0,0,1,1.17-2.77,12.17,12.17,0,0,1,2.18-1.94c.32-.23.73-.46.5-.95a.9.9,0,0,0-1.21-.41,4.52,4.52,0,0,0-2.9,2.44,5.44,5.44,0,0,1-3.07,3.33,3.4,3.4,0,0,0-1.4,1.34c-.38.53-.59.39-.77-.14a4.45,4.45,0,0,0-2-2.6,1.62,1.62,0,0,0-2.09.14,1.47,1.47,0,0,0-.39,2,15.65,15.65,0,0,1,2.7,6.62c.21,1.18,1.35,1.61,2.33,2.09.24.12.54.19.68.5-.52.27-1-.17-1.51,0a3.85,3.85,0,0,0,1.22,1.4c.44.38.78,0,1-.31a5.53,5.53,0,0,1,3.35-2.54,3.94,3.94,0,0,0,2-1.81A9.29,9.29,0,0,1,82,40.51a3.94,3.94,0,0,0,1.66-1.81A1.41,1.41,0,0,0,83.54,37a1.33,1.33,0,0,0-1.6-.2,6.94,6.94,0,0,0-2.27,1.45c-.24.24-.5.46-.76.69A4.36,4.36,0,0,1,81.58,36.07ZM23.43,50.69c-.44.19-.76-.11-1.1-.31a6.36,6.36,0,0,0-3.9-1.07,6.55,6.55,0,0,0-1.26.26c-.5.16-1,.44-.93,1s.69.63,1.19.64a14,14,0,0,1,3.23.18,4.59,4.59,0,0,1,1.83.89A15.4,15.4,0,0,0,18,51.71c-.25,0-.5,0-.75,0-1.17.12-1.75.79-1.54,1.75a1.72,1.72,0,0,0,2.19,1.22,7.45,7.45,0,0,1,2.76-.43,3.53,3.53,0,0,1,1.75.55,8.23,8.23,0,0,0-3.46.23c-.67.2-1.37.39-1.39,1.28s.63,1.24,1.34,1.49a6.11,6.11,0,0,0,2.37.14,10.79,10.79,0,0,1,4.36.65,4.53,4.53,0,0,0,3.08,0,4.47,4.47,0,0,1,3.16-.14c.32.11.77.29,1-.14a.63.63,0,0,0-.38-.89c-.62-.19-.23-.52-.11-.73a4.23,4.23,0,0,0-.13-4.7A6.71,6.71,0,0,1,31,47.72a2.45,2.45,0,0,0-.38-1.45A1.65,1.65,0,0,0,29,45.41a1.55,1.55,0,0,0-1.4,1,4.25,4.25,0,0,0-.13,3.06,1.87,1.87,0,0,1,.24,1.13A5.45,5.45,0,0,0,23.43,50.69ZM49.93,39.3a4.4,4.4,0,0,0-.22-2.94s-.05-.06-.07-.08c-.63-.54-3.21.37-3.35,1.18a4.58,4.58,0,0,0,0,.64c-.07,1.71.06,1.84,1.88,1.83C48.72,39.88,49.63,40.09,49.93,39.3Zm2.51-.7A3.64,3.64,0,0,0,55,36.76a.76.76,0,0,0-.16-.8,4.93,4.93,0,0,0-.68-.69c-.41-.32-.73-1.05-1.26-.87a12.1,12.1,0,0,0-2.22,1.29c-.07,0-.07.19-.09.23A5,5,0,0,0,52.44,38.6Z"/></g></svg>