<svg xmlns="http://www.w3.org/2000/svg" viewBox="0 0 146 184.8"><defs><style>.cls-1{fill:#edebde;}.cls-2{fill:#cd240c;}.cls-3{fill:#004097;}</style></defs><title>red Guai-Guai</title><g id="圖層_2" data-name="圖層 2"><rect class="cls-1" width="145.99" height="184.8"/><path class="cls-2" d="M1.4,183.64c-.9-6.12-.59-11.86,5-16a2.14,2.14,0,0,0,.81-2.06C7,158,6.71,150.47,6.69,142.9c0-6.78.12-13.57.44-20.35.5-10.48.86-21,.86-31.45,0-11.35-.61-22.69-.91-34-.31-11.82-.4-23.64.25-35.45a3.36,3.36,0,0,0-1.22-3C2.81,15.4,0,11.86.13,6.8.19,4.94,0,3.08,0,1.22c0-.54,0-.74.88-1C2.24-.26,3.5,1.19,4.6,0,5.55,1.09,7,.42,8,.51s2.42.92,3.67.13c.81-.51,1.44.47,2.35.52,1.72.08,3.48-.07,5.21.17,1.49.2,3-.12,4.41,0,1.16.06,2.43-.65,3.56.13.45.31.74,0,1-.29s.68-.43,1.05-.08.92.59,1.44,0A.65.65,0,0,1,31.47,1c1.39.51,2.91-.08,4.2.2S38,.5,39.08,1.41c.28.25.57.38.89.08a1,1,0,0,1,1.62,0,.68.68,0,0,0,1-.05c.19-.2.5-.5.71-.29,1.73,1.75,3.93-.27,5.73.74,1-1.32,2.61.44,3.8-.65.17-.15,1.48.34,2.21.52C58,2.45,60.9,2,63.76,2c1.82,0,3.89.67,5.69-.43,1,1.27,2.54-.66,3.53.61,1-1.2,2.28.64,3.33-.26.32-.27.62-.15.9.09s.33.31.5.46C78.65,1.12,80,2.9,81,2.06a.64.64,0,0,1,1,.08c.44.6.89.56,1.39.09a.65.65,0,0,1,1,0c.44.51.83.44,1.26,0,.25-.27.59-.38.88,0a1,1,0,0,0,1.59.1.58.58,0,0,1,.89.11.74.74,0,0,0,1.27.08c.49-.51.89-.28,1.27.16s.74.42,1.1,0c.11-.13.34-.35.36-.33C94,3,95,2.44,96,2.41c1.41,0,2.84,0,4.24,0,1,0,2.31-.72,3.35.12.36.3.66.36,1,0a1.71,1.71,0,0,1,.53-.36c1,1.14,2.35-.41,3.41.45.68.55,1.06-.78,1.36-.51,1.06,1,2.65.45,3.25.24,1.34-.48,2.61.8,3.84-.27.55-.48,1.54,1.09,2.28-.1,1,1.15,2.41-.75,3.46.4.32.34.64.07.86-.18.45-.52.9-.65,1.42-.11s.69.2,1-.11A.78.78,0,0,1,127.16,2c.21.17.52.51.71.3,1.19-1.27,2.69.12,3.9-.48s2.78.17,3.94-.8a.41.41,0,0,1,.6,0c.56.57,1.08.74,1.65,0a.54.54,0,0,1,.88,0c.52.56,1,.4,1.42-.08s.69-.29,1,0,.75.56,1.15.08.92-.48,1.4,0c.2.2.49.36.75.13,1.48-1.33,1.18.07,1.2.8a34.88,34.88,0,0,0,.09,4.58c.53,3.29-1,5.83-2.85,8.19a18.88,18.88,0,0,0-4.21,9,13.22,13.22,0,0,0,.35,3c.58,9.33.17,18.66.23,28,0,4-.54,7.92-.53,11.83,0,4.78.27,9.59.28,14.39,0,18.16-.1,36.32-.17,54.48,0,2.94,0,5.88-.23,8.81-.4,5.61-.91,11.21-1.48,16.8a3.12,3.12,0,0,0,1,2.85,73.65,73.65,0,0,1,5.28,6.41,7.23,7.23,0,0,1,1.58,5.38c-.27,2.49-.15,5-.24,7.46-.07,1.89-.38,2-2.13,1.49-.91-.24-2-.12-3-.27a15,15,0,0,0-4.23-.2c-1.19.19-2.43-1-3.5.17-.28.3-.63,0-.85-.29-.41-.46-.81-.57-1.26-.05a.63.63,0,0,1-1,.07c-.48-.51-.91-.56-1.4,0a.64.64,0,0,1-1,0c-.41-.45-.81-.56-1.27-.06s-.78.31-1.14-.09-.64-.54-1-.11c-.53.63-1,.59-1.54,0-.3-.34-.62-.15-.88.09-.44.4-.86.49-1.31,0a.69.69,0,0,0-1.15,0c-.39.43-.78.36-1.15,0s-.87-.37-1.31,0c-.26.24-.57.39-.88,0a1,1,0,0,0-1.59-.11c-.38.36-.74.17-1-.16a.66.66,0,0,0-1.13,0c-.46.54-.84.41-1.23-.06s-.76-.37-1.14,0-.62.59-1,.15c-.52-.61-1-.61-1.53,0a.52.52,0,0,1-.87,0c-.51-.64-1-.6-1.53,0-.31.32-.62.21-.87-.09a1,1,0,0,0-1.58-.07.7.7,0,0,1-.62.08c-1.44-.48-3.11.12-4.26-.24s-2.34.57-3.53-.29c-.52-.38-1.7.37-2.76,0-.41-.14-1.36.59-2.06-.16-1,1.35-2.46-.74-3.46.52-.17.2-.46.07-.59-.11-.54-.74-1.18-.11-1.66-.2-1-.17-2-.06-3-.18-1.36-.16-2.81,0-4-.25s-2.29.42-3.31-.26a.8.8,0,0,0-.78-.14c-.53.19-3.81-.17-4.14.18-1.11,1.18-2.44-.6-3.49.55-.57.63-1.54-1.22-2.29.08-1.14-.67-2.35.44-3.46-.12-.45-.22-.72-.21-1,.12a.78.78,0,0,1-1.29,0c-.45-.46-.8-.21-1.15.14s-.64.54-1,.14a.8.8,0,0,0-1.39,0,.66.66,0,0,1-.76.24c-1.45-.62-3-.2-4.39-.39-1.09-.15-2.45.69-3.43-.44-.3-.35-.63,0-.88.18-.47.36-.92.47-1.32,0s-.77-.33-1.14,0a.75.75,0,0,1-1.18,0c-.19-.19-.48-.51-.7-.33a1.46,1.46,0,0,1-2.19-.08c-1,1.3-2.48-.67-3.49.52-1-1.15-2.26.05-3.48-.36a4.33,4.33,0,0,0-3.25.1.86.86,0,0,1-1.08,0c-.18-.14-.47-.39-.56-.34-2,1.13-4.13-.42-6.23.4-.7.27-2,0-3,.13a25.84,25.84,0,0,1-3.68.22c-1.16,0-2.39.63-3.52,0-.33-.2-.62-.3-.9,0-.55.61-1.06.49-1.57-.05a.47.47,0,0,0-.74.05A1,1,0,0,1,3,183.2C2.33,182.63,2.05,183.85,1.4,183.64ZM29.08,83c-.26.19-.14.34.05.49a11.42,11.42,0,0,0,7.2,5c1.71.46,3.49.89,5.26.13a4.2,4.2,0,0,0,3.41-.9c.59.45,1.08,0,1.57-.19a14.65,14.65,0,0,0,6.11-5.19,12.26,12.26,0,0,0-.82-14.21c-.68-.77-2.25-1.25-2-2.14s1.86-.74,2.84-1.15c.48-.2,1-.35,1-.95s-.53-.69-.94-.87a12,12,0,0,0-7-.63c-3.48.59-6.84,1.81-10.36,2.27a10.1,10.1,0,0,0-2.65,1c-.26.12-.67.28-.36.73l0,0c-.27-.48-.58-.14-.83,0-3.6,2-5.95,8-4.69,12,0,0,.15.06.23.08,1.11-3.7,2.74-5,5.7-4.82,1.21.09,2.16.88,3.31,1.11l.52.36c.15,1.36,1.2,2.44,1.14,4.2l1.66-1.84c1.5-1.61,2.13-1.82,3.84-.38,1.19,1,2.28,2.13,3.54,3s1.71,2.17.82,3.64c-.5,0-.66.26-.48.73h0c-.48,0-.46.41-.46.76a.2.2,0,0,1-.12.21,2.86,2.86,0,0,0-2.11.31c-1.69.94-3,.27-4.11-1-.4-.44-.39-.06-.51.09a1.06,1.06,0,0,1-1,.51c-.19-1.78-1.22-1.54-2.38-1-.69-.1-.5-1.15-1.26-1.18.56-.77,1-1.7.41-2.5s-1.57-.45-2.35-.35c-1.76.22-3.24.92-3.62,2.92a.49.49,0,0,0-.24,0l-.4-.28-.3-.16V83Zm48.82-.37,0,0a5.13,5.13,0,0,1,4.94-.73c.44.16.9,1,1.37.1.36-.7-.3-1-.69-1.37-2.5-2.18-6.25-1.68-8.71,1.22a17.92,17.92,0,0,1-3.77,3.86,1,1,0,0,0-.51,1,11.67,11.67,0,0,0,1.22,5.72c.54,1,1.21,1.44,2.35,1a3.6,3.6,0,0,1,3.8.67,4.84,4.84,0,0,0,2.26,1.1,1.36,1.36,0,0,0,1.45-.66,1,1,0,0,0-.35-1.33c-1.14-1-1.92-2.66-4.15-2a3.9,3.9,0,0,0,.66-3.57,3.33,3.33,0,0,1,4.55-3.8c.41.13.8.3,1.35.51-.16-1.7-1.41-1.82-2.5-2.12S79,82.72,77.9,82.63Zm7,.54c2.41-1.72,3.42-1.88,4.87-.75-3.27.18-4.21.71-4.61,2.58a21.32,21.32,0,0,1,2.61-1.06C90.1,83.33,92,85,91.4,87.32a5.12,5.12,0,0,0,.34,4.23,4,4,0,0,0-4.17,1.38,1.43,1.43,0,0,0-.39,1.68,1.32,1.32,0,0,0,1.7.75,7,7,0,0,0,2-.87,3.26,3.26,0,0,1,3.64-.43A1.74,1.74,0,0,0,97,93.31c1.29-1.84,1.42-4,1.62-6.13,0-.47-.32-.69-.63-.94a15.54,15.54,0,0,1-3-3.44,7.31,7.31,0,0,0-4.14-3.06A4.93,4.93,0,0,0,84.7,83c-.16,0-.25.16-.13.3S84.79,83.21,84.91,83.17ZM80.66,24.59c.21-.76,1-.71,1.72-1.17a1.6,1.6,0,0,1-1.07-1.94c.13-1-.31-1.3-1.24-1.25a9.86,9.86,0,0,1-1.51-.18c-1.49-.13-3.08-.6-3.87,1.34a.6.6,0,0,1-1,.3.68.68,0,0,1-.19-1c.6-1,1.21-2,1.85-3,.41-.65,1.11-.41,1.17.05.17,1.2,1,1,1.71,1,1.19.08,2.37.17,3.55.23.38,0,1,.5,1.11-.22a.9.9,0,0,0-.85-1.07c-1.24-.16-2.48-.27-3.71-.36a2.41,2.41,0,0,1-1.66-.64c-1.62-1.47-2.38-1.4-3.39.54-.76,1.48-1.56,2-3.21,1.42s-3.3-.26-4.56-1.78c-.75-.89-1.84-.68-2.53.45-.47.77-1,1.5-1.74,2.63-.1-1.69-1.51-1.47-2.12-2.14-1.56-1.69-3.58-.86-5-.54-1,.22-2,1.71-3.5,1.94-.72.11-1.39,4.31-1.15,5.17.41,1.43,1.76,2.35,2,3.9.08.58.83.68,1.42.69l7,.21c.84,0,1.59-.14,1.85-1.12.14-.56.36-1,1-.36.45.45,1.07.27,1.62.28,1.42,0,2.82-.42,4.26.28a2.25,2.25,0,0,0,2.4-.31c-.42-.54-2.25.3-1.45-1.14,1-1.69.35-3.37.58-5a.43.43,0,0,0-.4-.47c-1.39-.22-2.78-.47-4.18-.6-.86-.08-.94.86-1.38,1.33s-.59.51-1,.28c-.58-.3-.39-.73-.14-1.13.54-.87,1.08-1.73,1.63-2.59.2-.32.37-.76.87-.63s.82.35.6,1,.31.47.59.51a18.59,18.59,0,0,0,2.86.34c1.8,0,2.36.76,2.17,2.49a4.52,4.52,0,0,0,1.52,4,5.78,5.78,0,0,0,4,2c.62,0,1.24,0,1.86.05a1.11,1.11,0,0,0,1.22-.94C80.78,26.46,80.44,25.49,80.66,24.59ZM64,40.76c.94-1.71.95-1.72-.88-2.07C52.74,36.76,43,38.3,34.25,44.44a55,55,0,0,1-4.73,3C26.62,49,26.6,49,25.46,46c-.66-1.73-1.24-2-3.81-1.68-.94.13-1-.1-1.19-.95-.42-2,.41-4.4-1.67-6a.44.44,0,0,1,0-.43,1.88,1.88,0,0,0-.33-2.59c-1.18-1.15-1.42-2.62-2-4-.54-1.17-1.71-.72-2.57-.61-1.12.14-.33,1-.22,1.43a41.1,41.1,0,0,1,1.3,10.05c0,5.09,0,10.19,0,15.28a3.74,3.74,0,0,0,.54,2.36,9.36,9.36,0,0,0,1.7-3.57C17.42,54,18.67,53.5,19.6,53c.43-.22.47,1.3.86,2,.06.09.05.22.09.32,1,3.34,2.7,4.32,6.23,3.69s6.49-2.55,9.31-4.66a34.92,34.92,0,0,1,25.39-6.92,6.22,6.22,0,0,0,2.86.11C62.68,45.31,63,43.12,64,40.92,64,40.88,64,40.81,64,40.76Zm14.26,36.8c.54-.19.8.3,1.18.5a10.38,10.38,0,0,0,3.42.78c1,.15.9-1,1.48-1.39.39-.25.73-.64,1.2-.52a5.32,5.32,0,0,0,4-.72c-1.3,2.11-3.42,2.94-5.7,3.7.56.13.48,1.59,1.58.56,2.37-2.21,5-2.1,7.65-.61a1.75,1.75,0,0,0,2.37-.28,18.69,18.69,0,0,0,4.45-5.71,1.77,1.77,0,0,1,2.18-1.19,7,7,0,0,0,7.21-3.11c1.11-1.69,1.6-3.57.51-5.43s-2.86-1.76-4.67-1.5c-.11,0-.22,0-.33,0,1.62-1.11,3.24-.74,4.73.19s1.83,2.52,1.59,4.19a6.84,6.84,0,0,1-7,6.19c-2.69.08-3.94,1.15-5.16,3.24-.74,1.28-.48,1.61.6,2.21a30.28,30.28,0,0,1,9,6.89c1.49,1.8,3,2.15,5,1.35a1.7,1.7,0,0,1,.32-.1c5.52-1.32,10.58-3.77,15.56-6.38,2.2-1.16,4.26-2.57,6.36-3.89.57-.35,1.12-.69.8-1.61-1.17-3.42-2.27-6.87-3.38-10.31-.33-1-.8-1.16-1.48-.3-1.42,1.8-3.44,2.68-5.44,3.61a1.32,1.32,0,0,1-1.14.09c-1.67-.83-3.31-1.67-4.27-3.43A16,16,0,0,1,119,58.62,35.78,35.78,0,0,0,113.2,42c-6.73-9.87-19.69-14.34-30.31-10.16C76,34.56,71.29,39.72,68,46.24a9.21,9.21,0,0,1-2.21,3.17,1.92,1.92,0,0,1-1.87.51c-4.59-1.3-9.17-.73-13.76.07-1.19.21-1.49.71-1.15,1.85.66,2.22,1.54,4.36,2.33,6.54.7,1.93,1.55,3.39,3.82,4,2,.51,2.32,2.06,1,3.62-.53.61-.39.91-.05,1.41a56.32,56.32,0,0,0,8.1,10c1.62,1.54,3.18,2.48,5.28.89a3.86,3.86,0,0,1,1.39-.61c1.09-.26,1-.7.45-1.5a15.29,15.29,0,0,1-2.54-8.65,38.35,38.35,0,0,1,.72-4.82c1-1,1.72-2.22,3-3,2.27-1.3,2.94-2.81,2.52-5.37a3.14,3.14,0,0,0-2.33-2.82,3,3,0,0,0-3.38,1.41A6.59,6.59,0,0,0,68,56.19a12.91,12.91,0,0,0,1.43,6.5C67,61,67.22,58.28,67.28,55.93a5.15,5.15,0,0,1,3.23-4.77c2.45-1,4.63.35,5,3.09a7,7,0,0,1-.36,3.5c-.44,1.12.13,1.24,1,1.19a7.49,7.49,0,0,0-5.67,3.87c-2.79,5.5-.21,13,4.74,16.59,1.16.83,2.06-.46,3.09-.72C79.15,78.47,77.7,78,78.27,77.56Zm-50,14.09a2.08,2.08,0,0,0-2.76,0,3,3,0,0,1-2.2.62c-2.71-.2-5.42-.3-8.13-.48-.85-.05-1.26.11-1,1.1,1.85,7.23,1.8,14.68,2.41,22a213.89,213.89,0,0,1,.26,24.94,95,95,0,0,1-1.6,16.21c-.66,3.15-.51,3.16,2.87,3.31,9.7.41,19.39.93,29.09,1.24q17.69.57,35.37.16c11.71-.27,23.42-.73,35.08-1.79,4.78-.43,9.64-.27,14.44-1.4-.5-1.36-1-2.6-1.41-3.89a66.09,66.09,0,0,1-2.38-16.89,248.56,248.56,0,0,1,2.89-45.28c.18-1.23,0-1.4-1.21-1.2a148.37,148.37,0,0,1-16,1.43c-1,0-1.33.13-1.12,1.32.59,3.35-1.15,6.11-4.45,6.69a20.77,20.77,0,0,1-12.86-2,2.83,2.83,0,0,1-1.84-2.46c0-1.63-.87-1.25-1.76-.82a10.61,10.61,0,0,0-1,.67c-1.81,1.13-3.07,1-4.54-.63-.31-.35-.45-.3-.8-.12-1.64.8-3.54.34-5.24,1.22-.72.37-1.81-.36-2.59-1a3.5,3.5,0,0,0-1.27-.8c-.61-.17-1.38-.41-1.65.58-.42,1.59-1.71,2.22-3.08,2.61a22.34,22.34,0,0,1-11.07.46c-1.92-.42-3.73-1.34-4.41-3.3-.44-1.26-1.08-1.39-2.19-1.4-7.86-.08-15.73-.23-23.59-.32A2.55,2.55,0,0,1,28.23,91.65ZM102.6,18.84H93.27c-4.61,0-4.93.31-4.82,4.87,0,1.92.88,2.86,2.78,2.87q11.28,0,22.55,0c1.9,0,2.75-.95,2.81-2.86,0-.56,0-1.13,0-1.69,0-2.36-.81-3.18-3.14-3.19C109.84,18.83,106.22,18.84,102.6,18.84ZM47.76,23.51A12.86,12.86,0,1,0,35,36.42,12.91,12.91,0,0,0,47.76,23.51ZM79.15,169.65c.75-.25,2.11.58,2.9-.42,1.07-1.36.67-3.16.83-4.77.05-.48-.48-.69-1-.73a28.5,28.5,0,0,0-5.84,0c-1,.11-1.23.69-.81,1.55.29.57.55,1.08-.07,1.63-.28.24-.09.59,0,.93C75.6,170.07,77.29,169.71,79.15,169.65ZM56.7,169.6h1c.57,0,1.19,0,1.42-.62s-.13-.9-.66-1.18-.2-.68.13-.89a.94.94,0,0,0,.43-1.24c-.23-.7-.74-.74-1.32-.78a9.26,9.26,0,0,1-2.51-.17,1.72,1.72,0,0,0-2.35,1.67c-.16,3.3-.16,3.3,3.17,3.2Zm34.45,0c2.46.1,2.55,0,2.1-2.15a1.55,1.55,0,0,1,0-.48c.4-2.22.4-2.22-1.73-2.22a4,4,0,0,1-1.34,0,1.86,1.86,0,0,0-2.67,1,9,9,0,0,0,0,3.5c0,.44.6.4,1,.4C89.5,169.57,90.49,169.58,91.15,169.58Zm-23.36.23c1-.21,2.74.64,2.9-1.41a3.54,3.54,0,0,0-3.48-3.93c-.8,0-2.84,1.49-2.84,2.06C64.37,169.29,64.9,169.82,67.79,169.81Zm-30-88.08c1.52-1.1,3.44-1.8,4.31-4C40.09,78.69,39.12,80.41,37.8,81.73ZM111.71,36.1a9.31,9.31,0,0,0,3.53-.47c.28-.07.55-.24.51-.58s-.43-.49-.76-.42A7,7,0,0,0,111.71,36.1ZM81.21,85.64c0-.44-.22-.83-.69-.81A1.19,1.19,0,0,0,79.34,86a.64.64,0,0,0,.66.79C80.77,86.82,81.05,86.28,81.21,85.64Z"/><path class="cls-3" d="M76.14,58.94c-.87.05-1.44-.07-1-1.19a7,7,0,0,0,.36-3.5c-.36-2.74-2.54-4.07-5-3.09a5.15,5.15,0,0,0-3.23,4.77c-.06,2.35-.24,5.08,2.19,6.76l0,0a38.35,38.35,0,0,0-.72,4.82,15.29,15.29,0,0,0,2.54,8.65c.55.8.64,1.24-.45,1.5a3.86,3.86,0,0,0-1.39.61c-2.1,1.59-3.66.65-5.28-.89a56.32,56.32,0,0,1-8.1-10c-.34-.5-.48-.8.05-1.41,1.36-1.56,1-3.11-1-3.62-2.27-.57-3.12-2-3.82-4-.79-2.18-1.67-4.32-2.33-6.54-.34-1.14,0-1.64,1.15-1.85,4.59-.8,9.17-1.37,13.76-.07a1.92,1.92,0,0,0,1.87-.51A9.21,9.21,0,0,0,68,46.24c3.31-6.52,8-11.68,14.91-14.4,10.62-4.18,23.58.29,30.31,10.16A35.78,35.78,0,0,1,119,58.62a16,16,0,0,0,1.81,5.95c1,1.76,2.6,2.6,4.27,3.43a1.32,1.32,0,0,0,1.14-.09c2-.93,4-1.81,5.44-3.61.68-.86,1.15-.72,1.48.3,1.11,3.44,2.21,6.89,3.38,10.31.32.92-.23,1.26-.8,1.61-2.1,1.32-4.16,2.73-6.36,3.89-5,2.61-10,5.06-15.56,6.38a1.7,1.7,0,0,0-.32.1c-2,.8-3.46.45-5-1.35a30.28,30.28,0,0,0-9-6.89c-1.08-.6-1.34-.93-.6-2.21,1.22-2.09,2.47-3.16,5.16-3.24a6.84,6.84,0,0,0,7-6.19c.24-1.67-.07-3.23-1.59-4.19s-3.11-1.3-4.73-.19h0c-.3,0-.59,0-.7.35l0,0a.69.69,0,0,0-.69.39l0,0a.5.5,0,0,0-.39.5c-.49.54-1,1.08-1.49,1.63-1,1.17-1.78,1.09-2.51-.27a1.37,1.37,0,0,1,.12-1.43,28.49,28.49,0,0,0,1.36-2.91c1-2.59.79-3.52-1.44-5.27a23.84,23.84,0,0,0-16.45-5.14,3.2,3.2,0,0,0-3,1.88c-.82,1.79-1.58,3.62-2.4,5.41C77,58.23,77.07,59.06,76.14,58.94Z"/><path class="cls-3" d="M80.32,27.32a1.11,1.11,0,0,1-1.22.94c-.62,0-1.24,0-1.86-.05a5.78,5.78,0,0,1-4-2,4.52,4.52,0,0,1-1.52-4c.19-1.73-.37-2.53-2.17-2.49a18.59,18.59,0,0,1-2.86-.34c-.28,0-.79.05-.59-.51s-.12-.85-.6-1-.67.31-.87.63c-.55.86-1.09,1.72-1.63,2.59-.25.4-.44.83.14,1.13.43.23.72.05,1-.28s.52-1.41,1.38-1.33c1.4.13,2.79.38,4.18.6a.43.43,0,0,1,.4.47c-.23,1.66.37,3.34-.58,5-.8,1.44,1,.6,1.45,1.14a2.25,2.25,0,0,1-2.4.31c-1.44-.7-2.84-.27-4.26-.28-.55,0-1.17.17-1.62-.28-.63-.62-.85-.2-1,.36-.26,1-1,1.14-1.85,1.12l-7-.21c-.59,0-1.34-.11-1.42-.69-.21-1.55-1.56-2.47-2-3.9-.24-.86.43-5.06,1.15-5.17,1.55-.23,2.49-1.72,3.5-1.94,1.44-.32,3.46-1.15,5,.54.61.67,2,.45,2.12,2.14C62,18.75,62.54,18,63,17.25c.69-1.13,1.78-1.34,2.53-.45,1.26,1.52,3,1.23,4.56,1.78s2.45.06,3.21-1.42c1-1.94,1.77-2,3.39-.54a2.41,2.41,0,0,0,1.66.64c1.23.09,2.47.2,3.71.36a.9.9,0,0,1,.85,1.07c-.16.72-.73.23-1.11.22-1.18-.06-2.36-.15-3.55-.23-.73-.05-1.54.19-1.71-1-.06-.46-.76-.7-1.17-.05-.64,1-1.25,2-1.85,3a.68.68,0,0,0,.19,1,.6.6,0,0,0,1-.3c.79-1.94,2.38-1.47,3.87-1.34a9.86,9.86,0,0,0,1.51.18c.93-.05,1.37.28,1.24,1.25a1.6,1.6,0,0,0,1.07,1.94c-.69.46-1.51.41-1.72,1.17l0,0c0-.74,0-1.47,0-2.2a1,1,0,0,0-.83-1.09,15.64,15.64,0,0,0-3.55-.18.66.66,0,0,0-.7.6c0,.43.26.58.63.63l2.35.26c.29,0,.59.05.61.43s-.26.48-.55.46c-.5,0-1.1.53-1.48-.27-.17-.35-.61-.53-.85-.27-.76.83-.46,1.93-.59,2.92-.06.49-.16,1.17.49,1.27,1.35.22,2.7.92,4.09.15Zm-24-3.58c.6,0,1.17-.06,1.73-.13s1.23-.18,1.84-.27,1.22-.2,1.14-1-.73-.51-1.2-.46-.69.17-.77-.34.27-.65.71-.67,1.11,0,1.12-.54c0-1.6-2.31-.34-2.46-1.93,0-.17-.73-.08-.9.39a.88.88,0,0,1,0,.17c-.41.72-.7,1.26-1.09-.06-.22-.78-.92-.81-1.34-.06a6,6,0,0,0-.61,1.75c-.1.51-.41,1.16.32,1.48s.85-.32,1.09-.74c.38-.66,1-.4,1.51-.34.34,0,.35.41.32.69-.07.65-.68.45-1,.62-.15.06-.34,0-.5.09-.53.14-1.47-.17-1.34.81S55.83,23.66,56.34,23.74Zm.84,4.63v.14h2.19c.46,0,1,0,1-.62s-.57-.58-1-.61c-.74-.05-1.47-.09-2.2-.11a3.08,3.08,0,0,1-3.29-3.09.79.79,0,0,0-.8-.87c-.54,0-1.19-.31-1.6.17s.34.86.33,1.08c-.09,1.21,1.47,1.56,1.38,2.44-.14,1.35.62,1.4,1.48,1.46S56.33,28.37,57.18,28.37Zm9.07-5.27c-.92.43-3-.67-2.55,1.69.18.95-.44,2.79,1.8,2.48,2.76-.38,2.93-.38,2.61-2.13C68,24.2,68.47,22.36,66.25,23.1Zm-7.63,4a1.05,1.05,0,0,1,.35,0c1.81.34,2.16-.78,2-2.16s-1.3-1-2.2-.88a3.41,3.41,0,0,1-.84.07c-1.44-.15-1.74.41-1.54,1.83S57.56,27.1,58.62,27.08Z"/><path class="cls-3" d="M21.15,45.91c0,1.77.3,2,2,1.59A3,3,0,0,0,25.46,46c1.14,3,1.16,3,4.06,1.42a55,55,0,0,0,4.73-3C43,38.3,52.74,36.76,63.13,38.69,65,39,65,39.05,64,40.76c-8.62-1.93-17-1.31-24.88,2.82a48.19,48.19,0,0,0-5.52,3.63,25,25,0,0,1-8.35,4,9.38,9.38,0,0,1-3.54.17c-1.79-.24-2.24-.72-2.63-2.63.44.22.87.45,1.32.64a3.91,3.91,0,0,0,.9.09c-.76-1.26-1.19-2.44-.13-3.57Z"/><path class="cls-3" d="M35.26,83.24a5.06,5.06,0,0,1-5.56.07c.38-2,1.86-2.7,3.62-2.92.78-.1,1.83-.36,2.35.35S35.82,82.47,35.26,83.24Z"/><path class="cls-3" d="M41.59,88.58l-3-2.49.37-.71,0,0a1.06,1.06,0,0,0,1-.51c.12-.15.11-.53.51-.09,1.11,1.23,2.42,1.9,4.11,1a2.86,2.86,0,0,1,2.11-.31L45,87.68A4.2,4.2,0,0,1,41.59,88.58Z"/><path class="cls-3" d="M36.17,74.71c1.26-.9.85-1.86.1-2.86a3.08,3.08,0,0,1,2,0A1.82,1.82,0,0,0,37.67,74a2.43,2.43,0,0,0,1.6,1c.61.17,1.13.18,1.26-.62s-.36-.76-.91-.81c-1.74-.18-.32-1.12-.48-1.74.45.6.5,1.38,1.59,1.3.85-.06.49.83.49,1.33,0,.8-.47,1.32-1.27,1.22-1.1-.14-2.18-.42-3.26-.63Z"/><path class="cls-3" d="M80.66,24.59c-.22.9.12,1.87-.34,2.73h0c.15-1,.25-2-1.28-1.16a1.72,1.72,0,0,1-.82.07c-.37,0-.85.07-.9-.5s.41-.68.88-.69a5,5,0,0,0,2.46-.43Z"/><path class="cls-3" d="M37.84,85.44l-1.32-1c1.16-.56,2.19-.8,2.38,1l0,0Z"/><path class="cls-3" d="M47.69,83.74l-.48.73C47,84,47.19,83.76,47.69,83.74Z"/><path class="cls-3" d="M47.19,84.48l-.46.76C46.73,84.89,46.71,84.53,47.19,84.48Z"/><path class="cls-2" d="M68.13,109.54h4.18c.51,0,1.14-.05,1.19.63,0,.84-.66.76-1.21.78s-1,0-1.53,0c-.92,0-.49.73-.48,1.14,0,.68.47.42.84.33.74-.17,1.72-1.35,2.16-.22s-1.13,1.18-1.84,1.68a6.09,6.09,0,0,1-.78.33c-.47.22-.39.65-.36,1s.35.66.82.64.81-.12.91-.59S72,114,73,114c.55,0,.68.52.65,1,0,.83.16,1.84-.92,2.13a6.66,6.66,0,0,1-3.2,0c-.75-.19-.78-.86-.78-1.52,0-1.51,0-3,0-4.55-.89,0-.67.57-.67,1,0,1.81,0,3.62,0,5.43,0,.63-.16,1.17-.92,1.12s-.73-.57-.73-1.12c0-2.12,0-4.23-.21-6.36-.77.79-.4,1.72-.47,2.58s0,1.47,0,2.2.24,1.36-.52,1.64-.93-.36-1.12-.93-.55-.15-.84-.09c-.49.11-1,.26-1.48.33s-.94-.1-1-.64.35-.65.74-.75c.66-.18,1.31-.36,2-.52a.8.8,0,0,0,.65-1c-.09-.59-.57-.39-.93-.46-.75-.15-2.08.46-2.09-.71s1.33-.56,2.08-.74c.35-.09.89.08.91-.49,0-.74-.62-.42-1-.51-.79-.2-2.24.53-2.22-.73s1.46-.59,2.28-.7c1-.14,2.12.15,3.4-.28-1.31-.47-2.42-.12-3.5-.21-.46,0-1,0-1-.63s.51-.76,1-.79a76,76,0,0,0,8.12-.57c.46-.08,1-.09,1.1.49s-.41.84-1,.92L68.1,109Z"/><path class="cls-2" d="M79.89,109H76.74c-.51,0-1.14,0-1.12-.72s.61-.72,1.14-.73a58,58,0,0,0,8.12-.53c.49-.07,1,0,1,.59s-.43.72-.88.83c-1.1.28-2.29.1-3.79.75a18.29,18.29,0,0,0,4.51.28c.53,0,1.31-.19,1.35.62s-.79.74-1.37.77-1.24,0-1.85,0c-.16,1.39.11,2.07,1.54,1.18.52-.32,1.2-.76,1.58.09s-.43.94-.89,1.19-1.14.49-1.71.74-.49.69-.44,1.16.33.56.71.56.83-.06,1-.5c.19-.59,0-1.53,1-1.32.66.13.57.74.56,1.25,0,.88-.06,1.78-1.19,1.92a15.61,15.61,0,0,1-2.37.06c-1,0-1.39-.57-1.36-1.56,0-1.56,0-3.13,0-4.71-.9,0-.68.61-.68,1,0,1.81,0,3.62,0,5.42,0,.63-.11,1.22-.84,1.21s-.82-.62-.82-1.24c0-1.7,0-3.4,0-5.09,0-.44.27-1-.64-1.38,0,1.81,0,3.51,0,5.21,0,.55.17,1.22-.57,1.42s-.87-.27-1-.84-.49-.31-.82-.23c-.55.12-1.1.26-1.66.34a.7.7,0,0,1-.9-.55c-.11-.52.27-.7.66-.81.66-.19,1.32-.31,2-.49a.83.83,0,0,0,.7-1c-.08-.53-.48-.49-.87-.56-.77-.14-2.12.5-2.15-.61,0-1.33,1.38-.64,2.17-.77.5-.08,1-.14.9-.73s-.62-.21-1-.31c0,0-.11,0-.16,0-.76-.24-2.19.63-2.17-.73,0-1.15,1.36-.56,2.12-.63,1.08-.1,2.18,0,3.27,0Z"/><path class="cls-2" d="M25.68,91.86a3.08,3.08,0,0,1,2.33,0,4.84,4.84,0,0,1,.64,5,14,14,0,0,1-1.77,3.46c-1.37,2-1.49,2.09-3.56.84a9,9,0,0,1-4.25-4.66c-.42-1.18-.48-2.4.66-3.23a2.39,2.39,0,0,1,3.13.24c.66.56,1,.49,1.44-.15A13.65,13.65,0,0,1,25.68,91.86ZM21,94.58c0-.49-.15-.92-.59-.91-.59,0-.8.53-.8,1.07s.14.83.61.82C20.82,95.55,20.93,95,21,94.58Z"/><path class="cls-2" d="M116.43,149.92c-.12,2-1.28,3.58-2.5,5.15a.68.68,0,0,1-.9.18,7.43,7.43,0,0,1-4.35-4.46,1.89,1.89,0,0,1,.64-2.27,1.67,1.67,0,0,1,2.2.11c.74.7,1.09.34,1.58-.22s1.37-1.29,2.36-.79S116.42,148.94,116.43,149.92Z"/><path class="cls-2" d="M125.51,149c0,1.44-2.81,4.3-4.31,4.39a1,1,0,0,1-.6-.2c-1.21-.81-2.27-4-1.84-5.41s1.93-1.85,2.79-.59c.63.93,1.1.71,1.89.45C124.75,147.19,125.53,147.76,125.51,149Z"/><path class="cls-2" d="M37.2,98.41c-.12,1.57-2.73,4.23-4.12,4.39,0,0-.12,0-.15,0-1.57-.91-2-2.5-2.42-4.07s.71-1.88,1.55-2.47a.73.73,0,0,1,.95.12c.66,1.1,1.41,1.1,2.57.67S37.2,97.51,37.2,98.41Z"/><path class="cls-2" d="M39.72,97.72c0-1,1.16-1.91,1.89-1.37a1.84,1.84,0,0,0,1.91.31c.92-.28,1.35.32,1.26,1.25a5.35,5.35,0,0,1-2.91,3.1c-.41.08-.62-.16-.85-.41A5.43,5.43,0,0,1,39.72,97.72Z"/><path class="cls-2" d="M82.1,149.05c.82-.06,2.17-.19,1.69.69s.24,1,.31,1.39.18.81-.33.9a16.71,16.71,0,0,1-1.78.23c-1.36.06-2-1.11-1.73-2.47S81.59,149.38,82.1,149.05Z"/><path class="cls-3" d="M99.63,149.53c1.1-.11,1.81-.09,1.85,1.21,0,1.53-1.08,1.29-1.89,1.43-.58.11-1.07-.37-.74-.92S96.82,148.54,99.63,149.53Z"/><path class="cls-3" d="M76.17,151.85c-.63-2.07.27-2.83,2.11-2.57s.72,1.66,1,2.59A5,5,0,0,0,76.17,151.85Z"/><path class="cls-3" d="M55.2,149.53c1.33,0,2.12,1.16,1.41,2.27-.23.36-1.23.45-1.8.33s-.57-.67-.05-1.07c.32-.26.18-.44-.12-.62s-1.07.28-.78-.62S54.78,149.75,55.2,149.53Z"/><path class="cls-3" d="M60.42,149.29A1.74,1.74,0,0,1,62,151.92c-.25.51-.83-.63-1.14.13-.49-.21,0-.35,0-.5.24-.48.2-.94-.37-1-1.07-.18,0,.58-.31.82a3,3,0,0,0-.53.79c0-.34-.66-.34-.45-.92S58.66,149.12,60.42,149.29Z"/><path class="cls-3" d="M75.16,152c-.48.85.1-1.85-.73-.21-.22.42-.88.15-1.35-.15-.79-.53,0-1.36-.42-1.94.79.29,1.19-.81,2.06-.53.71.23.49.8.43,1.06C75,150.88,75.56,151.45,75.16,152Z"/><path class="cls-3" d="M69.68,150.5c.74,1.17-.35,1.29-1,1.59-.41.19-1.1.43-.8-.59.07-.23-.15-.53-.16-.8,0-.47-1.39-.14-.63-1s1.51-.11,2.27-.16S70,150,69.68,150.5Z"/><path class="cls-3" d="M90.86,151.94c.82-.29.66-.81.39-1.43-.17-.39-.33-.86.27-1.12s1.53-.23,1.55.2c.05.73.9,1.5.2,2.16a1.57,1.57,0,0,1-2.38.16Z"/><path class="cls-2" d="M86.91,149.29c.3.13,1.42-.45,1.12.56-.24.82.3,2-.82,2.49a8.54,8.54,0,0,1-1.93-2.46C85.47,149,86.16,149.24,86.91,149.29Z"/><path class="cls-3" d="M95.7,152c-1-.08-1.49-.41-1.34-1.34.08-.54.16-1.22.88-1.09s1.86.42,1.85,1.48C97.09,151.84,96.24,152,95.7,152Zm-.13-1.73c-.09.05-.23.08-.25.14a.73.73,0,0,0,.07.31l.36-.27Z"/><path class="cls-3" d="M49.06,150.06c-.89-.15-1.84-.67-2,.84,0,.45-.14.77-.6.86s-.39-.28-.34-.45c.14-.51-.62-1.13,0-1.5A2.4,2.4,0,0,1,49.06,150.06Z"/><path class="cls-3" d="M52.71,150.78h-2.9A3.22,3.22,0,0,1,52.71,150.78Z"/><path class="cls-3" d="M65.83,150.78H62.89A3.3,3.3,0,0,1,65.83,150.78Z"/><path class="cls-3" d="M90.89,151.91c-.56.06-.54-.28-.46-.65,0-.07.15-.12.23-.17.06.28.13.57.2.85Z"/><path class="cls-2" d="M104.11,63a.59.59,0,0,1-.69.39A.69.69,0,0,1,104.11,63Z"/><path class="cls-2" d="M104.79,62.63a.71.71,0,0,1-.7.35C104.2,62.62,104.49,62.6,104.79,62.63Z"/><path class="cls-2" d="M103.45,63.32c0,.28-.19.39-.39.5A.5.5,0,0,1,103.45,63.32Z"/><path class="cls-2" d="M89.84,75.9c-.6-1.81-2.32-1.85-3.74-2.29a3.71,3.71,0,0,0-2-.06,3.62,3.62,0,0,1-3.52-.66c-.32-.26-.87-.56-1.18,0-.7,1.23-2.16,2-2.1,3.7-1.05-.42-1.05-1.46-1.36-2.32-.94-2.56-.57-5.22-.64-7.85,0-.36.33-.56.61-.75.29,3,.29,3,2.95,3.07.75.84,1.29,2.06,2.65,1.93s1.26-1.94,2.33-2.71c.77,1.16-.31,2.84.64,3.51a3.91,3.91,0,0,0,3.6.08c1.58.36,3.21,1.1,4.53-.57A10,10,0,0,1,89.84,75.9Z"/><path class="cls-3" d="M92.6,71c-1.32,1.67-2.95.93-4.53.57,1-1.23-.06-2.43,0-3.65,1.06-.38,2.36-.12,3.16-1.2h0c.35.12.62.09.7-.35l0,0c.34.1.63.08.7-.36l0,0a.42.42,0,0,0,.54-.36l0,0h.88A20.35,20.35,0,0,0,92.56,71Z"/><path class="cls-3" d="M78.85,68.73c-2.66-.06-2.66-.06-2.95-3.07v0c.63-.33.47-.87.35-1.39v0c.55-.2.48-.61.35-1v0c.74-.19.55-1.32,1.41-1.38h0c0,.26,0,.43.34.38l0,0c-.07,1.09.32,1.78,1.54,1.76l.48.46c-.4.67.43,1,.46,1.54C80.21,67,78.8,67.35,78.85,68.73Z"/><path class="cls-3" d="M90.09,62.2c0-1.78,1.36-3.63,2.51-3.51,1,.11,1.21.89,1.23,1.72,0,1.57-1.38,3.4-2.54,3.3S90.12,62.85,90.09,62.2Z"/><path class="cls-3" d="M83.1,58.38c-.19,1.1-.34,2.47-1.8,2.56C80,61,79.93,59.8,80,58.84c.07-1.21.37-2.54,1.84-2.58C82.93,56.23,83,57.37,83.1,58.38Z"/><path class="cls-3" d="M93.66,54.66a5.58,5.58,0,0,1,3.39,2.21.93.93,0,0,1,0,1.25,1.1,1.1,0,0,1-1.34.45,8.81,8.81,0,0,1-3.15-2.22,1,1,0,0,1-.19-1.24A1.33,1.33,0,0,1,93.66,54.66Z"/><path class="cls-3" d="M82.94,52.46c.75.15,1.75-.11,1.88,1s-.8,1.07-1.48,1.29l-.16,0c-.91.22-1.85.74-2.73,0a.89.89,0,0,1-.21-1.22C80.89,52.55,82,52.67,82.94,52.46Z"/><path class="cls-2" d="M80.76,66.05c0-.55-.86-.87-.46-1.54a11.41,11.41,0,0,0,10.9,2.18c-.8,1.08-2.1.82-3.16,1.2-2.41-.14-4.78-.43-6.8-1.94C81.15,65.88,80.92,66,80.76,66.05Z"/><path class="cls-2" d="M103.53,68.48A2.67,2.67,0,0,1,106,66.2c.51-.06,1.06.06,1.21.67a1,1,0,0,1-.81,1.25C105.51,68.3,104.57,68.35,103.53,68.48Z"/><path class="cls-2" d="M92.56,71a20.35,20.35,0,0,1,1.37-5.31c.41.24.83.47.64,1.06l0,0c-1,.2-.61,1.17-.92,1.75C93.24,69.26,93.3,70.29,92.56,71Z"/><path class="cls-2" d="M78,61.94c-.86.06-.67,1.19-1.41,1.38,0-.48,0-1,0-1.44s.44-.59.83-.62S78.16,61.4,78,61.94Z"/><path class="cls-2" d="M79.82,64.05c-1.22,0-1.61-.67-1.54-1.76C79,62.69,79.27,63.49,79.82,64.05Z"/><path class="cls-2" d="M84.9,63.07h1.77C86.25,63.59,85.81,63.45,84.9,63.07Z"/><path class="cls-2" d="M93.94,65.68h-.89c.11-.31.26-.6.66-.5A.35.35,0,0,1,93.94,65.68Z"/><path class="cls-2" d="M87.73,61.24l0,.77c-.31,0-.11-.26-.13-.39a1.11,1.11,0,0,1,.07-.39Z"/><path class="cls-2" d="M76.24,64.31c.12.52.28,1.06-.35,1.39A1.19,1.19,0,0,1,76.24,64.31Z"/><path class="cls-2" d="M77.6,76.89c.55-.09.75.18.71.7C77.6,77.83,77.55,77.41,77.6,76.89Z"/><path class="cls-2" d="M76.58,63.3c.13.43.2.84-.35,1C76.08,63.9,76.1,63.52,76.58,63.3Z"/><path class="cls-2" d="M92.56,66c-.07.44-.36.46-.7.36C92,66,92.24,66,92.56,66Z"/><path class="cls-2" d="M94.57,66.73c.22,0,.28.08.27.26s0,.09-.08.13l-.16-.42Z"/><path class="cls-2" d="M91.88,66.35c-.08.44-.35.47-.7.35C91.29,66.34,91.57,66.32,91.88,66.35Z"/><path class="cls-2" d="M87.27,62.66s.07.08.06.11-.06.06-.09.08a.23.23,0,0,1-.07-.11S87.24,62.69,87.27,62.66Z"/><path class="cls-2" d="M77.26,76.54c.3-.05.48,0,.37.37C77.25,77.05,77.24,76.81,77.26,76.54Z"/><path class="cls-2" d="M78.31,62.31c-.32,0-.38-.12-.34-.38C78.29,61.87,78.32,62.08,78.31,62.31Z"/><path class="cls-2" d="M89.49,76.24c-.1-.35,0-.52.37-.37C89.84,76.1,89.74,76.25,89.49,76.24Z"/><path class="cls-2" d="M93.07,65.67a.42.42,0,0,1-.54.36A.48.48,0,0,1,93.07,65.67Z"/><path class="cls-3" d="M55.22,43.34c.24-.61,1-.11,1.06-.74s-1-.09-1.06-.76a4.88,4.88,0,0,1,2.86-.05c-.59.34-.19.73-.29,1.23-.17.85.28,1.38.57,2.22-2.1.17-4.09-.07-6,.35-.73.15-.86-.19-.83-.91a3.17,3.17,0,0,0,0-1.7c-.32-.72.2-1.07.93-1.19,1-.17.77-.1,1.3.73s.85,1.31.32,2.12c-.24.36.06.63.27.57.69-.22,1.62-.38,2-.9C56.77,43.53,55.55,43.66,55.22,43.34Zm-2.45,0v.11l.62,0Zm1,.86c-.1-.16-.15-.29-.19-.29a4.7,4.7,0,0,0-.63.13c0,.07.09.21.13.21C53.3,44.3,53.51,44.27,53.78,44.25Z"/><path class="cls-3" d="M27,54.16a1.44,1.44,0,0,1,1.19-1.93c.68-.13,2.26,2,2.14,3s-1.18.82-1.88.89C27.14,56.22,27,56,27,54.16Z"/><path class="cls-3" d="M46.38,46.07c-.54.44-.41,1.31-1.31,1.42s-.81-.59-1-1a3.63,3.63,0,0,1-.37-1.11c-.08-.51-.85-1.13.1-1.55s1.51.45,2.18.89C45.15,45.41,46.41,45.59,46.38,46.07Z"/><path class="cls-3" d="M43.61,47.67c-2.45.7-3.3.25-3.73-1.7-.1-.43.14-.65.54-.63.8,0,1.87-.61,2.2.72C42.76,46.63,42.49,47.34,43.61,47.67Z"/><path class="cls-3" d="M31.72,50.59a6.81,6.81,0,0,1,1.75,2.52,1.27,1.27,0,0,1-1.31,1,1.69,1.69,0,0,1-1.71-1.7C30.38,51.73,30.32,50.64,31.72,50.59Z"/><path class="cls-3" d="M47.9,46.3a3.18,3.18,0,0,1,.54-3.42c.59-.77,1.19.17,1.69-.27a4.06,4.06,0,0,1,.19,2.21c-.48-.19-1-.41-1.44-.56a.63.63,0,0,0-.74.26.68.68,0,0,0,.11.77C48.63,45.79,48.62,45.8,47.9,46.3Z"/><path class="cls-3" d="M60.36,45.4a2.84,2.84,0,0,0-1.85-2.48c1.42.13,2-.27,1.94-1.14.89-.88-.32,2.79,1.22.39.15-.24,0,.11.1.14-.79.43.77,1,0,1.27S60.64,44.61,60.36,45.4Z"/><path class="cls-3" d="M24.82,56.83c-.79,0-.22-1-.87-1.31-.48-.22.17-.26.32-.33.41-.2.53-.52.09-.69-.93-.36-.09-.72,0-1,.27-.58.45.11.7.14,1.23.16.13.42,0,.65s.06.53.38.52.78.16.33.5S25.9,56.85,24.82,56.83Z"/><path class="cls-3" d="M36.19,48.1l.77-1c.95.88,1.08,2.08,1.36,3.23C37.43,49.83,37.39,48.53,36.19,48.1Z"/><path class="cls-3" d="M39.46,47.53c-.85.85.62,1.58.07,2.39C38,48.06,38,47.9,39.46,47.53Z"/><path class="cls-3" d="M33.75,51c-.26-.42-1-.78-.31-1.27s1.13-1.15,2-.95a.68.68,0,0,1,.35.53c0,.61-.31.09-.5.11A1.47,1.47,0,0,0,33.75,51Z"/><path class="cls-3" d="M34.93,52.78c-.14-.16-.34-.3-.41-.48s.09-.28.34-.31a1.37,1.37,0,0,0,1.38-.94c.08-.3.29-.39.45-.3a.5.5,0,0,1,.21.71A5.73,5.73,0,0,1,34.93,52.78Z"/><path class="cls-2" d="M18.92,51.47c.31,0,.49.12.48.38s-.13.36-.17.36c-.27,0-.55-.12-.56-.45C18.67,51.65,18.85,51.54,18.92,51.47Z"/><path class="cls-3" d="M22,45.74a.55.55,0,0,1,.78-.24l-.82.21Z"/><path class="cls-3" d="M22,45.71l-.84.2,0,0,.84-.2Z"/><polygon class="cls-3" points="59.02 44.83 58.91 44.78 58.9 44.81 59.02 44.83"/><path class="cls-3" d="M34.44,51.57l-.12.2s-.11-.08-.1-.11a2,2,0,0,1,.1-.21Z"/><path class="cls-3" d="M43.31,70.86c-1.09-.86-2.24-.37-3.32-.25-.61.07-.94.13-.69-.51s0-1.36.29-1.78c.73-1-.17-.9-1.07-1.39,1.27.18,1.77-.48,2.59-.69,1.94-.5,2,1,2,1.78A13.17,13.17,0,0,1,43.31,70.86Z"/><path class="cls-3" d="M32.42,66.4a7.92,7.92,0,0,1,4.41.44c.26.13.77.18.2.78-.27.28-1,1.21-.14,1.91.06,0,0,.35-.1.45-1,1.06-2.33.69-3.48.54s-.71-1.41-.46-1.79c.71-1-.75-1.52-.4-2.37Z"/><path class="cls-3" d="M47.37,72.1l-2.14.11c2.63.44,0,2.51,2,3.36-.82,0-1.17.08-1.22,0-.9-1.57-1.78-1.12-2.71,0-.11.13-.41.13-.63.14s-.17-.11-.36-.24l1.56-1.08c-.86-.15-1.35-.4-1.21-1.18.17-.93,1-.43,1.5-.79-.53-.54-1.34.09-2-.58A7.46,7.46,0,0,1,47.37,72.1Z"/><path class="cls-3" d="M50.35,75.31c1-.44,2.45.38,2.21-1.32-.06-.49.33-1.17-.55-1.36-1.09-.25-1.64.27-1.9,1.45-.14-1.26-.92-1.61-2.16-1.61.81-.61,1.93,0,2.06-1.21,0-.19.43-.08.45.17.08.95.79.56,1.28.66s1.42-.34,1.51.6.37,2-.35,2.75S51.39,75.75,50.35,75.31Z"/><path class="cls-3" d="M52.77,78.73a4.37,4.37,0,0,0-1.36,0c-1.33.49-1.4-.26-1.31-1.23,0-.31-.13-.73.33-.82s.53.24.74.53c.49.67.89.65,1-.26A3.66,3.66,0,0,0,52.77,78.73Z"/><path class="cls-2" d="M80.68,24.62a5,5,0,0,1-2.46.43c-.47,0-1,0-.88.69s.53.48.9.5a1.72,1.72,0,0,0,.82-.07c1.53-.8,1.43.15,1.28,1.16-1.39.77-2.74.07-4.09-.15-.65-.1-.55-.78-.49-1.27.13-1-.17-2.09.59-2.92.24-.26.68-.08.85.27.38.8,1,.24,1.48.27.29,0,.57-.09.55-.46s-.32-.4-.61-.43l-2.35-.26c-.37-.05-.68-.2-.63-.63a.66.66,0,0,1,.7-.6,15.64,15.64,0,0,1,3.55.18,1,1,0,0,1,.83,1.09C80.73,23.15,80.7,23.88,80.68,24.62Z"/><path class="cls-2" d="M56.34,23.74c-.51-.08-1.37.44-1.5-.5s.81-.67,1.34-.81c.16-.05.35,0,.5-.09.37-.17,1,0,1-.62,0-.28,0-.65-.32-.69-.52-.06-1.13-.32-1.51.34-.24.42-.39,1.05-1.09.74s-.42-1-.32-1.48a6,6,0,0,1,.61-1.75c.42-.75,1.12-.72,1.34.06.39,1.32.68.78,1.09.06a.88.88,0,0,0,0-.17c.17-.47.88-.56.9-.39.15,1.59,2.5.33,2.46,1.93,0,.51-.67.52-1.12.54s-.8.1-.71.67.43.37.77.34,1.12-.32,1.2.46-.56.87-1.14,1-1.22.2-1.84.27S56.94,23.7,56.34,23.74Z"/><path class="cls-2" d="M57.18,28.37c-.85,0-1.69,0-2.53,0S53,28.25,53.17,26.9c.09-.88-1.47-1.23-1.38-2.44,0-.22-.69-.65-.33-1.08s1.06-.21,1.6-.17a.79.79,0,0,1,.8.87,3.08,3.08,0,0,0,3.29,3.09c.73,0,1.46.06,2.2.11.44,0,1,0,1,.61s-.53.62-1,.62H57.18Z"/><path class="cls-2" d="M66.25,23.1c2.22-.74,1.7,1.1,1.86,2,.32,1.75.15,1.75-2.61,2.13-2.24.31-1.62-1.53-1.8-2.48C63.23,22.43,65.33,23.53,66.25,23.1ZM66.63,25c.08-.58-.28-.68-.81-.65s-.71.33-.68.86.28.64.75.62S66.75,25.7,66.63,25Z"/><path class="cls-2" d="M58.62,27.08c-1.06,0-2,.39-2.23-1.15s.1-2,1.54-1.83a3.41,3.41,0,0,0,.84-.07c.9-.1,2-.59,2.2.88s-.19,2.5-2,2.16A1.05,1.05,0,0,0,58.62,27.08Z"/><path class="cls-2" d="M109.54,22.37c.18-.67-.09-1.46,1-1.8.41-.14.59-.52.74.16s.5.55.87.11,2.67.05,2.73.44a6.56,6.56,0,0,1-.15,3.49.91.91,0,0,1-1.43.33c-.43-.56-.93-.06-1.36-.4l.73-1c-2.16-1.11-1,1-1.61,1.51-.8-.09,0-1.5-1.17-1.47-.31,0,.37-.44.56-.71s.33-.69.07-.91S110.16,22.63,109.54,22.37Z"/><path class="cls-2" d="M102,23c.32,1.57-.21,2.21-1.85,2a2.7,2.7,0,0,1-2.44-2.76c0-1.65,2-.92,2.41-2.05.4.55,1.1.57,1.6.9C102.39,21.61,101.83,22.44,102,23Z"/><path class="cls-2" d="M103.65,25.39c-.38-1,.35-1.34.44-1.94.06-.4.07-.43-.55-.59-.42-.11-.32-.39-.24-.65.3-.93.33-1.73,1.94-1.54a19.48,19.48,0,0,0,3.31.38c-.29.86-1.14.18-1.42.79.08.8,1,.13,1.27.65-.24.65-1,.1-1.27.6.07.85,1,.17,1.36.82-.84.1-1.64.28-2,1.25v-3c-2.38.1-1.75,1.09-.66,2.3C104.79,24.1,104,24.12,103.65,25.39Z"/><path class="cls-2" d="M94.28,21.76c.32.69,1,.15,1.37.59-.18.72-1.1,0-1.34.69.22.77,1.22,0,1.51.81-.84.12-1.83.1-2,1.33v-5a3,3,0,0,0,1.94.72C95.48,21.79,94.6,21.1,94.28,21.76Z"/><path class="cls-2" d="M92,23.11c-.39-.64-1-.2-1.33-.67.22-.59,1.13,0,1.28-.68-.24-.58-1.12,0-1.37-.73.6-.34,1.51.1,1.88-.84.25,1.59.57,3.07-.38,4.41-.18.26-.53.61-.74.58-.59-.09.1-1.09-.72-1.22-.08,0,.28-.37.52-.48Z"/><path class="cls-2" d="M76.89,83.3c.23-.19.46-.36.78-.24l0,0a.64.64,0,0,1-.78.24Z"/><path class="cls-2" d="M77.67,83.06c-.14-.28.07-.34.27-.4l0,0c.19.31-.09.32-.27.4Z"/><path class="cls-2" d="M76.86,83.27v.28c-.27-.11,0-.16,0-.24Z"/><path class="cls-3" d="M27.35,14.41c5.7-5.64,16.34-2.68,19,5.29a11.8,11.8,0,0,1-4.32,13.48l-.32-.32c.33-.3.68-.59,1-.9a11.06,11.06,0,0,0,3.32-11.1,11.1,11.1,0,0,0-8-8.33c-3.86-1.2-7.34-.18-10.53,2.09Z"/><path class="cls-3" d="M24.91,30.11c-3.54-4.85-2.35-12.51,2.44-15.7l.21.21A11.73,11.73,0,0,0,25.23,29.8Z"/><path class="cls-3" d="M42.05,33.18a11.67,11.67,0,0,1-15.44-1l.28-.33c5,4,9.39,4.25,14.84,1Z"/><path class="cls-3" d="M26.26,31.81a3.48,3.48,0,0,1-1.35-1.7l.32-.31,1.36,1.73Z"/><path class="cls-3" d="M26.61,32.16l-.35-.35.33-.28.3.3Z"/><path class="cls-2" d="M72.18,59a7.9,7.9,0,0,0-1.3-2.32,1.09,1.09,0,0,1,.29-1.85c.76-.39,1.32.15,1.61.8A3.1,3.1,0,0,1,72.18,59Z"/><path class="cls-2" d="M37.84,85.44l1.08-.06-.37.71A1,1,0,0,1,37.84,85.44Z"/><path class="cls-2" d="M79,169.05c-.68,0-1.36,0-2,0-1.18-.05-.27-1.05-.67-1.53s.28-.15.41-.3.34-.15.37-.25c.25-1.13.25-1.13,1.36-1.13h1.86c.68,0,1.61-.12.76,1-.13.17-.14.3,0,.3,1.67-.1.49,1.09.47,1.4-.06.88-1,.45-1.5.54a6.81,6.81,0,0,1-1,0Z"/><path class="cls-2" d="M78.87,165.57c-.67,0-1.35,0-2,0-.36,0-.84.06-.87-.54s.5-.46.84-.5a19.05,19.05,0,0,1,4.27,0c.24,0,.73-.25.69.27,0,.33-.13.79-.7.77C80.34,165.55,79.61,165.57,78.87,165.57Z"/><path class="cls-2" d="M58.29,168.73c-1.18,1-2.44-.65-3.63.33-.17.14-.13-.72-.59-1-.84-.53.31-1.51-.34-2.17.35-.12.73-.85.88-.51s1.06,0,.87.83c-.12.53.29,1.1.18,1.71a.58.58,0,0,0,.66.6c.47,0,.53-.33.52-.69s0-1-.07-1.49c0-.14-.54-.17-.13-.38a1.6,1.6,0,0,1,.82,0c.32,0,.18.17.13.41C57.38,167.25,57,168.31,58.29,168.73ZM54.85,166s-.09-.1-.11-.1a.81.81,0,0,0-.21.1s.07.1.1.09A.79.79,0,0,0,54.85,166Z"/><path class="cls-2" d="M92.88,165.48c-.68,1.13-2.2,1.78-1.37,3.3a8.57,8.57,0,0,1-1.86.25c-.82-.07-1.86-2-1.53-3s1.14-.74,1.95-.62A19.91,19.91,0,0,0,92.88,165.48Z"/><path class="cls-2" d="M67.86,169.19c-2.47,0-2.52,0-2.5-2.44,0-1.13,1.15-1.37,1.87-1.44,1.66-.16,2.51,1,2.48,3C69.69,170,68.34,168.77,67.86,169.19Z"/><path class="cls-3" d="M66.63,25c.12.66-.22.81-.74.83s-.72-.11-.75-.62.08-.84.68-.86S66.71,24.46,66.63,25Z"/><path class="cls-2" d="M26.89,31.83l-.3-.3L25.23,29.8a11.73,11.73,0,0,1,2.33-15.18c3.19-2.27,6.67-3.29,10.53-2.09a11.1,11.1,0,0,1,8,8.33A11.06,11.06,0,0,1,42.73,32c-.32.31-.67.6-1,.9C36.28,36.08,31.88,35.78,26.89,31.83ZM37.2,20.23l-.05,0c0,.6-.33.67-.84.77-1,.21-1,.72-.16,1.62-.27.57-.55,1.19.22,1.54,1,.45.62.82-.06,1s-1,.46-.65,1.15c.2,1.1.89.53,1.42.4,2.18-.55,2.18-.56,2.35,1.57a1,1,0,0,0,0,.16v.14c-.06,1,.68.83,1.26.8s.43-.61.54-1c.23-.86-.54-1.9.45-2.63a.13.13,0,0,1,.06.2c.43,1.41,1.54,1,2.47.84.68-.16,1-.72.45-1.41a.63.63,0,0,1-.1-.3c-.16-.68.45-1.63-.71-1.93l-.07.1.07-.1c0-.21-.16-.47.18-.51.5-.06,1,0,.94-.8s-.53-.89-1.16-.88-1.56,0-2.36,0c.3-1,3,.27,1.51-2-1.92-.42-3.8.17-5.71.22-.5,0-.44.38-.39.72Zm-10.53,0h-.06c0,.43-.12.68-.64.75-1.56.2-1.17.89-.34,1.63-.66,1,.25,1.29.66,1.94.51.83-1.93.35-1.15,1.76.52,1.49,1.49.37,2,.18,1.38-.48,1.86-.18,1.68,1.26a2.56,2.56,0,0,0,.09.66.37.37,0,0,1,0,.18c-.06,1,.68.81,1.25.79s.44-.6.54-1c.23-.87-.52-1.9.45-2.63a.13.13,0,0,1,.07.19c.42,1.41,1.54,1,2.46.84.68-.16,1-.72.45-1.41a.67.67,0,0,1-.1-.31c-.17-.66.45-1.62-.71-1.92l-.07.1.08-.1c0-.2-.18-.49.16-.51.64,0,1.12-.14.93-.95s-.72-.73-1.3-.73H31c.31-1,3,.26,1.49-2-1.92-.39-3.8.17-5.71.23-.52,0-.42.4-.38.73Z"/><path class="cls-3" d="M35.66,26.3a9,9,0,0,0,3.86-1.25c-1.37-.4-1.28-1.34-1.24-2.26,0-.43,0-.79.6-.82s.69.41.68.88c0,1.86-.05,3.72-.08,5.58a1,1,0,0,1,0-.16c-.17-2.13-.17-2.12-2.35-1.57C36.55,26.83,35.86,27.4,35.66,26.3Z"/><path class="cls-3" d="M25.14,26.3A8.93,8.93,0,0,0,29,25c-1.4-.37-1.29-1.32-1.25-2.24,0-.41,0-.8.58-.83s.72.36.71.86c0,1.86-.06,3.71-.09,5.57a2.56,2.56,0,0,1-.09-.66c.18-1.44-.3-1.74-1.68-1.26C26.63,26.67,25.66,27.79,25.14,26.3Z"/><path class="cls-3" d="M29,28.58c.79.37,1.13.13,1.11-.76,0-1.63,0-3.27,0-4.9,0-.44-.09-1,.62-.93s.5.5.51.88c0,1,0,1.92,0,2.88-1,.73-.22,1.76-.45,2.63-.1.39.16,1-.54,1S28.91,29.59,29,28.58Z"/><path class="cls-3" d="M39.49,28.57c.8.38,1.13.13,1.11-.75,0-1.64,0-3.27,0-4.91,0-.44-.07-1,.63-.93s.51.5.52.88c0,1,0,1.92,0,2.88-1,.73-.22,1.77-.45,2.63-.11.39.15,1-.54,1S39.43,29.59,39.49,28.57Z"/><path class="cls-3" d="M33.39,23.14c-.42-.07-1,.07-1-.64s.46-.52.85-.55.59,0,.56-.44-.34-.4-.61-.4H30.85c-.34,0-.71,0-.76-.45s.27-.61.68-.76c.6-.23,1.77.53,1.71-.92C34,21.22,31.3,20,31,21h2.19c.58,0,1.14,0,1.3.73s-.29.92-.93.95C33.21,22.65,33.35,22.94,33.39,23.14Z"/><path class="cls-3" d="M43.91,23.14c-.41-.07-1,.08-1-.63s.45-.53.85-.56.58,0,.56-.43-.33-.41-.61-.41H41.38c-.33,0-.71,0-.77-.44s.26-.61.68-.77c.6-.22,1.76.51,1.73-.91,1.48,2.25-1.21,1-1.51,2,.8,0,1.58,0,2.36,0s1.08.16,1.16.88-.44.74-.94.8C43.75,22.67,43.87,22.93,43.91,23.14Z"/><path class="cls-3" d="M26.61,20.22a4.69,4.69,0,0,1,.84,0c.52.1,1.48-.51,1.48.4s-1,.33-1.55.47c-.21,0-.45,0-.67,0-.49.1-1.32-.36-1.4.43s1,.1,1.28.64c-.14.56-.67.23-1,.42-.83-.74-1.22-1.43.34-1.63C26.49,20.9,26.61,20.65,26.61,20.22Z"/><path class="cls-3" d="M37.15,20.21a3,3,0,0,1,.67,0c.56.15,1.62-.58,1.62.4,0,.83-1.11.3-1.7.47-.16,0-.35,0-.51,0-.49.11-1.32-.36-1.4.43s.94.18,1.3.56c-.17.64-.69.31-1,.5-.85-.9-.82-1.41.16-1.62C36.82,20.88,37.18,20.81,37.15,20.21Z"/><path class="cls-3" d="M31.28,25.94c1.06.3,2.21,1,2.91-.57.53.69.23,1.25-.45,1.41C32.82,27,31.7,27.35,31.28,25.94Z"/><path class="cls-3" d="M41.8,25.94c1.07.3,2.22,1,2.92-.57.52.69.23,1.25-.45,1.41C43.34,27,42.23,27.35,41.8,25.94Z"/><path class="cls-3" d="M44.62,25.07a4.29,4.29,0,0,0-.8,0c-.32,0-.71.2-.85-.22s-.11-.8.47-.85.59-.39.47-.82C45.07,23.44,44.46,24.39,44.62,25.07Z"/><path class="cls-3" d="M34.09,25.06a5.3,5.3,0,0,0-.8,0c-.32,0-.7.21-.84-.22s-.12-.8.46-.85.58-.39.47-.82C34.54,23.44,33.92,24.4,34.09,25.06Z"/><path class="cls-3" d="M36.92,19.92l.28.31Z"/><path class="cls-3" d="M26.39,19.93l.28.3Z"/></g></svg>