<svg xmlns="http://www.w3.org/2000/svg" viewBox="0 0 146 184.8"><defs><style>.cls-1{fill:#edebde;}.cls-2{fill:#edc812;}.cls-3{fill:#1c3d74;}</style></defs><title>yellow Guai-Guai</title><g id="圖層_2" data-name="圖層 2"><rect class="cls-1" width="146" height="184.8"/><path class="cls-2" d="M139.3,87.79c0,7.78,0,15.56.09,23.34.13,10.66-.14,21.31-.49,32-.13,4.1,0,8.28-1,12.37-.5,2-.24,4.21-.35,6.32-.07,1.3.85,2.08,1.57,2.87,1.47,1.62,2.72,3.41,4.13,5.06a8.74,8.74,0,0,1,1.9,7.35,58.94,58.94,0,0,0-.17,6.1c-.06,1.91-.09,1.65-2.09,1.62a82.66,82.66,0,0,1-8.37-.51c-6-.68-12.13.09-18.17-1.13a29.76,29.76,0,0,0-11.64-.18c-2.9.56-5.91.29-8.88.28-2.76,0-5.53.13-8.29.07-3.48-.06-7-.08-10.42-.45a60.68,60.68,0,0,0-13.2.09,92.66,92.66,0,0,1-10.14,0c-6,0-12.06.11-18.08,0-4.53-.11-9.08-.28-13.58-.11-6.8.25-13.61,0-20.52.33a29.53,29.53,0,0,1-.1-8.29,9.41,9.41,0,0,1,3.68-5.8C7,167.65,7.35,166,7.3,163.79c-.19-9.59-.69-19.18-.43-28.78.11-4.15-.24-8.35.25-12.45,1.13-9.55.33-19.13.82-28.68.45-8.83-.41-17.64-.27-26.46s-1-17.64-.75-26.48c0-1.49-.32-3,.43-4.45,1.35,2.39,1.46,5.15,2.3,7.7s1.29,5.26,2,7.82c.8,2.74,1.49,5.53,2.36,8.26,1.76,5.51,3.1,11.17,4.58,16.78,1.09,4.11,2.5,8.12,3.48,12.26.61,2.58,1.22,5.17,2,7.73.57,1.95,1.06,3.94,1.66,5.9.76,2.46,2.1,4.67,3,7s3.13,3,5,3.91c1.49.69,3.4.5,5.13.61a5.09,5.09,0,0,1,2.55.75,41.32,41.32,0,0,0,15.81,6.37,1.83,1.83,0,0,1,1.71,1.19c1.36,3.67,3.5,6.92,5.5,10.24-.63.52-1.3.07-1.94,0a2.73,2.73,0,0,0-2.68,1.54,5.08,5.08,0,0,0,2.61,6.62c.86.37,2,.59,2.47,1.27,1.25,1.95,3.67.95,5.1,2.3.27.26.58-.32.88-.47,1-.53.58-2,1.67-2.49a3.41,3.41,0,0,1,2.27-.52c.83.18,1.59-.59,2.3-1.05.29-.19-.32-.58-.31-.95.52-1.32,1.21-.7,1.79-.11a3.51,3.51,0,0,0,2.94,1.28,2.94,2.94,0,0,1,1.49.43c3.78,2,6.36-1.11,9.42-2.17a.67.67,0,0,0,.36-.26c.84-2,2.77-2.59,4.4-3.63,1.39-.88,3-1.35,4.36-2.26-.58-.83-1.57.08-2-.69.73-1.53,1.42-2,2.43-1.3a5.31,5.31,0,0,0,2.48.86c.43,0,.43.54.47.91a4.32,4.32,0,0,1-4.53,3.28,4.49,4.49,0,0,0-4.29,2.53,10.57,10.57,0,0,1-2.56,2.52c-.69.61-.87,1.23.3,1.62,1.6.54,2.91,1.75,4.92,1.84A12.32,12.32,0,0,0,97,149.12l-4.38-1.89c-.31-.37-.63-.64-1.2-.15l1.17.19c1.89,1.58,3.77,3.19,6.48,3,.56.56,1,1.48,1.68,1.63,1.45.34,2.17,1.48,3.14,2.32s1.65,2.29,3.17.74c.2-.2.72-.09,1.1-.12a3.19,3.19,0,0,0,2.9-2.31c.4-1.24-.44-2-1.19-2.69a4.3,4.3,0,0,0-2.08-1.27,2.41,2.41,0,0,1-1.69-1.38c-.45-.84-.87-1.88.62-2.29a7.09,7.09,0,0,0,3.36-.28c2.31-.68,4.68-1.25,6.89-2.1a39.16,39.16,0,0,0,14.31-9.09,2.39,2.39,0,0,0,.75-2.63,42.09,42.09,0,0,0-2.91-7.13c-.85,1.16-2.11,1.47-3,2.39-1.36,1.37-5.39.84-6.81-.56a12.85,12.85,0,0,1-2.58-3.66,42.14,42.14,0,0,1-3.2-10.22,1.91,1.91,0,0,0-.47-1c-2.58-2.77-4.4-6.23-7.61-8.42a1,1,0,0,1-.47-1.13c.11-.59.64-.51,1.08-.58s1.4.2,1.46-.85c-1.63-.21-2.93,1.23-4.36.9S100,99.88,99.52,98c9.29-1.94,18.47-3.89,27.74-5.36C131.67,92,135.85,90.8,139.3,87.79ZM88.24,172.6c-1,2.15-.81,2.51,1.28,2.54.33,1.35,1.91.22,2.42,1.21a2,2,0,0,0,.58-1.16,10.82,10.82,0,0,1,1.89-.2,1,1,0,0,0,1.15-1.25c-.1-.82-.54-.85-1.18-1.07s-1.46.26-2.17,0c-1-.39-1.44-.3-1.94.47L89,172.38a4.17,4.17,0,0,0-2,0A1.46,1.46,0,0,0,88.24,172.6Zm-39.06,2.72c.13.07.31.11.38.22a1.22,1.22,0,0,0,1.94.22c.36-.26.32-.84.2-1.21-.27-.84-1-.72-1.68-.6l-.66.07a1,1,0,0,0-.89.39,10.65,10.65,0,0,0-6.55.33c.87.5,1.27,1.87,2.36,1.42a5.47,5.47,0,0,1,3-.36c.76.11.73-.61,1.1-.89C48.75,174.92,48.41,176.15,49.18,175.32Zm13-2.39c.54.35,1.32-.08,1.76.42.13.89-1.51.43-.94,1.44.26.47.66,1.13,1.39.77s1.91-.29,1.36-1.47c-.21-.45.72-1.66-.77-1.45a3,3,0,0,1-1.06-.25c-1,0-1.94-.06-2.91-.11s-.4.16-.09.39c.56.4.29.9.2,1.42a3.26,3.26,0,0,0,.15,2.09C62.27,175.16,61.3,173.8,62.14,172.93Zm31.8-9c1.25.56,1.88,0,2.15-1.2a5,5,0,0,0-1.24-4.4,1.78,1.78,0,0,1-.44-1c-.25-1.32-1-1.79-2.4-1.67a29.84,29.84,0,0,1-8.12,0,8.35,8.35,0,0,0-5.77.78,2.28,2.28,0,0,1-.66.11c-1.95.34-2,.51-1.39,2.42.26.76.44,1.56.76,2.3.53,1.22,1.28,2.21,2.83,2,.32.18.71.25.78.71s-.06.83.52.79.56-.41.61-.81c0-.22.07-.44.11-.66a1.81,1.81,0,0,0,.62-.22c1-.87,3-.9,2.17-3.14-.24-.65.69-.67,1.11-.31a19,19,0,0,1,3.11,2.84,3,3,0,0,0,2.79,1.37A16.92,16.92,0,0,1,93.94,164ZM39.28,153.62c3.68.22,6.85-1.46,9.74-3.68a13.52,13.52,0,0,0,1.11-21c-.16-.16-.37-.26-.54-.41-.76-.65-.49-1.23.26-1.56s1.72-.54,2.57-.84c.33-.12.78-.18.82-.65a1,1,0,0,0-.78-1,12.28,12.28,0,0,0-4.4-.88,26.61,26.61,0,0,0-8.83,1.69,9.82,9.82,0,0,1-2.87.57c-6.87.45-11.54,4.5-12.89,11.15-1.06,5.26,2.12,12.45,6.72,14.63A17.7,17.7,0,0,0,39.28,153.62Zm43.09,11.93c-.51,1.9-2,2-3.23,2.44-2.61.86-5.39,1-8.08,1.39s-5.49.9-8.15-.4a16,16,0,0,0-1.66-.68.63.63,0,0,0-.77.29c-.26.38.09.55.29.72a3.78,3.78,0,0,0,1,.58,19.85,19.85,0,0,0,13.55.48c1.14-.37,2.33-.94,3.66-.08.9.58,3.44,0,3.76-.69C83.19,168.47,83.73,167.23,82.37,165.55Zm-.91,10.07c-.22-.88-.26-2-1.43-1.67-1.4.41-2.75.06-4.1,0s-3,.36-4.45.12c-.52-.09-1.14-.36-1.37.26a2.11,2.11,0,0,0,.12,1.52c.28.55.88.43,1.37.14.32-.18.64-.59.93-.56,2,.2,4,.75,6,.07C79.51,176.94,80.48,175.52,81.46,175.62Zm12.71-8.94c.33,2.71.5,2.68,2.74,2.77,1.36.05.65-1,1.09-1.47s-.57-.43-.87-.55A23.11,23.11,0,0,0,94.17,166.68Zm8.75,9.08a3.38,3.38,0,0,0,.45,0c2-.3-.49-2.19,1-2.73.11,0,0-.65-.37-.68-.68-.05-1.53-.41-1.77.75-.14.65.29,1.59-.83,1.84-.42.09-.1.38,0,.35C102,175.18,102.2,176.35,102.92,175.76Zm-45.34-.29c.35-1-.63-2.8,1.68-2.58-.78-.14-1.6-.57-2,.44s-.87,1.14-2,.7c-1.24-.51-2,.29-1.65,1.38.53,1.47,1.55.43,2.12.14S56.89,174.43,57.58,175.47Zm25.71-1.26c.76.54-.38,2.09,1.19,1.88.5-.07,1.73-.64,1.3-1.61S84.31,174,83.29,174.21Zm23.71.29c-.11-.52-.49-.47-.87-.46-.78,0-.77.58-.78,1.1s.37.58.77.51C106.76,175.54,106.85,175,107,174.5Zm-32.29-29c-1.27.5-2.22.5-3,1.12C73.56,146.7,73.56,146.7,74.71,145.52ZM41.18,174.4c-.72.3-1.14.57-.75,1.21a.45.45,0,0,0,.41.12C41.47,175.4,40.78,174.89,41.18,174.4Z"/><path class="cls-3" d="M139.3,87.79c-3.45,3-7.63,4.17-12,4.87C118,94.13,108.81,96.08,99.52,98c.52,1.86,2.24,2.19,3.63,2.52s2.73-1.11,4.36-.9c-.06,1-.89.75-1.46.85s-1,0-1.08.58a1,1,0,0,0,.47,1.13c3.21,2.19,5,5.65,7.61,8.42a1.91,1.91,0,0,1,.47,1,42.14,42.14,0,0,0,3.2,10.22,12.85,12.85,0,0,0,2.58,3.66c1.42,1.4,5.45,1.93,6.81.56.92-.92,2.18-1.23,3-2.39a42.09,42.09,0,0,1,2.91,7.13,2.39,2.39,0,0,1-.75,2.63A39.16,39.16,0,0,1,117,142.51c-2.21.85-4.58,1.42-6.89,2.1a7.09,7.09,0,0,1-3.36.28c.55-1,1.37-1.95.11-3s-2.13-.33-3,.41a5.65,5.65,0,0,1-2.8,1.3,3.49,3.49,0,0,0-2.59,2.23c-.84,1.69,0,3,.65,4.39-2.71.2-4.59-1.41-6.48-3l0,0L97,149.12a12.32,12.32,0,0,1,1.71-4.93c-2-.09-3.32-1.3-4.92-1.84-1.17-.39-1-1-.3-1.62a10.57,10.57,0,0,0,2.56-2.52,4.49,4.49,0,0,1,4.29-2.53,4.32,4.32,0,0,0,4.53-3.28,3.51,3.51,0,0,0,0-3.44.29.29,0,0,0-.13-.33c-2.12-2.21-3.85-2-6,.71-.37.45-.5,1.45-1.47.89a1.66,1.66,0,0,1-1-2.06,8.14,8.14,0,0,1,1.07-2.64c1-1.21.53-2.06-.3-3-1.1-1.19-2.65-1.62-4-2.42a17,17,0,0,0-8-2.14c-2-.13-3.38.53-4,2.52-.32,1.06-1.15,1.87-1.22,3.1a1.4,1.4,0,0,1-1.73,1.29l-.57-.54a3.19,3.19,0,0,1,.45-1.7,2.75,2.75,0,0,0,0-3,2.2,2.2,0,0,0-2.55-1.43c-1.22.26-2.88.73-3,1.91-.19,2.33-.72,4.87,1,7a2.29,2.29,0,0,1,.28,1.92,13.82,13.82,0,0,0,3,10.24c0,.37.6.76.31.95-.71.46-1.47,1.23-2.3,1.05a3.41,3.41,0,0,0-2.27.52c.62-2.05-.4-4.29.77-6.32.3-.51-.18-1.32-.82-1.69a1.92,1.92,0,0,0-2.13.05,2.46,2.46,0,0,0-1,1.19c-.41,1.11-1.11.95-2,.65-1.4-.46-2-1.8-2.94-2.69-2-3.32-4.14-6.57-5.5-10.24a1.83,1.83,0,0,0-1.71-1.19,41.32,41.32,0,0,1-15.81-6.37,5.09,5.09,0,0,0-2.55-.75c-1.73-.11-3.64.08-5.13-.61-1.87-.87-4.07-1.49-5-3.91s-2.24-4.58-3-7c-.6-2-1.09-4-1.66-5.9-.74-2.56-1.35-5.15-2-7.73-1-4.14-2.39-8.15-3.48-12.26-1.48-5.61-2.82-11.27-4.58-16.78-.87-2.73-1.56-5.52-2.36-8.26-.75-2.56-1.2-5.27-2-7.82s-1-5.31-2.3-7.7c-.67-4.58.06-9.18-.07-13.77a5.11,5.11,0,0,1,1-2.74c1.56-.69,2.74-2,4.5-2.45a19.85,19.85,0,0,1,7.16-.22c-.22.06-.31,0-.22-.09s.11-.12.16-.11c.61.09,1.57-.28,1.64.66a5.31,5.31,0,0,1-.56,2.4c-.36.8-1.21.3-1.84.4a2.15,2.15,0,0,1-.67,0c-3.48-.49-6.31,2.56-7,5.67a11.85,11.85,0,0,0,.33,5.82q2.82,10.59,5.61,21.18c2.73,10.32,5.17,20.71,8.09,31,1.37,4.82,2.78,9.65,3.88,14.56a25.48,25.48,0,0,0,2.79,7.6,5.84,5.84,0,0,0,5.33,3.16,7.28,7.28,0,0,0,2.25-.09c1.4-.49,2.23.18,3.16,1a29.49,29.49,0,0,0,13.91,7.19,12.23,12.23,0,0,0,4.26.48c.84-.1,1.05-.56.64-1.24A11.49,11.49,0,0,0,59.12,114a10,10,0,0,1-2.8-4.23c-.81-2.13-.49-2.94,1.5-4.1a32.49,32.49,0,0,1,5.83-2.47c5.21-1.77,10.53-3.13,15.82-4.64S90,96,95.25,94.75c11.23-2.65,22.55-4.93,33.84-7.32,6.63-1.4,9.52-5.75,8.23-12.41-1.63-8.35-3.18-16.72-4.77-25.07-1.17-6.13-2.26-12.28-3.59-18.37-1-4.67-3.72-6.75-8.47-7-5.59-.24-11.17-.42-16.76-.66-7.47-.32-15-.42-22.41-1a8.67,8.67,0,0,1-.43-2.19c-.1-.36-.09-.89-.51-.91-1.41-.08-2.87-.47-4.56.31a5.93,5.93,0,0,0,2.9.47c.52.05,1.18,0,1.2.7,0,.91-.81.64-1.34.81-.79.25-1.07-.75-1.85-.69-.56,1.05-.27,2.23-.52,3.3a.58.58,0,0,0,.51.65c1,.18,2.07.34,3.12.43.47,0,.61-.4.59-.79s-.29-.65-.74-.37a1.88,1.88,0,0,1-1.32.17.8.8,0,0,1-.82-.88c0-.45.29-.64.71-.69L81.33,23c0,.53,0,1.05-.08,1.58-.14,2-.7,2.61-2.68,2.41s-4,.17-5-2.2c-.13-.31-.76-.42-1.16-.62a5.7,5.7,0,0,1-.78-3.62c.13-2.14,0-2.22-2.2-2.45-.52-.05-1.05-.09-1.57-.16-1.08-.13-2.23-.16-2.18-2a17.72,17.72,0,0,0-2.59,3.54c-.26.37-.26.71.14,1a.48.48,0,0,0,.73-.27c.84-1.9,2.45-1.39,3.9-1.21,2.66.34,2.66.38,2.6,3a9.63,9.63,0,0,1-.11,2.47c-.41,1.4.38,1.54,1.38,1.6-1,1.44-2.4,1.32-3.61.79a3.37,3.37,0,0,0-2.3-.27,4.9,4.9,0,0,1-2.25.07c-1-.27-1.91-.68-2.32.82-.11.37-.77.41-1.23.41a71.47,71.47,0,0,1-7.46-.2A1.91,1.91,0,0,1,50.68,26c-.49-1.49-1.15-3.31-2.33-4.1-1.5-1-1.34-2.2-1.49-3.51.86-.21,2,.41,2.59-.35,1.11-1.39,2.85-1.82,4.2-2.83a4.62,4.62,0,0,1,4.66,0c1.09.7,2.37,1,3.27,2.06.36-.57.59-1,.85-1.33,1.46-2.12,2.16-2.23,4.05-.43a3.91,3.91,0,0,0,1.35.65c1.2.54,2.57,0,3.73.72.52.3.83-.15,1.09-.52s.56-.9.85-1.33c1.06-1.61,1.81-1.83,3.3-.64a3.9,3.9,0,0,0,2.46.84,22.27,22.27,0,0,1,3.36.47,1.18,1.18,0,0,1,.79,1.4c-.09.47-.7.46-1.15.28a12.72,12.72,0,0,0-4-.37c-.72,0-1.58.18-1.48-1.08,0-.26-.58-.67-.83-.23-.74,1.27-2,2.33-2,4,.55.14.81-.09.92-.33.68-1.54,1.92-1.73,3.37-1.51a20.81,20.81,0,0,0,2.47.3c1,0,1.33.53,1.29,1.43a2.45,2.45,0,0,0,.06.9c.19.52.77.78.89.15.23-1.19,1-.89,1.7-.86,1.73.07,3.47.22,5.2.28q16.44.57,32.86,1.14a7.49,7.49,0,0,1,1.56.2c5.38,1.41,8.57,5,10,10.23.75,2.68,1.05,5.44,1.7,8.15a37.11,37.11,0,0,1,1,4.67,91.59,91.59,0,0,0,2.34,13.28,26,26,0,0,1,.11,3.84,44.52,44.52,0,0,0-.12,8.79,61.94,61.94,0,0,1,.06,8.83C139.19,82.09,139.74,84.94,139.3,87.79ZM76.54,104.4a3.49,3.49,0,0,0-2.83.06q-2.35.75-4.73,1.46c-4.3,1.27-4.47,1.55-3.48,5.84,0,.07,0,.16,0,.22.63.93.64,2.4,2.16,2.55A3.82,3.82,0,0,0,71.56,113C73.62,110.43,74.52,107.23,76.54,104.4Zm-15-81.67c-.86-.07-1.61-.18-2.35-.19-2.35,0-2.36,0-2.7,2.32-.07.51-.24.91-.8.85s-1.48.31-1.52-.48-1-1.46-.92-2.12c.21-2.13-1-1.37-1.92-1.33,0,1.78,2,2.45,1.94,4.22,0,.48.51.48.87.48a27.69,27.69,0,0,1,2.9.38c.91.08,2,.45,2.78-.47-.36-.52-1.44-.05-1.44-1.15C60,25.38,61.16,24.76,61.53,22.73Zm-7.23-2.6c1.14,0,1.07-1,1.67-1.14a1.61,1.61,0,0,1,1.51.09c.33.26.28.68.22,1.05-.11.6-.63.57-1.06.63A2.25,2.25,0,0,0,54.51,22c2.32-.34,4.34,0,6-1.41a1.34,1.34,0,0,0-.87-.22c-.64,0-1-.22-1-.9s.51-.62,1-.68,1,.18.92-.74c-1,0-2.35-1-2.49-.85-1.21,1.44-2,.24-2.8-.5A8,8,0,0,0,54.3,20.13ZM68,23.68c-.5-.57.64-2.38-1.16-2.12-1,.15-2.94-.84-3,1.14,0,.79-.58,2.65,1.36,2.76S68,25.08,68,23.68ZM53.31,19.35c0-.51-.43-.49-.73-.61s-.58,0-.65.32.14.53.46.61S53.11,19.8,53.31,19.35Z"/><path class="cls-2" d="M19.91,17.31a19.85,19.85,0,0,0-7.16.22C11,18,9.81,19.29,8.25,20a21.57,21.57,0,0,1-5.94-6.32A9.85,9.85,0,0,1,.42,8.21C.31,5.51-.28,2.83.17,0a40.5,40.5,0,0,1,6,.21c1.55.24,3.26.79,5,.46s3.55.11,5.31.2c2.81.15,5.61,0,8.42.12s5.47-.22,8.2-.08c2.14.1,4.28-.56,6.46.24A7,7,0,0,0,42.36,1a48.36,48.36,0,0,1,8.08.08c3.59.16,7.2.2,10.8.39s7.08-.19,10.61-.05c3.28.13,6.64-.11,9.83.36,2.95.44,5.86.26,8.76.59,2.62.3,5.17-.28,7.76,0A2.8,2.8,0,0,0,100.34,2c.76-.54,1.62.26,2.57.21,1.76-.1,3.6.27,5.4,0,2.08-.29,4.19-.15,6.27-.3A27.08,27.08,0,0,1,120,1.7c3.55.44,7.09-.08,10.63-.2,2.94-.09,5.9-.25,8.83-.53,1.82-.18,3.63,0,5.42-.24.78-.1.95.2,1,.82.07,2.64.22,5.28.15,7.91a4.27,4.27,0,0,1-1,2.67c-1.06,1.26-1.82,2.77-2.87,4-2.25,2.72-2.86,5.79-2.76,9.25.15,5.36.51,10.7.48,16.07s-.37,10.87-.5,16.3A91.59,91.59,0,0,1,137,44.5a37.11,37.11,0,0,0-1-4.67c-.65-2.71-.95-5.47-1.7-8.15-1.45-5.25-4.64-8.82-10-10.23a7.49,7.49,0,0,0-1.56-.2q-16.42-.59-32.86-1.14c-1.73-.06-3.47-.21-5.2-.28-.7,0-1.47-.33-1.7.86-.12.63-.7.37-.89-.15a2.45,2.45,0,0,1-.06-.9c0-.9-.3-1.4-1.29-1.43a20.81,20.81,0,0,1-2.47-.3c-1.45-.22-2.69,0-3.37,1.51-.11.24-.37.47-.92.33,0-1.67,1.27-2.73,2-4,.25-.44.85,0,.83.23-.1,1.26.76,1,1.48,1.08a12.72,12.72,0,0,1,4,.37c.45.18,1.06.19,1.15-.28a1.18,1.18,0,0,0-.79-1.4,22.27,22.27,0,0,0-3.36-.47,3.9,3.9,0,0,1-2.46-.84c-1.49-1.19-2.24-1-3.3.64-.29.43-.55.89-.85,1.33s-.57.82-1.09.52c-1.16-.68-2.53-.18-3.73-.72a3.91,3.91,0,0,1-1.35-.65c-1.89-1.8-2.59-1.69-4.05.43-.26.37-.49.76-.85,1.33-.9-1.05-2.18-1.36-3.27-2.06a4.62,4.62,0,0,0-4.66,0c-1.35,1-3.09,1.44-4.2,2.83-.61.76-1.73.14-2.59.35-.46-1.51-.51-3.26-2.35-4a.87.87,0,0,1-.5-.85,1.87,1.87,0,0,0-.35-1,10.34,10.34,0,0,0-7.91-3.82c-3.12,0-6.22-.23-8.92,1.89A1.76,1.76,0,0,0,26,12.07a1.42,1.42,0,0,0-1.26.78c-.64,1.13-1.3,2.25-1.95,3.37-.42.1-.95-.06-1.18.45C21.25,17.47,20.59,17.39,19.91,17.31Z"/><path class="cls-3" d="M79.66,163.29c-1.55.2-2.3-.79-2.83-2-.32-.74-.5-1.54-.76-2.3-.65-1.91-.56-2.08,1.39-2.42a2.28,2.28,0,0,0,.66-.11,8.35,8.35,0,0,1,5.77-.78,29.84,29.84,0,0,0,8.12,0c1.43-.12,2.15.35,2.4,1.67a1.78,1.78,0,0,0,.44,1,5,5,0,0,1,1.24,4.4c-.93,0-2-.16-2.15,1.2a16.92,16.92,0,0,0-2.46-.09,3,3,0,0,1-2.79-1.37,19,19,0,0,0-3.11-2.84c-.42-.36-1.35-.34-1.11.31.83,2.24-1.22,2.27-2.17,3.14a1.81,1.81,0,0,1-.62.22C81,162.88,80.34,163.14,79.66,163.29Z"/><path class="cls-3" d="M82.37,165.55c1.36,1.68.82,2.92.33,4-.32.73-2.86,1.27-3.76.69-1.33-.86-2.52-.29-3.66.08a19.85,19.85,0,0,1-13.55-.48,3.78,3.78,0,0,1-1-.58c-.2-.17-.55-.34-.29-.72a.63.63,0,0,1,.77-.29,16,16,0,0,1,1.66.68c2.66,1.3,5.48.83,8.15.4s5.47-.53,8.08-1.39C80.39,167.58,81.86,167.45,82.37,165.55Z"/><path class="cls-3" d="M81.46,175.62c-1-.1-1.95,1.32-2.94-.1-2,.68-4,.13-6-.07-.29,0-.61.38-.93.56-.49.29-1.09.41-1.37-.14a2.11,2.11,0,0,1-.12-1.52c.23-.62.85-.35,1.37-.26,1.48.24,3-.17,4.45-.12s2.7.39,4.1,0C81.2,173.61,81.24,174.74,81.46,175.62Z"/><path class="cls-3" d="M48.43,174.91c-.37.28-.34,1-1.1.89a5.47,5.47,0,0,0-3,.36c-1.09.45-1.49-.92-2.36-1.42a10.65,10.65,0,0,1,6.55-.33Z"/><path class="cls-3" d="M92.21,172.66c.71.27,1.39-.25,2.17,0s1.08.25,1.18,1.07A1,1,0,0,1,94.41,175a10.82,10.82,0,0,0-1.89.2C90.84,174.54,92,173.54,92.21,172.66Z"/><path class="cls-3" d="M94.17,166.68a23.11,23.11,0,0,1,3,.75c.3.12,1.36.06.87.55s.27,1.52-1.09,1.47C94.67,169.36,94.5,169.39,94.17,166.68Z"/><path class="cls-3" d="M102.92,175.76c-.72.59-.91-.58-1.51-.46-.14,0-.46-.26,0-.35,1.12-.25.69-1.19.83-1.84.24-1.16,1.09-.8,1.77-.75.34,0,.48.63.37.68-1.46.54,1,2.43-1,2.73A3.38,3.38,0,0,1,102.92,175.76Z"/><path class="cls-3" d="M63.88,172.39a3,3,0,0,0,1.06.25c1.49-.21.56,1,.77,1.45.55,1.18-.72,1.16-1.36,1.47s-1.13-.3-1.39-.77c-.57-1,1.07-.55.94-1.44-.44-.5-1.22-.07-1.76-.42C62.6,172.36,63.36,172.76,63.88,172.39Z"/><path class="cls-3" d="M57.58,175.47c-.69-1-1.11-.25-1.77.08s-1.59,1.33-2.12-.14c-.39-1.09.41-1.89,1.65-1.38,1.09.44,1.56.39,2-.7s1.18-.58,2-.44C57,172.67,57.93,174.45,57.58,175.47Z"/><path class="cls-3" d="M49.36,174,50,174c.68-.12,1.41-.24,1.68.6.12.37.16.95-.2,1.21a1.22,1.22,0,0,1-1.94-.22c-.07-.11-.25-.15-.38-.22Z"/><path class="cls-3" d="M90.27,173.13c.76,1-.59,1.3-.75,2-2.09,0-2.27-.39-1.28-2.54l.78-.22Z"/><path class="cls-3" d="M83.29,174.21c1-.24,2-.78,2.49.27s-.8,1.54-1.3,1.61C82.91,176.3,84.05,174.75,83.29,174.21Z"/><path class="cls-3" d="M107,174.5c-.15.49-.24,1-.88,1.15-.4.07-.78,0-.77-.51s0-1.1.78-1.1C106.51,174,106.89,174,107,174.5Z"/><path class="cls-3" d="M74.71,145.52c-1.15,1.18-1.15,1.18-3,1.12C72.49,146,73.44,146,74.71,145.52Z"/><path class="cls-3" d="M41.18,174.4c-.4.49.29,1-.34,1.33a.45.45,0,0,1-.41-.12C40,175,40.46,174.7,41.18,174.4Z"/><path class="cls-3" d="M92.61,147.27l-1.17-.19c.57-.49.89-.22,1.2.15Z"/><path class="cls-2" d="M76.54,104.4c-2,2.83-2.92,6-5,8.64a3.82,3.82,0,0,1-3.86,1.49c-1.52-.15-1.53-1.62-2.16-2.55,0-.06,0-.15,0-.22-1-4.29-.82-4.57,3.48-5.84q2.37-.7,4.73-1.46A3.49,3.49,0,0,1,76.54,104.4Z"/><path class="cls-2" d="M61.53,22.73c-.37,2-1.53,2.65-3.16,2.51,0,1.1,1.08.63,1.44,1.15-.81.92-1.87.55-2.78.47a27.69,27.69,0,0,0-2.9-.38c-.36,0-.9,0-.87-.48.11-1.77-1.89-2.44-1.94-4.22.91,0,2.13-.8,1.92,1.33-.06.66.87,1.2.92,2.12s1,.42,1.52.48.73-.34.8-.85c.34-2.34.35-2.35,2.7-2.32C59.92,22.55,60.67,22.66,61.53,22.73Z"/><path class="cls-2" d="M72.41,24.12l-.68,1.82c-1-.06-1.79-.2-1.38-1.6a9.63,9.63,0,0,0,.11-2.47c.06-2.62.06-2.66-2.6-3-1.45-.18-3.06-.69-3.9,1.21a.48.48,0,0,1-.73.27c-.4-.24-.4-.58-.14-1a17.72,17.72,0,0,1,2.59-3.54c-.05,1.87,1.1,1.9,2.18,2,.52.07,1,.11,1.57.16,2.2.23,2.33.31,2.2,2.45A5.7,5.7,0,0,0,72.41,24.12Z"/><path class="cls-2" d="M81.33,23l-3.07.34c-.42.05-.7.24-.71.69a.8.8,0,0,0,.82.88,1.88,1.88,0,0,0,1.32-.17c.45-.28.71-.11.74.37s-.12.83-.59.79c-1-.09-2.09-.25-3.12-.43a.58.58,0,0,1-.51-.65c.25-1.07,0-2.25.52-3.3.78-.06,1.06.94,1.85.69.53-.17,1.35.1,1.34-.81,0-.72-.68-.65-1.2-.7a5.93,5.93,0,0,1-2.9-.47c1.69-.78,3.15-.39,4.56-.31.42,0,.41.55.51.91A8.67,8.67,0,0,0,81.32,23Z"/><path class="cls-2" d="M54.3,20.13a8,8,0,0,1,1-3.41c.84.74,1.59,1.94,2.8.5.14-.16,1.54.86,2.49.85.06.92-.54.69-.92.74s-1,.05-1,.68.35.94,1,.9a1.34,1.34,0,0,1,.87.22c-1.68,1.38-3.7,1.07-6,1.41a2.25,2.25,0,0,1,2.13-1.26c.43-.06,1,0,1.06-.63.06-.37.11-.79-.22-1.05A1.61,1.61,0,0,0,56,19C55.37,19.17,55.44,20.12,54.3,20.13Z"/><path class="cls-2" d="M68,23.68c0,1.4-.82,1.9-2.78,1.78s-1.37-2-1.36-2.76c0-2,2-1,3-1.14C68.67,21.3,67.53,23.11,68,23.68Zm-1.87.68c.52,0,.71-.38.7-1s-.25-.95-.92-.93a.91.91,0,0,0-1,1.12C65,24.24,65.4,24.41,66.16,24.36Z"/><path class="cls-2" d="M78.17,124.93c-1.77.23-2.66,1.69-3.86,3,.11-2.28.69-2.85,3.29-3.51Z"/><path class="cls-2" d="M53.31,19.35c-.2.45-.56.4-.92.32s-.53-.26-.46-.61.33-.45.65-.32S53.34,18.84,53.31,19.35Z"/><path class="cls-2" d="M104.91,129a3.31,3.31,0,0,1,0,.45c-.07.33.06.89-.5.8s-.36-.57-.36-.93.34-.62.75-.65A.29.29,0,0,1,104.91,129Z"/><path class="cls-3" d="M44.51,14.47a5.34,5.34,0,0,0,.8,2.08A12.42,12.42,0,1,1,22.09,18.6c.18-.8.46-1.59.7-2.38.65-1.12,1.31-2.24,1.95-3.37A1.42,1.42,0,0,1,26,12.07a15.11,15.11,0,0,1,4.71-1.91c-.2.7-.25,1.59-1.32,1.46s-1.5.52-2.13,1a9.25,9.25,0,0,0-2.94,4.18,1.37,1.37,0,0,0,1.57.05c1.43-.94,3-.69,4.59-.76a1.65,1.65,0,0,1,2,1.26C33,19,34.06,19,35.16,17.49c.09-.12.17-.27.29-.32a13.3,13.3,0,0,1,6.35-1c.47.06.47.5.46.89-2-.2-3.94.4-6.13.46.61,1.22,1.45.75,2.11.85a.51.51,0,0,1,.47.38c.09.36-.14.56-.47.57-1.05,0-2.1,0-3.47,0,.78,1-.18,2.41,1.48,2.9.55.16.32.86-.23,1.23-.38.25-1.12.16-1,1,1,.36,1.84-.33,2.81-.25s.93.52.92,1.16c-2.26-.09-4.51-.12-6.77-.05-1,0-1.62.12-1.5,1.3S30,28,29,28.07c-1.24.06-1.3-.69-1.29-1.6,0-.42.11-.95-.49-1.11-1.13-.31-1.89.66-2.82,1-.63.22-.22,1.34.19,2a12.09,12.09,0,0,0,4.65,3.95c2.42,1.38,5.11,1.24,7.63.77,1.28-.24,3.09-.61,3.62-2.41,2,.18,2.36-1.64,3.22-2.82.4-.56.75-1.35-.12-1.64-.67-.23-1.77-.59-2.13.47-.43,1.28-1.42,2.45-1,3.95-.65-.12-1.39.3-1.78-.81-.29-.83-1.2-.88-1.86-.07-.13.16.22.67-.32.49-.15,0-.23-.36-.3-.57-.3-.91.41-.83.88-.78,1.46.17,1.8-.63,1.75-1.85.23.26.37.72.84.3s.31-1,.32-1.49c0-1.43,0-2.87,0-4.3,0-.46-.28-1.23.49-1.26.94,0,.67.81.72,1.35s0,1.21,0,1.81.18,1.06.84,1.15a1.87,1.87,0,0,0,1.71-.3.68.68,0,0,0,.16-.6c-.32-.69-1.19.12-1.55-.51-.49-.88,1.13-.73.76-1.55a.75.75,0,0,0-.31-.3c-.88-.51-.66-.89.16-1.11.43-.12,1,0,.84-.73-.72-.3-1.5-.05-2.23-.18-.56-.1-1.54.49-1.59-.61,0-.89.83-.65,1.38-.71s1.08-.15.87-.92c.91-.14.86.56,1,1.14s.79.7,1.27.53a.76.76,0,0,0,.24-1.16c-.79-.72-.65-2-1.91-2.54a6.41,6.41,0,0,1-2.37-2.37,3.55,3.55,0,0,0-1.22-1.09c-2-1.25-4.2-.76-6.33-.87-.8,0-1.69.34-2.29-.53a1.2,1.2,0,0,1,.74-.47c3.79-1,7.15,0,10.25,2.25.79.55,1.31,1.46,2.34,1.67A.87.87,0,0,0,44.51,14.47ZM24.65,22.55c.49.77-.87,1.26-.32,2a2.35,2.35,0,0,0,.46,0c2.14-.54,2.14-.54,2-2.68a3.85,3.85,0,0,1,0-.68c0-.42-.09-1,.58-1s.72.44.72.92c0,1.51,0,3,0,4.52,0,.52-.27,1.23.57,1.44.61-.38.39-1,.4-1.44,0-1.43,0-2.86,0-4.3,0-.49-.13-1.19.69-1.14s.57.74.59,1.22c0,.68,0,1.36,0,2,0,.91.57,1.14,1.33,1.13.52,0,1.22.07,1.35-.53.26-1.19-.82-.39-1.17-.68-.88-.75,1.16-2-.41-2.7-.11-.06.32-.41.61-.48s1,.07.91-.79c-.48,0-1-.08-1.47-.1s-1.05,0-1.58,0c-.35,0-.79.05-.84-.49s.23-.65.64-.78c.56-.17,1.38.19,1.71-.69-1.78-.51-5-.11-6,.7.65.82,1.94-.29,2.65.93-1.32.74-2.83-.06-4.09.56.17.29.22.49.32.52.94.28,2.26.44.27,1.33-.13.06-.12.41-.17.63-.6-.14-.28-1.13-1-1.22-.44.53-.28,1.06-.31,1.55s-.1.8.39.89S24.39,22.91,24.65,22.55Z"/><path class="cls-2" d="M36.81,141.81c1.42,1.56,1,4,2.56,5.48a.69.69,0,0,1,0,1,1.44,1.44,0,0,1-1.5.22c-1.76-.79-3.78-.28-5.48-1.05-1.4-.64-2.77.29-4.13-.29-.47-.21-1.1-.21-1.23-.76s.38-.76.8-.93c1.23-.49,1.14-1.85,1.8-2.71a.75.75,0,0,0,.15-.16c0-.05,0-.13,0-.19a10.5,10.5,0,0,1-3.33-1.3c-1.11-.79-.46-1.92-.52-2.9a.52.52,0,0,1,.62-.5c1.59.15,3.18-.55,4.75,0,.67.32.16.72.11,1.11-.19,1.3-.2,2.57,1.11,3.39l1.76,0,1.55,0,1-.43Z"/><path class="cls-3" d="M36.84,140.67c.63.18.89-.17.77-.7a68.79,68.79,0,0,1-.77-7l.22-1.18c1.15.85.43,2.1.64,3.15.17.89-.3,2.07,1.33,2,.53,0,.67.57.83,1a2.45,2.45,0,0,0,1.67,1.39A2.29,2.29,0,0,0,44,138.7a1.64,1.64,0,0,0,.36-1.89,2.17,2.17,0,0,0-2.13-1.39,5.28,5.28,0,0,0-2.16.52c-1,.38-1.22-.14-.94-1a3.81,3.81,0,0,1,.28-.62c.46-.81.36-2.29,1.48-2.3a11.06,11.06,0,0,1,4.42.71.47.47,0,0,1,.22.57.6.6,0,0,1-.67.46c-.83-.06-1.65-.15-2.47-.25-.35,0-.72-.31-1,.18.11.7.68.34,1,.4a4,4,0,0,1,3.5,2.74A3,3,0,0,1,44.75,140a4.19,4.19,0,0,1-4.69.09,17.33,17.33,0,0,1-1.69-1.45c-.71,1.05.77,3.05-1.56,3.17h0l-.16-.66Z"/><path class="cls-3" d="M53.56,137c-.63.3-1.22.07-1.6.39-.17.58.33.63.5.9a2.8,2.8,0,0,1-.23,2.77c-.34.73-1.2.26-1.83.22s-1-.14-1.56-.19c-1.13-.11-1.87-.49-1.55-1.84.1-.43.22-1,0-1.31-.57-.7-.42-.84.38-1.07,1.26-.37.65-1,0-1.74,1-.17,1.94-.72,2.2.89.05.36.63.24,1,.26A4.3,4.3,0,0,1,53.56,137Zm-5.74,1.66c1.55.63,2.59,1,4,.62-.89-.25-1.52-.48-2.16-.6A12.78,12.78,0,0,0,47.82,138.66Z"/><path class="cls-2" d="M36.84,140.67l-.15.48-.62,0c-3-.83-3.56-1.7-3.09-5.07,0-.21-.31-.48-.48-.72.89-.81,1.94.12,2.93-.28.45-.18.7.7.85,1.16A12.57,12.57,0,0,1,36.84,140.67Z"/><path class="cls-2" d="M37.06,131.77,36.84,133c-1.14.68-2.24,1-3.37-.13-.37-.39-1.14-.21-1.56-.69l.36-1.36a9.94,9.94,0,0,1,4-.38l.92.27Z"/><path class="cls-3" d="M32.5,135.39c.17.24.51.51.48.72-.47,3.37,0,4.24,3.09,5.07l-1.23.32c.18.48,1,.08,1.06.74l-1.55,0c-.26-.67-1.15-.58-1.42-1.25l-.34,1.29c-1.31-.82-1.3-2.09-1.11-3.39.05-.39.56-.79-.11-1.11a11.26,11.26,0,0,0,.12-1.53C31.46,135.45,32,135.48,32.5,135.39Z"/><path class="cls-3" d="M26.52,141.13a10.5,10.5,0,0,0,3.33,1.3c0,.06,0,.14,0,.19a.75.75,0,0,1-.15.16,2.65,2.65,0,0,0-2.17,0c-1,.5-2.59.3-2.91-.56a2.42,2.42,0,0,1,.71-3.12c.24.9-.63,1.72.11,2.45.27.17.52.27.7-.1Z"/><path class="cls-3" d="M32.27,130.77l-.36,1.36a9.09,9.09,0,0,0-4.66,0l0,.05c.4-1.09,1.37-1.06,2.2-.9A5.11,5.11,0,0,0,32.27,130.77Z"/><path class="cls-3" d="M36.33,129.58c-1.3.48-2.61,1.08-3.87-.31a5.09,5.09,0,0,1,4,.1A.91.91,0,0,1,36.33,129.58Z"/><path class="cls-3" d="M26.92,133.8c.42.6,1.14.65,1.61,1.35-.84,0-1.16.62-1.87,1Z"/><path class="cls-3" d="M37.21,130.66l-.92-.27,0-.81a.91.91,0,0,0,.18-.21C37,129.67,38.57,129.37,37.21,130.66Z"/><path class="cls-2" d="M26.1,141.46c-.18.37-.43.27-.7.1A.54.54,0,0,1,26.1,141.46Z"/><path class="cls-3" d="M27.25,132.16l-.06.51.09-.46Z"/><path class="cls-2" d="M89.68,136.58a4.63,4.63,0,0,1-4.46,3c-1.28,0-2.67.71-3.8-.42-1.45-1.45-2.6-3.06-2.45-5.26,1.67,0,3.39-.32,4.77,1a.78.78,0,0,0,.81.16C86.56,134.52,88.19,135.33,89.68,136.58Z"/><path class="cls-3" d="M89.68,136.58c-1.49-1.25-3.12-2.06-5.13-1.46a.78.78,0,0,1-.81-.16c-1.38-1.35-3.1-1.05-4.77-1a12.3,12.3,0,0,1,1.43-7.56c.84.16.79,1.07,1.36,1.39,0,.64.79,1,.63,1.7a5.93,5.93,0,0,0-.84.74c-.39.48-1.2.87-.73,1.67a2.31,2.31,0,0,0,2,1.24c1.16,0,1.35-.89,1.64-1.71l.68.14-.09,2.21c0,.2.06.28.25.29l.14.06a2.16,2.16,0,0,0,2.51.06c1-.49.52-1.36.51-2.1l.13-1.32.78-.13a.32.32,0,0,0,.5-.16l2.71-1A13.46,13.46,0,0,1,89.68,136.58Z"/><path class="cls-3" d="M93.78,124.28a5,5,0,0,1-2.42-2c-.32-.65.18-1,.8-1a4,4,0,0,1,2.62,1.6.79.79,0,0,1,0,1A1,1,0,0,1,93.78,124.28Z"/><path class="cls-3" d="M84.28,123.5c-.22.77-.15,1.85-1.34,2-.89.1-1.13-.56-1.16-1.3,0-1.07.8-2.21,1.56-2.14C83.8,122.09,84.27,122.78,84.28,123.5Z"/><path class="cls-3" d="M89.84,126.53c.12-1.21,1-2.14,1.76-2a.9.9,0,0,1,.69,1.21c-.28.86-.34,2-1.69,2C89.63,127.75,89.88,127,89.84,126.53Z"/><path class="cls-2" d="M85.14,131.54l-.68-.14c.19-.85-.45-1.31-.88-1.87h0a28.31,28.31,0,0,0,5,1.2l-.13,1.32C87.26,131,86.28,130.82,85.14,131.54Z"/><path class="cls-3" d="M84,119.42c.73.07,1.54-.08,1.45.79-.12,1.23-1.32,1-2.09,1.16-.59.16-1.33-.11-1.26-.83C82.25,119.28,83.38,119.56,84,119.42Z"/><path class="cls-2" d="M76.21,123.77c-.58-.89-1-1.42-1.3-2s-.33-.92.2-1.17,1,.11,1.21.65A4.45,4.45,0,0,1,76.21,123.77Z"/><path class="cls-2" d="M82.39,129.46c.16-.7-.62-1.06-.63-1.7,1.22,0,1.24,1.16,1.8,1.78h0Z"/><path class="cls-2" d="M89.87,130.45a.32.32,0,0,1-.5.16Z"/><path class="cls-2" d="M74.18,46.08l-.68.58a1,1,0,0,0-.23,1.24c.15.47.56.43.93.37a.84.84,0,0,0,.72-1c0-.77.12-1.4,1.08-1.28s.8.77.84,1.38c.13,1.71-.11,2-1.83,2.51-2.62.71-3.21.38-3.75-2.17-.28-1.31-.49-2.63-.76-4.13-.68.51-.43,1.1-.34,1.62.3,1.63.63,3.24.92,4.87.1.57.28,1.18-.35,1.63s-1.22-.22-1.54-.15c-1.57.32-2.91-1.59-4.55-.31a1.1,1.1,0,0,1-1.73-.46c-.29-.78.46-1,1-1.22s1.22-.59,1.81-.92a.62.62,0,0,0,.34-.75.63.63,0,0,0-.68-.47c-.6.05-1.19.25-1.78.24s-1.24-.09-1.32-.9.55-.73,1-.81a1.64,1.64,0,0,0,.22,0c.78-.24,2.2,0,2-1.13-.15-.87-1.26.16-2,0a6.77,6.77,0,0,0-.9,0c-.38,0-.77-.11-.82-.6a.81.81,0,0,1,.61-.84,2.7,2.7,0,0,1,1.31-.26,5.05,5.05,0,0,0,3.47-1c-1.24-.36-2.25.51-3.37.38-.45-.05-1,0-1.11-.52s.25-1,.79-1.15c1.24-.3,2.51-.5,3.75-.8,1.75-.43,3.48-.93,5.24-1.36.5-.12,1.12-.19,1.35.46s-.41.89-.82,1.16c-.78.5-1.91.27-2.71,1.27a3,3,0,0,0,2.05.17c.28-.07.56-.39.8-.36.75.1,2-.42,2.14.53s-1,.83-1.71,1c-1.52.35-1.54.43-.61,2A1.32,1.32,0,0,1,74.18,46.08Z"/><path class="cls-2" d="M81.73,48.51A1.26,1.26,0,0,0,80,48.15a2.36,2.36,0,0,1-1.46.47.85.85,0,0,1-.79-.67.68.68,0,0,1,.36-.75c.65-.36,1.34-.64,2-1,1.31-.7,1.31-.75.08-1.94-.51.14-1.17-.29-1.51.43-.59.19-1.09.09-1.18-.6s.33-.78.82-.87c.65-.12,1.4,0,1.88-.59.11-.14.06-.41.1-.73-.93.08-1.81.18-2.69.24-.39,0-.77-.09-.87-.53a.75.75,0,0,1,.65-1,10.44,10.44,0,0,1,2-.18c.48,0,.91,0,1.09-.53a4.74,4.74,0,0,0-1.76-.07c-.56,0-1.11,0-1.13-.75,0-.54.39-.76.87-.87,1.31-.31,2.61-.71,3.94-.94C84,37,85.58,36.43,87.19,36c.49-.11,1.12-.23,1.36.41s-.31,1.11-.88,1.32-1.44.42-2.17.63c-.25-.52-.79-.72-.88-.12s.16,1.52,1.23,1.46c.79-.05,1.07.35.93,1.1.62.13.19,1.73,1.43,1,.69-.39,1.66-1,2.1-.13S89.69,43,89,43.41c-.45.09-1.17-.32-1.21.54,0,.65-.36,1.43.18,1.92.26.24,1.1.7,1.29-.33A2.48,2.48,0,0,0,89.93,44a.84.84,0,0,1,1.49-.34A2.32,2.32,0,0,1,90.49,47c-3.34,1.16-3.94.82-4.68-2.66a6,6,0,0,0-.25-.82s-.14,0-.37,0c-.17,1,.44,1.79.47,2.69a13.42,13.42,0,0,0,.27,1.78c.11.78-.41,1.12-1,1.24s-.8-.54-.89-1c-.37-1.92-.69-3.84-1-5.77-.06-.38-.1-.74-.51-1-.46.5.14,1.18-.26,1.68C82,44.91,82.63,46.78,81.73,48.51Z"/><path class="cls-2" d="M92.8,90.67a2.16,2.16,0,0,0-2,.31,5.58,5.58,0,0,1-2.4.45,1,1,0,0,1-1.23-.91c-.12-.78-.4-1.62.49-2.17.12-.08.3,0,.44-.11a6.11,6.11,0,0,1,2.76-.16c.66,0,1.57-1,2.53-1.09a1.74,1.74,0,0,1,1.86,2c-.06,1-.91,1.53-1.88,1.73A1.74,1.74,0,0,1,92.8,90.67Z"/><path class="cls-2" d="M108.09,87.24A1.79,1.79,0,0,1,106,85.37c-.06-1,1-1.77,2.44-1.86.86-.06,1.94,1.11,1.86,2.37C110.17,87.32,108.7,86.83,108.09,87.24Z"/><path class="cls-3" d="M122.9,82.37c0,1.25-.56,2.18-1.39,1.86s-1.42-1.41-2.12-2.17A3.74,3.74,0,0,1,121.54,81,1.31,1.31,0,0,1,122.9,82.37Z"/><path class="cls-2" d="M112.58,86a1.66,1.66,0,0,1-1.83-1.77c0-1.2.85-1.42,1.84-1.42a1.88,1.88,0,0,1,1.75,2.11C114.27,86.17,113.27,85.9,112.58,86Z"/><path class="cls-3" d="M105.39,87.83c-.84-1.15-1.37-.23-2-.17-1.29.13-1.74-.2-1.62-1.42,0-.28-.06-1.78.87-.36.16.23.41,0,.61-.09,1.73-.61,1.73-.61,2,1.13C105.36,87.06,105.35,87.21,105.39,87.83Z"/><path class="cls-3" d="M86.24,91.87c-.51-.12-.92-1.18-1.37-.13-.35.82-.65.78-1.25.24s-.83-1-.11-1.61a2.79,2.79,0,0,0,.66-.56c.42-.65,1-.51,1.57-.36s.56.78.55,1.3S86.26,91.49,86.24,91.87Z"/><path class="cls-3" d="M86.78,40.84c.14-.75-.14-1.15-.93-1.1-1.07.06-1.33-.79-1.23-1.46s.63-.4.88.12c.67,1,1.61.28,2.41.34a7.07,7.07,0,0,0,1.51-.33c.46-.08.94,0,1,.56a.93.93,0,0,1-.73,1C88.76,40.28,87.64,40.13,86.78,40.84Z"/><path class="cls-3" d="M76.78,91.49c-.7.9,1.7,1.92-.24,2.72-1,.43-1.83.15-2.09-.92C74,91.54,75.55,91.74,76.78,91.49Z"/><path class="cls-3" d="M101.08,88.42c-.67.22-1.37.48-2.07.67-1.2.31-1.41.07-1.21-1.18,0-.36.07-.59.46-.36s.53.89.77,0c.11-.46.14-1.12.89-1.06s.64.73,1,1.12A.93.93,0,0,1,101.08,88.42Z"/><path class="cls-3" d="M81.73,48.51c.9-1.73.31-3.6.51-5.39a13,13,0,0,1,.93,4.34C83.26,48.48,82.89,49.08,81.73,48.51Z"/><path class="cls-3" d="M74.18,46.08A1.32,1.32,0,0,0,73.05,45a.58.58,0,0,1,.15-.16C74,44.39,75,43,75.76,44.07,76.37,44.9,74.94,45.55,74.18,46.08Z"/><path class="cls-3" d="M89.25,45.54c-.19,1-1,.57-1.29.33-.54-.49-.2-1.27-.18-1.92,0-.86.76-.45,1.21-.54-.71.33-1.22.76-1,1.66S88.78,45.55,89.25,45.54Z"/><path class="cls-3" d="M126.26,81.72c-.62.21-1.05.3-1.29,0s-.18-.63-.28-1C125.4,80.79,125.6,81.42,126.26,81.72Z"/><path class="cls-3" d="M78.65,44.7c.34-.72,1-.29,1.51-.43A2.61,2.61,0,0,1,78.65,44.7Z"/><path class="cls-3" d="M80.05,93a7.29,7.29,0,0,1-.12-.92s.24-.16.31-.13c.35.19.18.51.12.78C80.34,92.82,80.21,92.87,80.05,93Z"/><path class="cls-3" d="M66.16,24.36c-.76.05-1.19-.12-1.23-.8a.91.91,0,0,1,1-1.12c.67,0,.91.31.92.93S66.68,24.39,66.16,24.36Z"/><path class="cls-2" d="M30.71,10.16h0c.6.87,1.49.49,2.29.53,2.13.11,4.31-.38,6.33.87a3.55,3.55,0,0,1,1.22,1.09A6.41,6.41,0,0,0,42.89,15c1.26.53,1.12,1.82,1.91,2.54a.76.76,0,0,1-.24,1.16c-.48.17-1.1.16-1.27-.53s-.1-1.28-1-1.14l0,0c0-.39,0-.83-.46-.89a13.3,13.3,0,0,0-6.35,1c-.12,0-.2.2-.29.32C34.06,19,33,19,32.47,17.37a1.65,1.65,0,0,0-2-1.26c-1.56.07-3.16-.18-4.59.76a1.37,1.37,0,0,1-1.57-.05,9.25,9.25,0,0,1,2.94-4.18c.63-.5,1.18-1.13,2.13-1S30.51,10.86,30.71,10.16Z"/><path class="cls-2" d="M40.49,30.65c-.53,1.8-2.34,2.17-3.62,2.41-2.52.47-5.21.61-7.63-.77a12.09,12.09,0,0,1-4.65-3.95c-.41-.66-.82-1.78-.19-2,.93-.32,1.69-1.29,2.82-1,.6.16.49.69.49,1.11,0,.91.05,1.66,1.29,1.6,1-.05,1.62-.32,1.5-1.44s.5-1.27,1.5-1.3c2.26-.07,4.51,0,6.77.05l0,1.64c0,1.22-.29,2-1.75,1.85-.47-.05-1.18-.13-.88.78.07.21.15.52.3.57.54.18.19-.33.32-.49.66-.81,1.57-.76,1.86.07.39,1.11,1.13.69,1.78.81Z"/><path class="cls-2" d="M40.44,30.61c-.4-1.5.59-2.67,1-3.95.36-1.06,1.46-.7,2.13-.47.87.29.52,1.08.12,1.64-.86,1.18-1.17,3-3.22,2.82Z"/><path class="cls-2" d="M24.53,22l.12.52c-.26.36-.49.79-1,.7s-.41-.55-.39-.89-.13-1,.31-1.55C24.25,20.9,23.93,21.89,24.53,22Z"/><path class="cls-2" d="M85.44,134.1l2.51.06A2.16,2.16,0,0,1,85.44,134.1Z"/><path class="cls-2" d="M85.05,133.75a3.47,3.47,0,0,1,.25.29C85.11,134,85,134,85.05,133.75Z"/><path class="cls-3" d="M37.6,21.42c0-.54,0-1.29.67-1.14.89.18.46,1.08.53,1.67,0,.39.12,1-.51,1C37.22,22.86,37.77,21.93,37.6,21.42Z"/></g></svg>