<?xml version="1.0" encoding="utf-8"?>
<!-- Generator: Adobe Illustrator 22.0.1, SVG Export Plug-In . SVG Version: 6.00 Build 0)  -->
<svg version="1.1" id="圖層_1" xmlns="http://www.w3.org/2000/svg" xmlns:xlink="http://www.w3.org/1999/xlink" x="0px" y="0px"
	 viewBox="0 0 379 165.8" style="enable-background:new 0 0 379 165.8;" xml:space="preserve">
<style type="text/css">
	.st0{opacity:0.8;fill:#F4AA40;stroke:#FFFFFF;}
	.st1{opacity:0.8;fill:#F96806;stroke:#FFFFFF;}
	.st2{fill:#F2F20A;stroke:#FFFFFF;stroke-width:0.75;}
	.st3{fill:#5AE2DB;stroke:#FFFFFF;}
	.st4{fill:none;stroke:#000000;stroke-width:0.25;stroke-miterlimit:10;}
	.st5{fill:none;stroke:#000000;stroke-miterlimit:10;}
	.st6{stroke:#000000;stroke-width:0.5;stroke-miterlimit:10;}
	.st7{fill:#E6E6E6;}
	.st8{fill:#5AE2DB;}
	.st9{fill:#E20598;}
	.st10{fill:none;stroke:#5B5A5A;stroke-width:0.3;stroke-miterlimit:10;}
	.st11{fill:#FFAA00;stroke:#FFFFFF;}
	.st12{fill:#FFAA00;stroke:#FFFFFF;stroke-width:0.75;}
	.st13{fill:#FF4800;stroke:#FFFFFF;stroke-width:0.75;}
	.st14{opacity:0.8;fill:#F9E235;stroke:#FFFFFF;}
	.st15{opacity:0.8;fill:none;stroke:#5B5A5A;stroke-width:0.3;stroke-miterlimit:10;}
	.st16{opacity:0.8;}
	.st17{fill:#F96806;stroke:#FFFFFF;}
	.st18{opacity:0.8;fill:#FF2A00;stroke:#FFFFFF;}
	.st19{fill:#FF2A00;stroke:#FFFFFF;}
	.st20{opacity:0.8;fill:#C91F02;stroke:#FFFFFF;}
	.st21{fill:#C91F02;stroke:#FFFFFF;}
	.st22{fill:#00FFF7;stroke:#FFFFFF;}
	.st23{fill:#A0FF61;stroke:#FFFFFF;}
	.st24{fill:#F9E235;stroke:#FFFFFF;}
	.st25{fill:#F4AA40;stroke:#FFFFFF;}
	.st26{fill:#F2F20A;}
	.st27{fill:#FFAA00;}
	.st28{fill:#FF4800;}
	.st29{fill:#FF2A00;stroke:#000000;stroke-width:2;}
	.st30{fill:#FF2A00;}
	.st31{fill:none;stroke:#000000;stroke-width:2;}
	.st32{fill:#7C7C7C;}
	.st33{opacity:0.8;fill:#A0FF61;stroke:#FFFFFF;}
	.st34{fill:#DFDFDF;stroke:#000000;stroke-width:0.5;stroke-miterlimit:10;}
	.st35{fill:none;stroke:#000000;stroke-width:0.25;stroke-miterlimit:10;stroke-dasharray:2.7941,1.8627,2.7941,1.8627;}
	
		.st36{fill:none;stroke:#000000;stroke-width:0.25;stroke-miterlimit:10;stroke-dasharray:2.7941,1.8627,2.7941,1.8627,2.7941,1.8627;}
	.st37{fill:none;stroke:#000000;stroke-width:0.25;stroke-miterlimit:10;stroke-dasharray:3.2414,2.1609,3.2414,2.1609;}
	
		.st38{fill:none;stroke:#000000;stroke-width:0.25;stroke-miterlimit:10;stroke-dasharray:3.2414,2.1609,3.2414,2.1609,3.2414,2.1609;}
	.st39{fill:none;stroke:#000000;stroke-width:0.5;stroke-miterlimit:10;}
	.st40{fill:url(#SVGID_1_);}
	.st41{fill:none;stroke:#FF0000;stroke-miterlimit:10;}
	.st42{fill:#FF2A00;stroke:#000000;stroke-width:2.5;}
	.st43{fill:#F4AA40;stroke:#000000;stroke-width:2.5;}
	.st44{fill:none;stroke:#9B9998;stroke-width:0.3;stroke-miterlimit:10;}
</style>
<g>
	<g>
		<path d="M28.2,49.8c-2.7,0.9-4.9,1.6-6.5,2L21.4,51c1.3-0.3,2.7-0.7,4.2-1.2v-5.7h-4v-0.8h4v-4.6h0.8v10.9
			c0.5-0.1,1.1-0.4,1.8-0.6V49.8z M34.4,47.8c0,0.6-0.1,1.2-0.1,1.8c-0.1,0.6-0.2,1-0.2,1.2c-0.1,0.2-0.2,0.3-0.3,0.4
			c-0.1,0.1-0.3,0.2-0.5,0.3c-0.2,0-0.6,0.1-1.3,0.1c-1.2,0-1.9,0-2.1-0.1c-0.2-0.1-0.4-0.2-0.5-0.4c-0.1-0.2-0.1-0.4-0.1-0.7V38.7
			H30v4.7h4.3v0.8H30v6.2c0,0.1,0.1,0.2,0.2,0.3s0.7,0.1,1.6,0.1c0.7,0,1.1,0,1.2-0.1c0.1-0.1,0.2-0.1,0.3-0.3
			c0.1-0.1,0.2-0.5,0.2-1c0.1-0.5,0.1-1.2,0.1-1.9L34.4,47.8z"/>
		<path d="M44.1,45h-7.6v-0.7h2.1c-0.2-0.8-0.5-1.8-0.9-2.7l0.6-0.4h-1.5v-0.7h3.3c-0.2-0.4-0.4-0.9-0.8-1.5l0.7-0.3
			c0.3,0.4,0.6,1,1,1.8h2.9v0.7h-1.5l0.6,0.4c-0.3,1-0.6,1.9-1,2.8h2.2V45z M43.3,51.8h-0.8v-1h-4.2v1h-0.8v-5.2h5.8V51.8z M42.5,50
			v-2.7h-4.2V50H42.5z M42.2,41.1h-3.8c0.4,1.1,0.8,2.2,1,3.2h1.7C41.6,43.4,41.9,42.3,42.2,41.1z M48,44.5c1,1.3,1.5,2.5,1.5,3.8
			c0,0.7-0.2,1.1-0.5,1.4c-0.3,0.3-0.9,0.4-1.8,0.4c-0.2,0-0.3,0-0.5,0l-0.2-0.8c0.2,0,0.5,0,0.8,0c0.4,0,0.7,0,0.9-0.1
			c0.2-0.1,0.3-0.2,0.4-0.4c0.1-0.2,0.2-0.4,0.2-0.8c0-1.1-0.5-2.3-1.6-3.5c0.5-1.5,1-3,1.4-4.6h-2.9v11.8h-0.7V39.2h4.4V40
			C48.8,41.6,48.4,43.1,48,44.5z"/>
	</g>
</g>
<g>
	<g>
		<path d="M34.5,61.8h-6.1v1.8h5.4v8c0,0.3-0.1,0.5-0.3,0.7c-0.2,0.2-0.6,0.3-1.3,0.3c-0.3,0-0.7,0-1,0l-0.3-0.8
			c0.4,0,0.8,0.1,1.1,0.1c0.4,0,0.7,0,0.8-0.1c0.1-0.1,0.2-0.2,0.2-0.4v-7.1h-9.9v8.3h-0.7v-9.1h5.2v-1.8h-6.1l0-0.8h6.1v-1.5h0.8
			v1.5h6.1V61.8z M32.1,69.6h-3.7v2.5h-0.8v-2.5h-3.8v-0.8h3.8v-1.5h-3.1v-0.8h1.7c-0.2-0.6-0.5-1.1-0.8-1.6l0.7-0.4
			c0.4,0.7,0.7,1.4,1,2h1.9c0.4-0.6,0.7-1.3,0.9-1.9l0.8,0.2c-0.2,0.6-0.5,1.2-0.8,1.7h1.8v0.8h-3.2v1.5h3.7V69.6z"/>
		<path d="M44.1,65.9h-7.6v-0.7h2.1c-0.2-0.8-0.5-1.8-0.9-2.7l0.6-0.4h-1.5v-0.7h3.3c-0.2-0.4-0.4-0.9-0.8-1.5l0.7-0.3
			c0.3,0.4,0.6,1,1,1.8h2.9V62h-1.5l0.6,0.4c-0.3,1-0.6,1.9-1,2.8h2.2V65.9z M43.3,72.6h-0.8v-1h-4.2v1h-0.8v-5.2h5.8V72.6z
			 M42.5,70.9v-2.7h-4.2v2.7H42.5z M42.2,62h-3.8c0.4,1.1,0.8,2.2,1,3.2h1.7C41.6,64.3,41.9,63.2,42.2,62z M48,65.3
			c1,1.3,1.5,2.5,1.5,3.8c0,0.6-0.2,1.1-0.5,1.4c-0.3,0.3-0.9,0.4-1.8,0.4c-0.2,0-0.3,0-0.5,0l-0.2-0.8c0.2,0,0.5,0,0.8,0
			c0.4,0,0.7,0,0.9-0.1c0.2-0.1,0.3-0.2,0.4-0.4c0.1-0.2,0.2-0.4,0.2-0.8c0-1.1-0.5-2.3-1.6-3.5c0.5-1.5,1-3,1.4-4.6h-2.9v11.8h-0.7
			V60.1h4.4v0.8C48.8,62.4,48.4,63.9,48,65.3z"/>
	</g>
</g>
<g>
	<g>
		<path d="M28.2,131.8c-2.7,0.9-4.9,1.6-6.5,2l-0.2-0.8c1.3-0.3,2.7-0.7,4.2-1.2v-5.7h-4v-0.8h4v-4.6h0.8v10.9
			c0.5-0.1,1.1-0.4,1.8-0.6V131.8z M34.4,129.8c0,0.6-0.1,1.2-0.1,1.8c-0.1,0.6-0.2,1-0.2,1.2c-0.1,0.2-0.2,0.3-0.3,0.4
			c-0.1,0.1-0.3,0.2-0.5,0.3c-0.2,0-0.6,0.1-1.3,0.1c-1.2,0-1.9,0-2.1-0.1c-0.2-0.1-0.4-0.2-0.5-0.4c-0.1-0.2-0.1-0.4-0.1-0.7v-11.6
			H30v4.7h4.3v0.8H30v6.2c0,0.1,0.1,0.2,0.2,0.3s0.7,0.1,1.6,0.1c0.7,0,1.1,0,1.2-0.1c0.1-0.1,0.2-0.1,0.3-0.3
			c0.1-0.1,0.2-0.5,0.2-1c0.1-0.5,0.1-1.2,0.1-1.9L34.4,129.8z"/>
		<path d="M44.1,127h-7.6v-0.7h2.1c-0.2-0.8-0.5-1.8-0.9-2.7l0.6-0.4h-1.5v-0.7h3.3c-0.2-0.4-0.4-0.9-0.8-1.5l0.7-0.3
			c0.3,0.4,0.6,1,1,1.8h2.9v0.7h-1.5l0.6,0.4c-0.3,1-0.6,1.9-1,2.8h2.2V127z M43.3,133.8h-0.8v-1h-4.2v1h-0.8v-5.2h5.8V133.8z
			 M42.5,132v-2.7h-4.2v2.7H42.5z M42.2,123.1h-3.8c0.4,1.1,0.8,2.2,1,3.2h1.7C41.6,125.4,41.9,124.3,42.2,123.1z M48,126.5
			c1,1.3,1.5,2.5,1.5,3.8c0,0.7-0.2,1.1-0.5,1.4c-0.3,0.3-0.9,0.4-1.8,0.4c-0.2,0-0.3,0-0.5,0l-0.2-0.8c0.2,0,0.5,0,0.8,0
			c0.4,0,0.7,0,0.9-0.1c0.2-0.1,0.3-0.2,0.4-0.4c0.1-0.2,0.2-0.4,0.2-0.8c0-1.1-0.5-2.3-1.6-3.5c0.5-1.5,1-3,1.4-4.6h-2.9v11.8h-0.7
			v-12.6h4.4v0.8C48.8,123.6,48.4,125.1,48,126.5z"/>
	</g>
</g>
<g>
	<g>
		<path d="M34.5,143.8h-6.1v1.8h5.4v8c0,0.3-0.1,0.5-0.3,0.7c-0.2,0.2-0.6,0.3-1.3,0.3c-0.3,0-0.7,0-1,0l-0.3-0.8
			c0.4,0,0.8,0.1,1.1,0.1c0.4,0,0.7,0,0.8-0.1c0.1-0.1,0.2-0.2,0.2-0.4v-7.1h-9.9v8.3h-0.7v-9.1h5.2v-1.8h-6.1l0-0.8h6.1v-1.5h0.8
			v1.5h6.1V143.8z M32.1,151.6h-3.7v2.5h-0.8v-2.5h-3.8v-0.8h3.8v-1.5h-3.1v-0.8h1.7c-0.2-0.6-0.5-1.1-0.8-1.6l0.7-0.4
			c0.4,0.7,0.7,1.4,1,2h1.9c0.4-0.6,0.7-1.3,0.9-1.9l0.8,0.2c-0.2,0.6-0.5,1.2-0.8,1.7h1.8v0.8h-3.2v1.5h3.7V151.6z"/>
		<path d="M44.1,147.9h-7.6v-0.7h2.1c-0.2-0.8-0.5-1.8-0.9-2.7l0.6-0.4h-1.5v-0.7h3.3c-0.2-0.4-0.4-0.9-0.8-1.5l0.7-0.3
			c0.3,0.4,0.6,1,1,1.8h2.9v0.7h-1.5l0.6,0.4c-0.3,1-0.6,1.9-1,2.8h2.2V147.9z M43.3,154.6h-0.8v-1h-4.2v1h-0.8v-5.2h5.8V154.6z
			 M42.5,152.9v-2.7h-4.2v2.7H42.5z M42.2,144h-3.8c0.4,1.1,0.8,2.2,1,3.2h1.7C41.6,146.3,41.9,145.2,42.2,144z M48,147.3
			c1,1.3,1.5,2.5,1.5,3.8c0,0.6-0.2,1.1-0.5,1.4c-0.3,0.3-0.9,0.4-1.8,0.4c-0.2,0-0.3,0-0.5,0l-0.2-0.8c0.2,0,0.5,0,0.8,0
			c0.4,0,0.7,0,0.9-0.1c0.2-0.1,0.3-0.2,0.4-0.4c0.1-0.2,0.2-0.4,0.2-0.8c0-1.1-0.5-2.3-1.6-3.5c0.5-1.5,1-3,1.4-4.6h-2.9v11.8h-0.7
			v-12.6h4.4v0.8C48.8,144.4,48.4,145.9,48,147.3z"/>
	</g>
</g>
<g>
	<g>
		<rect x="56.1" y="60" class="st8" width="252.8" height="15"/>
	</g>
</g>
<g>
	<g>
		<rect x="56.1" y="37.3" class="st8" width="176.5" height="15"/>
	</g>
</g>
<g>
	<g>
		<rect x="56.1" y="141.8" class="st8" width="242.3" height="15"/>
	</g>
</g>
<g>
	<g>
		<rect x="56.1" y="119.2" class="st8" width="154.5" height="15"/>
	</g>
</g>
<g>
	<g>
		<path d="M319.1,10.7H313v1.8h5.4v8c0,0.3-0.1,0.5-0.3,0.7c-0.2,0.2-0.6,0.3-1.3,0.3c-0.3,0-0.7,0-1,0l-0.3-0.8
			c0.4,0,0.8,0.1,1.1,0.1c0.4,0,0.7,0,0.8-0.1c0.1-0.1,0.2-0.2,0.2-0.4v-7.1h-9.9v8.3H307v-9.1h5.2v-1.8h-6.1l0-0.8h6.1V8.5h0.8v1.5
			h6.1V10.7z M316.7,18.5H313v2.5h-0.8v-2.5h-3.8v-0.8h3.8v-1.5H309v-0.8h1.7c-0.2-0.6-0.5-1.1-0.8-1.6l0.7-0.4c0.4,0.7,0.7,1.4,1,2
			h1.9c0.4-0.6,0.7-1.3,0.9-1.9l0.8,0.2c-0.2,0.6-0.5,1.2-0.8,1.7h1.8v0.8H313v1.5h3.7V18.5z"/>
		<path d="M327.8,19.6c-2.7,0.9-4.9,1.6-6.5,2l-0.2-0.8c1.3-0.3,2.7-0.7,4.2-1.2v-5.7h-4v-0.8h4V8.4h0.8v10.9
			c0.5-0.1,1.1-0.4,1.8-0.6V19.6z M334,17.6c0,0.6-0.1,1.2-0.1,1.8c-0.1,0.6-0.2,1-0.2,1.2c-0.1,0.2-0.2,0.3-0.3,0.4
			c-0.1,0.1-0.3,0.2-0.5,0.3c-0.2,0-0.6,0.1-1.3,0.1c-1.2,0-1.9,0-2.1-0.1c-0.2-0.1-0.4-0.2-0.5-0.4c-0.1-0.2-0.1-0.4-0.1-0.7V8.4
			h0.8v4.7h4.3v0.8h-4.3v6.2c0,0.1,0.1,0.2,0.2,0.3c0.1,0.1,0.7,0.1,1.6,0.1c0.7,0,1.1,0,1.2-0.1c0.1-0.1,0.2-0.1,0.3-0.3
			c0.1-0.1,0.2-0.5,0.2-1c0.1-0.5,0.1-1.2,0.1-1.9L334,17.6z"/>
		<path d="M349.1,15.8H340c-0.1,2.3-1.2,4.1-3.3,5.4l-0.6-0.6c2-1.1,3-2.7,3.1-4.8h-3v-0.7h6.1v-1.6h-5.1v-0.7h5.1v-1.6h-5.6v-0.7
			h12v0.7h-5.7v1.6h5.1v0.7h-5.1v1.6h6.1V15.8z M349.2,21.3H339v-0.7h4.7v-2.4h-3.4v-0.8h8.1v0.8h-3.9v2.4h4.6V21.3z M341.1,9.7
			l-0.7,0.4c-0.3-0.4-0.8-0.9-1.4-1.3l0.6-0.5C340.3,8.8,340.8,9.3,341.1,9.7z M346.6,8.8c-0.5,0.6-1,1-1.5,1.3l-0.6-0.5
			c0.6-0.4,1.1-0.8,1.5-1.3L346.6,8.8z"/>
		<path d="M356.8,16.2h-2.1v3.4c0.6-0.2,1.3-0.5,2.1-0.8v0.8c-1.6,0.7-3.4,1.3-5.5,1.8l-0.3-0.7c0.3-0.1,0.6-0.2,0.8-0.2v-5.9h0.8
			v5.7c0.5-0.1,1-0.3,1.4-0.4v-6.5h-2.1V8.9h4.6v4.5h-1.7v2h2.1V16.2z M355.6,12.7v-3h-3v3H355.6z M364.2,21.2h-7.2v-0.8h1.2V9.5
			h-0.8V8.8h6.8v0.7h-5.1v2.9h4.5v4.7h-4.5v3.3h5.2V21.2z M362.6,16.4v-3.2h-3.7v3.2H362.6z"/>
	</g>
</g>
<g>
	<path class="st8" d="M353.9,69v-1.1h3.5V69H353.9z"/>
	<path class="st8" d="M360.2,66.7c-0.5-0.2-0.8-0.4-1.1-0.7s-0.3-0.7-0.3-1.2c0-0.7,0.2-1.2,0.7-1.7c0.5-0.5,1.1-0.7,1.9-0.7
		c0.8,0,1.5,0.2,2,0.7s0.7,1,0.7,1.7c0,0.4-0.1,0.8-0.3,1.1s-0.6,0.6-1,0.7c0.6,0.2,1,0.5,1.3,0.9c0.3,0.4,0.4,0.9,0.4,1.5
		c0,0.8-0.3,1.5-0.8,2c-0.6,0.5-1.3,0.8-2.2,0.8s-1.7-0.3-2.2-0.8s-0.8-1.2-0.8-2c0-0.6,0.2-1.1,0.5-1.5S359.6,66.9,360.2,66.7z
		 M359.6,69.1c0,0.3,0.1,0.6,0.2,0.9s0.4,0.5,0.7,0.7s0.6,0.3,1,0.3c0.5,0,1-0.2,1.4-0.5s0.5-0.8,0.5-1.3c0-0.6-0.2-1-0.5-1.4
		s-0.8-0.5-1.4-0.5c-0.5,0-1,0.2-1.3,0.5S359.6,68.6,359.6,69.1z M359.9,64.8c0,0.4,0.1,0.8,0.4,1.1c0.3,0.3,0.7,0.4,1.1,0.4
		c0.4,0,0.8-0.1,1.1-0.4s0.4-0.6,0.4-1c0-0.4-0.1-0.8-0.4-1.1c-0.3-0.3-0.7-0.4-1.1-0.4c-0.4,0-0.8,0.1-1.1,0.4
		S359.9,64.4,359.9,64.8z"/>
</g>
<g>
	<path d="M207.1,50.8h-1.3v-8.4c-0.3,0.3-0.7,0.6-1.2,0.9c-0.5,0.3-1,0.5-1.4,0.7v-1.3c0.7-0.3,1.4-0.8,1.9-1.3s0.9-1,1.2-1.4h0.8
		V50.8z"/>
	<path d="M212.5,45c-0.5-0.2-1-0.5-1.2-0.9s-0.4-0.8-0.4-1.3c0-0.8,0.3-1.4,0.8-2c0.6-0.5,1.3-0.8,2.2-0.8c0.9,0,1.7,0.3,2.3,0.8
		c0.6,0.5,0.9,1.2,0.9,2c0,0.5-0.1,0.9-0.4,1.3c-0.3,0.4-0.7,0.7-1.2,0.9c0.7,0.2,1.2,0.6,1.5,1c0.3,0.5,0.5,1.1,0.5,1.7
		c0,0.9-0.3,1.7-1,2.3S215.1,51,214,51s-1.9-0.3-2.6-0.9c-0.6-0.6-1-1.4-1-2.3c0-0.7,0.2-1.3,0.5-1.8
		C211.4,45.5,211.9,45.1,212.5,45z M211.8,47.7c0,0.4,0.1,0.7,0.3,1.1c0.2,0.4,0.4,0.6,0.8,0.8c0.4,0.2,0.7,0.3,1.1,0.3
		c0.6,0,1.2-0.2,1.6-0.6s0.6-0.9,0.6-1.5c0-0.6-0.2-1.2-0.6-1.6c-0.4-0.4-1-0.6-1.6-0.6c-0.6,0-1.1,0.2-1.5,0.6
		C212,46.6,211.8,47.1,211.8,47.7z M212.3,42.7c0,0.5,0.2,0.9,0.5,1.2c0.3,0.3,0.8,0.5,1.3,0.5c0.5,0,0.9-0.2,1.2-0.5
		c0.3-0.3,0.5-0.7,0.5-1.2c0-0.5-0.2-0.9-0.5-1.2c-0.3-0.3-0.8-0.5-1.2-0.5c-0.5,0-0.9,0.2-1.3,0.5S212.3,42.3,212.3,42.7z"/>
	<path d="M219.6,50.8v-1.5h1.5v1.5H219.6z"/>
	<path d="M223,48l1.4-0.1c0.1,0.7,0.3,1.2,0.7,1.5c0.4,0.3,0.8,0.5,1.4,0.5c0.6,0,1.2-0.2,1.6-0.7c0.4-0.5,0.7-1.1,0.7-1.9
		c0-0.8-0.2-1.3-0.6-1.8c-0.4-0.4-1-0.7-1.7-0.7c-0.4,0-0.8,0.1-1.2,0.3c-0.3,0.2-0.6,0.4-0.8,0.8l-1.2-0.2l1-5.5h5.3v1.3h-4.3
		l-0.6,2.9c0.6-0.4,1.3-0.7,2-0.7c0.9,0,1.7,0.3,2.4,1s1,1.5,1,2.5c0,1-0.3,1.8-0.8,2.5c-0.7,0.9-1.6,1.3-2.8,1.3
		c-1,0-1.8-0.3-2.4-0.8C223.4,49.6,223.1,48.9,223,48z"/>
</g>
<g>
	<path d="M183.1,131.8h-1.3v-8.4c-0.3,0.3-0.7,0.6-1.2,0.9c-0.5,0.3-1,0.5-1.4,0.7v-1.3c0.7-0.3,1.4-0.8,1.9-1.3s0.9-1,1.2-1.4h0.8
		V131.8z"/>
	<path d="M193.3,123.7l-1.3,0.1c-0.1-0.5-0.3-0.9-0.5-1.1c-0.4-0.4-0.8-0.6-1.3-0.6c-0.4,0-0.8,0.1-1.1,0.4c-0.4,0.3-0.7,0.7-1,1.3
		s-0.4,1.4-0.4,2.5c0.3-0.5,0.7-0.8,1.2-1.1s0.9-0.4,1.4-0.4c0.9,0,1.6,0.3,2.2,1c0.6,0.6,0.9,1.5,0.9,2.5c0,0.7-0.1,1.3-0.4,1.9
		c-0.3,0.6-0.7,1-1.2,1.3s-1.1,0.5-1.7,0.5c-1.1,0-2-0.4-2.7-1.2c-0.7-0.8-1-2.1-1-4c0-2.1,0.4-3.6,1.1-4.5c0.7-0.8,1.6-1.2,2.7-1.2
		c0.8,0,1.5,0.2,2.1,0.7C192.9,122.2,193.2,122.9,193.3,123.7z M187.9,128.3c0,0.5,0.1,0.9,0.3,1.3c0.2,0.4,0.5,0.7,0.8,0.9
		c0.3,0.2,0.7,0.3,1.1,0.3c0.6,0,1-0.2,1.4-0.7s0.6-1.1,0.6-1.8c0-0.7-0.2-1.3-0.6-1.8c-0.4-0.4-0.9-0.6-1.5-0.6
		c-0.6,0-1.1,0.2-1.5,0.6C188.2,127.1,187.9,127.6,187.9,128.3z"/>
	<path d="M195.6,131.8v-1.5h1.5v1.5H195.6z"/>
	<path d="M205.9,130.5v1.3h-7.1c0-0.3,0-0.6,0.2-0.9c0.2-0.5,0.5-1,0.9-1.4c0.4-0.5,1-1,1.7-1.6c1.2-1,2-1.7,2.4-2.3
		c0.4-0.6,0.6-1.1,0.6-1.6c0-0.5-0.2-1-0.6-1.3c-0.4-0.4-0.9-0.5-1.5-0.5c-0.6,0-1.1,0.2-1.5,0.6s-0.6,0.9-0.6,1.6l-1.4-0.1
		c0.1-1,0.4-1.8,1-2.3c0.6-0.5,1.4-0.8,2.4-0.8c1,0,1.8,0.3,2.4,0.9c0.6,0.6,0.9,1.3,0.9,2.1c0,0.4-0.1,0.9-0.3,1.3
		s-0.5,0.9-0.9,1.3c-0.4,0.5-1.1,1.1-2,1.9c-0.8,0.7-1.3,1.1-1.5,1.4c-0.2,0.2-0.4,0.5-0.6,0.7H205.9z"/>
</g>
<g>
	<path d="M273.1,153.5v1.3H266c0-0.3,0-0.6,0.2-0.9c0.2-0.5,0.5-1,0.9-1.4c0.4-0.5,1-1,1.7-1.6c1.2-1,2-1.7,2.4-2.3
		c0.4-0.6,0.6-1.1,0.6-1.6c0-0.5-0.2-1-0.6-1.3c-0.4-0.4-0.9-0.5-1.5-0.5c-0.6,0-1.1,0.2-1.5,0.6s-0.6,0.9-0.6,1.6l-1.4-0.1
		c0.1-1,0.4-1.8,1-2.3c0.6-0.5,1.4-0.8,2.4-0.8c1,0,1.8,0.3,2.4,0.9c0.6,0.6,0.9,1.3,0.9,2.1c0,0.4-0.1,0.9-0.3,1.3
		s-0.5,0.9-0.9,1.3c-0.4,0.5-1.1,1.1-2,1.9c-0.8,0.7-1.3,1.1-1.5,1.4c-0.2,0.2-0.4,0.5-0.6,0.7H273.1z"/>
	<path d="M274.5,152l1.4-0.1c0.1,0.7,0.3,1.2,0.7,1.5c0.4,0.3,0.8,0.5,1.4,0.5c0.6,0,1.2-0.2,1.6-0.7c0.4-0.5,0.7-1.1,0.7-1.9
		c0-0.8-0.2-1.3-0.6-1.8c-0.4-0.4-1-0.7-1.7-0.7c-0.4,0-0.8,0.1-1.2,0.3c-0.3,0.2-0.6,0.4-0.8,0.8l-1.2-0.2l1-5.5h5.3v1.3h-4.3
		l-0.6,2.9c0.6-0.4,1.3-0.7,2-0.7c0.9,0,1.7,0.3,2.4,1s1,1.5,1,2.5c0,1-0.3,1.8-0.8,2.5c-0.7,0.9-1.6,1.3-2.8,1.3
		c-1,0-1.8-0.3-2.4-0.8C274.9,153.6,274.6,152.9,274.5,152z"/>
	<path d="M283.6,154.8v-1.5h1.5v1.5H283.6z"/>
	<path d="M291.2,154.8v-2.6h-4.7V151l4.9-7h1.1v7h1.5v1.2h-1.5v2.6H291.2z M291.2,151v-4.8l-3.4,4.8H291.2z"/>
</g>
<g>
	<path d="M283.1,71.5v1.3H276c0-0.3,0-0.6,0.2-0.9c0.2-0.5,0.5-1,0.9-1.4c0.4-0.5,1-1,1.7-1.6c1.2-1,2-1.7,2.4-2.3
		c0.4-0.6,0.6-1.1,0.6-1.6c0-0.5-0.2-1-0.6-1.3c-0.4-0.4-0.9-0.5-1.5-0.5c-0.6,0-1.1,0.2-1.5,0.6s-0.6,0.9-0.6,1.6l-1.4-0.1
		c0.1-1,0.4-1.8,1-2.3c0.6-0.5,1.4-0.8,2.4-0.8c1,0,1.8,0.3,2.4,0.9c0.6,0.6,0.9,1.3,0.9,2.1c0,0.4-0.1,0.9-0.3,1.3
		s-0.5,0.9-0.9,1.3c-0.4,0.5-1.1,1.1-2,1.9c-0.8,0.7-1.3,1.1-1.5,1.4c-0.2,0.2-0.4,0.5-0.6,0.7H283.1z"/>
	<path d="M291.3,64.7l-1.3,0.1c-0.1-0.5-0.3-0.9-0.5-1.1c-0.4-0.4-0.8-0.6-1.3-0.6c-0.4,0-0.8,0.1-1.1,0.4c-0.4,0.3-0.7,0.7-1,1.3
		s-0.4,1.4-0.4,2.5c0.3-0.5,0.7-0.8,1.2-1.1s0.9-0.4,1.4-0.4c0.9,0,1.6,0.3,2.2,1c0.6,0.6,0.9,1.5,0.9,2.5c0,0.7-0.1,1.3-0.4,1.9
		c-0.3,0.6-0.7,1-1.2,1.3s-1.1,0.5-1.7,0.5c-1.1,0-2-0.4-2.7-1.2c-0.7-0.8-1-2.1-1-4c0-2.1,0.4-3.6,1.1-4.5c0.7-0.8,1.6-1.2,2.7-1.2
		c0.8,0,1.5,0.2,2.1,0.7C290.9,63.2,291.2,63.9,291.3,64.7z M285.9,69.3c0,0.5,0.1,0.9,0.3,1.3c0.2,0.4,0.5,0.7,0.8,0.9
		c0.3,0.2,0.7,0.3,1.1,0.3c0.6,0,1-0.2,1.4-0.7s0.6-1.1,0.6-1.8c0-0.7-0.2-1.3-0.6-1.8c-0.4-0.4-0.9-0.6-1.5-0.6
		c-0.6,0-1.1,0.2-1.5,0.6C286.2,68.1,285.9,68.6,285.9,69.3z"/>
	<path d="M293.6,72.8v-1.5h1.5v1.5H293.6z"/>
	<path d="M297,70l1.4-0.1c0.1,0.7,0.3,1.2,0.7,1.5c0.4,0.3,0.8,0.5,1.4,0.5c0.6,0,1.2-0.2,1.6-0.7c0.4-0.5,0.7-1.1,0.7-1.9
		c0-0.8-0.2-1.3-0.6-1.8c-0.4-0.4-1-0.7-1.7-0.7c-0.4,0-0.8,0.1-1.2,0.3c-0.3,0.2-0.6,0.4-0.8,0.8l-1.2-0.2l1-5.5h5.3v1.3h-4.3
		l-0.6,2.9c0.6-0.4,1.3-0.7,2-0.7c0.9,0,1.7,0.3,2.4,1s1,1.5,1,2.5c0,1-0.3,1.8-0.8,2.5c-0.7,0.9-1.6,1.3-2.8,1.3
		c-1,0-1.8-0.3-2.4-0.8C297.4,71.6,297.1,70.9,297,70z"/>
</g>
<g>
	<path class="st8" d="M331.7,151.7v-1.8h5.6v1.8H331.7z"/>
	<path class="st8" d="M339.1,152.7l1.8-0.2c0.1,0.8,0.4,1.4,0.9,1.8c0.4,0.4,1,0.6,1.6,0.6c0.6,0,1.1-0.1,1.5-0.4s0.8-0.6,1-1
		s0.5-1,0.7-1.8s0.3-1.5,0.3-2.2c0-0.1,0-0.2,0-0.4c-0.4,0.6-0.9,1.1-1.5,1.4s-1.3,0.5-2.1,0.5c-1.2,0-2.3-0.4-3.1-1.3
		c-0.9-0.9-1.3-2.1-1.3-3.6c0-1.5,0.4-2.7,1.3-3.7c0.9-0.9,2-1.4,3.4-1.4c1,0,1.9,0.3,2.7,0.8c0.8,0.5,1.4,1.3,1.8,2.2
		s0.6,2.4,0.6,4.2c0,1.9-0.2,3.4-0.6,4.6c-0.4,1.1-1,2-1.9,2.6c-0.8,0.6-1.8,0.9-2.9,0.9c-1.2,0-2.1-0.3-2.9-1
		S339.3,153.9,339.1,152.7z M346.6,146.1c0-1.1-0.3-1.9-0.8-2.5c-0.6-0.6-1.2-0.9-2-0.9c-0.8,0-1.5,0.3-2.1,1
		c-0.6,0.7-0.9,1.5-0.9,2.6c0,1,0.3,1.7,0.9,2.3s1.3,0.9,2.1,0.9c0.9,0,1.6-0.3,2.1-0.9C346.4,148,346.6,147.2,346.6,146.1z"/>
	<path class="st8" d="M351.5,156.2v-2.1h2.1v2.1H351.5z"/>
	<path class="st8" d="M365.9,154.4v1.8H356c0-0.4,0.1-0.9,0.2-1.3c0.3-0.7,0.7-1.3,1.2-2c0.6-0.7,1.4-1.4,2.4-2.3
		c1.6-1.3,2.7-2.4,3.3-3.2c0.6-0.8,0.9-1.5,0.9-2.2c0-0.7-0.3-1.3-0.8-1.8c-0.5-0.5-1.2-0.8-2-0.8c-0.9,0-1.6,0.3-2.1,0.8
		s-0.8,1.3-0.8,2.2l-1.9-0.2c0.1-1.4,0.6-2.5,1.5-3.2c0.8-0.7,2-1.1,3.4-1.1c1.4,0,2.6,0.4,3.4,1.2c0.8,0.8,1.3,1.8,1.3,3
		c0,0.6-0.1,1.2-0.4,1.8c-0.2,0.6-0.7,1.2-1.2,1.8c-0.6,0.6-1.5,1.5-2.8,2.6c-1.1,0.9-1.8,1.6-2.1,1.9c-0.3,0.3-0.6,0.7-0.8,1H365.9
		z"/>
</g>
<g>
	<g>
		<path d="M28.5,20.8h-7.2v-1.2l3.5-3.5c1.2-1.2,1.9-2,2.2-2.6c0.3-0.5,0.4-1.1,0.4-1.7c0-0.7-0.2-1.3-0.6-1.6
			c-0.4-0.4-1-0.6-1.7-0.6c-1.1,0-2.1,0.5-3.1,1.4V9.6c0.9-0.7,2-1.1,3.3-1.1c1,0,1.9,0.3,2.5,0.9c0.6,0.6,0.9,1.4,0.9,2.4
			c0,0.8-0.2,1.5-0.6,2.2s-1.2,1.7-2.3,2.8l-2.8,2.8v0h5.7V20.8z"/>
		<path d="M30.5,15c0-2.1,0.3-3.8,1-4.9s1.7-1.6,3-1.6c2.5,0,3.8,2.1,3.8,6.2c0,2-0.3,3.6-1,4.7c-0.7,1.1-1.7,1.6-3,1.6
			c-1.2,0-2.2-0.5-2.8-1.6C30.8,18.4,30.5,16.9,30.5,15z M31.8,14.9c0,3.3,0.9,5,2.6,5c1.7,0,2.6-1.7,2.6-5c0-3.5-0.8-5.2-2.5-5.2
			C32.7,9.6,31.8,11.4,31.8,14.9z"/>
		<path d="M47.3,20.8h-6.8v-1.2h2.8v-9.5L40.5,11V9.7l4.1-1.3v11.2h2.7V20.8z"/>
		<path d="M56.2,10.1c-0.6-0.3-1.3-0.5-2-0.5c-1.1,0-2,0.5-2.6,1.5s-1,2.3-1,3.9h0c0.6-1.2,1.5-1.7,2.8-1.7c1.1,0,1.9,0.3,2.5,1
			c0.6,0.7,0.9,1.6,0.9,2.7c0,1.2-0.4,2.1-1.1,2.9c-0.7,0.8-1.6,1.1-2.7,1.1c-1.3,0-2.2-0.5-2.9-1.5c-0.7-1-1-2.3-1-4
			c0-2,0.4-3.7,1.3-5s2.1-2,3.6-2c0.8,0,1.5,0.1,2,0.4V10.1z M50.7,16.8c0,0.9,0.2,1.6,0.7,2.2c0.5,0.6,1.1,0.9,1.8,0.9
			c0.7,0,1.3-0.3,1.7-0.8s0.7-1.2,0.7-2c0-0.9-0.2-1.6-0.6-2.1c-0.4-0.5-1-0.7-1.8-0.7c-0.7,0-1.3,0.2-1.7,0.7S50.7,16.1,50.7,16.8z
			"/>
		<path d="M60.5,16.2v4.6h-1.3V8.7h3.3c1.3,0,2.3,0.3,3,0.9c0.7,0.6,1.1,1.5,1.1,2.7c0,1.2-0.4,2.1-1.3,2.9c-0.8,0.7-1.9,1.1-3.1,1
			H60.5z M60.5,9.9v5H62c1,0,1.8-0.2,2.3-0.7s0.8-1.1,0.8-1.9c0-1.6-1-2.4-2.9-2.4H60.5z"/>
		<path d="M79.7,20.8v-8.2c0-0.6,0-1.4,0.1-2.3h0c-0.1,0.6-0.3,1-0.4,1.1l-4.2,9.4h-0.6l-4.2-9.3c-0.1-0.2-0.2-0.6-0.4-1.2h0
			c0,0.4,0.1,1.2,0.1,2.3v8.2h-1.3V8.7h1.7l3.8,8.5c0.3,0.7,0.5,1.1,0.6,1.4H75c0.2-0.4,0.4-0.9,0.6-1.5l3.9-8.5h1.6v12.1H79.7z"/>
		<path d="M90.7,20.8h-7.2v-1.2l3.5-3.5c1.2-1.2,1.9-2,2.2-2.6c0.3-0.5,0.4-1.1,0.4-1.7c0-0.7-0.2-1.3-0.6-1.6
			c-0.4-0.4-1-0.6-1.7-0.6c-1.1,0-2.1,0.5-3.1,1.4V9.6c0.9-0.7,2-1.1,3.3-1.1c1,0,1.9,0.3,2.5,0.9c0.6,0.6,0.9,1.4,0.9,2.4
			c0,0.8-0.2,1.5-0.6,2.2s-1.2,1.7-2.3,2.8L85,19.6v0h5.7V20.8z"/>
		<path d="M92.9,20.1c0-0.3,0.1-0.5,0.3-0.7c0.2-0.2,0.4-0.3,0.6-0.3c0.3,0,0.5,0.1,0.6,0.3c0.2,0.2,0.3,0.4,0.3,0.7
			c0,0.3-0.1,0.5-0.3,0.6S94,21,93.8,21c-0.2,0-0.5-0.1-0.6-0.3C93,20.5,92.9,20.3,92.9,20.1z"/>
		<path d="M97,19.1c0.8,0.5,1.7,0.8,2.5,0.8c0.9,0,1.5-0.2,2.1-0.7c0.5-0.5,0.8-1.1,0.8-2c0-0.8-0.3-1.5-0.8-1.9
			c-0.5-0.4-1.3-0.7-2.3-0.7c-0.3,0-1,0-1.9,0.1v-6h5.8v1.2h-4.6v3.6c0.5,0,0.8,0,1,0c1.3,0,2.3,0.3,3,1c0.7,0.6,1.1,1.5,1.1,2.7
			c0,1.2-0.4,2.2-1.2,2.8s-1.8,1-3.1,1c-1.1,0-1.9-0.2-2.5-0.5V19.1z"/>
		<path d="M119.9,16.9h-6.1v3.5c0,0.3-0.1,0.6-0.3,0.8c-0.2,0.2-0.5,0.3-0.9,0.4s-1,0.1-1.7,0.1c-0.3,0-0.6,0-0.9,0l-0.4-0.9
			c0.5,0,0.9,0,1.4,0c1,0,1.5,0,1.7-0.1c0.1-0.1,0.2-0.2,0.2-0.5v-3.3H106v-0.9h6.9v-2.9h-5.9v-0.8h5.9V9.5
			c-1.9,0.2-3.8,0.3-5.6,0.4L107,9.1c4.8-0.1,8.6-0.6,11.4-1.4l0.5,0.7c-1.5,0.4-3.2,0.8-5,1v3h5.2v0.8h-5.2v2.9h6.1V16.9z"/>
		<path d="M129.7,8.3c-0.8,0.2-1.9,0.4-3.2,0.6v1.3h3.2v0.8h-3.2v1.2h2.9v4.7h-2.9v1.1h2.9v0.8h-2.9v1.6c0.9-0.1,1.9-0.2,2.9-0.4
			v0.8c-2.9,0.4-5.3,0.7-7.3,0.9l-0.2-0.8c1.2-0.1,2.4-0.2,3.8-0.4v-1.7h-3v-0.8h3v-1.1h-2.9v-4.7h2.9v-1.2h-3.5v-0.8h3.5V9
			c-0.9,0.1-1.9,0.1-3,0.1l-0.3-0.7c2.4,0,4.7-0.2,6.8-0.8L129.7,8.3z M125.7,14v-1.1h-2.1V14H125.7z M125.7,16v-1.2h-2.1V16H125.7z
			 M128.6,14v-1.1h-2.1V14H128.6z M128.6,16v-1.2h-2.1V16H128.6z M135.2,10.8c0,2.4,0,4.5-0.1,6.4c-0.1,1.9-0.2,3.1-0.3,3.4
			c-0.1,0.3-0.3,0.6-0.6,0.8c-0.3,0.2-0.8,0.3-1.6,0.3c-0.2,0-0.4,0-0.6,0l-0.3-0.8c0.6,0,1.1,0,1.5,0c0.2,0,0.4-0.1,0.5-0.2
			c0.2-0.2,0.3-0.4,0.3-0.7l0.1-3.1c0.1-1.7,0.1-3.5,0.1-5.2h-1.7c0,3.9-0.9,7.3-2.4,10.1l-0.7-0.4c1.5-2.6,2.3-5.8,2.4-9.8l-1.7,0
			v-0.8l1.7,0l0.1-3.1h0.8c0,1.3,0,2.3-0.1,3.1H135.2z"/>
		<path d="M151.9,18.2H146v3.4h-0.9v-3.4h-7v-0.9h2.3V13h4.7v-2.8h-3.8c-0.8,1.2-1.7,2.2-2.7,2.9l-0.7-0.6c1.4-1,2.7-2.6,3.8-4.9
			l0.9,0.3c-0.4,0.7-0.6,1.2-0.8,1.5h9.4v0.8H146V13h5v0.8h-5v3.5h5.9V18.2z M145.1,17.3v-3.5h-3.9v3.5H145.1z"/>
		<path d="M159.1,17.9c-1.5,0.8-3.1,1.5-4.9,2.2l-0.2-0.8c1-0.4,1.7-0.7,2.2-0.9v-5.6h-1.9v-0.8h1.9V7.6h0.8v4.3h1.8v0.8H157v5.2
			c0.5-0.2,1.1-0.5,2.1-1V17.9z M167.3,10c0,0.8,0,1.9,0,3.5l0,2.2c-0.1,2.3-0.2,3.8-0.3,4.4c-0.1,0.3-0.2,0.6-0.5,0.9
			c-0.2,0.3-0.5,0.4-0.9,0.5c-0.4,0.1-1.2,0.1-2.5,0.1l-0.3-0.9c0.3,0,1,0,2,0c0.4,0,0.7-0.1,0.9-0.3s0.4-0.5,0.4-0.9l0.2-2.4
			c0.1-1.2,0.1-2.7,0.1-4.2c0-0.5,0-1.2,0-2.1h-5.1c-0.5,1-1,1.9-1.6,2.5l-0.6-0.6c1.1-1.5,2-3.3,2.5-5.3l0.8,0.3
			c-0.2,0.8-0.4,1.6-0.7,2.3H167.3z M165.2,17.6h-5.4v-0.8h5.4V17.6z M164.7,14.2h-4.2v-0.8h4.2V14.2z"/>
		<path d="M172.8,13.7l-0.5,0.7c-0.7-0.8-1.6-1.5-2.5-2.1l0.5-0.6C171.3,12.4,172.2,13.1,172.8,13.7z M172.7,16.5
			c-0.3,1.5-1,3.2-2.1,5.1l-0.6-0.5c0.9-1.7,1.5-3.3,2-4.9L172.7,16.5z M173.2,9.5l-0.5,0.6c-0.7-0.7-1.4-1.3-2.3-2l0.5-0.6
			C171.8,8.2,172.5,8.8,173.2,9.5z M183.9,17.7h-7.1v3c0.6-0.1,1.4-0.3,2.3-0.6l0.2,0.7c-1.1,0.3-2.2,0.6-3.3,0.9l-0.3-0.7
			c0.3-0.1,0.4-0.3,0.4-0.5v-2.8h-1.6c-0.3,1.6-0.8,2.9-1.6,3.9l-0.7-0.6c0.6-0.7,1.1-1.6,1.3-2.7c0.2-1.1,0.4-2.6,0.4-4.7h10v0.7
			h-9.2c0,0.3,0,0.6-0.1,0.9h8.7v0.7h-8.7c0,0.3,0,0.6-0.1,0.9h9.4V17.7z M183.2,12.8h-9v-4h2.8V7.6h0.8v1.1h1.9V7.6h0.8v1.1h2.7
			V12.8z M177,10.4V9.5h-2v0.9H177z M177,12v-0.9h-2V12H177z M179.7,10.4V9.5h-1.9v0.9H179.7z M179.7,12v-0.9h-1.9V12H179.7z
			 M183.9,21l-0.4,0.7c-2.3-0.5-3.8-1.6-4.6-3.3l0.8-0.3c0.4,0.7,0.8,1.2,1.2,1.6c0.6-0.4,1.2-0.8,1.9-1.4l0.5,0.5
			c-0.4,0.4-1,0.8-1.8,1.4C182.2,20.5,183,20.8,183.9,21z M182.5,10.4V9.5h-1.9v0.9H182.5z M182.5,12v-0.9h-1.9V12H182.5z"/>
		<path d="M199.7,9.7h-11.6v4.5c0,2.9-0.6,5.3-1.8,7.2l-0.7-0.5c1.1-1.7,1.7-4.2,1.7-7.5V8.9h5.9c-0.2-0.4-0.5-0.8-0.8-1.2l0.9-0.2
			c0.3,0.5,0.6,1,0.8,1.4h5.5V9.7z M200.1,20.9l-0.5,0.8c-2.2-0.4-4-0.9-5.4-1.5c-1.6,0.7-3.6,1.2-5.9,1.5l-0.4-0.8
			c2.3-0.2,4.1-0.5,5.4-1.1c-1.2-0.8-2.2-1.7-2.9-2.9h-0.6v-0.8h8.1v0.8c-0.6,1.2-1.5,2.2-2.8,2.9C196.3,20.2,198,20.6,200.1,20.9z
			 M199.7,12.3H197v2.6h-5.7v-2.6h-2.4v-0.8h2.4v-1.3h0.8v1.3h4.1v-1.3h0.8v1.3h2.8V12.3z M196.9,16.7h-5.5c0.7,1.1,1.6,1.9,2.8,2.5
			C195.4,18.5,196.3,17.7,196.9,16.7z M196.2,14.1v-1.8h-4.1v1.8H196.2z"/>
	</g>
</g>
<g>
	<g>
		<path d="M28.5,109.8h-7.2v-1.2l3.5-3.5c1.2-1.2,1.9-2,2.2-2.6c0.3-0.5,0.4-1.1,0.4-1.7c0-0.7-0.2-1.3-0.6-1.6
			c-0.4-0.4-1-0.6-1.7-0.6c-1.1,0-2.1,0.5-3.1,1.4v-1.4c0.9-0.7,2-1.1,3.3-1.1c1,0,1.9,0.3,2.5,0.9c0.6,0.6,0.9,1.4,0.9,2.4
			c0,0.8-0.2,1.5-0.6,2.2s-1.2,1.7-2.3,2.8l-2.8,2.8v0h5.7V109.8z"/>
		<path d="M30.5,104c0-2.1,0.3-3.8,1-4.9s1.7-1.6,3-1.6c2.5,0,3.8,2.1,3.8,6.2c0,2-0.3,3.6-1,4.7c-0.7,1.1-1.7,1.6-3,1.6
			c-1.2,0-2.2-0.5-2.8-1.6C30.8,107.4,30.5,105.9,30.5,104z M31.8,103.9c0,3.3,0.9,5,2.6,5c1.7,0,2.6-1.7,2.6-5
			c0-3.5-0.8-5.2-2.5-5.2C32.7,98.6,31.8,100.4,31.8,103.9z"/>
		<path d="M47.3,109.8h-6.8v-1.2h2.8v-9.5l-2.8,0.9v-1.3l4.1-1.3v11.2h2.7V109.8z"/>
		<path d="M56.8,98.1L52,109.8h-1.3l4.5-10.9H49v-1.2h7.8V98.1z"/>
		<path d="M60.5,105.2v4.6h-1.3V97.7h3.3c1.3,0,2.3,0.3,3,0.9c0.7,0.6,1.1,1.5,1.1,2.7c0,1.2-0.4,2.1-1.3,2.9
			c-0.8,0.7-1.9,1.1-3.1,1H60.5z M60.5,98.9v5H62c1,0,1.8-0.2,2.3-0.7s0.8-1.1,0.8-1.9c0-1.6-1-2.4-2.9-2.4H60.5z"/>
		<path d="M79.7,109.8v-8.2c0-0.6,0-1.4,0.1-2.3h0c-0.1,0.6-0.3,1-0.4,1.1l-4.2,9.4h-0.6l-4.2-9.3c-0.1-0.2-0.2-0.6-0.4-1.2h0
			c0,0.4,0.1,1.2,0.1,2.3v8.2h-1.3V97.7h1.7l3.8,8.5c0.3,0.7,0.5,1.1,0.6,1.4H75c0.2-0.4,0.4-0.9,0.6-1.5l3.9-8.5h1.6v12.1H79.7z"/>
		<path d="M90.7,109.8h-7.2v-1.2l3.5-3.5c1.2-1.2,1.9-2,2.2-2.6c0.3-0.5,0.4-1.1,0.4-1.7c0-0.7-0.2-1.3-0.6-1.6
			c-0.4-0.4-1-0.6-1.7-0.6c-1.1,0-2.1,0.5-3.1,1.4v-1.4c0.9-0.7,2-1.1,3.3-1.1c1,0,1.9,0.3,2.5,0.9c0.6,0.6,0.9,1.4,0.9,2.4
			c0,0.8-0.2,1.5-0.6,2.2s-1.2,1.7-2.3,2.8l-2.8,2.8v0h5.7V109.8z"/>
		<path d="M92.9,109.1c0-0.3,0.1-0.5,0.3-0.7c0.2-0.2,0.4-0.3,0.6-0.3c0.3,0,0.5,0.1,0.6,0.3c0.2,0.2,0.3,0.4,0.3,0.7
			c0,0.3-0.1,0.5-0.3,0.6S94,110,93.8,110c-0.2,0-0.5-0.1-0.6-0.3C93,109.5,92.9,109.3,92.9,109.1z"/>
		<path d="M97,108.1c0.8,0.5,1.7,0.8,2.5,0.8c0.9,0,1.5-0.2,2.1-0.7c0.5-0.5,0.8-1.1,0.8-2c0-0.8-0.3-1.5-0.8-1.9
			c-0.5-0.4-1.3-0.7-2.3-0.7c-0.3,0-1,0-1.9,0.1v-6h5.8v1.2h-4.6v3.6c0.5,0,0.8,0,1,0c1.3,0,2.3,0.3,3,1c0.7,0.6,1.1,1.5,1.1,2.7
			c0,1.2-0.4,2.2-1.2,2.8s-1.8,1-3.1,1c-1.1,0-1.9-0.2-2.5-0.5V108.1z"/>
		<path d="M119.9,105.9h-6.1v3.5c0,0.3-0.1,0.6-0.3,0.8c-0.2,0.2-0.5,0.3-0.9,0.4s-1,0.1-1.7,0.1c-0.3,0-0.6,0-0.9,0l-0.4-0.9
			c0.5,0,0.9,0,1.4,0c1,0,1.5,0,1.7-0.1c0.1-0.1,0.2-0.2,0.2-0.5v-3.3H106v-0.9h6.9v-2.9h-5.9v-0.8h5.9v-2.8
			c-1.9,0.2-3.8,0.3-5.6,0.4l-0.4-0.8c4.8-0.1,8.6-0.6,11.4-1.4l0.5,0.7c-1.5,0.4-3.2,0.8-5,1v3h5.2v0.8h-5.2v2.9h6.1V105.9z"/>
		<path d="M129.7,97.3c-0.8,0.2-1.9,0.4-3.2,0.6v1.3h3.2v0.8h-3.2v1.2h2.9v4.7h-2.9v1.1h2.9v0.8h-2.9v1.6c0.9-0.1,1.9-0.2,2.9-0.4
			v0.8c-2.9,0.4-5.3,0.7-7.3,0.9l-0.2-0.8c1.2-0.1,2.4-0.2,3.8-0.4v-1.7h-3v-0.8h3v-1.1h-2.9v-4.7h2.9v-1.2h-3.5v-0.8h3.5V98
			c-0.9,0.1-1.9,0.1-3,0.1l-0.3-0.7c2.4,0,4.7-0.2,6.8-0.8L129.7,97.3z M125.7,103v-1.1h-2.1v1.1H125.7z M125.7,105v-1.2h-2.1v1.2
			H125.7z M128.6,103v-1.1h-2.1v1.1H128.6z M128.6,105v-1.2h-2.1v1.2H128.6z M135.2,99.8c0,2.4,0,4.5-0.1,6.4
			c-0.1,1.9-0.2,3.1-0.3,3.4c-0.1,0.3-0.3,0.6-0.6,0.8c-0.3,0.2-0.8,0.3-1.6,0.3c-0.2,0-0.4,0-0.6,0l-0.3-0.8c0.6,0,1.1,0,1.5,0
			c0.2,0,0.4-0.1,0.5-0.2c0.2-0.2,0.3-0.4,0.3-0.7l0.1-3.1c0.1-1.7,0.1-3.5,0.1-5.2h-1.7c0,3.9-0.9,7.3-2.4,10.1l-0.7-0.4
			c1.5-2.6,2.3-5.8,2.4-9.8l-1.7,0v-0.8l1.7,0l0.1-3.1h0.8c0,1.3,0,2.3-0.1,3.1H135.2z"/>
		<path d="M151.9,107.2H146v3.4h-0.9v-3.4h-7v-0.9h2.3V102h4.7v-2.8h-3.8c-0.8,1.2-1.7,2.2-2.7,2.9l-0.7-0.6c1.4-1,2.7-2.6,3.8-4.9
			l0.9,0.3c-0.4,0.7-0.6,1.2-0.8,1.5h9.4v0.8H146v2.8h5v0.8h-5v3.5h5.9V107.2z M145.1,106.3v-3.5h-3.9v3.5H145.1z"/>
		<path d="M159.1,106.9c-1.5,0.8-3.1,1.5-4.9,2.2l-0.2-0.8c1-0.4,1.7-0.7,2.2-0.9v-5.6h-1.9v-0.8h1.9v-4.3h0.8v4.3h1.8v0.8H157v5.2
			c0.5-0.2,1.1-0.5,2.1-1V106.9z M167.3,99c0,0.8,0,1.9,0,3.5l0,2.2c-0.1,2.3-0.2,3.8-0.3,4.4c-0.1,0.3-0.2,0.6-0.5,0.9
			c-0.2,0.3-0.5,0.4-0.9,0.5c-0.4,0.1-1.2,0.1-2.5,0.1l-0.3-0.9c0.3,0,1,0,2,0c0.4,0,0.7-0.1,0.9-0.3s0.4-0.5,0.4-0.9l0.2-2.4
			c0.1-1.3,0.1-2.7,0.1-4.2c0-0.5,0-1.2,0-2.1h-5.1c-0.5,1-1,1.9-1.6,2.5l-0.6-0.6c1.1-1.5,2-3.3,2.5-5.3l0.8,0.3
			c-0.2,0.8-0.4,1.6-0.7,2.3H167.3z M165.2,106.6h-5.4v-0.8h5.4V106.6z M164.7,103.2h-4.2v-0.8h4.2V103.2z"/>
		<path d="M172.8,102.7l-0.5,0.7c-0.7-0.8-1.6-1.5-2.5-2.1l0.5-0.6C171.3,101.4,172.2,102.1,172.8,102.7z M172.7,105.5
			c-0.3,1.5-1,3.2-2.1,5.1l-0.6-0.5c0.9-1.7,1.5-3.3,2-4.9L172.7,105.5z M173.2,98.5l-0.5,0.6c-0.7-0.7-1.4-1.3-2.3-2l0.5-0.6
			C171.8,97.2,172.5,97.8,173.2,98.5z M183.9,106.7h-7.1v3c0.6-0.1,1.4-0.3,2.3-0.6l0.2,0.7c-1.1,0.3-2.2,0.6-3.3,0.9l-0.3-0.7
			c0.3-0.1,0.4-0.3,0.4-0.5v-2.8h-1.6c-0.3,1.6-0.8,2.9-1.6,3.9l-0.7-0.6c0.6-0.7,1.1-1.6,1.3-2.7c0.2-1.1,0.4-2.6,0.4-4.7h10v0.7
			h-9.2c0,0.3,0,0.6-0.1,0.9h8.7v0.7h-8.7c0,0.3,0,0.6-0.1,0.9h9.4V106.7z M183.2,101.8h-9v-4h2.8v-1.1h0.8v1.1h1.9v-1.1h0.8v1.1
			h2.7V101.8z M177,99.4v-0.9h-2v0.9H177z M177,101v-0.9h-2v0.9H177z M179.7,99.4v-0.9h-1.9v0.9H179.7z M179.7,101v-0.9h-1.9v0.9
			H179.7z M183.9,110l-0.4,0.7c-2.3-0.5-3.8-1.6-4.6-3.3l0.8-0.3c0.4,0.7,0.8,1.2,1.2,1.6c0.6-0.4,1.2-0.8,1.9-1.4l0.5,0.5
			c-0.4,0.4-1,0.8-1.8,1.4C182.2,109.5,183,109.8,183.9,110z M182.5,99.4v-0.9h-1.9v0.9H182.5z M182.5,101v-0.9h-1.9v0.9H182.5z"/>
		<path d="M199.7,98.7h-11.6v4.5c0,2.9-0.6,5.3-1.8,7.2l-0.7-0.5c1.1-1.7,1.7-4.2,1.7-7.5v-4.5h5.9c-0.2-0.4-0.5-0.8-0.8-1.2
			l0.9-0.2c0.3,0.5,0.6,1,0.8,1.4h5.5V98.7z M200.1,109.9l-0.5,0.8c-2.2-0.4-4-0.9-5.4-1.5c-1.6,0.7-3.6,1.2-5.9,1.5l-0.4-0.8
			c2.3-0.2,4.1-0.5,5.4-1.1c-1.2-0.8-2.2-1.7-2.9-2.9h-0.6v-0.8h8.1v0.8c-0.6,1.2-1.5,2.2-2.8,2.9
			C196.3,109.2,198,109.6,200.1,109.9z M199.7,101.3H197v2.6h-5.7v-2.6h-2.4v-0.8h2.4v-1.3h0.8v1.3h4.1v-1.3h0.8v1.3h2.8V101.3z
			 M196.9,105.7h-5.5c0.7,1.1,1.6,1.9,2.8,2.5C195.4,107.5,196.3,106.7,196.9,105.7z M196.2,103.1v-1.8h-4.1v1.8H196.2z"/>
	</g>
</g>
<g>
	<g>
		<line class="st4" x1="232.6" y1="36.8" x2="232.6" y2="38.3"/>
		<line class="st35" x1="232.6" y1="40.2" x2="232.6" y2="48.5"/>
		<line class="st36" x1="232.6" y1="49.5" x2="232.6" y2="132.4"/>
		<line class="st4" x1="232.6" y1="133.3" x2="232.6" y2="134.8"/>
	</g>
</g>
<g>
	<g>
		<line class="st4" x1="309" y1="59.8" x2="309" y2="61.3"/>
		<line class="st37" x1="309" y1="63.5" x2="309" y2="73.2"/>
		<line class="st38" x1="309" y1="74.3" x2="309" y2="154.2"/>
		<line class="st4" x1="309" y1="155.3" x2="309" y2="156.8"/>
	</g>
</g>
<line class="st39" x1="20.5" y1="26.8" x2="363.5" y2="26.8"/>
</svg>
