<svg fill="none" height="512" viewBox="0 0 512 512" width="512" xmlns="http://www.w3.org/2000/svg"><circle cx="256" cy="256" fill="#fff" r="256"/><path d="m143.808 358c-1.973 0-3.749-.691-5.328-2.072-1.381-1.579-2.072-3.355-2.072-5.328v-63.048l-68.376-127.28c-.592-.987-.888-2.072-.888-3.256 0-1.579.592-2.96 1.776-4.144 1.3813-1.381 2.8613-2.072 4.44-2.072h39.072c2.763 0 5.032.691 6.808 2.072s3.059 2.861 3.848 4.44l41.144 74.296 41.144-74.296c.789-1.579 2.072-3.059 3.848-4.44s4.045-2.072 6.808-2.072h39.072c1.579 0 2.96.691 4.144 2.072 1.381 1.184 2.072 2.565 2.072 4.144 0 1.184-.296 2.269-.888 3.256l-68.376 127.28v63.048c0 2.171-.789 3.947-2.368 5.328-1.381 1.381-3.157 2.072-5.328 2.072zm149.064 0c-1.974 0-3.75-.691-5.328-2.072-1.382-1.579-2.072-3.355-2.072-5.328v-192.104c0-2.171.69-3.947 2.072-5.328 1.381-1.579 3.157-2.368 5.328-2.368h137.64c2.17 0 3.946.789 5.328 2.368 1.578 1.381 2.368 3.157 2.368 5.328v31.376c0 2.171-.79 3.947-2.368 5.328-1.382 1.381-3.158 2.072-5.328 2.072h-90.576v41.144h84.656c2.17 0 3.946.789 5.328 2.368 1.578 1.381 2.368 3.157 2.368 5.328v31.376c0 2.171-.79 3.947-2.368 5.328-1.382 1.381-3.158 2.072-5.328 2.072h-84.656v65.712c0 1.973-.691 3.749-2.072 5.328-1.382 1.381-3.158 2.072-5.328 2.072z" fill="#24292e"/></svg>