<svg xmlns="http://www.w3.org/2000/svg" viewBox="0 0 121.43 122.72"><defs><style>.cls-1{fill:none;stroke:#bdc9fb;stroke-miterlimit:10;}.cls-2{opacity:0.8;}.cls-3{fill:#c4cffb;}</style></defs><title>fight_立委</title><g id="圖層_2" data-name="圖層 2"><path class="cls-1" d="M52.3,76.25s5.08,3.78,8.1,6.31c-.16.6-.81.87-1.62.87H9.05l-.44-1.52H35.94a293.94,293.94,0,0,0,6.37-29.59l11.07,2.76c-.21.7-.81,1.29-2.21,1.29a167.78,167.78,0,0,1-13.5,25.54h10.2ZM11.15,49.84l-.43-1.51h35.7l4.32-5.51s4.91,3.67,7.83,6.16c-.17.59-.76.86-1.57.86ZM18.44,53c19.34,13.93,13.34,32.62,5,24.62-.27-8-2.91-16.79-5.61-24.4Zm9.45-17.06c18.31,1.89,11.51,16,4.16,10.64a24.77,24.77,0,0,0-4.53-10.37Z"/><path class="cls-1" d="M108,63.93s4.16,3,6.7,5.19c-.16.59-.75.86-1.51.86H102.09a15.76,15.76,0,0,1-3.89,6.7c19.5,3.4,10.37,12.26,3.89,9.61a56.71,56.71,0,0,0-10.75-5.08c-5.45,2.43-13.66,4.43-26.08,5.94l-.21-.81C74.33,84,80.65,81.65,85,79.16a112.66,112.66,0,0,0-12.36-2.75c1.07-1.57,2.53-3.94,3.94-6.43H63.7l-.44-1.51h14.1a79,79,0,0,0,3.56-7.24l4,1.19V54.05c-5.19,4.48-12.58,7.78-21.17,9.88l-.38-.64A38.92,38.92,0,0,0,79.19,49.84H65.1l-.43-1.51H84.92V43.68C79.25,44,73.36,44.06,68,44l-.1-.81c10.8-1.62,25.16-4.92,32.51-7.4L107,42.6c-.7.54-2,.54-3.88-.21-3,.32-6.54.64-10.37.86v5.08h10.42l3.62-4.49s4.16,3,6.64,5.14c-.16.59-.76.86-1.51.86H92.75v1.57c22-1.25,23.54,11,16.2,10.9a88.82,88.82,0,0,0-16.2-8.85v7.29c-.06.32-2.38,1.78-6.37,1.78H85.24l5.94,1.78c-.16.65-.65,1.19-2.59,1.08l-2.11,3.08h7.19a29,29,0,0,0,.75-5l10.64.81c0,.81-.65,1.35-1.94,1.51-.17.92-.38,1.78-.6,2.65h1.78ZM85.46,70c-1.25,1.84-2.59,3.78-3.89,5.45,3,0,5.62.11,8,.28A14.55,14.55,0,0,0,93.23,70Z"/><g class="cls-2"><path class="cls-3" d="M60.61,122.36a64,64,0,0,0,12-1.22A60.36,60.36,0,0,0,88.9,115.2a63.48,63.48,0,0,0,7.81-5,61.1,61.1,0,0,0,6.72-6A62.25,62.25,0,0,0,108.71,98a64.23,64.23,0,0,0,3.71-5.68,60,60,0,0,0,5.59-13c.39-1.41.21-.46-.63,2a57.93,57.93,0,0,1-5,11,60.15,60.15,0,0,1-10.07,13,63.57,63.57,0,0,0,7.49-8.75,67.56,67.56,0,0,0,5-8.3A59.43,59.43,0,0,0,119,76.66a60.78,60.78,0,0,0-10.65-51.55,59.82,59.82,0,0,0-9.58-10A66.58,66.58,0,0,0,87.3,7.56a60.81,60.81,0,0,1,27.85,28.32,60.85,60.85,0,0,1,4.36,39.26c.19-.7.3-1.41.45-2.11a61,61,0,0,0-6.56-41,72.61,72.61,0,0,0-4-6.22,65.23,65.23,0,0,1,4,6.22,60.7,60.7,0,0,1,6.73,18,62.48,62.48,0,0,1,1,13.23A55.54,55.54,0,0,1,120,73l-.29,1.55-.37,1.53c-.23,1-.52,2-.83,3-.16.59-.33,1.22-.56,1.85l0-.07a55.28,55.28,0,0,0,2.79-11.11,62,62,0,0,0-.4-20.85,60.47,60.47,0,0,0-7.84-20.29A57.41,57.41,0,0,0,104,17.83a49.58,49.58,0,0,0-8.35-6.52,77.26,77.26,0,0,0-9.87-5.2A42.11,42.11,0,0,0,79.24,3.6,19,19,0,0,1,77,3.19C71.93,1.76,66.65.79,62.55,1,61.13,1,58.43.59,56,.46L54.18.36H52.66A5.32,5.32,0,0,0,51,.51c-1,.72-1.17.82-1.89.87a25.44,25.44,0,0,0-5.36.93c-.81.18-3.24,1.42-4.79,2A33.83,33.83,0,0,0,33,6.85c-1.65.94-3.38,2-6,3.77A91.17,91.17,0,0,0,19,17a39.14,39.14,0,0,0-6.22,7.18,67.74,67.74,0,0,0-4,6.18c-1.66,2.93-3,5.89-3,5.89a57.76,57.76,0,0,0-4.1,12.21A84.76,84.76,0,0,0,0,59.59a76.4,76.4,0,0,0,1.43,15A58,58,0,0,0,6.6,89.27a65.15,65.15,0,0,0,6.11,9.67,56.26,56.26,0,0,0,7.12,7.78c.89.81,1.71,1.47,2.41,2.07l1.91,1.49c.54.44,1.55,1.09,2.63,1.85s2.33,1.51,3.38,2.08l-.53-.28c.71.39,2.08,1.2,2.8,1.55s.53.28.35.19c-.36-.17-.72-.34.53.29a61.68,61.68,0,0,0,9.5,3.79,63,63,0,0,0,10,2.1l.89.11c1,.14,2,.17,3,.26l.79.06,3.18.08c-.2,0-1.75,0-3.56-.11-.91-.08-1.88-.14-2.79-.23l-2.39-.31,1.38.18c-1.68-.2-2.56-.37-2.85-.43l.68.13-1.57-.29.79.14a57.51,57.51,0,0,1-24.1-10.31A62.49,62.49,0,0,1,21,106.9c-.74-.65-2.27-2.21-2.81-2.79a13,13,0,0,0-1.29-1.22,61.78,61.78,0,0,1-7-9.66c-2-3.48-3.23-6.44-3.3-6.19L6,85.5l-.51-1.31c-.31-.8-.6-1.49-.83-2.2A46,46,0,0,1,3,76.64,59.5,59.5,0,0,1,2.28,53,57.23,57.23,0,0,1,6.07,40c.29-.78.68-1.51,1-2.25s.69-1.44,1.05-2.12A58.4,58.4,0,0,1,23,17.47,59,59,0,0,1,42,7.11,61.15,61.15,0,0,1,63.27,4.2,62,62,0,0,1,85.58,9.33a57.94,57.94,0,0,1,32,36.11,59.77,59.77,0,0,1-4.44,45.3,61.31,61.31,0,0,1-12.36,15.94,64.07,64.07,0,0,1-7.09,5.58,63.55,63.55,0,0,1-7.06,4.09,60.23,60.23,0,0,1-12.56,4.45,55.59,55.59,0,0,1-8.63,1.35C63.82,122.31,62.21,122.32,60.61,122.36Z"/></g></g></svg>