<svg xmlns="http://www.w3.org/2000/svg" viewBox="0 0 157.3 122.72"><defs><style>.cls-1{fill:#f687a8;}</style></defs><title>fight_右箭頭</title><g id="圖層_2" data-name="圖層 2"><path class="cls-1" d="M3.76,61.26l37.75-.4,37.75-.3c12.59-.11,25.17-.33,37.75-.2s25.17.33,37.75.9a.1.1,0,0,1,.1.1.09.09,0,0,1-.1.1c-12.58.57-25.16.72-37.75.9s-25.16-.09-37.75-.2l-37.75-.3-37.75-.4a.1.1,0,0,1,0-.2Z"/><circle class="cls-1" cx="3.76" cy="61.36" r="3.76"/><path class="cls-1" d="M141.22,71a1,1,0,0,1,.31-1.38l12.9-8.22-12.9-8.22a1,1,0,0,1,1.07-1.69l14.23,9.07a1,1,0,0,1,0,1.68L142.6,71.27a1,1,0,0,1-1.38-.31Z"/></g></svg>