<svg xmlns="http://www.w3.org/2000/svg" viewBox="0 0 279 122.72"><defs><style>.cls-1,.cls-5{fill:none;stroke:#bdc9fb;stroke-miterlimit:10;}.cls-2{opacity:0.8;}.cls-3{fill:#c4cffb;}.cls-4{fill:#bdc9fb;}.cls-5{stroke-width:0.75px;}</style></defs><title>fight_衛生署與董氏</title><g id="圖層_2" data-name="圖層 2"><path class="cls-1" d="M190.05,29.87H176.73L176,27.35h13.77L188.7,18l15.66,1.08c0,1-.72,2-2.52,2.52l.72,5.76h2.25l5.31-7.56s6,5.13,9.54,8.64c-.27,1-1.17,1.44-2.43,1.44H202.92l.63,4.86c-1.89,2.43-6.66,3.42-12.51,3.24Zm49.68,2.34a13.06,13.06,0,0,1-2,1.08l9.72,9-.18.09c1.53,1.08,6.75,4.95,10.17,7.74-.27,1-1.26,1.44-2.52,1.44H239.73l11.07,8.28a5.21,5.21,0,0,1-3.24,1.8V79.82c0,.36-1.53,1.08-3.51,1.8,2.25,1.62,5.94,4.4,8.64,6.65-.18,1-1.17,1.45-2.43,1.45H224.34v7.73h18.72l6-7.46s6.93,5,11.07,8.54c-.27,1-1.26,1.45-2.52,1.45H178.35l-.72-2.53h33.93V89.72H185.82l-.72-2.53h26.46V79.82h-9.81v1.44c0,1.08-5.67,3.78-10.8,3.78h-1.8V52.28l13.32,5h9.09V51.56H180.24L179.52,49h32V44c-9.18.09-18.54-.18-27.09-.72l-.18-1.44a307.52,307.52,0,0,0,47.79-7.56,21.2,21.2,0,0,1-5.22-.45l.63-4h-5.94l-.72-2.52h7L229.29,18l15.48,2.43c-.18,1.08-.9,2.16-3.42,2.34l-.81,4.59h5.31l5.31-7.56s6,5.13,9.54,8.64c-.27,1-1.17,1.44-2.43,1.44H240.18Zm-38,27.63v7.38h9.81V59.84Zm9.81,17.46V69.74h-9.81V77.3ZM246.3,42.92a8.5,8.5,0,0,1-4.68-.63c-5,.63-10.89,1.08-17.28,1.35V49h16.83Zm-7,8.64H224.34v5.76h9.54Zm-4.5,8.28H224.34v7.38h10.44Zm0,9.9H224.34V77.3h10.44Zm5.67,13a23.26,23.26,0,0,1-3.42.36h-2.25V79.82H224.34v7.37h12.33Z"/><g class="cls-2"><path class="cls-3" d="M158.33,61a60.38,60.38,0,0,0,1.22,12,58.85,58.85,0,0,0,6,16.14,66.27,66.27,0,0,0,5.09,7.71,64.1,64.1,0,0,0,6,6.63,63.45,63.45,0,0,0,11.77,9,64.07,64.07,0,0,0,12.84,5.73c1.39.41.45.23-2-.64a57.76,57.76,0,0,1-10.83-5.09,61.62,61.62,0,0,1-12.9-10,66.62,66.62,0,0,0,8.53,7.65,71,71,0,0,0,8.12,5.26,61.12,61.12,0,0,0,11.59,4.23,60.35,60.35,0,0,0,51.66-10.74,59.53,59.53,0,0,0,9.92-9.66,64.29,64.29,0,0,0,7.45-11.51,60.78,60.78,0,0,1-28.1,28.14,60.57,60.57,0,0,1-39.47,4.57c.71.2,1.42.32,2.12.49A60.23,60.23,0,0,0,248.64,114a70.25,70.25,0,0,0,6.19-4,62.47,62.47,0,0,1-6.19,4,60.17,60.17,0,0,1-8.54,4.16,58.84,58.84,0,0,1-9.5,2.9,61.16,61.16,0,0,1-13.36,1,50.28,50.28,0,0,1-9.88-1.31l-1.55-.31-1.55-.37c-1-.24-2-.54-3.06-.85a19.37,19.37,0,0,1-1.88-.54l.08,0a45.18,45.18,0,0,0,11.15,3.15,59,59,0,0,0,41.53-8.64,56.91,56.91,0,0,0,10.69-8.86,51.81,51.81,0,0,0,6.35-8.5,78,78,0,0,0,5-9.93,43.25,43.25,0,0,0,2.37-6.51c0-.2.21-1.21.42-2.2a53.05,53.05,0,0,0,2-14.39c0-1.41.17-4.09.07-6.5,0-.6,0-1.19-.06-1.73s-.09-1-.13-1.48a11.57,11.57,0,0,0-.22-1.62,6,6,0,0,1-.62-1.89,34.25,34.25,0,0,0-1.17-5.18c-.2-.79-1.19-3.23-1.75-4.74A49,49,0,0,0,272.44,34a64.05,64.05,0,0,0-3.54-6,73.11,73.11,0,0,0-6.19-8,51.31,51.31,0,0,0-6.86-6.37,62,62,0,0,0-6-4.19c-2.85-1.75-5.76-3.12-5.76-3.12A56.53,56.53,0,0,0,232,2a109.63,109.63,0,0,0-11.1-2,85.49,85.49,0,0,0-15.17,1.26,53.93,53.93,0,0,0-14.87,5A80.8,80.8,0,0,0,181,12.4a52.23,52.23,0,0,0-8,7.11c-.81.91-1.46,1.76-2.06,2.48s-1.05,1.41-1.49,2a30.85,30.85,0,0,0-1.79,2.74c-.66,1.18-1.41,2.43-2,3.5l.18-.59c-.37.73-1.17,2.13-1.51,2.87s-.29.53-.23.33c.11-.39.22-.8-.41.48A62.52,62.52,0,0,0,160.15,43a70.69,70.69,0,0,0-1.86,10.1c0,.2,0,.43-.06.9-.14,1-.15,2-.23,3,0,.6,0,.4,0,.8.08,0,.06,4.18.16,3.18,0-.2,0-1.74.14-3.55.08-.91.15-1.88.25-2.78s.24-1.73.34-2.38-.06.79-.11,1.38a26,26,0,0,1,.46-2.84c.07-.29,0,0-.08.69.16-.78.31-1.55.31-1.55,0,.19-.1.78-.1.78a51.33,51.33,0,0,1,4.17-12.48,62.08,62.08,0,0,1,6.92-10.87c1.05-1.4,2.93-3.6,4.23-5a34.36,34.36,0,0,1,2.86-2.59c.91-1,.61-1,.91-1.55a73.5,73.5,0,0,1,9.66-6.47c3.4-1.91,6.23-3.19,5.86-3.54l1.5-.66L196.76,7c.78-.34,1.43-.66,2.12-.93a32.85,32.85,0,0,1,5.19-1.8A60.42,60.42,0,0,1,227.46,2.9a57.61,57.61,0,0,1,13.08,3.34c.79.27,1.53.64,2.28.94s1.47.65,2.17,1A56.91,56.91,0,0,1,274.39,42,58.52,58.52,0,0,1,277,63.68,63.38,63.38,0,0,1,271.32,86a58.56,58.56,0,0,1-14.8,19.73,57.57,57.57,0,0,1-21.59,11.81,59,59,0,0,1-44.78-4.83,63.46,63.46,0,0,1-15.75-12.16,64.46,64.46,0,0,1-5.61-6.92,62.31,62.31,0,0,1-4.17-6.92A58.17,58.17,0,0,1,160,74.35a53.87,53.87,0,0,1-1.41-8.58C158.42,64.18,158.39,62.58,158.33,61Z"/></g><g class="cls-2"><path class="cls-3" d="M.33,61A60.31,60.31,0,0,0,1.55,73a61.86,61.86,0,0,0,2.3,7.94A60.43,60.43,0,0,0,7.6,89.1a66.27,66.27,0,0,0,5.09,7.71,63.65,63.65,0,0,0,12.15,11.86,65,65,0,0,0,5.6,3.72,64.07,64.07,0,0,0,12.84,5.73c1.4.41.45.23-2-.64a58.05,58.05,0,0,1-10.83-5.09,61.62,61.62,0,0,1-12.9-10A66.62,66.62,0,0,0,26.07,110a71,71,0,0,0,8.12,5.26,61.37,61.37,0,0,0,11.59,4.23,60.33,60.33,0,0,0,51.66-10.74,59.53,59.53,0,0,0,9.92-9.66,64.29,64.29,0,0,0,7.45-11.51,61.08,61.08,0,0,1-11.68,16.43,61.8,61.8,0,0,1-16.42,11.71,60.57,60.57,0,0,1-39.47,4.57c.71.2,1.42.32,2.13.49A60.21,60.21,0,0,0,90.64,114a71.9,71.9,0,0,0,6.2-4,62.61,62.61,0,0,1-6.2,4,60.78,60.78,0,0,1-8.54,4.17,59.86,59.86,0,0,1-9.5,2.89,61.16,61.16,0,0,1-13.36,1,50.08,50.08,0,0,1-9.87-1.31l-1.56-.31-1.55-.37c-1-.24-2-.54-3.06-.85-.59-.15-1.24-.31-1.88-.54l.08,0a45.16,45.16,0,0,0,11.16,3.15,58.94,58.94,0,0,0,41.52-8.64,56.91,56.91,0,0,0,10.69-8.86,51.81,51.81,0,0,0,6.35-8.5,78,78,0,0,0,5-9.93,43.25,43.25,0,0,0,2.37-6.51c0-.2.21-1.21.42-2.2a53.05,53.05,0,0,0,2-14.39c0-1.41.17-4.09.07-6.5,0-.6,0-1.19-.06-1.73s-.09-1-.13-1.48a10.33,10.33,0,0,0-.22-1.62,6,6,0,0,1-.62-1.89,32.89,32.89,0,0,0-1.17-5.18c-.2-.79-1.19-3.23-1.75-4.74A49,49,0,0,0,114.44,34a64.05,64.05,0,0,0-3.54-6,73.11,73.11,0,0,0-6.19-8,51.31,51.31,0,0,0-6.86-6.37,60.65,60.65,0,0,0-6-4.19C89,7.71,86.11,6.34,86.11,6.34A56.53,56.53,0,0,0,74,2,109.63,109.63,0,0,0,62.9,0,85.49,85.49,0,0,0,47.73,1.26a53.75,53.75,0,0,0-14.86,5A80.24,80.24,0,0,0,23,12.4a52.23,52.23,0,0,0-8,7.11c-.81.91-1.46,1.76-2.06,2.48s-1,1.41-1.49,2-1.07,1.61-1.79,2.74-1.41,2.43-2,3.5l.18-.59c-.37.73-1.17,2.13-1.5,2.87s-.29.53-.24.33c.12-.39.22-.8-.41.48A62.52,62.52,0,0,0,2.15,43,70.69,70.69,0,0,0,.29,53.11c0,.2,0,.43-.06.9C.09,55,.08,56,0,57c0,.6,0,.4,0,.8C.1,57.8.08,62,.18,61c0-.2,0-1.74.14-3.55.08-.91.15-1.88.25-2.78s.24-1.73.34-2.38-.06.79-.11,1.38a22.51,22.51,0,0,1,.47-2.84c.06-.29,0,0-.09.69.16-.78.31-1.55.31-1.55,0,.19-.1.78-.1.78A50.94,50.94,0,0,1,5.57,38.25a61.47,61.47,0,0,1,6.91-10.87c1-1.4,2.93-3.6,4.23-5a34.36,34.36,0,0,1,2.86-2.59c.91-1,.61-1,.91-1.55a73.5,73.5,0,0,1,9.66-6.47c3.4-1.91,6.23-3.19,5.86-3.54l1.5-.66L38.76,7c.78-.34,1.44-.66,2.12-.93a33.22,33.22,0,0,1,5.19-1.8A60.61,60.61,0,0,1,69.46,2.9,57.61,57.61,0,0,1,82.54,6.24c.79.27,1.53.64,2.28.94s1.47.65,2.17,1A56.91,56.91,0,0,1,116.39,42,58.52,58.52,0,0,1,119,63.68,63.38,63.38,0,0,1,113.32,86a58.43,58.43,0,0,1-14.8,19.73,57.57,57.57,0,0,1-21.59,11.81,59,59,0,0,1-44.78-4.83A63.67,63.67,0,0,1,16.4,100.6a65.55,65.55,0,0,1-5.61-6.93,63.88,63.88,0,0,1-4.17-6.92A58.52,58.52,0,0,1,2,74.35,53.87,53.87,0,0,1,.6,65.77C.42,64.18.39,62.58.33,61Z"/></g><path class="cls-4" d="M119.62,60.82a72.67,72.67,0,0,1,9.5-.9c3.17-.15,6.33.11,9.5.2l9.5.3,9.5.4a.1.1,0,0,1,0,.2l-9.5.4-9.5.3c-3.17.09-6.33.35-9.5.2a72.67,72.67,0,0,1-9.5-.9.1.1,0,0,1-.08-.12S119.58,60.83,119.62,60.82Z"/><path class="cls-5" d="M37.69,53.54s2.48,2,3.92,3.42c-.11.4-.47.58-1,.58h-2.2V73.09c0,3.06-.75,5.11-5.72,5.47A5.85,5.85,0,0,0,32,75.32c-.46-.65-1.15-1.15-2.91-1.48v-.43s3.27.18,4,.18c.54,0,.69-.22.69-.61V57.54H31.35l-.07-.29a1.93,1.93,0,0,1-1.08.54V62c0,.25-2,.9-3.35,1v2.52h.36L28.94,63s1.91,1.73,3,2.88c-.07.4-.43.58-.9.58H26.85V71h.54l2.09-2.7s2.34,1.84,3.78,3.13c-.11.4-.47.58-1,.58H26.85v5.58c0,.22-1.37,1-3.71,1h-.82V72H20.44l-1.51,1.76L15.3,71.54V77.3c-.07.32-2,1.22-3.82,1.22h-.86V63a32.77,32.77,0,0,1-3.21,2.81l-.36-.32a56.42,56.42,0,0,0,5.91-14l4.32,2.12H19c.18-1.11.4-2.52.61-4h-2.3l-.33-1h2.74c.22-1.44.39-2.91.54-4.21L25.7,45a1.41,1.41,0,0,1-1.37,1.08L24,48.57H25.2l2.05-2.16,4.14,3.06a2.42,2.42,0,0,1-1.48.72v2.49L31,51s1.94,1.87,3,3.09c-.07.4-.43.58-.93.58H27.86l3.38,2.48-.18-.57h4.47ZM17.67,47c-.14.36-.46.61-1.36.58a34.86,34.86,0,0,1-8.75,7.59l-.33-.32A43.21,43.21,0,0,0,12,44.29Zm4.65,18.5V62.32H22.1c0,.33-2,1.26-3.74,1.26h-.62V54.8a3.07,3.07,0,0,1-.61,0,46,46,0,0,1-2.8,4l2.12.79c-.14.33-.47.58-1.15.69v11a4.15,4.15,0,0,1,1.19-.72c.32-1.3.68-2.95.86-4.07H16l-.29-1Zm4.86-10.87H18.25l-.14.07,4.13,1.59h3.35ZM22.32,66.5h-.87c-.25,1.26-.68,3.06-1,4.46h1.91Zm3.6-5.18v-4H22.1v4ZM23.83,49.58c-.22,1.44-.43,2.92-.61,4h2.34v-4ZM31.24,49,31,48h3.45l2.2-2.85s2.48,2,4,3.28c-.08.4-.47.58-1,.58Z"/><path class="cls-5" d="M72.35,71.79S75.7,74.31,77.72,76c-.11.4-.51.58-1.08.58H43.85l-.29-1H57.63v-11H48.24l-.29-1h9.68V54.3H52.16a27.06,27.06,0,0,1-8.64,9l-.36-.25a51.37,51.37,0,0,0,6-17.49l7.27,2.08c-.14.47-.61.8-1.47.8a39.71,39.71,0,0,1-2.23,4.82h4.89V44.58l7.09.65c-.07.54-.32.9-1.33,1v7h4.39l2.85-3.49s3.13,2.23,5.14,3.92c-.1.4-.5.58-1.08.58H63.39v9.25H66.7L69.58,60s3.28,2.41,5.26,4c-.11.4-.51.58-1,.58H63.39v11h6Z"/><path class="cls-5" d="M109.79,59.05s2.63,2,4.22,3.35c-.11.39-.51.57-1,.57H103a65.27,65.27,0,0,1-6,3.13h6.22l2.34-2.59,4.9,3.67A2.54,2.54,0,0,1,109,68v9.25c0,.25-2.74,1.15-4.5,1.15h-.94v-2.2H93.85v.69c0,.5-2.38,1.65-4.61,1.65h-.75V69.45a68.41,68.41,0,0,1-8.25,2.16l-.21-.5a75.3,75.3,0,0,0,8.46-3.67V64l3.74,1.4c1.37-.79,2.66-1.58,3.92-2.41h-15l-.29-1h11V58.15H84.06l-.29-1h8V53.61l6.19.51c-.07.43-.29.75-1.15.9v2.12h.82l2.27-2.91s2.16,1.65,3.75,3c1-.9,1.9-1.8,2.69-2.66h-.28V53.29H88.16V54c0,.44-2.27,1.48-4.25,1.48h-.68V44.79l5.33,2h17.17l2.19-2.41,4.65,3.45a2.54,2.54,0,0,1-1.44.8v4.89a8,8,0,0,1-3.24.94l4.17,2.62c-.25.36-.65.54-1.47.33a40.17,40.17,0,0,1-6,4.53h2.88ZM88.16,52.28H91V47.82H88.16Zm6.59,14.83c-.29.15-.58.25-.9.4V70.6h9.75V67.11Zm8.85,8.06V71.61H93.85v3.56ZM95.54,47.82v4.46h3V47.82ZM97.63,62c1.8-1.26,3.45-2.55,5-3.81H96.84V62Zm8.46-9.68V47.82h-3v4.46Z"/></g></svg>