<svg xmlns="http://www.w3.org/2000/svg" viewBox="0 0 158.3 122.72"><defs><style>.cls-1{fill:#f687a8;}</style></defs><title>fight_左箭頭</title><g id="圖層_2" data-name="圖層 2"><path class="cls-1" d="M2.54,61.26c12.66-.57,25.33-.72,38-.9s25.33.09,38,.2l38,.3,38,.4a.09.09,0,0,1,.09.1.1.1,0,0,1-.09.1l-38,.4-38,.3c-12.67.11-25.34.33-38,.2s-25.34-.33-38-.9a.1.1,0,0,1-.1-.11A.09.09,0,0,1,2.54,61.26Z"/><path class="cls-1" d="M16.08,71a1,1,0,0,0-.31-1.38L2.87,61.36l12.9-8.22a1,1,0,0,0-1.07-1.69L.47,60.52a1,1,0,0,0,0,1.68L14.7,71.27A1,1,0,0,0,16.08,71Z"/><path class="cls-1" d="M154.54,65.12a3.76,3.76,0,1,0-3.76-3.76A3.76,3.76,0,0,0,154.54,65.12Z"/></g></svg>