<svg xmlns="http://www.w3.org/2000/svg" viewBox="0 0 300.18 186.34"><defs><style>.cls-1{opacity:0.8;}.cls-2{fill:#c4cffb;}.cls-3{fill:none;stroke:#bdc9fb;stroke-miterlimit:10;}.cls-4{fill:#f687a8;}</style></defs><title>個人問題</title><g id="圖層_2" data-name="圖層 2"><g class="cls-1"><path class="cls-2" d="M150.47,65.67a60.31,60.31,0,0,0-12,1.22,61.86,61.86,0,0,0-7.94,2.3,60.43,60.43,0,0,0-8.2,3.75,65.09,65.09,0,0,0-7.71,5.1A62.9,62.9,0,0,0,108,84a63.64,63.64,0,0,0-5.23,6.17,66.59,66.59,0,0,0-3.72,5.6,64.07,64.07,0,0,0-5.73,12.84c-.41,1.4-.23.45.64-2a58.05,58.05,0,0,1,5.09-10.83,61.88,61.88,0,0,1,10-12.9,66.62,66.62,0,0,0-7.65,8.53,71,71,0,0,0-5.26,8.12,61.37,61.37,0,0,0-4.23,11.59,60.33,60.33,0,0,0,10.74,51.66,59.53,59.53,0,0,0,9.66,9.92,65,65,0,0,0,11.51,7.46,60.86,60.86,0,0,1-28.14-28.11,60.57,60.57,0,0,1-4.57-39.47c-.2.71-.32,1.43-.49,2.13A60.21,60.21,0,0,0,97.42,156a71.9,71.9,0,0,0,4,6.2,61.47,61.47,0,0,1-4-6.2,59.65,59.65,0,0,1-4.16-8.54,58.84,58.84,0,0,1-2.9-9.5,61.16,61.16,0,0,1-1-13.36,50.18,50.18,0,0,1,1.31-9.87l.31-1.56.37-1.55c.24-1,.54-2,.85-3.06.15-.59.31-1.24.54-1.88l0,.08a45.16,45.16,0,0,0-3.15,11.16,58.94,58.94,0,0,0,8.64,41.52A56.91,56.91,0,0,0,107,170.11a51.81,51.81,0,0,0,8.5,6.35,78,78,0,0,0,9.93,5,44.52,44.52,0,0,0,6.51,2.38c.2,0,1.21.2,2.2.41a52.66,52.66,0,0,0,14.39,2c1.41,0,4.09.17,6.5.07l1.73-.06,1.48-.13a10.12,10.12,0,0,0,1.62-.22,6,6,0,0,1,1.89-.62,32.89,32.89,0,0,0,5.18-1.17c.79-.2,3.23-1.19,4.74-1.75a49,49,0,0,0,5.79-2.58,64.05,64.05,0,0,0,6-3.54,71.88,71.88,0,0,0,8-6.19,51.31,51.31,0,0,0,6.37-6.86,60.65,60.65,0,0,0,4.19-6c1.75-2.84,3.12-5.76,3.12-5.76a56.66,56.66,0,0,0,4.35-12.1,110.34,110.34,0,0,0,2-11.11,85.49,85.49,0,0,0-1.26-15.17,53.75,53.75,0,0,0-5-14.86,80.24,80.24,0,0,0-6.13-9.86,52.23,52.23,0,0,0-7.11-8c-.91-.81-1.76-1.46-2.48-2.06s-1.41-1-2-1.49-1.61-1.07-2.74-1.79-2.43-1.41-3.5-2l.59.18c-.73-.37-2.13-1.17-2.87-1.5s-.53-.29-.33-.24c.39.12.8.22-.48-.4a61.54,61.54,0,0,0-9.73-3.58,72.11,72.11,0,0,0-10.1-1.86l-.9-.06c-1-.13-2-.15-3-.23-.6,0-.4,0-.8,0,0,.07-4.18,0-3.18.15.2,0,1.74,0,3.55.14.91.08,1.88.15,2.78.25l2.38.34c.59.09-.79-.06-1.38-.11a24.79,24.79,0,0,1,2.84.47c.29.07,0,0-.69-.09l1.55.31-.78-.1a50.94,50.94,0,0,1,12.48,4.18,61.47,61.47,0,0,1,10.87,6.91c1.4,1.05,3.6,2.93,5,4.23a34.36,34.36,0,0,1,2.59,2.86c1,.91,1,.61,1.55.92a72.18,72.18,0,0,1,6.47,9.66c1.91,3.39,3.19,6.22,3.54,5.85l.66,1.5.53,1.26c.34.78.66,1.44.93,2.12a33.22,33.22,0,0,1,1.8,5.19,60.61,60.61,0,0,1,1.39,23.39,57.48,57.48,0,0,1-3.34,13.08c-.27.79-.64,1.53-.94,2.29s-.65,1.46-1,2.16a56.91,56.91,0,0,1-33.86,29.4,58.52,58.52,0,0,1-21.64,2.63,63.17,63.17,0,0,1-22.36-5.7,58.3,58.3,0,0,1-19.73-14.8,57.57,57.57,0,0,1-11.81-21.59A59,59,0,0,1,98.7,97.49a63.46,63.46,0,0,1,12.16-15.75,64.46,64.46,0,0,1,6.92-5.61A65.52,65.52,0,0,1,124.7,72a58.52,58.52,0,0,1,12.4-4.61,53.87,53.87,0,0,1,8.58-1.41C147.27,65.76,148.87,65.73,150.47,65.67Z"/></g><path class="cls-3" d="M149.09,104.49a3.71,3.71,0,0,1-2.16,1.14v40.82c-.06.6-3.62,2.32-6.48,2.32h-1.19v-3.18H121.49v1.24c0,.86-2.75,2.65-5.88,2.65h-1.19v-46a64.35,64.35,0,0,1-4.86,10l2.86,1.08c-.16.54-.59.87-1.67,1.08v31.7c-.06.54-3.08,2-5.94,2h-1.35V122a48.14,48.14,0,0,1-5.35,5.07l-.59-.37a108.47,108.47,0,0,0,9.39-28.46l7.51,2.48V99.8l7.45,3.07h16.9L142.28,99Zm-9.83,39.58V125.34a4.5,4.5,0,0,1-1.73.64v12c-.05.27-2.11,1.3-4.32,1.3h-1v-2.65h-3.46v2.11c0,.49-2.27,1.67-4.48,1.67h-.76V121.07l4.11,1.67V116.1h-5.51l-.43-1.51h5.94V106l7.72.65c-.11.7-.49,1.19-1.78,1.41v6.53H134l2.48-3.72s1.4,1.29,2.81,2.64v-9.12H121.49v39.68Zm-10.48-9h3.46V124.8h-3.46Zm6.86-14.31,3.62,4v-8.7h-5.67v7.13Z"/><path class="cls-3" d="M181.59,100c-.1.81-.59,1.29-2,1.51,1.13,21.22,6.37,33,24.67,38.88l-.05.65c-3.94.81-6.37,3.78-7.24,8-13-6.69-16.63-19.33-17.82-37.15-1,14.26-5.07,28.08-25.75,37.59l-.54-.71c18.9-15,18.19-32.29,18.25-49.79Z"/><path class="cls-4" d="M150.9,73.17q-.59-8.88-.78-17.75c-.16-5.92-.2-11.83-.22-17.75s.06-11.83.22-17.75.39-11.83.78-17.75q.58,8.88.78,17.75c.16,5.92.2,11.83.22,17.75s-.07,11.83-.22,17.75S151.28,67.25,150.9,73.17Z"/><path class="cls-4" d="M154.66,73.17a3.76,3.76,0,1,1-3.76-3.76A3.76,3.76,0,0,1,154.66,73.17Z"/><polygon class="cls-4" points="159.08 8.8 157.61 10.16 150.9 2.94 144.19 10.16 142.72 8.8 150.9 0 159.08 8.8"/></g></svg>