<svg xmlns="http://www.w3.org/2000/svg" viewBox="0 0 443.4 489.17"><defs><style>.cls-1{fill:#d8dafa;}.cls-2{fill:#f687a8;}.cls-10,.cls-3,.cls-7,.cls-8,.cls-9{fill:none;stroke:#f687a8;stroke-width:0.5px;}.cls-3{stroke-miterlimit:10;}.cls-4{fill:#f6a3a8;}.cls-5{opacity:0.8;}.cls-6{fill:#6673ae;}.cls-10,.cls-7,.cls-8,.cls-9{stroke-linecap:round;stroke-linejoin:round;}.cls-8{stroke-dasharray:2 8;}.cls-9{stroke-dasharray:1.97 7.9;}.cls-10{stroke-dasharray:2 8;}</style></defs><title>公賣利益</title><g id="圖層_2" data-name="圖層 2"><path class="cls-1" d="M256.69,451.65c-.11.13-.31.16-.62.17a32.24,32.24,0,0,1-1.79,3.21,4.24,4.24,0,0,1,1.78,3.31c0,1.33-.45,2-1.75,2a1.61,1.61,0,0,0-.16-.84,1.06,1.06,0,0,0-.61-.24v-.21h.82a.51.51,0,0,0,.33-.08c.19-.12.29-.41.29-.9a4.79,4.79,0,0,0-1-3c.3-.86.72-2.45,1-3.53h-1.6v11.2a1,1,0,0,1-.86.37h-.18V450.62l1.21.5h1.34l.67-.64Zm8,5a1,1,0,0,1-.6.28v4.84c0,.78-.16,1.26-1.42,1.37a1.12,1.12,0,0,0-.22-.73,1.5,1.5,0,0,0-.91-.36v-.21s1,.07,1.24.07.27-.07.27-.25v-4.92h-5.57v6a1,1,0,0,1-.87.36h-.18v-7.28l1.23.5h5.25l.52-.6Zm-7.94-5.08-.11-.41h5.92l.69-.86s.78.6,1.24,1.05c0,.15-.16.22-.36.22Zm5.42,4.09v-.56h-3.73v.39c0,.09-.46.31-.87.31h-.15v-3.54l1.09.47H262l.53-.54,1.16.85a1,1,0,0,1-.53.27v2.07a1.49,1.49,0,0,1-.87.28Zm-1.51,3.85v2.79a1.09,1.09,0,0,1-.83.27h-.15v-3.06h-1.78l-.12-.4h2.76a21.58,21.58,0,0,0,.59-2.18l1.25.47c0,.12-.18.26-.46.24a17.32,17.32,0,0,1-1.07,1.47h.84l.46-.59s.52.43.86.77c0,.15-.16.22-.35.22ZM258.51,457c2,.92,1.18,2.41.46,1.75a3.82,3.82,0,0,0-.61-1.67Zm3.63-2.3v-1.53h-3.73v1.53Z"/><path class="cls-1" d="M278.66,458.08s.91.68,1.44,1.17c0,.15-.18.22-.36.22h-4.82v3.29c0,.09-.38.35-1,.35h-.21v-3.64h-6.4l-.12-.41h2.43v-4.24l1.34.55h2.75v-2.65h-3a12.6,12.6,0,0,1-3.38,3.28l-.18-.16a16.27,16.27,0,0,0,3.54-5.84l1.7.66a.51.51,0,0,1-.58.24,16.23,16.23,0,0,1-.82,1.41h6.44l.79-1s.87.63,1.44,1.14c0,.16-.18.23-.39.23h-4.33v2.65h2.18l.73-.93s.83.65,1.35,1.11c0,.14-.19.21-.38.21h-3.88v3.3h2.95Zm-4.93,1v-3.3h-2.92v3.3Z"/><path class="cls-1" d="M291,452.27c4.93,1.86,4.35,4.92,3,4.09a5.6,5.6,0,0,0-.77-1.46c-2.17.37-5.27.77-9,1.17a.62.62,0,0,1-.29.23L283.5,455a1.83,1.83,0,0,0,.44-.14,17.44,17.44,0,0,0,4.5-4.63l1.6.73c-.06.14-.24.25-.55.21a24.85,24.85,0,0,1-4.83,3.84c1.89,0,5.08-.18,8.4-.37a13.21,13.21,0,0,0-2.18-2.18Zm1.68,4.41,1.32,1a1.27,1.27,0,0,1-.62.3v4.63a1.83,1.83,0,0,1-1,.32h-.18v-1.08H286.1v.81c0,.13-.5.39-1,.39h-.18v-6.26l1.25.53h5.91Zm-.47,4.79v-3.69H286.1v3.69Z"/><path class="cls-1" d="M298.11,453.57c2.92.49,2.09,2.55,1.05,1.84a3.68,3.68,0,0,0-1.19-1.73Zm3-.05c-.33,1.51-1,4.3-1.13,4.91a7.57,7.57,0,0,0-.13,1.19,12.76,12.76,0,0,1,.38,2.47c0,.63-.32,1-.81,1-.27,0-.47-.22-.51-.7.21-1.41.14-2.6-.14-2.8a1.14,1.14,0,0,0-.64-.21v-.31h.56c.15,0,.21,0,.34-.29.2-.46.2-.46,1.82-5.31Zm-2.21-3.22c3.07.58,2.23,2.68,1.16,2a4.15,4.15,0,0,0-1.3-1.86Zm3,5.53c.74,2.81-1.5,2.35-.77,1.33a1.66,1.66,0,0,0,.54-1.33Zm-.84-3.15a2.55,2.55,0,0,0,.29-.1,8,8,0,0,0,1.39-2.41l1.19.55a.48.48,0,0,1-.53.22,11.78,11.78,0,0,1-1.59,1.81c.34,0,.73,0,1.12-.05.2-.36.38-.7.5-.95l1.12.65a.5.5,0,0,1-.52.18,14.54,14.54,0,0,1-2,2.14c.46,0,1-.1,1.59-.17a3.35,3.35,0,0,0-.37-.85l.18-.09c1.72,1.06.94,2.3.33,1.7a2,2,0,0,0,0-.42c-.53.17-1.26.42-2,.64a.47.47,0,0,1-.26.23l-.4-.95a2,2,0,0,0,.28-.1,6.88,6.88,0,0,0,1.2-1.49c-.26.1-.56.2-.84.28a.5.5,0,0,1-.26.26Zm8.72,7.28,1.15.93a.86.86,0,0,1-.53.19,2.5,2.5,0,0,1-1,1.86,2.61,2.61,0,0,1-1.39.28.79.79,0,0,0-.25-.67,3,3,0,0,0-1.16-.38V462c.53.05,1.45.1,1.71.1a.86.86,0,0,0,.44-.07,2,2,0,0,0,.47-1.05h-6.07l-.48.51-1.1-.83a2.7,2.7,0,0,1,.59-.28,13.43,13.43,0,0,0,.43-1.68l1.28.52H309v-1h-7l-.13-.42h7l.29-.3a.49.49,0,0,1-.28-.18,4.69,4.69,0,0,0,0-1.67l.21,0c.69.74.68,1.43.43,1.72l1,.77a.89.89,0,0,1-.49.26v1.27a1.54,1.54,0,0,1-.9.3H309v-.28h-5.45c-.08.3-.19.64-.29.93h6Zm-7.08-4.3c1.19,1.3.28,2.41-.21,1.75a5.16,5.16,0,0,0,0-1.71Zm.81-.22c1.53,1.12.74,2.29.18,1.72a4.08,4.08,0,0,0-.38-1.67Zm.64-3.37-.11-.4h2.4l.46-.55s.56.41.92.73c0,.15-.16.22-.36.22Zm5.68,1.6c1.8,1,1,2.31.4,1.74a2.48,2.48,0,0,0-.09-.58c-.55.2-1.32.47-2.06.7a.57.57,0,0,1-.23.17l-.42-.95.31-.1a7.16,7.16,0,0,0,1.32-1.5l-1,.32a.83.83,0,0,1-.31.29l-.32-.8c0,.14-.16.21-.34.21h-2.55l-.11-.41h1.78l.42-.49a7.08,7.08,0,0,1,.78.66l-.11-.28a1.22,1.22,0,0,0,.29-.09,7.4,7.4,0,0,0,1.46-2.35l1.18.55a.5.5,0,0,1-.52.22,11.52,11.52,0,0,1-1.58,1.74c.35,0,.78,0,1.23,0,.19-.34.38-.65.5-.89l1.1.65a.46.46,0,0,1-.54.17,12.63,12.63,0,0,1-2.06,2.1l1.66-.17a3.32,3.32,0,0,0-.41-.8Zm-3.2-.33a5.67,5.67,0,0,1,.82.67c0,.15-.16.22-.34.22h-2.55l-.11-.4h1.78Zm.12,1.25.78.64a1,1,0,0,1-.35.16v1.71c0,.12-.38.28-.63.28h-.11V457h-1.1v.28c0,.07-.25.26-.6.26h-.12v-2.93l.89.4h.84ZM305,450.11c1.88.59,1.12,1.95.44,1.38a2.44,2.44,0,0,0-.6-1.29Zm1.45,6.45v-1.18h-1.1v1.18Zm1.83-.87c.72,2.66-1.58,2.2-.82,1.17a1.54,1.54,0,0,0,.6-1.19Zm1.63-.32c1.55,1.09.8,2.28.22,1.7a4.12,4.12,0,0,0-.4-1.63Z"/><path class="cls-1" d="M326.19,461.75c.45.61.49.87.35,1-.39.47-1.36.05-2-.44a7.22,7.22,0,0,1-2-2.16,11.14,11.14,0,0,1-4.26,2.86l-.12-.18a11.45,11.45,0,0,0,3.93-3.47,16.36,16.36,0,0,1-1.45-5.94h-4.4v2.28h2.18l.59-.6,1.15.94a.83.83,0,0,1-.55.21c-.08,2.85-.28,4.1-.81,4.56a1.83,1.83,0,0,1-1.3.41,1,1,0,0,0-.21-.73,1.91,1.91,0,0,0-.9-.35l0-.22c.36,0,1,.08,1.27.08a.51.51,0,0,0,.41-.13c.25-.23.4-1.41.46-3.76h-2.31c0,2.18-.21,5.11-2.47,7l-.18-.14c1.39-2.06,1.53-4.62,1.53-7v-3.55l1.31.52h4.18c-.07-.91-.1-1.85-.1-2.82l1.64.19c0,.18-.16.35-.5.39,0,.76,0,1.5,0,2.24h2.83l.73-.92s.85.65,1.36,1.1c0,.16-.18.23-.37.23h-4.52a14.81,14.81,0,0,0,1.05,4.84,13.69,13.69,0,0,0,1.39-3.58l1.66.53c0,.18-.18.27-.56.25a13.44,13.44,0,0,1-2,3.81,5.7,5.7,0,0,0,1.86,1.95c.25.2.35.2.49-.06a14.8,14.8,0,0,0,.69-1.64l.15.05Zm-3.61-11.2c3.12.11,2.66,2.21,1.58,1.71a4.45,4.45,0,0,0-1.7-1.57Z"/><path class="cls-1" d="M342.26,458.29a1,1,0,0,1-.56.2c-.21,2.3-.67,3.73-1.32,4.22a2.5,2.5,0,0,1-1.49.43,1,1,0,0,0-.26-.74,2.58,2.58,0,0,0-1.15-.39v-.23c.51.06,1.42.11,1.7.11a.84.84,0,0,0,.52-.12c.38-.3.74-1.56.92-3.42h-8.49a14.11,14.11,0,0,1-3,2.12l-.15-.17a16.4,16.4,0,0,0,5.49-6.64h-4.68l-.13-.41h5a20.72,20.72,0,0,0,1.1-3.11l1.64.51c-.07.18-.22.28-.59.25a23.88,23.88,0,0,1-1,2.35h2l.48-.5,1,.85a.61.61,0,0,1-.43.16l-.3,1.82h.51l.47-.51,1,.83a.65.65,0,0,1-.45.17l-.25,1.87h.59l.62-.6Zm-10.38,1.08c.48,1.67-.15,2.73-.78,3.11-.41.25-.94.24-1.11-.11s.08-.65.41-.84a2.47,2.47,0,0,0,1.24-2.14Zm-.38-9.12c3.1,1.19,2,3.49,1,2.59a5.39,5.39,0,0,0-1.11-2.5Zm2.75,5.72a17.33,17.33,0,0,1-1.68,2h6.36l.28-2Zm-.84,3.33c2.06,1.84.73,3.69-.07,2.65a6.2,6.2,0,0,0-.11-2.59Zm2.24-5.64a16.58,16.58,0,0,1-1.13,1.92h3.09l.31-1.92Zm-.48,5.5c2.65,1.08,1.63,3.06.7,2.23a4.27,4.27,0,0,0-.86-2.14Zm2-.24c2.78.41,2.12,2.36,1.13,1.78A3.74,3.74,0,0,0,337,459Z"/><path class="cls-1" d="M349.56,453c.1,0,.65,0,1.65-.08a1.51,1.51,0,0,1,0,.26c0,.12,0,.18,0,.19l-.22,0a.78.78,0,0,0-.28.13.3.3,0,0,0-.16.28,1.75,1.75,0,0,0,.24.72l2.68,5.29a.08.08,0,0,0,.11,0,.38.38,0,0,0,.09-.09l1-1.94-1.46-3a5.38,5.38,0,0,0-.7-1.16.9.9,0,0,0-.36-.23,1.06,1.06,0,0,0-.43-.1s-.05-.08-.05-.23,0-.19,0-.22l1.8.08c.08,0,.61,0,1.62-.08,0,.06,0,.14,0,.26s0,.18,0,.19a1.15,1.15,0,0,0-.26,0,.7.7,0,0,0-.26.13.31.31,0,0,0-.14.27,1.86,1.86,0,0,0,.25.71l.83,1.71.81-1.66a1.94,1.94,0,0,0,.24-.75c0-.16-.11-.28-.33-.35a2,2,0,0,0-.58-.1s-.06-.07-.06-.19a.47.47,0,0,1,0-.25c.8.06,1.31.08,1.51.08h.56l.54,0,.47,0a.81.81,0,0,1,0,.25c0,.12,0,.18-.05.19a1.67,1.67,0,0,0-.49.12,1.07,1.07,0,0,0-.48.29,6.82,6.82,0,0,0-.78,1.28l-1,2,1.32,2.7q.09.13.18-.06c.18-.43.61-1.36,1.29-2.78s1-2.21,1.1-2.35a2,2,0,0,0,.25-.77c0-.16-.11-.28-.33-.35a1.61,1.61,0,0,0-.55-.11s-.05-.07-.06-.19,0-.21,0-.25c.8.06,1.31.08,1.51.08h.55l.52,0,.47,0a1,1,0,0,1,0,.27c0,.11,0,.17-.06.17a1.67,1.67,0,0,0-.47.11,1.39,1.39,0,0,0-.46.27,6.25,6.25,0,0,0-.79,1.3l-3.13,6.63a.89.89,0,0,1-.25.33.47.47,0,0,1-.26.11.16.16,0,0,1-.13-.06l-1.67-3.36-1.56,3a1,1,0,0,1-.25.34.38.38,0,0,1-.24.1.18.18,0,0,1-.14-.06l-3.62-7.19a7.58,7.58,0,0,0-.71-1.19.85.85,0,0,0-.38-.22,1.73,1.73,0,0,0-.43-.08s-.05-.07-.05-.22a.38.38,0,0,1,0-.23Z"/><path class="cls-1" d="M366.88,453l1.51,0,1.52,0,1.49-.05a4.62,4.62,0,0,0,.94-.14l.26,2.1a.53.53,0,0,1-.37.09c-.07,0-.11,0-.13-.07a2,2,0,0,0-.51-1,1.55,1.55,0,0,0-1-.26c-.85,0-1.29.08-1.33.23a4.92,4.92,0,0,0-.12,1.29v4.93a4.79,4.79,0,0,0,.12,1.19c0,.06.13.13.37.2a2.09,2.09,0,0,0,.48.1s.05.08.05.25a1.27,1.27,0,0,1,0,.22l-.53,0L369,462h-.57c-.25,0-.59,0-1,0l-.8.06a.37.37,0,0,1-.05-.22c0-.17,0-.25.05-.25a2.26,2.26,0,0,0,.51-.09q.36-.11.39-.21a4,4,0,0,0,.11-1.13V455.2a3.86,3.86,0,0,0-.12-1.33c-.07-.15-.51-.23-1.3-.23a1.53,1.53,0,0,0-1,.26,2,2,0,0,0-.52,1s-.06.08-.14.08a.46.46,0,0,1-.36-.11l.26-2.08a4.8,4.8,0,0,0,.95.14Z"/><path class="cls-1" d="M376.07,460.77a4.55,4.55,0,0,1-1.29-3.26,4.6,4.6,0,0,1,1.29-3.28,4.2,4.2,0,0,1,6.19,0,4.6,4.6,0,0,1,1.29,3.28,4.55,4.55,0,0,1-1.29,3.26,4.2,4.2,0,0,1-6.19,0Zm2.88-7.23a2,2,0,0,0-1.79,1.08,5,5,0,0,0-.63,2.59,6.62,6.62,0,0,0,.29,2,3.71,3.71,0,0,0,.95,1.61,2.17,2.17,0,0,0,1.61.67,2,2,0,0,0,1.8-1.08,5.1,5.1,0,0,0,.63-2.59,7,7,0,0,0-.27-2,3.69,3.69,0,0,0-.94-1.58A2.24,2.24,0,0,0,379,453.54Z"/><path class="cls-1" d="M397.1,450.55c-.05.17-.21.24-.59.28a14.33,14.33,0,0,0,5.88,2.8v.21a1.33,1.33,0,0,0-.94,1,10.77,10.77,0,0,1-5.18-3.85,14.88,14.88,0,0,1-4.54,3.32l.87.35h6.73l.49-.5,1.05.8a.62.62,0,0,1-.4.19v2.78a1.45,1.45,0,0,1-.88.32h-.17v-.46h-7V458a.93.93,0,0,1-.86.39h-.16v-3.93c-.61.28-1.21.53-1.8.74l-.08-.2c2.28-1.06,5-3.32,5.71-4.87Zm1.72,7.62L400,459a.93.93,0,0,1-.47.22v3.45a1.4,1.4,0,0,1-.93.37h-.2v-.65h-4.95v.33c0,.11-.49.37-1,.37h-.15v-4.89l1.19.5h4.76Zm-6.4-3.11v2.31h3v-2.31Zm.78.17c2.24.93,1.32,2.52.56,1.82a3.52,3.52,0,0,0-.71-1.73Zm.23,3.92v1.22h4.95v-1.22Zm4.95,2.87v-1.23h-4.95V462Zm-1.2-9.27s.67.5,1.09.89a.32.32,0,0,1-.35.23h-4.14l-.12-.41h2.93Zm-.77,2.31v2.31H397a22.39,22.39,0,0,0,.84-2.13l1.33.45c-.06.15-.24.25-.54.22a10.82,10.82,0,0,1-1.26,1.46h2v-2.31Z"/><path class="cls-1" d="M405.1,462.93a12.17,12.17,0,0,0,4.43-2.38l1.58.74c-.07.16-.28.24-.7.2a14.39,14.39,0,0,1-5.23,1.64Zm2.77-2.3c0,.13-.47.39-.95.39h-.18V454.1l1.22.52h6.94l.61-.64,1.27,1a1.16,1.16,0,0,1-.57.28v5.18a1.62,1.62,0,0,1-1,.34h-.18v-.55h-7.18Zm.52-6.85c0,.1-.5.35-.95.35h-.16v-3.7l1.2.52h5.87l.57-.63,1.27,1a1,1,0,0,1-.58.28v2.1a1.77,1.77,0,0,1-.94.31h-.19v-.48h-6.09Zm-.52,1.25v1.27h7.18V455Zm7.18,1.69h-7.18v1.33h7.18Zm0,3.09v-1.35h-7.18v1.35Zm-6.66-8.45v1.72h6.09v-1.72Zm4.11,9.45c5.15.16,5.52,2.48,4.18,2.33a16.37,16.37,0,0,0-4.27-2.12Z"/><path class="cls-1" d="M433.22,451.39a1.19,1.19,0,0,1-.59.28v11a1.47,1.47,0,0,1-.91.37h-.17v-.86h-9.28v.56c0,.14-.4.43-.87.43h-.2V450.53l1.16.54h9.05l.58-.66Zm-1.67,10.35V451.47h-9.28v10.27Zm-4.48-3.12c-.77.35-1.91.84-3.47,1.42a.46.46,0,0,1-.3.33l-.67-1.21c.8-.1,2.59-.4,4.4-.74Zm.84-4.61a12.71,12.71,0,0,0,.59,3.29,12.75,12.75,0,0,0,1.08-2.66l1.38.57c-.07.16-.25.27-.56.23a11,11,0,0,1-1.51,2.83,5,5,0,0,0,1.05,1.41c.17.18.24.17.35,0s.32-.87.48-1.35l.18,0-.21,1.82c.35.52.41.76.27.91-.35.41-1.11,0-1.59-.43a6.88,6.88,0,0,1-1.2-1.57,9.12,9.12,0,0,1-3.1,2.17L425,461a9.63,9.63,0,0,0,2.9-2.71,14,14,0,0,1-.93-4.3h-4.13l-.11-.41h4.22c-.05-.62-.07-1.26-.07-1.92l1.48.3c0,.16-.17.3-.48.32,0,.43,0,.87,0,1.3h1.68l.35-.43a.56.56,0,0,1-.4-.09,3.39,3.39,0,0,0-1.1-1.23l.14-.13c1.5.13,1.84.83,1.66,1.21a12.31,12.31,0,0,1,1,.85c0,.16-.18.23-.38.23Zm-2.35,4v-.45h-1.31V458a1.05,1.05,0,0,1-.74.28h-.11v-3.61l.91.4h1.15l.45-.46,1,.74a.7.7,0,0,1-.44.21v2.13c0,.1-.44.31-.73.31Zm0-.86v-1.65h-1.31v1.65Z"/><path class="cls-1" d="M442.06,456.21a1.31,1.31,0,0,1-.63-1,.94.94,0,0,1,1-.95,1.11,1.11,0,0,1,.85.35,1.72,1.72,0,0,1,.15.89,3.62,3.62,0,0,1-1.76,3.06l-.28-.45a4.23,4.23,0,0,0,1.11-1.58Z"/><path class="cls-1" d="M257.64,483.62a.8.8,0,0,1-.54.21c-.12,3-.35,4.3-.87,4.76a1.91,1.91,0,0,1-1.29.44,1,1,0,0,0-.18-.72,1.92,1.92,0,0,0-.82-.32l0-.24c.33,0,.92.07,1.15.07a.54.54,0,0,0,.42-.11c.28-.28.47-1.48.56-4h-1.53a7.72,7.72,0,0,1-2.66,5.43l-.2-.17c1.68-2.29,1.85-5,1.91-7.52h-1.7l-.11-.41h4.57l.68-.91s.77.63,1.25,1.1c0,.15-.17.22-.36.22h-3.21c0,.62-.06,1.25-.11,1.85H256l.56-.58Zm-5.78-6h2.67l-.18-1.39,1.53.13a.52.52,0,0,1-.41.39l.13.87h.81l.61-.84a14.34,14.34,0,0,1,1.18,1,.33.33,0,0,1-.36.22h-2.19l.14,1a1.3,1.3,0,0,1-1,.32l-.17-1.33H252Zm1.87,1.55c2.67.48,1.77,2.4.8,1.71a3.08,3.08,0,0,0-.92-1.61Zm8,.53c0,.16-.15.24-.49.27a8.21,8.21,0,0,0,3.46,3.35l0,.18a1.28,1.28,0,0,0-.7,1,9.85,9.85,0,0,1-2.92-4.38,9.74,9.74,0,0,1-3.55,4.5l-.11-.21a11.32,11.32,0,0,0,2.69-5.07Zm-3.22-2.08h1.67l.24-1.42,1.51.31c0,.18-.18.32-.55.34l-.12.77h1.45l.63-.84a15.66,15.66,0,0,1,1.19,1c0,.15-.18.22-.38.22h-3l-.19,1.05a1.3,1.3,0,0,1-1.07.11l.19-1.16h-1.5Zm.14,8.39c4.93.87,4.65,3.53,3.32,2.94a10.25,10.25,0,0,0-3.43-2.79Zm.85-2.76c3.2.47,2.46,2.78,1.32,2.08a3.77,3.77,0,0,0-1.44-2Z"/><path class="cls-1" d="M267.3,479.53c3.08.36,2.32,2.58,1.2,1.91a3.73,3.73,0,0,0-1.33-1.78Zm3.92-.9c-.52,1.77-1.51,5.05-1.68,5.76a4.74,4.74,0,0,0-.18,1.28,12.89,12.89,0,0,1,.4,2.43c0,.65-.35,1-.86,1-.29,0-.51-.23-.56-.69.21-1.43.14-2.61-.17-2.82a1.25,1.25,0,0,0-.68-.21v-.3h.61c.17,0,.22,0,.36-.3.24-.49.24-.49,2.51-6.25Zm-2.88-2.25c3.26.46,2.47,2.76,1.31,2a4.48,4.48,0,0,0-1.44-1.92Zm10.54-.17s.81.63,1.29,1.09c0,.16-.18.23-.38.23h-3.05v2.11H278l.55-.64,1.14.89a.76.76,0,0,1-.57.27v8.46a1.2,1.2,0,0,1-.9.34h-.16v-1.29h-5.79v1.05a1,1,0,0,1-.84.31h-.18v-9.86l1.19.47h1.26v-2.11h-2.86l-.11-.41h7.45Zm-.82,11v-3.47l-.72,0h-.63c-.77,0-.91-.25-.91-.87v-2.87h-1.16v.24c0,1.63-.18,3.28-2.23,4.34l-.14-.14v2.75Zm-5.79-7.19v4.42c1.29-1.13,1.43-2.58,1.43-4.16v-.26Zm4,4.46s.68.54,1.1,1c0,.15-.16.22-.36.22h-3.89l-.12-.4h2.68Zm-.48-7h-1.16v2.11h1.16Zm.94,2.53v2.59c0,.17,0,.24.25.24h.87a1.2,1.2,0,0,0,.2,0v-2.8Z"/><path class="cls-1" d="M291.2,482.67c3.1.32,3.57,1.36,3.26,1.82.27.21.75.59,1.07.88,0,.16-.17.23-.36.23h-3.09v2c0,.85-.18,1.34-1.69,1.48a1,1,0,0,0-.35-.75,2.61,2.61,0,0,0-1.33-.42v-.22s1.65.12,2,.12.34-.09.34-.28v-2h-8.08l-.1-.41H291v-1.06l1.54.15c0,.2-.17.29-.48.35v.56h1.53l.36-.48a.62.62,0,0,1-.4-.19,3.42,3.42,0,0,0-.79-.77c-2,.21-4.7.42-8.41.68a.56.56,0,0,1-.38.27l-.6-1.27c1.07,0,2.94,0,5.18,0v-1.05h-2.65v.25c0,.1-.46.34-.9.34h-.15v-4.46L286,479h2.57v-1h-5.31l-.13-.42h5.44V476.2l1.58.17c0,.19-.17.33-.5.39v.8h3.47l.7-.9s.8.64,1.29,1.09c0,.16-.18.23-.38.23h-5.08v1h2.69l.54-.58,1.19.89a.93.93,0,0,1-.54.28v2.85a1.41,1.41,0,0,1-.9.35h-.15v-.4h-2.83v1.05l2.62,0a8.92,8.92,0,0,0-1.15-.52Zm-5.85,3.25c3.57.26,3,2.72,1.76,2.1a5.26,5.26,0,0,0-1.89-2Zm.57-6.5v1.06h2.65v-1.06Zm2.65,2.56V480.9h-2.65V482Zm1.08-2.56v1.06h2.83v-1.06Zm2.83,2.56V480.9h-2.83V482Z"/><path class="cls-1" d="M298.38,488.87a15.28,15.28,0,0,0,4.51-1.85l1.34.94c-.12.13-.36.17-.71.07a17.67,17.67,0,0,1-5.08,1.05Zm11.16-12.57s.8.6,1.29,1c0,.16-.17.21-.36.21h-5.28v.9H308l.67-.81s.79.57,1.27,1a.36.36,0,0,1-.38.22h-9.79l-.13-.4h4.41v-.9H298.8l-.13-.39h5.38v-.94l1.64.16c0,.19-.15.33-.5.39v.39h3.67Zm-.78,5.72v-.37h-8.08v.22c0,.1-.49.32-.9.32h-.15V479.1l1.14.49h7.86l.53-.56,1.17.86a1,1,0,0,1-.52.26v1.54a1.38,1.38,0,0,1-.88.33Zm-8.08-.79h2V480h-2Zm0,.64,1.19.52h5.67l.56-.62,1.22.94a.94.94,0,0,1-.53.25v3.91a1.65,1.65,0,0,1-.94.32h-.18v-.33h-5.89V487c0,.1-.49.34-.94.34h-.16Zm1.1.92v.93h5.89v-.93Zm5.89,2.29v-.95h-5.89v.95Zm0,1.36v-1h-5.89v1Zm-4-6.43v1.22h2V480Zm1.91,7.28c6.93.25,5,2.42,3.79,1.67a12.89,12.89,0,0,0-3.85-1.43Zm3.18-6.06V480h-2v1.22Z"/><path class="cls-1" d="M320.66,480s.77.61,1.27,1.06c0,.16-.18.23-.38.23h-3.39V483h1.61l.52-.61,1.26.92a1,1,0,0,1-.59.29v3.14c0,.8-.14,1.26-1.28,1.39a1.61,1.61,0,0,0-.19-.79,1.05,1.05,0,0,0-.67-.32v-.22s.67.05.87.05.22-.05.22-.22v-3.24h-1.75v5.34c0,.16-.43.42-.84.42h-.21v-5.76h-1.72v4.47c0,.1-.43.34-.87.34h-.15v-5.69l1.1.49h1.64V481.3h-3.43l-.11-.42h3.54V479h-1.79a7.28,7.28,0,0,1-1.28,1.54l-.19-.12a14.84,14.84,0,0,0,1.27-3.77l1.54.46c-.05.16-.21.28-.51.28a9.68,9.68,0,0,1-.59,1.21h1.55v-2.34l1.57.18c0,.2-.15.34-.52.39v1.77h1.4l.69-.89s.77.63,1.25,1.08c-.05.14-.18.21-.38.21h-3v1.87H320Zm2.74,5.84c0,.14-.43.35-.81.35h-.2v-8.83l1.5.16c0,.18-.15.32-.49.36Zm3.07-9.22c0,.2-.17.34-.5.38v10.63c0,.86-.17,1.35-1.56,1.49a1.16,1.16,0,0,0-.29-.79A2,2,0,0,0,323,488v-.21s1.33.1,1.61.1.3-.09.3-.28v-11.1Z"/><path class="cls-1" d="M331.66,481.6c0,2.37-.14,5.45-2.36,7.57l-.21-.14c1.34-2.19,1.45-4.9,1.45-7.41v-4.08l1.31.52H340l.74-.95s.85.66,1.35,1.13c0,.16-.18.23-.38.23h-10Zm8.66,3c-.12.14-.27.18-.64.18a8,8,0,0,1-2.31,2.24,17.63,17.63,0,0,0,4.86.93v.17a1.22,1.22,0,0,0-.92,1,13,13,0,0,1-4.89-1.57,16.44,16.44,0,0,1-5.73,1.58l-.09-.22a16.06,16.06,0,0,0,5.13-1.85,6.78,6.78,0,0,1-1.93-2.48h-1.07l-.12-.42h5.85l.76-.63Zm-2.51-1.05v-.59H335v.48c0,.1-.48.29-.87.29h-.21v-2.88H332l-.12-.42h2v-1.55l1.57.17c0,.18-.14.31-.49.37v1h2.8v-1.55l1.58.17c0,.18-.15.31-.5.37v1h1l.65-.9s.76.63,1.19,1.09c0,.16-.18.23-.38.23h-2.46v2.39c0,.1-.48.31-.87.31Zm-3.67,1.05a6,6,0,0,0,2.29,2,7.17,7.17,0,0,0,1.95-2Zm.71-8.5c3.11.32,2.29,2.5,1.14,1.83a4.86,4.86,0,0,0-1.26-1.73Zm3,6.45v-1.7H335v1.7Z"/><path class="cls-1" d="M351.69,487.56a16.2,16.2,0,0,0,2.44.15c.83,0,2.69,0,3.59,0v.19a.86.86,0,0,0-.65.89h-3c-3.25,0-5-.61-6.08-3.46a8.47,8.47,0,0,1-3.31,3.83l-.14-.16a10.79,10.79,0,0,0,3-6.32l1.66.36c-.06.19-.23.3-.54.3a12.08,12.08,0,0,1-.54,1.64,4,4,0,0,0,2.42,2.33v-5.66l1.6.15c0,.2-.14.32-.47.37v1.72h2.55l.77-.93s.86.65,1.39,1.12c0,.16-.18.23-.38.23h-4.33ZM350.55,481v-2.28h-4.23l-.12-.41h4.35v-2.12l1.64.16c0,.2-.16.34-.51.39v1.57h2.58l.75-.91s.85.63,1.38,1.09c0,.16-.19.23-.38.23h-4.33V481h3.71l.76-.93s.87.65,1.4,1.13c0,.15-.18.22-.38.22H344.94l-.12-.42Z"/><path class="cls-1" d="M366.42,476.48l1.67,1.22a2.37,2.37,0,0,1-1.53.5v.63a10.4,10.4,0,0,0,6.61,9.13l-.05.17a1.34,1.34,0,0,0-1.18,1,11,11,0,0,1-5.22-7.31,11.16,11.16,0,0,1-6.4,7.3l-.15-.2c3.1-1.68,5.54-5.27,6-10.09v-1h-3.21l-.1-.41h3Z"/><path class="cls-1" d="M387.2,476.35s.86.65,1.4,1.12c0,.16-.19.23-.39.23h-10.3v3.06c0,2.48-.09,6-2.08,8.37l-.21-.13c1.15-2.48,1.23-5.55,1.23-8.22v-4l1.26.5h8.32Zm-.07,11s.86.64,1.39,1.12c0,.15-.18.22-.38.22H377.38l-.11-.4h2.33v-3.46l1.52.14c0,.19-.14.3-.46.36v3h1.95V483.9l1.54.15c0,.19-.13.31-.46.37v1.23h1.73l.7-.84s.76.59,1.25,1a.33.33,0,0,1-.36.22h-3.32v2.22h2.68Zm-9.27-3.76a7.54,7.54,0,0,0,1.68-2.8h-1.42l-.11-.4h1.84v-1.17c-.51.09-1,.14-1.5.18l-.09-.23a17.46,17.46,0,0,0,3.13-1.19l1,.89c-.13.11-.35.1-.65,0-.25.07-.56.14-.89.21v1.32h.35l.54-.68a12.38,12.38,0,0,1,1,.86c0,.15-.16.22-.35.22h-1.52v.31c2.44.5,1.68,2,.87,1.48a3.82,3.82,0,0,0-.87-1.26v2.5a1,1,0,0,1-.81.31h-.17v-2a7.58,7.58,0,0,1-1.82,1.7Zm4.4-.07a7.32,7.32,0,0,0,2-2.73h-1.36l-.11-.4h1.86v-1.18c-.52.07-1.08.13-1.57.15l-.07-.24a20.18,20.18,0,0,0,3.39-1.16l1,.91c-.13.11-.37.1-.67,0a10.55,10.55,0,0,1-1.07.19v1.34h.73l.59-.78s.68.55,1.08,1a.33.33,0,0,1-.35.22h-2v.35c2.89.74,2.28,2.47,1.37,1.93a5.94,5.94,0,0,0-1.37-1.59v2.25c0,.09-.34.31-.81.31h-.17V481.9a7.68,7.68,0,0,1-2.27,1.85Z"/><path class="cls-1" d="M398.22,482.84a5.91,5.91,0,0,1-1.15,3.44,16.68,16.68,0,0,0,7,1.61v.16a1.3,1.3,0,0,0-1,1.06,13.19,13.19,0,0,1-6.59-2.22,10.29,10.29,0,0,1-5.26,2.25l-.07-.24a8.58,8.58,0,0,0,4.67-2.59,7.28,7.28,0,0,1-1.68-2.51l.21-.15a6,6,0,0,0,1.85,2.13,6.5,6.5,0,0,0,.82-2.94H393.8v.78c0,.11-.49.37-.95.37h-.17v-5.76l1.22.53h3.2v-2.49l1.63.18c0,.18-.15.32-.49.38v1.93h3.2l.59-.66,1.27,1a1.08,1.08,0,0,1-.6.29v4.15a1.44,1.44,0,0,1-.94.35h-.18v-1Zm-1.12-.42v-3.27h-3.3v3.27Zm1.14-3.27v3.27h3.34v-3.27Z"/><path class="cls-2" d="M4.34,48.5A15,15,0,0,1,2.63,47a8.92,8.92,0,0,1-1.38-1.78,9,9,0,0,1-.91-2.2,10.81,10.81,0,0,1,0-5.38,9.09,9.09,0,0,1,.94-2.18,10.32,10.32,0,0,1,1.4-1.83,20,20,0,0,1,1.71-1.59l.38.32A17.23,17.23,0,0,0,3.46,34a9.29,9.29,0,0,0-1,1.76,10.77,10.77,0,0,0-.66,2.08,12.85,12.85,0,0,0-.23,2.51,11.42,11.42,0,0,0,.25,2.49,10,10,0,0,0,.7,2.11,9.76,9.76,0,0,0,1,1.76,13.45,13.45,0,0,0,1.25,1.44Z"/><path class="cls-2" d="M18.15,44.72H12.89v-.53c.3-.13.6-.24.91-.35s.61-.19.93-.26V34.74l.07-1.06a4.79,4.79,0,0,1-1.05.28,5.82,5.82,0,0,1-1.11.06l-.09-.43a16.25,16.25,0,0,0,1.71-.67,7.75,7.75,0,0,0,1.64-1h.45V43.58c.3.07.6.16.9.26s.6.22.9.35Z"/><path class="cls-2" d="M21.44,36a4.91,4.91,0,0,1,.26-1.62,3.42,3.42,0,0,1,.78-1.28,3.49,3.49,0,0,1,1.26-.84,4.86,4.86,0,0,1,3.52,0,3.44,3.44,0,0,1,1.27,1,4,4,0,0,1,.74,1.54,7.93,7.93,0,0,1,.23,2A9.58,9.58,0,0,1,29,39.87a8.87,8.87,0,0,1-1.32,2.5,6.94,6.94,0,0,1-2,1.73,6.41,6.41,0,0,1-2.46.83l-.33-.52a6,6,0,0,0,3.29-2.17,6.79,6.79,0,0,0,.94-1.69,9,9,0,0,0,.51-1.95,4,4,0,0,1-1,.73,3.46,3.46,0,0,1-1.54.29,4.54,4.54,0,0,1-1.5-.24,3.31,3.31,0,0,1-1.17-.71,3.44,3.44,0,0,1-.76-1.15A4.07,4.07,0,0,1,21.44,36Zm1.73,0a3.2,3.2,0,0,0,.16,1,2.76,2.76,0,0,0,.47.88,2.21,2.21,0,0,0,.74.62,1.94,1.94,0,0,0,1,.24,3.06,3.06,0,0,0,1.43-.3,2.07,2.07,0,0,0,.84-.75,4.62,4.62,0,0,0,0-.58v-.55a6.64,6.64,0,0,0-.13-1.32A4.19,4.19,0,0,0,27.25,34a2.57,2.57,0,0,0-.75-.88,2,2,0,0,0-2.76.51A4.16,4.16,0,0,0,23.17,35.93Z"/><path class="cls-2" d="M39.73,40.92a4.19,4.19,0,0,1-.29,1.55,3.81,3.81,0,0,1-2.07,2.15,4.13,4.13,0,0,1-1.64.31A4.19,4.19,0,0,1,34,44.58a3.52,3.52,0,0,1-1.3-1,4.21,4.21,0,0,1-.81-1.49,6.35,6.35,0,0,1-.27-1.89,8.43,8.43,0,0,1,.56-3.11,8.68,8.68,0,0,1,1.49-2.5,8.49,8.49,0,0,1,2.12-1.81,8.32,8.32,0,0,1,2.49-1l.2.54a8.16,8.16,0,0,0-1.81.93,7.71,7.71,0,0,0-1.53,1.38A7.29,7.29,0,0,0,34,36.41a6.45,6.45,0,0,0-.56,2.11,2.58,2.58,0,0,1,1-.89,3.48,3.48,0,0,1,1.71-.4,4,4,0,0,1,1.44.25,3.22,3.22,0,0,1,1.13.72,3.4,3.4,0,0,1,.74,1.15A4.27,4.27,0,0,1,39.73,40.92ZM38,41.08a3.38,3.38,0,0,0-.62-2.1,2.08,2.08,0,0,0-1.74-.82,2.48,2.48,0,0,0-1.45.43,2.52,2.52,0,0,0-.85.95,3.54,3.54,0,0,0,0,.6v.54a5,5,0,0,0,.15,1.19A4.22,4.22,0,0,0,33.92,43a2.73,2.73,0,0,0,.79.83,1.91,1.91,0,0,0,1.11.33,1.82,1.82,0,0,0,1-.26,2.17,2.17,0,0,0,.68-.7,3.34,3.34,0,0,0,.38-1A4.61,4.61,0,0,0,38,41.08Z"/><path class="cls-2" d="M48.44,44.72H43.18v-.53c.3-.13.61-.24.91-.35s.62-.19.93-.26V34.74l.07-1.06a4.56,4.56,0,0,1-1,.28,5.88,5.88,0,0,1-1.12.06l-.09-.43a16.25,16.25,0,0,0,1.71-.67,7.5,7.5,0,0,0,1.64-1h.45V43.58c.3.07.6.16.9.26s.6.22.9.35Z"/><path class="cls-2" d="M56.11,48.14a12.08,12.08,0,0,0,1.25-1.47,9.38,9.38,0,0,0,1-1.82,11.49,11.49,0,0,0,.69-2.17,11.83,11.83,0,0,0,.25-2.52,12.39,12.39,0,0,0-.23-2.48,10.63,10.63,0,0,0-.65-2,9.16,9.16,0,0,0-1-1.71,16.83,16.83,0,0,0-1.31-1.55l.38-.32a19,19,0,0,1,1.71,1.49,9.25,9.25,0,0,1,1.4,1.77,8.75,8.75,0,0,1,.93,2.16,9.52,9.52,0,0,1,.35,2.66,10.53,10.53,0,0,1-.33,2.73A9.22,9.22,0,0,1,58.28,47a13.08,13.08,0,0,1-1.74,1.51Z"/><path class="cls-2" d="M9.57,5.69H8.76q-.15-.36-.33-.84l-.37-1c-.13-.35-.25-.7-.36-1s-.2-.66-.26-.95A7.64,7.64,0,0,1,9.58.6,8.6,8.6,0,0,1,12.76.07,7,7,0,0,1,15,.41a4.35,4.35,0,0,1,1.6.94,3.73,3.73,0,0,1,.94,1.39,4.75,4.75,0,0,1,.3,1.7,5.94,5.94,0,0,1-.68,2.77,12.1,12.1,0,0,1-1.65,2.45,21,21,0,0,1-2.11,2.11l-2,1.77-1.25.84v.09l1.46-.14h4.13l1.18-2.69h.81c.05.39.1.83.16,1.35S18,14,18,14.53s.09,1,.12,1.49.05.85.05,1.14h-11V15.62c.42-.36.89-.79,1.42-1.28s1.06-1,1.6-1.61,1.08-1.2,1.61-1.86a18.75,18.75,0,0,0,1.42-2,10.66,10.66,0,0,0,1-2.08,6.12,6.12,0,0,0,.38-2.06,3.2,3.2,0,0,0-.71-2.15,2.5,2.5,0,0,0-2-.83A4.62,4.62,0,0,0,10.46,2Z"/><path class="cls-2" d="M32.56,17.16H25.15v-1a14.23,14.23,0,0,1,2.21-.58V12.84H20.25V11.76L29.44.07h1.3V11.28h2.95v1.56H30.74v2.71a9.17,9.17,0,0,1,1.82.58Zm-5.2-11,.24-1.68h-.08l-.91,1.68-3.48,4.49-1,.79,1.71-.17h3.48Z"/><path class="cls-2" d="M35.32,4.15a4,4,0,0,1,.34-1.68,3.72,3.72,0,0,1,1-1.28A4.23,4.23,0,0,1,38.06.36,5.78,5.78,0,0,1,39.93.07a6.59,6.59,0,0,1,1.89.26,4,4,0,0,1,1.45.75,3.41,3.41,0,0,1,.93,1.27,4.41,4.41,0,0,1,.34,1.8,4.07,4.07,0,0,1-.34,1.7,3.61,3.61,0,0,1-.93,1.28A4.45,4.45,0,0,1,41.82,8a6,6,0,0,1-1.89.28A6.41,6.41,0,0,1,38.06,8a4.25,4.25,0,0,1-1.45-.75,3.31,3.31,0,0,1-1-1.28A4.35,4.35,0,0,1,35.32,4.15ZM50.9,0l1.15,1L38,17.47l-1.13-1ZM38.2,4.15c0,1.91.58,2.86,1.73,2.86a1.44,1.44,0,0,0,1.28-.64,4,4,0,0,0,.45-2.22,4,4,0,0,0-.45-2.22,1.65,1.65,0,0,0-2.59,0A4.29,4.29,0,0,0,38.2,4.15Zm6.24,9.2a3.91,3.91,0,0,1,.34-1.68,3.67,3.67,0,0,1,.95-1.29,4.3,4.3,0,0,1,1.45-.83,5.78,5.78,0,0,1,1.87-.28,6.6,6.6,0,0,1,1.89.25,4.16,4.16,0,0,1,1.45.75,3.41,3.41,0,0,1,.93,1.27,4.43,4.43,0,0,1,.34,1.81A4.05,4.05,0,0,1,53.32,15a3.61,3.61,0,0,1-.93,1.28,4.28,4.28,0,0,1-1.45.82,6,6,0,0,1-1.89.29,6.4,6.4,0,0,1-1.87-.26,4,4,0,0,1-1.45-.75,3.35,3.35,0,0,1-.95-1.27A4.41,4.41,0,0,1,44.44,13.35Zm2.88,0c0,1.9.58,2.85,1.73,2.85a1.46,1.46,0,0,0,1.28-.63,4,4,0,0,0,.45-2.22,4.06,4.06,0,0,0-.45-2.23,1.65,1.65,0,0,0-2.59,0A4.31,4.31,0,0,0,47.32,13.35Z"/><path class="cls-2" d="M333,400.34a14.88,14.88,0,0,1-1.71-1.45,8.83,8.83,0,0,1-2.29-4,9.92,9.92,0,0,1-.34-2.72,10,10,0,0,1,.34-2.67,9,9,0,0,1,.94-2.17,10.32,10.32,0,0,1,1.4-1.83,18.48,18.48,0,0,1,1.71-1.59l.38.32a17.23,17.23,0,0,0-1.31,1.59,9,9,0,0,0-1,1.76,10.77,10.77,0,0,0-.66,2.08,12.85,12.85,0,0,0-.23,2.51,11.42,11.42,0,0,0,.25,2.49,10.25,10.25,0,0,0,.7,2.11,9.34,9.34,0,0,0,1,1.75,11.75,11.75,0,0,0,1.25,1.44Z"/><path class="cls-2" d="M341.58,387.47h-.45c-.13-.34-.27-.75-.41-1.22s-.25-.91-.35-1.33a4.78,4.78,0,0,1,1.52-.86,5.57,5.57,0,0,1,1.9-.31,4.23,4.23,0,0,1,1.55.25,3,3,0,0,1,1.07.68,2.67,2.67,0,0,1,.62,1,3.36,3.36,0,0,1,.2,1.18,5,5,0,0,1-.47,2.07A12,12,0,0,1,345.6,391a16.27,16.27,0,0,1-1.5,1.88c-.54.59-1,1.11-1.49,1.55l-.76.7v.07l1-.1H346l.89-2h.45c0,.27,0,.55.07.87l.06.94c0,.32,0,.62.05.92s0,.55,0,.76h-7.43V396l1-1c.38-.4.77-.84,1.18-1.31s.82-1,1.22-1.53a14.94,14.94,0,0,0,1.07-1.65,10.29,10.29,0,0,0,.76-1.67,4.63,4.63,0,0,0,.3-1.58,3.54,3.54,0,0,0-.13-1,2.63,2.63,0,0,0-.41-.82,2,2,0,0,0-.66-.55,1.92,1.92,0,0,0-.89-.2,3.23,3.23,0,0,0-.66.06,4.16,4.16,0,0,0-.63.16Z"/><path class="cls-2" d="M349.91,390.26a8.9,8.9,0,0,1,1.08-4.87,3.86,3.86,0,0,1,6.29,0,9.44,9.44,0,0,1,1,4.9,8.94,8.94,0,0,1-1.08,4.88,3.63,3.63,0,0,1-3.22,1.64,3.77,3.77,0,0,1-1.87-.44,3.37,3.37,0,0,1-1.26-1.28,6.52,6.52,0,0,1-.71-2A15.15,15.15,0,0,1,349.91,390.26Zm1.73,0a18.68,18.68,0,0,0,.13,2.35,8.22,8.22,0,0,0,.4,1.82,3.12,3.12,0,0,0,.72,1.18A1.54,1.54,0,0,0,354,396a2,2,0,0,0,2-1.4,12,12,0,0,0,.59-4.36c0-.86,0-1.64-.11-2.35a7.14,7.14,0,0,0-.4-1.81,3,3,0,0,0-.76-1.17,1.8,1.8,0,0,0-1.2-.41,1.93,1.93,0,0,0-1.9,1.39A12.86,12.86,0,0,0,351.64,390.28Z"/><path class="cls-2" d="M360,390.26a8.9,8.9,0,0,1,1.08-4.87,3.85,3.85,0,0,1,6.28,0,9.33,9.33,0,0,1,1,4.9,8.84,8.84,0,0,1-1.09,4.88,3.6,3.6,0,0,1-3.21,1.64,3.75,3.75,0,0,1-1.87-.44,3.37,3.37,0,0,1-1.26-1.28,6.27,6.27,0,0,1-.71-2A15.15,15.15,0,0,1,360,390.26Zm1.73,0a18.68,18.68,0,0,0,.13,2.35,7.69,7.69,0,0,0,.4,1.82,3.12,3.12,0,0,0,.72,1.18,1.52,1.52,0,0,0,1.07.41,2,2,0,0,0,2-1.4,12,12,0,0,0,.58-4.36c0-.86,0-1.64-.1-2.35a7.6,7.6,0,0,0-.4-1.81,2.88,2.88,0,0,0-.77-1.17,1.76,1.76,0,0,0-1.19-.41,1.93,1.93,0,0,0-1.9,1.39A12.61,12.61,0,0,0,361.74,390.28Z"/><path class="cls-2" d="M377.13,396.56h-5.26V396c.3-.13.61-.25.91-.35s.62-.19.93-.26v-8.84l.07-1.06a5.14,5.14,0,0,1-1,.28,6.83,6.83,0,0,1-1.12.06l-.09-.43a16.4,16.4,0,0,0,1.71-.68,7.46,7.46,0,0,0,1.64-1h.45v11.68c.3.07.6.16.9.26s.6.22.9.35Z"/><path class="cls-2" d="M384.8,400a11.26,11.26,0,0,0,1.25-1.46,9.68,9.68,0,0,0,1-1.82A11.53,11.53,0,0,0,388,392a12.56,12.56,0,0,0-.23-2.49,10.52,10.52,0,0,0-.65-2,9.16,9.16,0,0,0-1-1.71,16.83,16.83,0,0,0-1.31-1.55l.38-.32a16.3,16.3,0,0,1,1.71,1.49,9.25,9.25,0,0,1,1.4,1.77,8.44,8.44,0,0,1,.93,2.16,9.52,9.52,0,0,1,.35,2.66,10.58,10.58,0,0,1-.33,2.73,9,9,0,0,1-.9,2.25,9.53,9.53,0,0,1-1.37,1.85,12.32,12.32,0,0,1-1.74,1.5Z"/><path class="cls-2" d="M352.87,350.89h.81c0,.24,0,.55,0,.93s-.05.78-.1,1.18-.1.78-.17,1.14a5,5,0,0,1-.19.83h-6.57l-.44,3.43h2a7.58,7.58,0,0,1,2.35.35,5.1,5.1,0,0,1,1.8,1,4.52,4.52,0,0,1,1.15,1.6,6,6,0,0,1-.11,4.61,5.18,5.18,0,0,1-1.4,1.8,6.38,6.38,0,0,1-2.09,1.13,8.36,8.36,0,0,1-2.59.4,7,7,0,0,1-2.55-.45,6.84,6.84,0,0,1-1.84-1l1-2.38h.7c.11.11.24.26.38.43l.46.55.46.58.38.5a2.55,2.55,0,0,0,.44.15,2.61,2.61,0,0,0,.54.05,3.57,3.57,0,0,0,1.35-.26,3.11,3.11,0,0,0,1.07-.7,3.52,3.52,0,0,0,.7-1.09,3.62,3.62,0,0,0,.27-1.41,3.19,3.19,0,0,0-.33-1.48,2.84,2.84,0,0,0-.87-1,3.81,3.81,0,0,0-1.3-.61,5.71,5.71,0,0,0-1.56-.21l-2.09,0,1-8.76h6.27Z"/><path class="cls-2" d="M357,356a4.13,4.13,0,0,1,.33-1.68,3.86,3.86,0,0,1,.95-1.28,4.23,4.23,0,0,1,1.45-.83,5.84,5.84,0,0,1,1.88-.29,7,7,0,0,1,1.88.25,3.93,3.93,0,0,1,1.45.76,3.54,3.54,0,0,1,.94,1.27,4.52,4.52,0,0,1,.33,1.8,4.18,4.18,0,0,1-.33,1.69A3.8,3.8,0,0,1,365,359a4.17,4.17,0,0,1-1.45.81,5.93,5.93,0,0,1-1.88.29,6.48,6.48,0,0,1-1.88-.25,4.1,4.1,0,0,1-1.45-.76,3.37,3.37,0,0,1-.95-1.27A4.52,4.52,0,0,1,357,356Zm15.57-4.15,1.15,1-14,16.46-1.13-1ZM359.9,356c0,1.91.57,2.86,1.73,2.86a1.49,1.49,0,0,0,1.28-.64,5.82,5.82,0,0,0,0-4.44,1.49,1.49,0,0,0-1.28-.64,1.46,1.46,0,0,0-1.31.64A4.24,4.24,0,0,0,359.9,356Zm6.24,9.19a4.13,4.13,0,0,1,.33-1.68,3.86,3.86,0,0,1,.95-1.28,4.23,4.23,0,0,1,1.45-.83,5.82,5.82,0,0,1,1.87-.29,7,7,0,0,1,1.89.25,3.93,3.93,0,0,1,1.45.76,3.54,3.54,0,0,1,.94,1.27,4.59,4.59,0,0,1,.33,1.8,4.14,4.14,0,0,1-.33,1.69,3.71,3.71,0,0,1-.94,1.29,4.17,4.17,0,0,1-1.45.81,5.68,5.68,0,0,1-1.89.29,6.46,6.46,0,0,1-1.87-.25,4.25,4.25,0,0,1-1.45-.75,3.41,3.41,0,0,1-.95-1.28A4.52,4.52,0,0,1,366.14,365.19Zm2.88,0c0,1.91.57,2.86,1.72,2.86a1.47,1.47,0,0,0,1.29-.64,4.11,4.11,0,0,0,.44-2.22A4.16,4.16,0,0,0,372,363a1.49,1.49,0,0,0-1.29-.63,1.45,1.45,0,0,0-1.3.63A4.29,4.29,0,0,0,369,365.19Z"/><line class="cls-3" x1="198.59" y1="23.97" x2="82.59" y2="23.97"/><circle class="cls-2" cx="82.59" cy="23.97" r="2.26"/><line class="cls-3" x1="359.13" y1="438.49" x2="359.13" y2="413.26"/><circle class="cls-2" cx="359.13" cy="413.26" r="2.26"/><path class="cls-4" d="M82.79,423.48a9.72,9.72,0,0,1-1.14-1,6,6,0,0,1-.92-1.19,6.15,6.15,0,0,1-.61-1.46A6.77,6.77,0,0,1,79.9,418a6.49,6.49,0,0,1,.23-1.77,6.1,6.1,0,0,1,.62-1.45,7.42,7.42,0,0,1,.93-1.22,12.89,12.89,0,0,1,1.15-1.06l.25.21c-.32.35-.61.7-.88,1.06a6.12,6.12,0,0,0-.67,1.17,6.64,6.64,0,0,0-.44,1.39,7.83,7.83,0,0,0-.16,1.67,7.94,7.94,0,0,0,.17,1.67,7.41,7.41,0,0,0,.46,1.4,6.68,6.68,0,0,0,.69,1.17,7.74,7.74,0,0,0,.83,1Z"/><path class="cls-4" d="M92,421H88.49v-.35a8.32,8.32,0,0,1,1.23-.41v-5.89l0-.71a3.2,3.2,0,0,1-.69.19,3.7,3.7,0,0,1-.75,0l-.06-.29a10.33,10.33,0,0,0,1.14-.45,5.14,5.14,0,0,0,1.1-.67h.3v7.78l.6.18c.2.07.4.14.6.23Z"/><path class="cls-4" d="M94.19,415.12a3.06,3.06,0,0,1,.18-1.08,2.26,2.26,0,0,1,.51-.86,2.47,2.47,0,0,1,.84-.56,3,3,0,0,1,1.15-.2,2.79,2.79,0,0,1,1.2.23,2.3,2.3,0,0,1,.85.65,2.74,2.74,0,0,1,.49,1,5.08,5.08,0,0,1,.16,1.34,6.22,6.22,0,0,1-.33,2.06,5.48,5.48,0,0,1-.88,1.66A4.42,4.42,0,0,1,97,420.55a4.14,4.14,0,0,1-1.64.55l-.21-.34a4.09,4.09,0,0,0,1.25-.57,4,4,0,0,0,.94-.88,4.62,4.62,0,0,0,.63-1.13,5.51,5.51,0,0,0,.33-1.3,2.71,2.71,0,0,1-.65.49,2.25,2.25,0,0,1-1,.19,2.86,2.86,0,0,1-1-.16,2,2,0,0,1-.78-.47,2.16,2.16,0,0,1-.51-.77A2.61,2.61,0,0,1,94.19,415.12Zm1.15,0a2.2,2.2,0,0,0,.11.68,2,2,0,0,0,.31.59,1.53,1.53,0,0,0,.5.41,1.24,1.24,0,0,0,.64.16,2.07,2.07,0,0,0,1-.2,1.38,1.38,0,0,0,.56-.5,3.84,3.84,0,0,0,0-.39v-.36a4.46,4.46,0,0,0-.09-.88,2.87,2.87,0,0,0-.28-.81,1.72,1.72,0,0,0-.51-.59,1.21,1.21,0,0,0-.74-.23,1.24,1.24,0,0,0-1.1.57A2.8,2.8,0,0,0,95.34,415.1Z"/><path class="cls-4" d="M101.69,414.71h-.3q0-.25-.09-.54c0-.19-.06-.39-.09-.58s0-.37,0-.55,0-.34,0-.48h5v.35c-.4.71-.73,1.37-1,2a18.06,18.06,0,0,0-.68,1.81c-.18.62-.35,1.26-.48,1.95s-.27,1.46-.41,2.32h-1.2a31.85,31.85,0,0,1,1.1-3.48q.66-1.73,1.53-3.48l.36-.58-.63.06h-2.54Z"/><path class="cls-4" d="M112.19,421h-3.5v-.35c.2-.09.4-.16.6-.23s.41-.13.62-.18v-5.89l0-.71a3.29,3.29,0,0,1-.7.19,3.6,3.6,0,0,1-.74,0l-.06-.29a10.33,10.33,0,0,0,1.14-.45,5.07,5.07,0,0,0,1.09-.67h.3v7.78l.6.18c.2.07.4.14.6.23Z"/><path class="cls-4" d="M117.3,423.24a6.75,6.75,0,0,0,.84-1,7,7,0,0,0,.68-1.21,7.69,7.69,0,0,0,.45-1.45,8.1,8.1,0,0,0,.17-1.68,7.57,7.57,0,0,0-.16-1.65,6.1,6.1,0,0,0-.43-1.35,6.55,6.55,0,0,0-.67-1.14,11.75,11.75,0,0,0-.88-1l.26-.21a12.08,12.08,0,0,1,1.14,1,6,6,0,0,1,1.56,2.62,6.5,6.5,0,0,1,.22,1.77,7.34,7.34,0,0,1-.21,1.82,6.71,6.71,0,0,1-.6,1.5,6.23,6.23,0,0,1-.92,1.24,8.5,8.5,0,0,1-1.16,1Z"/><path class="cls-4" d="M91,403.71H85.48V403c.27-.12.54-.22.81-.31a7.71,7.71,0,0,1,.82-.24v-7.34l.07-.94a4.79,4.79,0,0,1-.93.19,8.06,8.06,0,0,1-1,0l-.08-.59c.56-.15,1.18-.36,1.84-.61a11.77,11.77,0,0,0,1.85-.9h.55v10.16c.26.07.53.14.8.24s.53.19.8.31Z"/><path class="cls-4" d="M101.51,400.27a3.5,3.5,0,0,1-.31,1.5,3.45,3.45,0,0,1-.84,1.14,3.66,3.66,0,0,1-1.24.73,4.44,4.44,0,0,1-1.51.26,4.71,4.71,0,0,1-1.75-.31,3.45,3.45,0,0,1-1.28-.88,3.62,3.62,0,0,1-.77-1.32,5.1,5.1,0,0,1-.27-1.68,7.07,7.07,0,0,1,.53-2.76,7.39,7.39,0,0,1,1.43-2.2,7.8,7.8,0,0,1,2.08-1.6,9.44,9.44,0,0,1,2.54-.93l.24.69a6.65,6.65,0,0,0-1.6.73,5.63,5.63,0,0,0-1.3,1.13,5.73,5.73,0,0,0-.93,1.5,6.36,6.36,0,0,0-.46,1.85,3,3,0,0,1,.33-.41,2.39,2.39,0,0,1,.49-.36,2.48,2.48,0,0,1,.66-.28,3.22,3.22,0,0,1,.86-.1,3.51,3.51,0,0,1,1.22.21,2.68,2.68,0,0,1,1,.62,3.07,3.07,0,0,1,.65,1A4,4,0,0,1,101.51,400.27Zm-2.4.19c0-1.58-.53-2.37-1.58-2.37a1.51,1.51,0,0,0-.93.28A1.71,1.71,0,0,0,96,399a3.45,3.45,0,0,0-.07.52,5.44,5.44,0,0,0,0,.57,5.82,5.82,0,0,0,.1,1,3,3,0,0,0,.3.9,1.85,1.85,0,0,0,.54.63,1.3,1.3,0,0,0,.79.24,1.11,1.11,0,0,0,.67-.2,1.35,1.35,0,0,0,.44-.53,2.62,2.62,0,0,0,.25-.79A5.67,5.67,0,0,0,99.11,400.46Z"/><path class="cls-4" d="M103,395a2.7,2.7,0,0,1,.23-1.12,2.52,2.52,0,0,1,.63-.85,2.81,2.81,0,0,1,1-.56,4,4,0,0,1,1.25-.19,4.5,4.5,0,0,1,1.25.17,2.7,2.7,0,0,1,1,.5,2.31,2.31,0,0,1,.62.85,3,3,0,0,1,.23,1.2,2.71,2.71,0,0,1-.23,1.13,2.43,2.43,0,0,1-.62.86,2.94,2.94,0,0,1-1,.54,3.86,3.86,0,0,1-1.25.19,4.41,4.41,0,0,1-1.25-.16,2.72,2.72,0,0,1-1-.51,2.25,2.25,0,0,1-.63-.85A3,3,0,0,1,103,395Zm10.39-2.76.77.67-9.36,11-.76-.68ZM104.9,395c0,1.27.39,1.91,1.16,1.91a1,1,0,0,0,.85-.43,2.66,2.66,0,0,0,.3-1.48,2.71,2.71,0,0,0-.3-1.48,1.1,1.1,0,0,0-1.73,0A2.94,2.94,0,0,0,104.9,395Zm4.16,6.13a2.7,2.7,0,0,1,.23-1.12,2.52,2.52,0,0,1,.63-.85,2.81,2.81,0,0,1,1-.56,3.77,3.77,0,0,1,1.25-.19,4.5,4.5,0,0,1,1.25.17,2.7,2.7,0,0,1,1,.5,2.31,2.31,0,0,1,.62.85,3,3,0,0,1,.23,1.2,2.75,2.75,0,0,1-.23,1.13,2.43,2.43,0,0,1-.62.86,2.94,2.94,0,0,1-1,.54,3.86,3.86,0,0,1-1.25.19,4.07,4.07,0,0,1-1.25-.17,2.7,2.7,0,0,1-1-.5,2.33,2.33,0,0,1-.63-.85A3,3,0,0,1,109.06,401.16Zm1.92,0c0,1.27.39,1.91,1.16,1.91a1,1,0,0,0,.85-.43,3.8,3.8,0,0,0,0-3,1.1,1.1,0,0,0-1.73,0A2.91,2.91,0,0,0,111,401.16Z"/><path class="cls-4" d="M152.79,423.43a8.85,8.85,0,0,1-1.14-1,6,6,0,0,1-.92-1.19,6.15,6.15,0,0,1-.61-1.46,6.75,6.75,0,0,1-.22-1.81,6.51,6.51,0,0,1,.23-1.78,6.1,6.1,0,0,1,.62-1.45,7.42,7.42,0,0,1,.93-1.22,12.89,12.89,0,0,1,1.15-1.06l.25.21c-.32.35-.61.7-.88,1.06a5.91,5.91,0,0,0-.67,1.18,6.37,6.37,0,0,0-.44,1.38,8.53,8.53,0,0,0,0,3.34,7.18,7.18,0,0,0,.46,1.4,6.68,6.68,0,0,0,.69,1.17,7.74,7.74,0,0,0,.83,1Z"/><path class="cls-4" d="M162,420.91h-3.51v-.35l.61-.23a4.37,4.37,0,0,1,.62-.17v-5.9l0-.7a3.18,3.18,0,0,1-.69.18,3.7,3.7,0,0,1-.75,0l-.06-.28a10.33,10.33,0,0,0,1.14-.45,5.18,5.18,0,0,0,1.1-.68h.3v7.79a4.5,4.5,0,0,1,.6.17l.6.23Z"/><path class="cls-4" d="M164.19,415.07a3.14,3.14,0,0,1,.18-1.08,2.22,2.22,0,0,1,.51-.85,2.5,2.5,0,0,1,.84-.57,3.15,3.15,0,0,1,1.15-.2,3,3,0,0,1,1.2.23,2.32,2.32,0,0,1,.85.66,2.69,2.69,0,0,1,.49,1,5.13,5.13,0,0,1,.16,1.34,6.22,6.22,0,0,1-.33,2.06,5.53,5.53,0,0,1-.88,1.67A4.53,4.53,0,0,1,167,420.5a4.32,4.32,0,0,1-1.64.56l-.21-.35a4.09,4.09,0,0,0,1.25-.57,3.76,3.76,0,0,0,.94-.88,4.44,4.44,0,0,0,.63-1.13,5.51,5.51,0,0,0,.33-1.3,2.47,2.47,0,0,1-.65.49,2.24,2.24,0,0,1-1,.2,2.86,2.86,0,0,1-1-.17,1.92,1.92,0,0,1-.78-.47,2.08,2.08,0,0,1-.51-.77A2.61,2.61,0,0,1,164.19,415.07Zm1.15,0a2.19,2.19,0,0,0,.11.67,2,2,0,0,0,.31.59,1.7,1.7,0,0,0,.5.42,1.34,1.34,0,0,0,.64.15,2,2,0,0,0,1-.2,1.36,1.36,0,0,0,.56-.49c0-.11,0-.24,0-.39v-.37a4.46,4.46,0,0,0-.09-.88,2.87,2.87,0,0,0-.28-.81,1.72,1.72,0,0,0-.51-.59,1.21,1.21,0,0,0-.74-.23,1.24,1.24,0,0,0-1.1.57A2.81,2.81,0,0,0,165.34,415.06Z"/><path class="cls-4" d="M171,419a2.09,2.09,0,0,1,.55-1.44,2.84,2.84,0,0,1,.61-.52,4,4,0,0,1,.78-.37,4,4,0,0,1-.63-.4,2.42,2.42,0,0,1-.52-.49,2.22,2.22,0,0,1-.34-.6,2,2,0,0,1-.13-.74,2.11,2.11,0,0,1,.17-.85,1.76,1.76,0,0,1,.48-.66,2.13,2.13,0,0,1,.75-.44,3,3,0,0,1,1-.15,2.39,2.39,0,0,1,1.65.53,1.77,1.77,0,0,1,.59,1.38,1.74,1.74,0,0,1-.46,1.21,3.35,3.35,0,0,1-1.19.86,7.36,7.36,0,0,1,.78.48,3.46,3.46,0,0,1,.62.58,2.37,2.37,0,0,1,.41.68,2,2,0,0,1,.15.78,2,2,0,0,1-.69,1.54,2.45,2.45,0,0,1-.84.47,3.43,3.43,0,0,1-1.15.18,3.53,3.53,0,0,1-1.15-.17,2.29,2.29,0,0,1-.8-.45,1.83,1.83,0,0,1-.47-.65A2,2,0,0,1,171,419Zm4.17.06a1.64,1.64,0,0,0-.16-.74,1.91,1.91,0,0,0-.43-.59,3,3,0,0,0-.62-.48,6.3,6.3,0,0,0-.72-.4,2.45,2.45,0,0,0-.95,1,2.55,2.55,0,0,0-.2.54,2.27,2.27,0,0,0-.06.5,2,2,0,0,0,.09.58,1.42,1.42,0,0,0,.28.53,1.45,1.45,0,0,0,.5.37,1.67,1.67,0,0,0,.75.15,1.53,1.53,0,0,0,.66-.13,1.37,1.37,0,0,0,.48-.33,1.42,1.42,0,0,0,.29-.47A1.52,1.52,0,0,0,175.12,419.09Zm-2.82-4.78a1.45,1.45,0,0,0,.14.65,2.23,2.23,0,0,0,.37.5,3.07,3.07,0,0,0,.53.4l.61.34a2.76,2.76,0,0,0,.72-.82,2,2,0,0,0,.2-.9,1.77,1.77,0,0,0-.33-1.15,1.15,1.15,0,0,0-.92-.4,1.25,1.25,0,0,0-.56.12,1.24,1.24,0,0,0-.67.75A1.52,1.52,0,0,0,172.3,414.31Z"/><path class="cls-4" d="M182.19,420.91h-3.5v-.35l.6-.23a4.77,4.77,0,0,1,.62-.17v-5.9l.05-.7a3.27,3.27,0,0,1-.7.18,3.6,3.6,0,0,1-.74,0l-.06-.28a10.33,10.33,0,0,0,1.14-.45,5.11,5.11,0,0,0,1.09-.68h.3v7.79a4.5,4.5,0,0,1,.6.17l.6.23Z"/><path class="cls-4" d="M187.3,423.19a6.75,6.75,0,0,0,.84-1,6.67,6.67,0,0,0,.68-1.21,7.58,7.58,0,0,0,.45-1.44,8.1,8.1,0,0,0,.17-1.68,7.6,7.6,0,0,0-.16-1.66,6.19,6.19,0,0,0-1.1-2.48,10.54,10.54,0,0,0-.88-1l.26-.21a12.08,12.08,0,0,1,1.14,1,6.2,6.2,0,0,1,.93,1.18,5.87,5.87,0,0,1,.63,1.44,6.52,6.52,0,0,1,.22,1.78,7.25,7.25,0,0,1-.21,1.81,6.71,6.71,0,0,1-.6,1.5,6,6,0,0,1-.92,1.24,7.86,7.86,0,0,1-1.16,1Z"/><path class="cls-4" d="M162.61,403.66h-5.54V403c.27-.12.54-.22.81-.31a8.37,8.37,0,0,1,.82-.23v-7.35l.07-.94a4.79,4.79,0,0,1-.93.19,8.06,8.06,0,0,1-1,0l-.08-.59a18,18,0,0,0,1.85-.61,11.2,11.2,0,0,0,1.84-.89H161v10.16c.26.06.53.14.8.23s.53.19.8.31Z"/><path class="cls-4" d="M172,403.66h-5.53V403a7.14,7.14,0,0,1,.81-.31,7.66,7.66,0,0,1,.82-.23v-7.35l.06-.94a4.85,4.85,0,0,1-.92.19,8.23,8.23,0,0,1-1,0l-.08-.59a17.26,17.26,0,0,0,1.85-.61,11.31,11.31,0,0,0,1.85-.89h.54v10.16a7.32,7.32,0,0,1,.8.23,7.77,7.77,0,0,1,.8.31Z"/><path class="cls-4" d="M174.57,395a2.67,2.67,0,0,1,.23-1.12,2.46,2.46,0,0,1,.63-.86,2.88,2.88,0,0,1,1-.55,3.77,3.77,0,0,1,1.25-.19,4.45,4.45,0,0,1,1.25.16,2.72,2.72,0,0,1,1,.51,2.06,2.06,0,0,1,.62.85,3,3,0,0,1,.23,1.2,2.7,2.7,0,0,1-.23,1.12,2.32,2.32,0,0,1-.62.86,2.77,2.77,0,0,1-1,.54,3.81,3.81,0,0,1-1.25.2,4.39,4.39,0,0,1-1.25-.17,2.65,2.65,0,0,1-1-.51,2.22,2.22,0,0,1-.63-.84A3,3,0,0,1,174.57,395ZM185,392.22l.77.67-9.36,11-.75-.69ZM176.49,395c0,1.26.39,1.9,1.16,1.9a1,1,0,0,0,.85-.42,2.71,2.71,0,0,0,.3-1.48,2.66,2.66,0,0,0-.3-1.48,1,1,0,0,0-.85-.43.94.94,0,0,0-.87.43A2.77,2.77,0,0,0,176.49,395Zm4.17,6.12a2.7,2.7,0,0,1,.22-1.12,2.52,2.52,0,0,1,.63-.85,2.72,2.72,0,0,1,1-.55,3.77,3.77,0,0,1,1.25-.2,4.44,4.44,0,0,1,1.25.17,2.57,2.57,0,0,1,1,.51,2.1,2.1,0,0,1,.62.84,3,3,0,0,1,.23,1.2,2.71,2.71,0,0,1-.23,1.13,2.32,2.32,0,0,1-.62.86,2.94,2.94,0,0,1-1,.54,3.81,3.81,0,0,1-1.25.19,4.41,4.41,0,0,1-1.25-.16,2.81,2.81,0,0,1-1-.51,2.25,2.25,0,0,1-.63-.85A3,3,0,0,1,180.66,401.11Zm1.91,0c0,1.27.39,1.91,1.16,1.91a1,1,0,0,0,.85-.43,2.66,2.66,0,0,0,.3-1.48,2.71,2.71,0,0,0-.3-1.48,1,1,0,0,0-.85-.42,1,1,0,0,0-.87.42A2.82,2.82,0,0,0,182.57,401.11Z"/><path class="cls-4" d="M222.79,423.43a8.85,8.85,0,0,1-1.14-1,6,6,0,0,1-.92-1.19,6.15,6.15,0,0,1-.61-1.46,6.75,6.75,0,0,1-.22-1.81,6.51,6.51,0,0,1,.23-1.78,6.1,6.1,0,0,1,.62-1.45,7.42,7.42,0,0,1,.93-1.22,12.89,12.89,0,0,1,1.15-1.06l.25.21c-.32.35-.61.7-.88,1.06a5.91,5.91,0,0,0-.67,1.18,6.37,6.37,0,0,0-.44,1.38,8.53,8.53,0,0,0,0,3.34,7.18,7.18,0,0,0,.46,1.4,6.68,6.68,0,0,0,.69,1.17,7.74,7.74,0,0,0,.83,1Z"/><path class="cls-4" d="M232,420.91h-3.51v-.35l.61-.23a4.37,4.37,0,0,1,.62-.17v-5.9l0-.7a3.18,3.18,0,0,1-.69.18,3.7,3.7,0,0,1-.75,0l-.06-.28a10.33,10.33,0,0,0,1.14-.45,5.18,5.18,0,0,0,1.1-.68h.3v7.79a4.5,4.5,0,0,1,.6.17l.6.23Z"/><path class="cls-4" d="M234.19,415.07a3.14,3.14,0,0,1,.18-1.08,2.22,2.22,0,0,1,.51-.85,2.5,2.5,0,0,1,.84-.57,3.15,3.15,0,0,1,1.15-.2,3,3,0,0,1,1.2.23,2.32,2.32,0,0,1,.85.66,2.69,2.69,0,0,1,.49,1,5.13,5.13,0,0,1,.16,1.34,6.22,6.22,0,0,1-.33,2.06,5.53,5.53,0,0,1-.88,1.67A4.53,4.53,0,0,1,237,420.5a4.32,4.32,0,0,1-1.64.56l-.21-.35a4.09,4.09,0,0,0,1.25-.57,3.76,3.76,0,0,0,.94-.88,4.44,4.44,0,0,0,.63-1.13,5.51,5.51,0,0,0,.33-1.3,2.47,2.47,0,0,1-.65.49,2.24,2.24,0,0,1-1,.2,2.86,2.86,0,0,1-1-.17,1.92,1.92,0,0,1-.78-.47,2.08,2.08,0,0,1-.51-.77A2.61,2.61,0,0,1,234.19,415.07Zm1.15,0a2.19,2.19,0,0,0,.11.67,2,2,0,0,0,.31.59,1.7,1.7,0,0,0,.5.42,1.34,1.34,0,0,0,.64.15,2,2,0,0,0,1-.2,1.36,1.36,0,0,0,.56-.49c0-.11,0-.24,0-.39v-.37a4.46,4.46,0,0,0-.09-.88,2.87,2.87,0,0,0-.28-.81,1.72,1.72,0,0,0-.51-.59,1.21,1.21,0,0,0-.74-.23,1.24,1.24,0,0,0-1.1.57A2.81,2.81,0,0,0,235.34,415.06Z"/><path class="cls-4" d="M240.92,415.07a3.14,3.14,0,0,1,.18-1.08,2.35,2.35,0,0,1,.51-.85,2.5,2.5,0,0,1,.84-.57,3.19,3.19,0,0,1,1.15-.2,3,3,0,0,1,1.21.23,2.29,2.29,0,0,1,.84.66,2.55,2.55,0,0,1,.49,1,5.13,5.13,0,0,1,.16,1.34,6.49,6.49,0,0,1-.32,2.06,5.55,5.55,0,0,1-.89,1.67,4.53,4.53,0,0,1-1.32,1.15,4.27,4.27,0,0,1-1.63.56l-.22-.35a4.09,4.09,0,0,0,1.25-.57,3.76,3.76,0,0,0,.94-.88,4.44,4.44,0,0,0,.63-1.13,6.05,6.05,0,0,0,.34-1.3,2.7,2.7,0,0,1-.66.49,2.22,2.22,0,0,1-1,.2,2.91,2.91,0,0,1-1-.17,2.08,2.08,0,0,1-1.29-1.24A2.79,2.79,0,0,1,240.92,415.07Zm1.16,0a2.18,2.18,0,0,0,.1.67,2,2,0,0,0,.32.59,1.66,1.66,0,0,0,.49.42,1.38,1.38,0,0,0,.65.15,1.94,1.94,0,0,0,1-.2,1.36,1.36,0,0,0,.56-.49c0-.11,0-.24,0-.39v-.37a4.46,4.46,0,0,0-.09-.88,2.87,2.87,0,0,0-.28-.81,1.81,1.81,0,0,0-.5-.59,1.34,1.34,0,0,0-1.85.34A2.81,2.81,0,0,0,242.08,415.06Z"/><path class="cls-4" d="M252.19,420.91h-3.5v-.35l.6-.23a4.77,4.77,0,0,1,.62-.17v-5.9l.05-.7a3.27,3.27,0,0,1-.7.18,3.6,3.6,0,0,1-.74,0l-.06-.28a10.33,10.33,0,0,0,1.14-.45,5.11,5.11,0,0,0,1.09-.68h.3v7.79a4.5,4.5,0,0,1,.6.17l.6.23Z"/><path class="cls-4" d="M257.3,423.19a6.75,6.75,0,0,0,.84-1,6.67,6.67,0,0,0,.68-1.21,7.58,7.58,0,0,0,.45-1.44,8.1,8.1,0,0,0,.17-1.68,7.6,7.6,0,0,0-.16-1.66,6.19,6.19,0,0,0-1.1-2.48,10.54,10.54,0,0,0-.88-1l.26-.21a12.08,12.08,0,0,1,1.14,1,6.2,6.2,0,0,1,.93,1.18,5.87,5.87,0,0,1,.63,1.44,6.52,6.52,0,0,1,.22,1.78,7.25,7.25,0,0,1-.21,1.81,6.71,6.71,0,0,1-.6,1.5,6,6,0,0,1-.92,1.24,7.86,7.86,0,0,1-1.16,1Z"/><path class="cls-4" d="M227,396h-.54c0-.22-.11-.5-.16-.82l-.15-1c0-.33-.09-.64-.12-.95s-.05-.55-.05-.74h7.49v.74a26.82,26.82,0,0,0-1.46,2.53,19,19,0,0,0-1,2.4,19.81,19.81,0,0,0-.66,2.55c-.18.88-.33,1.88-.46,3h-2.27a27.44,27.44,0,0,1,1.49-4.43A36.09,36.09,0,0,1,231.3,395l.59-.77-.8.08h-3.44Z"/><path class="cls-4" d="M235.2,395a2.67,2.67,0,0,1,.22-1.12,2.37,2.37,0,0,1,.64-.86,2.84,2.84,0,0,1,1-.55,3.81,3.81,0,0,1,1.25-.19,4.53,4.53,0,0,1,1.26.16,2.59,2.59,0,0,1,1,.51,2.18,2.18,0,0,1,.63.85,3,3,0,0,1,.22,1.2,2.7,2.7,0,0,1-.22,1.12,2.46,2.46,0,0,1-.63.86,2.64,2.64,0,0,1-1,.54,3.87,3.87,0,0,1-1.26.2,4.44,4.44,0,0,1-1.25-.17,2.6,2.6,0,0,1-1-.51,2.14,2.14,0,0,1-.64-.84A3,3,0,0,1,235.2,395Zm10.38-2.77.77.67-9.36,11-.75-.69ZM237.12,395c0,1.26.38,1.9,1.15,1.9a1,1,0,0,0,.86-.42,2.82,2.82,0,0,0,.29-1.48,2.77,2.77,0,0,0-.29-1.48,1,1,0,0,0-.86-.43,1,1,0,0,0-.87.43A2.78,2.78,0,0,0,237.12,395Zm4.16,6.12a2.7,2.7,0,0,1,.22-1.12,2.42,2.42,0,0,1,.64-.85,2.68,2.68,0,0,1,1-.55,3.81,3.81,0,0,1,1.25-.2,4.52,4.52,0,0,1,1.26.17,2.46,2.46,0,0,1,1,.51,2.22,2.22,0,0,1,.63.84,3,3,0,0,1,.22,1.2,2.71,2.71,0,0,1-.22,1.13,2.46,2.46,0,0,1-.63.86,2.79,2.79,0,0,1-1,.54,3.87,3.87,0,0,1-1.26.19,4.45,4.45,0,0,1-1.25-.16,2.76,2.76,0,0,1-1-.51,2.18,2.18,0,0,1-.64-.85A3,3,0,0,1,241.28,401.11Zm1.92,0c0,1.27.38,1.91,1.15,1.91a1,1,0,0,0,.86-.43,2.68,2.68,0,0,0,.29-1.48,2.72,2.72,0,0,0-.29-1.48,1,1,0,0,0-.86-.42,1,1,0,0,0-.87.42A2.83,2.83,0,0,0,243.2,401.11Z"/><g class="cls-5"><path class="cls-6" d="M309.94,373.28c-11.07-4.71-48.45-21.21-64.61-28.65l-4.41-2-1.07-.49a1.69,1.69,0,0,1-.49-.38l-.4-.36L237.45,340l-5-4.72c-1.2-1.14-.4-.4,1.76,1.61l4.18,3.91c.45.41.81.78,1.36,1.26l1.81.84,3.79,1.75,17,7.63c-8.18-3.81-16-7.58-21.54-10.36-.26-.12-.51-.22-.75-.34l-.62-.58-1.26-1.16-2.52-2.35-5.1-4.76c-15.07-14.07-29.7-27.61-44.42-41.74L174.9,280.33l-3.14-3-.71-.68c-.17-.16-.42-.5-.63-.74l-1.3-1.56c-1.67-2-3.16-3.87-4.26-5.28l3.63,4.28,1.81,2.15.46.53a6.1,6.1,0,0,0,.41.48l1,.89,8.18,7.71,16.36,15.39,32.78,30.73-1.73-1.69q-17.16-16.23-34.21-32.6c-1.94-1.83-3.89-3.7-5.88-5.65l5.88,5.65,15.7,14.58,10.65,10.27c2.78,2.65,5.26,5.18,7.86,7.75l5.13,4.84,1.62,1.46-.07-.07c-1.94-2.2-13.56-13.66-25.45-25.55s-24.14-24.15-27.77-27.48c-1.44-1.34-2.88-2.6-4.34-3.84l-2.2-1.84-1.11-.92-.56-.46a2.72,2.72,0,0,0-.46-.35l-.13-.1-.24-.24-.51-.52-1-1.06-2.07-2.16c-1.4-1.47-2.81-3-4.24-4.65-1.92-2.2-3.28-4.29-4.92-5.83a9.74,9.74,0,0,1-1.93-1.59c-3.84-4.37-7.07-9.28-10.39-12.33-2.25-2.2-5.43-11-6.29-11.17-3.26-.42-.9-.11-5.47-5.94-.53-.72-3.12-2.33-4.19-3.77-3.44-5-5.2-5.87-9.89-11-7.27-7.34-7.45-10.18-14.66-16.06-.21-.19-1-1-2.08-2l-.85-.84c-.17-.17-.24-.21-.36-.32l-.32-.29a1.37,1.37,0,0,1-.29-.34l-.14-.19-.19-.29c-.25-.39-.5-.79-.76-1.18-2-3.14-4-6.15-4-6.15-5-10-9.7-15.39-11.88-24.16-3.22-4-5.93-9.2-8.48-14.61s-4.92-11-7.62-15.66c-5.41-9.3-6-14.11-8.88-23.24-1-2.51-2.11-4.21-2.37-5.85S55,99.47,54,97l1.24.08c-.34-.84-1-2.51-1.34-3.35s.08-.81.5-.79c.83.06,1.65.12,1.41-1.54q-1.74-5.44-3.94-11c-2.22-3.19-4.5-6.31-6.84-9.32a3.27,3.27,0,0,1-1.75-.19L41,68.31c-1.32,0-2.31.76-3.19.73C35,70.59,30,68,27.87,70.42c-.55.81,2.36,6.62,2.47,9.89-.08.81-1.77-.06-3.1-.09,1.89,3.31.94,4.08-.75,3.22.36.82.73,1.64.73,1.64l-1.77,0c3.61,9,6.86,19.5,12.83,27a72.4,72.4,0,0,0,5.16,5.85c.79.85,1.52,3.26,1.9,4.07,1.61.91,2.46.19,3.68.29,2.57,6.51,8.72,20.26,11.47,18.24,2.66,4.93,4.58,5.16,7.59,10.15,4,6.58,9,15,13.9,23.35,2.78,4.5,5.23,8.94,7.75,13.4l2.76,4.8,3.5,6.14.56,1c.24.33.51.64.77.94l1.3,1.47,2.27,2.55,8.72,9.93,16.56,19c10.91,12.42,22,24.56,35,38l4.9,5.13,2.49,2.63,2.83,2.43q5.42,4.64,10.79,9.35c7.16,6.27,14.24,12.6,21.18,18.85S217,322,223.58,328l9.64,8.8L237.9,341l1.15,1.05.37.33a4.93,4.93,0,0,0,.46.23l.75.33,2.8,1.25c29.63,13.32,53,23.35,61.52,27Z"/></g><line class="cls-7" x1="30.94" y1="372.05" x2="30.94" y2="371.05"/><line class="cls-8" x1="30.91" y1="363.04" x2="29.96" y2="76.89"/><line class="cls-7" x1="29.95" y1="72.89" x2="29.95" y2="71.89"/><path class="cls-2" d="M32.2,72a2.26,2.26,0,0,0-4.51,0,2.26,2.26,0,1,0,4.51,0Z"/><line class="cls-7" x1="307.3" y1="373.15" x2="306.3" y2="373.13"/><polyline class="cls-9" points="298.41 373 240.56 372.05 170.69 372.05 100.81 372.05 35.89 372.05"/><line class="cls-7" x1="31.94" y1="372.05" x2="30.94" y2="372.05"/><path class="cls-2" d="M307.22,370.89a2.26,2.26,0,1,1-2.29,2.22A2.26,2.26,0,0,1,307.22,370.89Z"/><line class="cls-10" x1="100.19" y1="196.97" x2="100.19" y2="371.97"/><circle class="cls-2" cx="100.19" cy="196.97" r="2.26"/><line class="cls-10" x1="170.19" y1="371.97" x2="170.19" y2="277.97"/><circle class="cls-2" cx="170.19" cy="277.97" r="2.26"/><line class="cls-10" x1="240.19" y1="341.97" x2="240.19" y2="371.97"/><circle class="cls-2" cx="240.19" cy="341.97" r="2.26"/><path class="cls-1" d="M219,4.45h4.34V5h-3.81v8.56H219Z"/><path class="cls-1" d="M233.68,6.19a14,14,0,0,1-1.12,2.13l.74.28c0,.13-.18.22-.44.27v8.26a1.42,1.42,0,0,1-.92.31h-.21V9.58a19.92,19.92,0,0,1-5.84,5.34l-.16-.17a20.27,20.27,0,0,0,6.45-8.56h-6.11l-.13-.42h10.43l.81-1s.92.7,1.5,1.21c0,.15-.19.22-.4.22Zm-.06,3.49c6,2,5.6,5,4.15,4.27a15.53,15.53,0,0,0-4.28-4.13Z"/><path class="cls-1" d="M242.89,12.76v1.75c0,.13-.38.38-.86.38h-.15V5.5L243,6h1.48l.56-.62,1.2.94a1,1,0,0,1-.58.28v7.08a1.35,1.35,0,0,1-.87.38h-.17V12.76Zm0-6.37v6h1.69v-6Zm11.23,3.49c-.1.11-.24.15-.56.18a11.29,11.29,0,0,1-2.37,4.26,9.82,9.82,0,0,0,3.49,2.05l0,.16a1.29,1.29,0,0,0-1.08.88A9.37,9.37,0,0,1,250.49,15a11.79,11.79,0,0,1-4.62,2.41l-.13-.21A11.22,11.22,0,0,0,250,14.34a11.69,11.69,0,0,1-1.7-4.45h-.1a9.83,9.83,0,0,1-4.41,7.46l-.21-.23c3.67-3.14,3.73-7.18,3.75-11.27h-1.47l-.12-.39H251l.5-.57,1.12.92c-.09.1-.22.13-.49.16l-.51,3.51h.72l.66-.64Zm-5.67-4a35.68,35.68,0,0,1-.19,3.63h2.26l.57-3.63Zm.16,4a9.2,9.2,0,0,0,2,3.79,11.3,11.3,0,0,0,1.83-3.79Z"/><path class="cls-1" d="M262.81,11.92a.83.83,0,0,1-.55.21c-.11,3-.35,4.3-.86,4.76a1.91,1.91,0,0,1-1.29.44,1,1,0,0,0-.19-.72,1.82,1.82,0,0,0-.81-.32l0-.24c.33,0,.92.07,1.14.07a.6.6,0,0,0,.43-.11c.27-.28.47-1.48.55-4h-1.52a7.76,7.76,0,0,1-2.66,5.44l-.2-.17c1.68-2.3,1.85-5,1.91-7.52h-1.7L257,9.34h4.56l.69-.91s.77.63,1.25,1.09c0,.16-.17.23-.37.23h-3.2c0,.62-.06,1.25-.12,1.85h1.35l.56-.58Zm-5.78-6h2.67l-.18-1.38,1.52.12c0,.16-.12.31-.4.4l.12.86h.82l.61-.84a15.35,15.35,0,0,1,1.18,1,.33.33,0,0,1-.36.22h-2.19l.14,1a1.31,1.31,0,0,1-1,.32l-.16-1.33h-2.64Zm1.87,1.56c2.66.48,1.77,2.4.8,1.71a3,3,0,0,0-.92-1.61Zm8,.53c0,.16-.15.24-.49.27a8.16,8.16,0,0,0,3.46,3.35l0,.18a1.28,1.28,0,0,0-.7,1,10,10,0,0,1-2.93-4.38,9.58,9.58,0,0,1-3.54,4.49l-.11-.21a11.22,11.22,0,0,0,2.69-5.07Zm-3.22-2.09h1.67l.23-1.41,1.52.31c-.05.18-.19.32-.55.33l-.13.77h1.46l.63-.84s.74.59,1.19,1c0,.15-.18.22-.38.22h-3l-.18,1a1.32,1.32,0,0,1-1.08.11l.2-1.16h-1.5Zm.14,8.4c4.93.86,4.65,3.52,3.32,2.94a10.35,10.35,0,0,0-3.43-2.79Zm.85-2.76c3.2.47,2.45,2.78,1.32,2.08a3.77,3.77,0,0,0-1.44-2Z"/><path class="cls-1" d="M279.46,16.07l1.24,0c1.05,0,3.53,0,4.64,0v.19a.8.8,0,0,0-.6.84h-4.08c-2.56,0-4-.49-4.87-2.7a7.24,7.24,0,0,1-3.39,3l-.13-.15A8,8,0,0,0,275.38,12l1.69.38c-.06.19-.22.3-.53.3A7.53,7.53,0,0,1,276,14.1a3.26,3.26,0,0,0,2.33,1.8V11.29h-5.74l-.12-.41h10.73l.73-1s.84.66,1.35,1.14c0,.15-.17.22-.37.22h-5.4v1.93h2.43l.75-1s.86.67,1.37,1.16c0,.16-.18.23-.38.23h-4.17ZM276,10c0,.11-.51.38-1,.38h-.18V4.8l1.24.54h5.5l.6-.66,1.3,1a1.08,1.08,0,0,1-.59.28v4a1.82,1.82,0,0,1-1,.32h-.19V9.61H276Zm0-4.28V7.24h5.73V5.76Zm5.73,3.44V7.65H276V9.2Z"/><path class="cls-1" d="M294.25,8.05l-1.2.33a15.16,15.16,0,0,1-1.27,5.18c2.42,1.62,1.59,2.86.7,2.35a7.37,7.37,0,0,0-1.24-1.41,8.42,8.42,0,0,1-3.32,2.94l-.17-.14A8.83,8.83,0,0,0,290.63,14a21.06,21.06,0,0,0-2.46-1.81c.23-.7.49-1.79.75-2.94l-.48.07a.48.48,0,0,1-.36.31l-.4-1.3c.38,0,.86,0,1.45,0,.31-1.48.56-2.93.66-3.8l1.58.29c-.06.17-.13.31-.53.34-.14.78-.38,1.9-.65,3.11.56,0,1.15-.08,1.77-.14,0-.52,0-1,0-1.54l1.69.28c-.06.24-.24.35-.55.38,0,.26,0,.52,0,.78l1.14-.11Zm-3.25,5a15.19,15.19,0,0,0,.91-4.46c-.58.13-1.21.25-1.93.37-.25,1.13-.54,2.28-.84,3.2A14.87,14.87,0,0,1,291,13.1Zm8.61-3.32s.78.61,1.26,1.08c-.05.15-.17.22-.37.22h-3.09v4.83c0,.87-.17,1.37-1.63,1.53a1.22,1.22,0,0,0-.31-.8,2.08,2.08,0,0,0-1.22-.42V16s1.45.11,1.75.11.31-.07.31-.27V11.08H293.4l-.11-.42h3V8.36l.86.09a25,25,0,0,0,1.36-2.22h-4.67l-.12-.42h4.84l.7-.68,1.19,1.1c-.11.11-.28.14-.58.16a29,29,0,0,1-2.37,2.08l.39,0c0,.21-.17.33-.5.37v1.77H299Z"/><path class="cls-1" d="M310.47,5c0,.21-.14.35-.51.39.31,5.23,1.57,8.75,6.4,10.86l0,.15a1.32,1.32,0,0,0-1.17,1c-3.69-2-4.9-5.28-5.31-9.54-.26,3.45-1.27,7-6.31,9.57l-.18-.22c5.43-3.55,5.37-8.09,5.39-12.41Z"/><path class="cls-1" d="M325,10.5a1.26,1.26,0,0,1-.63-1,.92.92,0,0,1,.95-1,1.11,1.11,0,0,1,.85.35,1.83,1.83,0,0,1,.16.89,3.65,3.65,0,0,1-1.77,3.06l-.28-.45a4.23,4.23,0,0,0,1.11-1.58Z"/><path class="cls-1" d="M335.87,12.76v1.75c0,.13-.37.38-.85.38h-.15V5.5l1.07.48h1.49l.56-.62,1.2.94a1,1,0,0,1-.58.28v7.08a1.35,1.35,0,0,1-.87.38h-.17V12.76Zm0-6.37v6h1.7v-6Zm11.24,3.49c-.1.11-.24.15-.56.18a11.29,11.29,0,0,1-2.37,4.26,9.82,9.82,0,0,0,3.49,2.05l0,.16a1.29,1.29,0,0,0-1.08.88A9.37,9.37,0,0,1,343.48,15a11.87,11.87,0,0,1-4.62,2.41l-.13-.21A11.18,11.18,0,0,0,343,14.34a11.53,11.53,0,0,1-1.69-4.45h-.1a9.83,9.83,0,0,1-4.41,7.46l-.21-.23c3.67-3.14,3.72-7.18,3.75-11.27h-1.47l-.13-.39H344l.5-.57,1.12.92c-.09.1-.22.13-.49.16l-.52,3.51h.73l.66-.64Zm-5.68-4a33,33,0,0,1-.18,3.63h2.26l.57-3.63Zm.17,4a9.18,9.18,0,0,0,2,3.79,11.32,11.32,0,0,0,1.84-3.79Z"/><path class="cls-1" d="M355.8,11.92a.83.83,0,0,1-.55.21c-.11,3-.35,4.3-.87,4.76a1.87,1.87,0,0,1-1.29.44,1,1,0,0,0-.18-.72,1.82,1.82,0,0,0-.81-.32v-.24c.34,0,.93.07,1.15.07a.57.57,0,0,0,.42-.11c.28-.28.48-1.48.56-4h-1.52a7.76,7.76,0,0,1-2.66,5.44l-.2-.17c1.68-2.3,1.85-5,1.9-7.52h-1.69L350,9.34h4.56l.69-.91s.77.63,1.25,1.09a.33.33,0,0,1-.37.23h-3.21c0,.62-.05,1.25-.11,1.85h1.35l.56-.58Zm-5.79-6h2.68l-.18-1.38,1.52.12c0,.16-.12.31-.4.4l.12.86h.82l.61-.84s.74.59,1.18,1c0,.15-.18.22-.37.22h-2.18l.14,1a1.32,1.32,0,0,1-1,.32l-.17-1.33h-2.63Zm1.88,1.56c2.66.48,1.77,2.4.8,1.71a3,3,0,0,0-.93-1.61Zm8,.53c0,.16-.16.24-.49.27a8.16,8.16,0,0,0,3.46,3.35l0,.18a1.26,1.26,0,0,0-.7,1,9.87,9.87,0,0,1-2.93-4.38,9.64,9.64,0,0,1-3.54,4.49l-.11-.21a11.32,11.32,0,0,0,2.69-5.07Zm-3.22-2.09h1.66l.24-1.41,1.51.31c0,.18-.18.32-.54.33l-.13.77h1.46l.63-.84s.74.59,1.19,1c0,.15-.18.22-.38.22h-3l-.18,1a1.32,1.32,0,0,1-1.08.11l.2-1.16h-1.5Zm.14,8.4c4.93.86,4.65,3.52,3.32,2.94a10.35,10.35,0,0,0-3.43-2.79Zm.85-2.76c3.2.47,2.45,2.78,1.32,2.08a3.79,3.79,0,0,0-1.45-2Z"/><path class="cls-1" d="M372.45,16.07l1.24,0c1.05,0,3.53,0,4.64,0v.19a.8.8,0,0,0-.6.84h-4.08c-2.56,0-4-.49-4.87-2.7a7.22,7.22,0,0,1-3.4,3l-.12-.15A8,8,0,0,0,368.37,12l1.69.38c-.07.19-.22.3-.53.3a7.53,7.53,0,0,1-.59,1.47,3.24,3.24,0,0,0,2.33,1.8V11.29h-5.74l-.12-.41h10.73l.73-1s.84.66,1.35,1.14c-.05.15-.17.22-.37.22h-5.4v1.93h2.43l.74-1s.87.67,1.38,1.16a.35.35,0,0,1-.38.23h-4.17ZM369,10c0,.11-.51.38-1,.38h-.18V4.8l1.24.54h5.49l.61-.66,1.3,1a1.08,1.08,0,0,1-.59.28v4a1.86,1.86,0,0,1-1,.32h-.2V9.61H369Zm0-4.28V7.24h5.72V5.76Zm5.72,3.44V7.65H369V9.2Z"/><path class="cls-1" d="M387.24,8.05l-1.2.33a15,15,0,0,1-1.28,5.18c2.43,1.62,1.6,2.86.7,2.35a7.64,7.64,0,0,0-1.23-1.41,8.42,8.42,0,0,1-3.32,2.94l-.17-.14A8.8,8.8,0,0,0,383.61,14a20.19,20.19,0,0,0-2.45-1.81c.23-.7.49-1.79.75-2.94l-.48.07a.48.48,0,0,1-.37.31l-.39-1.3c.38,0,.86,0,1.45,0,.3-1.48.55-2.93.65-3.8l1.59.29c-.06.17-.13.31-.54.34-.14.78-.37,1.9-.64,3.11.56,0,1.15-.08,1.76-.14,0-.52,0-1,0-1.54l1.7.28c-.06.24-.24.35-.55.38,0,.26,0,.52,0,.78l1.13-.11Zm-3.25,5a15.51,15.51,0,0,0,.91-4.46c-.59.13-1.22.25-1.93.37-.25,1.13-.55,2.28-.84,3.2A15.58,15.58,0,0,1,384,13.1Zm8.6-3.32a16.4,16.4,0,0,1,1.26,1.08c0,.15-.16.22-.36.22h-3.1v4.83c0,.87-.16,1.37-1.62,1.53a1.28,1.28,0,0,0-.31-.8,2.08,2.08,0,0,0-1.22-.42V16s1.44.11,1.75.11.31-.07.31-.27V11.08h-2.91l-.11-.42h3V8.36l.86.09a22.7,22.7,0,0,0,1.35-2.22h-4.66l-.13-.42h4.85l.7-.68,1.19,1.1c-.11.11-.28.14-.59.16a28.75,28.75,0,0,1-2.36,2.08l.39,0c0,.21-.17.33-.51.37v1.77h1.54Z"/><path class="cls-1" d="M409.1,5.69a1.15,1.15,0,0,1-.59.28v11a1.41,1.41,0,0,1-.91.38h-.17v-.87h-9.28V17c0,.14-.4.44-.87.44h-.2V4.83l1.16.53h9.05l.58-.65ZM407.43,16V5.77h-9.28V16ZM403,12.91c-.77.35-1.91.84-3.47,1.43a.46.46,0,0,1-.3.33l-.67-1.21c.8-.1,2.59-.41,4.4-.74Zm.84-4.6a12.71,12.71,0,0,0,.59,3.29,12.75,12.75,0,0,0,1.08-2.66l1.38.57a.48.48,0,0,1-.56.22,10.68,10.68,0,0,1-1.51,2.83A4.86,4.86,0,0,0,405.82,14c.17.18.24.17.35,0s.32-.87.48-1.35l.18,0-.21,1.82c.35.52.41.76.27.91-.35.41-1.11,0-1.59-.43a6.88,6.88,0,0,1-1.2-1.57,9.12,9.12,0,0,1-3.1,2.17l-.15-.2a9.63,9.63,0,0,0,2.9-2.71,14,14,0,0,1-.93-4.3h-4.13l-.11-.41h4.22c-.05-.62-.07-1.26-.07-1.92l1.48.29c0,.17-.17.31-.48.33,0,.43,0,.86,0,1.3h1.68l.35-.44a.55.55,0,0,1-.4-.08,3.39,3.39,0,0,0-1.1-1.23l.14-.13c1.5.13,1.84.83,1.66,1.21a12.31,12.31,0,0,1,1,.85c0,.16-.18.23-.38.23Zm-2.35,4v-.45h-1.31v.45a1.05,1.05,0,0,1-.74.28h-.11V9l.91.41h1.15l.45-.46,1,.74a.75.75,0,0,1-.44.21V12c0,.1-.44.31-.73.31Zm0-.86V9.79h-1.31v1.65Z"/><path class="cls-1" d="M424.36,16.28c.43.36.53.57.38.84-.27.49-1.1.3-1.89,0a7.13,7.13,0,0,1-4.33-5.21h-3.78V15.7c1-.32,2.33-.8,3.68-1.27l.07.18c-.94.55-2.56,1.53-4.41,2.52a1,1,0,0,1-.32.29l-.65-1.21c.43-.26.51-.35.51-.68V4.89l1.3.53h6.89l.59-.64,1.27,1a1.16,1.16,0,0,1-.59.28V9.33a1.49,1.49,0,0,1-.95.33H422V9h-2.73a11.21,11.21,0,0,0,.32,2.51h3l.76-.94s.85.64,1.38,1.13c0,.16-.18.23-.38.23h-4.67a5.87,5.87,0,0,0,3.6,4.12c.28.09.4.07.51-.14a9.36,9.36,0,0,0,.58-1.36l.17,0Zm-9.62-7.74H422V5.84h-7.21Zm3.68,2.92A14.47,14.47,0,0,1,418.1,9h-3.36v2.51Z"/><path class="cls-1" d="M431.83,11a2,2,0,1,1,2,2A2,2,0,0,1,431.83,11Zm.48,0a1.49,1.49,0,1,0,3,0,1.49,1.49,0,1,0-3,0Z"/><path class="cls-1" d="M440.12,17.48h-4.34V17h3.81V8.42h.53Z"/><path class="cls-1" d="M218.05,38H240.5v.9H218.05Z"/><path class="cls-1" d="M252.1,30.69s.78.62,1.27,1.07c0,.14-.16.21-.37.21h-7.62l-.12-.4h6.14ZM252,36.64l1.26,1a1.08,1.08,0,0,1-.6.29v5a1.55,1.55,0,0,1-.92.32h-.17v-.84h-4.73v.71c0,.12-.45.37-.92.37h-.16V36.79l1.13.5h4.54Zm-1.07-.3v-.49h-3.48v.35c0,.09-.47.33-.91.33h-.15V32.68l1.13.49h3.27l.56-.62,1.26.94a1,1,0,0,1-.59.28V36a1.66,1.66,0,0,1-.93.3Zm-4.09,1.34v1.91h1.86V37.68Zm0,4.27h1.86V40h-1.86ZM251,35.43V33.58h-3.48v1.85Zm-1.27,2.25v1.91h1.91V37.68ZM251.61,42V40H249.7v2Zm3.39-1.8c0,.12-.43.35-.83.35H254V31.67l1.51.16c0,.18-.15.32-.49.36Zm3.08-9.22c0,.2-.15.34-.5.38V41.94c0,.85-.17,1.34-1.54,1.48a1.24,1.24,0,0,0-.31-.78,2,2,0,0,0-1.12-.39V42s1.34.1,1.62.1.31-.09.31-.28V30.76Z"/><path class="cls-1" d="M262,39.59a3.46,3.46,0,0,1-.14,3c-.25.32-.8.42-1,.09a.71.71,0,0,1,.24-.88,3.08,3.08,0,0,0,.68-2.18Zm-1.12-1.75a1.35,1.35,0,0,0,.39-.16,14.09,14.09,0,0,0,2.2-2.58c-.51.16-1.12.35-1.75.51a.81.81,0,0,1-.3.27l-.55-1.35a1.4,1.4,0,0,0,.38-.14,12.45,12.45,0,0,0,2-3.85l1.47.73a.49.49,0,0,1-.49.21,17.87,17.87,0,0,1-2.52,3.12h2.06a13.21,13.21,0,0,0,.82-1.5L266,34a.51.51,0,0,1-.54.14,21,21,0,0,1-3.55,3.7c.75,0,1.79-.11,2.9-.21a9.45,9.45,0,0,0-.62-1.42l.17-.08c2.39,1.5,1.47,3.32.64,2.54a3,3,0,0,0-.11-.7c-.8.25-1.95.6-3.17.92a.64.64,0,0,1-.33.29Zm2.36,1.49c1.8,1.8.64,3.51-.07,2.61a6.92,6.92,0,0,0-.13-2.55Zm1.34-.28c2.1,1,1.11,2.6.36,1.85a3.61,3.61,0,0,0-.51-1.76Zm2,.33a3,3,0,0,1-.27,2.76.67.67,0,0,1-1,0,.68.68,0,0,1,.31-.82,2.55,2.55,0,0,0,.73-2Zm.68-1.66v.55c0,.08-.3.29-.81.29h-.15V31.73l1.13.47h1c.17-.5.36-1.21.51-1.7l1.54.36c0,.2-.24.31-.54.29-.26.31-.66.72-1,1.05h3l.51-.61,1.1.85a.81.81,0,0,1-.55.26V38a1.09,1.09,0,0,1-.84.28h-.15v-.59Zm0-5.11V37.3h4.77V32.61ZM272,42c.32.11.38.22.38.42,0,.43-.45.61-2.38.61h-1.29c-1.06,0-1.25-.22-1.25-.93V38.79l1.43.15a.45.45,0,0,1-.42.34v2.59c0,.18.06.22.48.22h2.13c.17,0,.21,0,.26-.17a8.74,8.74,0,0,0,.44-1.58h.18Zm-4.4-6.6a5.6,5.6,0,0,0,.84-1.06c-.29-.24-.57-.47-.82-.65l.14-.15.91.4a8.25,8.25,0,0,0,.55-1.2l1.21.48c-.07.15-.23.25-.53.21-.18.3-.38.6-.57.86.31.19.59.37.82.54a7.18,7.18,0,0,0,.63-1.12l1.18.63a.5.5,0,0,1-.57.16,8.53,8.53,0,0,1-.62.83c1.12,1.08.8,1.85.15,1.5a5.7,5.7,0,0,0-.72-.92,6.91,6.91,0,0,1-2.11,1.27l-.16-.21a6.81,6.81,0,0,0,1.78-1.54,7.59,7.59,0,0,0-.79-.7,5.51,5.51,0,0,1-1.15.85Zm1.67,2.89c2.72,1.21,1.67,3.25.76,2.39a4.15,4.15,0,0,0-.91-2.3Zm2.65.88c2.79,1.41,1.81,3.5.87,2.66a5.54,5.54,0,0,0-1-2.58Z"/><path class="cls-1" d="M277.52,39.59a3.46,3.46,0,0,1-.14,3c-.25.32-.8.42-1,.09a.71.71,0,0,1,.24-.88,3.1,3.1,0,0,0,.68-2.18Zm-1.12-1.75a1.35,1.35,0,0,0,.39-.16A13.45,13.45,0,0,0,279,35.1c-.52.16-1.12.35-1.75.51a.78.78,0,0,1-.32.27l-.53-1.35a1.35,1.35,0,0,0,.36-.14,12.29,12.29,0,0,0,2.05-3.85l1.47.73a.51.51,0,0,1-.51.21,17.18,17.18,0,0,1-2.51,3.12h2.05a15.67,15.67,0,0,0,.84-1.5l1.35.91a.51.51,0,0,1-.54.14,21,21,0,0,1-3.55,3.7c.75,0,1.79-.11,2.89-.21a7.15,7.15,0,0,0-.63-1.42l.19-.08c2.41,1.5,1.47,3.32.64,2.55a3.15,3.15,0,0,0-.11-.71c-.81.25-1.95.61-3.17.92a.64.64,0,0,1-.35.29Zm2.35,1.49c1.8,1.8.62,3.51-.08,2.6a6.88,6.88,0,0,0-.11-2.54Zm1.36-.26c2.26,1.25,1.31,3,.51,2.24a4.51,4.51,0,0,0-.68-2.16ZM288.9,42c.29.11.36.23.36.43,0,.42-.39.59-1.84.59h-.79c-.9,0-1.05-.25-1.05-.94V36.62l-1.24.24c-.17,2.39-.63,4.84-4.17,6.56l-.2-.21a6.81,6.81,0,0,0,3.21-6.13l-1.19.21a.7.7,0,0,1-.36.32l-.54-1.33a1.37,1.37,0,0,0,.42-.18,17.12,17.12,0,0,0,1.81-3h-2.1l-.11-.4h2.39a18.79,18.79,0,0,0,.88-2.24l1.59.72a.49.49,0,0,1-.53.23c-.2.39-.45.82-.73,1.29h2.55l.7-.9s.8.63,1.27,1.08c0,.15-.17.22-.36.22h-4.42a24.78,24.78,0,0,1-2.39,3.17c1.26-.06,3.24-.2,5.31-.36a9.8,9.8,0,0,0-1.29-1.71l.14-.12c3.74,1.52,2.91,4,1.75,3.18a4.42,4.42,0,0,0-.42-1c-.28.07-.59.14-.92.2v5.46c0,.2,0,.25.29.25H288a.2.2,0,0,0,.21-.15,16.1,16.1,0,0,0,.42-1.88h.18Z"/><path class="cls-1" d="M300.29,38.89A8.51,8.51,0,0,0,304.81,42l0,.15a1.28,1.28,0,0,0-.93,1A8.07,8.07,0,0,1,300,39v4.06a1.1,1.1,0,0,1-.93.34h-.18V38.89h-1.69v4.18c0,.09-.35.34-.91.34h-.17V40a12,12,0,0,1-4.33,3.12l-.15-.21a12.31,12.31,0,0,0,4-4H293.2l-.13-.4h3.06V37H292l-.11-.41h4.26V35.09h-2.91l-.13-.41h3v-1.4h-3.88l-.11-.39H299a18.26,18.26,0,0,0,1.23-2.41l1.65.51c-.05.18-.22.28-.53.25a14,14,0,0,1-1.95,1.65h3.06l.68-.91s.8.65,1.28,1.09c0,.14-.17.21-.36.21H300v1.4h1.69l.56-.6,1.22.93a1.26,1.26,0,0,1-.56.28v1.27h.2l.59-.83a14.19,14.19,0,0,1,1.08,1,.32.32,0,0,1-.35.23h-1.52v2c0,.1-.56.32-.91.32h-.18v-.4Zm-5.55-8.38c3.15.69,2.38,2.91,1.3,2.23a4.79,4.79,0,0,0-1.44-2.12Zm2.47,4.17h1.69v-1.4h-1.69Zm0,1.88h1.69V35.09h-1.69Zm1.69,1.93V37h-1.69v1.52Zm1.11-3.4v1.47h1.82V35.09ZM301.83,37H300v1.52h1.82Z"/><path class="cls-1" d="M312.3,34.26c-.08.14-.21.21-.56.16a15.45,15.45,0,0,1-1.22,1.46l.48.18a.55.55,0,0,1-.42.25v6.78a1.31,1.31,0,0,1-.91.33h-.21v-6.5a15.08,15.08,0,0,1-2.2,1.73l-.16-.16a21,21,0,0,0,3.69-5.05Zm-.2-2.87c-.08.14-.22.2-.53.14a16.56,16.56,0,0,1-4.05,3.1l-.14-.16a16.35,16.35,0,0,0,3.28-3.93ZM319,34.14s.85.64,1.32,1.1c0,.16-.17.23-.36.23h-2.24v6.29c0,.85-.26,1.47-1.91,1.59a1,1,0,0,0-.4-.81,4,4,0,0,0-1.62-.45v-.21s2,.14,2.4.14.39-.09.39-.3V35.47h-4.42l-.12-.41h6.26Zm-6.07-1.89-.12-.42h4.93l.72-.9s.8.64,1.29,1.09c0,.16-.18.23-.38.23Z"/><path class="cls-1" d="M334.41,34.1a12.23,12.23,0,0,1-2,5.61,8.63,8.63,0,0,0,3.51,2.69l0,.14a1.23,1.23,0,0,0-1.05.87,8.31,8.31,0,0,1-3-2.95,11.1,11.1,0,0,1-4.79,3l-.12-.18a10.72,10.72,0,0,0,4.43-3.65,16,16,0,0,1-1.28-4.3,9.29,9.29,0,0,1-1.45,1.87l-.2-.11a9.55,9.55,0,0,0,.49-1H326.8v4.16l2.83-.73.06.21c-1.39.61-3.35,1.48-6.08,2.53a.54.54,0,0,1-.32.35l-.69-1.38.9-.2V34.36l1.38.14c0,.14-.14.25-.4.31v6l1.24-.3V32.3H323l-.11-.4h4.72l.73-.9s.78.63,1.29,1.08c0,.15-.18.22-.38.22H326.8v3.39h.63l.66-.91s.53.46,1,.88a20.89,20.89,0,0,0,1.36-5.14l1.75.41a.51.51,0,0,1-.53.32,17,17,0,0,1-.8,2.44h3l.72-.93s.81.64,1.3,1.11a.33.33,0,0,1-.36.23Zm-3.75,0c-.13.28-.27.54-.41.79a13.08,13.08,0,0,0,1.51,3.94,12.59,12.59,0,0,0,1.37-4.73Z"/><path class="cls-1" d="M343.24,31.92a.83.83,0,0,1-.62.16,36.07,36.07,0,0,1-1.8,3.32,4.3,4.3,0,0,1,1.86,3.37c0,1.38-.45,2-1.79,2.06a1.75,1.75,0,0,0-.16-.82,1.29,1.29,0,0,0-.66-.26v-.21H341a.51.51,0,0,0,.33-.08c.21-.13.32-.41.32-.94a4.73,4.73,0,0,0-1.15-3.08c.28-.9.73-2.53,1-3.64h-1.58V43.05a1,1,0,0,1-.86.36h-.18V30.89l1.21.5h1.34l.66-.63Zm7.68,10c.3.13.37.27.37.48,0,.43-.42.66-2,.66h-.93c-1,0-1.14-.27-1.14-1V37.51h-1.47c-.17,2.32-.67,4.42-4.36,5.86l-.16-.23c3-1.59,3.26-3.55,3.33-5.63h-1.75l-.11-.4h6.5l.68-.91s.82.63,1.31,1.09a.36.36,0,0,1-.38.22H348.3v4.32c0,.18,0,.24.35.24h.72a6,6,0,0,0,.69,0c.11,0,.16,0,.22-.15a13.55,13.55,0,0,0,.43-1.57h.16Zm-7.15-8.89c.17,2.21-2,1.64-1.17.48a2.09,2.09,0,0,0,.75-1.55l.21,0a5.42,5.42,0,0,1,.16.64h5.89l.62-.63,1.15,1.1a.81.81,0,0,1-.53.13,15.71,15.71,0,0,1-1.36,1.08l-.19-.08c.1-.29.24-.8.36-1.19Zm5.17,1a13.14,13.14,0,0,1,1.23,1.06c0,.16-.17.23-.35.23h-6.34l-.11-.42h4.87ZM345.7,30.5c2.75.75,1.6,2.77.63,1.92a3.09,3.09,0,0,0-.77-1.83Z"/><path class="cls-1" d="M365.36,36.34s.79.6,1.26,1c0,.15-.16.22-.36.22h-6.42a6.79,6.79,0,0,0,1.73,2.45,22.4,22.4,0,0,0,2.28-2.38l1.32.84c-.07.13-.24.14-.47.07a32.55,32.55,0,0,1-2.85,1.73,9,9,0,0,0,4.35,1.83v.15a1.35,1.35,0,0,0-.95,1.07,7.53,7.53,0,0,1-5.69-5.76h-2v4.25c.8-.21,1.81-.49,2.81-.79l.06.2c-.73.42-2.06,1.19-3.53,2a1.17,1.17,0,0,1-.28.27l-.73-1.34c.52-.26.6-.36.6-.61V37.61h-2.52l-.12-.4h2.87V30.86l1.31.53h5l.72-.85s.78.59,1.27,1c0,.16-.18.23-.38.23h-6.86v1.54h4.75l.63-.81s.74.56,1.19,1c0,.16-.17.23-.35.23h-6.22V35.3h4.76l.65-.81s.74.56,1.19,1c0,.16-.18.23-.37.23h-6.23v1.5h6.91Z"/><path class="cls-1" d="M374.33,32c-.11.13-.3.17-.64.17a31.12,31.12,0,0,1-1.89,3.28,4.23,4.23,0,0,1,1.9,3.36c0,1.33-.47,2-1.85,2.05a2,2,0,0,0-.16-.85,1.27,1.27,0,0,0-.68-.26v-.21h.93a.46.46,0,0,0,.33-.09c.23-.12.34-.4.34-.91a4.53,4.53,0,0,0-1.16-3.05c.31-.88.78-2.51,1.06-3.61H370.9V43.07c0,.09-.33.38-.88.38h-.18V30.92l1.23.5h1.39l.66-.63Zm4.15,6.4a7.15,7.15,0,0,0,3.95,3.25l0,.14a1.28,1.28,0,0,0-.88,1,7.9,7.9,0,0,1-3.19-4.31V43c0,.15-.47.42-.86.42h-.22v-4a10.4,10.4,0,0,1-4.58,3.5l-.14-.21a10,10,0,0,0,4-4.3h-1.28v.58c0,.1-.43.33-.88.33h-.15V33.54l1.1.47h1.91V32.75h-3.53l-.1-.41h3.63V30.58l1.58.17c0,.19-.14.33-.5.39v1.2h1.94l.7-.92s.82.64,1.29,1.11c0,.15-.17.22-.36.22h-3.57V34h1.79l.53-.59,1.18.9a1.08,1.08,0,0,1-.53.27v4.2a1.45,1.45,0,0,1-.89.32h-.17v-.76Zm-3.21-3.92V36h2V34.43Zm0,3.52h2V36.38h-2Zm3.06-3.52V36h1.91V34.43ZM380.24,38V36.38h-1.91V38Z"/><path class="cls-1" d="M388.63,32.46s.65.53,1.06.92a.33.33,0,0,1-.36.23H384.8l-.11-.41h3.36Zm-.45,1.83s.6.49,1,.87c0,.15-.16.22-.36.22h-3.48l-.11-.4h2.43Zm-2.87,2.89-.11-.41h2.4l.54-.66s.6.48,1,.84a.33.33,0,0,1-.37.23Zm3.46,5.26a1.22,1.22,0,0,1-.8.33h-.17v-.59h-1.54V43c0,.1-.42.32-.83.32h-.14V38.07l1,.47h1.34l.52-.56,1.12.86a1,1,0,0,1-.54.26Zm-2.9-11.69c2.94.57,2.06,2.59,1,1.9a5.28,5.28,0,0,0-1.12-1.82Zm1.93,11V38.94h-1.54v2.83Zm9.61.39c.36.62.42.91.25,1.07-.43.42-1.26-.09-1.74-.66a7.64,7.64,0,0,1-1.19-1.93,9.56,9.56,0,0,1-3.23,2.73l-.13-.24a9.62,9.62,0,0,0,3-3.4,23.51,23.51,0,0,1-.88-5.91h-2.66v2.11H392l.51-.56,1,.87a.82.82,0,0,1-.52.21c-.06,2.86-.13,4-.58,4.45a1.29,1.29,0,0,1-.87.33.78.78,0,0,0-.18-.55,1.56,1.56,0,0,0-.67-.28v-.24c.28,0,.73.06.88.06s.16,0,.2-.09c.19-.26.27-1.33.32-3.79h-1.33v0c0,2.1-.11,5-2,7l-.21-.16c1.12-2.07,1.2-4.6,1.2-6.87v-3.5l1.16.5h2.45c0-.9,0-1.84,0-2.8l1.58.18c0,.18-.14.35-.5.41,0,.72,0,1.48,0,2.21h1.27l.68-.84s.75.57,1.22,1c0,.16-.17.23-.37.23h-2.79a23.08,23.08,0,0,0,.52,4.51,19.43,19.43,0,0,0,.9-3.28l1.47.46c-.06.17-.18.25-.55.24a15.68,15.68,0,0,1-1.44,3.82,5.4,5.4,0,0,0,1.14,2c.18.22.23.22.35-.06s.4-1,.58-1.55l.17,0Zm-2-11.24c2.7.33,1.91,2.2,1,1.58A3.25,3.25,0,0,0,395.22,31Z"/><path class="cls-1" d="M406.37,36.5a1.26,1.26,0,0,1-.63-1,.92.92,0,0,1,.95-.95,1.11,1.11,0,0,1,.85.35,1.83,1.83,0,0,1,.16.89,3.65,3.65,0,0,1-1.77,3.06l-.28-.45a4.23,4.23,0,0,0,1.11-1.58Z"/><path class="cls-1" d="M416.25,35.7a.34.34,0,0,1-.15-.16.34.34,0,0,1-.07-.18q0-.11,0-.12c.44-.31.89-.59,1.32-.87l1-.64.38-.22h0c.07,0,.13.08.16.25a5.15,5.15,0,0,0-.12,1.28v5.45a4.51,4.51,0,0,0,.11,1.09c0,.07.14.14.37.2a1.91,1.91,0,0,0,.48.1s0,.09,0,.27a.71.71,0,0,1,0,.19l-.71-.05c-.45,0-.79,0-1,0s-.55,0-1,0l-.71.05s-.06-.12-.06-.25,0-.21.06-.21a1.93,1.93,0,0,0,.5-.1c.24-.07.37-.14.39-.2a3.56,3.56,0,0,0,.08-.79V36a2.27,2.27,0,0,0,0-.51.57.57,0,0,0-.07-.24.17.17,0,0,0-.13,0l-.13,0a.88.88,0,0,0-.19.1l-.2.1-.22.13Z"/><path class="cls-1" d="M425.28,33.46a2.58,2.58,0,0,1,1.93.83,2.83,2.83,0,0,1,.8,2.05,5.22,5.22,0,0,1-.43,2.09,6.07,6.07,0,0,1-1.16,1.75,9.33,9.33,0,0,1-1.53,1.31,8.32,8.32,0,0,1-1.66.88.27.27,0,0,1-.19-.18.51.51,0,0,1-.08-.26,6.06,6.06,0,0,0,2-1.35,4.86,4.86,0,0,0,1.25-2.06c0-.11,0-.18,0-.21l0,0a1.81,1.81,0,0,1-.49.21,2.17,2.17,0,0,1-.64.1,2.38,2.38,0,0,1-1.76-.74,2.41,2.41,0,0,1-.72-1.75,2.56,2.56,0,0,1,.82-1.89A2.65,2.65,0,0,1,425.28,33.46Zm1.23,2.81a3.2,3.2,0,0,0-.35-1.57,1.1,1.1,0,0,0-1-.61,1,1,0,0,0-.84.48A2.6,2.6,0,0,0,424,36a2.52,2.52,0,0,0,.36,1.43,1.25,1.25,0,0,0,1.11.54,1.14,1.14,0,0,0,.54-.14.69.69,0,0,0,.33-.35A4.12,4.12,0,0,0,426.51,36.27Z"/><path class="cls-1" d="M433,42.37a2.63,2.63,0,0,1-1.94-.83,2.84,2.84,0,0,1-.81-2,5.1,5.1,0,0,1,.44-2.07,5.87,5.87,0,0,1,1.17-1.73,9.66,9.66,0,0,1,1.57-1.31,9.3,9.3,0,0,1,1.77-.92.25.25,0,0,1,.19.15.73.73,0,0,1,.09.26,7.34,7.34,0,0,0-2.16,1.41,4.65,4.65,0,0,0-1.25,2c0,.11,0,.18,0,.21l0,0a4.4,4.4,0,0,1,.54-.21,2.25,2.25,0,0,1,2.38.65,2.52,2.52,0,0,1-.11,3.63A2.65,2.65,0,0,1,433,42.37Zm-1.23-2.81a3.09,3.09,0,0,0,.36,1.57,1.05,1.05,0,0,0,.95.61,1,1,0,0,0,.87-.48,2.47,2.47,0,0,0,.31-1.38,2.57,2.57,0,0,0-.36-1.45,1.21,1.21,0,0,0-1.1-.54,1.18,1.18,0,0,0-.55.14.69.69,0,0,0-.33.35A4.18,4.18,0,0,0,431.78,39.56Z"/><path class="cls-1" d="M441,33.51a1.69,1.69,0,0,1,1.12.45,1.5,1.5,0,0,1,.52,1.22,2.35,2.35,0,0,1-1.14,1.94,2,2,0,0,1,.57.21,3.59,3.59,0,0,1,.63.46,2.31,2.31,0,0,1,.53.71,2,2,0,0,1,.21.92,2.49,2.49,0,0,1-.52,1.57,3.06,3.06,0,0,1-1.29,1,4.27,4.27,0,0,1-1.68.33,3,3,0,0,1-1.68-.43.62.62,0,0,1-.11-.39.93.93,0,0,1,.13-.52.44.44,0,0,1,.4-.21.57.57,0,0,1,.24.06l.18.11.2.2.16.17a1.39,1.39,0,0,0,1,.39,1.32,1.32,0,0,0,1-.49,2.17,2.17,0,0,0,.42-1.46,2,2,0,0,0-.45-1.32,1.43,1.43,0,0,0-1.13-.53,4.27,4.27,0,0,0-.82.08.54.54,0,0,1-.11-.39.25.25,0,0,1,0-.16,2.54,2.54,0,0,0,1.37-.64,1.72,1.72,0,0,0,.5-1.27,1.13,1.13,0,0,0-.31-.84,1,1,0,0,0-.7-.31,1.14,1.14,0,0,0-.37,0,1.5,1.5,0,0,0-.3.1,2,2,0,0,0-.25.13l-.18.15L439,35c-.05,0-.1,0-.16-.13a.45.45,0,0,1-.09-.24A2.66,2.66,0,0,1,441,33.51Z"/><path class="cls-1" d="M155,143.8c-.07.21-.3.34-.7.3a15.15,15.15,0,0,1-5.82,7.13l-.19-.18a19.37,19.37,0,0,0,4.55-8.06Zm4.07,7.9c5.67,3.67,4.47,7.92,2.74,6.45a9.45,9.45,0,0,0-.63-2.22c-2.49.6-5.93,1.3-10,2a.93.93,0,0,1-.52.47l-.7-2a1.72,1.72,0,0,0,.57-.25A28.25,28.25,0,0,0,155,148.1l2.21,1c-.09.2-.3.35-.7.31a35.06,35.06,0,0,1-5.29,7.08c2.27-.13,6-.49,9.83-.94a19.94,19.94,0,0,0-2.16-3.67Zm1.24-8.77a2.23,2.23,0,0,1-1.35.42,10,10,0,0,0,5.8,6.37l-.05.22a2,2,0,0,0-1.32,1.29c-2.72-1.76-4.26-4.48-4.93-8h-1.91l-.16-.52h1.64l.61-.92Z"/><path class="cls-1" d="M168.32,158.18a20.16,20.16,0,0,0,5.8-2.37l1.73,1.2a.92.92,0,0,1-.92.09,23.23,23.23,0,0,1-6.54,1.35ZM182.67,142s1,.78,1.66,1.34c-.06.19-.22.27-.47.27h-6.79v1.15h3.62l.87-1.05s1,.74,1.62,1.28a.45.45,0,0,1-.49.29H170.1l-.16-.52h5.67v-1.15h-6.75l-.16-.51h6.91v-1.2l2.11.19c0,.26-.2.44-.65.51v.5h4.72Zm-1,7.37v-.49H171.27v.29c0,.13-.63.41-1.15.41h-.2v-4l1.48.63h10.1l.69-.72,1.49,1.11a1.23,1.23,0,0,1-.67.33v2a1.77,1.77,0,0,1-1.13.43Zm-10.39-1h2.56v-1.56h-2.56Zm0,.83,1.53.67h7.3l.72-.8,1.56,1.21a1.14,1.14,0,0,1-.68.32v5a2.12,2.12,0,0,1-1.21.41h-.23v-.43H172.7v.22c0,.12-.63.43-1.21.43h-.22Zm1.43,1.19v1.19h7.56v-1.19Zm7.56,2.93v-1.22H172.7v1.22Zm0,1.75v-1.22H172.7v1.22Zm-5.13-8.26v1.56h2.61v-1.56Zm2.45,9.36c8.91.32,6.43,3.11,4.88,2.14a17,17,0,0,0-5-1.84Zm4.08-7.8v-1.56h-2.61v1.56Z"/><path class="cls-1" d="M196.26,146.34s1,.82,1.64,1.44c-.05.19-.23.28-.49.28h-3.62v1.32c4.61,1.8,3.51,4.77,2.11,3.69a8.83,8.83,0,0,0-2.11-3.33V158c0,.12-.46.45-1.17.45h-.23v-7.94a16.4,16.4,0,0,1-4.54,5l-.23-.23a19,19,0,0,0,4.32-7.26h-3.66l-.12-.52h4.23v-3.17a41.53,41.53,0,0,1-4.2.52l-.05-.28a32.43,32.43,0,0,0,7.56-2.7l1.73,1.54c-.2.17-.54.17-1,0-.73.22-1.63.45-2.61.65v3.44h1.55Zm3.44,7.95c0,.17-.6.47-1.1.47h-.25V143.42l2,.2c-.06.25-.2.45-.67.5Zm4.57-11.86c-.05.27-.21.45-.65.5v13.54c0,1.12-.23,1.79-2.14,2a1.69,1.69,0,0,0-.43-1,3.2,3.2,0,0,0-1.64-.54v-.27s2,.14,2.38.14.43-.11.43-.38V142.21Z"/><path class="cls-1" d="M222.85,156s1,.88,1.53,1.47a.43.43,0,0,1-.47.29H207.85l-.14-.52h2.7v-6.09l1.56.67h7.84l.7-.9,1.73,1.22c-.13.2-.36.29-.81.36v4.74H222ZM215,147.67c-.07.21-.31.32-.81.3a17.92,17.92,0,0,1-6,3.86l-.16-.2a16.63,16.63,0,0,0,4.84-4.75Zm-6.77-1.23-.16-.52h9.22a32.68,32.68,0,0,0,1.91-4l2.14.81c-.09.2-.33.32-.69.27a19.76,19.76,0,0,1-2.88,2.95h3.48l1-1.2s1.1.82,1.75,1.44c0,.19-.22.28-.49.28Zm2.92-4.52c4.55,1.52,3.36,4.7,1.87,3.59a8.63,8.63,0,0,0-2.05-3.46Zm.64,15.31h2v-4.9h-2Zm3.28-4.9v4.9h1.82v-4.9Zm2.41-5.13c6.76,1.58,6.47,4.93,4.7,4.29a21.72,21.72,0,0,0-4.86-4.13Zm.72,5.13v4.9H220v-4.9Z"/><path class="cls-1" d="M228.87,153.41a4.4,4.4,0,0,1-.09,3.69c-.28.42-1,.56-1.24.16a.89.89,0,0,1,.29-1.08,4.07,4.07,0,0,0,.74-2.77Zm-1.26-2.21a2.13,2.13,0,0,0,.47-.16,16.85,16.85,0,0,0,2.33-3.25c-.51.18-1.12.38-1.7.56a1,1,0,0,1-.38.34l-.68-1.65a1.87,1.87,0,0,0,.43-.18,16.76,16.76,0,0,0,2-4.88l1.83.83a.57.57,0,0,1-.62.28,21.7,21.7,0,0,1-2.67,4.06h2.11c.32-.65.59-1.23.77-1.7l1.6,1.12a.61.61,0,0,1-.66.18,25.36,25.36,0,0,1-3.69,4.5l2.84-.16a9.19,9.19,0,0,0-.7-1.77l.23-.09c2.74,1.89,1.62,4.06.69,3.16a3.84,3.84,0,0,0-.11-.87c-.79.25-1.93.61-3.08.94a.93.93,0,0,1-.49.39Zm2.61,1.94c2.09,2.29.71,4.4-.14,3.3a8.26,8.26,0,0,0-.13-3.23Zm8.41.13a1.22,1.22,0,0,1-.68.25c-.13,2.74-.4,3.94-1,4.43a2.32,2.32,0,0,1-1.42.43,1.2,1.2,0,0,0-.22-.79,2.18,2.18,0,0,0-.95-.34v-.31c.43,0,1.11.07,1.4.07a.65.65,0,0,0,.47-.12c.27-.26.47-1.32.59-3.5h-1.37a6.63,6.63,0,0,1-4.15,5.24l-.13-.27c2.48-1.69,3.11-3.76,3.24-6.75h-1.28l-.14-.52h4l.66-.85s.78.61,1.25,1.08c0,.2-.2.29-.44.29H235.7a11.46,11.46,0,0,1-.15,1.26h1.12l.63-.68Zm-7-.47c2.66,1.73,1.54,3.85.59,2.9a6.29,6.29,0,0,0-.83-2.83Zm2.82-3.06c0,.12-.48.39-.93.39h-.18v-6.51l1.18.55H235c.07-.64.18-1.6.23-2.26l1.93.32c-.07.25-.27.41-.67.43-.23.45-.63,1-.92,1.51h1.12l.63-.68,1.39,1.06a1.17,1.17,0,0,1-.71.34v4.56c0,.11-.57.36-.95.36h-.18v-.59H234.4Zm0-5.06v1.73h2.47v-1.73Zm2.47,4V147H234.4v1.74Zm-2,.62c2.63.54,1.35,2.41.34,1.53a2.31,2.31,0,0,0-.54-1.43Zm8.09-3.06c-.15,3.07-.45,5.69-1.5,7.86a8.72,8.72,0,0,0,2.79,3.17l0,.16a1.5,1.5,0,0,0-1.26,1.07,9.27,9.27,0,0,1-2.16-3.21,10.49,10.49,0,0,1-3.37,3.19l-.16-.22a11.45,11.45,0,0,0,3.1-4.17,25.42,25.42,0,0,1-1-5.59,11.65,11.65,0,0,1-.93,1.59l-.29-.16a29.29,29.29,0,0,0,1.73-8l2,.38c-.06.24-.25.42-.65.43a29.69,29.69,0,0,1-.74,3h1.44l.85-1.1s.95.78,1.55,1.34a.44.44,0,0,1-.47.29Zm-2.65,0c-.18.55-.4,1.06-.61,1.56a22.49,22.49,0,0,0,1.13,4.92,24.23,24.23,0,0,0,.81-6.48Z"/><path class="cls-1" d="M250.24,148.87c0,3.07-.18,6.95-3,9.6l-.24-.16c1.68-2.72,1.82-6.19,1.82-9.44v-5.51l1.62.65h5.84a.69.69,0,0,1-.2-.09,5.79,5.79,0,0,0-1.53-2l.16-.14c2.93.25,2.95,1.91,2.14,2.23h4.27l.94-1.2s1,.82,1.69,1.44c-.05.2-.24.29-.49.29H250.24ZM262.29,154a21,21,0,0,1,1.65,1.35c0,.2-.23.29-.48.29h-6.07V158c0,.16-.61.49-1.12.49H256v-2.9h-5.92l-.15-.54H256v-1.66h-2.91v.4c0,.12-.6.45-1.14.45h-.2v-6.4l1.44.63H256V147h-5.16l-.15-.52H256v-1.73l1.89.2c0,.21-.14.36-.5.41v1.12h3.42l.85-1.08s1,.75,1.6,1.31a.43.43,0,0,1-.47.29h-5.4v1.49h2.81l.7-.75,1.51,1.15a1.23,1.23,0,0,1-.66.34v4.4c0,.14-.69.45-1.16.45h-.23v-.67h-3v1.66h4Zm-9.2-5v1.67H256V149Zm2.91,3.87v-1.68h-2.91v1.68Zm1.39-3.87v1.67h3V149Zm3,3.87v-1.68h-3v1.68Z"/><path class="cls-1" d="M268.29,145.94h-1.13l-.15-.52h1.28V143l1.46.61h1.44v-1.72l1.95.19c-.06.26-.22.44-.67.51v1H274l.65-.68L276,144a1.23,1.23,0,0,1-.63.31v1.1h.23l.67-.88a16.23,16.23,0,0,1,1.24,1.11c0,.2-.22.29-.45.29h-1.69v1.78c0,.13-.65.4-1.05.4h-.19v-.4h-1.68v1.17h1.78l.63-.63,1.34,1a1,1,0,0,1-.58.29v2.05c0,.13-.63.4-1,.4h-.21v-.5h-5.15v.23a1.23,1.23,0,0,1-1,.4H268V148.3l1.43.59h1.74v-1.17h-1.67v.09a1.18,1.18,0,0,1-1,.4h-.22Zm8.45,7.4c-.65.09-1.37.18-2.2.27a4.93,4.93,0,0,1-1.15,2.11c2.75.9,2.07,2.37,1,2.07a10.52,10.52,0,0,0-2.14-1.1,13.4,13.4,0,0,1-4.88,1.73l-.13-.27a11.64,11.64,0,0,0,4.16-1.79,27.28,27.28,0,0,0-3-.93,12.26,12.26,0,0,0,.65-1.24l-.85.09a.79.79,0,0,1-.49.36l-.48-1.5c.56,0,1.37,0,2.3,0a11.31,11.31,0,0,0,.63-1.58l1.89.36c-.05.23-.2.39-.74.41-.1.24-.23.51-.37.78l2.54,0a8.51,8.51,0,0,0,.14-1.13l1.85.45c-.07.25-.3.37-.68.37l-.05.27,2,0Zm-7.49-2.4h1.94v-1.53h-1.94Zm.27-5.52h1.67v-1.26h-1.67Zm1.67,1.76v-1.24h-1.67v1.24Zm-.75,6.86c-.18.38-.38.76-.56,1.12a18,18,0,0,1,2.45.29,4.79,4.79,0,0,0,.92-1.7C272.4,153.84,271.46,154,270.44,154Zm2-9.88v1.26h1.68v-1.26Zm1.68,1.78h-1.68v1.24h1.68Zm-1.68,3.47v1.53h1.93v-1.53Zm10.12-3a18.41,18.41,0,0,1-2.21,7.36,10.61,10.61,0,0,0,3.52,3.53l0,.16a1.48,1.48,0,0,0-1.28,1.05,10.7,10.7,0,0,1-2.9-3.69,12.85,12.85,0,0,1-4.61,3.73l-.16-.24a13.26,13.26,0,0,0,4.25-4.72,23,23,0,0,1-1.31-5.51,12.93,12.93,0,0,1-1.55,2.31l-.25-.16a27.69,27.69,0,0,0,2.18-8.27l2.12.47c0,.25-.25.41-.63.43a29.78,29.78,0,0,1-.9,3h2.45l.88-1.17s1,.81,1.66,1.4a.44.44,0,0,1-.47.29Zm-4,0c-.14.36-.29.72-.45,1a20.52,20.52,0,0,0,1.53,5,19.4,19.4,0,0,0,1.35-6.05Z"/><path class="cls-1" d="M162.58,172.43s1.21.95,1.93,1.6c0,.2-.23.29-.5.29h-7v4.26h3.76l.76-.88,1.69,1.3a1.44,1.44,0,0,1-.77.39V186a2.26,2.26,0,0,1-1.28.43H161v-1.46H152.1V186c0,.14-.64.48-1.27.48h-.24v-8.59l1.6.7h3.3v-8.66l2.16.2c0,.27-.18.45-.65.52v3.14h4.52Zm-10.48,6.66v5.33H161v-5.33Z"/><path class="cls-1" d="M178.53,171.06a2.1,2.1,0,0,1-1.28.38c1.3,1.8,4.5,3.78,7.73,4.77l0,.21a1.92,1.92,0,0,0-1.39,1.3,16.69,16.69,0,0,1-6.84-6.3,19.47,19.47,0,0,1-8.62,7l-.17-.24a19.08,19.08,0,0,0,6.85-6.77h-3.57l-.16-.52h5.15l.63-1Zm4.07,13.12s1.08.87,1.76,1.5c-.05.2-.23.27-.48.27h-15l-.14-.52h6.84v-3.86h-4.9l-.14-.52h5v-3.38h-4.34l-.14-.53h8.1l.9-1.06s1,.76,1.64,1.3a.45.45,0,0,1-.49.29h-4.18v3.38h3.06l.92-1.11s1,.77,1.68,1.35c0,.19-.2.28-.45.28h-5.21v3.86h4.54Z"/><path class="cls-1" d="M204.27,171.42a1.44,1.44,0,0,1-.75.36v14.1a1.89,1.89,0,0,1-1.17.48h-.22v-1.11H190.19V186c0,.18-.5.56-1.11.56h-.26V170.32l1.5.68H202l.74-.84Zm-2.14,13.3V171.53H190.19v13.19Zm-5.76-4c-1,.45-2.45,1.08-4.47,1.84a.55.55,0,0,1-.38.41l-.86-1.55c1-.12,3.33-.52,5.65-.95Zm1.08-5.92a16.62,16.62,0,0,0,.75,4.23,15.69,15.69,0,0,0,1.39-3.42l1.78.73a.61.61,0,0,1-.72.29,14.25,14.25,0,0,1-1.94,3.64,6.3,6.3,0,0,0,1.35,1.82c.22.23.31.21.45-.06s.41-1.11.61-1.72l.24,0-.27,2.34c.45.67.52,1,.34,1.17-.45.52-1.42,0-2-.56a8.94,8.94,0,0,1-1.54-2,11.92,11.92,0,0,1-4,2.79l-.2-.25a12.42,12.42,0,0,0,3.72-3.5,17.7,17.7,0,0,1-1.18-5.52h-5.32l-.14-.53h5.42c0-.79-.09-1.62-.09-2.46l1.91.37a.58.58,0,0,1-.61.42c0,.56,0,1.12,0,1.67h2.16l.45-.55a.73.73,0,0,1-.52-.11,4.17,4.17,0,0,0-1.4-1.59l.18-.16c1.92.16,2.36,1.06,2.12,1.55a13.13,13.13,0,0,1,1.28,1.1c-.05.2-.23.29-.49.29Zm-3,5.13v-.58h-1.67v.58a1.35,1.35,0,0,1-.95.36h-.15v-4.65l1.17.52h1.48l.57-.59,1.25.95a.93.93,0,0,1-.58.27v2.74c0,.13-.56.4-.94.4Zm0-1.1v-2.13h-1.67v2.13Z"/><path class="cls-1" d="M223.86,184.65c.37.16.47.31.47.56,0,.5-.49.74-2.42.74h-1.15c-1.15,0-1.35-.31-1.35-1.15v-5.33h-1.28c-.18,2.9-.7,5.33-5,7l-.24-.29c3.48-1.8,3.82-4.1,3.89-6.71h-.32v.47c0,.12-.58.41-1.1.41h-.2v-6a9.62,9.62,0,0,1-1.1.74c.26.24.54.47.76.7,0,.2-.22.29-.47.29h-2.48v1c3.47,1.55,2.34,3.92,1.19,3a6.65,6.65,0,0,0-1.19-2.51v8.49a1.36,1.36,0,0,1-1.12.43h-.23v-7a15,15,0,0,1-2.79,3.87l-.26-.24a19.28,19.28,0,0,0,2.78-7H207.8l-.15-.54h2.85v-3.37c-.9.17-1.82.28-2.69.37l-.07-.27a30.16,30.16,0,0,0,5.35-2.27l1.64,1.42c-.18.16-.52.16-1,0-.52.16-1.17.32-1.89.47v3.65h.7l.81-1.06s.22.18.49.43l0,0a14.46,14.46,0,0,0,3-4.79l1.9.8c-.07.19-.21.28-.62.25a13.24,13.24,0,0,1-2.87,3.11l1.3.58h4.34l.68-.72,1.44,1.12a1.23,1.23,0,0,1-.61.3v4.16a1.75,1.75,0,0,1-1.13.42H221v-.65h-.34v5c0,.23,0,.29.41.29H222c.36,0,.66,0,.81,0a.27.27,0,0,0,.28-.18,15.44,15.44,0,0,0,.51-2.14h.23ZM221,175.38h-4.59v3.56H221Zm-1.26-5c5.22,2,4.39,5.26,2.83,4.27a12.45,12.45,0,0,0-3-4.14Z"/><path class="cls-1" d="M234.13,170.16c0,.23-.18.43-.63.48v15.25c0,.22-.61.6-1.13.6h-.25v-5.73c-.85.49-2,1.16-3.19,1.82a1.27,1.27,0,0,1-.47.4l-.72-1.57c.54-.27.63-.41.63-.74v-8.91l2,.22c-.06.25-.22.41-.65.48v8.43c.72-.18,1.53-.41,2.4-.67V169.94Zm8.28,4.39A16.8,16.8,0,0,1,239.7,182a11.59,11.59,0,0,0,4.68,3.09l-.06.18a1.62,1.62,0,0,0-1.33,1.19,10.63,10.63,0,0,1-4.1-3.47,13.85,13.85,0,0,1-5.14,3.53l-.16-.24a13.67,13.67,0,0,0,4.67-4.27,18.77,18.77,0,0,1-1.95-5.7,13.85,13.85,0,0,1-2.11,3.18l-.25-.16a29.68,29.68,0,0,0,2.67-9.43l2.28.48c-.05.24-.25.4-.66.43a33,33,0,0,1-.94,3.19h4.34l.94-1.17s1,.83,1.67,1.42c0,.2-.23.29-.49.29Zm-5.31,0c-.16.4-.32.79-.5,1.15a15.17,15.17,0,0,0,2.29,5.3,17.44,17.44,0,0,0,1.89-6.45Z"/><path class="cls-1" d="M255.37,182.83c-1.2.67-3.31,1.86-5.67,3.06a1,1,0,0,1-.34.44l-1.1-1.48c.63-.43.74-.58.74-.95V170.12l2.16.24c-.06.28-.25.46-.74.55v5.46h2.22l1-1.33s1.1.93,1.73,1.58a.43.43,0,0,1-.47.29h-4.45v7.29c1.32-.41,3.08-1,4.86-1.64Zm7.91,1.52c.47.19.61.36.61.64,0,.67-.76.94-3.73.94h-1.94c-1.61,0-2.09-.39-2.09-1.64V170.16l2.07.23c0,.24-.18.43-.65.51v5.45h2.7l1-1.35s1.09.94,1.74,1.59c-.05.19-.23.28-.48.28h-4.92v7c0,.46.16.64.92.64h1.76a15.3,15.3,0,0,0,1.64,0,.48.48,0,0,0,.42-.25,21.35,21.35,0,0,0,.68-2.86h.23Z"/><path class="cls-1" d="M281.85,184.11s1.17.88,1.84,1.5c0,.2-.24.27-.47.27h-16l-.16-.51h7.51v-2.05h-6l-.15-.52h6.11v-1.86h-3.69v.38c0,.15-.63.49-1.25.49h-.21V175l1.55.67h3.6V174h-7.06l-.16-.54h7.22v-1.58c-2,.16-4,.25-6,.25l-.05-.34a68.17,68.17,0,0,0,11.63-1.93l1.4,1.4c-.18.15-.52.15-1-.05-1.29.2-2.86.4-4.54.54v1.71h4.69l.93-1.13s1.1.81,1.75,1.38c0,.2-.22.29-.47.29h-6.9v1.68h3.57l.74-.83L282,176.1a1.38,1.38,0,0,1-.74.38v4.7a2.29,2.29,0,0,1-1.25.41h-.21v-.65h-3.75v1.86h3.88l.91-1.08s1,.74,1.68,1.31a.45.45,0,0,1-.49.29h-6v2.05h4.83Zm-11-7.9V178h3.69v-1.82Zm3.69,4.23v-1.89h-3.69v1.89Zm1.47-4.23V178h3.75v-1.82Zm3.75,4.23v-1.89h-3.75v1.89Z"/></g></svg>