<svg id="圖層_1" data-name="圖層 1" xmlns="http://www.w3.org/2000/svg" viewBox="0 0 300.26 59.56"><defs><style>.cls-1{opacity:0.8;}.cls-2{fill:#c4cffb;}.cls-3{fill:none;stroke:#bdc9fb;stroke-miterlimit:10;}</style></defs><title>利斧_台</title><g class="cls-1"><path class="cls-2" d="M130,8.84l1.86-1.7c.74-.67,1.72-1.31,2.72-2.08a33,33,0,0,1,7.72-3.64A32,32,0,0,1,151.25.16l2.08.1c.65,0,1.29.13,1.93.24a26.62,26.62,0,0,1,3.32.63,17.19,17.19,0,0,1,2,.63c.62.23,1.23.4,1.75.65,1,.51,2,.87,2.71,1.32s.24.07-.92-.48c-.59-.27-1.35-.66-2.28-1l-1.54-.54a14.27,14.27,0,0,0-1.72-.53L156.84.71c-.6-.14-1.25-.2-1.92-.31l-1-.14a5.71,5.71,0,0,1-1.08-.07c-.73,0-1.49-.11-2.28-.07a28.55,28.55,0,0,1,10.23,1.77c.47.17,1,.32,1.41.51l1.36.64c.47.2.92.43,1.36.67l1.32.78a29.14,29.14,0,0,1,9.46,9.22,29.49,29.49,0,0,1,4.4,12.36,25.19,25.19,0,0,1,.2,3,13.67,13.67,0,0,1,0,1.81,9.3,9.3,0,0,1-.13,1.89,27.76,27.76,0,0,1-.66,3.62L179.12,38c-.17.46-.32.89-.45,1.25a28.87,28.87,0,0,0-.09-19.07A28.22,28.22,0,0,0,174,11.57,31.23,31.23,0,0,0,166.77,5a8.87,8.87,0,0,1,.86.61,29.29,29.29,0,0,1,11.54,16.53c.13.56.27,1.13.4,1.7s.18,1.17.28,1.77c-.1-.59-.13-1.18-.27-1.75l-.41-1.72a30.27,30.27,0,0,0-3.76-8.46c-.6-.83-1.22-1.73-1.89-2.6a21.58,21.58,0,0,0-2.17-2.37L169.58,7c-.61-.5-1.25-1-1.89-1.44l-.61-.46-.66-.39-1.32-.79q-.4-.24-.84-.45h0c.29.12.86.51,1.68,1,.4.26.9.51,1.38.88l1.58,1.19a30.69,30.69,0,0,1,6.65,7.5,28.21,28.21,0,0,1,3.77,9.58,31.68,31.68,0,0,1,.57,6.44,28.41,28.41,0,0,1-1.81,10c-.43,1.18-1,2.1-1.35,3a5.2,5.2,0,0,1-.48.94l-1,1.61c-.35.51-.73,1-1.09,1.46a29.43,29.43,0,0,1-2.09,2.5,14.46,14.46,0,0,1-2.35,2l-.66.49-.6.38a5.39,5.39,0,0,0-.63.43,2.11,2.11,0,0,1-.67.66c-.27.21-.83.45-2.2,1.23-.18.09-.5.35-.9.56s-.85.44-1.2.6c-1.18.54-2,.77-2.82,1.08a21.77,21.77,0,0,1-3.17.94,22.11,22.11,0,0,1-4.8.58,13.35,13.35,0,0,1-2,0c-.71,0-1.52,0-2.5-.08l-1.23-.15-1.07-.13-1.16-.26a17.55,17.55,0,0,1-2.11-.52l-.93-.3A25.46,25.46,0,0,1,138,55.8a21.44,21.44,0,0,1-2.53-1.38,15.71,15.71,0,0,1-2.19-1.54,13.9,13.9,0,0,1-2-1.84,23.72,23.72,0,0,1-4.77-5.46l-1-1.67c-.15-.28-.32-.56-.46-.84l-.39-.87c-.25-.58-.5-1.14-.75-1.7a16.75,16.75,0,0,1-.58-1.68,18,18,0,0,1-.8-2.92,16.46,16.46,0,0,1-.33-2.44c0-.39-.08-.77-.09-1.16s0-.79,0-1.19V29.83c0-.45.09-.9.13-1.4s.07-1.06.1-1.5a6.29,6.29,0,0,1,.22-1.13,10.75,10.75,0,0,0,.2-1.51q.15-.91.39-1.83l.06.3c.12-.36.28-1.09.43-1.44s.15-.25.16-.15,0,.4.33-.19.57-1.45.93-2.16l1.1-2.13c.38-.7.76-1.39,1.13-2.09s.87-1.31,1.28-2a1.48,1.48,0,0,1,.11-.45,13.08,13.08,0,0,1,.84-1.12c.08-.3-.1-.34,0-.54-.32-.26.77-2,.18-2a12.5,12.5,0,0,0-1.29,1.23c-.31.32-.67.66-1,1s-.58.67-.81.9.09-.43.15-.77c-1,1.39-1.19,1.39-.88.74l-.5.64.09-.43a29.55,29.55,0,0,0-1.91,2.81c-.63,1-1.09,2.05-1.63,3.09A17.86,17.86,0,0,0,120.75,21a26.64,26.64,0,0,0-.67,3.29,24.21,24.21,0,0,0-.17,3.5c0,.51-.13,1.64-.11,2.05.15.72.29.61.43.91a21.21,21.21,0,0,0,.16,2.88c.07.53.14,1.08.21,1.63s.24,1.07.35,1.57l.36,1.42c.14.42.3.79.43,1.09.26.61.45,1,.53.86.11.3.2.57.29.81a6.57,6.57,0,0,0,.32.65c.21.38.39.72.57,1.06s.36.68.6,1.07.53.82.87,1.38a30.79,30.79,0,0,0,14.24,12.11c.78.34,1.58.56,2.31.83a30,30,0,0,0,22.61-1.68,29.49,29.49,0,0,0,8.76-6.68,28.64,28.64,0,0,0,5.94-10.08A29.84,29.84,0,0,0,159.22,1.19,30.22,30.22,0,0,0,149.3,0a19.14,19.14,0,0,0-2.27.2c-.74.12-1.46.2-2.15.34A35,35,0,0,0,141,1.68a29.58,29.58,0,0,0-9.36,5.43Z"/></g><path class="cls-3" d="M156.32,14c19.54,3.7,15.63,17.34,8.89,13.29a28.31,28.31,0,0,0-2.42-4.79c-6.25,1.49-15.36,3.25-26.62,5.15a3.76,3.76,0,0,1-1.67,1.1l-1.85-7.22a8.75,8.75,0,0,0,2-.62c4.18-1.93,10.56-9.37,12.41-13.64l8.67,3.26c-.17.48-.7.88-1.72.83-3.43,3.44-9.81,7.57-15.44,10.17,5.76,0,14.34-.13,23.32-.35A45.14,45.14,0,0,0,156,14.28Zm5.15,13.65,6.29,4.84a3.21,3.21,0,0,1-2,1.1V47.42c-.09.31-3.43,1.41-5.63,1.41H159V45H144v2c0,.66-3,2.16-5.77,2.16h-1V28.36l7.09,2.69h14.13ZM159,43.72V32.28H144V43.72Z"/></svg>