<svg xmlns="http://www.w3.org/2000/svg" viewBox="0 0 300.43 300.62"><defs><style>.cls-1{opacity:0.8;}.cls-2{fill:#c4cffb;}.cls-3{fill:none;stroke:#bdc9fb;stroke-miterlimit:10;stroke-width:2px;}</style></defs><title>國</title><g id="圖層_2" data-name="圖層 2"><g class="cls-1"><path class="cls-2" d="M150.73.74a158.76,158.76,0,0,1,30,3l4.8,1.1,2.47.56,2.47.69c1.67.48,3.36.94,5.07,1.45l5.13,1.73a152.14,152.14,0,0,1,20.7,9.12,159.31,159.31,0,0,1,19.57,12.53,152.71,152.71,0,0,1,16.86,14.87c1.25,1.3,2.48,2.6,3.69,3.87l3.41,3.93c1.14,1.27,2.17,2.59,3.18,3.89s2,2.54,3,3.82L273.68,65c.43.61.88,1.21,1.28,1.82l1.16,1.81,2.23,3.48c.71,1.12,1.31,2.25,1.94,3.31,1.95,3.26,3.52,6.48,5,9.46.74,1.51,1.38,3,2,4.44s1.29,2.81,1.8,4.19c1.06,2.74,2.13,5.26,2.89,7.69s1.6,4.63,2.14,6.73c.5,1.76.58,2.06.32,1.14s-.81-3.1-1.91-6.19a144.87,144.87,0,0,0-12.33-27.46A148.59,148.59,0,0,0,255,43a148.69,148.69,0,0,1,18.55,22,155.06,155.06,0,0,1,12.07,20.86,148.09,148.09,0,0,1,10.24,28.85,151.3,151.3,0,0,1,4.21,33.64,148.18,148.18,0,0,1-31.73,93.72,151.2,151.2,0,0,1-23.91,24.23l-3.82,3c-1.26,1-2.6,1.86-3.87,2.79-2.54,1.87-5.17,3.46-7.62,5-1.21.81-2.47,1.47-3.65,2.16l-3.43,1.95L216,284.28a149.53,149.53,0,0,0,69-68.87,149.92,149.92,0,0,0,11.68-96.85c.44,1.75.68,3.52,1,5.26a150.93,150.93,0,0,1,2.32,26,154,154,0,0,1-2.27,26A145.28,145.28,0,0,1,291,201,150.45,150.45,0,0,1,280,224.57a152,152,0,0,1-9.92,15,151.66,151.66,0,0,0,9.92-15,139.05,139.05,0,0,0,10-20.85,152.19,152.19,0,0,0,6.85-23.16,150.6,150.6,0,0,0,3.13-32.47,144.36,144.36,0,0,0-2.23-24.27L297,120l-.88-3.8c-.3-1.27-.55-2.55-.89-3.8l-1.06-3.76c-.42-1.46-.85-3-1.41-4.6l.06.2c.13.38.29.88.48,1.47s.37,1.32.6,2.12c.42,1.63,1,3.62,1.61,6a149.78,149.78,0,0,1-8,95.18,149.89,149.89,0,0,1-24.35,38.41c-.94,1.07-1.8,2.1-2.65,3l-2.42,2.52-2,2.13c-.62.63-1.2,1.15-1.69,1.63a150.27,150.27,0,0,1-19.56,16.18,144.1,144.1,0,0,1-23.37,13.22c-2.91,1.38-5.72,2.36-8.3,3.39-1.28.53-2.57.91-3.8,1.34l-3.6,1.24c-.43.24-2.81.9-5.18,1.61-12.36,3.56-25.23,4.83-35.07,5.24l-3.12.06c-1.19,0-2.51,0-3.91-.1l-4.37-.23c-1.49-.06-3-.29-4.44-.42l-4.18-.46-3.55-.57c-2.09-.33-3.56-.53-3.92-.56a27.66,27.66,0,0,1-4.76-.58c-.84-.18-2-.37-4-.89l-3.55-.89c-.71-.18-1.49-.34-2.32-.58l-2.7-.79-2.12-.57c-.91-.24-2-.5-3.09-.87-2.22-.73-4.71-1.45-6.54-2.18-6.18-2.46-10.1-4.24-14.19-6.23l-3.13-1.58-1.66-.83-1.72-1-3.84-2.18c-1.38-.8-2.82-1.76-4.44-2.78-2.43-1.46-4.46-3-6.39-4.35s-3.56-2.7-5.13-3.91c-.78-.62-1.54-1.2-2.25-1.79l-2-1.78c-1.31-1.17-2.6-2.23-3.78-3.37-2.37-2.29-4.74-4.48-7.22-7.16l-2-2c-.68-.71-1.33-1.49-2-2.27-1.39-1.59-3-3.25-4.53-5.23a143.67,143.67,0,0,1-10.46-14.56c-1.12-1.71-2.09-3.5-3.07-5.13-.47-.82-1-1.59-1.35-2.36l-1.13-2.15-1.67-3.2c-.42-.77-.61-1.22-.61-1.22A154.17,154.17,0,0,1,5.84,184.34,127.25,127.25,0,0,1,2.37,157a139.1,139.1,0,0,1,2.8-37,154.19,154.19,0,0,1,12.7-36A132.4,132.4,0,0,1,33,60.29a143.69,143.69,0,0,1,17.89-18.7c2.2-2,4.19-3.59,5.9-5.07s3.34-2.58,4.73-3.59c.68-.51,1.62-1.2,2.72-2l3.65-2.68c1.31-.94,2.75-1.85,4.13-2.77L74,24.16c.67-.42,1.35-.78,2-1.15L74.9,24l3.42-1.91c1.28-.71,2.56-1.43,3.45-1.84,1.76-.87,1.35-.57,1-.27-.79.6-1.56,1.2,1.54-.23a155.66,155.66,0,0,1,23.2-9,153.58,153.58,0,0,1,24.16-5.62,12.54,12.54,0,0,1,2.12-.63l1.81-.28L137.38,4,141,3.64c1.44-.4.93-.67,1.91-.94-.08-.82,10.29-1.86,7.81-2.56-.5-.07-4.36-.12-8.92,0-2.27.14-4.72.24-7,.41s-4.4.42-6,.54S130.72.48,132.17,0l-4.93.61a23.19,23.19,0,0,1-2.31.28c-.76,0,0-.24,1.67-.68l-4,.67,1.92-.73a152.42,152.42,0,0,0-32.61,9A134.35,134.35,0,0,0,62.68,25.4l-3.14,2.32c-1.13.9-2.3,1.89-3.5,2.87-2.43,1.93-4.7,4.14-6.58,5.84-1,.82-2.41,2.22-3.84,3.55s-2.85,2.61-3.54,3.36a18,18,0,0,0-2.57,3.81c-2.68,2.83-6,6.6-9.33,10.82-.41.53-.84,1-1.25,1.58l-1.19,1.66c-.8,1.1-1.6,2.21-2.39,3.32-1.56,2.23-3,4.54-4.37,6.69s-2.5,4.34-3.58,6.26-1.87,3.74-2.59,5.2a31.4,31.4,0,0,0-1.49,3.49c-.28.81-.38,1.22-.23,1.15l-1.75,3.9-1.27,3.34c-.77,2.07-1.45,3.84-2,5.68s-1.17,3.66-1.78,5.84c-.29,1.1-.6,2.27-.95,3.57s-.77,2.69-1.1,4.29A149.9,149.9,0,0,0,.18,142.32,151.78,151.78,0,0,0,2,174.15,155,155,0,0,0,11.4,207.3l.58,1.48.66,1.44,1.29,2.84c.43.93.83,1.87,1.28,2.78l1.37,2.66a151.88,151.88,0,0,0,37.48,47A150.14,150.14,0,0,0,282.47,79a152.46,152.46,0,0,0-31.24-39.73A158.6,158.6,0,0,0,233.4,25.48l-4.48-2.86c-1.48-.93-3-1.75-4.47-2.61l-2.2-1.26c-.73-.4-1.48-.76-2.22-1.14l-4.35-2.22A151.39,151.39,0,0,0,184.26,4.47a141.6,141.6,0,0,0-21.53-3.24C158.74.85,154.73.84,150.73.74Z"/></g><path class="cls-3" d="M265.3,62.22c-1.62,2.09-4.64,3.94-9.28,5.1v180.5c-.46,2.32-14.84,9.74-26.67,9.74h-4.88V239.23h-138v7.89c0,3.94-12.53,11.6-25.75,11.6H55.58V42.5L89,55.72H222.15l14.62-16.24ZM224.47,232.74V125.55c-1.62,1.4-4.4,2.09-8.12,1.63a185,185,0,0,1-25,47.79,63.91,63.91,0,0,0,9,13.69c2.32,3,3.48,2.78,5.33-.47,3-5.1,7.43-15.08,10.67-23.43l2.32.7-3.94,32.48c6.5,12.29,7.66,19,3.94,23-10,9.75-26.44.93-33.64-7.19a124,124,0,0,1-12.76-18.33C157,209.07,138.87,219.05,118,226.24l-2.09-2.55a162.66,162.66,0,0,0,48-46.4c-5.8-15.78-9.28-32.94-11.13-51.27a17.52,17.52,0,0,1-3.71,1.16v33.64c0,1.85-10.68,7-18.33,7H127v-6.73H118v4.18c0,1.62-9.51,6.49-18.33,6.49h-3V109.78l22.28,9h6.49l9.75-10,17.16,12.76c-.69-6-1.16-12.3-1.39-18.56H92.24l-1.86-6.5H150.7c-.46-10-.7-20-.7-30.39L185,72c-.46,2.79-2.78,5.34-8.12,5.8V96.55h11.6l7.2-9.51a54.39,54.39,0,0,0-11.14-20.18l2.09-1.39c34.57.69,35,19.25,25.05,25.28a123.37,123.37,0,0,1,9.75,8.59c-.7,2.55-3,3.71-6.27,3.71h-38c.46,14.62,1.62,28.77,4.17,41.76a184.07,184.07,0,0,0,10.91-35.73l32.24,13.69V62.22h-138V232.74ZM154.41,175c-8.81,7.42-23,18.09-43.61,31.78a9,9,0,0,1-6.27,6L89.92,181c11.36-.93,38-4.41,64.26-8.35ZM127,125.32H118v29.23H127Z"/></g></svg>