<svg xmlns="http://www.w3.org/2000/svg" viewBox="0 0 300.18 301.36"><defs><style>.cls-1{opacity:0.8;}.cls-2{fill:#c4cffb;}.cls-3{fill:none;stroke:#bdc9fb;stroke-miterlimit:10;stroke-width:1.5px;}</style></defs><title>社會問題</title><g id="圖層_2" data-name="圖層 2"><g class="cls-1"><path class="cls-2" d="M0,150.49a164.32,164.32,0,0,1,3-30c.36-1.57.72-3.17,1.08-4.81.19-.81.38-1.64.57-2.47s.45-1.65.68-2.48c.48-1.67.93-3.37,1.44-5.08s1.13-3.41,1.71-5.14a155,155,0,0,1,9-20.79A158.79,158.79,0,0,1,30,60a153.06,153.06,0,0,1,14.86-17l3.88-3.72,3.94-3.42c1.27-1.15,2.6-2.18,3.9-3.2s2.55-2,3.83-3l3.78-2.68c.62-.43,1.21-.87,1.83-1.27l1.83-1.17,3.49-2.22c1.12-.71,2.26-1.31,3.33-1.93,3.27-2,6.5-3.52,9.5-5.06,1.52-.73,3-1.36,4.46-2s2.83-1.28,4.21-1.79c2.76-1,5.29-2.11,7.74-2.85s4.65-1.57,6.76-2.1c1.77-.48,2.08-.55,1.15-.29s-3.11.8-6.21,1.88A145.68,145.68,0,0,0,42.14,45.87,143.15,143.15,0,0,1,64.33,27.46a149.4,149.4,0,0,1,21-11.76A147.76,147.76,0,0,1,114.22,5.55a152,152,0,0,1,33.59-4.13,148.12,148.12,0,0,1,93.46,31.77A152.43,152.43,0,0,1,265.43,57l3,3.8c1,1.26,1.86,2.6,2.79,3.87,1.87,2.52,3.45,5.15,5,7.59.81,1.21,1.46,2.46,2.15,3.64l2,3.42c1.16,2.23,2.17,4.28,3.06,6a149.21,149.21,0,0,0-68.77-68.62A149.92,149.92,0,0,0,118.16,5.1c1.74-.43,3.52-.65,5.25-.95a152.65,152.65,0,0,1,25.87-2.22,155.38,155.38,0,0,1,25.85,2.32A146.48,146.48,0,0,1,200.18,11a151,151,0,0,1,23.46,11,145.9,145.9,0,0,1,15,9.86,151.29,151.29,0,0,0-15-9.86,136.94,136.94,0,0,0-20.77-9.82,153.52,153.52,0,0,0-23-6.7,150.47,150.47,0,0,0-32.26-3.23,152.49,152.49,0,0,0-24.16,1.94l-3.83.67-3.79.86c-1.26.29-2.54.54-3.79.88l-3.74,1c-1.45.42-3,.86-4.58,1.43l.2-.06,1.49-.42L107.5,8c1.62-.39,3.61-1,6-1.48a155.26,155.26,0,0,1,18-3A152.3,152.3,0,0,1,182,6.66a149.78,149.78,0,0,1,25.85,8.55,151.09,151.09,0,0,1,38.08,24c1.06.93,2.08,1.77,3,2.61l2.51,2.38,2.13,2c.63.6,1.15,1.18,1.63,1.65A156.2,156.2,0,0,1,271.51,67,137.58,137.58,0,0,1,285,90.08c1.41,2.88,2.39,5.68,3.43,8.24.54,1.28.93,2.56,1.37,3.78s.86,2.41,1.28,3.57c.27.42,1,2.78,1.72,5.14,3.64,12.29,5,25.13,5.51,35,0,.87.06,1.92.08,3.11s0,2.52-.07,3.92-.12,2.87-.19,4.36-.26,3-.37,4.45-.28,2.87-.41,4.19-.36,2.51-.51,3.56c-.29,2.1-.47,3.56-.5,3.93a33,33,0,0,1-.57,4.77c-.18.84-.34,2-.84,4-.23,1-.5,2.15-.83,3.58-.17.71-.33,1.49-.55,2.32s-.49,1.74-.76,2.72c-.13.48-.33,1.22-.57,2.13s-.5,2-.87,3.1c-.72,2.23-1.45,4.72-2.16,6.57-2.4,6.22-4.16,10.17-6.16,14.27-.51,1-1,2.06-1.58,3.14-.27.55-.55,1.1-.84,1.67s-.64,1.13-1,1.73l-2.19,3.85c-.8,1.39-1.77,2.83-2.79,4.45-1.47,2.44-3,4.48-4.37,6.41s-2.71,3.58-3.92,5.16c-.62.78-1.21,1.54-1.8,2.26l-1.78,2c-1.16,1.31-2.22,2.61-3.37,3.8-2.3,2.38-4.5,4.75-7.2,7.24l-2.06,2c-.71.67-1.49,1.32-2.29,2-1.6,1.38-3.29,2.94-5.3,4.48a142.71,142.71,0,0,1-14.66,10.37c-1.73,1.12-3.53,2.07-5.16,3-.83.46-1.61.95-2.38,1.34l-2.16,1.11L215,284.46a13,13,0,0,1-1.23.59,153.67,153.67,0,0,1-29.9,10.35,125.51,125.51,0,0,1-27.34,3.36,139.7,139.7,0,0,1-36.94-2.83,158,158,0,0,1-36-12.64,136.9,136.9,0,0,1-23.88-14.92,154.9,154.9,0,0,1-19.06-17.6c-2-2.16-3.69-4.13-5.21-5.82s-2.66-3.3-3.72-4.66c-.55-.67-1.26-1.6-2.06-2.7L26.89,234c-1-1.32-1.89-2.76-2.83-4.14-.46-.7-.92-1.39-1.37-2.05s-.81-1.36-1.19-2l.85,1.2c-.51-.85-1.26-2.12-2-3.4s-1.52-2.54-1.95-3.43c-.93-1.75-.66-1.32-.4-.9.52.84,1,1.67-.55-1.39a149.27,149.27,0,0,1-9.9-23.28,141.46,141.46,0,0,1-5.67-24.63c-.07-.52-.16-1.09-.33-2.2L1.3,165.9c-.07-.62-.11-1.23-.16-1.85l-.31-3.7c-.14-1.48-.13-1-.23-2a2.35,2.35,0,0,1,0-.44c0-.3,0-.69-.06-1.14,0-1-.1-2.16-.15-3.29-.11-2.29-.16-4.27-.19-3,0,.49,0,4.34.26,8.87.18,2.26.31,4.69.53,6.95s.52,4.35.72,6-.29-2-.5-3.43c.27,2.1.43,3.71.61,4.87s.32,1.89.38,2.27c.11.74,0,0-.34-1.7.33,2,.67,3.91.67,3.91-.1-.48-.39-1.94-.39-1.94a162.3,162.3,0,0,0,8.76,32.1,146.64,146.64,0,0,0,15.34,29.26l2.18,3.19c.85,1.15,1.79,2.35,2.72,3.57,1.82,2.48,3.93,4.81,5.55,6.73.79,1,2.15,2.45,3.44,3.9s2.54,2.89,3.27,3.59A21.67,21.67,0,0,0,47,261.35c2.78,2.72,6.49,6.12,10.65,9.47.52.42,1,.86,1.56,1.27l1.64,1.22,3.28,2.44c2.21,1.59,4.49,3,6.63,4.46s4.3,2.55,6.21,3.66,3.72,1.91,5.18,2.64c.73.35,1.39.68,2,.93s1.1.44,1.5.58c.81.29,1.23.38,1.16.22L90.63,290,94,291.31c2.07.79,3.84,1.47,5.69,2s3.66,1.17,5.84,1.78l3.57,1c1.3.34,2.7.78,4.3,1.11a146.38,146.38,0,0,0,28.42,4.05,149.37,149.37,0,0,0,31.84-2,154.52,154.52,0,0,0,33.06-9.61l1.48-.6,1.43-.66,2.83-1.31c.93-.43,1.87-.84,2.77-1.29l2.64-1.39a153.54,153.54,0,0,0,46.78-37.54,151.79,151.79,0,0,0,35.45-103.23,146.78,146.78,0,0,0-14-57.34,151.52,151.52,0,0,0-38.42-50,153.49,153.49,0,0,0-26.09-18,150.68,150.68,0,0,0-29-12A152.33,152.33,0,0,0,132.17,1a149.17,149.17,0,0,0-54.1,16.94A150.72,150.72,0,0,0,38.18,49.44a159.11,159.11,0,0,0-13.77,18,161,161,0,0,0-10,17.87A154.59,154.59,0,0,0,3.67,116.89,146.93,146.93,0,0,0,.46,138.47C.1,142.47.09,146.48,0,150.49Z"/></g><path class="cls-3" d="M101.26,75.05c-.81.81-1.8,1.17-4.05,1.35A75.75,75.75,0,0,1,86.86,91.34c25.11,4.77,14.76,23.85,4.59,16-.54-4.41-2.61-9.09-4.68-13v38.25c0,.72-4,3.69-10.17,3.69H74.26v-33a78.91,78.91,0,0,1-12.42,8l-.72-.72c10.62-10.26,19.35-25,23-37.17H63.73l-.81-2.52H83.71l6.66-6.39ZM71.38,51.2c27,3.69,14.31,23.58,3.69,14.67-.27-5.13-2.34-10.44-4.32-14.31Zm65.16,68.58s7.38,6.39,11.61,10.53c-.27,1-1.26,1.44-2.61,1.44H92.62l-.72-2.52h21.51V86.66H98.29l-.72-2.52h15.84V52l16.83,1.53c-.18,1.35-.81,2.25-3.33,2.61v28h2.88l6.12-8.73s6.93,5.94,10.89,9.81c-.27,1-1.26,1.44-2.61,1.44H126.91v42.57H130Z"/><path class="cls-3" d="M205.21,55.7c-.36,1.17-1.44,1.8-4.77,2.16,8.46,7.29,25.83,10.53,37.71,11.34v1.44c-5.22,1.8-8.46,7.65-9.09,12.6-1.26-.45-2.43-.9-3.69-1.44l2.43,1.8a3.93,3.93,0,0,1-2,1.08v16.56c-.09.72-5.85,2.88-9.54,2.88h-2.07v-2.34H176V102c0,.36-.45,1-1.35,1.71l9.9,3.78h21.06l5.31-5.4,10.53,7.74a3.68,3.68,0,0,1-2.07,1.17v21.87c-.09.9-6.21,3.78-10.71,3.78h-2.34v-5H183.88v1.44c0,1.17-5.67,4-11,4h-1.8V105.47a16.44,16.44,0,0,1-4.5.63h-2.07V82.16a107.17,107.17,0,0,1-11.07,3.78L153,85c15.3-8.19,30.69-23.67,34-33.93Zm12.06,22c-7.83-4.68-14.4-11-18.09-18.81-5.58,7.29-16.2,14.76-27.9,20.34l5.85,2.16h36.45ZM176,99.26h13.59V83.87H176Zm2-14.58c18.09,5.67,7.65,18.54,1,11.61A23.74,23.74,0,0,0,177,85Zm23.22-17s5.58,4.41,8.91,7.56c-.27,1-1.17,1.44-2.43,1.44H182.89l-.72-2.52h14ZM183.88,110v8.37h22.41V110Zm22.41,19.17v-8.28H183.88v8.28Zm7.92-45.27h-14V99.26h1.53a143.14,143.14,0,0,0,2.79-14.58l9.63,3.06Zm0,15.39V90.17h-.63a89.5,89.5,0,0,1-9.27,9.09Z"/><path class="cls-3" d="M77.86,192.7v49.5c0,1.53-4.59,4.59-10.17,4.59H65.62V162.73L78.22,168H88.84l5.22-5.58,10.71,8a5.18,5.18,0,0,1-3.24,1.71v24.57c-.09.63-5.94,2.7-9.72,2.7H89.74V192.7Zm0-22.14V179H89.74v-8.46Zm11.88,19.62v-8.64H77.86v8.64ZM123,229.6c-.09.81-5.94,3.24-10,3.24H110.8v-5.4H97.12v3.69c0,1.08-5.31,3.69-10.26,3.69H85.15v-33.3l12.33,4.77H109.9l5.4-5.67,10.89,8.19a5.66,5.66,0,0,1-3.24,1.71Zm-12.15-4.68V208.81H97.12v16.11Zm36.09-54.27a6.09,6.09,0,0,1-3.51,1.89v60.75c0,7.92-1.8,11.88-14.49,12.87-.18-3.61-.54-6.3-1.62-7.83s-2.43-2.79-6.3-3.51v-1.17s6.66.45,8.28.45c1.35,0,1.62-.72,1.62-1.71V192.7H118.81v2c0,1.08-5.13,3.69-10.08,3.69H107v-35.1L119.26,168H130l5.58-6.39Zm-28.08-.09V179h12.06v-8.46Zm12.06,19.62v-8.64H118.81v8.64Z"/><path class="cls-3" d="M181.9,233c5.4,1,12,1.26,20.07,1.26s27.9,0,36.54-.18v1c-4.32,1.08-6.39,5.31-6.57,9.81H201.7c-19.17,0-30-3.24-36.54-16-2.34,6.93-6,13.32-12.06,18l-.72-1c4.77-9.53,5.76-24.11,5.13-35.09l12.69,1v-6.57H152.92l-.72-2.52h31.32l3.6-4.68a26.75,26.75,0,0,1-4.41.54h-2.07v-4.23H169.3v2.34c0,1.08-5.13,3.69-10,3.69H157.6V162.82l12.15,4.68h9.9l5.4-6,8.46,6.39h30.24l5.31-6.84s5.94,4.68,9.54,7.92c-.27,1-1.17,1.44-2.43,1.44H220.6a88.49,88.49,0,0,1-6.21,8.19H219L224.2,173l10.53,8a4.72,4.72,0,0,1-2.79,1.44v32.85c-.09.72-6,3.06-10.08,3.06h-2.07v-2.7h-10v.63c0,.54-.9,1.26-2.25,2L217.81,223c-.63,1.08-2.07,1.71-5,1.44-4.77,4.05-13.23,7.11-22.77,8.46l-.36-1a36.24,36.24,0,0,0,11.79-11.88,10.33,10.33,0,0,1-1.71.09H198V204.94a3,3,0,0,1-1.35.27H181.9v12.6h.9l4.95-7.47s5.67,5.13,8.73,8.55c-.18,1-1.17,1.44-2.34,1.44H181.9Zm-11.7-19.17a4.33,4.33,0,0,1-2.07.63,72.47,72.47,0,0,1-1.8,10.44,24.48,24.48,0,0,0,3.87,3.6ZM169.3,170v9.72h11.34V170Zm11.34,21.78v-9.54H169.3v9.54Zm12,4c0,.27-.63.63-1.62,1,1.8,1.53,4.68,3.87,7,5.94V173.71l10,4c.18-2.25.36-5,.36-7.29H196.21a7,7,0,0,1-3.6,1.8Zm17.19-14.76v9h10v-9Zm10,11.52h-10v9h10Zm0,20.52v-9h-10v9Zm-4.23,5c36.54,1.71,17.73,21.51,10.17,12.06-1.35-3.51-4.41-7.83-10.62-11Z"/></g></svg>