<svg id="圖層_1" data-name="圖層 1" xmlns="http://www.w3.org/2000/svg" viewBox="0 0 122.72 121"><defs><style>.cls-1{fill:none;stroke:#bdc9fb;stroke-miterlimit:10;}.cls-2{opacity:0.8;}.cls-3{fill:#c4cffb;}</style></defs><title>禁菸</title><path class="cls-1" d="M21.2,98.31C29.66,92.82,37,83.82,40.37,76.8l14,8.19c-.45.9-1.35,1.44-3.42,1.08-6.66,5.94-17.37,11-29.16,13.14Zm.27-41.49c6-6.39,10.26-15.66,12.69-24.66h-11l-.72-2.52H37.94V16.86l15.48,1.35c-.18,1.26-.81,2.16-3.33,2.52v8.19l4.23-5.76s5.31,4.41,8.46,7.47l-.27-1H73.58V17l14.94,1.26c-.18,1.26-.9,2.16-3.33,2.61v8.82h2.34l5.58-7.2s6.21,4.86,10,8.28c-.27,1-1.17,1.44-2.52,1.44H85.19v2.07c26.55,5.31,19.89,25.11,8.91,19.08-1.89-4.68-5.4-9.81-8.91-14.22V53.67c0,.36-.81.81-2.07,1.35,2.43,1.89,6.21,4.77,8.91,7-.18,1-1.26,1.44-2.52,1.44h-52L36.77,61H74.39l3.78-4.68a25.43,25.43,0,0,1-2.61.18h-2V45.75a65.6,65.6,0,0,1-18.9,11.16l-.72-1c7.56-6,12.78-14.67,15.66-23.76H63.23l-.36-1.35a2.32,2.32,0,0,1-2.43,1.35H50.09v2.7c20.16,3.51,11,18.72,3.15,12.15a24.13,24.13,0,0,0-3.15-9.9V55.74c0,.9-5.31,2.88-10,2.88H37.94V46.92a64.17,64.17,0,0,1-15.66,11Zm70.11,7.92s7.38,5.4,11.88,9.18c-.18,1-1.26,1.44-2.52,1.44H69.8V99.84c-.09.45-4,2.34-11,2.34H56.3V75.36H24.53l-.72-2.52H85ZM73.67,79.32C109,79.23,104.36,104,91,98.94,86.9,92.28,79.16,84.63,73,80Z"/><g class="cls-2"><path class="cls-3" d="M61,120.67a60.31,60.31,0,0,0,12-1.22,61.86,61.86,0,0,0,7.94-2.3,60.43,60.43,0,0,0,8.2-3.75,65.09,65.09,0,0,0,7.71-5.1,62.9,62.9,0,0,0,6.63-6,63.64,63.64,0,0,0,5.23-6.17,66.59,66.59,0,0,0,3.72-5.6,64.07,64.07,0,0,0,5.73-12.84c.41-1.4.23-.45-.64,2a58.05,58.05,0,0,1-5.09,10.83,61.62,61.62,0,0,1-10,12.9A66.62,66.62,0,0,0,110,94.93a71,71,0,0,0,5.26-8.12,61.37,61.37,0,0,0,4.23-11.59,60.33,60.33,0,0,0-10.74-51.66,59.53,59.53,0,0,0-9.66-9.92A64.29,64.29,0,0,0,87.62,6.19a60.38,60.38,0,0,1,32.71,67.57c.2-.71.32-1.43.49-2.13A60.21,60.21,0,0,0,114,30.36a71.9,71.9,0,0,0-4-6.2,61.47,61.47,0,0,1,4,6.2,60.78,60.78,0,0,1,4.17,8.54,59.86,59.86,0,0,1,2.89,9.5,61.16,61.16,0,0,1,1,13.36,50.08,50.08,0,0,1-1.31,9.87l-.31,1.56-.37,1.55c-.24,1-.54,2-.85,3.06-.15.59-.31,1.24-.54,1.88l0-.08a45.16,45.16,0,0,0,3.15-11.16,58.94,58.94,0,0,0-8.64-41.52,56.91,56.91,0,0,0-8.86-10.69,51.81,51.81,0,0,0-8.5-6.35,78,78,0,0,0-9.93-5A44.52,44.52,0,0,0,79.5,2.47c-.2,0-1.21-.2-2.2-.41A52.66,52.66,0,0,0,62.91.1c-1.41,0-4.09-.17-6.5-.07L54.68.09,53.2.22a10.12,10.12,0,0,0-1.62.22,6,6,0,0,1-1.89.62,32.89,32.89,0,0,0-5.18,1.17c-.79.2-3.23,1.19-4.74,1.75A49,49,0,0,0,34,6.56a64.05,64.05,0,0,0-6,3.54,71.88,71.88,0,0,0-8,6.19,51.31,51.31,0,0,0-6.37,6.86,60.65,60.65,0,0,0-4.19,6C7.71,32,6.34,34.89,6.34,34.89A56.66,56.66,0,0,0,2,47,110.34,110.34,0,0,0,0,58.1,85.49,85.49,0,0,0,1.26,73.27a53.75,53.75,0,0,0,5,14.86A80.24,80.24,0,0,0,12.4,98a52.23,52.23,0,0,0,7.11,8c.91.81,1.76,1.46,2.48,2.06s1.41,1,2,1.49,1.61,1.07,2.74,1.79,2.43,1.41,3.5,2l-.59-.18c.73.37,2.13,1.17,2.87,1.5s.53.29.33.24c-.39-.12-.8-.22.48.4A61.54,61.54,0,0,0,43,118.85a72.11,72.11,0,0,0,10.1,1.86l.9.06c1,.14,2,.15,3,.23.6,0,.4,0,.8,0,0-.07,4.18,0,3.18-.15-.2,0-1.74,0-3.55-.14-.91-.08-1.88-.15-2.78-.25l-2.38-.34c-.59-.09.79.06,1.38.11a22.51,22.51,0,0,1-2.84-.47c-.29-.07,0,0,.69.09L50,119.51l.78.1a50.94,50.94,0,0,1-12.48-4.18,61.47,61.47,0,0,1-10.87-6.91c-1.4-1-3.6-2.93-5-4.23a34.36,34.36,0,0,1-2.59-2.86c-1-.91-1-.61-1.55-.91a73,73,0,0,1-6.47-9.67C9.84,87.46,8.56,84.63,8.21,85l-.66-1.5L7,82.24c-.34-.78-.66-1.44-.93-2.12a33.22,33.22,0,0,1-1.8-5.19A60.61,60.61,0,0,1,2.9,51.54,57.61,57.61,0,0,1,6.24,38.46c.27-.79.64-1.53.94-2.29s.65-1.46,1-2.16A56.91,56.91,0,0,1,42,4.61,58.52,58.52,0,0,1,63.68,2,63.17,63.17,0,0,1,86,7.68a58.43,58.43,0,0,1,19.73,14.8,57.57,57.57,0,0,1,11.81,21.59,59,59,0,0,1-4.83,44.78,63.46,63.46,0,0,1-12.16,15.75,64.46,64.46,0,0,1-6.92,5.61,63.88,63.88,0,0,1-6.92,4.17A58.52,58.52,0,0,1,74.35,119a53.87,53.87,0,0,1-8.58,1.41C64.18,120.58,62.58,120.61,61,120.67Z"/></g></svg>