<svg xmlns="http://www.w3.org/2000/svg" viewBox="0 0 300.18 391.55"><defs><style>.cls-1{opacity:0.8;}.cls-2{fill:#c4cffb;}.cls-3,.cls-4{fill:none;stroke:#bdc9fb;stroke-miterlimit:10;}.cls-3{stroke-width:2px;}.cls-5{fill:#f687a8;}</style></defs><title>美國利斧</title><g id="圖層_2" data-name="圖層 2"><g class="cls-1"><path class="cls-2" d="M150.16,0a162.94,162.94,0,0,1,30.08,3.07l4.81,1.11,2.47.57,2.49.7c1.67.48,3.37,1,5.08,1.46l5.14,1.75A153.29,153.29,0,0,1,221,17.84,159,159,0,0,1,240.6,30.42a155.59,155.59,0,0,1,16.89,14.93l3.7,3.89c1.16,1.33,2.29,2.65,3.41,3.94s2.18,2.6,3.19,3.9,2,2.55,3,3.83l2.68,3.77c.43.62.87,1.21,1.27,1.83s.79,1.22,1.17,1.82l2.23,3.48c.71,1.12,1.32,2.26,1.94,3.33,2,3.26,3.53,6.49,5.07,9.48.74,1.51,1.38,3,2,4.45s1.3,2.82,1.81,4.2c1.06,2.75,2.14,5.28,2.89,7.71s1.62,4.64,2.16,6.75c.5,1.77.58,2.07.32,1.14s-.81-3.11-1.91-6.2a146.24,146.24,0,0,0-12.38-27.53,149.17,149.17,0,0,0-25.32-32.53,150.1,150.1,0,0,1,18.61,22,143,143,0,0,1,12,21,146.78,146.78,0,0,1,10.2,28.93,151.26,151.26,0,0,1,4.11,33.71,147.29,147.29,0,0,1-32.18,93.5,152.52,152.52,0,0,1-24,24l-3.82,2.95c-1.26,1-2.6,1.84-3.87,2.75-2.54,1.85-5.17,3.41-7.62,5-1.21.8-2.48,1.44-3.66,2.11l-3.43,1.91c-2.24,1.14-4.29,2.12-6.06,3a149.15,149.15,0,0,0,69-68.28,149.51,149.51,0,0,0,12.12-96.67c.42,1.75.64,3.53.94,5.27a149.91,149.91,0,0,1,2.15,26,153.11,153.11,0,0,1-2.46,25.92,143.6,143.6,0,0,1-6.89,25,148.15,148.15,0,0,1-11.22,23.38,139.78,139.78,0,0,1-10,14.84,151.64,151.64,0,0,0,10-14.84,136.1,136.1,0,0,0,10-20.7,154,154,0,0,0,6.89-23A148,148,0,0,0,299,148a146,146,0,0,0-1.91-24.27l-.66-3.84-.85-3.81c-.3-1.27-.54-2.55-.88-3.81l-1-3.76c-.42-1.46-.84-3-1.41-4.6,0,0,.05.16.06.2.12.38.26.88.44,1.48s.34,1.33.55,2.14c.4,1.63,1,3.63,1.51,6a150.55,150.55,0,0,1,3,18.09,147.68,147.68,0,0,1-12.45,76.37,142.74,142.74,0,0,1-12.26,21.72,145.57,145.57,0,0,1-12.34,15.79c-.94,1-1.8,2-2.64,2.93l-2.41,2.47-2,2.07c-.61.62-1.18,1.13-1.66,1.6A172.62,172.62,0,0,1,233,271a129,129,0,0,1-22.87,13.41c-2.86,1.38-5.66,2.3-8.22,3.28-1.27.51-2.55.88-3.76,1.3s-2.39.85-3.53,1.3a34,34,0,0,1-5,1.9l-2.29.65c-.77.21-1.54.36-2.32.54l-4.61,1c-1.54.3-3.08.52-4.59.77s-3,.53-4.51.66c-3,.3-5.84.74-8.6.89q-2.07.17-4,.36c-1.3.16-2.57.17-3.79.29a43,43,0,0,1-7-.25l-4.3-.5c-1.47-.16-2.93-.5-4.36-.74l-4.09-.76-3.46-.79a18.79,18.79,0,0,0-3.83-.62c-2.75.48-3.15.54-4.8.12-.82-.23-2-.5-3.86-1.09-1-.28-2.08-.61-3.47-1-.69-.19-1.45-.36-2.27-.6l-2.65-.79c-.46-.14-1.2-.31-2.11-.5s-2-.37-3.09-.67a60.43,60.43,0,0,1-6.53-1.91c-6-2.54-9.93-4.23-14-6.1l-3.14-1.47-1.66-.78L78.51,278l-3.85-2.06c-1.38-.76-2.82-1.69-4.44-2.66-2.44-1.39-4.48-2.89-6.41-4.19s-3.56-2.64-5.12-3.82c-.78-.61-1.53-1.18-2.24-1.77l-2-1.75c-1.3-1.16-2.58-2.2-3.76-3.34-2.35-2.27-4.71-4.42-7.22-7l-2-2c-.68-.69-1.35-1.44-2.07-2.2-1.43-1.53-3.06-3.13-4.68-5A135.64,135.64,0,0,1,24,227.88c-1.15-1.69-2.14-3.46-3.15-5.06-.48-.82-1-1.58-1.39-2.34s-.8-1.47-1.16-2.13c-.72-1.31-1.31-2.4-1.72-3.17S16,214,16,214A157.35,157.35,0,0,1,5.26,184.24a121.65,121.65,0,0,1-3.55-27.33,135.75,135.75,0,0,1,2.47-37.07A155.21,155.21,0,0,1,16.62,83.61,141.47,141.47,0,0,1,31.54,59.53,149.91,149.91,0,0,1,49.17,40.26c2.18-2,4.18-3.69,5.89-5.21l4.7-3.73c.68-.55,1.62-1.26,2.74-2.05l3.7-2.7c1.34-.94,2.8-1.86,4.2-2.79l2.07-1.35c.69-.43,1.37-.81,2-1.19l-1.24.8,3.43-2c1.29-.75,2.57-1.5,3.47-1.94,1.76-.91,1.33-.66.9-.42-.87.49-1.72,1,1.37-.6A149.6,149.6,0,0,1,105.9,7.38a147.54,147.54,0,0,1,24.76-5.52l2.19-.32,1.85-.25c.62-.06,1.24-.1,1.86-.15l3.71-.3c1.48-.14,1-.14,2-.23a12.86,12.86,0,0,1,1.58-.12l3.3-.14c2.3-.11,4.28-.17,3-.19-.49,0-4.36,0-8.89.25-2.27.18-4.71.32-7,.54l-6,.74c-1.49.17,2-.29,3.44-.51-2.1.28-3.72.45-4.88.64l-2.27.39c-.74.12,0,0,1.7-.35l-3.92.7,2-.39a151.38,151.38,0,0,0-32,9.2,147.35,147.35,0,0,0-28.81,16l-3.12,2.23-3.5,2.75c-2.44,1.84-4.74,4-6.63,5.58-1,.79-2.39,2.18-3.79,3.51S43.71,44,43,44.74c-2.39,2.55-2,2.21-3,3.31-2.63,2.83-5.92,6.58-9.15,10.78-.4.52-.83,1-1.23,1.58l-1.17,1.64-2.35,3.29c-1.54,2.22-2.93,4.5-4.32,6.63l-3.57,6.17c-1,1.93-1.89,3.68-2.64,5.11s-1.27,2.61-1.6,3.39a5.53,5.53,0,0,0-.43,1L11.8,91.55l-1.3,3.31c-.8,2-1.51,3.78-2.08,5.6s-1.25,3.6-1.89,5.76l-1,3.53C5.19,111,4.73,112.42,4.4,114A147.11,147.11,0,0,0,.21,142.25,150,150,0,0,0,1.9,174a152.45,152.45,0,0,0,9.28,33.08c.2.49.39,1,.58,1.48s.44,1,.65,1.44l1.28,2.83c.43.94.83,1.88,1.27,2.78s.92,1.78,1.36,2.65a149.9,149.9,0,0,0,247.77,29.58,151.89,151.89,0,0,0,18-26,150.26,150.26,0,0,0,12-28.93,151.84,151.84,0,0,0,5.16-60.23,149.42,149.42,0,0,0-17-53.87A153.5,153.5,0,0,0,250.94,38.9,159.71,159.71,0,0,0,233.08,25l-4.49-2.88c-1.48-.93-3-1.75-4.48-2.62l-2.2-1.27c-.74-.4-1.49-.77-2.22-1.15l-4.36-2.24a152.4,152.4,0,0,0-31.51-11A143.18,143.18,0,0,0,162.21.49C158.2.11,154.18.1,150.16,0Z"/></g><path class="cls-3" d="M229.5,149.73s20,15,32,25.15c-.71,2.58-3.29,3.76-6.82,3.76H166.05c-7.76,33.84-29.61,57.57-118.91,70.73L46,246.08c57.81-18.56,75.91-39.71,82-67.44H56.07l-1.88-6.58h75a213.19,213.19,0,0,0,2.12-28.44L178,146.68c-.47,3.29-2.82,5.87-8.22,6.58-.71,6.58-1.41,12.92-2.59,18.8h44.65Zm-95.88-14.8V106.49H72.52l-1.88-6.58h63V73.36H60.3l-1.88-6.58h52.87a28.15,28.15,0,0,1-4.93-3.06C105.42,50.56,99.07,36.93,92,28.24l1.65-1.18c52.4,1.88,51.46,31.49,35.72,39.72h37.36c4.23-12.22,8-28.91,10.11-40.42l43.94,8.69c-.94,3.06-3.29,5.17-8.93,5.17-8.93,8-23.5,18.33-37.13,26.56h33.61l16.92-21.39s19.27,14.34,30.78,24.21c-.7,2.58-3.29,3.76-6.81,3.76H171V99.91h24.44l16-19.74s18.1,13.16,29.14,22.56c-.7,2.59-3.29,3.76-6.58,3.76H171v28.44h40.89l17.39-22.8s19.74,15.28,31.26,25.62c-.47,2.58-3.29,3.76-6.58,3.76H49.49l-1.88-6.58Zm36.66,51c110.21,1.88,101.75,71.91,64.39,60.16-15.28-20.68-43.48-44.65-66-58.28Z"/><g class="cls-1"><path class="cls-2" d="M129.46,340.71l1.86-1.7c.74-.67,1.72-1.31,2.72-2.08a32.51,32.51,0,0,1,7.72-3.64,31.53,31.53,0,0,1,8.91-1.26l2.08.1a18.5,18.5,0,0,1,1.93.24A23.58,23.58,0,0,1,158,333a14.56,14.56,0,0,1,2,.63c.62.23,1.23.4,1.75.65,1,.51,2,.87,2.71,1.32s.24.07-.92-.48c-.59-.27-1.35-.66-2.28-1.05l-1.54-.54A13.19,13.19,0,0,0,158,333l-1.74-.42c-.6-.14-1.25-.2-1.92-.31l-1-.14c-.35,0-.71,0-1.08-.07-.73,0-1.49-.11-2.28-.07a28.52,28.52,0,0,1,10.23,1.77c.47.17,1,.32,1.41.51l1.36.64a14.28,14.28,0,0,1,1.36.67l1.32.78a29.15,29.15,0,0,1,9.46,9.22,29.48,29.48,0,0,1,4.4,12.36,26.14,26.14,0,0,1,.2,3,13.86,13.86,0,0,1,0,1.81c0,.62,0,1.26-.13,1.89a27.43,27.43,0,0,1-.66,3.62l-.39,1.56c-.17.46-.32.89-.45,1.25A28.91,28.91,0,0,0,178,352a28.32,28.32,0,0,0-4.63-8.56,31.23,31.23,0,0,0-7.18-6.58,7.79,7.79,0,0,1,.86.61A29.28,29.28,0,0,1,178.59,354c.13.56.27,1.13.4,1.7s.18,1.17.28,1.77c-.1-.59-.13-1.18-.27-1.75l-.41-1.72a30.16,30.16,0,0,0-3.76-8.46c-.6-.83-1.22-1.73-1.89-2.6s-1.43-1.66-2.17-2.37L169,338.88c-.61-.5-1.25-1-1.89-1.44l-.61-.46-.66-.39-1.32-.79a7.34,7.34,0,0,0-.84-.45l0,0c.29.12.86.51,1.68,1,.4.26.9.51,1.38.88l1.58,1.19a30.75,30.75,0,0,1,6.65,7.5,28.21,28.21,0,0,1,3.77,9.58,32.48,32.48,0,0,1,.57,6.44,28.54,28.54,0,0,1-1.81,10c-.43,1.18-1,2.1-1.35,3a5.79,5.79,0,0,1-.48.94l-1,1.61c-.35.51-.73,1-1.09,1.46a30.57,30.57,0,0,1-2.09,2.5,15.4,15.4,0,0,1-2.35,2l-.66.49-.6.38a3.84,3.84,0,0,0-.63.43,2.25,2.25,0,0,1-.67.66c-.27.21-.83.45-2.2,1.23-.18.09-.5.35-.9.56s-.85.44-1.2.6c-1.18.54-2,.77-2.82,1.08a22.8,22.8,0,0,1-3.17.94,23,23,0,0,1-4.8.58,16.27,16.27,0,0,1-2,0c-.71,0-1.52,0-2.5-.08l-1.23-.15-1.07-.13-1.16-.26a18.62,18.62,0,0,1-2.11-.52l-.93-.3a27.92,27.92,0,0,1-3.06-1.29,22.24,22.24,0,0,1-2.53-1.38,16.23,16.23,0,0,1-2.19-1.54,13.72,13.72,0,0,1-2-1.84,23.86,23.86,0,0,1-4.77-5.46l-1-1.67c-.15-.28-.32-.56-.46-.84l-.39-.87c-.25-.58-.5-1.14-.75-1.7s-.4-1.13-.58-1.68a18,18,0,0,1-.8-2.92,16,16,0,0,1-.33-2.44c0-.39-.08-.77-.09-1.16s0-.79,0-1.19,0-.83,0-1.28.09-.9.13-1.4.07-1.06.1-1.5.14-.8.22-1.13a12.5,12.5,0,0,0,.2-1.51,18.38,18.38,0,0,1,.39-1.83l.06.3c.12-.36.28-1.09.43-1.44s.15-.25.16-.15,0,.4.33-.19.57-1.45.93-2.16l1.1-2.13c.38-.7.76-1.39,1.13-2.09s.87-1.31,1.28-2a1.29,1.29,0,0,1,.11-.45,10.22,10.22,0,0,1,.84-1.12c.08-.3-.1-.34,0-.54-.32-.26.77-2,.18-2a12.4,12.4,0,0,0-1.29,1.23c-.31.32-.67.66-1,1s-.58.67-.81.9.09-.43.15-.77c-1,1.39-1.19,1.39-.88.74l-.5.64.09-.43a27.14,27.14,0,0,0-1.91,2.81c-.63,1-1.09,2.05-1.63,3.09s-.86,2.18-1.18,3.28a25.27,25.27,0,0,0-.67,3.29,23.46,23.46,0,0,0-.17,3.5c0,.51-.13,1.64-.11,2.05.15.72.29.61.43.91a20.57,20.57,0,0,0,.16,2.88c.07.53.14,1.08.21,1.63s.24,1.07.35,1.57l.36,1.42c.14.42.3.79.43,1.09.26.61.45.95.53.86.11.3.2.57.29.81s.22.45.32.65c.21.38.39.72.57,1.06s.36.68.6,1.07.53.82.87,1.38a30.77,30.77,0,0,0,14.24,12.11c.78.34,1.58.56,2.31.83a30,30,0,0,0,22.61-1.68,29.67,29.67,0,0,0,8.76-6.68,28.85,28.85,0,0,0,5.94-10.08,29.9,29.9,0,0,0-9.67-33.31,29.59,29.59,0,0,0-9.89-5.15,30,30,0,0,0-9.92-1.15,18.42,18.42,0,0,0-2.27.2c-.74.12-1.46.2-2.15.34a31.89,31.89,0,0,0-3.88,1.1,29.39,29.39,0,0,0-9.36,5.43Z"/></g><path class="cls-4" d="M155.74,345.84c19.54,3.7,15.63,17.34,8.89,13.29a28.36,28.36,0,0,0-2.42-4.79c-6.25,1.49-15.36,3.25-26.62,5.15a3.88,3.88,0,0,1-1.67,1.1l-1.85-7.22a9.25,9.25,0,0,0,2-.62c4.18-1.93,10.56-9.37,12.41-13.64l8.67,3.26c-.17.48-.7.88-1.72.83-3.43,3.44-9.81,7.57-15.44,10.17,5.76,0,14.34-.13,23.32-.35a45,45,0,0,0-5.94-6.87Zm5.15,13.65,6.29,4.84a3.29,3.29,0,0,1-2,1.1v13.86c-.09.31-3.43,1.41-5.63,1.41h-1.15v-3.88h-15v2c0,.66-3,2.16-5.77,2.16h-1V360.23l7.09,2.69h14.13Zm-2.51,16.1V364.15h-15v11.44Z"/><path class="cls-5" d="M150.6,300.5l.4,8,.3,8c.09,2.67.35,5.34.2,8a51.7,51.7,0,0,1-.9,8,.1.1,0,0,1-.12.08.11.11,0,0,1-.08-.08,51.7,51.7,0,0,1-.9-8c-.15-2.66.11-5.33.2-8l.3-8,.4-8a.1.1,0,0,1,.11-.09A.09.09,0,0,1,150.6,300.5Z"/><path class="cls-5" d="M146.74,300.5a3.76,3.76,0,1,1,3.76,3.76A3.76,3.76,0,0,1,146.74,300.5Z"/><path class="cls-5" d="M150.5,344.57c-2.11-5.68-5.7-12.72-9.51-17.09l9.51,3.44,9.51-3.44C156.2,331.85,152.61,338.89,150.5,344.57Z"/></g></svg>