<svg xmlns="http://www.w3.org/2000/svg" viewBox="0 0 350 284.72"><defs><style>.cls-1{fill:#838cbc;}.cls-2{fill:#d1dafa;}</style></defs><title>警示圖文_兒童</title><g id="圖層_3" data-name="圖層 3"><path class="cls-1" d="M247.63,0l1.51.79-.41.85A43.32,43.32,0,0,1,241.87,3a43.32,43.32,0,0,1-9.8-.46C224.23,1,216.72,1.14,209.32,4.64c-1.92.92-4.59.2-6.62,1-2.66,1-5,2.8-7.51,4.29a16.93,16.93,0,0,1-3.05,1.93,3.41,3.41,0,0,1-2.82-.28c-5.66-4.92-9-4.6-13.36,1.49-.22.31-.41.64-.65.93-2.41,3-2.79,2.95-5.16,0a15.88,15.88,0,0,0-4.47-4.19c-4.74-2.57-8.3.31-11.73,3.16a12.91,12.91,0,0,0-1.58,1.64c-1.67,2-3,1.15-4-.61-2.93-5.07-8.16-6.18-12.47-2.23a17.48,17.48,0,0,0-4.05,6.08c-1.3,3.11.62,7.19,3.89,8,3.87.91,7.91,1.1,11.88,1.61l.15-.89-3.48-3.71-2.23,1.1c.43-1.26,1.18-2.43,1.1-3.53-.08-1.26-.9-2.46-1.43-3.77-.82,0-1.57.1-2.32.12a3.08,3.08,0,0,1-2.25-.64l4.31-.95-1.57-3.49c2.77-1,2.94,1,3.08,2.86l3,.63-2.6,1.36,1.05,3.27,1-2.44c1.39-.34,2,.89,1.18,2.28-.34.57-.72,1.11-1.32,2l2.3,1.86,1.91-1.76a3.47,3.47,0,0,1,.4,1c0,2.84,1.09,4.53,4.25,4.27a4.6,4.6,0,0,1,1.93.44c4.91,2,9.4,1.21,13.23-2.37,2.2-2.06,3.87-1.8,5.79.27A19.55,19.55,0,0,0,179,28.57c3.32,2.06,6.51,1.67,9.69-.63,2.64-1.92,5.31-1.92,8.11.22,3.41,2.6,7.52,2.23,11.54,2,3-.16,6-.21,9.05-.22,9.13,0,18.27-.19,27.38.14,3.31.13,7.29-.25,9.27,3.8.24.5,1.33.59,2,.88a7.51,7.51,0,0,1,2.87,1.78l-3.79.73v.45c1.1,0,2.2-.06,3.29,0a22.41,22.41,0,0,1,3.66.52c1.16.28,2.27.79,4,1.42l-4.86,1.39,8.48,4.74-14.15-3.06-.08.46c3.58,1.39,7.16,2.75,10.7,4.22A4.67,4.67,0,0,1,268,49.08c.16.22-.35.91-.47,1.2l3,6.43c-2.84-.91-5-1.75-7.19-2.26-1.17-.27-1.41-3.52-3.55-1-.83,1-2.45,1.36-3.78,1.86a8.27,8.27,0,0,1-3.08.66c-1.3,0-2.77-1-3.84-.59-3.84,1.37-6.54-1-9.71-2.2a50.83,50.83,0,0,0-11.46-3.07c-3.92-.52-8-.18-12-.12-5.12.08-9.52,2.41-13.95,4.64-.58.3-1.43.91-1.77.71-3.53-2-4.68.4-5.69,3.61-7.63-7-15.57-12.41-27.1-11.25,1.4,1.17,2.1,2.1,3,2.48,3.67,1.5,7.5,2.62,11.08,4.29a22,22,0,0,1,5.65,4.12,43.27,43.27,0,0,1,5.16,6c1.38,1.91,2.47,3.87,1.41,6.6-1,2.41-.82,5.12,1.45,7.07,9.76,8.41,15,19.72,20,31.17a21,21,0,0,0,1.44,3.43c1-3.85,0-7.4-1.23-11-2.76-7.79-8-14-13-20.35-2.5-3.19-3.29-6.92-4.22-10.59,5.72-.7,8.87,2.93,12.42,6.09a178.4,178.4,0,0,0,15.65,12.78c3.15,2.2,7.2,3.06,10.72,4.78,2.14,1.06,3.93,2.81,6.06,3.9,4.86,2.49,9.78,4.89,14.78,7.06,1.8.78,3.92.7,4.82,3,.2.49,1.4.59,2.25.9a13,13,0,0,0,6.32,11c-.19,3.64-3,6.63-.93,10.35.41.73-.15,2.58-.87,3.23-1.55,1.39-1.26,2.48,0,3.53,1.53,1.26,1.43,2.47.84,4.26a56.55,56.55,0,0,0-1.46,7.65c5.37-4.26,12.49-2.78,18.64-5.22.92,3.64,0,5.19-3.05,5.62-3.38.48-5.51,4.78-3.81,7.87a2,2,0,0,0,1.5.94,1.69,1.69,0,0,0,1.09-1.3c-.15-3.76,3.61-3.78,5.46-5.51,1-1,2.37.24,2.28,2.06-.27,4.86-3.5,8-8.44,8.19-.17,0-.33.16-.5.24a5,5,0,0,1-6.45,4.8c-4.64-1.6-8.76-.81-12.15,2.43-1.68,1.6-2.49,4.11-3.55,6l-4.41.32-.43-5.35-1-.48c-2,4.31-5.88,5.13-9.74,6.07a8.28,8.28,0,0,0-2.23,1.26c-1.42.91-3,2.83-4.17,2.59a21.36,21.36,0,0,1-8-3.39c-2.19-1.55-3.8-3.19-5.65-.29l-5.87-3.21c.87-1.29,1.59-2.48,2.42-3.58,2-2.64,1.76-4.27.2-7.43-.95-1.93-.94-4.33-1.42-6.51q-.93-4.31-2-8.61c-.13-.5-.5-1.35-.78-1.36-3.2-.1-3.15-2.88-4-4.81a26.06,26.06,0,0,1-1.8-5.39,5.34,5.34,0,0,1,.37-3.38c1.94-3.58,1.62-5.31-1.66-7.74-2.1-1.56-4.14-3.21-6.15-4.88a5.29,5.29,0,0,1-1-1.52,77,77,0,0,1-4.42-8,67,67,0,0,1-3.67-11.17c-1.21-5.49-2.49-10.77-6.09-15.4-1.84-2.36-2.53-5.61-3.6-8.14-1.17-1.37-2.16-2.63-3.28-3.77a6.68,6.68,0,0,0-2-1.4q-4.76-2.15-9.56-4.16c-1.76-.74-3.29-.78-3.93,1.85,3.39-.33,3.79,2.54,5,4.43.21.33-.58,1.4-1,2-.16.21-.75.24-1.1.15-5.49-1.4-7.86,2.61-10.33,6.15-2.36,3.37-5.13,6.07-9.13,7.43,2.68,3.15,5.4,6.24,8,9.41,2.81,3.41,5.51,6.92,8.29,10.36a10,10,0,0,0,2,1.9c1.82,1.24,3.87,2.21,5.55,3.61,4.22,3.52,8.29,7.21,12.41,10.84.35.31.82.62,1,1,.86,2.36,2.43,3,4.62,1.87.28.37.62.63.59.81-.72,3.67-1.37,7.37-2.33,11-.15.53-2,1.2-2.69.89-3.73-1.76-8.5-2.93-10.71-5.92-4.31-5.84-10-10.05-14.83-15.26a92.52,92.52,0,0,0-7.34-6.77,23.65,23.65,0,0,0-3.08-1.84c.2,1.24.31,1.91.46,2.86l-2.46-.47c-.14,2.17-.1,4.36-.44,6.48a6.61,6.61,0,0,0,6.5,7.71c1,2.87,1.87,5.65,3,8.32a5.38,5.38,0,0,0,2.33,2.58c1.93.94,4.14,1.29,6.07,2.21a12.25,12.25,0,0,1,3.72,2.88c1.6,1.82,2.77,3.85,5.18,5.05,2.88,1.43,3.49,5.7,1.48,8.25-1.26,1.59-1.67,4.18-4.44,4.34-.22,0-.63,1.18-.48,1.67a1.84,1.84,0,0,0,1.38,1.09,8.29,8.29,0,0,0,2.36-.75c.57,2.94,1.62,3.46,4.37,2.14a1.57,1.57,0,0,0,.25-.14c4.3-3.3,8.21-2.82,11.71,1.58l.6-.84a37,37,0,0,0-4.16-4.4c-2.38-1.83-4.1-3.8-3.76-7.14,4.45,3.08,5.15,2.93,7.54-2.14a51.59,51.59,0,0,0,3.38-8.54c.64-2.39,1.88-1.73,3.15-1.1a3.2,3.2,0,0,1,1.69,1.81c1.08,5.73,3.49,11.08,3.7,17.12.13,3.53.53,6.45-1.56,9.62-.94,1.43-.16,4-.16,6.35-3.13-.8-4.78-.12-4.68,3a1.85,1.85,0,0,1-1.2,1.3c-1.4.28-3,.73-4.28.32-2.42-.77-5.37-1.52-6.86-3.31-2.62-3.17-5.55-2-8.57-2-2.58,0-2.62,2-3.22,3.68a7.16,7.16,0,0,1-.93,1.25c-.49-3.62-3-4-5.59-4.39a47.73,47.73,0,0,1-6.37-1.56c-1.62-.49-3-1.34-4.64.29-1,1-3-.41-3.18-2a12.76,12.76,0,0,0-.91-2.47l3.44-2.32c2.79,1.59,5.43,3.25,8.24,4.57a3.71,3.71,0,0,0,3.08-.44c.42-.28.08-1.73.08-2.89,2.74.2,3.37-1.93,3.85-4.73-2.8.32-5.38.5-7.91.93a16.39,16.39,0,0,1-10-1.17c-.83-.39-2.2.19-3.25.55-.57.2-.94.93-1.49,1.29-2.64,1.69-2.73,2.92-.45,5.14a13.2,13.2,0,0,1,1.57,2.05c-1.89.86-3.2,1.55-4.58,2.06-4.81,1.77-8.85,5.65-14.25,5.69-2.37,0-4.73-1.08-7.12-1.56-1.52-.3-3.27-.93-4.6-.48a93.92,93.92,0,0,0-10.7,4.56c-1.53.74-2.94,1-3.66-.58-1.46-3.26-4-2.5-6.46-2.05-4,.75-7.95,1.63-11.92,2.45a1.59,1.59,0,0,1-.57,0c-4.56-1-9.12-1.93-13.68-2.88a9.8,9.8,0,0,0-2.22-.24c-2.21,0-4.62.72-6.6.08-2.75-.89-4.86-.11-7.45,1.73a47.27,47.27,0,0,0-.49-5c-.14-.69-.82-1.28-1.26-1.91-.47.51-1.24.95-1.36,1.53-.69,3.24-2.11,5.3-5.88,5.33-2.28,0-4.54,1-6.84,1.3-1,.12-2.06-.53-3.12-.65-.49,0-1,.34-2.17.77-.79-2.21-1.64-4.41-2.35-6.65-.47-1.5-1.28-2.26-2.68-1.31a7,7,0,0,0-2.32,2.67c-1.62,3.46-2.72,4.1-6.5,3.31-4.27-.89-4.3-.75-5.08,3.4a3.57,3.57,0,0,1-2.7,2c-4.17.21-8.36.07-12.55,0V171.57l12.21-2.66c-1.57-.51-4.62,1.77-5.11-1.93l7.06-4.54-7.1,2a67.88,67.88,0,0,1,23.78-7.5l.38,1.11-12.71,5,.15.49L30,161.05l.37,1.06-11.4,5,.28.9c4.28-1.16,8.56-2.37,12.86-3.45,1.74-.44,4-1.44,5.22-.76,2.84,1.59,4.91.23,6.89-1a16.7,16.7,0,0,0,5-4.77c.46-.69-.91-2.53-1.33-3.89a3.77,3.77,0,0,1,0-1.67c.33-2.06-.3-2.76-2.35-1.86a6.41,6.41,0,0,1-1.94.25l-11.29,1,1.34,1.7c-.6.27-1.1.53-1.62.71-10.15,3.47-20.79,5.61-30.09,11.35-.33.2-1.28-.59-1.94-.92V0ZM79.45,21.35l.12,1.15c-1.26.33-2.5.77-3.78,1-6.17,1-12.35,1.86-18.52,2.82a6.48,6.48,0,0,0-2.11.78c-2.78,1.59-5.51,3.28-8.29,4.87-2.35,1.34-4.92,2.36-7.08,4-2,1.48-3.57,3.54-5.36,5.37l4,.53L37.19,43l1.06,2.14c3.78-1.84,7.84-3.79,11.86-5.81a4.58,4.58,0,0,0,1.75-1.41c4.42-6.56,11.61-7.42,18.61-9.51-.06.83,0,1.26-.12,1.52-3.74,6-3.9,12,.07,18,1,1.55-.22,2.46-1.63,2.35a61.17,61.17,0,0,1-7.22-1.12c-2.31-.44-4.6-1-7.34-1.61l1.94-1.57a58.12,58.12,0,0,0-5.12-3.44c-.61-.33-1.63.1-2.47.18a7.72,7.72,0,0,0,1.06,2,16.84,16.84,0,0,0,2.5,1.82l-.33.81-10.1-1c3,2.41,5.55,3.87,8.79,3.24.59-.12,1.33.67,2,.92a10.52,10.52,0,0,0,2.71.75c4.71.38,9.49.27,14.12,1.08,10.26,1.79,20.47.56,30.7.16A5.93,5.93,0,0,0,106,46.1c-1.09-9.47-5.4-17.11-13.66-22.23-4.49-2.78-9.48-3.53-14.66-4.16A65.67,65.67,0,0,0,52,21.43c-2,.55-3.75,2-5.61,3l.47,1.19C57.26,19.47,68.27,19.5,79.45,21.35Zm74.36,124.44c-2.52,4.67-7.07,6.52-12.09,7.68a8.46,8.46,0,0,0-3.09,1.38c-.57.43-.76,1.38-1.12,2.09.81.37,1.89,1.26,2.37,1,2.41-1.29,4.55-.46,6.82.29a26.73,26.73,0,0,0,5.22,1.14,5.39,5.39,0,0,0,3-.46,37.45,37.45,0,0,0,3.68-2.52c3.36-2.22,3.69-4.39.86-6.62C157.72,148.42,155.87,147.24,153.81,145.79Zm-99.18,21.3c1.7-5.59,3.34-11,5-16.6C54.7,155.71,52,164.75,54.63,167.09Zm120-112.22L174.1,56c2.6,1.68,3.32,5.41,7.19,5.94-.25-1.83-.5-3.83-1.63-4.9S176.35,55.55,174.64,54.87Zm-4,7.59c-2.6-3.21-4.15-3.63-6.6-1.93C166.06,63.49,167.73,64,170.65,62.46Zm-2.1,9.81c-1.29-3.57-1.9-3.6-4.12-.93Zm14.3,58.21-2.11-2.25c-.31.47-1,1.15-.87,1.39a12.94,12.94,0,0,0,1.76,2.18Z"/><path class="cls-1" d="M350,97.22c-5.93-1.44-11.63-.64-17.29,1.51-1,.39-2.8-.25-3.82-1-4.52-3.31-4.78-4.17-2-9C333.71,77,338.71,64.58,343,51.81c2.22-6.63,4.65-13.19,7-19.78Z"/><path class="cls-1" d="M350,170.43l-9.81-1.33,1.11,3.42-3.88-.66c-.25,2.2-.49,4.38-.7,6.23l-20,2.53a40.9,40.9,0,0,1-.1-5.57,3,3,0,0,1,1.64-1.86,14.18,14.18,0,0,1,4.29-1.43c5.53-.67,7.78-5.5,11.27-8.73.33-.3-.05-1.35-.11-2.17l3.08,1.2c-2.07-4.26,1.78-6.29,2.24-9.2.66-4.11,2.49-7.51,4.47-10.89s4.29-6.21,6.47-9.29Z"/><path class="cls-1" d="M296.51,184.13c-4.44,0-8.89,0-13.33,0-2,0-2.69-.87-1.86-2.68a41.26,41.26,0,0,1,2.12-3.71c.95-1.58.94-2.63-1.24-3a8.11,8.11,0,0,1-2.3-1.28,14.91,14.91,0,0,1,1.84-2c1.72-1.27,3.38-2.83,5.33-3.55,3.09-1.15,3.94-.21,5.36,2.75,1.08,2.24,2.93,4.12,4.51,6.1,1,1.25,2.4,2.23,3.17,3.59,1.5,2.63.86,3.57-2.17,3.74-.48,0-.95,0-1.43,0Z"/><path class="cls-1" d="M294.25,216.59l2.46,1.68c-.09-1.5-.17-2.83-.25-4.21l4.48-.83c-.3-1.2-.55-2.19-.8-3.17l.51-.38,2.37,2.85h3.5l.16,1a28.36,28.36,0,0,1-4.63,1.12c-3.06.23-4.46,1.65-4.1,4.74.08.73,0,1.48,0,2.61l2.76-.67c-.43-1.71-.79-3.15-1.27-5,2.12.85,3.77-3,5.74,0,.76,1.16-1.46,3.59-3.65,4.85,1-.12,2-.27,3-.37.84-.09,1.68-.13,2.52-.19,0,.86,0,1.71,0,2.57a12.51,12.51,0,0,1-.2,1.47l-3.44.9c-.23-.64-.48-1.33-.72-2l-.65.14c.49,2.27,1,4.53,1.54,7.14H306v-5.38c2.89,3.27,1.08,6.08.49,8.91L305.42,232l-7.76,2.19V227.9l.91-.18c.28,1.19.55,2.38.88,3.83l2.55-.3c-.21-1.83-.39-3.47-.6-5.37l-2.7.53c-.27-1-.55-2.11-.85-3.27-1.25,3.43-2.48,6.78-3.7,10.12l-.77-.26c.85-2.74,1.71-5.47,2.64-8.46L293,226l-.6-.85,3.73-4.07c-.81-1.3-1.65-2.64-2.5-4Z"/><path class="cls-1" d="M110.85,234.72l-1.8-2.81-3.51,1.56-.23-.42,2.9-2.75-2.29-3.67c-.77,2.92-1.42,5.36-2.06,7.8l-.92-.11-1.52-2.74c3.48-.44,2.29-3,2.63-5.24l-3.6.93,3.44-7.08-.32-.27-4.18,4.45c.64-3.26,5.06-5.75,1.41-9.83l2.23,1,.88-2.35-2.57-.16-.13-.59a7.72,7.72,0,0,1,1.53-.8,23.68,23.68,0,0,1,2.66-.39,17.22,17.22,0,0,1-.22,2.88c-.28,1.19-.79,2.33-1.52,4.4l5.77-.88L106.66,212l.7.93,3.26-2.12-2-1,4.77,2.4-.84,1.05-3.16,2,5.67,6.19a17.07,17.07,0,0,1-3.89,2.44c-.72.24-2.1-.6-2.74-1.34-.49-.58-.3-1.75-.51-3.46l-1.53,4.87-.37-.07v-2.69l1,1.2-4.94,1.4,1.06,1.65c2-.25,4.09-.61,6.14-.67.64,0,1.3.77,2,1.19-1.61,2.3-.92,4.58,0,6.88C111.36,233.16,111.07,233.69,110.85,234.72Z"/><path class="cls-1" d="M247.47,211.09c-3.35,4.48-1.08,8.89-1.94,12.92,1.79.68,4.3-.93,4.92,2.35l-4.56.22c-.2,2.63-.4,5.2-.59,7.77h-.83v-7.79l-9.05,1.16-.17-1.23,4.51-1.05c-.78-4.08,1.4-8.47-1.7-12.5Zm-6.31,14.14c2.7.15,3.72-.79,2.8-3.29C241.58,221.77,240.33,222.49,241.16,225.23Z"/><path class="cls-1" d="M119.15,233c1.67-3.08,3.16-5.84,4.42-8.19-.87-1-1.56-1.51-1.7-2.11-.48-2.12-.8-4.29-1.14-6.45a1.75,1.75,0,0,1,.1-1.09c1.09-1.85,2.23-3.67,3.45-5.65,1.74.67,1.82,1.73.38,3.41a40.25,40.25,0,0,0-2.88,4.48l3.06.62-2.22,3.27.78.69c1.71-1.06,4.86.49,5.29-3.32l-2.67-.55,4-3.19-3.51-1.05.06-1c1.35,0,3.08-.49,3.93.16.69.53.48,2.45.38,3.73a16.94,16.94,0,0,1-.92,4.15,4.74,4.74,0,0,1-2.28,2.56c-.12,1.71-.28,3.41-.35,5.12,0,1.35-.11,2.8,1.81,3,1.61.15,3.08,0,3.59-2a19.18,19.18,0,0,1,.82-2.08,14.2,14.2,0,0,1,.31,1.57c.05,1.85,1.7,4.31-2,4.61-3.93.32-5.66-.84-5.88-4.34-.06-1,0-2.1,0-3.14s-.1-1.88-.17-3.15C124.14,227,123.52,231.05,119.15,233Z"/><path class="cls-1" d="M216.85,57.33a49.26,49.26,0,0,0-4.39,5.87A29,29,0,0,0,210,69.83c-.59,2.27-1.55,2.34-3.17,1.06-1.91-1.52-3.79-3.09-3.29-5.88.61-3.46,2.22-6.47,5.68-7.61,2.33-.77,4.94-.67,7.42-1Z"/><path class="cls-1" d="M184.8,27.75c-3.4-2.62-5.28-6-9.77-4.94l.42-1,3.67-.67-.64-1.56,1.8-.2c-.61-1.92-1.24-3.94-1.87-5.92,1.32-.85,4,.54,3-2.77l5.54,2a13.73,13.73,0,0,0-.38,4.09,8.27,8.27,0,0,0,2,3.42c.43.51,1.35.6,2,.88l-.15.72h-5C185.33,23.78,185.1,25.45,184.8,27.75Z"/><path class="cls-1" d="M152.05,234.14H139.92l0-.87,5.4-.84-2.55-2.3,1.92-2.06-2.35-.57c-.43-1.83-.9-3.85-1.4-6,2.29-.58,4.56-1.22,6.86-1.71a2.19,2.19,0,0,1,2.63,2.85c-.52,1.72-1.19,3.38-1.79,5.08H146l.06.62L149,229.4l-3.56,2.3C147.78,233,150.82,230.36,152.05,234.14Z"/><path class="cls-1" d="M168.3,214.19l4.66.95-.18.82c-4.44,1.42-4.44,1.42-4.49,2.8,3.36-.19,3.52,0,3.34,3.4-.12,2.36-.3,4.71-.45,7.06l-.83.05-2.08-2.66c-.23,2.91-.43,5.4-.63,7.88l-.94,0V221.35l-1.19,0-.75,7.19H164v-8.77c1.23.13,3.24.72,2.49-2.14l-3-.49c4.45-1.24,3.2-4.36,2.54-7.3C169.82,210.12,168,212.84,168.3,214.19Zm1.79,5.92c-1.89,1-2.7,4.54-1.7,5.46a1.11,1.11,0,0,0,1,.24,1.57,1.57,0,0,0,.67-1.06C170.14,223.35,170.09,222,170.09,220.11Z"/><path class="cls-1" d="M219.13,224.87l-1.78-7.67,5.24-1.1c-.14-2.28-.29-4.49-.44-6.87,4.06.91,1,4.2,2.41,6.22a5.13,5.13,0,0,1,1.79-.35,3.87,3.87,0,0,1,2.38.85,3.36,3.36,0,0,1,.49,2.5,46.15,46.15,0,0,1-1.51,4.92c-3.77.78-3.73.78-3.8,5,0,2.06-.22,4.12-.34,6.18l-.69,0v-10.4Zm3.14-7c-3.09.61-3.28,1.13-2,4.85C222.87,222.37,222.87,222.37,222.27,217.89Zm2.07,3.89c2.23-.37,2.78-1.52,2.27-4.71C223.81,217.42,223.52,218,224.34,221.78Z"/><path class="cls-1" d="M52.93,217.78c-1.32,1.93-4.87,1-3.49,4.21,2.11.55,5.25-2.4,6.69,2.13H49.49c-.18,3.82-.34,7.24-.49,10.67l-.91.13-2.32-4.07c3.83-1.06,1.49-4,2.26-5.85-2.16-1.28-4.73,1.86-6.83-1.25,1.84-.32,3.34-.48,4.77-.88a7.4,7.4,0,0,0,1.93-1.25c-.56-.57-1.11-1.15-1.69-1.68a18.72,18.72,0,0,0-1.55-1.13c2.71-.53,4.35-1.51,2.48-4.17l-3.07.36,5.85-4.81,2.2,2.33-2.62,1.15-.22,3.3Z"/><path class="cls-1" d="M161.66,233l-1.87-3c3.51-1.33,1.08-4.24,1.91-6.23-3.83,1.12-2.31,5.48-4.88,7.64.57-3.17,1.33-6.11,1.59-9.09s.06-6.24.06-9.48c-.07.06,0,0,.08,0,4.67-.13,4.6-.13,4.48,4.83-.08,3.51.09,7,0,10.56,0,1.55-.3,3.11-.46,4.66Z"/><path class="cls-1" d="M202,15.53c.65-1,1.23-2,2-2.95a9.13,9.13,0,0,1,1.63-1.3l.61.76-1.09,2,4.34.23v5.87l-1.9,1.2,4.6,2.64c-2.48,1.73-3.84-.06-5.29-1.59-.28,1.62-.51,3-.83,4.84l-2.18-2L205.48,22l-.49-.3-3.71,3.08-.45-.42,2.31-2.73L201.33,20l-.09,0,3-.54-2.42-4.14Z"/><path class="cls-1" d="M325.46,218.82,323,220.16v4.05h3.21l.21.76-3.37,1.28v3.87c1.9,0,4.34-1.37,5.13,1.71-5.85,1.13-11.1,1.19-12.22,0l2.54-1c0-1.24.07-2.38,0-3.5s-.34-2.21-.52-3.31l.92-.25a28.61,28.61,0,0,1,.89,3.19c.2,1.21.19,2.46.31,4.15,2.41-2.94,1.6-9.78-1.32-11.85l6.32-1.67Z"/><path class="cls-1" d="M83.19,221.78c4-1.05,4.43-.62,3.83,3.48-.29,2-.38,4-.8,5.92-.2.93-1,1.74-1.74,3l-2.42-3.58c3.07-.5,3.9-2.7,3-7.86l-4.38,2c.24-1.3.48-2.31.59-3.32s.12-2.26.18-3.44c3.7-2.29,3.7-2.29,3.55-4.64h-3l0-.44,3.76-1.9c4,1.79-.08,4.43.84,6.5C82.8,218.72,82.8,218.72,83.19,221.78Z"/><path class="cls-1" d="M233.78,19.52c2.94,2.37,3.44,4.05,1.84,5.74S230,27,228.25,25.4s-1.48-3.35,1.33-6c-1.68-1.56-2.61-3.3-.62-5.26a4.2,4.2,0,0,1,5.9.14C236.54,16.28,235.76,18,233.78,19.52Zm-1.91,6.75c1.12-1.37,2.57-2.48,2.39-3.07-.36-1.12-1.65-1.94-2.56-2.89-.77,1-2,1.85-2.16,2.9C229.43,24,230.78,24.92,231.87,26.27Zm-.09-6.62c.84-1.54,1.68-2.38,1.62-3.16s-1-1.53-1.53-2.29c-.63.72-1.69,1.38-1.77,2.15S230.9,18,231.78,19.65Z"/><path class="cls-1" d="M313.33,232.77c.46-1.33.94-2.65,1.36-4s.79-2.69,1.29-4.4c-1.5.38-1.9,3.55-3.89,1l4.23-3.66c-.91-1.48-1.75-2.85-2.58-4.23l.42-.43,2.18,1.05v-3.24l4.27-.9c-.4-1.29-.72-2.35-1.05-3.4l.57-.42,2.5,3.09h3.51l.14,1.08c-2,.49-3.91,1-5.88,1.43a2.69,2.69,0,0,0-2.47,2.83C317.5,223.63,316.89,228.73,313.33,232.77Z"/><path class="cls-1" d="M142.14,213.55l2.66-.71-1-3.59,5,3.81-1.26,3.56c2,.66,4.61-2.21,6.14,1.46-2.87.33-5.54.79-8.22.89-2.5.1-4.82,2.41-7.54.35l5.84-1.43Z"/><path class="cls-1" d="M184.44,226.94c-1.06,3.34-2.29,6-6.11,6.29,4.51-3.14,5.32-7.61,4.64-12.68,2.79,0,2.16,1.84,2.3,3.53l2.72-3.42,1.46,2.61-4.7,2.59c2.48,2.58,4.79,5,7.08,7.4-2.26,1.9-2.71,1.87-4.25-.67C186.56,230.89,185.65,229.12,184.44,226.94Z"/><path class="cls-1" d="M278.2,14.17c-2.74.78-3,1.17-3.07,4.63a16.29,16.29,0,0,1,1.83-.35c2.13-.18,4.14.12,4.76,2.54a4.17,4.17,0,0,1-2.35,5,4.12,4.12,0,0,1-5.54-1.39c-1.66-2.28-1.37-7.86.46-10,1.39-1.62,4.08-2.08,5.65-.83a3.47,3.47,0,0,1,1,1.86c.05.21-1,1-1.09.88A7.09,7.09,0,0,1,278.58,15,5.76,5.76,0,0,1,278.2,14.17Zm2.56,7.8c-1.47-1.17-2.38-2.45-3.23-2.41A3.36,3.36,0,0,0,275,21.64c-.26,1.67.35,3.77,2.45,3.71C278.41,25.32,279.31,23.53,280.76,22Z"/><path class="cls-1" d="M299.08,19a13,13,0,0,1,2.07-.54c2-.1,4,.12,4.63,2.38A4.15,4.15,0,0,1,303.39,26a4.07,4.07,0,0,1-5.49-1.52c-1.57-2.27-1.31-7.61.42-9.77,1.54-1.92,5-2.26,6.26-.48.34.49,0,1.45,0,2.2a5.59,5.59,0,0,1-1.69-.55,11,11,0,0,1-1.52-1.67,19.55,19.55,0,0,0-2,2.52C299,17.24,299.16,18,299.08,19Zm-1.15,2.66,3.56,3.88c.79-1.12,2-2.14,2.27-3.38.38-1.51-.43-3-2.32-2.64C300.44,19.66,299.57,20.59,297.93,21.63Z"/><path class="cls-1" d="M263.17,224l2.53-3.36,1.39,2.68-4.69,2.58,7.11,7.35c-2.14,2-2.71,1.95-4.32-.78-1-1.71-1.93-3.46-3-5.39-1.23,3-2.2,6-6.18,6.18,4.56-3.13,5.25-7.7,4.71-12.73l1-.17Z"/><path class="cls-1" d="M260.23,19.7c0,4.16-1.72,6.82-4.44,6.78s-4.2-2.58-4.18-6.68c0-3.91,1.76-6.62,4.3-6.67S260.2,15.64,260.23,19.7Zm-4.38,5.85c2.46-2.17,3.24-8.25,1.28-10.49A2.45,2.45,0,0,0,254.7,15C252.81,16.92,253.54,23.48,255.85,25.55Z"/><path class="cls-1" d="M326.58,14.3c-2.7.29-3.28,1.1-3.18,4.54.65-.14,1.37-.55,1.87-.37,1.57.58,3.69,1,4.44,2.17,1,1.64.22,3.75-1.53,5a4,4,0,0,1-5.26-.16c-2.87-2.35-2.72-9.67.5-11.46,1.28-.71,3.32-.18,5,0,.32,0,.59,1.2.69,1.87,0,.17-.95.72-1,.63A8.07,8.07,0,0,1,326.89,15,4.6,4.6,0,0,1,326.58,14.3ZM329,21.85c-1.47-1.11-2.3-2.19-3.29-2.35-1.24-.2-2.75.19-2.56,2.15.18,1.76.49,3.8,2.61,3.72C326.65,25.33,327.52,23.47,329,21.85Z"/><path class="cls-1" d="M236.7,85.76c2.1-3,5.46-4.79,6-8.58a24.93,24.93,0,0,0,0-3.35c4.07.37,3.46,1.9,2.84,5.54C244.51,85.72,242.2,87.28,236.7,85.76Z"/><path class="cls-1" d="M248.22,19.75c0,4.07-1.79,6.84-4.5,6.79s-4.24-2.71-4.21-6.73,1.8-6.65,4.33-6.7S248.18,15.78,248.22,19.75Zm-1.91.1a33.22,33.22,0,0,0-.95-4.27,2.34,2.34,0,0,0-1.56-1.3c-.41-.08-1.23.58-1.43,1.08a11,11,0,0,0,0,8.83c.79,1.77,2.12,1.57,2.85-.06A23.11,23.11,0,0,0,246.31,19.85Z"/><path class="cls-1" d="M215.27,19.32c.32-1.07.46-2.79,1.31-4.05a4.68,4.68,0,0,1,3.36-2c1.12.05,2.9,1.28,3.12,2.28a19.07,19.07,0,0,1,.34,7.73c-.26,1.29-2.29,2.8-3.76,3.12-2.18.47-3.3-1.48-3.87-3.42A27.79,27.79,0,0,1,215.27,19.32Zm6.91.43a42,42,0,0,0-1-4.21c-.18-.53-.93-1.28-1.33-1.22-.62.08-1.64.74-1.66,1.19-.12,2.87-.08,5.75.07,8.62,0,.42.91,1.1,1.4,1.1a1.94,1.94,0,0,0,1.42-1.11A42.85,42.85,0,0,0,222.18,19.75Z"/><path class="cls-1" d="M335.75,19.51c.68-.16,1.61-.1,2-.53a6.84,6.84,0,0,0,1.53-3c.09-.51-.9-1.21-1.41-1.83-.63.69-1.23,1.42-1.92,2.05a8.42,8.42,0,0,1-1.48.89c-.13-.73-.58-1.6-.34-2.18.74-1.79,3.87-2.39,5.79-1.28s2.11,2.92.81,4.9c-.26.38-.59.71-.89,1.07,2.47,2,2.85,3.82,1.22,5.48s-5.68,1.86-7,.2a3.58,3.58,0,0,1-.48-2.06c0-.18.9-.64,1.09-.51.46.3.7.93,1.12,1.32.6.55,1.67,1.54,1.86,1.4a5.55,5.55,0,0,0,2.21-2.52c.18-.61-.74-1.8-1.46-2.32s-1.69-.38-2.56-.54Z"/><path class="cls-1" d="M311.61,20.14c1.36-1.08,2.79-1.75,3.4-2.88.34-.62-.68-2-1.09-3-.72.6-1.41,1.22-2.16,1.79a18.06,18.06,0,0,1-1.57,1c-.12-.66-.52-1.42-.32-2,.69-1.81,3.73-2.56,5.72-1.54s2.35,2.93,1,5a10.27,10.27,0,0,1-.88,1c1.79,1.34,3.24,2.85,1.55,5.13a5.31,5.31,0,0,1-6.71,1,5.09,5.09,0,0,1-1.27-2.27c-.05-.12.88-.81.92-.77.53.49.92,1.14,1.47,1.61s1.57,1.28,1.89,1.09a4.42,4.42,0,0,0,2.12-2.26,3.13,3.13,0,0,0-1.2-2.46C313.8,20.19,312.69,20.31,311.61,20.14Z"/><path class="cls-1" d="M291.64,19.5c2.55,2.43,2.83,3.77,1.19,5.51s-5.42,2-7,.36a3.68,3.68,0,0,1-.75-2c0-.2.86-.8,1-.71a14.09,14.09,0,0,1,1.44,1.36c.61.51,1.69,1.49,1.87,1.35a5.49,5.49,0,0,0,2.15-2.56c.16-.6-.8-1.75-1.54-2.26s-1.67-.33-2.55-1c.58-.17,1.34-.16,1.7-.54a6.52,6.52,0,0,0,1.85-2.7c.13-.57-.88-1.4-1.38-2.11-.65.68-1.27,1.4-2,2a7.74,7.74,0,0,1-1.49.84c-.13-.72-.59-1.58-.34-2.14.79-1.82,3.81-2.44,5.76-1.35s2.19,2.95.74,5.09C292.14,19,291.88,19.22,291.64,19.5Z"/><path class="cls-1" d="M60,231.15l3.06-6.9-3.12-1,.07-.73,4.34-1.44-.8-2.9.49-.34,3.48,3.81L64.33,223c4.93,3.85,1.82,7.34.22,10.94l-.8.07-1.18-2.74c2.45-.76,3.29-3.1,2-5.8l-4,6.05Z"/><path class="cls-1" d="M90.47,234V210.1c.71,1.18,1.77,2.13,1.78,3.1.08,6.07,0,12.15-.16,18.22a17.73,17.73,0,0,1-.45,2.67Z"/><path class="cls-1" d="M263.22,212.72l1.73-2.24c1.43,1.81,1.43,1.81-2.34,4.62l3.3,4.31-.92.74L262.34,217l-3.24,3.77-.5-.32c.75-1.42,1.51-2.83,2-3.74l-2.71-4.23.63-.59,2.63,2.27v-4.76l.94-.26Z"/><path class="cls-1" d="M187.41,210.3c.89,1.61.89,1.61-2.45,4.9l3.27,4.14-.87.75-2.82-3-3.22,3.6-.46-.34,2-3.61-2.66-4.34.85-.74,2.36,2.3v-4.73l1.12-.18c.28,1.2.55,2.39.87,3.76Z"/><path class="cls-1" d="M20.29,227.52c5.13-1,9.24-2,13.41-2.61,1.95-.3,2.63,1.31,3,3.46-4.7-1.46-9-.66-13.23.87C22.88,229.46,21.8,228.37,20.29,227.52Z"/><path class="cls-1" d="M161.94,18.58,159,19.76l3,1.57c-1,1.84-1.94,3.54-3.15,5.73l-1.57-2.18,2.93-2.95-.76-.92-4.74,3.74-.37-.43,3-3.84-3.11-.91c1.43-1.49,4.61.31,4.21-3.25Z"/><path class="cls-1" d="M291.18,167.22c-1.42-1.55-2.59-2.34-3-3.43s3-3.08,5.21-2.84c.45,0,1.26,1.18,1.15,1.37C293.63,163.84,292.55,165.26,291.18,167.22Z"/><path class="cls-1" d="M67.24,224.34c.79-2.48,1.58-5,2.48-7.79,1,1.53,1.85,3,2.8,4.38s2,2.76,2.91,4c-1.69,1.12-1.69,1.12-5-4.56l-2.93,4.35Z"/><path class="cls-1" d="M139.12,21c-1.4,1.6-2.44,2.8-3.49,4l-.67-.51,1.54-2.26-2.14-1.1,3.31-2.87,1.46,1.8.39-2.32.75-.65.43,4.38L142.21,20a6.93,6.93,0,0,0-1.41,1.91,9.49,9.49,0,0,0-.06,2.67l-1,.1C139.57,23.46,139.36,22.3,139.12,21Z"/><path class="cls-1" d="M201.33,20h-4.59l1-2-1.54-.82c.89-1.73,1.73-3.36,2.59-5,1.75.67,1.75.67.1,3.3H202l-.1-.14-1.23,1.49c.28,1.46.45,2.32.61,3.19Z"/><path class="cls-1" d="M227.37,54.89c-2.72-.24-5.45-.44-8.16-.75a16.46,16.46,0,0,1-2.66-.79l.12-1.27c3.1,0,6.21-.14,9.29.13.55,0,.95,1.77,1.42,2.73Z"/><path class="cls-1" d="M227.38,54.94c1.56-2.8,3.76-2.81,7.65,0-1.61,3.42-3.93.61-5.91.62a5.42,5.42,0,0,1-1.75-.65A.56.56,0,0,0,227.38,54.94Z"/><path class="cls-1" d="M70.36,208.83l1.28,2.81,3.29,1.63c-2.62,1-5.43-.32-5.65,3.38l-.84-.77,1.2-6.86Z"/><path class="cls-1" d="M313.59,160.09c.21-3,2.36-3.36,3.88-4.14.32-.16,1.43,1.23,2.18,1.9l-.27.9Z"/><path class="cls-1" d="M164.17,15.33c2.18,1.71,4.35,3.43,6.64,5.24-3,2.05-4-1.22-5.74-2.64l-3.36,3,2.56-5.73Z"/><path class="cls-1" d="M283.28,225.69l-4.22-6.45C283,219.72,285,222.73,283.28,225.69Z"/><path class="cls-1" d="M201.47,219.49c4.13,1,5.23,2.62,4.48,6.53Z"/><path class="cls-1" d="M66.28,216l-4.56-.71,0-.86,2.93-1-.61-2.53c2.38.07,2.59,1.78,2.78,3.27A4.33,4.33,0,0,1,66.28,216Z"/><path class="cls-1" d="M253.38,87.61l2.18,4.29-.63.84c-.94-.44-2.39-.66-2.7-1.37-.44-1,0-2.4,0-3.63Z"/><path class="cls-1" d="M164.27,15.24a5.69,5.69,0,0,1-.77-2.05,8.31,8.31,0,0,1,1-2.45L169,13.51l-4.87,1.82Z"/><path class="cls-1" d="M24.78,217.21c3.92-2.11,5.65-2.21,7.23-.27C29.6,217.51,27.45,219,24.78,217.21Z"/><path class="cls-1" d="M259.39,55.15a19.17,19.17,0,0,1,3.58.48c.61.2,1,1,1.5,1.61-.8.23-1.76.86-2.36.61a14,14,0,0,1-2.88-2.18Z"/><path class="cls-1" d="M263.59,21.38h6.16C268.23,23.41,264.74,23.35,263.59,21.38Z"/><path class="cls-1" d="M156.05,15.06,160,12l1.46,2.33a14.23,14.23,0,0,1-2.35.67A25.22,25.22,0,0,1,156.05,15.06Z"/><path class="cls-1" d="M68.48,229.8c2.89.32,4.2,1.74,3.31,5.1Z"/><path class="cls-1" d="M99.73,39.17l1.63-1.74A24,24,0,0,1,103.65,40c.06.1-1.37,1.56-1.54,1.45A14.37,14.37,0,0,1,99.73,39.17Z"/><path class="cls-2" d="M85.19,275.37a19,19,0,0,1-1,1.63l.59.22c0,.13-.18.21-.42.26v6.82a1.39,1.39,0,0,1-.85.31h-.2v-6.48a10.69,10.69,0,0,1-1.4,1.45l-.17-.16a19,19,0,0,0,2.54-4.91l1.3.6h1c.09-.44.16-1,.25-1.56H85.61l-.13-.4h1.43c.08-.49.15-1,.21-1.42l1.42.17a.47.47,0,0,1-.47.37l-.14.88H89l.56-.59,1.18.88a1.12,1.12,0,0,1-.6.28v1.39h.12l.59-.79s.66.56,1.06,1a.32.32,0,0,1-.36.23H85.31l0-.13Zm.31-3c-.09.16-.2.22-.52.17a13.81,13.81,0,0,1-3,2.93l-.17-.15a16.57,16.57,0,0,0,2.25-3.65Zm3.32,9.82v2.06c0,.07-.34.28-.86.28h-.18v-2.34H86.42l-.42.47L85,282a2.08,2.08,0,0,1,.49-.27c.13-.46.27-1.08.36-1.5h-.75l-.12-.42h2.78v-1.19h-.93v.23a1.27,1.27,0,0,1-.85.29h-.15v-3.28l1.06.45h2.27l.5-.5,1.07.8a.76.76,0,0,1-.46.23v1.81a1.48,1.48,0,0,1-.84.29h-.16v-.32h-.47v1.19h.74l.56-.71a12.66,12.66,0,0,1,1,.91c0,.15-.14.22-.33.22h-2v1.63h1.05l.61-.76s.67.53,1.11.94a.32.32,0,0,1-.35.22Zm-1-.4v-1.63h-.94c-.13.48-.28,1.14-.42,1.63Zm-.93-3.64h2.44v-1.49H86.85Zm.77-3.07h1.53v-1.56H87.88Zm6,.05s.76.61,1.22,1.06c0,.15-.17.22-.37.22h-1v6.67c0,.8-.2,1.36-1.59,1.5a1.1,1.1,0,0,0-.26-.76,2.37,2.37,0,0,0-1.22-.39v-.21s1.4.1,1.71.1.31-.07.31-.27v-6.64H90.8l-.11-.42H93ZM91,273.39l-.12-.42h1.76l.67-.84a15.73,15.73,0,0,1,1.23,1,.33.33,0,0,1-.36.23Z"/><path class="cls-2" d="M100.45,277.85c2.71,1.1,1.94,2.83,1,2.18a5,5,0,0,0-1-1.83v6c0,.1-.38.38-.9.38h-.18V278.9a12.84,12.84,0,0,1-2.08,1.66l-.15-.13a15.15,15.15,0,0,0,3.7-5.38H97.53l-.12-.4h3.4l.69-.66,1.15,1.12a1.19,1.19,0,0,1-.63.17,12.76,12.76,0,0,1-1.57,2.43ZM99,271.72c3,.88,2,2.94,1,2.13a4.67,4.67,0,0,0-1.12-2Zm10,.17s.79.61,1.3,1.08c0,.15-.18.22-.38.22h-7.41l-.11-.41h5.9Zm0,6.1,1.23,1a1,1,0,0,1-.6.28v4.95a1.48,1.48,0,0,1-.88.32h-.18v-.77h-4.91v.5c0,.11-.45.35-.88.35h-.17v-6.46l1.12.49h4.7Zm-1.09-.36v-.49h-3.52v.32c0,.09-.47.32-.88.32h-.16V274l1.11.49h3.31l.57-.61,1.25.94a1.12,1.12,0,0,1-.6.27v2.23a1.53,1.53,0,0,1-.9.31ZM103.61,279v1.85h2V279Zm0,4.29h2v-2h-2Zm4.25-6.6V274.9h-3.52v1.83ZM106.57,279v1.85h2V279Zm2,4.29v-2h-2v2Z"/><path class="cls-2" d="M119.42,276.55s.78.63,1.27,1.08c0,.15-.18.22-.36.22H113l-.11-.4h4.26a31.12,31.12,0,0,0,.8-3l1.58.57a.43.43,0,0,1-.49.26,19.86,19.86,0,0,1-1.58,2.21h1.21Zm-6.16-2.37-.12-.4h5.21l.7-.86s.78.62,1.27,1a.35.35,0,0,1-.37.22Zm1,.4c2.62,1.47,1.52,3.4.61,2.52a6.12,6.12,0,0,0-.77-2.45Zm4.38,4.11,1.11.87a.7.7,0,0,1-.52.24v4a1.21,1.21,0,0,1-.9.29h-.18v-.94h-3v.91c0,.09-.34.3-.87.3h-.17v-5.58l1.19.49h2.82Zm-.49,4.09v-3h-3v3Zm-2.67-11.09c2.74.7,1.65,2.69.67,1.88a3,3,0,0,0-.81-1.78Zm10.46,1.7c-.11.12-.31.15-.64.16a36.62,36.62,0,0,1-2.15,3.53c1.74,1.14,2.4,2.44,2.4,3.62,0,1.4-.53,2.1-2.15,2.16a1.48,1.48,0,0,0-.19-.86,1.75,1.75,0,0,0-.86-.27v-.22h1.32a.78.78,0,0,0,.38-.07c.28-.15.42-.43.42-1a4.49,4.49,0,0,0-1.68-3.3c.39-.94,1-2.69,1.3-3.88H122v11a1,1,0,0,1-.9.38H121V272.21l1.26.63h1.84l.68-.66Z"/><path class="cls-2" d="M134.51,274.69a2,2,0,0,1,1.58.67,2.33,2.33,0,0,1,.6,1.63,2.84,2.84,0,0,1-.14.84,6.11,6.11,0,0,1-.3.8,4.76,4.76,0,0,1-.51.82q-.33.46-.57.75c-.16.18-.38.43-.68.74l-.64.63c-.12.12-.33.32-.64.6a.06.06,0,0,0,0,.07s0,0,.07,0h2.48a.79.79,0,0,0,.53-.17.9.9,0,0,0,.29-.37,5.54,5.54,0,0,0,.2-.59A.2.2,0,0,1,137,281a.55.55,0,0,1,.28.07c-.26,1.21-.41,1.94-.45,2.18a.21.21,0,0,1-.22.2h-4.75c-.1-.05-.15-.2-.16-.44a19.66,19.66,0,0,0,2.44-3.1,5.38,5.38,0,0,0,1-2.68,1.61,1.61,0,0,0-.35-1.09,1.1,1.1,0,0,0-.91-.43,2.21,2.21,0,0,0-.35,0,2.39,2.39,0,0,0-.32.11,1.74,1.74,0,0,0-.26.15l-.22.16-.19.19-.13.17-.1.15c-.05.06-.07.09-.07.1a.33.33,0,0,1-.21-.1.26.26,0,0,1-.11-.19,2.57,2.57,0,0,1,.26-.47,4.3,4.3,0,0,1,.48-.59,2.65,2.65,0,0,1,1.85-.76Z"/><path class="cls-2" d="M140.43,282.23a5.57,5.57,0,0,1,0-6.13,2.67,2.67,0,0,1,2.17-1.28,2.62,2.62,0,0,1,2.14,1.28,5.62,5.62,0,0,1,0,6.13,2.62,2.62,0,0,1-2.14,1.28A2.67,2.67,0,0,1,140.43,282.23Zm.67-3.08a7,7,0,0,0,.44,2.68q.44,1.08,1.08,1.08c.45,0,.81-.36,1.07-1.08a8.22,8.22,0,0,0,.39-2.75,7.32,7.32,0,0,0-.41-2.64c-.26-.69-.62-1-1-1s-.82.36-1.1,1.06A7.41,7.41,0,0,0,141.1,279.15Z"/><path class="cls-2" d="M148.56,276.88a.34.34,0,0,1-.15-.16.32.32,0,0,1-.07-.18.17.17,0,0,1,0-.12q.66-.45,1.32-.87l1-.64.38-.22h0c.07,0,.12.09.16.25a5.19,5.19,0,0,0-.12,1.29v5.44a4.06,4.06,0,0,0,.11,1.09c0,.07.14.14.37.21a2.08,2.08,0,0,0,.48.09s0,.09,0,.27a.81.81,0,0,1,0,.2l-.71-.06c-.45,0-.79,0-1,0s-.55,0-1,0l-.72.06a.49.49,0,0,1,0-.26c0-.14,0-.21,0-.21a2.06,2.06,0,0,0,.51-.1c.24-.07.36-.14.38-.2a3,3,0,0,0,.09-.79v-4.76a3.08,3.08,0,0,0,0-.51.78.78,0,0,0-.07-.24.17.17,0,0,0-.13,0l-.13,0-.2.1-.19.11-.22.12Z"/><path class="cls-2" d="M159.53,274.67c.14,0,.22,0,.22.13v5.42h.7c.14,0,.21.24.21.74,0,0,0,.09-.11.13h-.8v2.35a1.6,1.6,0,0,1-.74.11q-.66,0-.66-.15v-2.31h-3.43a.83.83,0,0,1-.15-.54c.31-.37,1.08-1.36,2.31-3s1.92-2.53,2.11-2.76A.44.44,0,0,1,159.53,274.67Zm-1.18,5.55V277c0-.08,0-.11,0-.11l0,0-2.36,3.11,0,0c0,.09,0,.13.1.13Z"/><path class="cls-2" d="M178,279.56s.91.68,1.44,1.17c0,.15-.18.22-.36.22h-4.82v3.29c0,.09-.38.35-1,.35H173V281h-6.4l-.12-.41H169V276.3l1.34.55H173V274.2h-3a12.6,12.6,0,0,1-3.38,3.28l-.18-.16a16.27,16.27,0,0,0,3.54-5.84l1.7.66a.51.51,0,0,1-.58.24,16.23,16.23,0,0,1-.82,1.41h6.44l.79-1s.86.63,1.44,1.14c0,.16-.18.23-.39.23h-4.33v2.65h2.18l.73-.93s.83.65,1.35,1.11c0,.14-.19.21-.38.21h-3.88v3.3h3Zm-4.93,1v-3.3h-2.92v3.3Z"/><path class="cls-2" d="M183.8,273.47a1.69,1.69,0,0,1-.64,1.56.69.69,0,0,1-1-.17.67.67,0,0,1,.39-.79,1.65,1.65,0,0,0,.79-1.61h.24a3.84,3.84,0,0,1,.16.6h4.7a.8.8,0,0,1-.38-.19,1.54,1.54,0,0,0-.43-1.19l.13-.09c1.87.17,1.6,1.35.93,1.47h4.54l.61-.63,1.15,1.1a.93.93,0,0,1-.53.15,8.07,8.07,0,0,1-1.27,1.19l-.19-.1a10.79,10.79,0,0,0,.31-1.3Zm9.88,1.44a13,13,0,0,1,1.17.9c0,.15-.17.22-.36.22h-2.16c0,.49-.05,1-.08,1.46a1.54,1.54,0,0,1-1,.13l0-.27h-5.76l-.4.46-1.11-.74a1.91,1.91,0,0,1,.49-.28c0-.22.07-.48.1-.76h-2.27l-.13-.4h2.45c.07-.65.13-1.33.16-1.8l1.26.49h5.22l.48-.56,1.23.91a1,1,0,0,1-.59.26c0,.19,0,.42,0,.7h.71Zm-6.81,7.54,1.17.85c-.11.13-.35.16-.7.06a15.24,15.24,0,0,1-5,1.23l-.06-.24a12.61,12.61,0,0,0,4.39-1.9h-1.53v.1c0,.11-.49.35-.94.35h-.17v-5.23l1.19.51h6.36l.55-.58,1.13.89a.82.82,0,0,1-.45.22v3.7a1.51,1.51,0,0,1-.92.32h-.18v-.28Zm-1.71-3.87v.87h6.57v-.87Zm6.57,1.28h-6.57v.88h6.57ZM185.16,282h6.57v-.89h-6.57Zm2.63-5.1c0-.26.07-.57.09-.91h-2.31c-.06.33-.1.63-.14.91Zm-2.07-2.21c0,.28-.07.58-.11.9h2.31c0-.32,0-.62.05-.9Zm5.55,2.21c0-.3,0-.6,0-.91h-2.43c0,.34-.06.65-.09.91ZM189,274.73c0,.28,0,.59-.07.9h2.43l0-.9Zm.31,8c6.92.3,5.1,2.51,3.91,1.74a12,12,0,0,0-4-1.5Z"/><path class="cls-2" d="M202.83,277.22a.84.84,0,0,1-.56.23c-.1,4.31-.38,5.95-.93,6.53a1.78,1.78,0,0,1-1.34.51,1,1,0,0,0-.18-.71,1.42,1.42,0,0,0-.79-.32l0-.24c.35,0,.88.07,1.12.07a.54.54,0,0,0,.45-.15c.35-.37.56-2,.65-5.83h-1.34a14.93,14.93,0,0,1-2.23,7.2l-.19-.13a24.28,24.28,0,0,0,1.44-9.66h-1.33l-.11-.41h3.65l.65-.9s.75.63,1.2,1.08c0,.16-.17.23-.36.23h-2.58c0,.71,0,1.45-.1,2.18h1.16l.59-.6Zm-3.84-5.5c2.8.94,1.84,3,.88,2.18a4,4,0,0,0-1-2.08Zm3.39,4.68a14.93,14.93,0,0,0,1.71-4.7l1.65.45c-.05.17-.22.3-.53.28a11.67,11.67,0,0,1-.74,1.64h4l.71-.94s.84.66,1.36,1.12c0,.16-.18.23-.38.23h-5.9a8,8,0,0,1-1.65,2.06Zm7.58,6.68c.39.12.5.25.5.45,0,.5-.57.68-3.29.68h-1.88c-1.34,0-1.71-.23-1.71-1.14v-4l-.77.29-.28-.32,1.05-.42v-2.53l1.49.15c0,.18-.15.32-.46.36v1.61l1.48-.57v-2.7l1.5.16c0,.2-.15.34-.52.38v1.75l1.63-.64.57-.6,1,1.09a.8.8,0,0,1-.55.15,19,19,0,0,1-1.55,4.43l-.18-.11a36.4,36.4,0,0,0,.68-4.53l-1.64.66v4.43c0,.11-.42.32-.78.32h-.2v-4.37l-1.48.59v4.19c0,.32.11.42.81.42h1.81c.8,0,1.43,0,1.68-.05a.42.42,0,0,0,.35-.16,8.94,8.94,0,0,0,.49-1.61h.18Z"/><path class="cls-2" d="M216.08,281.52c1.2,1.24,2.75,1.49,5.45,1.49,1.56,0,2.81,0,4.39-.08v.18a1.11,1.11,0,0,0-.87,1.05h-3.92c-2.75,0-4-.52-5.25-2.2-.2-.25-.34-.21-.5,0-.29.45-1,1.43-1.45,2.14a.27.27,0,0,1-.1.32l-1-1.33a19.66,19.66,0,0,1,2.67-1.78h.1a22,22,0,0,0,7-5.82h-8.91l-.13-.42h9.16l.79-.69,1.16,1.09c-.11.14-.26.18-.64.2a20.13,20.13,0,0,1-8.08,5.8Zm1.38-9.82c3.61,1.11,2.69,3.69,1.48,2.82a5.78,5.78,0,0,0-1.62-2.7Z"/><path class="cls-2" d="M234.44,279.1a.83.83,0,0,1-.55.21c-.11,3-.35,4.3-.86,4.76a1.91,1.91,0,0,1-1.29.44,1,1,0,0,0-.18-.72,1.92,1.92,0,0,0-.82-.32l0-.24c.33,0,.92.07,1.15.07a.54.54,0,0,0,.42-.11c.28-.28.47-1.48.56-4h-1.53a7.76,7.76,0,0,1-2.66,5.43l-.2-.17c1.68-2.3,1.85-5,1.91-7.52h-1.7l-.11-.41h4.57l.68-.91s.77.63,1.25,1.1c0,.15-.17.22-.36.22h-3.21c0,.62-.06,1.25-.11,1.85h1.34l.56-.58Zm-5.78-6h2.67l-.18-1.39,1.53.13a.52.52,0,0,1-.41.39l.13.87h.81l.61-.84a14.34,14.34,0,0,1,1.18,1,.33.33,0,0,1-.36.22h-2.19l.14,1a1.3,1.3,0,0,1-1,.32l-.17-1.33h-2.64Zm1.87,1.55c2.66.48,1.77,2.4.8,1.71a3.08,3.08,0,0,0-.92-1.61Zm8,.53c0,.16-.15.24-.49.27a8.16,8.16,0,0,0,3.46,3.35l0,.18a1.28,1.28,0,0,0-.7,1,10,10,0,0,1-2.93-4.38,9.66,9.66,0,0,1-3.54,4.5l-.11-.21a11.32,11.32,0,0,0,2.69-5.07Zm-3.22-2.08H237l.23-1.42,1.52.31c0,.18-.19.32-.55.34l-.13.77h1.46l.63-.84s.74.58,1.19,1c0,.15-.18.22-.38.22h-3l-.18,1.05a1.32,1.32,0,0,1-1.08.11l.2-1.16h-1.5Zm.14,8.39c4.93.86,4.65,3.53,3.32,2.94a10.25,10.25,0,0,0-3.43-2.79Zm.85-2.76c3.2.47,2.45,2.78,1.32,2.08a3.77,3.77,0,0,0-1.44-2Z"/><path class="cls-2" d="M248.94,278.08l1.25.95a1.08,1.08,0,0,1-.57.28v4.6a1.56,1.56,0,0,1-.94.35h-.17v-1h-2.7v.92c0,.12-.45.37-.91.37h-.17v-6.29l1.15.49h2.49Zm-.43,4.73v-3.7h-2.7v3.7Zm-.43-5.42c0,.1-.48.37-1,.37H247v-5.7l1.2.51h4.55l.59-.66,1.26,1a1.08,1.08,0,0,1-.59.28v4.14a1.47,1.47,0,0,1-.94.35h-.18v-1h-4.77Zm0-4.41v3.24h4.77V273Zm8.74,6a1.11,1.11,0,0,1-.59.29V284a1.65,1.65,0,0,1-.93.31h-.18v-1.12h-2.8v.95c0,.11-.46.37-.92.37h-.17v-6.32l1.16.49H255l.58-.63Zm-1.7,3.78v-3.7h-2.8v3.7Z"/><path class="cls-2" d="M262.27,275.71a.51.51,0,0,1-.43.24v8.32a1.3,1.3,0,0,1-.86.32h-.19v-7.53a14.11,14.11,0,0,1-1.33,1.92l-.21-.13a27.61,27.61,0,0,0,2.33-7.16l1.64.48a.52.52,0,0,1-.54.29,23.66,23.66,0,0,1-1.08,3Zm3.64,2c-.09.12-.24.17-.5.21a12.33,12.33,0,0,1-.94,4c1.22,1.11,2.9,1.39,5.3,1.39.61,0,2,0,2.71,0v.19a.87.87,0,0,0-.64.89h-2.19c-2.55,0-4.3-.4-5.5-1.83a6.33,6.33,0,0,1-2.16,2.11l-.12-.21a6.45,6.45,0,0,0,1.82-2.58,10.1,10.1,0,0,1-1.17-3l.2-.08a8.26,8.26,0,0,0,1.16,2.49,15.62,15.62,0,0,0,.52-3.47h-.88l-.41.39-.94-.71a1.72,1.72,0,0,1,.49-.24,37.09,37.09,0,0,0,1.42-3.67h-1.39l-.12-.41H264l.53-.54,1.1,1a1.05,1.05,0,0,1-.64.23c-.35.93-1,2.52-1.44,3.58h.68l.56-.57Zm5.82-3.42a10.5,10.5,0,0,1,.82.94c0,.15-.15.22-.33.22H271v2a1.3,1.3,0,0,1-.82.31h-.15v-.38h-1.42v1.5H270l.57-.77s.64.56,1,1c0,.15-.15.22-.35.22h-2.58v1.4h1.88l.59-.82s.67.58,1.08,1c0,.16-.17.23-.37.23h-3.18v1.5c0,.12-.43.35-.79.35h-.2v-1.85h-2.34l-.11-.41h2.45v-1.4h-1.86l-.12-.42h2v-1.5H266l-.13-.42h1.75v-1.5H265.1L265,275h2.66v-1.47h-1.76l-.13-.42h1.89V271.7l1.47.16c0,.2-.14.33-.48.38v.87H270l.49-.51,1.05.8a.89.89,0,0,1-.46.22V275h.26Zm-3.09.76h1.42v-1.47h-1.42Zm1.42.4h-1.42v1.5h1.42Z"/><path class="cls-2" d="M277.26,277.13c0,2.36-.13,5.39-2.25,7.45l-.2-.11c1.31-2.15,1.42-4.81,1.42-7.34v-4.3l1.23.5h8.25l.72-.94s.82.65,1.31,1.12c0,.16-.17.23-.36.23H277.26Zm3.65,4.51c-.7.5-1.73,1.26-3.07,2.15a.52.52,0,0,1-.28.38l-.69-1.22c.69-.21,2.33-.84,4-1.5Zm6-5.41a12.45,12.45,0,0,1,1,.88.32.32,0,0,1-.35.23H286.1v1.75a1.25,1.25,0,0,1-.61.35l.95.67c-.08.13-.21.17-.52.08a24.39,24.39,0,0,1-2.67,1.05l-.12-.14c.55-.42,1.33-1.16,1.87-1.66v-.33h-2.47v4.14c0,.84-.17,1.33-1.58,1.47a1.21,1.21,0,0,0-.27-.76,2,2,0,0,0-1.1-.39v-.22s1.27.11,1.54.11.31-.07.31-.27v-4.08h-3.14l-.13-.42h3.27v-1.35h-3.76l-.11-.41h3.87V275.6h-3l-.13-.42h3.17V273.9l1.61.19c0,.19-.17.32-.51.37v.72h2.35l.54-.56,1.12.87a.75.75,0,0,1-.44.21v1.23h.37ZM278,279.48c3.32.11,2.9,2.21,1.76,1.75a6.85,6.85,0,0,0-1.86-1.61Zm2.92-7.87c2.76.33,1.73,2.24.72,1.51a3.53,3.53,0,0,0-.84-1.42Zm1.6,5.32H285V275.6h-2.47Zm2.47.41h-2.47v1.35H285Zm-1.91,4.35c4.55.42,4.48,2.73,3.2,2.4a12.64,12.64,0,0,0-3.31-2.24Z"/><path class="cls-2" d="M301.91,277.84s.8.62,1.3,1.08c0,.15-.18.22-.38.22H290.89l-.13-.4h6.14l0,0a1.75,1.75,0,0,0-.54-.86l-.09.07a1.38,1.38,0,0,1-.88.28.77.77,0,0,0-.18-.53,1.3,1.3,0,0,0-.72-.29l0-.23a1.12,1.12,0,0,1-.44.12h-.14V277h-1.45v.27c0,.07-.38.25-.7.25h-.14v-1.89a7.38,7.38,0,0,1-1,.8l-.2-.17a7.71,7.71,0,0,0,1.53-2.76l.71.26v-.6H290.7l-.12-.4h2v-1.07l1.45.14c-.05.21-.17.34-.55.39v1.47c0,.06-.2.16-.44.23l.13,0a.46.46,0,0,1-.5.25l-.07.11h3.2l.54-.51,1,.84a.73.73,0,0,1-.49.19,7.66,7.66,0,0,1-.45,2.78c1.43.05,1.46.85,1.05,1.12h3.7Zm-7.19-.85s-.11.11-.25.16c.28,0,.74.05.91.05a.22.22,0,0,0,.21-.09,6.1,6.1,0,0,0,.37-2.37h-3.59c-.11.14-.22.29-.33.41l.46.2h1.27l.45-.45,1,.71a.86.86,0,0,1-.47.23Zm-.84-.4v-.85h-1.45v.85Zm6.14,2.57s.69.46,1.15.84c0,.15-.17.22-.37.22h-8.08l-.11-.4h6.78Zm-7.41,1.75h6.81l.61-.65s.7.45,1.17.83a.36.36,0,0,1-.38.22h-8.1Zm7.66.59,1.12.82a1,1,0,0,1-.43.23v1.61a1.57,1.57,0,0,1-.93.32h-.18V284H293.7v.25c0,.1-.5.32-.92.32h-.16v-3l1.17.49h5.95Zm-.42,2.07v-1.13H293.7v1.13Zm-4.29-9.71c0,.09-.4.27-.77.27h-.16v-2.44l1.48.14c0,.21-.17.34-.55.38v.56h.92l.51-.67s.59.5.93.87c0,.15-.16.22-.34.22h-2Zm6.63-1.43s.73.59,1.19,1c0,.15-.18.22-.38.22h-.66a5.63,5.63,0,0,1-1.06,2.05c2.14,1.16,1.82,2.4.88,2.1a12.42,12.42,0,0,0-1.54-1.43,7.93,7.93,0,0,1-2.94,1.52l-.1-.21A6.73,6.73,0,0,0,300,276a18.51,18.51,0,0,0-1.55-1.08l.14-.15a16.06,16.06,0,0,1,1.88.61,6.12,6.12,0,0,0,.7-1.65H299a7.26,7.26,0,0,1-1.61,2.34l-.23-.11a12.2,12.2,0,0,0,1.31-4.25L300,272a.48.48,0,0,1-.48.3c-.1.31-.22.65-.36,1h2.41Z"/><path class="cls-2" d="M305.94,283a13.79,13.79,0,0,0,3-4.84l1.58.71c-.07.15-.19.22-.53.18a12.17,12.17,0,0,1-3.93,4.11Zm11.5-7.62s.89.68,1.45,1.17c0,.15-.18.22-.38.22H313v7.49a1.25,1.25,0,0,1-1,.31h-.2v-7.8h-5.67l-.13-.41h10.62Zm-9.74-1.92-.11-.4h7.67l.79-.95s.87.65,1.41,1.13c0,.15-.18.22-.37.22Zm7,4.88c4.91,2.39,4.18,5.42,2.82,4.48a12.88,12.88,0,0,0-3-4.37Z"/><path class="cls-2" d="M334.24,272.88a1,1,0,0,1-.61.28V284.1a1.41,1.41,0,0,1-.91.37h-.16v-.73h-9.28v.45c0,.15-.39.42-.87.42h-.19V272l1.16.53h9l.57-.67Zm-1.68,10.45V273h-9.28v10.35ZM331.14,276s.66.51,1.08.9c0,.15-.17.22-.36.22h-8l-.12-.4h3.62v-.93H326V276a1.19,1.19,0,0,1-.84.31h-.14v-2.79l1.05.45h3.56l.49-.52,1.09.81a.77.77,0,0,1-.48.21v1.44c0,.1-.51.3-.82.3h-.17v-.38H328.4v.93h2.15Zm-.46,1.35,1,.81a.74.74,0,0,1-.45.22v4.08c0,.1-.49.29-.81.29h-.16v-.6h-4.76v.46c0,.1-.42.31-.81.31h-.16v-5.5l1,.46h4.58Zm-.38,4.39v-3.46h-4.76v3.46Zm-.53-6.36v-1H326v1Zm.08,3.89a.88.88,0,0,1-.39.19v1.6c0,.08-.42.26-.67.26h-.11v-.44h-1.49v.25c0,.07-.35.24-.67.24h-.13v-2.74l.86.38h1.34l.39-.4Zm-1.17,1.2v-1h-1.49v1Z"/><path class="cls-2" d="M347.46,275.19a12,12,0,0,1-3.19,5.8,15.42,15.42,0,0,0,5.73,2.48l0,.16a1.42,1.42,0,0,0-1.23,1,13.12,13.12,0,0,1-5.26-2.9,15.83,15.83,0,0,1-6.41,2.93l-.1-.21a15.47,15.47,0,0,0,5.87-3.35,12.56,12.56,0,0,1-2.87-5.87h-2.79l-.11-.42H347.6l.8-1s.9.7,1.43,1.22c0,.15-.18.22-.38.22Zm-7.21,0a10.75,10.75,0,0,0,3.24,5.17,11.28,11.28,0,0,0,2.57-5.17Zm1.81-3.49c3.65.9,2.81,3.39,1.59,2.6a5.67,5.67,0,0,0-1.72-2.48Z"/></g></svg>