<svg xmlns="http://www.w3.org/2000/svg" viewBox="0 0 420 338.13"><defs><style>.cls-1{fill:#838cbc;}.cls-2{fill:#d1dafa;}</style></defs><title>警示圖文_性功能障礙</title><g id="圖層_3" data-name="圖層 3"><path class="cls-1" d="M43.41,227.49l5.63-.87-.91,4.19Z"/><path class="cls-1" d="M195.6,142.88c-1.63-.52-3.3-.95-4.87-1.6a7.64,7.64,0,0,1-3.43-2.66l3.3.43a3.31,3.31,0,0,0-.06-.57c-5.33-.31-4.45-4.63-5-7.87a33.17,33.17,0,0,1-.08-5.73c0-.35,0-.93.18-1,2.68-1.29,5.3-3.2,8.11-3.56,2.56-.32,3.83,2.1,3.33,4.82-.26,1.39-.62,2.77-1.17,5.23,1.55-2.4,2.28-4.18,3.58-5.33a6.79,6.79,0,0,1,4.44-1.78c.72,0,1.72,2.41,1.8,3.77.13,2.33.17,4.61-2.66,6.17s-2.32,4.58-.09,6.84c.8.81.44,2.74.61,4.16-1-.29-2.33-.27-2.83-.92-1.7-2.23-3.5-.65-5.27-.45Z"/><path class="cls-1" d="M148.34,20.44l-5.9.39-.13-1.12,1.8-.49-1.53-7.17,4.49-2.64-.36-.78c2,.52,4.14.67,5.78,1.7.84.53,1.4,3,.89,3.93-2.12,4,.51,5.21,3.38,6.47.46.2.79.71,1.74,1.61h-7.19c-.28,2.43-.52,4.58-.77,6.84l-11.66-7.13,9.71-.94Z"/><path class="cls-1" d="M48.64,156.17c-1.4-2-1-3.75.46-5.72,2.82-3.89,6-7.13,9.89-8.41,1.32,2.53,2.68,4.81,3.72,7.23a13.56,13.56,0,0,1,1.07,6.16l-7.33-8.24v5.49l3.17,3.5-6.15,1.42c-1.37-.82-2.28-4-4.94-1.52Z"/><path class="cls-1" d="M183.37,19.4l-4.1,2.33,5.7,3.33c-2.91,2.33-4.58-.06-6.43-1.58L177.32,29l-2.8-2.41c.76-1.46,1.38-2.66,2-3.85l-.62-.38-4.77,3.89-.58-.55,3.59-4.16-2.77-1,4.17-1.37c-4.83-3.16-1.38-6.57-.52-10.13l2.85.62c-.75,1.19-1.29,2-2,3.13h6.38C182.21,15.5,178.7,17.78,183.37,19.4Z"/><path class="cls-1" d="M257.51,32.6,255,37.52l2.6,5-4.42.81L260.08,50l-.95,1q-3.85-3.23-7.7-6.47c-.15-.13-.07-.54-.22-.64-2-1.37-5.44-1.72-4.22-5.46.79-2.45,1.85-4.82,2.94-7.58l2.18,2.29C253.51,31.73,254.89,29.48,257.51,32.6Z"/><path class="cls-1" d="M207.31,19.18c-2.27-1.81-3.22-3.89-1-6.34a5.66,5.66,0,0,1,7.56-.19c2,1.91,1.73,3.84-1,6.7,3.46,3.4,4,5.39,2.06,7.38s-7.33,2.05-9.42.06S204,22.53,207.31,19.18Zm2.83,0c-1.38,2.14-2.81,3.4-2.85,4.71,0,1,1.9,2.92,2.68,2.79,1.25-.2,3.12-1.73,3.16-2.77C213.19,22.62,211.61,21.31,210.14,19.14Zm3.07-3.87-3.11-2.69c-.72,1.07-1.94,2.11-2,3.22-.05.8,1.44,1.68,2.25,2.53Z"/><path class="cls-1" d="M200.5,20.05c-.27,4.86-2.36,8.07-5.56,8.2s-5.8-3.31-5.7-8.17c0-1.86.19-4,1.16-5.5s3-3.18,4.58-3.13,3.39,1.91,4.36,3.44S200.15,18.31,200.5,20.05Zm-8.71-.7a47.3,47.3,0,0,0,1,5.5c.24.76,1.19,1.76,1.87,1.8a2.58,2.58,0,0,0,2-1.61,94.29,94.29,0,0,0,.11-10.5c0-.6-1.23-1.47-2-1.61-.51-.09-1.54.79-1.77,1.44A45.61,45.61,0,0,0,191.79,19.35Z"/><path class="cls-1" d="M269.14,12.58c-4,.41-4,3.17-4.4,6.09,1-.21,1.78-.43,2.55-.51,2.54-.27,5.07-.06,6,2.74a5.25,5.25,0,0,1-2.53,6.51,5.17,5.17,0,0,1-6.88-1.08c-2.64-2.8-2.36-10.84.52-13.43a5.32,5.32,0,0,1,7-.53c.63.42.88,1.53,1.07,2.38.05.21-1.18,1-1.27.89a11.31,11.31,0,0,1-1.51-1.92A7.3,7.3,0,0,1,269.14,12.58Zm3.17,10.11c-1.82-1.52-2.93-3.18-4.08-3.22s-3.16,1.46-3.32,2.51c-.31,2.06.21,4.84,3,4.74C269.21,26.67,270.42,24.52,272.31,22.69Z"/><path class="cls-1" d="M235.24,19.88c0-5.1,2.28-8.65,5.61-8.64s5.35,3.22,5.47,8.37-2.21,8.59-5.63,8.6S235.26,25,235.24,19.88Zm9.2.49-.59-.49a41.39,41.39,0,0,0-1.15-5.24,2.81,2.81,0,0,0-2-1.68,2.73,2.73,0,0,0-2,1.65,17.84,17.84,0,0,0-.82,5.27c0,2.64-.63,6.18,2.95,6.58C241.83,26.57,243.24,22.52,244.44,20.37Z"/><path class="cls-1" d="M330.25,12.48c-3.73.44-3.88,3.14-4.23,6.08.92-.16,1.69-.33,2.46-.41,2.52-.23,5.08-.12,6,2.72a5.22,5.22,0,0,1-2.79,6.69A5.17,5.17,0,0,1,324.89,26c-2.31-2.81-1.9-10.27.59-12.9,1.83-1.93,5.47-2.32,7.24-.65a3.2,3.2,0,0,1,.91,2.14c0,.36-1.27,1.15-1.51,1a5.11,5.11,0,0,1-1.31-1.77A10.26,10.26,0,0,1,330.25,12.48Zm3.52,10c-2.13-1.51-3.36-3.06-4.57-3.05s-3.07,1.67-3.12,2.67c-.1,2,.34,4.85,3.17,4.65C330.54,26.68,331.69,24.57,333.77,22.5Z"/><path class="cls-1" d="M231,19.82a25.37,25.37,0,0,1-.42,3.41c-.78,2.68-2.06,5-5.33,4.95-3.07-.07-4.58-2.22-4.84-4.89s-.39-5.6.47-8c.57-1.64,3-3.76,4.53-3.65,1.73.14,3.65,2.21,4.81,3.9C231.06,16.73,230.82,18.71,231,19.82Zm-8.4-.56a7.2,7.2,0,0,0,0,2.1c.81,1.83,1.7,5.15,2.58,5.16,3,0,2.52-3.09,3.06-5.16a2.53,2.53,0,0,0,.07-1.41c-.86-2.43-1.8-4.84-2.72-7.25C221.91,14,223,17.3,222.59,19.26Z"/><path class="cls-1" d="M140.3,44.21l.32,4.47c-1.88-.17-3.32-.73-3.84-.27A29.37,29.37,0,0,0,132,53.8c-.63.93-.37,2.42-.69,3.61a9.22,9.22,0,0,1-1.12,2.35c-1,1.65-2.12,3.25-3.18,4.88l.77,1c2.77-.91,5.5-2,8.33-2.67a14.88,14.88,0,0,1,6.37,0l-2.85,2.13.73.93,11.17-9.63-.16-.68-4.75.72c6.66-6.08,6.73-5.74,15.8-7.69,4.39-.95,8.44-3.43,12.64-5.22l-.3-1.19-7.28,1.12-.22-.64c3.69-1.3,7.28-3,11.08-3.79,4.16-.81,8.51-.7,12.86-1.26l-5.77-.73c1.87-1.8,9.18-1.14,11.39.68l5.27-2.52.48.63-1.21,2.5a3,3,0,0,0,1,0c4.09-1.57,9.17-.79,10.61,1.65.24.41.65.81.68,1.24.26,5,3.85,7.59,7.46,10A92.16,92.16,0,0,0,232.76,58c1.76.82,4.12.38,6.49,1-4.88,1.82-3.38,9.66-9.59,10-.39,1.25-.93,2.69-1.28,4.18-.12.47.34,1,.37,1.59.09,1.9-.05,3.81.18,5.69.39,3.2-2.17,2.28-3.73,3a30,30,0,0,0-4.9,3c-3.9,2.72-6.59,1.89-8.31-2.63a5.21,5.21,0,0,0-1.21-2.22c-.2,1.27,0,2.82-.73,3.72s-3,1.34-3.18,1.1c-1.09-1.78-5.71.1-4.29-4.1,1-2.92-.58-4-3.25-4.11a26.45,26.45,0,0,0-4,0c-3.22.38-6.55,1.17-6.86-3.14-3.26,0-6.07.2-8.85,0-5.43-.48-9.38,2.55-13.43,5.33S158.1,85.89,154.33,89a22,22,0,0,0-4.81,6c-1.21,2.09-1.78,4.55-2.93,7.66,4.4-1.83,9.81-2.51,12.39-5.56,3-3.58,6.39-4.12,10.08-4.87,4.1-.83,8.3-1.14,12.43-1.81,2.25-.37,4.43-1.27,6.68-1.49s4.88-.47,7,.29c4.16,1.5,4.74,4.79,1.29,7.68-2.12,1.79-5,2.82-7.63,3.85-18,7-36.09,13.82-54.12,20.74-2.14.82-4.16,2-6.32,2.67a26.07,26.07,0,0,1-4.48.69c-.83.84-1.6,2.19-2.73,2.64-12.4,5-24.83,9.83-37.32,14.52-1.61.61-3.65.08-5.88.08l1.51,3.62c-3.85-.79-7.94-.66-8.85-5.89l-4.24,2.81c.89-1.64,1.35-2.5,2.44-4.5l-5.49,1.36-.65-.49c1-.81,1.8-1.93,2.92-2.38,5.8-2.38,11.64-4.71,17.55-6.81,3.64-1.29,4.38-3.32,4-7.14C86.29,114.49,86,106.2,86,97.93c0-10.06.23-20.14.72-30.19.41-8.37,1.37-16.71,2-25.07.21-2.75.17-5.52.36-8.28.22-3.28,1.82-4.94,5.37-4.88,8.32.15,16.64.1,25,0,2.11,0,4.22-.38,6.9-.64l-3.22-4.47.49-.7,5.67,3c-.28,0-.11.06,0,0,4.09-4.51,7.41-3.39,11.58.51,4.85,4.54,9.15,4.11,15.08.11,3.93-2.65,5.65-2.31,9.15,2.2-1.86,1.21-3.56,2.73-5.56,3.51s-4.35.83-6.48,1.92l3.9.51.28,1.06C151.29,38.21,143.87,36.32,140.3,44.21ZM216,76.07c-1.21.24-2.6.33-2.63.56a49.64,49.64,0,0,0-.1,5.18l1.85.1,2.25-13.81L216,67.94ZM155.44,51.53l.2,1.72c2.84,2.31,4.61-1.07,7-1l-.27-1.68Z"/><path class="cls-1" d="M190.77,219.35c-1.28,4.6-6.59,4.11-9.17,7.12-.36.42-1.76.66-2,.4-3.46-4-6.75.17-10.09.11-1.69-3.95-2.56-4.2-6.43-2a19.86,19.86,0,0,1-2.87,1.12l-.62-1.19,5.12-4.06-.3-.61c-1.85.8-3.67,1.72-5.57,2.36a8.19,8.19,0,0,1-2.74-.06c.17-.95.06-2.09.57-2.79.82-1.13,2.05-2,2.64-3.59-.74.53-1.48,1.08-2.24,1.59-2.07,1.37-3.47,3.88-6.8,3-1-.25-2.67,1.48-3.69,2.61-.77.84-1,2.17-1.47,3.29l-2-1.95c1.3-1.28,2.59-2.57,4.5-4.47-2.12.63-3.76.68-4.69,1.51a4,4,0,0,1-5.3.15c-1.05-.93-.78-3.33-1-4.68l-11.44-1.36.09-.89,6.08-3.7c-2.58-1-2.45-.8-4.42.62-.94.68-2.57.31-3.74.78-1.83.74-3.47,2-5.33,2.63a4.23,4.23,0,0,1-5.65-2.52c-1.88-4.29-4-8.52-5.45-13-4.24-13-8.09-26.17-12.34-39.2-1.24-3.79-.24-5.72,3.36-7.18,11.18-4.53,22.29-9.23,33.42-13.9,7.11-3,14.24-5.94,21.29-9.08,2.5-1.12,3.82-.45,5.33,1.67,4.52,6.38,9.29,12.59,14,18.86,2.77,3.71,5.79,7.28,8.23,11.2.78,1.27.4,3.56,0,5.23-.83,3.11,1.13,4.71,3.08,6.2.56.43,1.95-.21,3-.37l.81,2,3.2-2.11c-3,7.66,2.26,8.61,7.75,9.81-1.05,2.84-2.1,5.65-3,8.17l3.83-1.89c.05-.88.13-2.21.21-3.53l1.18-.05a9.63,9.63,0,0,1,.33,2.46,52.63,52.63,0,0,1-1.41,8.34,6.73,6.73,0,0,1-3,3.33c-2.14,1.26-4.55,2.09-6.56,3.89l8.37-3.17c-1.31,5.1,4.29,2.74,6.05,5.14-4.94,2-8,8.32-5.94,11.34l-2.94,3.43-4.24-.91c-.71-.51-1.6-1.6-2.08-1.44-2.78.91-5.46,2.13-8.17,3.24l.19.6Zm-58.43-12,.17.81,10.09-2.58-.17-1-4.25-1.21Z"/><path class="cls-1" d="M91,.23C92.7.14,94,0,95.33,0L226,.12c6.89,0,13.78-.06,20.67.08,1.11,0,3.07.81,3.15,1.43a15.51,15.51,0,0,1-.54,6c-.1.34-2.39.34-3.59.1-3.82-.77-7.57-2-11.41-2.49-2.07-.23-4.27,1-6.45,1.32-.69.11-1.49-.44-2.24-.69l.58-1.5C216.41,5.5,206.4,6.7,196.38,7.88c-1.08.12-2.3-.12-3.23.3-5,2.25-9.38,1.3-14.1-1.1-5.25-2.67-10.25-1.27-14.81,2.41-5,4.06-5.36,3.93-9.86-.47-5.17-5.07-11-4.33-14.74,1.86-.06.11-.11.22-.17.32-4,6.34-4.62,6.35-8.53.09A11.07,11.07,0,0,0,114.87,8.6a55.37,55.37,0,0,0-4.8,4.39c-1.93,1.95-3.72,1.73-5.06-.45-2.48-4.06-5.65-6.69-10.71-6.88C91.28,5.54,90.9,3.16,91,.23Z"/><path class="cls-1" d="M48.54,156.09c-.12,1.17,1.64,2.68-.63,3.46l1.35,3.09-.09-.09.73,4.53-3.77-2c-.71,1.49-1.43,3-2.4,5l-2.65.68,6.73,3.35-5.45,3.49,6.28,2-.06.84c-1.66-.23-3.87.13-4.89-.8-3.14-2.89-3.38-.17-4.52,2,4.45-.45,3.42,3.07,4.24,5.22a10.21,10.21,0,0,1,.92,4.18c-.21,2.74.86,4.44,3.13,5.86,1.15.71,1.85,2.12,2.94,3.45-3.93-.55-6.41-3-6.89-6.71l-7.29,1.56.32,3.54c1.83-.66,3.8-2.09,5.44-1.77s3.2,2.3,4.38,3.24c-.86,1.1-1.49,2-2.18,2.77-.84,1-1.74,1.9-2.62,2.85l-.27-1.05-5.37-.85v4.74l3.23-.23-1.16,3c2.06-.12,4.7-1,6.67-.21,2.21.89,3.82,3.27,5.46,4.79l-7.34,6.69,1.89,1.54a5.53,5.53,0,0,1-1.05.14c-5.19-.39-8.6-4.31-9-9.43a58.21,58.21,0,0,0-2.36-12.5c-1.76-5.58.74-10.31,2.17-15.28a30.26,30.26,0,0,1,2-4.29l-4,.38c.49-2.06.59-4.05,1.42-5.69,3.31-6.51,6.7-13,10.4-19.29.69-1.18,3-1.45,4.48-2.13Z"/><path class="cls-1" d="M299.57,12.6c-3.7.27-3.76,3-4.26,6,1-.16,1.75-.32,2.52-.4,2.55-.28,5-.05,6.06,2.7a5.52,5.52,0,0,1-3.18,6.88,5.3,5.3,0,0,1-6.88-2.35c-1.63-2.59-1.23-9.29.62-11.8,1.67-2.27,5.34-3,7.4-1.37a4.27,4.27,0,0,1,1.22,2.37c.05.25-1,.73-1.54,1.11l-1.35-2.14Zm3.55,9.64c-2.15-1.35-3.41-2.71-4.74-2.78-1-.06-2.85,1.53-2.91,2.47-.12,2.19.26,5.09,3.33,4.83C300.06,26.65,301.14,24.4,303.12,22.24Z"/><path class="cls-1" d="M97,19.41c-.32-1.14-.65-2.29-1-3.56H90.26l-.17-.77,5.51-1.21L93.53,9.63C96.75,9,96.75,9,97.37,13l3.82.75-3.33,1.85c.34,1.07.71,2.26,1.39,4.43.75-2.52,1.19-5,3.65-2.23l-2.62,4.5,3.34,3,1.31-3.35.92.56.88,5.45-1,.94-7.2-5.1-3,1.49c1.13-2.34,3.85-3.79,1.36-6Z"/><path class="cls-1" d="M286.67,18.7c.85,2.49,2.2,4.4,1.77,5.74a6,6,0,0,1-4,3.41c-1.9.3-4.06-.69-6-1.39-.4-.15-.55-1.48-.48-2.23a1.59,1.59,0,0,1,1.31-.84c.57.19.94.88,1.44,1.3.93.76,2.38,2.28,2.74,2.06,1.17-.71,2.54-2,2.7-3.2.12-.9-1.37-2.22-2.42-3-.69-.51-1.87-.35-2.84-1.2.85-.17,2-.05,2.49-.57a7.77,7.77,0,0,0,2.11-3.69c.11-.75-1.3-1.72-2-2.58-.79.9-1.53,1.85-2.39,2.68a10.85,10.85,0,0,1-1.83,1.19c-.22-.82-.8-1.76-.58-2.45.7-2.26,4.72-3.37,7.22-2s2.74,3.45,1.59,5.81A2.82,2.82,0,0,1,286.67,18.7Z"/><path class="cls-1" d="M342.15,19.37c.69-.13,1.64,0,2-.44,1-1,2.19-2.2,2.41-3.47.14-.84-1.27-1.94-2-2.93a31.13,31.13,0,0,1-2.34,2.77,7.53,7.53,0,0,1-1.91,1c-.13-.92-.65-2-.31-2.75,1.06-2.19,5.24-2.94,7.41-1.37,2.44,1.76,2.35,4,.65,6.24-.27.36-.58.7-.86,1,3.13,2.86,3.53,5,1.43,7-2.26,2.18-7.05,2.3-8.93.12a3.64,3.64,0,0,1-.71-2.23c0-.35,1-1.1,1.23-1A9.76,9.76,0,0,1,342,24.87c.84.72,2,2.13,2.5,1.93a5.12,5.12,0,0,0,2.8-2.74c.25-.88-.67-2.48-1.54-3.14s-2.35-.6-3.57-.85Z"/><path class="cls-1" d="M316.56,19.56c2.64,1.78,3.9,3.9,1.7,6.62-1.93,2.4-6.77,2.75-8.88.65a4.41,4.41,0,0,1-.93-2.51c0-.27,1-1.05,1.24-.94.63.34,1,1.05,1.6,1.53.85.72,2.06,2.09,2.58,1.88a5,5,0,0,0,2.78-2.74c.24-.88-.68-2.47-1.56-3.14s-2.35-.6-3.59-1.52c.94-.21,2.22-.11,2.76-.69A6.3,6.3,0,0,0,316,15.12c0-.83-1.32-1.71-2.05-2.57a31.89,31.89,0,0,1-2.28,2.5,13.26,13.26,0,0,1-2.09,1.28c-.09-1-.55-2.11-.19-2.87,1-2.16,5.23-2.88,7.43-1.33s2.25,3.77.91,6A11,11,0,0,1,316.56,19.56Z"/><path class="cls-1" d="M205.55,146.22c-1.48-7.37,1.51-13.34,3.29-19.51,5.34-1.07.58,5.5,4.45,5.24Z"/><path class="cls-1" d="M220,103.89c-.62-1.71-1.09-3-1.66-4.63l-2.21.58a5.48,5.48,0,0,1-.63-1.06c-.54-1.47-1-3-1.55-4.45,1.86-.09,3.8-.54,5.55-.16s4.24,0,4.58,3.08S223.28,102.26,220,103.89Z"/><path class="cls-1" d="M121,20.24a43.19,43.19,0,0,1-1.49,5.66,3.42,3.42,0,0,1-2.25,2c-.75.06-1.6-1.08-1.91-1.32l3.71-4.2-1-.92-5.77,4.78-.63-.54,3.82-4.94L112,19.62l.08-.65,5.11-1.11c-.15-.77-.27-1.4-.39-2l.62-.53,4.11,3.78Z"/><path class="cls-1" d="M240.6,132.8c2.83,7.32-1.19,13-5.3,18.64l4.18-18.79Z"/><path class="cls-1" d="M96.92,19.29c-1.12,2.13-2.24,4.26-3.63,6.88-.32-1.65-.61-3.1-.94-4.74L88,26l-.57-.5c.55-.85,1.1-1.7,1.8-2.75l-2.75-1.39c.62-1.76,4.79.19,3.51-3.81l2.42,1.81L93,17.06,97,19.41Z"/><path class="cls-1" d="M168.71,23.89l-3.31-4.08,1.89-2.44c-2.11-.17-3.12-.64-1.52-2.74a35.91,35.91,0,0,0,2.61-5.06l3.32,4.83-3.82,6.5,1.6,2.34Z"/><path class="cls-1" d="M49.26,162.64a15.38,15.38,0,0,1,1.26-2.25c1.59.6,3.72,1,4.47,2.27.93,1.51.7,3.73,1.06,6.32-2.53-1.41-5.47-1.14-4.5-4.73.09-.33-1.55-1.13-2.38-1.71A.9.9,0,0,0,49.26,162.64Z"/><path class="cls-1" d="M64.45,144.44l9.39,10.4c-4.41-2.2-9-4.22-10.19-9.64Z"/><path class="cls-1" d="M121,20.24l.47-1.17c.63-1.48,1.27-3,1.9-4.43l-.1,0c.56,0,1.28-.15,1.67.13,2.66,1.92,5.25,3.94,7.93,6-3.89,2.6-5.32-1.27-7.15-3Z"/><path class="cls-1" d="M229.06,134.79c-.21-3.24-.42-6.5-.67-10.44,1,.5,2.43.75,2.64,1.38A9.06,9.06,0,0,1,229.06,134.79Z"/><path class="cls-1" d="M217.49,136c2.94.83,2.91,1,2,4.44a59.73,59.73,0,0,0-.74,6.17,12.8,12.8,0,0,1-1.28,2.63Z"/><path class="cls-1" d="M123.4,14.64c.19-2,.37-4,.61-6.64l6.39,3.88-7.09,2.78Z"/><path class="cls-1" d="M195.49,142.8l6.52,4.31c-2.58-.5-4.32-.79-6-1.19a14,14,0,0,1-5.58-2.35l5.21-.69Z"/><path class="cls-1" d="M229.19,137.23,228,147.58l-.88,0V137.2Z"/><path class="cls-1" d="M228.91,95.35v6.72l-.86.26-3.27-6.52Z"/><path class="cls-1" d="M238.71,104.08a56.38,56.38,0,0,1,1.8-5.75c.17-.42,1.39-.41,2.13-.59.07.66.39,1.43.15,2-.76,1.69-1.72,3.28-2.61,4.91Z"/><path class="cls-1" d="M151.12,44.64c4.69-5.42,5-5.57,7.86-3.58Z"/><path class="cls-1" d="M250.35,21.41c2.22,0,4.44-.08,6.65.08.4,0,.72,1.09,1.08,1.68a37.74,37.74,0,0,1-5.15.64,8.92,8.92,0,0,1-2.88-1Z"/><path class="cls-1" d="M114.47,13.82a45,45,0,0,1,3.1-3.39,1.68,1.68,0,0,1,1.61-.11,5.41,5.41,0,0,1,1.73,2.17c.16.42-.57,1.66-.91,1.67C118.12,14.19,116.23,14,114.47,13.82Z"/><path class="cls-1" d="M152.88,49.27c-1.6,1.14-2.43,2.16-3.34,2.24-.63.05-1.38-1.18-2.07-1.84.71-.67,1.35-1.7,2.17-1.88S151.26,48.48,152.88,49.27Z"/><path class="cls-1" d="M215.87,145.34l-3.57,6.58C210.49,147.14,210.49,147.14,215.87,145.34Z"/><path class="cls-1" d="M330.73,309.72l-6.1.88c4.48-3.58,6.92-3.39,9.07.09l-5.8,3.66,7.53,2-.13,1L330.67,320c.08-1.2.13-2,.19-2.86l-1.24-.27c-.37,1.74-.74,3.47-1.13,5.36l5.23-.24c.07.35.14.7.22,1.05l-5.05,1.54c-1.61,6.1,4,5.22,6.93,6.9-3.66,2.77-3.66,2.77-11.08-3.66l-3.14,3.71-1.87-3.23-5.23,4.32-.44-.53q1.77-2.85,3.55-5.7l-.65-.79-7.49,1.87c-.34-1.1-.69-2.2-1.14-3.66l-2.89,2c1.47-4.93,6.31-8.86,2.21-14.43l8.52-1.54c-.08-.95-.2-2.31-.32-3.67l.74-.51,2.47,3.81,3.94.18c0,.36.06.72.1,1.08l-5.15,1.4c.06,4.77,4.87-.23,5.87,3.3l-4.53,1.12c-.12.64-.28,1.53-.48,2.59H323l-2.49,2.68.25,1c.85-.22,1.69-.46,2.55-.65,1-.23,2.05-.42,3.22-.66v-2.85l-3.29-.58-.2-.74,3.87-1.38-1-2.06Zm-14.22,1.85c-5.72,1.14-4,5.72-6,7.9l6,.55Z"/><path class="cls-1" d="M104.69,326.67l14-1.44c-1.71-1.33-2.52-2.43-3.51-2.63-3-.65-6.16-.91-9.25-1.4-1.17-.18-2.31-.58-3.47-.88l.24-1.25h5.11l-.58-6.11-3.32-.3c4.63-2.68,4.63-2.68,6.29-1.15-.31,2.94-.57,5.44-.85,8l3.88.55v-8.73l2.21-.74,0-.56-4.08-.4-.09-.89,3.7-1L113.87,305l.5-.45,3.63,3,2.57-5.46,2,4.45,3.06,1-.13,1-7,.67c5.31.08,5.48.23,5.24,5.7-.08,1.78-.29,3.55-.46,5.59.83.06,1.89.11,2.94.2s1.83.21,2.75.31l.25,1-6.42,2.46,4.31,1.92-.29,1h-6l-1,10.69-4.7-3.95c3.23-1.28,3.23-1.28,2.93-6.21h-7.78c1.3,1.23,2.21,1.79,2.66,2.61s.37,1.83.69,3.78c-3.86-2.44-3.94-8-9.9-5.71Z"/><path class="cls-1" d="M148,321.88c-.79,1.94-5.45,1.17-3.41,5.2l3.56-.6.32.68a102.73,102.73,0,0,1-9.59,5.13c-.81.35-2.39-1.11-3.82-1.85,2.49-2.39,7.68.08,6.84-5.39L137.2,324l4.5-1.77v-3.33a9.53,9.53,0,0,1-2.18.73,10.24,10.24,0,0,1-2.24-.31,7.49,7.49,0,0,1,.6-2.16c1.13-1.76,2.4-3.44,3.64-5.18l-3.35-2.09c3.75-.55,7-3.69,11.21-1.3-4.71.61-5.58,4.74-8.12,7.55,4.09-.39,4.09-.39,4.29-3.85l4.48,5.06c.85-3.88,1.61-7.33,2.39-10.84,3.1.34,3.1.34.63,8.75h7.2c-1.16,2.66-1.77,4.77-2.93,6.53-2.34,3.56-.57,5.76,2.18,7.73,1.54,1.11,3.22,2.05,4.92,3.12-4.24,1.89-6.39,1-10.12-4l-8.57,4-.62-1.27c1.07-.55,2.16-1.08,3.22-1.66,4.89-2.66,5.08-3.43,2-8.61l-2.45.93c-.05-1.35.29-2.92-.3-4-.42-.75-2.09-.81-3.66-1.34.29,2.09.45,3.2.6,4.25Zm6.4,2c.67-2.76,1.13-4.69,1.68-7l-5.2,1.27Z"/><path class="cls-1" d="M288.6,328.63h-7.67l-.11-1.11,7.77-1.32a8.45,8.45,0,0,0,0-1.06c-4.54-.46-3.41-4.69-4.79-7.21a24.42,24.42,0,0,1-1.32-3.65l5-1.37-2.31-4.48,3.74-1-1.65-3.82,8.53,3.88c-.71,1.12-1.6,2.5-2.28,3.55l5.81,1.42-.25,1.14-14,1.9.12,1.09a69.8,69.8,0,0,1,7.26-1.16,20.22,20.22,0,0,1,4.61.74,13.49,13.49,0,0,1-.86,3.5c-1.07,1.92-2.44,3.67-3.87,5.75,2,1.25,6.26-2.64,8.28,2.42l-8.83.6c-.4,2.77-.78,5.37-1.15,8l-1.07,0C289.24,333.84,288.93,331.33,288.6,328.63Z"/><path class="cls-1" d="M79,302.68c4.76,6.05,9.69,10.34,16.77,12.14-5.65.73-8.56,3.91-9.13,8.6H74.43l-2.06-6.15-4.72,1.84C72.17,314.56,77.25,310.66,79,302.68Zm6.54,11.74.23-1.17a8.38,8.38,0,0,0-2-.22c-1.64.2-3.29.83-4.91.75-2.92-.14-2.91-.31-4.44,2.6Z"/><path class="cls-1" d="M245.73,305.3l2.86,1.71-5.07,6.36,5.15-.76-.11-2.22.86-.48,3,4.8-.72,1c-3.84-3.07-6.52-.13-9.58.85l.23,1.22c1.47-.34,3-.62,4.41-1,2.68-.76,3.88.36,3.74,3.11-.16,3.1.14,6.23,0,9.33a54.48,54.48,0,0,1-.76,5.8l-1.31.55c-1-1.43-1.95-2.85-3-4.37l2.39-.27c.06-1.13.12-2.28.24-4.38l-8.8,6.11a40.42,40.42,0,0,0,1.61-5.17c.69-3.6,1.66-7.23-.86-10.7-.44-.61.35-2.32.9-3.35C242.35,310.84,243.89,308.41,245.73,305.3Zm-2.65,21.77,6-2.17-5.15-2.52C243.63,324.06,243.41,325.3,243.08,327.07Z"/><path class="cls-1" d="M188.56,323.92v4.25c3.06.95,7.18-2.43,9.84,3.12-7-1.38-13.41.69-19.84,0l-.07-1.48,7.49-1.05V324.5l-3.64-1.67.19-.69,3.49-.56v-3.47c-3.89-2.34-4.7,2.11-7.15,3.15.84-3.35,1.62-6.5,2.44-9.79,2.92-.1,3,0,2.58,3.71,2.85-.65,3.05-1.85,1.49-9.11,3.17-.38,3.17-.38,3.6,7.42l5.06,1.67c-1.75.73-2.46,1-3.18,1.32s-1.34.44-2.13.69v3.5l4.18,1.11,0,.85Z"/><path class="cls-1" d="M210.48,333.11c4.62-3.8,8-8.33,9.38-14.3l-4.48-2.06c8.59-1.28,5-7.24,6.07-11.23,2.14.47,2.14.47,2.19,9a27.68,27.68,0,0,1,3.34-1c2.6-.46,3.9,1.17,3.36,3.76-.72,3.4-1,6.9-1.89,10.24-.64,2.42-2,4.66-3.3,7.71l-4.91-5.43c1.81-.4,4-.26,4.93-1.26,1.11-1.15,1.36-3.27,1.63-5,.36-2.32.37-4.7.53-7-3.38-.42-4.71.77-5.43,3.66C220.38,326.24,217.18,331.23,210.48,333.11Z"/><path class="cls-1" d="M75,335.48V325.34c2.16-.34,4.57-.69,7-1.1,3-.52,4.56.93,4.2,3.89-.32,2.67-.51,5.34-.85,9C81.93,333.48,78.78,333.44,75,335.48Z"/><path class="cls-1" d="M274.43,332.69a27.45,27.45,0,0,1-.75-4.95c.2-6.64.57-13.28.87-20,1.82-.41,4.39-1.09,7-1.46.56-.08,1.29.94,2.12,1.6a21.17,21.17,0,0,1-1.79,2.33c-1.55,1.54-2,2.9-.53,5,1.28,1.78,2.22,4.05-.18,6.44L278,318.65l.94-.1v-9.13l-.84-.45a12.85,12.85,0,0,0-1.17,3.44c-.25,5.64-.3,11.28-.48,16.92a24.38,24.38,0,0,1-.59,3.36Z"/><path class="cls-1" d="M39.37,335.71c-.8-1.5-1.46-2.73-1.88-3.53,1.32-.8,3-1.24,3.47-2.25.67-1.41.45-3.23.62-4.87A19.23,19.23,0,0,0,38,327.7a61.61,61.61,0,0,0-3.92,5.51l-1.51-1.36,5.58-8.93L32.52,322v-1.15l7.87-1.89L39,315.3l.58-.52L46,319.72l-5.43,1.67c.26.57.33,1.12.65,1.37,1.39,1.12,4.16,2.94,4.07,3.08C43.35,329,44,333.69,39.37,335.71Z"/><path class="cls-1" d="M174,334c-.16-1.94-.47-3.87-.44-5.8.12-6.45.39-12.9.5-19.35a15.06,15.06,0,0,0-.78-3.41c3.64,0,4.21.84,4,4-.08,1.05.91,2.21,1.49,3.28.43.76,1,1.45,1.9,2.76l-3.82-.25c-.49,6.28.42,12.7-1.21,18.85Z"/><path class="cls-1" d="M252.54,319.25c3.29.61,3.88,2.4,2.8,5.27h7.25l.08,1.14-8,1.32c.68,1.73.85,4,2,4.75,2.41,1.53,5.07-.41,7.09-4.54.17.14.49.29.49.44.06,2,.08,4.05.11,6.08-3,0-6,.45-8.86,0s-2.44-3.17-2.45-5.33c0-1.56.14-3.12.07-4.67C253,322.29,252.76,320.91,252.54,319.25Z"/><path class="cls-1" d="M216.29,313.17l-3.45,1.32-.39,7.29,3.57-.55.38.75c-3.14,1.8-6.21,3.76-9.49,5.25-.65.29-2.15-1.27-3-1.81,2.34-1.6,5.35-2.55,6-4.36,1.27-3.32.16-4.58-4.33-7.95C209.58,313.43,212.64,310.28,216.29,313.17Z"/><path class="cls-1" d="M253.62,305.66l2.91,5h5.32l.09,1.07-6.07,1.18c-1,3.68-.22,4.56,3.65,3.95a9,9,0,0,1,4.68.42,7.92,7.92,0,0,1-8.85,1.19c-1.28-.57-1.73-3.5-2.12-5.45a53,53,0,0,1-.58-6.68Z"/><path class="cls-1" d="M49.69,313.76l11.23,9.91c-6,3.23-7-3.1-9.86-5.83L46,323.63l-.55-.44C46.87,320,48.3,316.85,49.69,313.76Z"/><path class="cls-1" d="M53.66,307.25l3.88,1.22-.18,1.14c-3,.77-7.14-1.21-8.6,3.83l-1-1,2-9.67Z"/><path class="cls-1" d="M45.28,309.22c-.61,1.45-1.12,2.69-1.46,3.51l-8.18-1.11.08-1.09,5.43-1.12L40,306.61l.79-.89Z"/><path class="cls-1" d="M47.28,329.52c5.72.51,7.23,2.08,6.29,7.16Z"/><path class="cls-1" d="M172.58,314.9c-.34,2.64-.68,5.28-1.1,8.56C168.49,320.87,168.75,318.91,172.58,314.9Z"/><path class="cls-1" d="M53.59,328.27l-5-5.38C53.25,323.37,54.27,324.41,53.59,328.27Z"/><path class="cls-1" d="M17,329.9l-8.66,3.87L8.14,333c2.37-2.09,5.16-3.91,6.89-6.44.56-.83-1.62-3.53-2.48-5.24C10.05,325,7.68,328.54,5.3,332l-1.08-.7c.35-.7.77-1.38,1-2.1,2-5.13,4.08-10.22,5.84-15.43.39-1.16-.39-2.72-.73-4.64a46.5,46.5,0,0,1,6.43-2.52c1-.26,2.6.49,3.48,1.28.46.42.15,2-.15,2.91-.49,1.5-1.26,2.9-2.05,4.68,3.71.59,5.16,2,2.7,5.35-1.12,1.54-1.47,3.63-2.34,5.91l8,6.16C21.34,335,21.34,335,17,329.9Zm.16-21.31c-4.74,2.19-2.24,6.39-4.71,9.53C16.22,316.64,17,314.87,17.18,308.59ZM13.67,320l3.15,4.58c.57-2.37.95-4,1.48-6.18Z"/><path class="cls-1" d="M0,313.19a38.64,38.64,0,0,1,5.29-1.58,4.55,4.55,0,0,1,3.2.72c.52.41.48,1.84.3,2.74-.36,1.85-1,3.64-1.53,5.56l-5.32,2.05c-.27-1.41-.59-3.11-.93-4.8S.31,314.61,0,313.19Z"/><path class="cls-2" d="M286.34,181.39a17.54,17.54,0,0,1-1,1.62l.59.23c0,.12-.18.21-.42.25v6.82a1.39,1.39,0,0,1-.85.31h-.2v-6.47a10.6,10.6,0,0,1-1.4,1.44l-.17-.15a19.09,19.09,0,0,0,2.54-4.92l1.3.6h1.05c.08-.43.16-1,.25-1.55h-1.24l-.13-.41h1.43q.12-.74.21-1.41l1.41.17c0,.18-.18.33-.46.36l-.14.88h1.08l.56-.59,1.18.89a1.19,1.19,0,0,1-.61.28v1.38h.13l.59-.78s.66.56,1.06,1c0,.16-.16.23-.36.23h-6.25l0-.13Zm.3-3c-.08.15-.19.21-.51.17a14,14,0,0,1-3,2.92l-.17-.15a16.52,16.52,0,0,0,2.25-3.64Zm3.32,9.82v2.06c0,.07-.33.28-.85.28h-.18v-2.34h-1.36l-.42.46-1-.73a1.88,1.88,0,0,1,.49-.26c.13-.47.26-1.08.36-1.5h-.75l-.12-.42h2.78V184.6H288v.22c0,.09-.46.3-.85.3H287v-3.28l1.06.45h2.27l.5-.51,1.07.8a.71.71,0,0,1-.46.24v1.81a1.49,1.49,0,0,1-.85.29h-.15v-.32H290v1.19h.75l.56-.72a12.66,12.66,0,0,1,1,.91c0,.16-.14.23-.33.23h-2v1.62H291l.62-.75s.67.53,1.11.93a.32.32,0,0,1-.35.23Zm-1-.41v-1.62H288c-.13.47-.28,1.13-.42,1.62Zm-.93-3.64h2.44v-1.48H288Zm.77-3.07h1.53v-1.55H289Zm6,.06s.76.6,1.22,1c0,.15-.17.22-.37.22h-1v6.67c0,.8-.2,1.36-1.59,1.5a1.14,1.14,0,0,0-.26-.76,2.57,2.57,0,0,0-1.22-.39v-.21s1.4.1,1.71.1.3-.07.3-.27v-6.64H292l-.11-.42h2.26Zm-2.63-1.78L292,179h1.75l.68-.84s.77.59,1.23,1a.33.33,0,0,1-.36.22Z"/><path class="cls-2" d="M301.6,183.87c2.71,1.09,1.94,2.83,1,2.17a5.06,5.06,0,0,0-1-1.82v6c0,.1-.38.38-.9.38h-.18v-5.67a12.76,12.76,0,0,1-2.08,1.65l-.15-.12a15.23,15.23,0,0,0,3.7-5.38h-3.31l-.12-.41H302l.69-.66,1.15,1.12c-.13.12-.31.13-.63.17a13,13,0,0,1-1.57,2.44Zm-1.47-6.14c3,.89,2,2.94,1,2.13a4.79,4.79,0,0,0-1.12-2Zm9.95.17s.8.62,1.31,1.08c0,.15-.18.22-.38.22H303.6l-.11-.4h5.89Zm0,6.11,1.23,1a1,1,0,0,1-.6.28v4.95a1.51,1.51,0,0,1-.88.32h-.18v-.77h-4.91v.51c0,.11-.45.35-.88.35h-.17v-6.46l1.12.49h4.69Zm-1.09-.37v-.49h-3.52v.33a1.32,1.32,0,0,1-.88.32h-.16V180l1.11.49h3.31l.57-.62,1.25.94a1.19,1.19,0,0,1-.61.28v2.23a1.54,1.54,0,0,1-.89.3Zm-4.25,1.42v1.85h2v-1.85Zm0,4.29h2v-2h-2Zm4.25-6.6v-1.84h-3.52v1.84Zm-1.29,2.31v1.85h1.95v-1.85Zm1.95,4.29v-2h-1.95v2Z"/><path class="cls-2" d="M320.57,182.57s.78.63,1.27,1.07c0,.16-.18.23-.36.23h-7.3l-.11-.41h4.26a30.39,30.39,0,0,0,.8-3l1.58.58a.42.42,0,0,1-.49.25,19.86,19.86,0,0,1-1.58,2.21h1.21Zm-6.16-2.37-.12-.41h5.21l.7-.85s.77.61,1.26,1a.33.33,0,0,1-.36.23Zm1,.39c2.62,1.47,1.52,3.4.61,2.52a6.17,6.17,0,0,0-.77-2.45Zm4.38,4.12,1.11.87a.79.79,0,0,1-.52.24v4a1.21,1.21,0,0,1-.9.29h-.18v-.93h-3v.91c0,.08-.34.29-.87.29h-.17v-5.57l1.19.49h2.82Zm-.49,4.09v-3.05h-3v3.05Zm-2.67-11.09c2.74.7,1.65,2.68.67,1.87a3.12,3.12,0,0,0-.81-1.78Zm10.46,1.69c-.11.13-.31.15-.64.17a37.88,37.88,0,0,1-2.15,3.53c1.74,1.13,2.4,2.44,2.4,3.61,0,1.4-.53,2.1-2.15,2.16a1.59,1.59,0,0,0-.19-.86,1.77,1.77,0,0,0-.86-.26v-.23h1.32a.78.78,0,0,0,.38-.07c.28-.15.42-.43.42-1a4.51,4.51,0,0,0-1.68-3.31c.39-.94,1-2.69,1.3-3.88h-2.07v11a1,1,0,0,1-.9.37h-.18V178.22l1.26.63h1.84l.68-.65Z"/><path class="cls-2" d="M335.66,180.71a2.05,2.05,0,0,1,1.58.66,2.34,2.34,0,0,1,.6,1.63,3,3,0,0,1-.14.85,6.71,6.71,0,0,1-.3.8,5.17,5.17,0,0,1-.51.82c-.22.31-.42.55-.57.74s-.38.43-.68.74l-.64.64-.64.6s0,0,0,.06a.07.07,0,0,0,.07.05h2.48a.84.84,0,0,0,.53-.17,1,1,0,0,0,.29-.37,5.89,5.89,0,0,0,.2-.6c0-.08.1-.12.21-.12a.47.47,0,0,1,.28.07c-.26,1.21-.41,1.93-.45,2.17s-.09.21-.22.21H333c-.1-.06-.15-.2-.16-.44a20.2,20.2,0,0,0,2.44-3.11,5.35,5.35,0,0,0,1-2.68,1.62,1.62,0,0,0-.35-1.09,1.12,1.12,0,0,0-.91-.42,1.45,1.45,0,0,0-.35,0l-.32.1a1.35,1.35,0,0,0-.26.15l-.22.17a1.53,1.53,0,0,0-.19.18,1.1,1.1,0,0,0-.13.17l-.1.15c0,.06-.07.09-.07.1a.37.37,0,0,1-.21-.09.26.26,0,0,1-.11-.19,2.32,2.32,0,0,1,.26-.48,4.29,4.29,0,0,1,.48-.58,2.35,2.35,0,0,1,.8-.54A2.5,2.5,0,0,1,335.66,180.71Z"/><path class="cls-2" d="M341.58,188.24a5.55,5.55,0,0,1,0-6.12,2.66,2.66,0,0,1,2.17-1.29,2.61,2.61,0,0,1,2.14,1.29,5.6,5.6,0,0,1,0,6.12,2.61,2.61,0,0,1-2.14,1.29A2.66,2.66,0,0,1,341.58,188.24Zm.67-3.07a7.15,7.15,0,0,0,.43,2.67q.45,1.08,1.08,1.08t1.08-1.08a8.12,8.12,0,0,0,.39-2.74,7.34,7.34,0,0,0-.41-2.65c-.26-.69-.62-1-1.06-1s-.81.35-1.09,1.06A7.34,7.34,0,0,0,342.25,185.17Z"/><path class="cls-2" d="M349.71,182.9a.34.34,0,0,1-.15-.16.37.37,0,0,1-.07-.19.29.29,0,0,1,0-.12l1.33-.87c.44-.28.78-.49,1-.63a3.45,3.45,0,0,1,.38-.22h0c.07,0,.12.08.16.24a5.24,5.24,0,0,0-.12,1.29v5.44a4,4,0,0,0,.11,1.09c0,.08.14.15.37.21a2.32,2.32,0,0,0,.47.1s.05.09.05.27a.78.78,0,0,1,0,.19,6.34,6.34,0,0,0-.71,0c-.46,0-.79-.05-1-.05s-.55,0-1,.05-.67,0-.71,0a.46.46,0,0,1-.05-.26c0-.14,0-.2.05-.2a2.23,2.23,0,0,0,.51-.11c.24-.07.36-.13.38-.2a3,3,0,0,0,.08-.79v-4.76a3.3,3.3,0,0,0,0-.51.69.69,0,0,0-.07-.23.17.17,0,0,0-.13,0l-.13,0-.2.1-.19.11-.22.12Z"/><path class="cls-2" d="M360.68,180.68c.14,0,.22,0,.22.14v5.41h.69c.15,0,.22.25.22.74,0,.05,0,.09-.11.14h-.8v2.35a1.75,1.75,0,0,1-.74.11q-.66,0-.66-.15v-2.31h-3.43a.84.84,0,0,1-.15-.55c.31-.36,1.08-1.35,2.3-3s1.93-2.53,2.12-2.76A.47.47,0,0,1,360.68,180.68Zm-1.18,5.55V183c0-.07,0-.11-.05-.11l0,0-2.36,3.12a.05.05,0,0,0,0,0c0,.08,0,.12.1.12Z"/><path class="cls-2" d="M379.12,185.58s.91.67,1.44,1.16c0,.15-.18.22-.36.22h-4.82v3.3c0,.08-.38.35-1,.35h-.21V187h-6.4l-.12-.4h2.43v-4.25l1.34.55h2.75v-2.65h-3a12.45,12.45,0,0,1-3.38,3.28l-.18-.15a16.45,16.45,0,0,0,3.54-5.84l1.7.65c-.07.16-.25.28-.58.24-.25.49-.53,1-.82,1.42h6.44l.79-1s.86.63,1.44,1.15c0,.15-.18.22-.39.22h-4.33v2.65h2.18l.73-.92s.83.64,1.35,1.1c0,.14-.19.21-.38.21h-3.88v3.31h2.95Zm-4.93,1v-3.31h-2.92v3.31Z"/><path class="cls-2" d="M385,179.48a1.68,1.68,0,0,1-.64,1.56c-.35.21-.85.2-1-.17a.65.65,0,0,1,.39-.78,1.65,1.65,0,0,0,.79-1.61h.24a3.57,3.57,0,0,1,.16.6h4.7a.88.88,0,0,1-.38-.2,1.58,1.58,0,0,0-.44-1.19l.14-.08c1.87.17,1.6,1.34.93,1.47h4.54l.61-.63,1.15,1.09c-.1.1-.25.13-.53.15a7.31,7.31,0,0,1-1.28,1.19l-.18-.09a13.32,13.32,0,0,0,.31-1.31Zm9.88,1.45a14.23,14.23,0,0,1,1.17.89c0,.16-.17.23-.36.23h-2.16c0,.49-.06,1-.08,1.45a1.54,1.54,0,0,1-1,.13l0-.27h-5.76l-.41.47-1.1-.75a2.25,2.25,0,0,1,.49-.28c0-.22.07-.47.1-.75h-2.27l-.13-.41h2.45c.07-.64.13-1.33.16-1.79l1.26.49h5.22l.48-.56,1.23.91a1,1,0,0,1-.59.25c0,.2,0,.42,0,.7h.71ZM388,188.46l1.17.86c-.11.12-.35.15-.7.05a15.22,15.22,0,0,1-5,1.24l-.06-.24a12.61,12.61,0,0,0,4.39-1.91h-1.53v.1c0,.11-.49.35-.94.35h-.17v-5.22l1.19.5h6.36l.55-.57,1.13.88a.82.82,0,0,1-.45.22v3.7c0,.1-.56.32-.92.32h-.18v-.28Zm-1.71-3.86v.86h6.57v-.86Zm6.57,1.27h-6.57v.88h6.57Zm-6.57,2.19h6.57v-.9h-6.57Zm2.63-5.1c0-.27.07-.58.09-.91h-2.32c0,.32-.09.63-.13.91Zm-2.07-2.21c0,.27-.07.57-.11.89h2.31c0-.32,0-.62.05-.89Zm5.55,2.21c0-.31,0-.6.05-.91H390c0,.33-.06.64-.09.91Zm-2.29-2.21c0,.27,0,.58-.07.89h2.43l0-.89Zm.31,8c6.92.29,5.1,2.51,3.91,1.74a11.61,11.61,0,0,0-4-1.5Z"/><path class="cls-2" d="M404,183.24a.89.89,0,0,1-.56.22c-.1,4.32-.38,6-.93,6.53a1.75,1.75,0,0,1-1.34.52,1,1,0,0,0-.18-.72,1.49,1.49,0,0,0-.79-.32l0-.24c.35,0,.88.07,1.12.07s.33,0,.44-.15c.36-.36.57-2,.66-5.83h-1.34a14.9,14.9,0,0,1-2.23,7.2l-.19-.12a24.36,24.36,0,0,0,1.44-9.67h-1.33l-.11-.41h3.65l.65-.89s.75.63,1.2,1.08c0,.15-.17.22-.36.22h-2.58c0,.72,0,1.46-.1,2.19h1.16l.59-.61Zm-3.84-5.51c2.8.94,1.83,3,.88,2.19a4,4,0,0,0-1-2.09Zm3.39,4.68a15,15,0,0,0,1.71-4.69l1.65.45c-.05.17-.22.29-.53.28a11.67,11.67,0,0,1-.74,1.64h4l.72-.94s.84.66,1.36,1.12c0,.15-.18.22-.38.22h-5.9a8,8,0,0,1-1.65,2.06Zm7.58,6.68c.39.13.5.26.5.45,0,.51-.57.69-3.29.69h-1.88c-1.34,0-1.71-.24-1.71-1.15v-4l-.77.3-.28-.33,1.05-.41v-2.54l1.49.15c0,.19-.15.33-.46.37v1.61l1.48-.58v-2.7l1.5.17c0,.19-.15.34-.52.38v1.75l1.63-.65.57-.6,1,1.09a.85.85,0,0,1-.55.16,19.08,19.08,0,0,1-1.55,4.42l-.19-.11a34.5,34.5,0,0,0,.69-4.52l-1.64.66v4.42c0,.11-.42.32-.78.32h-.2v-4.37l-1.48.59v4.19c0,.32.11.42.81.42h1.81c.79,0,1.42,0,1.68,0a.43.43,0,0,0,.35-.17,8.67,8.67,0,0,0,.49-1.61h.18Z"/><path class="cls-2" d="M286.08,213.54c1.2,1.23,2.75,1.48,5.45,1.48,1.56,0,2.8,0,4.39-.08v.18a1.12,1.12,0,0,0-.87,1h-3.92c-2.75,0-4-.52-5.26-2.2-.19-.25-.33-.21-.49,0-.29.45-1,1.43-1.45,2.15a.27.27,0,0,1-.1.32l-.95-1.33a18.73,18.73,0,0,1,2.67-1.78h.1a22,22,0,0,0,7-5.83h-8.91l-.13-.42h9.16l.79-.69,1.16,1.1c-.11.14-.27.18-.64.19a19.91,19.91,0,0,1-8.09,5.8Zm1.38-9.82c3.61,1.11,2.69,3.68,1.48,2.81a5.78,5.78,0,0,0-1.62-2.7Z"/><path class="cls-2" d="M304.44,211.12a.83.83,0,0,1-.55.21c-.11,3-.35,4.3-.86,4.76a2,2,0,0,1-1.29.43.93.93,0,0,0-.19-.71,1.82,1.82,0,0,0-.81-.32l0-.24c.33,0,.92.07,1.14.07a.6.6,0,0,0,.43-.11c.27-.29.47-1.49.55-4h-1.52a7.76,7.76,0,0,1-2.66,5.43l-.2-.16c1.68-2.3,1.85-5,1.91-7.53h-1.7l-.11-.4h4.57l.68-.91s.77.63,1.25,1.09c0,.15-.17.22-.37.22h-3.2c0,.62-.06,1.25-.12,1.85h1.35l.56-.57Zm-5.78-6h2.67l-.18-1.39,1.52.13c0,.15-.12.31-.4.39l.12.87h.82l.61-.84s.75.59,1.18,1a.33.33,0,0,1-.36.23h-2.19l.14,1a1.27,1.27,0,0,1-1,.33l-.16-1.33h-2.64Zm1.87,1.55c2.66.48,1.77,2.4.8,1.71a3.08,3.08,0,0,0-.92-1.61Zm8,.54c0,.15-.15.24-.49.26a8.1,8.1,0,0,0,3.46,3.35l0,.18a1.3,1.3,0,0,0-.7,1,10,10,0,0,1-2.93-4.39,9.61,9.61,0,0,1-3.54,4.5l-.11-.21a11.27,11.27,0,0,0,2.69-5.07Zm-3.22-2.09H307l.23-1.41,1.52.3c-.05.19-.19.33-.55.34l-.13.77h1.46l.63-.84s.74.59,1.19,1c0,.16-.18.23-.38.23h-3l-.18,1.05a1.4,1.4,0,0,1-1.08.11l.2-1.16h-1.5Zm.14,8.39c4.93.87,4.65,3.53,3.32,2.94a10.47,10.47,0,0,0-3.43-2.79Zm.85-2.76c3.2.48,2.45,2.79,1.32,2.09a3.75,3.75,0,0,0-1.44-2Z"/><path class="cls-2" d="M318.94,210.09l1.25.95a1.09,1.09,0,0,1-.57.29v4.59a1.5,1.5,0,0,1-.94.35h-.17v-1h-2.7v.93c0,.11-.45.36-.91.36h-.17v-6.29l1.15.49h2.49Zm-.43,4.74v-3.7h-2.7v3.7Zm-.43-5.42a1.31,1.31,0,0,1-1,.36H317v-5.7l1.21.52h4.55l.59-.66,1.26,1a1.08,1.08,0,0,1-.59.28v4.15a1.53,1.53,0,0,1-.94.35h-.18v-1h-4.77Zm0-4.42v3.24h4.77V205Zm8.74,6a1.11,1.11,0,0,1-.59.3v4.71a1.74,1.74,0,0,1-.93.3h-.18v-1.12h-2.8v1c0,.11-.46.36-.93.36h-.16v-6.32l1.16.49H325l.57-.63Zm-1.7,3.79v-3.7h-2.8v3.7Z"/><path class="cls-2" d="M332.27,207.73a.49.49,0,0,1-.43.23v8.32a1.27,1.27,0,0,1-.86.33h-.19v-7.54a13.51,13.51,0,0,1-1.33,1.92l-.21-.13a27.53,27.53,0,0,0,2.33-7.15l1.64.47a.53.53,0,0,1-.54.3,24.08,24.08,0,0,1-1.08,3Zm3.64,1.94c-.1.13-.24.17-.5.21a12.27,12.27,0,0,1-.94,4c1.22,1.11,2.9,1.39,5.29,1.39h2.72v.18a.87.87,0,0,0-.64.9h-2.19c-2.55,0-4.3-.41-5.5-1.84a6.36,6.36,0,0,1-2.16,2.12l-.13-.21a6.44,6.44,0,0,0,1.83-2.58,10.21,10.21,0,0,1-1.17-3l.2-.09a8.33,8.33,0,0,0,1.16,2.5,15.71,15.71,0,0,0,.52-3.48h-.88l-.41.39-.94-.71a2.49,2.49,0,0,1,.49-.24,38.67,38.67,0,0,0,1.42-3.67h-1.39l-.13-.4H334l.53-.55,1.1,1a1.12,1.12,0,0,1-.64.22c-.35.94-1,2.52-1.44,3.59h.68l.56-.58Zm5.82-3.42a10.5,10.5,0,0,1,.82.94c0,.16-.15.23-.33.23H341v2a1.36,1.36,0,0,1-.82.3h-.15v-.37h-1.42v1.5H340l.58-.78s.64.57,1,1c0,.15-.15.22-.35.22h-2.58v1.41h1.88l.59-.83s.67.59,1.08,1c0,.15-.17.22-.37.22h-3.18v1.5c0,.13-.43.35-.79.35h-.2v-1.85h-2.34l-.11-.4h2.45v-1.41h-1.86l-.12-.41h2v-1.5H336l-.12-.42h1.75v-1.5H335.1L335,207h2.66v-1.47h-1.77l-.12-.42h1.89v-1.4l1.47.15c0,.2-.14.34-.48.38v.87H340l.49-.5,1.05.79a.82.82,0,0,1-.46.23V207h.26Zm-3.09.76h1.42v-1.47h-1.42Zm1.42.41h-1.42v1.5h1.42Z"/><path class="cls-2" d="M347.26,209.14c0,2.37-.14,5.39-2.25,7.45l-.2-.11c1.31-2.14,1.42-4.81,1.42-7.34v-4.3l1.23.5h8.25l.71-.93s.83.64,1.32,1.12c0,.15-.17.22-.36.22H347.26Zm3.65,4.51c-.7.5-1.73,1.26-3.07,2.16a.54.54,0,0,1-.28.38l-.69-1.22c.69-.21,2.33-.84,4-1.5Zm6-5.41s.6.51,1,.89a.32.32,0,0,1-.35.22H356.1v1.75a1.31,1.31,0,0,1-.61.35l.95.67c-.08.13-.21.17-.52.09a27.57,27.57,0,0,1-2.67,1l-.12-.14c.55-.42,1.33-1.16,1.87-1.67v-.32h-2.47v4.13c0,.84-.17,1.33-1.58,1.47a1.17,1.17,0,0,0-.27-.75,2.05,2.05,0,0,0-1.1-.4v-.22s1.27.11,1.54.11.3-.07.3-.26v-4.08h-3.13l-.13-.42h3.26v-1.36h-3.75l-.11-.41h3.86v-1.33h-3l-.12-.42h3.16v-1.27l1.62.18c0,.2-.17.32-.51.38v.71h2.35l.54-.56,1.12.87a.7.7,0,0,1-.44.21v1.23h.37ZM348,211.49c3.32.12,2.9,2.22,1.76,1.75a6.85,6.85,0,0,0-1.86-1.61Zm2.92-7.87c2.76.34,1.73,2.24.72,1.51a3.56,3.56,0,0,0-.84-1.41Zm1.6,5.32H355v-1.33h-2.47Zm2.47.41h-2.47v1.36H355Zm-1.91,4.36c4.55.42,4.48,2.73,3.2,2.39a12.89,12.89,0,0,0-3.31-2.24Z"/><path class="cls-2" d="M371.91,209.85s.8.62,1.3,1.08c0,.16-.18.23-.38.23H360.88l-.12-.41h6.13l0,0a1.77,1.77,0,0,0-.54-.85l-.09.07a1.44,1.44,0,0,1-.88.28.75.75,0,0,0-.18-.53,1.3,1.3,0,0,0-.72-.3l0-.22a1.14,1.14,0,0,1-.44.11h-.14V209h-1.45v.27c0,.07-.38.25-.7.25h-.14v-1.89a6.68,6.68,0,0,1-1,.8l-.2-.17a7.71,7.71,0,0,0,1.53-2.76l.71.27v-.6H360.7l-.12-.41h2v-1.06l1.44.13c0,.22-.16.34-.54.4v1.47s-.2.15-.44.22l.13,0a.47.47,0,0,1-.5.26l-.07.11h3.2l.54-.52,1,.84a.75.75,0,0,1-.49.2,7.82,7.82,0,0,1-.45,2.77c1.43.06,1.46.85,1.05,1.12h3.7Zm-7.19-.85s-.11.11-.25.17c.28,0,.74,0,.91,0s.16,0,.21-.08a6.21,6.21,0,0,0,.37-2.37h-3.59c-.11.14-.22.28-.34.41l.47.19h1.27l.45-.45,1,.72a.93.93,0,0,1-.47.22Zm-.84-.39v-.86h-1.45v.86Zm6.14,2.56s.68.46,1.15.84c0,.16-.17.23-.37.23h-8.08l-.11-.41h6.78Zm-7.41,1.75h6.81l.61-.64s.7.45,1.16.82c0,.16-.18.23-.37.23h-8.1Zm7.66.59,1.12.83a1.06,1.06,0,0,1-.43.22v1.61a1.57,1.57,0,0,1-.93.32h-.18V216H363.7v.26c0,.09-.5.32-.92.32h-.16v-3l1.17.49h5.95Zm-.42,2.07v-1.13H363.7v1.13Zm-4.29-9.7c0,.08-.4.26-.77.26h-.16v-2.43l1.48.13c0,.22-.17.34-.55.38v.56h.91l.52-.67s.59.51.93.87c0,.15-.16.22-.34.22h-2Zm6.63-1.43s.73.59,1.19,1c0,.15-.18.22-.38.22h-.66a5.79,5.79,0,0,1-1.06,2.05c2.14,1.16,1.82,2.41.88,2.1a13.23,13.23,0,0,0-1.54-1.43,8.09,8.09,0,0,1-2.94,1.53l-.1-.21A6.86,6.86,0,0,0,370,208c-.53-.4-1.08-.78-1.55-1.08l.14-.15a17,17,0,0,1,1.87.62,5.72,5.72,0,0,0,.7-1.66H369a7.31,7.31,0,0,1-1.61,2.34l-.23-.11a12.21,12.21,0,0,0,1.31-4.24L370,204a.48.48,0,0,1-.48.31c-.1.31-.22.64-.36,1h2.4Z"/><path class="cls-2" d="M375.93,215a13.8,13.8,0,0,0,3-4.85l1.58.72c-.07.15-.19.22-.53.18a12.15,12.15,0,0,1-3.93,4.1Zm11.51-7.62s.89.67,1.45,1.16c0,.15-.18.22-.38.22H383v7.5a1.26,1.26,0,0,1-1,.31h-.19V208.8h-5.67l-.13-.4h10.62Zm-9.74-1.92-.11-.41h7.67l.79-1s.87.66,1.41,1.13c0,.16-.18.23-.38.23Zm7,4.87c4.92,2.4,4.19,5.42,2.83,4.49a12.82,12.82,0,0,0-3-4.38Z"/><path class="cls-2" d="M404.24,204.9a1.12,1.12,0,0,1-.61.28v10.94a1.47,1.47,0,0,1-.91.36h-.17v-.73h-9.27v.45c0,.15-.39.42-.87.42h-.19V204l1.16.53h9l.57-.67Zm-1.69,10.45V205h-9.27v10.36ZM401.14,208s.66.51,1.08.9c0,.16-.17.23-.37.23h-8l-.11-.41h3.62v-.93H396V208c0,.09-.44.31-.84.31h-.14v-2.79l1.05.45h3.56l.49-.52,1.09.82a.83.83,0,0,1-.48.21v1.44c0,.1-.52.29-.82.29h-.17v-.38h-1.38v.93h2.16Zm-.46,1.35,1,.81a.71.71,0,0,1-.44.23v4.07a1.25,1.25,0,0,1-.82.3h-.15v-.61h-4.76v.47c0,.09-.42.3-.82.3h-.15v-5.5l1,.46h4.58Zm-.38,4.4v-3.46h-4.76v3.46Zm-.53-6.36v-1H396v1Zm.08,3.88a.78.78,0,0,1-.39.19v1.6c0,.09-.42.27-.67.27h-.12v-.45h-1.48v.25c0,.07-.35.24-.67.24h-.13v-2.73l.86.38h1.34l.39-.41Zm-1.18,1.2v-1.05h-1.48v1.05Z"/><path class="cls-2" d="M417.46,207.21a12,12,0,0,1-3.19,5.8,15.76,15.76,0,0,0,5.73,2.48l0,.15a1.44,1.44,0,0,0-1.23,1,13.25,13.25,0,0,1-5.26-2.9,15.82,15.82,0,0,1-6.41,2.92l-.1-.21a15.46,15.46,0,0,0,5.87-3.34,12.61,12.61,0,0,1-2.87-5.87h-2.79l-.11-.42H417.6l.8-1s.9.7,1.43,1.22c0,.16-.18.23-.38.23Zm-7.21,0a10.79,10.79,0,0,0,3.24,5.17,11.33,11.33,0,0,0,2.57-5.17Zm1.81-3.49c3.65.9,2.81,3.39,1.59,2.59a5.79,5.79,0,0,0-1.72-2.48Z"/></g></svg>