<svg xmlns="http://www.w3.org/2000/svg" viewBox="0 0 20.322 20.322">
  <defs>
    <style>
      .cls-1 {
        fill: #fff;
      }

      .cls-2 {
        fill: #00c329;
      }
    </style>
  </defs>
  <path class="cls-1" d="M18.921,20.322H1.4a1.406,1.406,0,0,1-1.4-1.4V1.4A1.406,1.406,0,0,1,1.4,0h17.52a1.406,1.406,0,0,1,1.4,1.4v17.52a1.406,1.406,0,0,1-1.4,1.4"/>
  <g transform="translate(2.715 3.116)">
    <path class="cls-2" d="M83.288,84.728a3.425,3.425,0,0,1-.06.449,5.022,5.022,0,0,1-.568,1.631c-.135.242-.786,1.155-.984,1.4a17.6,17.6,0,0,1-6.025,4.342.4.4,0,0,1-.579-.409l.155-1.4a.406.406,0,0,0-.357-.449c-3.656-.381-6.47-2.866-6.47-5.87,0-3.271,3.334-5.922,7.442-5.922,4,0,7.256,2.5,7.434,5.644A5.082,5.082,0,0,1,83.288,84.728Z" transform="translate(-68.4 -78.5)"/>
  </g>
  <path class="cls-1" d="M200.764,185.5H200.6a.3.3,0,0,0-.3.3v3.04a.3.3,0,0,0,.3.3h.167a.3.3,0,0,0,.3-.3V185.8A.3.3,0,0,0,200.764,185.5Z" transform="translate(-192.35 -178.137)"/>
  <path class="cls-1" d="M236.488,185.494a.388.388,0,0,0-.27.111.381.381,0,0,0-.111.27v1.754s-1.52-1.985-1.544-2.008a.371.371,0,0,0-.3-.127.392.392,0,0,0-.365.4v2.858a.381.381,0,0,0,.381.381.388.388,0,0,0,.27-.111.381.381,0,0,0,.111-.27V187s1.544,2,1.568,2.02a.377.377,0,0,0,.258.1.4.4,0,0,0,.385-.4v-2.858A.386.386,0,0,0,236.488,185.494Z" transform="translate(-224.616 -178.132)"/>
  <path class="cls-1" d="M135.505,188.374h-1.143v-2.493a.381.381,0,0,0-.381-.381.388.388,0,0,0-.27.111.381.381,0,0,0-.111.27v2.874a.381.381,0,0,0,.381.381h1.524a.381.381,0,0,0,.381-.381.379.379,0,0,0-.381-.381Z" transform="translate(-128.297 -178.137)"/>
  <path class="cls-1" d="M325.005,186.262a.381.381,0,1,0,0-.762h-1.524a.381.381,0,0,0-.381.381v2.874a.381.381,0,0,0,.381.381h1.524a.381.381,0,0,0,.381-.381.388.388,0,0,0-.111-.27.381.381,0,0,0-.27-.111h-1.143V187.7h1.143a.381.381,0,0,0,.381-.381.388.388,0,0,0-.111-.27.381.381,0,0,0-.27-.111h-1.143v-.675Z" transform="translate(-310.276 -178.137)"/>
</svg>
