<svg xmlns="http://www.w3.org/2000/svg" viewBox="0 0 108.605 17.826">
  <defs>
    <style>
      .cls-1 {
        fill: #bf2923;
      }

      .cls-2 {
        fill: #888;
      }

      .cls-3 {
        fill: #231815;
      }
    </style>
  </defs>
  <rect class="cls-1" width="0.186" height="6.541" transform="translate(0.155 6.262)"/>
  <rect id="Rectangle_179" data-name="Rectangle 179" class="cls-1" width="0.186" height="6.975" transform="translate(1.333 5.828)"/>
  <rect class="cls-1" width="0.186" height="7.255" transform="translate(2.48 5.549)"/>
  <rect class="cls-1" width="0.186" height="9.146" transform="translate(3.658 3.658)"/>
  <rect class="cls-1" width="0.186" height="11.13" transform="translate(4.836 1.705)"/>
  <rect class="cls-1" width="0.186" height="11.533" transform="translate(5.983 1.271)"/>
  <rect class="cls-1" width="0.186" height="10.851" transform="translate(7.162 1.984)"/>
  <rect class="cls-1" width="0.186" height="12.463" transform="translate(8.309 0.341)"/>
  <rect class="cls-1" width="0.186" height="12.804" transform="translate(9.487)"/>
  <rect class="cls-1" width="0.186" height="12.184" transform="translate(10.665 0.62)"/>
  <rect class="cls-1" width="0.186" height="6.262" transform="translate(11.812 6.541)"/>
  <rect class="cls-1" width="0.186" height="5.487" transform="translate(12.99 7.317)"/>
  <rect class="cls-1" width="0.186" height="5.983" transform="translate(14.168 6.82)"/>
  <rect class="cls-1" width="0.186" height="8.185" transform="translate(15.315 4.619)"/>
  <rect class="cls-1" width="0.186" height="10.324" transform="translate(16.493 2.511)"/>
  <rect class="cls-1" width="0.186" height="12.029" transform="translate(17.671 0.775)"/>
  <rect class="cls-1" width="0.186" height="11.347" transform="translate(18.818 1.488)"/>
  <rect class="cls-1" width="0.186" height="10.634" transform="translate(19.996 2.201)"/>
  <rect class="cls-1" width="0.186" height="8.495" transform="translate(21.143 4.309)"/>
  <rect class="cls-2" width="0.186" height="9.301" transform="translate(22.322 3.534)"/>
  <rect class="cls-2" width="108.601" height="0.186" transform="translate(0 17.64)"/>
  <rect class="cls-1" width="0.186" height="10.417" transform="translate(23.5 2.387)"/>
  <rect class="cls-1" width="0.186" height="11.688" transform="translate(24.647 1.116)"/>
  <rect class="cls-1" width="0.186" height="11.347" transform="translate(25.825 1.488)"/>
  <rect class="cls-1" width="0.186" height="11.719" transform="translate(27.003 1.085)"/>
  <rect class="cls-1" width="0.186" height="10.169" transform="translate(29.359 2.635)"/>
  <rect class="cls-1" width="0.186" height="6.789" transform="translate(30.537 6.045)"/>
  <rect class="cls-1" width="0.186" height="7.534" transform="translate(31.715 5.27)"/>
  <rect class="cls-1" width="0.186" height="8.03" transform="translate(32.862 4.774)"/>
  <rect class="cls-1" width="0.186" height="10.665" transform="translate(34.04 2.139)"/>
  <rect class="cls-1" width="0.186" height="11.068" transform="translate(35.218 1.736)"/>
  <rect class="cls-1" width="0.186" height="11.316" transform="translate(36.366 1.519)"/>
  <rect class="cls-1" width="0.186" height="11.378" transform="translate(37.544 1.426)"/>
  <rect class="cls-1" width="0.186" height="10.665" transform="translate(38.691 2.139)"/>
  <rect class="cls-1" width="0.186" height="10.169" transform="translate(39.869 2.666)"/>
  <rect class="cls-1" width="0.186" height="10.882" transform="translate(41.047 1.953)"/>
  <rect class="cls-1" width="0.186" height="8.309" transform="translate(42.194 4.526)"/>
  <rect class="cls-1" width="0.186" height="8.65" transform="translate(43.372 4.154)"/>
  <rect class="cls-1" width="0.186" height="6.603" transform="translate(44.55 6.2)"/>
  <path class="cls-1" d="M90.9,2.4h.186V14.491H90.9Z" transform="translate(-62.719 -1.656)"/>
  <path class="cls-1" d="M2.787,45.969.462,42.9H.4v3.472H.586V43.4l2.325,3.069h.062V42.993H2.787Z" transform="translate(-0.276 -29.6)"/>
  <path class="cls-1" d="M11.886,44.967H13.5v-.186H11.886v-1.4h1.8V43.2H11.7v3.379h2.046v-.186h-1.86Z" transform="translate(-8.073 -29.807)"/>
  <path class="cls-1" d="M22.724,45.938,21.7,42.9h-.062l-1.054,3.038-.868-2.945H19.5l1.054,3.441v.031h.062L21.67,43.4l1.023,3.069h.062l1.054-3.472h-.186Z" transform="translate(-13.455 -29.6)"/>
  <path class="cls-1" d="M40.981,44.915l-1.519-1.984V42.9H39.4v3.472h.186V43.427l1.364,1.767h.031l1.364-1.767v2.945h.217V42.9H42.5Z" transform="translate(-27.185 -29.6)"/>
  <path class="cls-1" d="M52.786,44.967H54.4v-.186H52.786v-1.4h1.767V43.2H52.6v3.379h2.046v-.186h-1.86Z" transform="translate(-36.293 -29.807)"/>
  <path class="cls-1" d="M62.175,43.2H61.4v3.41h.775a1.708,1.708,0,1,0,0-3.41Zm-.031.186a1.522,1.522,0,1,1,0,3.038h-.558V43.417h.558Z" transform="translate(-42.365 -29.807)"/>
  <rect class="cls-2" width="0.217" height="3.41" transform="translate(22.322 13.393)"/>
  <path class="cls-1" d="M76.057,42.9H76l-1.4,3.472h.217l.4-.992h1.612l.4.992h.217l-1.4-3.472Zm.713,2.294H75.313l.744-1.86Z" transform="translate(-51.472 -29.6)"/>
  <path class="cls-1" d="M91.676,45.7a1.544,1.544,0,0,1-1.24.589,1.55,1.55,0,1,1,1.147-2.542v.031l.155-.124V43.62A1.706,1.706,0,0,0,90.405,43,1.688,1.688,0,0,0,88.7,44.736a1.7,1.7,0,0,0,1.736,1.736,1.748,1.748,0,0,0,1.4-.682v-.031l-.155-.062Z" transform="translate(-61.201 -29.669)"/>
  <path class="cls-1" d="M101.017,44.967H102.6v-.186h-1.581v-1.4h1.767V43.2H100.8v3.379h2.046v-.186h-1.829Z" transform="translate(-69.55 -29.807)"/>
  <path class="cls-1" d="M112.056,45.969,109.762,42.9H109.7v3.472h.186V43.4l2.294,3.069h.062V42.993h-.186Z" transform="translate(-75.691 -29.6)"/>
  <path class="cls-1" d="M119.8,43.386h1.054v3.193h.217V43.386h1.054V43.2H119.8Z" transform="translate(-82.659 -29.807)"/>
  <path class="cls-1" d="M129.386,44.967H131v-.186h-1.612v-1.4h1.8V43.2H129.2v3.379h2.046v-.186h-1.86Z" transform="translate(-89.145 -29.807)"/>
  <path class="cls-1" d="M139.24,45.091a.884.884,0,0,0,.775-.93.939.939,0,0,0-1.054-.961H138v3.41h.217V45.122h.806l.93,1.457h.217Zm-1.023-1.705h.744a.78.78,0,1,1,0,1.55h-.744Z" transform="translate(-95.217 -29.807)"/>
  <g transform="translate(46.286 4.991)">
    <path class="cls-3" d="M152.369,28.1h0a.286.286,0,0,1-.31-.279v-2.6a.277.277,0,0,0-.5-.186,14.261,14.261,0,0,1-1.612,1.736.282.282,0,0,1-.341.031h0a.291.291,0,0,1-.031-.465,11.7,11.7,0,0,0,1.519-1.55,8.38,8.38,0,0,0,.682-1.023.287.287,0,0,0-.248-.434h-1.953a.278.278,0,0,1-.279-.279v-.031a.278.278,0,0,1,.279-.279h2.2a.278.278,0,0,0,.279-.279v-.806a.278.278,0,0,0-.279-.279h-2.17a.278.278,0,0,1-.279-.279v-.062a.278.278,0,0,1,.279-.279H152.8a.245.245,0,0,0,.248-.155,17.786,17.786,0,0,0,.837-2.015.316.316,0,0,1,.372-.186h.031a.3.3,0,0,1,.186.341,15.027,15.027,0,0,1-.62,1.581.286.286,0,0,0,.248.4h.961a.278.278,0,0,1,.279.279v.031a.278.278,0,0,1-.279.279h-2.139a.278.278,0,0,0-.279.279v.837a.278.278,0,0,0,.279.279h2.139a.278.278,0,0,1,.279.279v.031a.278.278,0,0,1-.279.279H153.3a.164.164,0,0,0-.124.279c.558.62,1.085,1.24,1.581,1.891a.325.325,0,0,1-.031.4h0a.269.269,0,0,1-.4-.062c-.372-.5-.806-1.054-1.3-1.612a.209.209,0,0,0-.372.124v3.472A.286.286,0,0,1,152.369,28.1Zm.155-12h.031a.278.278,0,0,1,.279.279V17a.278.278,0,0,0,.279.279h1.86a.278.278,0,0,1,.279.279v.031a.278.278,0,0,1-.279.279H149.7a.278.278,0,0,1-.279-.279v-.031a.278.278,0,0,1,.279-.279h2.2a.278.278,0,0,0,.279-.279v-.62A.4.4,0,0,1,152.524,16.1Zm-1.643,2.418a9.661,9.661,0,0,1,.434,1.643.286.286,0,0,1-.217.341h-.031a.286.286,0,0,1-.341-.217c-.124-.62-.279-1.147-.4-1.581a.289.289,0,0,1,.186-.372h.031A.267.267,0,0,1,150.881,18.518Zm6.262,1.674a.278.278,0,0,0-.279.279V22.8a6.355,6.355,0,0,1-.434,2.418A8.564,8.564,0,0,1,155,27.54a.292.292,0,0,1-.4.031l-.062-.062a.29.29,0,0,1-.031-.4,6.842,6.842,0,0,0,1.426-2.263,6.107,6.107,0,0,0,.341-2.015v-5.7c0-.124.031-.186.155-.186a26.781,26.781,0,0,0,3.689-.4.275.275,0,0,1,.31.186v.031a.275.275,0,0,1-.217.372,27.289,27.289,0,0,1-3.286.372.082.082,0,0,0-.093.093v1.674a.278.278,0,0,0,.279.279h4.03a.278.278,0,0,1,.279.279v.031a.278.278,0,0,1-.279.279h-1.271a.278.278,0,0,0-.279.279v7.472a.278.278,0,0,1-.279.279h-.031a.278.278,0,0,1-.279-.279v-7.41a.278.278,0,0,0-.279-.279Z" transform="translate(-149.3 -16.1)"/>
    <path class="cls-3" d="M190.41,23.493a.362.362,0,0,1-.093-.434,24.127,24.127,0,0,0,.992-3.689.2.2,0,0,0-.186-.248h-.744a.278.278,0,0,1-.279-.279h0a.278.278,0,0,1,.279-.279h.93a.179.179,0,0,0,.186-.186l.217-1.581a.307.307,0,0,1,.341-.248h0a.336.336,0,0,1,.248.341l-.217,1.426a.174.174,0,0,0,.186.217h1.674q.14,0,.093.186v.031a17.162,17.162,0,0,1-1.147,6.014.192.192,0,0,0,.062.217l.806.713a.329.329,0,0,1,.062.4h0a.281.281,0,0,1-.434.062l-.589-.527a.193.193,0,0,0-.31.062,11.451,11.451,0,0,1-1.8,2.2.325.325,0,0,1-.372.031h0a.291.291,0,0,1-.031-.465,8.761,8.761,0,0,0,1.3-1.426h0l.465-.775a.188.188,0,0,0-.031-.248Zm2.883-4.34h-1.147a.174.174,0,0,0-.186.155,30.045,30.045,0,0,1-.992,3.782q-.046.093.093.186l1.364,1.209.093-.217a13.441,13.441,0,0,0,.682-2.2,20.2,20.2,0,0,0,.31-2.728A.207.207,0,0,0,193.293,19.152Zm.868,4.34h0a.286.286,0,0,1,.279-.31h3.069a.212.212,0,0,0,.217-.217v-.837a.212.212,0,0,0-.217-.217h-1.922c-.186,0-.279-.093-.279-.31V18.222a.212.212,0,0,0-.217-.217h-.806a.278.278,0,0,1-.279-.279h0a.278.278,0,0,1,.279-.279h.806a.212.212,0,0,0,.217-.217v-.651a.278.278,0,0,1,.279-.279h0a.278.278,0,0,1,.279.279v.651a.212.212,0,0,0,.217.217h3.689a.212.212,0,0,0,.217-.217v-.651a.278.278,0,0,1,.279-.279h0a.278.278,0,0,1,.279.279v.651a.212.212,0,0,0,.217.217h.9a.278.278,0,0,1,.279.279h0a.278.278,0,0,1-.279.279h-.9a.212.212,0,0,0-.217.217v3.224a.49.49,0,0,1-.5.5H198.44a.212.212,0,0,0-.217.217V23a.212.212,0,0,0,.217.217h3.131a.278.278,0,0,1,.279.279h0a.278.278,0,0,1-.279.279h-2.728a.2.2,0,0,0-.155.31,12.671,12.671,0,0,0,3.1,2.883.291.291,0,0,1,.031.465h0a.325.325,0,0,1-.372.031,20.066,20.066,0,0,1-2.728-2.387c-.372-.341-.527-.093-.527.186v2.759a.278.278,0,0,1-.279.279h0a.278.278,0,0,1-.279-.279V24.733a.108.108,0,0,0-.186-.062,12.25,12.25,0,0,1-3.534,2.945.33.33,0,0,1-.372-.062l-.031-.031a.267.267,0,0,1,.093-.434,12.4,12.4,0,0,0,3.5-2.945.221.221,0,0,0-.155-.341h-2.635A.439.439,0,0,1,194.161,23.493Zm5.642-5.487h-3.689a.212.212,0,0,0-.217.217v.992a.212.212,0,0,0,.217.217H199.8a.212.212,0,0,0,.217-.217v-.992A.212.212,0,0,0,199.8,18.005Zm-3.875,3.038a.311.311,0,0,0,.31.31h3.472a.311.311,0,0,0,.31-.31v-.837a.212.212,0,0,0-.217-.217h-3.689a.212.212,0,0,0-.217.217v.837Z" transform="translate(-177.451 -16.238)"/>
    <path class="cls-3" d="M232.5,17.544a.49.49,0,0,1,.5-.5h2.6a.523.523,0,0,1,.527.527v2.573a.278.278,0,0,0,.279.279h.186c.093,0,.124.062.124.186a10.36,10.36,0,0,1-.155,1.333.265.265,0,0,1-.341.217h-.062a.256.256,0,0,1-.217-.31l.062-.744c0-.062,0-.093-.093-.093H232.93a.344.344,0,0,0-.341.341v.558a.278.278,0,0,1-.279.279h-.031a.278.278,0,0,1-.279-.279v-1.4c0-.062.031-.093.124-.093h.4V17.544Zm.62,10.913h0a.286.286,0,0,1-.31-.279v-5.7a.424.424,0,0,1,.434-.434h2.511a.142.142,0,0,1,.155.124v5.642a.626.626,0,0,1-.279.558,1.278,1.278,0,0,1-.992.031.33.33,0,0,1-.248-.279v-.031a.291.291,0,0,1,.372-.279q.279.093.372,0a.271.271,0,0,0,.155-.279V26.5a.278.278,0,0,0-.279-.279h-1.3a.278.278,0,0,0-.279.279v1.612A.3.3,0,0,1,233.116,28.457Zm.527-8.03a.278.278,0,0,0,.279-.279V18.629c0-.093.031-.124.124-.124h1.178a.278.278,0,0,0,.279-.279v-.155a.377.377,0,0,0-.372-.372h-1.643a.377.377,0,0,0-.372.372v2.108a.278.278,0,0,0,.279.279h.248Zm1.4,3.472a.278.278,0,0,0,.279-.279v-.9l-.062-.031h-1.829l-.031.031v.9a.278.278,0,0,0,.279.279Zm.279,1.488v-.62a.278.278,0,0,0-.279-.279h-1.3a.278.278,0,0,0-.279.279v.62a.278.278,0,0,0,.279.279h1.3C235.193,25.7,235.317,25.543,235.317,25.388Zm.217-5.239v-.775a.278.278,0,0,0-.279-.279h-.31a.377.377,0,0,0-.372.372v.682a.278.278,0,0,0,.279.279h.4A.3.3,0,0,0,235.534,20.148Zm2.945,6.262a.316.316,0,0,0-.248-.155h-.62a.082.082,0,0,1-.093-.093V24.3a.358.358,0,0,1,.372-.372h4.991a.082.082,0,0,1,.093.093v1.829a.377.377,0,0,1-.372.372h-.217a.3.3,0,0,0-.279.186l-.217.62-.124.31a.3.3,0,0,0,.279.4h1.24a.278.278,0,0,1,.279.279h0a.278.278,0,0,1-.279.279h-6.138a.278.278,0,0,1-.279-.279h0a.278.278,0,0,1,.279-.279h1.426a.3.3,0,0,0,.279-.4A8.146,8.146,0,0,0,238.479,26.411Zm5.146-3.658h0a.286.286,0,0,1-.279.31h-6.138a.278.278,0,0,1-.279-.279v-.031a.278.278,0,0,1,.279-.279h6.138A.278.278,0,0,1,243.626,22.752Zm-.682-5.177a.358.358,0,0,1,.372.372v3.565a.082.082,0,0,1-.093.093H237.3c-.062,0-.062-.031-.062-.093V17.947a.358.358,0,0,1,.372-.372h1.116a.278.278,0,0,0,.279-.279v-.217a.278.278,0,0,1,.279-.279h.031a.278.278,0,0,1,.279.279V17.3a.278.278,0,0,0,.279.279h.558a.278.278,0,0,0,.279-.279v-.217a.278.278,0,0,1,.279-.279h.031a.278.278,0,0,1,.279.279V17.3a.278.278,0,0,0,.279.279Zm-3.906.868a.278.278,0,0,0-.279-.279h-.868l-.031.031v.775a.278.278,0,0,0,.279.279h.62a.278.278,0,0,0,.279-.279Zm-.279,1.4h-.62a.278.278,0,0,0-.279.279v.806l.031.031h.868a.278.278,0,0,0,.279-.279v-.558A.3.3,0,0,0,238.758,19.838Zm-.62,4.712h0l-.031,1.054.031.031h4.185l.031-.031V24.582l-.031-.031Zm2.914,2.976.341-.9a.3.3,0,0,0-.279-.4h-1.674a.3.3,0,0,0-.279.4l.372.9a.271.271,0,0,0,.279.186h.961A.271.271,0,0,0,241.053,27.527Zm-.558-9.363h-.558a.278.278,0,0,0-.279.279v.5a.278.278,0,0,0,.279.279h.558a.278.278,0,0,0,.279-.279v-.5A.278.278,0,0,0,240.495,18.164Zm0,1.674h-.558a.278.278,0,0,0-.279.279v.558a.278.278,0,0,0,.279.279h.558a.278.278,0,0,0,.279-.279v-.558A.3.3,0,0,0,240.495,19.838Zm1.178-.589h.775a.278.278,0,0,0,.279-.279V18.2l-.031-.031h-1.023a.278.278,0,0,0-.279.279v.5A.286.286,0,0,0,241.673,19.249Zm-.279,1.457a.278.278,0,0,0,.279.279H242.7l.031-.031v-.806a.278.278,0,0,0-.279-.279h-.775a.278.278,0,0,0-.279.279Z" transform="translate(-206.361 -16.583)"/>
    <path class="cls-3" d="M274.241,26.015h0a.344.344,0,0,1-.341-.341V19.659a.556.556,0,0,1,.558-.558h4.03a.344.344,0,0,0,.341-.341V17.241a.344.344,0,0,1,.341-.341h0a.344.344,0,0,1,.341.341v1.55a.344.344,0,0,0,.341.341h4.433a.221.221,0,0,1,.248.217V25.7a.344.344,0,0,1-.341.341h0a.344.344,0,0,1-.341-.341v-.341a.344.344,0,0,0-.341-.341h-3.689a.344.344,0,0,0-.341.341V28.4a.344.344,0,0,1-.341.341h0a.344.344,0,0,1-.341-.341V25.364a.344.344,0,0,0-.341-.341h-3.6a.344.344,0,0,0-.341.341V25.7A.285.285,0,0,1,274.241,26.015Zm4.557-1.922V20.031a.344.344,0,0,0-.341-.341h-3.844a.082.082,0,0,0-.093.093v4.309a.344.344,0,0,0,.341.341h3.6A.325.325,0,0,0,278.8,24.093Zm5.022,0V20.155a.424.424,0,0,0-.434-.434h-3.6a.344.344,0,0,0-.341.341v4.061a.344.344,0,0,0,.341.341h3.689A.4.4,0,0,0,283.821,24.093Z" transform="translate(-235.271 -16.652)"/>
    <path class="cls-3" d="M313.632,19.281a37.856,37.856,0,0,1-.992,7.6.336.336,0,0,1-.341.248h-.062a.322.322,0,0,1-.248-.372,42.449,42.449,0,0,0,.992-7.472.28.28,0,0,1,.341-.279h.031A.278.278,0,0,1,313.632,19.281Zm1.953-1.674a.311.311,0,0,1,.31.31V27.28c0,.155,0,.248.031.279.062.093.155.124.341.124h4.278a.489.489,0,0,0,.4-.155,6.952,6.952,0,0,0,.31-2.573.291.291,0,0,1,.372-.279h0a.3.3,0,0,1,.217.279c.031,1.705-.093,2.759-.372,3.069a.915.915,0,0,1-.744.279h-4.743a.526.526,0,0,1-.4-.124.829.829,0,0,1-.31-.775V17.917a.311.311,0,0,1,.31-.31Zm2.635-.4a38.875,38.875,0,0,1,1.24,6.882.282.282,0,0,1-.248.31h-.062a.28.28,0,0,1-.341-.279,38.79,38.79,0,0,0-1.178-6.758.294.294,0,0,1,.217-.372h.062A.27.27,0,0,1,318.221,17.2Zm4.061,1.519a43.36,43.36,0,0,1,1.581,7.782.307.307,0,0,1-.248.341h-.062a.291.291,0,0,1-.341-.248,43.271,43.271,0,0,0-1.55-7.658.275.275,0,0,1,.217-.372h.062C322.065,18.475,322.22,18.568,322.282,18.723Z" transform="translate(-261.549 -16.708)"/>
  </g>
</svg>
