<svg xmlns="http://www.w3.org/2000/svg" viewBox="0 0 108.03 21.243">
  <defs>
    <style>
      .cls-1 {
        fill: #f46c00;
      }

      .cls-2 {
        fill: #fff;
      }

      .cls-3 {
        fill: #001655;
      }
    </style>
  </defs>
  <g transform="translate(0 0)">
    <path class="cls-1" d="M26.851,4.869H8.775A1.75,1.75,0,0,0,7.664,5.3a1.629,1.629,0,0,0-.427,1.071c-.043.428-.043,3.855-.043,9.08s0,8.652.043,9.08A1.629,1.629,0,0,0,7.664,25.6a1.75,1.75,0,0,0,1.111.428l9.017.086,9.017-.086A1.75,1.75,0,0,0,27.92,25.6a1.629,1.629,0,0,0,.427-1.071c.043-.428.043-3.9.043-9.08s0-8.652-.043-9.08A1.629,1.629,0,0,0,27.92,5.3,1.75,1.75,0,0,0,26.851,4.869Z" transform="translate(-7.194 -4.869)"/>
    <path class="cls-2" d="M21.74,9.694H14.091a3.158,3.158,0,0,0-2.051.771,2.873,2.873,0,0,0-.9,2.1c0,.857,0,1.413,0,2.784v2.784a2.873,2.873,0,0,0,.9,2.1A3.2,3.2,0,0,0,14.091,21l3.8.086L21.7,21a3.2,3.2,0,0,0,2.051-.771,2.873,2.873,0,0,0,.9-2.1V12.564a2.873,2.873,0,0,0-.9-2.1,3.2,3.2,0,0,0-2.008-.771Z" transform="translate(-7.296 -4.983)"/>
    <path d="M20.865,12.107H20.31v4.026h.556a.642.642,0,0,0,.641-.728v-2.57a.642.642,0,0,0-.641-.728Z" transform="translate(-7.533 -5.04)"/>
    <path d="M16.8,18.292a1.281,1.281,0,0,0,2.521,0Z" transform="translate(-7.442 -5.187)"/>
    <path d="M15.934,15.491a.62.62,0,1,1-1.239,0V12.107h1.239Z" transform="translate(-7.388 -5.04)"/>
    <path class="cls-3" d="M102.937,19.072q.085-.6.214-1.8l1.282.086a17.929,17.929,0,0,1-.214,1.97q-.128.685-.47,2.056l-1.41-.171A14.836,14.836,0,0,0,102.937,19.072Zm5.213-8.823a31.92,31.92,0,0,1-2.778,4.54l1.709-.086-.3-1.028,1.154-.171a17.288,17.288,0,0,1,.812,2.655l-1.367.171-.085-.471-.94.086v6.767h-1.367V16.074l-2.222.171L102.681,15l.9-.086,1.2-1.585a18.013,18.013,0,0,0-2.094-2.184l.726-1.114.256.257a20.4,20.4,0,0,0,1.5-2.484l1.2.557a29.05,29.05,0,0,1-1.752,2.87l.9.985q.726-1.2,1.41-2.527Zm-.94,9.979a29.414,29.414,0,0,0-.171-2.955h1.154a23.528,23.528,0,0,1,.171,3h-1.2Zm1.795,2.441V8.408h8.675V21.214a1.437,1.437,0,0,1-1.624,1.628h-.214a1.283,1.283,0,0,1-1.282-1.071v-.3h1.154a.642.642,0,0,0,.684-.728V9.735H110.33V22.713h-1.367Zm6.837-6.467h-2.991v2.441a.214.214,0,0,0,.214.257h2.393v1.328h-3.12a.813.813,0,0,1-.9-.942V16.246h-.6v-1.2h1.88V13.59h-1.88V12.434h.855l-.6-1.884,1.282-.214.641,2.1h.726l.684-2.013,1.325.171-.684,1.884h.726v1.2h-1.795v1.456H115.8v1.2Z" transform="translate(-9.65 -4.938)"/>
    <path class="cls-3" d="M72.161,18.518v4.154H70.793V18.817l-.342.428a19.423,19.423,0,0,1-2.265,2.27l-.94-.942a14.93,14.93,0,0,0,2.137-2.1,14.176,14.176,0,0,0,1.111-1.585H67.759V15.605h3.034V14.235H68.144V12.907h1.111l-.556-2.27h-.812V9.309h2.906V7.9h1.367V9.266h2.82v1.328h-.726l-.6,2.27h1.026v1.328H72.2v1.413h2.82v1.328H72.2v.086A14.407,14.407,0,0,0,74.6,18.946l-.556,1.285a11.932,11.932,0,0,1-1.88-1.713Zm.684-7.923H70.109l.556,2.27h1.624Zm6.709,12.164V14.363H77.118v.128a27.858,27.858,0,0,1-.342,4.711,11.409,11.409,0,0,1-1.282,3.555l-1.282-.642a10.594,10.594,0,0,0,1.2-3.384,24.811,24.811,0,0,0,.3-4.24V8.924A30.578,30.578,0,0,0,81.434,7.9l.726,1.114a43.418,43.418,0,0,1-5.043,1.071v2.955h5.6v1.328H80.921v7.11A1.283,1.283,0,0,1,79.6,22.8h-.043Z" transform="translate(-8.744 -4.941)"/>
    <path class="cls-3" d="M85.714,22.722V8.246h6.2v5.4H87.081v9.08H85.714ZM87.081,10.43h3.461V9.359H87.081v1.028Zm3.461,1.114H87.081v.985h3.461v-.985Zm-2.137,2.87h8.76v1.114H96.055v4.5l1.111-.086.085,1.028-1.2.171v1.328H94.688v-1.2q-3.077.3-6.581.428V20.538h1.41V15.527H88.449V14.413Zm6.282,1.114H90.8v.985h3.889v-.985Zm0,1.97H90.8v.9h3.889v-.9Zm0,1.884H90.8v1.028l3.889-.257v-.771ZM99.9,8.2V21.566a1.134,1.134,0,0,1-1.282,1.285h-.556a1.283,1.283,0,0,1-1.282-1.071v-.3h1.367a.428.428,0,0,0,.47-.471V13.642H93.748v-5.4h6.2Zm-4.829,2.184h3.461V9.359H95.072v1.028ZM98.534,11.5H95.072v.985h3.461V11.5Z" transform="translate(-9.221 -4.948)"/>
    <path class="cls-3" d="M37.369,9.736V22.714H36.045v-2.7l-3.5.9-.3-1.328.812-.171V9.736h-.385V8.409h5.213V9.736h-.513Zm-2.991,0v2.184H36V9.736H34.421Zm0,3.384v2.141H36V13.12H34.421Zm0,3.3v2.7L36,18.731v-2.27H34.421Zm8.162-6.253a18.334,18.334,0,0,1-2.35,3.512l1.068-.128-.214-.685,1.068-.171a11.969,11.969,0,0,1,.641,2.1l-1.154.171-.085-.343-3.333.428a7.126,7.126,0,0,0-.171-1.114l.641-.086,1.239-1.542a13.691,13.691,0,0,0-1.88-1.927l.641-.985.342.3a12.939,12.939,0,0,0,1.154-1.842l1.068.514a17.009,17.009,0,0,1-1.325,2.141l.684.814q.556-.9.983-1.756Zm-.171,5.354v1.927a7.424,7.424,0,0,1-.6,3.169,5.948,5.948,0,0,1-2.222,2.356l-1.026-.985a5.135,5.135,0,0,0,2.094-2.313H38.48V15.69h1.367v2.741h1.111a7.556,7.556,0,0,0,.085-1.028V15.518h1.367Zm4.188-.857-3.5.471a7.6,7.6,0,0,0-.171-1.114l.641-.086,1.154-1.5a15.791,15.791,0,0,0-1.88-2.056l.684-.985.342.257a11.785,11.785,0,0,0,1.026-1.8l1.068.471a18.768,18.768,0,0,1-1.325,2.184l.726.9A19.246,19.246,0,0,0,46.3,9.565l.983.557a18.166,18.166,0,0,1-2.222,3.555l1.2-.171L46,12.777l1.026-.257a14.325,14.325,0,0,1,.855,2.184l-1.154.257Zm.684,1.071V19.8H44.72v1.8a1.283,1.283,0,0,1-1.282,1.285h-.043V15.518h1.367V18.6h1.154V15.69h1.367Z" transform="translate(-7.841 -4.94)"/>
    <path class="cls-3" d="M49.744,13.59q5.213-2.827,7.265-5.782h1.282q1.838,2.955,7.179,5.653L64.658,14.7a27.422,27.422,0,0,1-2.735-1.628v1.242h-8.5V13.033a26.357,26.357,0,0,1-2.906,1.756ZM51.8,16.074h11.88v5.354a1.283,1.283,0,0,1-1.325,1.328h-.043V22.07H53.163v.642H51.8ZM62.265,17.4h-9.1v3.341h9.1V17.4ZM57.65,9.136A22.54,22.54,0,0,1,53.5,12.99h8.248a16.339,16.339,0,0,1-4.1-3.855Z" transform="translate(-8.292 -4.938)"/>
  </g>
</svg>
